<svg width="383" height="518" viewBox="0 0 383 518" fill="none" xmlns="http://www.w3.org/2000/svg">
<path fill-rule="evenodd" clip-rule="evenodd" d="M78.8656 304.213C48.166 304.213 23.279 329.1 23.279 359.799C23.279 390.499 48.166 415.386 78.8656 415.386C109.565 415.386 134.452 390.499 134.452 359.799C134.452 329.1 109.565 304.213 78.8656 304.213ZM18.2544 359.799C18.2544 326.325 45.3909 299.188 78.8656 299.188C112.34 299.188 139.477 326.325 139.477 359.799C139.477 393.274 112.34 420.41 78.8656 420.41C45.3909 420.41 18.2544 393.274 18.2544 359.799Z" fill="#120802"/>
<path d="M23.279 359.799C23.279 329.1 48.166 304.213 78.8656 304.213C109.565 304.213 134.452 329.1 134.452 359.799C134.452 390.499 109.565 415.386 78.8656 415.386C48.166 415.386 23.279 390.499 23.279 359.799Z" fill="#EE6123"/>
<path fill-rule="evenodd" clip-rule="evenodd" d="M277.274 369.117C277.274 443.259 227.928 505.155 165.057 505.155C102.185 505.155 52.8398 443.259 52.8398 369.117C52.8398 294.975 102.185 233.08 165.057 233.08C227.928 233.08 277.274 294.975 277.274 369.117ZM165.057 500.13C224.258 500.13 272.249 441.474 272.249 369.117C272.249 296.761 224.258 238.104 165.057 238.104C105.856 238.104 57.8645 296.761 57.8645 369.117C57.8645 441.474 105.856 500.13 165.057 500.13Z" fill="#120802"/>
<path d="M272.249 369.117C272.249 441.474 224.258 500.13 165.057 500.13C105.856 500.13 57.8645 441.474 57.8645 369.117C57.8645 296.761 105.856 238.104 165.057 238.104C224.258 238.104 272.249 296.761 272.249 369.117Z" fill="#EE6123"/>
<ellipse cx="164.766" cy="326.867" rx="72.6236" ry="88.7621" fill="#ECF1FE"/>
<path fill-rule="evenodd" clip-rule="evenodd" d="M149.346 333.549L149.348 333.549C233.045 357.549 315.608 331.408 345.338 274.837C346.24 273.122 347.092 271.379 347.895 269.608C349 271.243 350.076 272.888 351.124 274.541C375.569 313.111 384.538 356.462 372.74 397.606C346.22 490.093 224.807 536.428 101.497 501.155L101.303 501.099C39.6146 483.411 0.361454 431.564 13.6285 385.296C26.8955 339.028 87.6584 315.861 149.346 333.549ZM145.952 327.317L145.922 327.419C115.757 319.762 85.9146 321.45 61.5395 330.744C35.8677 340.532 15.9657 358.916 8.79851 383.911C1.63135 408.906 8.76732 435.043 25.3514 456.948C41.9343 478.851 68.1296 496.814 99.9177 505.929L100.116 505.986C162.714 523.893 225.015 521.144 275.207 501.985C325.4 482.825 363.776 447.095 377.57 398.991C390.366 354.366 379.574 307.538 352.059 266.796L347.03 259.349L343.319 267.533C317.468 324.546 235.65 353.063 150.747 328.723C150.742 328.722 150.737 328.72 150.733 328.719L145.952 327.317Z" fill="#120802"/>
<path d="M149.346 333.549L149.348 333.549C233.045 357.549 315.608 331.408 345.338 274.837C346.24 273.122 347.092 271.379 347.895 269.608C349 271.243 350.076 272.888 351.124 274.541C375.569 313.111 384.538 356.462 372.74 397.606C346.22 490.093 224.807 536.428 101.497 501.155L101.303 501.099C39.6146 483.411 0.361454 431.564 13.6285 385.296C26.8955 339.028 87.6584 315.861 149.346 333.549Z" fill="#ECF1FE"/>
<path d="M297.412 486.335C263.421 467.412 242.362 419.315 247.998 365.69C249.005 356.107 250.81 346.875 253.306 338.107C221.671 344.934 185.616 343.949 149.348 333.549L149.347 333.549L149.346 333.549C87.6583 315.861 26.8954 339.029 13.6284 385.296C0.361336 431.564 39.6144 483.411 101.303 501.1L101.461 501.145C173.642 521.802 245.177 514.495 297.412 486.335Z" fill="#EE6123"/>
<path fill-rule="evenodd" clip-rule="evenodd" d="M36.1411 13.0712C27.4829 12.7079 20.1441 14.4434 14.9209 18.8262C9.69764 23.209 6.7141 30.1349 5.56848 38.7247C4.42506 47.2979 5.15583 57.2496 7.09245 67.2633C9.02576 77.2598 12.1385 87.2038 15.672 95.7196C19.222 104.275 23.1297 111.227 26.5825 115.342C33.3339 123.388 43.9318 127.163 55.8833 126.487C67.8354 125.812 80.9699 120.674 92.3608 111.115C103.752 101.557 111.093 89.5147 113.833 77.8615C116.574 66.2088 114.696 55.1164 107.945 47.0705C104.492 42.9556 98.3246 37.9 90.5157 32.9184C82.7428 27.9597 73.4904 23.1675 63.9815 19.5277C54.4562 15.8817 44.7826 13.4339 36.1411 13.0712ZM93.218 28.6823C101.221 33.7878 107.871 39.1649 111.794 43.8407C119.795 53.3761 121.737 66.2037 118.724 79.0118C115.712 91.8193 107.73 104.778 95.5905 114.965C83.4508 125.151 69.3028 130.762 56.1668 131.504C43.0302 132.246 30.7346 128.107 22.7335 118.572C18.81 113.896 14.6693 106.414 11.0311 97.6454C7.37643 88.8377 4.16118 78.5688 2.15923 68.2174C0.160587 57.883 -0.651205 47.3515 0.587944 38.0604C1.82489 28.786 5.14905 20.4665 11.6911 14.9771C18.2331 9.48769 27.0034 7.65868 36.3518 8.05102C45.7168 8.44407 55.9474 11.0723 65.7777 14.8351C75.6243 18.6042 85.1788 23.5538 93.218 28.6823Z" fill="#120802"/>
<path d="M14.9209 18.8262C20.1441 14.4434 27.4829 12.7079 36.1411 13.0712C44.7826 13.4339 54.4562 15.8817 63.9815 19.5277C73.4904 23.1675 82.7428 27.9597 90.5157 32.9184C98.3246 37.9 104.492 42.9556 107.945 47.0705C114.696 55.1164 116.574 66.2088 113.833 77.8615C111.093 89.5147 103.752 101.557 92.3608 111.115C80.9699 120.674 67.8354 125.812 55.8833 126.487C43.9318 127.163 33.3339 123.388 26.5825 115.342C23.1297 111.227 19.222 104.275 15.672 95.7196C12.1385 87.2038 9.02576 77.2598 7.09245 67.2633C5.15583 57.2496 4.42506 47.2979 5.56848 38.7247C6.7141 30.1349 9.69764 23.209 14.9209 18.8262Z" fill="#EE6123"/>
<path d="M88.9014 57.272C97.2963 67.2767 93.2469 84.4954 79.8568 95.731C66.4667 106.967 48.8065 107.964 40.4115 97.9598C32.0166 87.9551 20.5616 52.259 33.9517 41.0234C47.3418 29.7878 80.5064 47.2673 88.9014 57.272Z" fill="#ECF1FE"/>
<path d="M88.9014 57.272C97.2963 67.2767 93.2469 84.4954 79.8568 95.731C66.4667 106.967 48.8065 107.964 40.4115 97.9598C32.0166 87.9551 20.5616 52.259 33.9517 41.0234C47.3418 29.7878 80.5064 47.2673 88.9014 57.272Z" fill="#ECF1FE"/>
<path fill-rule="evenodd" clip-rule="evenodd" d="M239.632 32.9184C231.823 37.9 225.655 42.9556 222.203 47.0705C215.451 55.1164 213.574 66.2088 216.314 77.8615C219.055 89.5147 226.396 101.557 237.787 111.115C249.178 120.674 262.312 125.812 274.264 126.487C286.216 127.163 296.814 123.388 303.565 115.342C307.018 111.227 310.926 104.275 314.476 95.7196C318.009 87.2038 321.122 77.2598 323.055 67.2633C324.992 57.2496 325.723 47.2979 324.579 38.7247C323.434 30.1349 320.45 23.209 315.227 18.8262C310.004 14.4434 302.665 12.7079 294.007 13.0712C285.365 13.4339 275.691 15.8817 266.166 19.5277C256.657 23.1675 247.405 27.9597 239.632 32.9184ZM293.796 8.05102C303.144 7.65868 311.915 9.48769 318.457 14.9771C324.999 20.4665 328.323 28.786 329.56 38.0604C330.799 47.3515 329.987 57.883 327.988 68.2174C325.986 78.5688 322.771 88.8377 319.117 97.6454C315.478 106.414 311.338 113.896 307.414 118.572C299.413 128.107 287.117 132.246 273.981 131.504C260.845 130.762 246.697 125.151 234.557 114.965C222.417 104.778 214.435 91.8193 211.423 79.0118C208.411 66.2037 210.352 53.3761 218.353 43.8407C222.277 39.1649 228.926 33.7878 236.93 28.6823C244.969 23.5538 254.523 18.6042 264.37 14.8351C274.2 11.0723 284.431 8.44407 293.796 8.05102Z" fill="#120802"/>
<path d="M222.203 47.0705C225.655 42.9556 231.823 37.9 239.632 32.9184C247.405 27.9597 256.657 23.1675 266.166 19.5277C275.691 15.8817 285.365 13.4339 294.007 13.0712C302.665 12.7079 310.004 14.4434 315.227 18.8262C320.45 23.209 323.434 30.1349 324.579 38.7247C325.723 47.2979 324.992 57.2496 323.055 67.2633C321.122 77.2598 318.009 87.2038 314.476 95.7196C310.926 104.275 307.018 111.227 303.565 115.342C296.814 123.388 286.216 127.163 274.264 126.487C262.312 125.812 249.178 120.674 237.787 111.115C226.396 101.557 219.055 89.5147 216.314 77.8615C213.574 66.2088 215.451 55.1164 222.203 47.0705Z" fill="#EE6123"/>
<path d="M290.212 98.3585C281.817 108.363 264.156 107.365 250.766 96.1297C237.376 84.8941 233.327 67.6754 241.722 57.6707C250.117 47.6661 283.281 30.1865 296.671 41.4222C310.061 52.6578 298.606 88.3539 290.212 98.3585Z" fill="#ECF1FE"/>
<path d="M290.212 98.3585C281.817 108.363 264.156 107.365 250.766 96.1297C237.376 84.8941 233.327 67.6754 241.722 57.6707C250.117 47.6661 283.281 30.1865 296.671 41.4222C310.061 52.6578 298.606 88.3539 290.212 98.3585Z" fill="#ECF1FE"/>
<path fill-rule="evenodd" clip-rule="evenodd" d="M255.769 259.561C232.625 275.09 200.54 288.415 164.93 288.415C129.32 288.415 97.235 275.09 74.0911 259.561C62.5095 251.79 53.0347 243.379 46.3941 235.637C43.0766 231.769 40.3942 227.984 38.5164 224.452C36.6846 221.006 35.399 217.393 35.399 213.978C35.399 206.731 40.9551 201.167 47.5767 197.097C54.4813 192.852 64.1382 189.212 75.6263 186.225C98.6779 180.231 130.249 176.582 164.93 176.582C199.611 176.582 231.182 180.231 254.234 186.225C265.722 189.212 275.379 192.852 282.283 197.097C288.905 201.167 294.461 206.731 294.461 213.978C294.461 217.393 293.175 221.006 291.343 224.452C289.466 227.984 286.783 231.769 283.466 235.637C276.825 243.379 267.35 251.79 255.769 259.561ZM164.93 283.39C233.693 283.39 289.436 231.856 289.436 213.978C289.436 196.099 233.693 181.606 164.93 181.606C96.167 181.606 40.4237 196.099 40.4237 213.978C40.4237 231.856 96.167 283.39 164.93 283.39Z" fill="#120802"/>
<path d="M289.436 213.978C289.436 231.856 233.693 283.39 164.93 283.39C96.167 283.39 40.4237 231.856 40.4237 213.978C40.4237 196.099 96.167 181.606 164.93 181.606C233.693 181.606 289.436 196.099 289.436 213.978Z" fill="#ECF1FE"/>
<path fill-rule="evenodd" clip-rule="evenodd" d="M325.446 220.435L317.51 214.406C315.83 213.129 312.994 211.728 308.926 210.297C309.651 216.808 310.024 223.439 310.024 230.164C310.024 230.861 310.02 231.556 310.012 232.251L309.89 242.906L301.747 236.033C299.341 234.003 294.181 231.627 285.927 229.307C277.875 227.043 267.504 224.996 255.276 223.276C230.835 219.838 199.349 217.757 164.93 217.757C130.511 217.757 99.0246 219.838 74.5835 223.276C62.3554 224.996 51.9844 227.043 43.9333 229.307C35.6792 231.627 30.5185 234.003 28.113 236.033L19.9703 242.906L19.8478 232.251C19.8398 231.557 19.8358 230.861 19.8358 230.164C19.8358 223.439 20.2091 216.808 20.9343 210.297C16.8662 211.728 14.0302 213.129 12.3495 214.406L4.41322 220.435L4.28584 210.469C4.27693 209.772 4.27246 209.074 4.27246 208.375C4.27246 119.646 76.2013 47.7177 164.93 47.7177C253.659 47.7177 325.587 119.646 325.587 208.375C325.587 209.074 325.583 209.772 325.574 210.469L325.446 220.435ZM21.6395 204.761C23.2915 204.232 25.0647 203.715 26.9537 203.208C26.6711 205.006 26.4164 206.815 26.1898 208.634C25.4784 214.346 25.046 220.157 24.9084 226.05C24.8765 227.417 24.8604 228.788 24.8604 230.164C24.8604 230.841 24.8643 231.518 24.8721 232.194C25.6867 231.506 26.6722 230.829 27.8208 230.164C28.46 229.794 29.1497 229.427 29.8886 229.064C49.2574 219.559 102.403 212.733 164.93 212.733C227.457 212.733 280.602 219.559 299.971 229.064C300.71 229.427 301.4 229.794 302.039 230.164C303.188 230.829 304.173 231.506 304.988 232.194C304.996 231.518 304.999 230.841 304.999 230.164C304.999 228.788 304.983 227.417 304.951 226.049C304.814 220.157 304.381 214.346 303.67 208.634C303.444 206.815 303.189 205.006 302.906 203.208C304.795 203.715 306.568 204.232 308.22 204.761C311.015 205.654 313.462 206.578 315.536 207.528C316.148 207.808 316.727 208.09 317.273 208.375C318.55 209.04 319.645 209.717 320.55 210.405C320.558 209.729 320.563 209.053 320.563 208.375C320.563 207.052 320.546 205.732 320.513 204.416C318.413 120.292 249.56 52.7423 164.93 52.7423C80.2999 52.7423 11.4469 120.292 9.34647 204.416C9.31362 205.732 9.29709 207.052 9.29709 208.375C9.29709 209.053 9.30142 209.729 9.31006 210.405C10.2152 209.717 11.3103 209.04 12.5866 208.375C13.1328 208.09 13.7122 207.808 14.3241 207.528C16.398 206.578 18.8453 205.654 21.6395 204.761Z" fill="#120802"/>
<path d="M21.6395 204.761C23.2915 204.232 25.0647 203.715 26.9537 203.208C26.6711 205.006 26.4164 206.815 26.1898 208.634C25.4784 214.346 25.046 220.157 24.9084 226.05C24.8765 227.417 24.8604 228.788 24.8604 230.164C24.8604 230.841 24.8643 231.518 24.8721 232.194C25.6867 231.506 26.6722 230.829 27.8208 230.164C28.46 229.794 29.1497 229.427 29.8886 229.064C49.2574 219.559 102.403 212.733 164.93 212.733C227.457 212.733 280.602 219.559 299.971 229.064C300.71 229.427 301.4 229.794 302.039 230.164C303.188 230.829 304.173 231.506 304.988 232.194C304.996 231.518 304.999 230.841 304.999 230.164C304.999 228.788 304.983 227.417 304.951 226.049C304.814 220.157 304.381 214.346 303.67 208.634C303.444 206.815 303.189 205.006 302.906 203.208C304.795 203.715 306.568 204.232 308.22 204.761C311.015 205.654 313.462 206.578 315.536 207.528C316.148 207.808 316.727 208.09 317.273 208.375C318.55 209.04 319.645 209.717 320.55 210.405C320.558 209.729 320.563 209.053 320.563 208.375C320.563 207.052 320.546 205.732 320.513 204.416C318.413 120.292 249.56 52.7423 164.93 52.7423C80.2999 52.7423 11.4469 120.292 9.34647 204.416C9.31362 205.732 9.29709 207.052 9.29709 208.375C9.29709 209.053 9.30142 209.729 9.31006 210.405C10.2152 209.717 11.3103 209.04 12.5866 208.375C13.1328 208.09 13.7122 207.808 14.3241 207.528C16.398 206.578 18.8453 205.654 21.6395 204.761Z" fill="#EE6123"/>
<path fill-rule="evenodd" clip-rule="evenodd" d="M73.1018 166.973C96.4963 175.488 114.2 190.535 121.27 205.96C126.751 199.085 144.223 194.057 164.93 194.057C185.339 194.057 202.605 198.941 208.345 205.664C215.508 190.345 233.132 175.439 256.373 166.98C277.749 159.2 298.991 158.652 314.193 164.163C318.338 178.177 320.563 193.016 320.563 208.375C320.563 209.053 320.558 209.729 320.55 210.405C317.168 207.836 311.135 205.414 302.906 203.208C304.282 211.964 304.999 220.971 304.999 230.164C304.999 230.841 304.996 231.518 304.988 232.194C301.506 229.255 294.901 226.508 285.787 224.058C272.346 246.213 223.334 283.39 164.93 283.39C106.526 283.39 57.514 246.213 44.0727 224.058C34.9586 226.508 28.3539 229.255 24.8721 232.194C24.8643 231.518 24.8604 230.842 24.8604 230.164C24.8604 220.971 25.5778 211.964 26.9537 203.208C18.7247 205.414 12.6917 207.836 9.30997 210.405C9.30133 209.73 9.297 209.053 9.297 208.375C9.297 192.957 11.539 178.063 15.7148 164C30.8857 158.655 51.928 159.266 73.1018 166.973Z" fill="#ECF1FE"/>
<path d="M189.831 211.737C189.831 215.312 178.683 225.619 164.93 225.619C151.177 225.619 140.029 215.312 140.029 211.737C140.029 208.161 151.177 205.262 164.93 205.262C178.683 205.262 189.831 208.161 189.831 211.737Z" fill="#120802"/>
<ellipse cx="126.979" cy="168.222" rx="14.9647" ry="23.3449" fill="#120802"/>
<ellipse cx="131.944" cy="160.129" rx="4.98823" ry="7.78164" fill="#ECF1FE"/>
<ellipse cx="202.928" cy="168.222" rx="14.9647" ry="23.3449" fill="#120802"/>
<ellipse cx="207.893" cy="160.129" rx="4.98823" ry="7.78164" fill="#ECF1FE"/>
<path d="M107.657 122.466L111.458 121.226C121.404 117.983 132.114 117.926 142.094 121.061L146.565 122.466" stroke="#120802" stroke-width="5"/>
<path d="M183.606 122.466L187.407 121.226C197.353 117.983 208.063 117.926 218.043 121.061L222.514 122.466" stroke="#120802" stroke-width="5"/>
<path fill-rule="evenodd" clip-rule="evenodd" d="M201.997 240.421C197.307 243.839 191.528 245.859 185.279 245.859C177.34 245.859 170.161 242.6 165.009 237.356C159.857 242.6 152.679 245.859 144.74 245.859C138.49 245.859 132.711 243.839 128.021 240.421C128.47 242.063 129.25 244.092 130.405 246.4C132.339 250.261 135.162 254.573 138.663 258.596C145.757 266.747 155.118 273.153 165.009 273.153C174.9 273.153 184.261 266.747 191.355 258.596C194.856 254.573 197.679 250.261 199.612 246.4C200.768 244.093 201.548 242.063 201.997 240.421ZM202.304 236.212C197.805 240.295 191.833 242.784 185.279 242.784C178.121 242.784 171.656 239.815 167.048 235.043C166.321 234.289 165.64 233.49 165.009 232.651C164.379 233.49 163.698 234.289 162.97 235.043C158.362 239.815 151.898 242.784 144.74 242.784C138.186 242.784 132.213 240.295 127.714 236.211C126.874 235.448 126.085 234.629 125.353 233.76C124.799 234.922 124.497 236.125 124.472 237.358C124.471 237.413 124.47 237.469 124.47 237.524C124.47 247.493 142.62 276.228 165.009 276.228C187.398 276.228 205.548 247.493 205.548 237.524C205.548 237.469 205.547 237.414 205.546 237.358C205.521 236.126 205.219 234.923 204.665 233.761C203.933 234.63 203.144 235.448 202.304 236.212Z" fill="#120802"/>
<path d="M185.279 245.859C191.528 245.859 197.307 243.839 201.997 240.421C201.548 242.063 200.768 244.093 199.612 246.4C197.679 250.261 194.856 254.573 191.355 258.596C184.261 266.747 174.9 273.153 165.009 273.153C155.118 273.153 145.757 266.747 138.663 258.596C135.162 254.573 132.339 250.261 130.405 246.4C129.25 244.092 128.47 242.063 128.021 240.421C132.711 243.839 138.49 245.859 144.74 245.859C152.679 245.859 159.857 242.6 165.009 237.356C170.161 242.6 177.34 245.859 185.279 245.859Z" fill="#120802"/>
<path d="M186.755 263.161C180.435 257.914 172.912 254.177 164.837 254.177C156.763 254.177 149.24 257.914 142.92 263.161C149.283 269.016 156.889 273.153 164.837 273.153C172.786 273.153 180.392 269.016 186.755 263.161Z" fill="#FB9197"/>
<path fill-rule="evenodd" clip-rule="evenodd" d="M26.9877 83.596L31.1184 76.6793C58.539 30.7648 108.735 0 166.121 0C223.508 0 273.704 30.7648 301.124 76.6793L305.255 83.596H26.9877ZM297.199 79.0237C296.278 77.4817 295.331 75.9574 294.357 74.4513C267.19 32.4041 219.906 4.57233 166.121 4.57233C112.337 4.57233 65.0526 32.4041 37.8852 74.4513C36.9121 75.9574 35.9648 77.4817 35.044 79.0237H297.199Z" fill="#120802"/>
<path d="M294.357 74.4513C295.331 75.9574 296.278 77.4817 297.199 79.0237H35.044C35.9648 77.4817 36.9121 75.9574 37.8852 74.4513C65.0526 32.4041 112.337 4.57233 166.121 4.57233C219.906 4.57233 267.19 32.4041 294.357 74.4513Z" fill="#3BA99C"/>
<path fill-rule="evenodd" clip-rule="evenodd" d="M6.00387 152.434C6.73622 127.052 13.3752 103.142 24.5963 82.0381C27.1518 77.2318 32.1618 74.4525 37.4093 74.4525H294.838C300.086 74.4525 305.096 77.2318 307.651 82.0381C318.006 101.512 324.459 123.376 325.969 146.582C326.522 155.074 319.583 161.71 311.474 161.71L15.0807 161.71C10.0655 161.71 5.85423 157.62 6.00387 152.434ZM28.6334 84.1847C30.3497 80.9567 33.7534 79.0248 37.4093 79.0248H294.838C298.494 79.0248 301.898 80.9567 303.614 84.1847C313.671 103.099 319.939 124.335 321.406 146.879C321.775 152.537 317.143 157.138 311.474 157.138L15.0807 157.138C12.5555 157.138 10.5015 155.09 10.5743 152.565C11.2859 127.905 17.735 104.682 28.6334 84.1847Z" fill="#120802"/>
<path d="M37.4093 79.0248C33.7534 79.0248 30.3497 80.9567 28.6334 84.1847C17.735 104.682 11.2859 127.905 10.5743 152.565C10.5015 155.09 12.5555 157.138 15.0807 157.138L311.474 157.138C317.143 157.138 321.775 152.537 321.406 146.879C319.939 124.335 313.671 103.099 303.614 84.1847C301.898 80.9567 298.494 79.0248 294.838 79.0248H37.4093Z" fill="#3BA99C"/>
<path fill-rule="evenodd" clip-rule="evenodd" d="M218.917 67.7394H282.987V104.347H218.917V67.7394ZM223.49 72.3117V99.7744H278.415V72.3117H223.49Z" fill="#120802"/>
<path d="M223.49 72.3117H278.415V99.7744H223.49V72.3117Z" fill="#120802"/>
<path fill-rule="evenodd" clip-rule="evenodd" d="M266.158 84.7179V77.091L276.081 87.0206C276.607 87.5467 277.459 87.5467 277.985 87.0206L278.08 86.9254C278.606 86.3993 278.606 85.5464 278.08 85.0203L265.705 72.6374C265.245 72.177 264.535 72.1195 264.013 72.4647C263.938 72.5141 263.867 72.5716 263.801 72.6374L263.706 72.7326L263.704 72.7346L251.426 85.0203C251.223 85.2244 251.098 85.4777 251.052 85.7421C251.027 85.8455 251.013 85.9537 251.013 86.065V86.1997C251.013 86.9437 251.616 87.5468 252.359 87.5468H261.182L251.427 97.308C250.901 97.8341 250.901 98.687 251.427 99.2131L251.522 99.3083C252.048 99.8344 252.9 99.8344 253.426 99.3083L263.331 89.3966V98.3571C263.331 99.1011 263.934 99.7042 264.677 99.7042H264.812C265.555 99.7042 266.158 99.1011 266.158 98.3571V87.5468H271.072C271.815 87.5468 272.418 86.9437 272.418 86.1997V86.065C272.418 85.321 271.815 84.7179 271.072 84.7179H266.158ZM255.727 84.7179H263.331V77.1088L255.727 84.7179Z" fill="#3BA99C"/>
<path fill-rule="evenodd" clip-rule="evenodd" d="M248.193 73.5889C248.193 72.8455 248.796 72.2428 249.539 72.2428H249.674C250.417 72.2428 251.019 72.8455 251.019 73.5889V86.4783L251.04 86.4996L251.019 86.5209V98.3581C251.019 99.1015 250.417 99.7042 249.674 99.7042H249.539C248.796 99.7042 248.193 99.1015 248.193 98.3581V89.3478L238.245 99.2997C237.72 99.8254 236.868 99.8254 236.342 99.2997L223.973 86.9254C223.907 86.8597 223.85 86.7889 223.801 86.7142C223.652 86.4893 223.578 86.2297 223.579 85.9703C223.579 85.8852 223.587 85.8002 223.604 85.7164C223.653 85.4619 223.776 85.2188 223.973 85.0216L236.342 72.6473C236.868 72.1216 237.72 72.1216 238.245 72.6473L238.341 72.7425C238.533 72.9355 238.656 73.1724 238.707 73.4211V84.5601H248.193V73.5889ZM235.881 84.5601H231.508C230.765 84.5601 230.162 85.1627 230.162 85.9062V86.0408C230.162 86.7843 230.765 87.387 231.508 87.387H235.881V94.9876L226.944 86.0472L235.881 77.1068V84.5601ZM238.707 94.8403V87.387H246.157L238.707 94.8403Z" fill="#3BA99C"/>
</svg>
