<svg width="616" height="546" viewBox="0 0 616 546" fill="none" xmlns="http://www.w3.org/2000/svg">
<path fill-rule="evenodd" clip-rule="evenodd" d="M85.7998 264.9C85.7998 288.593 66.5928 307.8 42.8999 307.8C19.2069 307.8 0 288.593 0 264.9C0 241.207 19.2069 222 42.8999 222C66.5928 222 85.7998 241.207 85.7998 264.9ZM42.8999 302.8C63.8314 302.8 80.7998 285.831 80.7998 264.9C80.7998 243.968 63.8314 227 42.8999 227C21.9684 227 5 243.968 5 264.9C5 285.831 21.9684 302.8 42.8999 302.8Z" fill="#11122C"/>
<path d="M80.7998 264.9C80.7998 285.831 63.8314 302.8 42.8999 302.8C21.9684 302.8 5 285.831 5 264.9C5 243.968 21.9684 227 42.8999 227C63.8314 227 80.7998 243.968 80.7998 264.9Z" fill="#ECF1FE"/>
<path d="M33.8024 291.883C54.734 291.883 71.7023 274.915 71.7023 253.983C71.7023 247.32 69.9829 241.059 66.9635 235.618C75.412 242.569 80.7997 253.105 80.7997 264.9C80.7997 285.831 63.8313 302.8 42.8998 302.8C28.6314 302.8 16.2045 294.915 9.73877 283.265C16.2837 288.65 24.6655 291.883 33.8024 291.883Z" fill="#BFCFFA"/>
<path fill-rule="evenodd" clip-rule="evenodd" d="M599.226 456.222C541.438 507.679 465.654 539.492 382.22 540.948C197.542 544.172 45.1369 397.452 41.164 212.964C41.1566 212.618 41.1497 212.273 41.1433 211.927C41.1409 211.807 41.1387 211.687 41.1367 211.568C39.5208 118.996 113.255 42.6419 205.827 41.0261C298.398 39.4102 374.752 113.144 376.368 205.716C376.446 210.192 376.641 214.638 376.949 219.052C377.066 220.734 377.2 222.411 377.351 224.083C378.966 223.714 380.617 223.439 382.297 223.262C383.752 223.11 385.228 223.031 386.723 223.031C409.87 223.031 428.634 241.795 428.634 264.942C428.634 282.164 418.245 296.96 403.393 303.406C401.867 304.068 400.294 304.642 398.68 305.122C398.858 305.513 399.037 305.904 399.216 306.295C399.74 307.434 400.272 308.568 400.812 309.698C437.219 385.831 510.74 440.596 597.563 450.997C599.767 451.261 601.979 451.497 604.2 451.703C602.557 453.226 600.899 454.732 599.226 456.222ZM405.512 307.936C442.172 384.249 516.909 438.565 604.663 446.724L615.809 447.761L607.599 455.37C548.351 510.283 469.434 544.426 382.307 545.947C194.525 549.225 39.619 399.754 36.1442 212.021C36.1418 211.9 36.1395 211.777 36.1374 211.655M405.512 307.936C422.064 300.693 433.634 284.174 433.634 264.942C433.634 239.034 412.631 218.031 386.723 218.031C385.099 218.031 383.492 218.114 381.907 218.276C381.622 214.089 381.441 209.873 381.367 205.629C379.703 110.296 301.072 34.3628 205.739 36.0268C110.407 37.6909 34.4739 116.323 36.1374 211.655" fill="#11122C"/>
<path d="M382.22 540.948C465.654 539.492 541.438 507.679 599.226 456.222C600.899 454.732 602.557 453.226 604.2 451.703C601.979 451.497 599.767 451.261 597.563 450.997C510.74 440.596 437.219 385.831 400.812 309.698C400.272 308.568 399.74 307.434 399.216 306.295C399.037 305.904 398.858 305.513 398.68 305.122C400.294 304.642 401.867 304.068 403.393 303.406C418.245 296.96 428.634 282.164 428.634 264.942C428.634 241.795 409.87 223.031 386.723 223.031C385.228 223.031 383.752 223.11 382.297 223.262C380.617 223.439 378.966 223.714 377.351 224.083C377.2 222.411 377.066 220.734 376.949 219.052C376.641 214.638 376.446 210.192 376.368 205.716C374.752 113.144 298.398 39.4102 205.827 41.0261C113.255 42.6419 39.5208 118.996 41.1367 211.568C41.1387 211.687 41.1409 211.807 41.1433 211.927C41.1497 212.273 41.1566 212.618 41.164 212.964C45.1369 397.452 197.542 544.172 382.22 540.948Z" fill="#ECF1FE"/>
<path fill-rule="evenodd" clip-rule="evenodd" d="M381.249 298.701C406.162 298.701 426.357 279.882 426.357 256.668C426.357 254.235 426.136 251.851 425.71 249.531C427.597 254.301 428.634 259.5 428.634 264.942C428.634 288.088 409.87 306.852 386.723 306.852C372.515 306.852 359.957 299.781 352.378 288.966C360.201 295.044 370.266 298.701 381.249 298.701Z" fill="#BFCFFA"/>
<path d="M601.8 451.468C543.81 476.796 475.234 491.439 401.752 491.439C268.649 491.439 151.644 443.395 84.4868 370.83C143.106 474.241 255.006 543.168 382.22 540.948C468.07 539.449 545.82 505.811 604.2 451.703C603.399 451.628 602.599 451.55 601.8 451.468Z" fill="#BFCFFA"/>
<path fill-rule="evenodd" clip-rule="evenodd" d="M287.123 184.047C287.123 200.981 273.396 214.708 256.462 214.708C239.529 214.708 225.801 200.981 225.801 184.047C225.801 167.114 239.529 153.386 256.462 153.386C273.396 153.386 287.123 167.114 287.123 184.047ZM256.462 211.708C271.739 211.708 284.123 199.324 284.123 184.047C284.123 168.771 271.739 156.386 256.462 156.386C241.185 156.386 228.801 168.771 228.801 184.047C228.801 199.324 241.185 211.708 256.462 211.708Z" fill="#11122C"/>
<path d="M284.123 184.047C284.123 199.324 271.739 211.708 256.462 211.708C241.185 211.708 228.801 199.324 228.801 184.047C228.801 168.771 241.185 156.386 256.462 156.386C271.739 156.386 284.123 168.771 284.123 184.047Z" fill="#11122C"/>
<path d="M256.462 176.503C256.462 183.447 250.833 189.076 243.889 189.076C236.945 189.076 231.316 183.447 231.316 176.503C231.316 169.559 236.945 163.93 243.889 163.93C250.833 163.93 256.462 169.559 256.462 176.503Z" fill="#ECF1FE"/>
<path fill-rule="evenodd" clip-rule="evenodd" d="M153.01 184.047C153.01 200.981 139.283 214.708 122.349 214.708C105.416 214.708 91.6882 200.981 91.6882 184.047C91.6882 167.114 105.416 153.386 122.349 153.386C139.283 153.386 153.01 167.114 153.01 184.047ZM122.349 211.708C137.626 211.708 150.01 199.324 150.01 184.047C150.01 168.771 137.626 156.386 122.349 156.386C107.072 156.386 94.6882 168.771 94.6882 184.047C94.6882 199.324 107.072 211.708 122.349 211.708Z" fill="#11122C"/>
<path d="M150.01 184.047C150.01 199.324 137.626 211.708 122.349 211.708C107.072 211.708 94.6882 199.324 94.6882 184.047C94.6882 168.771 107.072 156.386 122.349 156.386C137.626 156.386 150.01 168.771 150.01 184.047Z" fill="#11122C"/>
<path d="M122.349 176.503C122.349 183.447 116.72 189.076 109.776 189.076C102.832 189.076 97.2026 183.447 97.2026 176.503C97.2026 169.559 102.832 163.93 109.776 163.93C116.72 163.93 122.349 169.559 122.349 176.503Z" fill="#ECF1FE"/>
<path fill-rule="evenodd" clip-rule="evenodd" d="M214.875 295.089C208.883 303.238 200.359 308.587 190.667 308.587C180.976 308.587 172.452 303.238 166.46 295.089C160.467 286.938 156.851 275.823 156.851 263.677C156.851 251.531 160.467 240.415 166.46 232.265C172.452 224.115 180.976 218.766 190.667 218.766C200.359 218.766 208.883 224.115 214.875 232.265C220.868 240.415 224.484 251.531 224.484 263.677C224.484 275.823 220.868 286.938 214.875 295.089ZM190.667 305.587C207.687 305.587 221.484 286.823 221.484 263.677C221.484 240.53 207.687 221.766 190.667 221.766C173.648 221.766 159.851 240.53 159.851 263.677C159.851 286.823 173.648 305.587 190.667 305.587Z" fill="#11122C"/>
<path d="M221.484 263.677C221.484 286.823 207.687 305.587 190.667 305.587C173.648 305.587 159.851 286.823 159.851 263.677C159.851 240.53 173.648 221.766 190.667 221.766C207.687 221.766 221.484 240.53 221.484 263.677Z" fill="#11122C"/>
<path d="M165.849 288.525C173.137 276.163 186.589 267.868 201.979 267.868C208.757 267.868 215.16 269.477 220.826 272.335C217.893 291.327 205.505 305.587 190.667 305.587C180.487 305.587 171.46 298.874 165.849 288.525Z" fill="#FECACC"/>
<path d="M201.979 267.868C186.589 267.868 173.137 276.163 165.849 288.525C165.861 288.547 165.873 288.57 165.885 288.592C172.061 285.008 179.236 282.956 186.891 282.956C196.861 282.956 206.017 286.437 213.212 292.25C216.964 286.776 219.652 279.934 220.826 272.335C215.16 269.477 208.757 267.868 201.979 267.868Z" fill="#FB9197"/>
<path fill-rule="evenodd" clip-rule="evenodd" d="M57.0205 91.415L61.5376 83.8514C91.523 33.6424 146.414 0 209.168 0C271.922 0 326.813 33.6424 356.798 83.8514L361.315 91.415H57.0205ZM352.505 86.415C351.498 84.7289 350.463 83.062 349.398 81.415C319.69 35.435 267.983 5 209.168 5C150.353 5 98.6458 35.435 68.9374 81.415C67.8732 83.062 66.8373 84.7289 65.8304 86.415H352.505Z" fill="#11122C"/>
<path d="M349.398 81.415C350.463 83.062 351.498 84.7289 352.505 86.415H65.8304C66.8373 84.7289 67.8732 83.062 68.9374 81.415C98.6458 35.435 150.353 5 209.168 5C267.983 5 319.69 35.435 349.398 81.415Z" fill="#CA2D2B"/>
<path fill-rule="evenodd" clip-rule="evenodd" d="M34.0741 166.691C34.8749 138.936 42.1348 112.789 54.4055 89.7113C57.2001 84.4555 62.6786 81.4163 68.4169 81.4163H349.924C355.663 81.4163 361.141 84.4555 363.936 89.7113C375.259 111.006 382.315 134.916 383.967 160.293C384.571 169.578 376.984 176.835 368.116 176.835L43.9999 176.835C38.5156 176.835 33.9104 172.362 34.0741 166.691ZM58.8202 92.0587C60.6971 88.5288 64.4191 86.4163 68.4169 86.4163H349.924C353.922 86.4163 357.644 88.5288 359.521 92.0587C370.519 112.742 377.373 135.964 378.977 160.618C379.38 166.804 374.316 171.835 368.116 171.835L43.9999 171.835C41.2385 171.835 38.9923 169.596 39.072 166.835C39.8501 139.868 46.9024 114.473 58.8202 92.0587Z" fill="#11122C"/>
<path d="M68.4169 86.4163C64.4191 86.4163 60.6971 88.5288 58.8202 92.0587C46.9024 114.473 39.8501 139.868 39.072 166.835C38.9923 169.596 41.2385 171.835 43.9999 171.835L368.116 171.835C374.316 171.835 379.38 166.804 378.977 160.618C377.373 135.964 370.519 112.742 359.521 92.0587C357.644 88.5288 353.922 86.4163 349.924 86.4163H68.4169Z" fill="#CA2D2B"/>
<path fill-rule="evenodd" clip-rule="evenodd" d="M266.902 74.0752H336.965V114.107H266.902V74.0752ZM271.902 79.0752V109.107H331.965V79.0752H271.902Z" fill="#11122C"/>
<path d="M271.902 79.0752H331.965V109.107H271.902V79.0752Z" fill="#11122C"/>
<path fill-rule="evenodd" clip-rule="evenodd" d="M318.561 92.6419V84.3017L329.413 95.16C329.987 95.7353 330.92 95.7353 331.494 95.16L331.599 95.0559C332.173 94.4806 332.173 93.5479 331.599 92.9726L318.066 79.4315C317.563 78.9281 316.787 78.8652 316.215 79.2427C316.134 79.2966 316.056 79.3596 315.984 79.4315L315.88 79.5356L315.878 79.5378L302.452 92.9726C302.229 93.1958 302.092 93.4729 302.042 93.7619C302.015 93.8751 302 93.9933 302 94.115V94.2623C302 95.0759 302.659 95.7354 303.472 95.7354H313.119L302.452 106.41C301.877 106.985 301.877 107.918 302.452 108.493L302.556 108.597C303.131 109.172 304.063 109.172 304.638 108.597L315.47 97.7583V107.557C315.47 108.37 316.129 109.03 316.942 109.03H317.089C317.902 109.03 318.561 108.37 318.561 107.557V95.7354H323.935C324.748 95.7354 325.407 95.0759 325.407 94.2623V94.115C325.407 93.3015 324.748 92.6419 323.935 92.6419H318.561ZM307.154 92.6419H315.47V84.3211L307.154 92.6419Z" fill="#CA2D2B"/>
<path fill-rule="evenodd" clip-rule="evenodd" d="M298.916 80.4721C298.916 79.6591 299.575 79 300.388 79H300.535C301.348 79 302.007 79.6591 302.007 80.4721V94.567L302.03 94.5903L302.007 94.6135V107.558C302.007 108.371 301.348 109.03 300.535 109.03H300.388C299.575 109.03 298.916 108.371 298.916 107.558V97.7049L288.038 108.588C287.463 109.163 286.532 109.163 285.957 108.588L272.431 95.0559C272.359 94.984 272.296 94.9066 272.242 94.825C272.08 94.5791 271.999 94.2952 272 94.0115C272 93.9185 272.009 93.8255 272.027 93.7338C272.081 93.4555 272.215 93.1897 272.431 92.9741L285.957 79.4424C286.532 78.8675 287.463 78.8675 288.038 79.4424L288.142 79.5465C288.353 79.7575 288.486 80.0166 288.543 80.2885V92.4693H298.916V80.4721ZM285.452 92.4693H280.67C279.858 92.4693 279.199 93.1284 279.199 93.9414V94.0886C279.199 94.9016 279.858 95.5607 280.67 95.5607H285.452V103.872L275.68 94.0955L285.452 84.3189V92.4693ZM288.543 103.711V95.5607H296.69L288.543 103.711Z" fill="#CA2D2B"/>
</svg>
