<svg width="495" height="461" viewBox="0 0 495 461" fill="none" xmlns="http://www.w3.org/2000/svg">
<path fill-rule="evenodd" clip-rule="evenodd" d="M400.217 327.773C400.217 393.61 356.399 448.574 300.569 448.574C244.74 448.574 200.921 393.61 200.921 327.773C200.921 261.936 244.74 206.973 300.569 206.973C356.399 206.973 400.217 261.936 400.217 327.773ZM300.569 444.112C353.139 444.112 395.755 392.025 395.755 327.773C395.755 263.521 353.139 211.435 300.569 211.435C247.999 211.435 205.383 263.521 205.383 327.773C205.383 392.025 247.999 444.112 300.569 444.112Z" fill="#120802"/>
<path d="M395.755 327.773C395.755 392.025 353.139 444.112 300.569 444.112C247.999 444.112 205.383 392.025 205.383 327.773C205.383 263.521 247.999 211.435 300.569 211.435C353.139 211.435 395.755 263.521 395.755 327.773Z" fill="#EE6123"/>
<ellipse cx="300.311" cy="290.255" rx="64.4892" ry="78.8201" fill="#ECF1FE"/>
<path fill-rule="evenodd" clip-rule="evenodd" d="M286.618 296.189L286.619 296.189C360.943 317.501 434.257 294.288 460.658 244.053C461.458 242.53 462.215 240.982 462.928 239.41C463.909 240.862 464.865 242.322 465.795 243.79C487.503 278.04 495.467 316.535 484.99 353.071C461.44 435.199 353.627 476.344 244.129 445.022L243.956 444.972C189.177 429.265 154.321 383.225 166.102 342.14C177.883 301.055 231.84 280.482 286.618 296.189ZM283.605 290.655L283.578 290.746C256.791 283.946 230.291 285.445 208.647 293.698C185.85 302.39 168.177 318.715 161.813 340.91C155.449 363.105 161.785 386.315 176.512 405.766C191.237 425.216 214.499 441.167 242.726 449.261L242.902 449.312C298.489 465.213 353.812 462.772 398.381 445.759C442.953 428.745 477.031 397.017 489.279 354.301C500.642 314.674 491.059 273.091 466.626 236.913L462.16 230.3L458.865 237.567C435.909 288.194 363.256 313.517 287.862 291.903C287.858 291.902 287.854 291.901 287.849 291.9L283.605 290.655Z" fill="#120802"/>
<path d="M286.618 296.189L286.619 296.189C360.943 317.501 434.257 294.288 460.658 244.053C461.458 242.53 462.215 240.982 462.928 239.41C463.909 240.862 464.865 242.322 465.795 243.79C487.503 278.04 495.467 316.535 484.99 353.071C461.44 435.199 353.627 476.344 244.129 445.022L243.956 444.972C189.177 429.265 154.321 383.225 166.102 342.14C177.883 301.055 231.84 280.482 286.618 296.189Z" fill="#ECF1FE"/>
<path d="M418.099 431.861C387.916 415.058 369.216 372.348 374.22 324.73C375.115 316.22 376.717 308.022 378.934 300.237C350.842 306.298 318.825 305.424 286.62 296.189L286.619 296.189L286.618 296.189C231.84 280.482 177.883 301.055 166.102 342.14C154.321 383.225 189.177 429.265 243.956 444.973L244.096 445.013C308.193 463.356 371.715 456.867 418.099 431.861Z" fill="#EE6123"/>
<path fill-rule="evenodd" clip-rule="evenodd" d="M186.093 11.6071C178.405 11.2844 171.888 12.8256 167.25 16.7175C162.611 20.6094 159.962 26.7595 158.945 34.3872C157.929 42.0002 158.578 50.8372 160.298 59.7292C162.015 68.6061 164.779 77.4362 167.917 84.9982C171.069 92.5953 174.539 98.7685 177.605 102.423C183.6 109.567 193.011 112.919 203.624 112.32C214.237 111.72 225.901 107.157 236.016 98.6696C246.131 90.1822 252.649 79.4883 255.083 69.1404C257.516 58.7929 255.85 48.9429 249.854 41.7982C246.788 38.1442 241.311 33.6548 234.377 29.2312C227.475 24.8279 219.259 20.5725 210.815 17.3404C202.357 14.1028 193.767 11.9292 186.093 11.6071ZM236.777 25.4696C243.884 30.0033 249.788 34.7781 253.272 38.9301C260.377 47.3975 262.101 58.7883 259.426 70.1618C256.752 81.5348 249.664 93.0421 238.884 102.088C228.104 111.133 215.54 116.115 203.876 116.774C192.211 117.433 181.292 113.758 174.187 105.291C170.703 101.139 167.026 94.4943 163.795 86.7083C160.55 78.8872 157.695 69.7685 155.917 60.5764C154.143 51.3996 153.422 42.0477 154.522 33.7973C155.62 25.5617 158.572 18.1741 164.382 13.2995C170.191 8.42494 177.979 6.80079 186.28 7.14919C194.596 7.49821 203.681 9.83207 212.41 13.1734C221.154 16.5203 229.638 20.9155 236.777 25.4696Z" fill="#120802"/>
<path d="M167.25 16.7175C171.888 12.8256 178.405 11.2844 186.093 11.6071C193.767 11.9292 202.357 14.1028 210.815 17.3404C219.259 20.5725 227.475 24.8279 234.377 29.2312C241.311 33.6548 246.788 38.1442 249.854 41.7982C255.85 48.9429 257.516 58.7929 255.083 69.1404C252.649 79.4883 246.131 90.1822 236.016 98.6696C225.901 107.157 214.237 111.72 203.624 112.32C193.011 112.919 183.6 109.567 177.605 102.423C174.539 98.7685 171.069 92.5953 167.917 84.9982C164.779 77.4362 162.015 68.6061 160.298 59.7292C158.578 50.8372 157.929 42.0002 158.945 34.3872C159.962 26.7595 162.611 20.6094 167.25 16.7175Z" fill="#EE6123"/>
<path d="M232.944 50.857C240.398 59.7411 236.803 75.0312 224.912 85.0083C213.022 94.9855 197.34 95.8716 189.885 86.9875C182.431 78.1034 172.259 46.4056 184.149 36.4284C196.039 26.4513 225.489 41.973 232.944 50.857Z" fill="#ECF1FE"/>
<path d="M232.944 50.857C240.398 59.7411 236.803 75.0312 224.912 85.0083C213.022 94.9855 197.34 95.8716 189.885 86.9875C182.431 78.1034 172.259 46.4056 184.149 36.4284C196.039 26.4513 225.489 41.973 232.944 50.857Z" fill="#ECF1FE"/>
<path fill-rule="evenodd" clip-rule="evenodd" d="M366.791 29.2312C359.857 33.6548 354.38 38.1442 351.314 41.7982C345.319 48.9429 343.652 58.7929 346.086 69.1404C348.519 79.4883 355.038 90.1822 365.153 98.6696C375.268 107.157 386.931 111.72 397.545 112.32C408.157 112.919 417.568 109.567 423.563 102.423C426.63 98.7685 430.1 92.5953 433.252 84.9982C436.39 77.4362 439.154 68.6061 440.87 59.7292C442.59 50.8372 443.239 42.0002 442.224 34.3872C441.206 26.7595 438.557 20.6094 433.919 16.7175C429.281 12.8256 422.764 11.2844 415.076 11.6071C407.402 11.9292 398.812 14.1028 390.353 17.3404C381.91 20.5725 373.694 24.8279 366.791 29.2312ZM414.888 7.14919C423.19 6.80079 430.978 8.42494 436.787 13.2995C442.596 18.1741 445.548 25.5617 446.646 33.7973C447.747 42.0477 447.026 51.3996 445.251 60.5764C443.473 69.7685 440.618 78.8872 437.373 86.7083C434.142 94.4943 430.465 101.139 426.981 105.291C419.876 113.758 408.958 117.433 397.293 116.774C385.628 116.115 373.065 111.133 362.285 102.088C351.505 93.0421 344.417 81.5348 341.742 70.1618C339.067 58.7883 340.791 47.3975 347.896 38.9301C351.38 34.7781 357.285 30.0033 364.392 25.4696C371.53 20.9155 380.015 16.5203 388.758 13.1734C397.488 9.83207 406.572 7.49821 414.888 7.14919Z" fill="#120802"/>
<path d="M351.314 41.7982C354.38 38.1442 359.857 33.6548 366.791 29.2312C373.694 24.8279 381.91 20.5725 390.353 17.3404C398.812 14.1028 407.402 11.9292 415.076 11.6071C422.764 11.2844 429.281 12.8256 433.919 16.7175C438.557 20.6094 441.206 26.7595 442.224 34.3872C443.239 42.0002 442.59 50.8372 440.87 59.7292C439.154 68.6061 436.39 77.4362 433.252 84.9982C430.1 92.5953 426.63 98.7685 423.563 102.423C417.568 109.567 408.157 112.919 397.545 112.32C386.931 111.72 375.268 107.157 365.153 98.6696C355.038 90.1822 348.519 79.4883 346.086 69.1404C343.652 58.7929 345.319 48.9429 351.314 41.7982Z" fill="#EE6123"/>
<path d="M411.706 87.3416C404.251 96.2257 388.569 95.3396 376.679 85.3624C364.788 75.3853 361.192 60.0952 368.647 51.2111C376.102 42.327 405.552 26.8054 417.442 36.7825C429.332 46.7597 419.16 78.4575 411.706 87.3416Z" fill="#ECF1FE"/>
<path d="M411.706 87.3416C404.251 96.2257 388.569 95.3396 376.679 85.3624C364.788 75.3853 361.192 60.0952 368.647 51.2111C376.102 42.327 405.552 26.8054 417.442 36.7825C429.332 46.7597 419.16 78.4575 411.706 87.3416Z" fill="#ECF1FE"/>
<path fill-rule="evenodd" clip-rule="evenodd" d="M381.121 230.488C360.569 244.278 332.078 256.11 300.456 256.11C268.835 256.11 240.344 244.278 219.792 230.488C209.508 223.587 201.094 216.119 195.198 209.244C192.252 205.809 189.87 202.448 188.202 199.311C186.576 196.251 185.434 193.043 185.434 190.011C185.434 183.576 190.368 178.635 196.248 175.02C202.379 171.251 210.954 168.018 221.156 165.366C241.625 160.044 269.66 156.803 300.456 156.803C331.253 156.803 359.288 160.044 379.757 165.366C389.959 168.018 398.534 171.251 404.665 175.02C410.545 178.635 415.479 183.576 415.479 190.011C415.479 193.043 414.337 196.251 412.711 199.311C411.043 202.448 408.661 205.809 405.715 209.244C399.819 216.119 391.405 223.587 381.121 230.488ZM300.456 251.648C361.517 251.648 411.017 205.886 411.017 190.011C411.017 174.135 361.517 161.265 300.456 161.265C239.396 161.265 189.896 174.135 189.896 190.011C189.896 205.886 239.396 251.648 300.456 251.648Z" fill="#120802"/>
<path d="M411.017 190.011C411.017 205.886 361.517 251.648 300.456 251.648C239.396 251.648 189.896 205.886 189.896 190.011C189.896 174.135 239.396 161.265 300.456 161.265C361.517 161.265 411.017 174.135 411.017 190.011Z" fill="#ECF1FE"/>
<path fill-rule="evenodd" clip-rule="evenodd" d="M442.994 195.744L435.947 190.391C434.454 189.257 431.936 188.013 428.324 186.742C428.968 192.524 429.299 198.412 429.299 204.384C429.299 205.002 429.295 205.62 429.288 206.237L429.18 215.699L421.949 209.596C419.813 207.793 415.23 205.683 407.901 203.623C400.751 201.613 391.542 199.795 380.683 198.267C358.98 195.214 331.02 193.367 300.457 193.367C269.893 193.367 241.933 195.214 220.23 198.267C209.371 199.795 200.162 201.613 193.012 203.623C185.683 205.683 181.1 207.793 178.964 209.596L171.733 215.699L171.625 206.237C171.618 205.62 171.614 205.003 171.614 204.384C171.614 198.412 171.945 192.524 172.589 186.742C168.977 188.013 166.459 189.257 164.966 190.391L157.919 195.745L157.806 186.895C157.798 186.276 157.794 185.656 157.794 185.036C157.794 106.245 221.666 42.3729 300.456 42.3729C379.247 42.3729 443.119 106.245 443.119 185.036C443.119 185.656 443.115 186.276 443.107 186.895L442.994 195.744ZM173.216 181.826C174.683 181.357 176.257 180.897 177.935 180.447C177.684 182.044 177.457 183.65 177.256 185.265C176.625 190.337 176.241 195.498 176.118 200.73C176.09 201.944 176.076 203.162 176.076 204.384C176.076 204.985 176.079 205.586 176.086 206.186C176.81 205.576 177.685 204.974 178.705 204.384C179.272 204.055 179.885 203.729 180.541 203.407C197.74 194.966 244.933 188.905 300.457 188.905C355.98 188.905 403.173 194.966 420.372 203.407C421.028 203.729 421.641 204.055 422.208 204.384C423.228 204.974 424.104 205.576 424.827 206.186C424.834 205.586 424.837 204.985 424.837 204.384C424.837 203.162 424.823 201.944 424.795 200.73C424.672 195.498 424.288 190.337 423.657 185.265C423.456 183.65 423.229 182.044 422.978 180.447C424.656 180.897 426.23 181.357 427.697 181.826C430.178 182.619 432.352 183.44 434.193 184.283C434.737 184.532 435.251 184.783 435.736 185.036C436.87 185.626 437.842 186.227 438.646 186.838C438.653 186.238 438.657 185.637 438.657 185.036C438.657 183.86 438.643 182.688 438.613 181.52C436.748 106.818 375.607 46.8348 300.456 46.8348C225.306 46.8348 164.165 106.818 162.3 181.52C162.27 182.688 162.256 183.86 162.256 185.036C162.256 185.637 162.26 186.238 162.267 186.838C163.071 186.227 164.043 185.626 165.177 185.036C165.662 184.783 166.176 184.532 166.72 184.283C168.561 183.44 170.734 182.619 173.216 181.826Z" fill="#120802"/>
<path d="M173.216 181.826C174.683 181.357 176.257 180.897 177.935 180.447C177.684 182.044 177.457 183.65 177.256 185.265C176.625 190.337 176.241 195.498 176.118 200.73C176.09 201.944 176.076 203.162 176.076 204.384C176.076 204.985 176.079 205.586 176.086 206.186C176.81 205.576 177.685 204.974 178.705 204.384C179.272 204.055 179.885 203.729 180.541 203.407C197.74 194.966 244.933 188.905 300.457 188.905C355.98 188.905 403.173 194.966 420.372 203.407C421.028 203.729 421.641 204.055 422.208 204.384C423.228 204.974 424.104 205.576 424.827 206.186C424.834 205.586 424.837 204.985 424.837 204.384C424.837 203.162 424.823 201.944 424.795 200.73C424.672 195.498 424.288 190.337 423.657 185.265C423.456 183.65 423.229 182.044 422.978 180.447C424.656 180.897 426.23 181.357 427.697 181.826C430.178 182.619 432.352 183.44 434.193 184.283C434.737 184.532 435.251 184.783 435.736 185.036C436.87 185.626 437.842 186.227 438.646 186.838C438.653 186.238 438.657 185.637 438.657 185.036C438.657 183.86 438.643 182.688 438.613 181.52C436.748 106.818 375.607 46.8348 300.456 46.8348C225.306 46.8348 164.165 106.818 162.3 181.52C162.27 182.688 162.256 183.86 162.256 185.036C162.256 185.637 162.26 186.238 162.267 186.838C163.071 186.227 164.043 185.626 165.177 185.036C165.662 184.783 166.176 184.532 166.72 184.283C168.561 183.44 170.734 182.619 173.216 181.826Z" fill="#EE6123"/>
<path fill-rule="evenodd" clip-rule="evenodd" d="M218.914 148.271C239.688 155.832 255.409 169.194 261.687 182.891C266.554 176.786 282.069 172.321 300.457 172.321C318.579 172.321 333.912 176.658 339.009 182.628C345.369 169.025 361.02 155.789 381.657 148.277C400.639 141.369 419.502 140.882 433.001 145.775C436.682 158.22 438.657 171.397 438.657 185.036C438.657 185.637 438.653 186.238 438.646 186.838C435.643 184.557 430.286 182.406 422.978 180.447C424.2 188.222 424.837 196.22 424.837 204.384C424.837 204.986 424.834 205.586 424.827 206.186C421.735 203.577 415.87 201.137 407.777 198.962C395.841 218.635 352.319 251.648 300.456 251.648C248.594 251.648 205.072 218.636 193.136 198.962C185.043 201.137 179.178 203.577 176.086 206.186C176.079 205.586 176.076 204.986 176.076 204.384C176.076 196.22 176.713 188.222 177.935 180.448C170.627 182.406 165.27 184.557 162.267 186.838C162.26 186.238 162.256 185.637 162.256 185.036C162.256 171.344 164.247 158.118 167.955 145.631C181.426 140.885 200.112 141.427 218.914 148.271Z" fill="#ECF1FE"/>
<path d="M322.569 188.021C322.569 191.196 312.669 200.348 300.456 200.348C288.244 200.348 278.344 191.196 278.344 188.021C278.344 184.845 288.244 182.271 300.456 182.271C312.669 182.271 322.569 184.845 322.569 188.021Z" fill="#120802"/>
<ellipse cx="266.757" cy="149.38" rx="13.2885" ry="20.7301" fill="#120802"/>
<ellipse cx="271.165" cy="142.193" rx="4.42951" ry="6.91004" fill="#ECF1FE"/>
<ellipse cx="334.199" cy="149.38" rx="13.2885" ry="20.7301" fill="#120802"/>
<ellipse cx="338.607" cy="142.193" rx="4.42951" ry="6.91004" fill="#ECF1FE"/>
<path d="M249.599 108.749L252.974 107.648C261.806 104.768 271.316 104.717 280.179 107.501L284.149 108.749" stroke="#120802" stroke-width="5"/>
<path d="M317.04 108.749L320.416 107.648C329.248 104.768 338.758 104.717 347.62 107.501L351.591 108.749" stroke="#120802" stroke-width="5"/>
<path fill-rule="evenodd" clip-rule="evenodd" d="M333.372 213.492C329.207 216.527 324.075 218.321 318.526 218.321C311.476 218.321 305.102 215.427 300.527 210.77C295.952 215.427 289.577 218.321 282.528 218.321C276.978 218.321 271.846 216.527 267.681 213.492C268.081 214.95 268.773 216.752 269.799 218.802C271.516 222.23 274.023 226.059 277.132 229.631C283.431 236.87 291.744 242.558 300.527 242.558C309.31 242.558 317.622 236.87 323.921 229.631C327.03 226.059 329.537 222.23 331.254 218.802C332.281 216.752 332.973 214.95 333.372 213.492ZM333.644 209.754C329.65 213.38 324.346 215.59 318.526 215.59C312.17 215.59 306.429 212.954 302.338 208.716C301.692 208.047 301.087 207.338 300.527 206.593C299.967 207.338 299.362 208.047 298.716 208.716C294.625 212.954 288.884 215.59 282.528 215.59C276.708 215.59 271.404 213.38 267.409 209.754C266.663 209.076 265.962 208.349 265.312 207.577C264.821 208.609 264.552 209.677 264.53 210.772C264.529 210.821 264.529 210.87 264.529 210.92C264.529 219.772 280.645 245.288 300.527 245.288C320.408 245.288 336.525 219.772 336.525 210.92C336.525 210.871 336.524 210.821 336.523 210.772C336.501 209.678 336.233 208.609 335.741 207.578C335.091 208.349 334.391 209.076 333.644 209.754Z" fill="#120802"/>
<path d="M318.526 218.321C324.075 218.321 329.207 216.527 333.372 213.492C332.973 214.95 332.281 216.752 331.254 218.802C329.537 222.23 327.03 226.059 323.921 229.631C317.622 236.87 309.31 242.558 300.527 242.558C291.744 242.558 283.431 236.87 277.132 229.631C274.023 226.059 271.516 222.23 269.799 218.802C268.773 216.752 268.081 214.95 267.681 213.492C271.846 216.527 276.978 218.321 282.528 218.321C289.577 218.321 295.952 215.427 300.527 210.77C305.102 215.427 311.476 218.321 318.526 218.321Z" fill="#120802"/>
<path d="M319.837 233.685C314.225 229.026 307.545 225.707 300.374 225.707C293.204 225.707 286.524 229.026 280.912 233.685C286.562 238.884 293.316 242.558 300.374 242.558C307.433 242.558 314.187 238.884 319.837 233.685Z" fill="#FB9197"/>
<path fill-rule="evenodd" clip-rule="evenodd" d="M177.965 74.2326L181.633 68.0906C205.982 27.3189 250.556 0 301.514 0C352.473 0 397.047 27.3189 421.396 68.0906L425.064 74.2326H177.965ZM417.91 70.1724C417.092 68.8032 416.251 67.4496 415.387 66.1122C391.263 28.7746 349.275 4.0602 301.514 4.0602C253.754 4.0602 211.766 28.7746 187.642 66.1122C186.778 67.4496 185.936 68.8032 185.119 70.1724H417.91Z" fill="#120802"/>
<path d="M415.387 66.1122C416.251 67.4496 417.092 68.8032 417.91 70.1724H185.119C185.936 68.8032 186.778 67.4496 187.642 66.1122C211.766 28.7746 253.754 4.0602 301.514 4.0602C349.275 4.0602 391.263 28.7746 415.387 66.1122Z" fill="#3BA99C"/>
<path fill-rule="evenodd" clip-rule="evenodd" d="M159.331 135.36C159.982 112.822 165.877 91.5891 175.841 72.8492C178.111 68.5813 182.559 66.1133 187.219 66.1133H415.814C420.474 66.1133 424.923 68.5813 427.192 72.8492C436.387 90.1416 442.117 109.557 443.458 130.164C443.949 137.704 437.788 143.597 430.587 143.597L167.392 143.597C162.938 143.597 159.198 139.965 159.331 135.36ZM179.426 74.7554C180.95 71.8889 183.973 70.1735 187.219 70.1735H415.814C419.061 70.1735 422.083 71.8889 423.607 74.7554C432.538 91.5511 438.104 110.408 439.406 130.428C439.733 135.451 435.621 139.537 430.587 139.537L167.392 139.537C165.149 139.537 163.325 137.718 163.39 135.477C164.022 113.578 169.749 92.9564 179.426 74.7554Z" fill="#120802"/>
<path d="M187.219 70.1735C183.973 70.1735 180.95 71.8889 179.426 74.7554C169.749 92.9564 164.022 113.578 163.39 135.477C163.325 137.718 165.149 139.537 167.392 139.537L430.587 139.537C435.621 139.537 439.733 135.451 439.406 130.428C438.104 110.408 432.538 91.5511 423.607 74.7554C422.083 71.8889 419.061 70.1735 415.814 70.1735H187.219Z" fill="#3BA99C"/>
<path fill-rule="evenodd" clip-rule="evenodd" d="M348.397 60.1521H405.291V92.6591H348.397V60.1521ZM352.457 64.2123V88.5989H401.23V64.2123H352.457Z" fill="#120802"/>
<path d="M352.457 64.2123H401.23V88.5989H352.457V64.2123Z" fill="#120802"/>
<path fill-rule="evenodd" clip-rule="evenodd" d="M390.346 75.2288V68.4562L399.158 77.2736C399.625 77.7407 400.382 77.7407 400.849 77.2736L400.933 77.189C401.4 76.7219 401.4 75.9645 400.933 75.4973L389.944 64.5014C389.536 64.0926 388.905 64.0415 388.441 64.3481C388.375 64.3919 388.312 64.443 388.254 64.5014L388.169 64.5859L388.167 64.5877L377.265 75.4973C377.084 75.6786 376.973 75.9035 376.932 76.1383C376.91 76.2301 376.898 76.3262 376.898 76.425V76.5446C376.898 77.2052 377.433 77.7408 378.093 77.7408H385.927L377.265 86.4087C376.798 86.8758 376.798 87.6332 377.265 88.1004L377.349 88.185C377.816 88.6521 378.573 88.6521 379.04 88.185L387.836 79.3834V87.3403C387.836 88.001 388.371 88.5365 389.031 88.5365H389.151C389.811 88.5365 390.346 88.001 390.346 87.3403V77.7408H394.71C395.37 77.7408 395.905 77.2052 395.905 76.5446V76.425C395.905 75.7643 395.37 75.2288 394.71 75.2288H390.346ZM381.083 75.2288H387.836V68.472L381.083 75.2288Z" fill="#3BA99C"/>
<path fill-rule="evenodd" clip-rule="evenodd" d="M374.394 65.3464C374.394 64.6862 374.929 64.151 375.589 64.151H375.708C376.368 64.151 376.903 64.6862 376.903 65.3464V76.792L376.922 76.8109L376.903 76.8298V87.3412C376.903 88.0014 376.368 88.5365 375.708 88.5365H375.589C374.929 88.5365 374.394 88.0014 374.394 87.3412V79.3401L365.56 88.1773C365.093 88.6441 364.337 88.6441 363.87 88.1773L352.886 77.189C352.828 77.1307 352.777 77.0678 352.733 77.0015C352.601 76.8018 352.536 76.5713 352.536 76.3409C352.537 76.2654 352.544 76.1899 352.558 76.1155C352.602 75.8894 352.711 75.6736 352.886 75.4985L363.87 64.5102C364.337 64.0434 365.093 64.0434 365.56 64.5102L365.645 64.5947C365.816 64.7661 365.924 64.9765 365.97 65.1973V75.0886H374.394V65.3464ZM363.461 75.0886H359.577C358.917 75.0886 358.382 75.6238 358.382 76.284V76.4035C358.382 77.0637 358.917 77.5989 359.577 77.5989H363.461V84.3482L355.525 76.4092L363.461 68.4702V75.0886ZM365.97 84.2174V77.5989H372.586L365.97 84.2174Z" fill="#3BA99C"/>
<path fill-rule="evenodd" clip-rule="evenodd" d="M80.1502 441.559C75.4929 444.369 69.3365 445.623 62.8811 445.623C56.4257 445.623 50.2692 444.369 45.6119 441.559C40.8253 438.672 37.6133 434.096 37.6133 427.946C37.6133 422.125 40.5032 415.654 44.879 410.69C49.2786 405.699 55.6046 401.76 62.8811 401.76C70.1576 401.76 76.4835 405.699 80.8832 410.69C85.2589 415.654 88.1489 422.125 88.1489 427.946C88.1489 434.096 84.9368 438.672 80.1502 441.559ZM62.8811 442.486C75.1032 442.486 85.0112 437.698 85.0112 427.946C85.0112 418.194 75.1032 404.898 62.8811 404.898C50.6589 404.898 40.751 418.194 40.751 427.946C40.751 437.698 50.6589 442.486 62.8811 442.486Z" fill="#090C09"/>
<path d="M85.0112 427.946C85.0112 437.698 75.1032 442.486 62.8811 442.486C50.6589 442.486 40.751 437.698 40.751 427.946C40.751 418.194 50.6589 404.898 62.8811 404.898C75.1032 404.898 85.0112 418.194 85.0112 427.946Z" fill="#ECF1FE"/>
<path fill-rule="evenodd" clip-rule="evenodd" d="M177.201 441.559C172.543 444.369 166.387 445.623 159.932 445.623C153.476 445.623 147.32 444.369 142.662 441.559C137.876 438.672 134.664 434.096 134.664 427.946C134.664 422.125 137.554 415.654 141.929 410.69C146.329 405.699 152.655 401.76 159.932 401.76C167.208 401.76 173.534 405.699 177.934 410.69C182.309 415.654 185.199 422.125 185.199 427.946C185.199 434.096 181.987 438.672 177.201 441.559ZM159.932 442.486C172.154 442.486 182.062 437.698 182.062 427.946C182.062 418.194 172.154 404.898 159.932 404.898C147.709 404.898 137.801 418.194 137.801 427.946C137.801 437.698 147.709 442.486 159.932 442.486Z" fill="#090C09"/>
<path d="M182.062 427.946C182.062 437.698 172.154 442.486 159.932 442.486C147.709 442.486 137.801 437.698 137.801 427.946C137.801 418.194 147.709 404.898 159.932 404.898C172.154 404.898 182.062 418.194 182.062 427.946Z" fill="#ECF1FE"/>
<path fill-rule="evenodd" clip-rule="evenodd" d="M110.871 166.121C123.383 166.169 135.393 168.382 146.583 172.195C148.224 169.526 150.519 166.588 153.187 163.673C156.847 159.673 161.361 155.553 166.217 152.032C171.056 148.524 176.351 145.524 181.573 143.888C186.774 142.257 192.244 141.88 197.095 144.142C201.946 146.404 205.173 150.837 207.268 155.869C209.37 160.921 210.477 166.906 210.899 172.867C211.323 178.851 211.069 184.957 210.358 190.332C209.654 195.653 208.474 200.474 206.93 203.785C205.715 206.392 204.022 208.624 201.977 210.477C214.336 225.501 221.743 242.366 221.743 257.494C221.743 277.77 208.501 292.552 188.308 302.1C183.984 304.145 179.319 305.963 174.361 307.559C176.827 311.663 179.106 315.927 181.177 320.293C183.653 315.921 187.03 311.853 191.502 308.291C197.166 303.779 204.189 300.395 212.567 298.039C219.52 296.084 226.034 300.973 227.208 307.647C228.417 314.528 223.755 320.589 217.614 322.529C212.668 324.092 209.313 325.957 207.025 327.779C203.786 330.359 202.058 333.343 201.133 336.924C200.134 340.789 200.033 345.558 200.68 351.383C201.24 356.424 202.261 361.537 203.362 367.04C203.539 367.927 203.719 368.823 203.897 369.727C205.101 375.81 206.419 382.834 206.398 389.265C206.376 395.716 205.015 404.019 198.387 410.294C194.014 414.436 188.532 416.566 182.615 417.446C179.025 422.537 174.721 427.018 169.815 430.881C154.522 442.924 133.632 448.775 110.871 448.834C88.1103 448.775 67.2212 442.924 51.9277 430.881C36.4627 418.703 26.9843 400.392 26.9843 376.155L26.9845 376L26.9843 375.845C26.9843 353.965 34.7011 328.658 47.3821 307.559C42.4236 305.963 37.7586 304.145 33.4349 302.1C13.2415 292.552 0 277.77 0 257.494C0 242.366 7.40653 225.501 19.7655 210.477C17.7207 208.624 16.028 206.392 14.8127 203.785C13.2687 200.474 12.0891 195.653 11.3851 190.332C10.6742 184.957 10.4195 178.851 10.8436 172.867C11.2661 166.906 12.3726 160.921 14.4751 155.869C16.5697 150.837 19.7964 146.404 24.6476 144.142C29.4989 141.88 34.9684 142.257 40.1699 143.888C45.3914 145.524 50.6872 148.524 55.5256 152.032C60.3816 155.553 64.8959 159.673 68.5559 163.673C71.2239 166.588 73.5185 169.526 75.1595 172.195C86.3499 168.382 98.3597 166.169 110.871 166.121Z" fill="#506A4D"/>
<path fill-rule="evenodd" clip-rule="evenodd" d="M110.871 166.121C123.383 166.169 135.393 168.382 146.583 172.195C148.224 169.526 150.519 166.588 153.187 163.673C156.847 159.673 161.361 155.553 166.217 152.032C171.056 148.524 176.351 145.524 181.573 143.888C186.774 142.257 192.244 141.88 197.095 144.142C201.946 146.404 205.173 150.837 207.268 155.869C209.37 160.921 210.477 166.906 210.899 172.867C211.323 178.851 211.069 184.957 210.358 190.332C209.654 195.653 208.474 200.474 206.93 203.785C205.715 206.392 204.022 208.624 201.977 210.477C214.336 225.501 221.743 242.366 221.743 257.494C221.743 277.77 208.501 292.552 188.308 302.1C183.984 304.145 179.319 305.963 174.361 307.559C176.827 311.663 179.106 315.927 181.177 320.293C183.653 315.921 187.03 311.853 191.502 308.291C197.166 303.779 204.189 300.395 212.567 298.039C219.52 296.084 226.034 300.973 227.208 307.647C228.417 314.528 223.755 320.589 217.614 322.529C212.668 324.092 209.313 325.957 207.025 327.779C203.786 330.359 202.058 333.343 201.133 336.924C200.134 340.789 200.033 345.558 200.68 351.383C201.24 356.424 202.261 361.537 203.362 367.04C203.539 367.927 203.719 368.823 203.897 369.727C205.101 375.81 206.419 382.834 206.398 389.265C206.376 395.716 205.015 404.019 198.387 410.294C194.014 414.436 188.532 416.566 182.615 417.446C179.025 422.537 174.721 427.018 169.815 430.881C154.522 442.924 133.632 448.775 110.871 448.834C88.1103 448.775 67.2212 442.924 51.9277 430.881C36.4627 418.703 26.9843 400.392 26.9843 376.155L26.9845 376L26.9843 375.845C26.9843 353.965 34.7011 328.658 47.3821 307.559C42.4236 305.963 37.7586 304.145 33.4349 302.1C13.2415 292.552 0 277.77 0 257.494C0 242.366 7.40653 225.501 19.7655 210.477C17.7207 208.624 16.028 206.392 14.8127 203.785C13.2687 200.474 12.0891 195.653 11.3851 190.332C10.6742 184.957 10.4195 178.851 10.8436 172.867C11.2661 166.906 12.3726 160.921 14.4751 155.869C16.5697 150.837 19.7964 146.404 24.6476 144.142C29.4989 141.88 34.9684 142.257 40.1699 143.888C45.3914 145.524 50.6872 148.524 55.5256 152.032C60.3816 155.553 64.8959 159.673 68.5559 163.673C71.2239 166.588 73.5185 169.526 75.1595 172.195C86.3499 168.382 98.3597 166.169 110.871 166.121ZM188.086 408.04C188.134 407.939 188.181 407.838 188.228 407.737C190.431 408.097 192.658 408.587 194.898 409.206C195.361 408.836 195.81 408.446 196.246 408.033C201.97 402.613 203.263 395.349 203.283 389.255C203.287 388.319 203.26 387.368 203.207 386.406C200.211 386.163 197.176 386.204 194.146 386.534C193.185 394.444 191.114 401.615 188.086 408.04ZM194.587 381.727C194.588 381.704 194.589 381.681 194.591 381.658C197.491 382.542 200.358 383.749 203.134 385.263C202.768 380.318 201.793 375.135 200.842 370.332C200.667 369.447 200.492 368.57 200.317 367.698L200.308 367.651C200.003 366.125 199.701 364.616 199.412 363.122C197.615 363.403 195.834 363.755 194.075 364.177C194.526 368.143 194.758 372.045 194.758 375.845L194.758 375.999L194.758 376.155C194.758 378.048 194.701 379.905 194.587 381.727ZM192.514 354.218C194.352 354.537 196.204 354.932 198.064 355.403C197.882 354.174 197.72 352.949 197.584 351.727C196.917 345.723 196.985 340.529 198.118 336.145C198.798 333.51 199.876 331.107 201.539 328.929C196.37 329.241 191.187 330.265 186.148 332.025C188.898 339.361 191.05 346.84 192.514 354.218ZM177.417 418.887C162.843 436.594 138.485 445.385 110.871 445.458C83.2581 445.385 58.8995 436.594 44.3262 418.887C54.5309 413.469 66.2436 411.3 78.1262 412.264C63.5714 404.762 48.4747 402.196 35.8646 405.165C33.6177 400.104 31.9773 394.561 31.0247 388.535C40.0572 384.313 49.8522 382.894 59.178 384.112C49.9814 378.395 39.631 375.977 30.0732 377.351C30.0648 376.851 30.0605 376.349 30.0605 375.845C30.0605 373.897 30.1238 371.92 30.2482 369.919C30.7487 369.397 31.2612 368.882 31.7857 368.375C44.2022 356.385 60.9875 351.257 78.1261 352.647C62.9906 344.846 47.2691 342.382 34.3673 345.93C35.4972 341.8 36.8339 337.667 38.3619 333.576C49.194 326.281 61.7906 323.576 73.6308 325.123C64.6101 319.515 54.4794 317.082 45.0755 318.287C46.7613 314.97 48.5705 311.724 50.4937 308.577L50.3819 308.543L50.4109 308.495C67.8567 313.671 88.6573 316.215 110.871 316.247C133.085 316.215 153.886 313.671 171.332 308.495L171.361 308.542L171.249 308.577C173.172 311.724 174.981 314.97 176.667 318.287C167.263 317.082 157.133 319.515 148.112 325.123C159.952 323.576 172.549 326.281 183.381 333.576C184.909 337.667 186.245 341.8 187.375 345.93C174.474 342.382 158.752 344.846 143.617 352.647C160.755 351.257 177.541 356.385 189.957 368.375C190.482 368.882 190.994 369.397 191.495 369.919C191.619 371.92 191.682 373.897 191.682 375.845C191.682 376.349 191.678 376.851 191.67 377.351C182.112 375.977 171.761 378.395 162.565 384.112C171.891 382.894 181.686 384.313 190.718 388.535C189.765 394.561 188.125 400.104 185.878 405.165C173.268 402.196 158.171 404.762 143.617 412.264C155.499 411.3 167.212 413.469 177.417 418.887ZM216.927 269.317C207.741 298.676 163.782 313.159 110.871 313.235C57.961 313.159 14.0014 298.676 4.8159 269.317C5.64348 268.406 6.50527 267.517 7.40135 266.652C20.0501 254.437 37.1494 249.213 54.6085 250.63C36.9576 241.532 18.5244 239.56 4.51367 245.744C5.50711 241.6 6.99289 237.379 8.92805 233.154C10.1549 232.079 11.4422 231.05 12.7891 230.072C24.1696 221.803 37.6629 218.695 50.309 220.347C41.1531 214.655 30.8747 212.173 21.3244 213.37C33.7995 197.84 51.8934 184.01 73.1773 176.102C82.0843 184.894 88.7422 197.102 92.612 210.793C92.9278 196.558 90.5967 183.059 85.9819 172.182L85.842 172.216C92.016 170.712 98.3962 169.718 104.932 169.324L110.871 220.761L116.811 169.324C123.347 169.718 129.727 170.712 135.901 172.216L135.761 172.182C131.146 183.059 128.815 196.558 129.131 210.793C133.001 197.102 139.658 184.894 148.565 176.102C169.849 184.01 187.943 197.84 200.418 213.37C190.868 212.173 180.59 214.655 171.434 220.347C184.08 218.695 197.573 221.803 208.954 230.072C210.301 231.05 211.588 232.079 212.815 233.154C214.75 237.379 216.236 241.6 217.229 245.744C203.218 239.56 184.785 241.532 167.134 250.63C184.593 249.213 201.693 254.437 214.341 266.652C215.237 267.517 216.099 268.406 216.927 269.317ZM149.612 173.273C157.548 160.918 181.496 140.33 195.769 146.986C211.277 154.217 209.489 190.872 204.086 202.459C203.08 204.618 201.673 206.497 199.949 208.079C197.805 205.613 195.527 203.203 193.127 200.866C193.977 199.915 194.701 198.833 195.266 197.62C196.239 195.535 196.945 192.597 197.36 189.455C197.783 186.261 197.934 182.635 197.682 179.077C197.431 175.539 196.772 171.925 195.483 168.829C194.203 165.752 192.16 162.868 188.957 161.374C185.754 159.881 182.232 160.17 179.051 161.166C175.852 162.169 172.659 163.988 169.788 166.069C166.899 168.164 164.22 170.61 162.045 172.987C160.793 174.354 159.659 175.752 158.738 177.095C159.227 177.323 159.713 177.555 160.197 177.789C156.768 176.13 153.235 174.618 149.612 173.273ZM72.1312 173.273C64.1948 160.918 40.2464 140.33 25.9737 146.986C10.4659 154.217 12.2533 190.872 17.6564 202.459C18.6629 204.618 20.0701 206.497 21.7941 208.079C23.9381 205.613 26.2157 203.203 28.6154 200.866C27.7662 199.915 27.0421 198.833 26.4763 197.62C25.5038 195.535 24.7981 192.597 24.3824 189.455C23.9599 186.261 23.8086 182.635 24.0608 179.077C24.3115 175.539 24.9709 171.925 26.2594 168.829C27.54 165.752 29.5831 162.868 32.7858 161.374C35.9885 159.881 39.5112 160.17 42.6914 161.166C45.8912 162.169 49.0841 163.988 51.9551 166.069C54.8433 168.164 57.5231 170.61 59.6982 172.987C60.9496 174.354 62.0838 175.752 63.0043 177.095C62.516 177.323 62.0298 177.555 61.5455 177.789C64.9752 176.13 68.5075 174.618 72.1312 173.273ZM184.166 321.343C191.031 321.114 198.128 322.54 204.911 325.483C204.968 325.436 205.026 325.389 205.084 325.343C207.726 323.239 211.44 321.214 216.676 319.56C216.697 319.553 216.719 319.546 216.741 319.539C212.968 313.924 208.533 308.895 203.537 304.611C199.741 306.349 196.381 308.386 193.442 310.727C189.467 313.893 186.43 317.483 184.166 321.343ZM211.577 301.577C213.923 307.081 215.757 313.082 217.011 319.448C221.751 317.788 225.013 313.152 224.14 308.186C223.247 303.104 218.378 299.64 213.41 301.037C212.791 301.211 212.18 301.391 211.577 301.577Z" fill="#090C09"/>
<path d="M150.478 349.989C148.938 337.854 146.468 325.597 143.268 314.357C133.118 315.622 122.377 316.247 111.288 316.247C99.8873 316.247 88.8547 315.586 78.4526 314.249C75.2814 325.365 72.8241 337.482 71.2755 349.495C71.2755 349.495 71.2755 349.495 71.2755 349.495C71.1485 350.48 71.0275 351.465 70.9128 352.449C73.3027 352.385 75.7109 352.451 78.126 352.647C78.1261 352.647 78.126 352.647 78.126 352.647C75.7109 352.451 73.3027 352.385 70.9128 352.449C69.9285 360.888 69.4023 369.232 69.4023 377.094C69.4023 389.794 70.7752 400.736 73.2347 409.936C73.4261 410.652 73.624 411.357 73.8283 412.052C79.1329 430.084 88.7781 441.019 100.407 444.998C103.944 445.305 107.553 445.458 111.219 445.458C114.543 445.458 117.821 445.332 121.041 445.08C132.77 441.173 142.508 430.223 147.852 412.086C147.998 411.588 148.142 411.085 148.282 410.576C148.302 410.503 148.322 410.43 148.342 410.357C148.581 409.48 148.81 408.586 149.029 407.677C149.029 407.674 149.03 407.671 149.031 407.668C151.128 398.954 152.288 388.766 152.288 377.094C152.288 369.225 151.761 360.874 150.775 352.427C150.667 351.509 150.555 350.589 150.437 349.669C150.451 349.776 150.464 349.882 150.478 349.989C150.478 349.989 150.478 349.989 150.478 349.989Z" fill="#ECF1FE"/>
<path fill-rule="evenodd" clip-rule="evenodd" d="M103.972 456.156C99.3146 458.966 93.1581 460.22 86.7027 460.22C80.2473 460.22 74.0908 458.966 69.4336 456.156C64.647 453.269 61.4349 448.692 61.4349 442.543C61.4349 436.722 64.3248 430.251 68.7006 425.287C73.1002 420.296 79.4262 416.357 86.7027 416.357C93.9792 416.357 100.305 420.296 104.705 425.287C109.081 430.251 111.97 436.722 111.97 442.543C111.97 448.692 108.758 453.269 103.972 456.156ZM86.7027 457.082C98.9248 457.082 108.833 452.294 108.833 442.543C108.833 432.791 98.9248 419.495 86.7027 419.495C74.4806 419.495 64.5726 432.791 64.5726 442.543C64.5726 452.294 74.4806 457.082 86.7027 457.082Z" fill="#090C09"/>
<path d="M108.833 442.543C108.833 452.294 98.9248 457.082 86.7027 457.082C74.4806 457.082 64.5726 452.294 64.5726 442.543C64.5726 432.791 74.4806 419.495 86.7027 419.495C98.9248 419.495 108.833 432.791 108.833 442.543Z" fill="#ECF1FE"/>
<path fill-rule="evenodd" clip-rule="evenodd" d="M152.242 456.156C147.585 458.966 141.428 460.22 134.973 460.22C128.518 460.22 122.361 458.966 117.704 456.156C112.917 453.268 109.705 448.692 109.705 442.543C109.705 436.722 112.595 430.251 116.971 425.287C121.371 420.296 127.697 416.357 134.973 416.357C142.25 416.357 148.575 420.296 152.975 425.287C157.351 430.251 160.241 436.722 160.241 442.543C160.241 448.692 157.029 453.268 152.242 456.156ZM134.973 457.082C147.195 457.082 157.103 452.294 157.103 442.543C157.103 432.791 147.195 419.494 134.973 419.494C122.751 419.494 112.843 432.791 112.843 442.543C112.843 452.294 122.751 457.082 134.973 457.082Z" fill="#090C09"/>
<path d="M157.103 442.543C157.103 452.294 147.195 457.082 134.973 457.082C122.751 457.082 112.843 452.294 112.843 442.543C112.843 432.791 122.751 419.494 134.973 419.494C147.195 419.494 157.103 432.791 157.103 442.543Z" fill="#ECF1FE"/>
<path d="M165.019 286.174C165.019 304.85 140.796 314.02 110.914 314.02C81.0322 314.02 56.8083 304.85 56.8083 286.174C56.8083 267.498 81.0322 242.033 110.914 242.033C140.796 242.033 165.019 267.498 165.019 286.174Z" fill="#ECF1FE"/>
<path d="M111.369 255.229C105.393 255.229 100.548 258.257 100.548 261.993C100.548 265.477 104.763 270.142 110.18 270.754L110.185 271.7C110.186 271.726 110.186 271.753 110.186 271.78C110.186 278.32 105.511 283.423 99.9762 283.423C94.5545 283.423 89.9606 278.53 89.7726 272.18L87.8908 272.18C87.8864 272.328 87.8841 272.477 87.884 272.627V272.645C87.8886 280.001 93.197 286.162 99.9761 286.162C105.296 286.162 109.716 282.36 111.369 277.175C113.023 282.36 117.443 286.162 122.763 286.162C129.545 286.162 134.855 279.996 134.855 272.636C134.855 272.483 134.852 272.331 134.848 272.18L132.966 272.18C132.778 278.53 128.184 283.423 122.763 283.423C117.228 283.423 112.553 278.32 112.553 271.78C112.553 271.765 112.553 271.75 112.553 271.735C112.553 271.723 112.553 271.711 112.553 271.7L112.559 270.754C117.976 270.142 122.19 265.477 122.19 261.993C122.19 258.257 117.346 255.229 111.369 255.229Z" fill="#090C09"/>
<circle cx="78.2016" cy="231.742" r="15.9808" fill="#090C09"/>
<ellipse cx="3.327" cy="4.9205" rx="3.327" ry="4.9205" transform="matrix(0.909809 -0.415028 0.430286 0.902692 81.0863 225.509)" fill="#ECF1FE"/>
<circle cx="146.493" cy="231.967" r="15.9808" fill="#090C09"/>
<ellipse cx="3.327" cy="4.9205" rx="3.327" ry="4.9205" transform="matrix(0.909809 -0.415028 0.430286 0.902692 149.375 225.509)" fill="#ECF1FE"/>
<path d="M140.234 265.433C147.323 265.811 156.79 267.407 166.981 270.138C177.171 272.869 186.168 276.219 192.496 279.437C188.472 275.579 179.022 271.132 167.539 268.055C156.055 264.978 145.648 264.104 140.234 265.433Z" fill="#090C09"/>
<path d="M139.899 260.177C146.219 258.707 154.916 257.799 164.517 257.799C174.118 257.799 182.815 258.707 189.135 260.177C184.689 257.492 175.336 255.643 164.517 255.643C153.698 255.643 144.345 257.492 139.899 260.177Z" fill="#090C09"/>
<path d="M139.685 270.695C145.646 272.439 153.293 275.805 161.232 280.389C169.172 284.973 175.91 289.912 180.402 294.203C178.067 289.755 171.257 283.687 162.31 278.522C153.364 273.356 144.704 270.492 139.685 270.695Z" fill="#090C09"/>
<path d="M82.3841 265.433C75.2952 265.811 65.8285 267.407 55.6376 270.138C45.4468 272.869 36.45 276.219 30.1221 279.437C34.1466 275.579 43.5958 271.132 55.0795 268.055C66.5632 264.978 76.9698 264.104 82.3841 265.433Z" fill="#090C09"/>
<path d="M82.719 260.177C76.399 258.707 67.7017 257.799 58.1009 257.799C48.5001 257.799 39.8028 258.707 33.4828 260.177C37.929 257.492 47.2821 255.642 58.1009 255.642C68.9197 255.642 78.2728 257.492 82.719 260.177Z" fill="#090C09"/>
<path d="M82.9336 270.694C76.9721 272.439 69.3257 275.805 61.386 280.389C53.4464 284.973 46.7079 289.912 42.2163 294.203C44.5508 289.755 51.3609 283.687 60.3078 278.522C69.2547 273.356 77.9143 270.492 82.9336 270.694Z" fill="#090C09"/>
<path fill-rule="evenodd" clip-rule="evenodd" d="M18.8727 177.324L21.6064 172.747C39.7534 142.36 72.9733 122 110.952 122C148.93 122 182.15 142.36 200.297 172.747L203.031 177.324H18.8727ZM197.699 174.298C197.09 173.278 196.463 172.269 195.819 171.272C177.839 143.445 146.546 125.026 110.952 125.026C75.3569 125.026 44.0641 143.445 26.0847 171.272C25.4407 172.269 24.8138 173.278 24.2043 174.298H197.699Z" fill="#090C09"/>
<path d="M195.819 171.272C196.463 172.269 197.09 173.278 197.699 174.298H24.2043C24.8138 173.278 25.4407 172.269 26.0847 171.272C44.0641 143.445 75.3569 125.026 110.952 125.026C146.546 125.026 177.839 143.445 195.819 171.272Z" fill="#4B63AA"/>
<path fill-rule="evenodd" clip-rule="evenodd" d="M4.98553 222.881C5.4702 206.084 9.86389 190.259 17.29 176.293C18.9813 173.112 22.2969 171.273 25.7697 171.273H196.137C199.61 171.273 202.925 173.112 204.617 176.293C211.469 189.181 215.74 203.651 216.739 219.009C217.105 224.628 212.513 229.02 207.147 229.02L10.9926 229.02C7.67353 229.02 4.8865 226.313 4.98553 222.881ZM19.9618 177.714C21.0977 175.577 23.3502 174.299 25.7697 174.299H196.137C198.556 174.299 200.809 175.577 201.945 177.714C208.6 190.231 212.749 204.285 213.72 219.205C213.963 222.949 210.898 225.994 207.147 225.994L10.9926 225.994C9.32143 225.994 7.96205 224.639 8.01025 222.968C8.48117 206.648 12.7492 191.278 19.9618 177.714Z" fill="#090C09"/>
<path d="M25.7697 174.299C23.3502 174.299 21.0977 175.577 19.9618 177.714C12.7492 191.278 8.48117 206.648 8.01025 222.968C7.96205 224.639 9.32143 225.994 10.9926 225.994L207.147 225.994C210.898 225.994 213.963 222.949 213.72 219.205C212.749 204.285 208.6 190.231 201.945 177.714C200.809 175.577 198.556 174.299 196.137 174.299H25.7697Z" fill="#4B63AA"/>
<path fill-rule="evenodd" clip-rule="evenodd" d="M145.892 166.83H188.294V191.057H145.892V166.83ZM148.918 169.856V188.031H185.268V169.856H148.918Z" fill="#090C09"/>
<path d="M148.918 169.856H185.268V188.031H148.918V169.856Z" fill="#090C09"/>
<path fill-rule="evenodd" clip-rule="evenodd" d="M177.156 178.066V173.019L183.723 179.59C184.071 179.939 184.635 179.939 184.983 179.59L185.046 179.527C185.394 179.179 185.394 178.615 185.046 178.267L176.856 170.072C176.552 169.767 176.082 169.729 175.736 169.957C175.687 169.99 175.64 170.028 175.596 170.072L175.533 170.135L175.532 170.136L167.407 178.267C167.272 178.402 167.189 178.569 167.159 178.744C167.142 178.813 167.133 178.884 167.133 178.958V179.047C167.133 179.539 167.532 179.939 168.024 179.939H173.863L167.407 186.399C167.059 186.747 167.059 187.311 167.407 187.659L167.47 187.722C167.818 188.071 168.382 188.071 168.73 187.722L175.285 181.163V187.093C175.285 187.585 175.684 187.984 176.176 187.984H176.265C176.757 187.984 177.156 187.585 177.156 187.093V179.939H180.408C180.9 179.939 181.299 179.539 181.299 179.047V178.958C181.299 178.466 180.9 178.066 180.408 178.066H177.156ZM170.253 178.066H175.285V173.031L170.253 178.066Z" fill="#4B63AA"/>
<path fill-rule="evenodd" clip-rule="evenodd" d="M165.267 170.701C165.267 170.209 165.666 169.81 166.158 169.81H166.247C166.739 169.81 167.137 170.209 167.137 170.701V179.232L167.151 179.246L167.137 179.26V187.094C167.137 187.586 166.739 187.984 166.247 187.984H166.158C165.666 187.984 165.267 187.586 165.267 187.094V181.131L158.684 187.717C158.336 188.065 157.772 188.065 157.424 187.717L149.238 179.527C149.195 179.484 149.157 179.437 149.124 179.388C149.026 179.239 148.977 179.067 148.977 178.895C148.977 178.839 148.983 178.783 148.994 178.727C149.026 178.559 149.108 178.398 149.238 178.267L157.424 170.078C157.772 169.73 158.336 169.73 158.684 170.078L158.747 170.141C158.874 170.269 158.955 170.426 158.989 170.59V177.962H165.267V170.701ZM157.119 177.962H154.225C153.733 177.962 153.334 178.361 153.334 178.853V178.942C153.334 179.434 153.733 179.833 154.225 179.833H157.119V184.863L151.204 178.946L157.119 173.029V177.962ZM158.989 184.765V179.833H163.92L158.989 184.765Z" fill="#4B63AA"/>
</svg>
