<svg width="373" height="543" viewBox="0 0 373 543" fill="none" xmlns="http://www.w3.org/2000/svg">
<path fill-rule="evenodd" clip-rule="evenodd" d="M128.426 512.1C120.963 516.602 111.099 518.611 100.755 518.611C90.4117 518.611 80.5471 516.602 73.0847 512.1C65.415 507.473 60.2682 500.141 60.2682 490.287C60.2682 480.96 64.8989 470.591 71.9102 462.638C78.9598 454.64 89.096 448.329 100.755 448.329C112.415 448.329 122.551 454.64 129.6 462.638C136.612 470.591 141.242 480.96 141.242 490.287C141.242 500.141 136.096 507.473 128.426 512.1ZM100.755 513.584C120.339 513.584 136.215 505.912 136.215 490.287C136.215 474.662 120.339 453.356 100.755 453.356C81.1716 453.356 65.2959 474.662 65.2959 490.287C65.2959 505.912 81.1716 513.584 100.755 513.584Z" fill="#08090C"/>
<path d="M136.215 490.287C136.215 505.912 120.339 513.584 100.755 513.584C81.1716 513.584 65.2959 505.912 65.2959 490.287C65.2959 474.662 81.1716 453.356 100.755 453.356C120.339 453.356 136.215 474.662 136.215 490.287Z" fill="#919AB6"/>
<path fill-rule="evenodd" clip-rule="evenodd" d="M283.931 512.1C276.469 516.602 266.604 518.611 256.261 518.611C245.917 518.611 236.053 516.602 228.59 512.1C220.921 507.473 215.774 500.141 215.774 490.287C215.774 480.96 220.404 470.591 227.416 462.638C234.465 454.64 244.602 448.329 256.261 448.329C267.92 448.329 278.056 454.64 285.106 462.638C292.117 470.591 296.748 480.96 296.748 490.287C296.748 500.141 291.601 507.473 283.931 512.1ZM256.261 513.584C275.845 513.584 291.72 505.912 291.72 490.287C291.72 474.662 275.845 453.356 256.261 453.356C236.677 453.356 220.801 474.662 220.801 490.287C220.801 505.912 236.677 513.584 256.261 513.584Z" fill="#08090C"/>
<path d="M291.72 490.287C291.72 505.912 275.845 513.584 256.261 513.584C236.677 513.584 220.801 505.912 220.801 490.287C220.801 474.662 236.677 453.356 256.261 453.356C275.845 453.356 291.72 474.662 291.72 490.287Z" fill="#919AB6"/>
<path fill-rule="evenodd" clip-rule="evenodd" d="M31.6706 141.833C28.3941 138.863 25.682 135.287 23.7346 131.111C21.2606 125.805 19.3705 118.08 18.2426 109.554C17.1034 100.942 16.6954 91.1574 17.3749 81.5704C18.0519 72.0182 19.8248 62.4287 23.1937 54.334C26.5498 46.2702 31.72 39.1682 39.4933 35.5434C47.2666 31.9187 56.0304 32.5232 64.3649 35.1356C72.7313 37.758 81.2169 42.5639 88.9695 48.1853C96.7503 53.8272 103.984 60.4294 109.848 66.8373C114.123 71.5085 117.8 76.2168 120.429 80.4928C138.559 74.3161 158.031 70.7589 178.319 70.7589C198.72 70.7589 218.296 74.3557 236.511 80.596C239.145 76.2927 242.846 71.5463 247.155 66.8376C253.02 60.4296 260.253 53.8274 268.034 48.1855C275.787 42.5641 284.272 37.7582 292.638 35.1358C300.973 32.5234 309.737 31.9189 317.51 35.5437C325.283 39.1684 330.454 46.2705 333.81 54.3343C337.179 62.429 338.951 72.0184 339.629 81.5706C340.308 91.1577 339.9 100.943 338.761 109.554C337.633 118.081 335.743 125.806 333.269 131.111C331.28 135.376 328.494 139.015 325.123 142.022C344.833 166.048 356.639 192.993 356.639 217.169C356.639 249.658 335.421 273.342 303.065 288.642C296.083 291.944 288.545 294.878 280.531 297.448C300.789 331.179 313.13 371.609 313.178 406.599C313.179 406.664 313.179 406.729 313.179 406.793C313.18 406.962 313.18 407.132 313.18 407.301C313.18 413.831 312.75 420.094 311.918 426.086C318.258 423.843 321.54 421.537 323.182 419.947C324.699 418.479 325.821 416.599 326.155 413.022C326.513 409.18 325.94 403.487 323.758 394.676C322.473 389.489 321.063 384.738 319.492 379.444L319.483 379.414C318.376 375.688 317.194 371.705 315.948 367.194C313.224 357.33 310.499 345.815 310.086 334.082C309.662 322.048 311.627 308.773 319.192 296.257C323.759 288.7 329.888 282.218 337.418 276.734C348.678 268.535 362.963 274.938 368.069 286.193C373.507 298.183 366.628 310.344 360.133 318.2C359.561 318.892 359.105 319.547 358.736 320.157C357.07 322.914 356.057 326.617 356.263 332.456C356.479 338.601 357.994 345.868 360.486 354.895C361.304 357.854 362.306 361.252 363.374 364.875L363.393 364.939C365.181 371.003 367.15 377.677 368.609 383.569C373.224 402.205 377.938 431.248 355.321 453.144C344.923 463.21 330.72 469.599 313.809 473.564C306.873 475.19 299.217 476.47 290.791 477.409C290.881 477.36 290.927 477.3 290.93 477.231C290.884 477.29 290.837 477.35 290.791 477.409C285.675 483.956 279.781 489.818 273.213 494.99C248.583 514.384 214.895 523.757 178.209 523.757C141.522 523.757 107.834 514.384 83.2046 494.99C58.4248 475.477 43.2374 446.137 43.2374 407.301L43.2377 407.052L43.2374 406.804C43.2374 371.746 55.6021 331.196 75.9211 297.388C67.9761 294.832 60.5013 291.919 53.5733 288.642C21.2171 273.342 0 249.658 0 217.169C0 192.93 11.8676 165.906 31.6706 141.833ZM294.827 471.861C301.28 471.014 307.215 469.951 312.663 468.674C323.042 466.241 332.156 462.913 339.861 458.464C328.176 455.39 316.225 453.948 304.317 454.281C301.686 460.56 298.506 466.421 294.827 471.861ZM306.297 394.836C306.836 395.356 307.367 395.882 307.89 396.413C308.128 399.925 308.249 403.393 308.249 406.804C308.249 407.855 308.238 408.898 308.215 409.933C293.565 408.43 277.915 412.362 263.929 421.056C278.074 419.209 292.893 421.147 306.711 427.098C305.196 436.702 302.591 445.54 299.024 453.615C278.969 449.128 255.084 453.285 232.045 465.159C250.865 463.632 269.419 467.011 285.636 475.472C262.216 504.164 222.838 518.348 178.208 518.348C133.733 518.348 94.4735 504.262 71.0246 475.771C87.3757 467.09 106.143 463.614 125.183 465.159C101.861 453.139 77.6718 449.027 57.4664 453.785C53.8661 445.675 51.2377 436.794 49.7113 427.138C64.1843 420.373 79.879 418.099 94.8219 420.051C80.0859 410.89 63.5014 407.016 48.1868 409.217C48.1733 408.417 48.1665 407.613 48.1665 406.804C48.1665 403.683 48.2678 400.515 48.4671 397.309C49.2692 396.472 50.0904 395.647 50.9307 394.836C70.826 375.623 97.7213 367.406 125.183 369.634C100.931 357.135 75.7401 353.187 55.0672 358.872C56.8778 352.254 59.0196 345.632 61.4679 339.077C78.8244 327.387 99.0081 323.054 117.98 325.532C103.526 316.547 87.2932 312.647 72.2251 314.578C74.9264 309.264 77.8253 304.063 80.9068 299.02L80.7277 298.965L80.7743 298.888C108.903 307.233 142.474 311.31 178.319 311.31C214.008 311.31 247.444 307.269 275.497 298.997C278.532 303.963 281.389 309.081 284.056 314.31C269.711 313.096 254.474 317.046 240.823 325.532C258.657 323.202 277.562 326.892 294.183 337.053C296.923 344.19 299.302 351.416 301.286 358.638C280.779 353.3 255.956 357.311 232.045 369.634C259.506 367.406 286.402 375.623 306.297 394.836ZM321.878 138.175C324.734 135.603 327.06 132.529 328.712 128.986C337.37 110.42 340.234 51.6872 315.385 40.1002C292.474 29.4164 254.001 62.546 241.356 82.3296C246.814 84.3659 252.141 86.6381 257.324 89.1197C258.891 86.7049 260.927 84.15 263.206 81.6597C266.691 77.8516 270.985 73.932 275.613 70.5764C280.213 67.2408 285.329 64.3272 290.456 62.7201C295.552 61.1229 301.196 60.6602 306.328 63.0531C311.46 65.4461 314.734 70.0674 316.785 74.9976C318.85 79.9581 319.906 85.75 320.308 91.418C320.712 97.1202 320.47 102.929 319.793 108.046C319.127 113.081 317.996 117.789 316.438 121.13C315.29 123.593 313.734 125.716 311.88 127.506C315.385 130.972 318.722 134.536 321.878 138.175ZM41.6181 40.1C64.4875 29.4358 102.86 62.4237 115.577 82.2199C109.771 84.3755 104.111 86.7983 98.6154 89.4563C99.3913 89.081 100.17 88.7103 100.953 88.3445C99.4778 86.1931 97.6605 83.9522 95.6554 81.7613C92.1702 77.9531 87.8764 74.0335 83.2485 70.6778C78.6482 67.3422 73.5322 64.4286 68.4052 62.8215C63.3094 61.2243 57.6649 60.7615 52.5332 63.1545C47.4014 65.5475 44.1277 70.1689 42.0758 75.0991C40.0113 80.0597 38.9547 85.8516 38.553 91.5197C38.1488 97.2218 38.3914 103.031 39.0684 108.148C39.7343 113.183 40.8652 117.89 42.4234 121.232C43.33 123.176 44.4902 124.909 45.8509 126.433C42.0058 130.178 38.3564 134.039 34.9211 137.99C32.1587 135.455 29.9038 132.445 28.2911 128.986C19.6336 110.42 16.7697 51.687 41.6181 40.1ZM255.013 93.3769C275.217 103.025 293.198 115.95 308.012 130.512C313.272 135.683 318.133 141.06 322.552 146.571C307.031 144.417 290.251 148.373 275.332 157.648C295.595 155.001 317.215 159.981 335.451 173.23C338.04 175.111 340.492 177.109 342.804 179.21C345.685 185.652 347.911 192.085 349.421 198.405C326.954 188.42 297.353 191.562 269.011 206.17C296.986 203.901 324.385 212.271 344.652 231.843C346.122 233.263 347.534 234.722 348.889 236.218C334.061 283.314 263.334 306.484 178.319 306.484C93.2422 306.484 22.4733 283.28 7.71659 236.114C9.04264 234.654 10.4235 233.23 11.8593 231.843C32.1267 212.271 59.525 203.901 87.5 206.17C59.2177 191.593 29.6819 188.433 7.23233 198.342C8.82414 191.702 11.2048 184.938 14.3056 178.169C16.2713 176.447 18.334 174.798 20.4921 173.23C38.7274 159.981 60.3478 155.001 80.611 157.648C65.9404 148.528 49.471 144.551 34.1685 146.468C54.1574 121.584 83.1496 99.4236 117.253 86.7539C131.525 100.841 142.193 120.401 148.394 142.339C148.9 119.53 145.165 97.9005 137.77 80.4719L137.546 80.5263C147.439 78.1162 157.662 76.5245 168.134 75.8923L177.76 159.256L187.393 75.8289C198.218 76.4111 208.78 78.0203 218.99 80.5014C211.604 97.9249 207.874 119.543 208.379 142.339C214.575 120.42 225.23 100.874 239.483 86.7901C244.788 88.7645 249.97 90.9686 255.013 93.3769ZM348.125 452.814C349.415 451.768 350.65 450.676 351.828 449.536C367.39 434.47 368.825 415.585 366.595 399.233C354.693 397.907 342.408 398.954 330.518 402.479C332.401 414.12 330.645 419.712 326.675 423.556C324.425 425.735 320.539 428.332 313.85 430.729C325.64 435.976 337.221 443.432 348.125 452.814ZM366.469 398.343C353.857 390.896 340.135 386.851 326.807 386.588C326.014 383.765 325.182 380.963 324.311 378.032C324.31 378.028 324.309 378.024 324.308 378.02L324.306 378.015L324.305 378.012L324.304 378.006L324.303 378.004C323.194 374.269 322.022 370.324 320.789 365.857C320.293 364.062 319.801 362.223 319.325 360.349C330.048 354.624 341.7 350.894 353.801 349.118C354.345 351.393 354.963 353.761 355.645 356.232C356.475 359.236 357.488 362.672 358.551 366.276C358.552 366.278 358.552 366.28 358.553 366.282L358.554 366.287L358.555 366.289L358.555 366.29L358.556 366.293L358.557 366.295C360.358 372.403 362.301 378.992 363.734 384.776C364.769 388.957 365.771 393.534 366.469 398.343ZM351.674 337.854C351.449 336.049 351.303 334.311 351.244 332.633C351.014 326.115 352.133 321.374 354.438 317.559C354.932 316.741 355.531 315.884 356.262 314.999C359.238 311.4 361.915 307.309 363.499 303.044L363.466 303.131C363.455 303.161 363.444 303.191 363.433 303.221L363.413 303.272C347.683 302.963 331.601 306.747 316.91 314.861C315.353 321.233 314.896 327.613 315.1 333.743C326.623 332.638 338.986 333.798 351.584 337.104C351.613 337.353 351.642 337.603 351.674 337.854ZM364.595 299.236C353.061 293.708 340.862 290.928 329.058 291.163C332.301 287.375 336.078 283.923 340.374 280.794C348.446 274.916 359.37 279.174 363.495 288.268C365.122 291.855 365.33 295.574 364.595 299.236Z" fill="#08090C"/>
<path d="M308.012 130.512C293.198 115.95 275.217 103.025 255.013 93.3769C249.97 90.9686 244.788 88.7645 239.483 86.7901C225.23 100.874 214.575 120.42 208.379 142.339C207.874 119.543 211.604 97.9249 218.99 80.5014C208.78 78.0203 198.218 76.4111 187.393 75.8289L177.76 159.256L168.134 75.8923C157.662 76.5245 147.439 78.1162 137.546 80.5263L137.77 80.4719C145.165 97.9005 148.9 119.53 148.394 142.339C142.193 120.401 131.525 100.841 117.253 86.7539C83.1496 99.4236 54.1574 121.584 34.1685 146.468C49.471 144.551 65.9404 148.528 80.611 157.648C60.3478 155.001 38.7274 159.981 20.4921 173.23C18.334 174.798 16.2713 176.447 14.3056 178.169C11.2048 184.938 8.82414 191.702 7.23233 198.342C29.6819 188.433 59.2177 191.593 87.5 206.17C59.525 203.901 32.1267 212.271 11.8593 231.843C10.4235 233.23 9.04264 234.654 7.71659 236.114C22.4733 283.28 93.2422 306.484 178.319 306.484C263.334 306.484 334.061 283.314 348.889 236.218C347.534 234.722 346.122 233.263 344.652 231.843C324.385 212.271 296.986 203.901 269.011 206.17C297.353 191.562 326.954 188.42 349.421 198.405C347.911 192.085 345.685 185.652 342.804 179.21C340.492 177.109 338.04 175.111 335.451 173.23C317.215 159.981 295.595 155.001 275.332 157.648C290.251 148.373 307.031 144.417 322.552 146.571C318.133 141.06 313.272 135.683 308.012 130.512Z" fill="#313749"/>
<path d="M115.577 82.2199C102.86 62.4237 64.4875 29.4358 41.6181 40.1C16.7697 51.687 19.6336 110.42 28.2911 128.986C29.9038 132.445 32.1587 135.455 34.9211 137.99C38.3564 134.039 42.0058 130.178 45.8509 126.433C44.4902 124.909 43.33 123.176 42.4234 121.232C40.8652 117.89 39.7343 113.183 39.0684 108.148C38.3914 103.031 38.1488 97.2218 38.553 91.5197C38.9547 85.8516 40.0113 80.0597 42.0758 75.0991C44.1277 70.1689 47.4014 65.5475 52.5332 63.1545C57.6649 60.7615 63.3094 61.2243 68.4052 62.8215C73.5322 64.4286 78.6482 67.3422 83.2485 70.6778C87.8764 74.0335 92.1702 77.9531 95.6554 81.7613C97.6605 83.9522 99.4778 86.1931 100.953 88.3445C100.17 88.7103 99.3913 89.081 98.6154 89.4563C104.111 86.7983 109.771 84.3755 115.577 82.2199Z" fill="#313749"/>
<path d="M328.712 128.986C327.06 132.529 324.734 135.603 321.878 138.175C318.722 134.536 315.385 130.972 311.88 127.506C313.734 125.716 315.29 123.593 316.438 121.13C317.996 117.789 319.127 113.081 319.793 108.046C320.47 102.929 320.712 97.1202 320.308 91.418C319.906 85.75 318.85 79.9581 316.785 74.9976C314.734 70.0674 311.46 65.4461 306.328 63.0531C301.196 60.6602 295.552 61.1229 290.456 62.7201C285.329 64.3272 280.213 67.2408 275.613 70.5764C270.985 73.932 266.691 77.8516 263.206 81.6597C260.927 84.15 258.891 86.7049 257.324 89.1197C252.141 86.6381 246.814 84.3659 241.356 82.3296C254.001 62.546 292.474 29.4164 315.385 40.1002C340.234 51.6872 337.37 110.42 328.712 128.986Z" fill="#313749"/>
<path d="M307.89 396.413C307.367 395.882 306.836 395.356 306.297 394.836C286.402 375.623 259.506 367.406 232.045 369.634C255.956 357.311 280.779 353.3 301.286 358.638C299.302 351.416 296.923 344.19 294.183 337.053C277.562 326.892 258.657 323.202 240.823 325.532C254.474 317.046 269.711 313.096 284.056 314.31C281.389 309.081 278.532 303.963 275.497 298.997C247.444 307.269 214.008 311.31 178.319 311.31C142.474 311.31 108.903 307.233 80.7743 298.888L80.7277 298.965L80.9068 299.02C77.8253 304.063 74.9264 309.264 72.2251 314.578C87.2932 312.647 103.526 316.547 117.98 325.532C99.0081 323.054 78.8244 327.387 61.4679 339.077C59.0196 345.632 56.8778 352.254 55.0672 358.872C75.7401 353.187 100.931 357.135 125.183 369.634C97.7213 367.406 70.826 375.623 50.9307 394.836C50.0904 395.647 49.2692 396.472 48.4671 397.309C48.2678 400.515 48.1665 403.683 48.1665 406.804C48.1665 407.613 48.1733 408.417 48.1868 409.217C63.5014 407.016 80.0859 410.89 94.8219 420.051C79.879 418.099 64.1843 420.373 49.7113 427.138C51.2377 436.794 53.8661 445.675 57.4664 453.785C77.6718 449.027 101.861 453.139 125.183 465.159C106.143 463.614 87.3757 467.09 71.0246 475.771C94.4735 504.262 133.733 518.348 178.208 518.348C222.838 518.348 262.216 504.164 285.636 475.472C269.419 467.011 250.865 463.632 232.045 465.159C255.084 453.285 278.969 449.128 299.024 453.615C302.591 445.54 305.196 436.702 306.711 427.098C292.893 421.147 278.074 419.209 263.929 421.056C277.915 412.362 293.565 408.43 308.215 409.933C308.238 408.898 308.249 407.855 308.249 406.804C308.249 403.393 308.128 399.925 307.89 396.413Z" fill="#313749"/>
<path d="M351.828 449.536C350.65 450.676 349.415 451.768 348.125 452.814C337.221 443.432 325.64 435.976 313.85 430.729C320.539 428.332 324.425 425.735 326.675 423.556C330.645 419.712 332.401 414.12 330.518 402.479C342.408 398.954 354.693 397.907 366.595 399.233C368.825 415.585 367.39 434.47 351.828 449.536Z" fill="#313749"/>
<path d="M312.663 468.674C307.215 469.951 301.28 471.014 294.827 471.861C298.506 466.421 301.686 460.56 304.317 454.281C316.225 453.948 328.176 455.39 339.861 458.464C332.156 462.913 323.042 466.241 312.663 468.674Z" fill="#313749"/>
<path d="M326.807 386.588C340.135 386.851 353.857 390.896 366.469 398.343C365.771 393.534 364.769 388.957 363.734 384.776C362.301 378.992 360.358 372.403 358.557 366.295L358.556 366.293L358.555 366.29L358.555 366.289L358.554 366.287L358.553 366.282L358.551 366.276C357.488 362.672 356.475 359.236 355.645 356.232C354.963 353.761 354.345 351.393 353.801 349.118C341.7 350.894 330.048 354.624 319.325 360.349C319.801 362.223 320.293 364.062 320.789 365.857C322.022 370.324 323.194 374.269 324.303 378.004L324.304 378.006L324.305 378.012L324.306 378.015L324.308 378.02L324.311 378.032C325.182 380.963 326.014 383.765 326.807 386.588Z" fill="#313749"/>
<path d="M351.244 332.633C351.303 334.311 351.449 336.049 351.674 337.854C351.642 337.603 351.613 337.353 351.584 337.104C338.986 333.798 326.623 332.638 315.1 333.743C314.896 327.613 315.353 321.233 316.91 314.861C331.601 306.747 347.683 302.963 363.413 303.272L363.433 303.221L363.466 303.131L363.499 303.044C361.915 307.309 359.238 311.4 356.262 314.999C355.531 315.884 354.932 316.741 354.438 317.559C352.133 321.374 351.014 326.115 351.244 332.633Z" fill="#313749"/>
<path d="M329.058 291.163C340.862 290.928 353.061 293.708 364.595 299.236C365.33 295.574 365.122 291.855 363.495 288.268C359.37 279.174 348.446 274.916 340.374 280.794C336.078 283.923 332.301 287.375 329.058 291.163Z" fill="#313749"/>
<path d="M241.113 365.376C238.646 345.93 234.688 326.291 229.561 308.282C213.296 310.308 196.087 311.31 178.319 311.31C160.051 311.31 142.373 310.251 125.706 308.108C120.624 325.92 116.687 345.335 114.206 364.583C114.206 364.583 114.206 364.583 114.206 364.583C114.002 366.162 113.809 367.74 113.625 369.316C117.454 369.214 121.313 369.32 125.183 369.634C125.183 369.634 125.183 369.634 125.183 369.634C121.313 369.32 117.454 369.214 113.625 369.316C112.048 382.839 111.204 396.208 111.204 408.806C111.204 429.156 113.404 446.688 117.345 461.43C117.652 462.576 117.969 463.706 118.296 464.819C126.796 493.712 142.25 511.235 160.883 517.61C166.551 518.102 172.334 518.347 178.208 518.347C183.535 518.347 188.787 518.145 193.945 517.741C212.74 511.481 228.343 493.935 236.905 464.874C237.14 464.076 237.37 463.27 237.594 462.455C237.626 462.338 237.658 462.221 237.69 462.104C238.073 460.698 238.44 459.266 238.791 457.809C238.792 457.805 238.793 457.8 238.794 457.796C242.155 443.832 244.013 427.509 244.013 408.806C244.013 396.197 243.168 382.816 241.588 369.282C241.417 367.81 241.236 366.337 241.047 364.862C241.069 365.033 241.091 365.204 241.113 365.376C241.113 365.376 241.113 365.376 241.113 365.376Z" fill="#919AB6"/>
<path fill-rule="evenodd" clip-rule="evenodd" d="M166.596 536.488C159.133 540.99 149.269 543 138.925 543C128.582 543 118.717 540.99 111.255 536.488C103.585 531.862 98.4382 524.529 98.4382 514.675C98.4382 505.348 103.069 494.98 110.08 487.026C117.13 479.029 127.266 472.717 138.925 472.717C150.584 472.717 160.721 479.029 167.77 487.026C174.782 494.98 179.412 505.348 179.412 514.675C179.412 524.529 174.265 531.862 166.596 536.488ZM138.925 537.972C158.509 537.972 174.385 530.301 174.385 514.675C174.385 499.05 158.509 477.745 138.925 477.745C119.341 477.745 103.466 499.05 103.466 514.675C103.466 530.301 119.341 537.972 138.925 537.972Z" fill="#08090C"/>
<path d="M174.385 514.675C174.385 530.301 158.509 537.972 138.925 537.972C119.341 537.972 103.466 530.301 103.466 514.675C103.466 499.05 119.341 477.745 138.925 477.745C158.509 477.745 174.385 499.05 174.385 514.675Z" fill="#919AB6"/>
<path fill-rule="evenodd" clip-rule="evenodd" d="M243.94 536.488C236.478 540.99 226.613 543 216.269 543C205.926 543 196.061 540.99 188.599 536.488C180.929 531.861 175.782 524.529 175.782 514.675C175.782 505.348 180.413 494.98 187.424 487.026C194.474 479.029 204.61 472.717 216.269 472.717C227.929 472.717 238.065 479.029 245.114 487.026C252.126 494.98 256.756 505.348 256.756 514.675C256.756 524.529 251.61 531.861 243.94 536.488ZM216.269 537.972C235.853 537.972 251.729 530.301 251.729 514.675C251.729 499.05 235.853 477.745 216.269 477.745C196.686 477.745 180.81 499.05 180.81 514.675C180.81 530.301 196.686 537.972 216.269 537.972Z" fill="#08090C"/>
<path d="M251.729 514.675C251.729 530.301 235.853 537.972 216.269 537.972C196.686 537.972 180.81 530.301 180.81 514.675C180.81 499.05 196.686 477.745 216.269 477.745C235.853 477.745 251.729 499.05 251.729 514.675Z" fill="#919AB6"/>
<path d="M264.413 263.123C264.413 293.048 225.599 307.741 177.719 307.741C129.839 307.741 91.0248 293.048 91.0248 263.123C91.0248 233.198 129.839 192.395 177.719 192.395C225.599 192.395 264.413 233.198 264.413 263.123Z" fill="#919AB6"/>
<path d="M178.449 213.54C168.873 213.54 161.11 218.392 161.11 224.377C161.11 229.959 167.864 237.435 176.543 238.415L176.552 239.931C176.552 239.973 176.552 240.016 176.552 240.059C176.552 250.539 169.062 258.715 160.193 258.715C151.506 258.715 144.145 250.875 143.844 240.7L140.829 240.7C140.822 240.937 140.818 241.177 140.818 241.416V241.446C140.825 253.232 149.331 263.104 160.193 263.104C168.718 263.104 175.799 257.012 178.449 248.703C181.099 257.012 188.18 263.104 196.704 263.104C207.571 263.104 216.08 253.224 216.08 241.431C216.08 241.186 216.076 240.943 216.069 240.701L213.054 240.7C212.752 250.876 205.391 258.715 196.704 258.715C187.836 258.715 180.346 250.539 180.346 240.059C180.346 240.035 180.346 240.011 180.346 239.987C180.346 239.968 180.346 239.949 180.346 239.931L180.355 238.415C189.034 237.434 195.788 229.959 195.788 224.377C195.788 218.392 188.025 213.54 178.449 213.54Z" fill="#08090C"/>
<circle cx="125.304" cy="175.906" r="25.6063" fill="#08090C"/>
<ellipse cx="5.33091" cy="7.88419" rx="5.33091" ry="7.88419" transform="matrix(0.909809 -0.415028 0.430286 0.902692 129.926 165.919)" fill="#ECF1FE"/>
<circle cx="234.728" cy="176.266" r="25.6063" fill="#08090C"/>
<ellipse cx="5.33091" cy="7.88419" rx="5.33091" ry="7.88419" transform="matrix(0.909809 -0.415028 0.430286 0.902692 239.346 165.919)" fill="#ECF1FE"/>
<path d="M224.699 229.89C236.058 230.495 251.227 233.053 267.556 237.429C283.885 241.804 298.3 247.173 308.44 252.328C301.991 246.147 286.851 239.022 268.45 234.091C250.05 229.161 233.375 227.761 224.699 229.89Z" fill="#08090C"/>
<path d="M224.163 221.468C234.289 219.113 248.225 217.658 263.609 217.658C278.992 217.658 292.928 219.113 303.054 221.468C295.93 217.166 280.944 214.203 263.609 214.203C246.273 214.203 231.287 217.166 224.163 221.468Z" fill="#08090C"/>
<path d="M223.819 238.32C233.371 241.116 245.623 246.509 258.345 253.854C271.067 261.199 281.864 269.113 289.061 275.988C285.32 268.861 274.409 259.139 260.073 250.862C245.737 242.585 231.862 237.996 223.819 238.32Z" fill="#08090C"/>
<path d="M132.005 229.89C120.647 230.495 105.478 233.053 89.1492 237.429C72.8202 241.804 58.4045 247.173 48.2651 252.328C54.7137 246.146 69.8544 239.021 88.2548 234.091C106.655 229.161 123.33 227.761 132.005 229.89Z" fill="#08090C"/>
<path d="M132.542 221.468C122.415 219.112 108.48 217.658 93.0961 217.658C77.7126 217.658 63.7768 219.112 53.6502 221.468C60.7743 217.166 75.761 214.202 93.0961 214.202C110.431 214.202 125.418 217.166 132.542 221.468Z" fill="#08090C"/>
<path d="M132.886 238.32C123.334 241.116 111.082 246.509 98.3598 253.854C85.6379 261.199 74.8407 269.113 67.6439 275.988C71.3844 268.861 82.2963 259.139 96.6321 250.862C110.968 242.585 124.843 237.996 132.886 238.32Z" fill="#08090C"/>
<path fill-rule="evenodd" clip-rule="evenodd" d="M31.2994 88.8207L35.6883 81.4717C64.8227 32.6876 118.156 0 179.129 0C240.102 0 293.435 32.6876 322.57 81.4717L326.958 88.8207H31.2994ZM318.399 83.9626C317.42 82.3243 316.414 80.7048 315.38 79.1045C286.514 34.4294 236.275 4.8581 179.129 4.8581C121.983 4.8581 71.7434 34.4294 42.878 79.1045C41.8441 80.7048 40.8376 82.3243 39.8592 83.9626H318.399Z" fill="#08090C"/>
<path d="M315.38 79.1045C316.414 80.7048 317.42 82.3243 318.399 83.9626H39.8592C40.8376 82.3243 41.8441 80.7048 42.878 79.1045C71.7434 34.4294 121.983 4.8581 179.129 4.8581C236.275 4.8581 286.514 34.4294 315.38 79.1045Z" fill="#4B63AA"/>
<path fill-rule="evenodd" clip-rule="evenodd" d="M9.00411 161.961C9.78224 134.993 16.8361 109.588 28.7585 87.1655C31.4738 82.0588 36.7969 79.1058 42.3724 79.1058H315.891C321.466 79.1058 326.789 82.0588 329.505 87.1655C340.506 107.856 347.363 131.087 348.967 155.744C349.554 164.766 342.182 171.817 333.566 171.817L18.6483 171.817C13.3196 171.817 8.84512 167.471 9.00411 161.961ZM33.048 89.4462C34.8716 86.0165 38.488 83.9639 42.3724 83.9639H315.891C319.775 83.9639 323.391 86.0165 325.215 89.4463C335.901 109.543 342.56 132.106 344.119 156.059C344.51 162.07 339.59 166.959 333.566 166.959L18.6483 166.959C15.9652 166.959 13.7828 164.783 13.8602 162.101C14.6162 135.899 21.4684 111.224 33.048 89.4462Z" fill="#08090C"/>
<path d="M42.3724 83.9639C38.488 83.9639 34.8716 86.0165 33.048 89.4462C21.4684 111.224 14.6162 135.899 13.8602 162.101C13.7828 164.783 15.9652 166.959 18.6483 166.959L333.566 166.959C339.59 166.959 344.51 162.07 344.119 156.059C342.56 132.106 335.901 109.543 325.215 89.4463C323.391 86.0165 319.775 83.9639 315.891 83.9639H42.3724Z" fill="#4B63AA"/>
<path fill-rule="evenodd" clip-rule="evenodd" d="M235.225 71.9731H303.299V110.868H235.225V71.9731ZM240.083 76.8312V106.01H298.441V76.8312H240.083Z" fill="#08090C"/>
<path d="M240.083 76.8312H298.441V106.01H240.083V76.8312Z" fill="#08090C"/>
<path fill-rule="evenodd" clip-rule="evenodd" d="M285.418 90.0127V81.9092L295.961 92.4594C296.52 93.0183 297.425 93.0183 297.984 92.4594L298.085 92.3582C298.644 91.7992 298.644 90.893 298.085 90.334L284.937 77.1772C284.448 76.6881 283.693 76.6269 283.138 76.9937C283.059 77.0461 282.984 77.1073 282.914 77.1772L282.813 77.2784L282.811 77.2805L269.766 90.334C269.549 90.5509 269.416 90.8201 269.368 91.1009C269.341 91.2108 269.326 91.3257 269.326 91.444V91.5871C269.326 92.3776 269.967 93.0184 270.757 93.0184H280.13L269.766 103.39C269.207 103.949 269.207 104.855 269.766 105.414L269.867 105.515C270.425 106.074 271.331 106.074 271.89 105.515L282.414 94.9838V104.504C282.414 105.295 283.054 105.936 283.844 105.936H283.987C284.777 105.936 285.418 105.295 285.418 104.504V93.0184H290.639C291.428 93.0184 292.069 92.3776 292.069 91.5871V91.444C292.069 90.6535 291.428 90.0127 290.639 90.0127H285.418ZM274.335 90.0127H282.414V81.9281L274.335 90.0127Z" fill="#4B63AA"/>
<path fill-rule="evenodd" clip-rule="evenodd" d="M266.33 78.1882C266.33 77.3983 266.971 76.7579 267.76 76.7579H267.903C268.693 76.7579 269.333 77.3983 269.333 78.1882V91.8832L269.355 91.9058L269.333 91.9284V104.505C269.333 105.295 268.693 105.936 267.903 105.936H267.76C266.971 105.936 266.33 105.295 266.33 104.505V94.932L255.761 105.506C255.202 106.064 254.297 106.064 253.739 105.506L240.596 92.3582C240.527 92.2884 240.466 92.2131 240.413 92.1338C240.256 91.8949 240.177 91.6191 240.178 91.3434C240.178 91.253 240.187 91.1627 240.204 91.0736C240.256 90.8032 240.387 90.5449 240.596 90.3355L253.739 77.1877C254.297 76.6292 255.202 76.6292 255.761 77.1877L255.862 77.2889C256.067 77.4939 256.197 77.7457 256.251 78.0099V89.845H266.33V78.1882ZM253.249 89.845H248.602C247.812 89.845 247.172 90.4854 247.172 91.2753V91.4183C247.172 92.2083 247.812 92.8486 248.602 92.8486H253.249V100.924L243.753 91.4251L253.249 81.9259V89.845ZM256.251 100.768V92.8486H264.167L256.251 100.768Z" fill="#4B63AA"/>
</svg>
