<svg width="398" height="544" viewBox="0 0 398 544" fill="none" xmlns="http://www.w3.org/2000/svg">
<path fill-rule="evenodd" clip-rule="evenodd" d="M324.19 350.464C320.958 340.822 317.926 329.972 318.667 320.488C319.064 315.409 320.594 309.852 324.506 305.073C328.48 300.216 333.887 297.415 339.723 296.069C350.548 293.572 364.963 295.597 382.769 300.616C389.587 302.538 393.556 309.623 391.634 316.44C389.712 323.258 382.627 327.227 375.809 325.305C358.541 320.438 349.555 320.126 345.489 321.064C345.199 324.78 345.237 332.544 348.512 342.309C350.322 347.708 352.224 352.784 354.261 358.216C356.036 362.951 357.913 367.958 359.919 373.688C363.858 384.938 367.607 397.227 369.088 409.197C370.567 421.146 369.95 434.021 363.846 445.578C351.529 468.898 321.988 478.864 273.92 476.833C272.277 476.763 270.613 476.68 268.926 476.582L270.406 450.973C320.645 453.876 336.282 442.841 341.164 433.597C343.87 428.473 344.769 421.546 343.63 412.348C342.495 403.172 339.492 392.971 335.708 382.166C334.199 377.854 332.382 372.976 330.555 368.071L330.555 368.07L330.554 368.069C328.25 361.881 325.93 355.651 324.19 350.464ZM325.87 369.819C325.87 369.818 325.87 369.816 325.869 369.815L325.848 369.758C323.559 363.612 321.215 357.319 319.45 352.053C316.222 342.426 312.854 330.703 313.682 320.099C314.133 314.329 315.897 307.697 320.636 301.906C325.464 296.007 331.944 292.732 338.599 291.197C350.738 288.396 366.21 290.753 384.125 295.803C393.601 298.474 399.117 308.321 396.446 317.797C393.775 327.273 383.928 332.789 374.452 330.118C362.258 326.681 354.728 325.697 350.404 325.643C350.538 329.361 351.197 334.591 353.252 340.719C355.028 346.014 356.896 351.001 358.933 356.436L358.943 356.461L358.949 356.477C360.721 361.205 362.614 366.254 364.638 372.035C368.608 383.373 372.501 396.069 374.05 408.583C375.595 421.067 375.034 435.102 368.268 447.913C353.994 474.937 319.794 484.53 268.638 481.574L263.646 481.286L265.703 445.693L270.694 445.982C320.754 448.874 333.385 437.619 336.743 431.262C338.787 427.391 339.74 421.621 338.668 412.963C337.6 404.331 334.743 394.538 330.989 383.818C329.499 379.563 327.701 374.735 325.87 369.819Z" fill="#08090C"/>
<path d="M324.19 350.464C320.958 340.822 317.926 329.972 318.667 320.488C319.064 315.409 320.594 309.852 324.506 305.073C328.48 300.216 333.887 297.415 339.723 296.069C350.548 293.572 364.963 295.597 382.769 300.616C389.587 302.538 393.556 309.623 391.634 316.44C389.712 323.258 382.627 327.227 375.809 325.305C358.541 320.438 349.555 320.126 345.489 321.064C345.199 324.78 345.237 332.544 348.512 342.309C350.322 347.708 352.224 352.784 354.261 358.216C356.036 362.951 357.913 367.958 359.919 373.688C363.858 384.938 367.607 397.227 369.088 409.197C370.567 421.146 369.95 434.021 363.846 445.578C351.529 468.898 321.988 478.864 273.92 476.833C272.277 476.763 270.613 476.68 268.926 476.582L270.406 450.973C320.645 453.876 336.282 442.841 341.164 433.597C343.87 428.473 344.769 421.546 343.63 412.348C342.495 403.172 339.492 392.971 335.708 382.166C334.199 377.854 332.382 372.976 330.555 368.071L330.555 368.07L330.554 368.069C328.25 361.881 325.93 355.651 324.19 350.464Z" fill="#313749"/>
<path d="M318.427 315.549C319.275 311.961 320.835 308.336 323.506 305.073C325.633 302.473 328.172 300.463 330.966 298.949C337.64 300.288 344.326 303.558 350.538 308.599C339.889 306.784 328.689 309.013 318.427 315.549Z" fill="#08090C"/>
<path d="M323.587 351C323.516 350.816 323.446 350.633 323.377 350.452C321.244 344.882 319.189 338.908 318 333.029C328.231 332.704 339.252 335.133 350.259 340.133C350.519 340.841 350.792 341.569 351.079 342.317C351.383 343.113 351.69 343.902 352 344.686C342.147 344.782 332.513 346.871 323.587 351Z" fill="#08090C"/>
<path d="M338.138 392.579C337.23 389.597 336.229 386.554 335.158 383.459C345.131 385.049 355.014 387.658 364.439 391.225C364.542 391.607 364.644 391.99 364.745 392.373C355.968 391.783 347.037 391.846 338.138 392.579Z" fill="#08090C"/>
<path d="M318.281 447.145C322.775 446.007 326.464 444.632 329.492 443.117C328.713 450.928 325.235 458.873 319.318 466.164C320.383 459.914 320.056 453.474 318.281 447.145Z" fill="#08090C"/>
<path d="M375.234 297.625C373.094 304.251 369.854 310.977 365.562 317.611C366.334 310.03 365.798 302.506 363.928 295.271C367.506 295.864 371.275 296.655 375.234 297.625Z" fill="#08090C"/>
<path d="M335.926 432.973C338.471 429.84 340.774 426.851 342.853 424C346.915 429.689 350.282 436.495 352.801 444.216C347.842 439.42 342.167 435.623 335.926 432.973Z" fill="#08090C"/>
<path fill-rule="evenodd" clip-rule="evenodd" d="M119.003 506.226C111.333 510.854 101.178 512.927 90.5104 512.927C79.843 512.927 69.6881 510.854 62.0173 506.226C54.1404 501.474 48.8676 493.956 48.8676 483.853C48.8676 474.273 53.6271 463.603 60.8493 455.41C68.1095 447.174 78.5346 440.69 90.5104 440.69C102.486 440.69 112.911 447.174 120.171 455.41C127.394 463.603 132.153 474.273 132.153 483.853C132.153 493.956 126.88 501.474 119.003 506.226ZM90.5104 507.927C110.748 507.927 127.153 499.999 127.153 483.853C127.153 467.706 110.748 445.69 90.5104 445.69C70.2731 445.69 53.8676 467.706 53.8676 483.853C53.8676 499.999 70.2731 507.927 90.5104 507.927Z" fill="#08090C"/>
<path d="M127.153 483.853C127.153 499.999 110.748 507.927 90.5104 507.927C70.2731 507.927 53.8676 499.999 53.8676 483.853C53.8676 467.706 70.2731 445.69 90.5104 445.69C110.748 445.69 127.153 467.706 127.153 483.853Z" fill="#919AB6"/>
<path fill-rule="evenodd" clip-rule="evenodd" d="M300.458 506.226C292.788 510.854 282.633 512.927 271.965 512.927C261.298 512.927 251.143 510.854 243.472 506.226C235.595 501.474 230.322 493.956 230.322 483.853C230.322 474.273 235.082 463.603 242.304 455.41C249.564 447.174 259.989 440.69 271.965 440.69C283.941 440.69 294.366 447.174 301.626 455.41C308.849 463.603 313.608 474.273 313.608 483.853C313.608 493.956 308.335 501.474 300.458 506.226ZM271.965 507.927C292.202 507.927 308.608 499.999 308.608 483.853C308.608 467.706 292.202 445.69 271.965 445.69C251.728 445.69 235.322 467.706 235.322 483.853C235.322 499.999 251.728 507.927 271.965 507.927Z" fill="#08090C"/>
<path d="M308.608 483.853C308.608 499.999 292.202 507.927 271.965 507.927C251.728 507.927 235.322 499.999 235.322 483.853C235.322 467.706 251.728 445.69 271.965 445.69C292.202 445.69 308.608 467.706 308.608 483.853Z" fill="#919AB6"/>
<path fill-rule="evenodd" clip-rule="evenodd" d="M277.462 502.076C252.474 521.756 218.3 531.264 181.091 531.264C143.883 531.264 109.709 521.756 84.7203 502.076C59.579 482.275 44.1773 452.505 44.1773 413.114C44.1773 374.039 59.3197 328.239 83.6701 292.175C107.932 256.241 142.228 228.748 181.091 228.748C219.954 228.748 254.25 256.241 278.512 292.175C302.863 328.239 318.005 374.039 318.005 413.114C318.005 452.505 302.603 482.275 277.462 502.076ZM181.091 526.264C253.945 526.264 313.005 489.004 313.005 413.114C313.005 337.225 253.945 233.748 181.091 233.748C108.237 233.748 49.1773 337.225 49.1773 413.114C49.1773 489.004 108.237 526.264 181.091 526.264Z" fill="#08090C"/>
<path d="M313.005 413.114C313.005 489.004 253.945 526.264 181.091 526.264C108.237 526.264 49.1773 489.004 49.1773 413.114C49.1773 337.225 108.237 233.748 181.091 233.748C253.945 233.748 313.005 337.225 313.005 413.114Z" fill="#313749"/>
<path d="M295.191 331.039C292.123 324.077 288.72 317.246 285.012 310.635C275.672 311.254 266.115 315.279 257.379 322.37C269.935 320.228 283.162 323.008 295.191 331.039Z" fill="#08090C"/>
<path d="M300.39 469.104C304.601 461.625 307.921 453.406 310.228 444.444C292.993 440.092 272.669 444.734 253.049 457.428C269.695 455.732 286.102 459.557 300.39 469.104Z" fill="#08090C"/>
<path d="M313.598 393.012C311.887 379.73 308.652 366.011 304.104 352.459C288.699 348.813 270.688 353.261 253.287 364.969C275.023 362.667 296.312 371.158 312.059 391.012C312.581 391.67 313.094 392.337 313.598 393.012Z" fill="#08090C"/>
<path d="M313.375 426.38C313.792 422.098 314.005 417.676 314.005 413.114C314.005 410.885 313.954 408.633 313.853 406.36C288.692 404.223 261.578 408.506 237.439 418.387C262.601 416.222 289.042 418.787 313.375 426.38Z" fill="#08090C"/>
<path d="M66.9908 331.039C70.0591 324.077 73.4623 317.246 77.1699 310.635C86.5105 311.254 96.0675 315.279 104.804 322.37C92.247 320.228 79.0197 323.008 66.9908 331.039Z" fill="#08090C"/>
<path d="M61.7924 469.104C57.5815 461.625 54.2616 453.406 51.9546 444.444C69.1888 440.092 89.513 444.734 109.133 457.428C92.4872 455.732 76.0798 459.557 61.7924 469.104Z" fill="#08090C"/>
<path d="M49.5841 392.012C51.2953 378.73 54.5297 365.011 59.0785 351.459C74.4833 347.813 92.4944 352.261 109.895 363.969C88.1587 361.667 66.8706 370.158 51.1231 390.012C50.6007 390.67 50.0877 391.337 49.5841 392.012Z" fill="#08090C"/>
<path d="M48.8075 426.38C48.3906 422.098 48.1772 417.676 48.1772 413.114C48.1772 410.885 48.2282 408.633 48.3289 406.36C73.4904 404.223 100.604 408.506 124.743 418.387C99.5809 416.222 73.1404 418.787 48.8075 426.38Z" fill="#08090C"/>
<path d="M248.339 413.114C248.339 489.004 218.181 526.264 180.979 526.264C143.777 526.264 113.619 489.004 113.619 413.114C113.619 337.225 143.777 233.748 180.979 233.748C218.181 233.748 248.339 337.225 248.339 413.114Z" fill="#919AB6"/>
<path fill-rule="evenodd" clip-rule="evenodd" d="M134.247 537.299C126.576 541.927 116.421 544 105.754 544C95.0864 544 84.9315 541.927 77.2607 537.299C69.3837 532.547 64.111 525.029 64.111 514.926C64.111 505.346 68.8705 494.676 76.0926 486.483C83.3529 478.247 93.778 471.763 105.754 471.763C117.729 471.763 128.155 478.247 135.415 486.483C142.637 494.676 147.396 505.346 147.396 514.926C147.396 525.029 142.124 532.547 134.247 537.299ZM105.754 539C125.991 539 142.396 531.072 142.396 514.926C142.396 498.779 125.991 476.763 105.754 476.763C85.5165 476.763 69.111 498.779 69.111 514.926C69.111 531.072 85.5165 539 105.754 539Z" fill="#08090C"/>
<path d="M142.396 514.926C142.396 531.072 125.991 539 105.754 539C85.5165 539 69.111 531.072 69.111 514.926C69.111 498.779 85.5165 476.763 105.754 476.763C125.991 476.763 142.396 498.779 142.396 514.926Z" fill="#919AB6"/>
<path fill-rule="evenodd" clip-rule="evenodd" d="M284.629 537.299C276.958 541.927 266.803 544 256.136 544C245.468 544 235.313 541.927 227.642 537.299C219.766 532.547 214.493 525.029 214.493 514.926C214.493 505.346 219.252 494.676 226.474 486.483C233.735 478.247 244.16 471.763 256.136 471.763C268.111 471.763 278.536 478.247 285.797 486.483C293.019 494.676 297.778 505.346 297.778 514.926C297.778 525.029 292.506 532.547 284.629 537.299ZM256.136 539C276.373 539 292.778 531.072 292.778 514.926C292.778 498.779 276.373 476.763 256.136 476.763C235.898 476.763 219.493 498.779 219.493 514.926C219.493 531.072 235.898 539 256.136 539Z" fill="#08090C"/>
<path d="M292.778 514.926C292.778 531.072 276.373 539 256.136 539C235.898 539 219.493 531.072 219.493 514.926C219.493 498.779 235.898 476.763 256.136 476.763C276.373 476.763 292.778 498.779 292.778 514.926Z" fill="#919AB6"/>
<path fill-rule="evenodd" clip-rule="evenodd" d="M123.19 122.913C117.149 134.162 106.487 144.186 92.7663 150.584C79.0458 156.982 64.5136 158.706 52.0133 156.103C39.5119 153.499 28.7203 146.453 23.4294 135.107C20.8849 129.65 18.9352 121.69 17.7708 112.887C16.5952 104.001 16.1741 93.9026 16.8753 84.0097C17.574 74.1514 19.4033 64.2645 22.8738 55.9257C26.3316 47.6175 31.6475 40.3274 39.6195 36.61C47.5916 32.8926 56.5931 33.5064 65.1801 36.1979C73.7989 38.8994 82.5485 43.8533 90.5495 49.6548C98.5787 55.4767 106.044 62.2903 112.096 68.9031C118.09 75.4531 122.935 82.0635 125.479 87.5202C130.77 98.8665 129.231 111.662 123.19 122.913ZM90.6533 146.052C116.331 134.078 129.894 108.819 120.948 89.6333C112.001 70.4477 67.4103 29.1679 41.7326 41.1416C16.055 53.1152 19.0145 113.808 27.9609 132.994C36.9073 152.179 64.9756 158.026 90.6533 146.052Z" fill="#08090C"/>
<path d="M120.948 89.6333C129.894 108.819 116.331 134.078 90.6533 146.052C64.9756 158.026 36.9073 152.179 27.9609 132.994C19.0145 113.808 16.055 53.1152 41.7326 41.1416C67.4103 29.1679 112.001 70.4477 120.948 89.6333Z" fill="#313749"/>
<path fill-rule="evenodd" clip-rule="evenodd" d="M102.635 116.109C98.9568 122.959 92.5221 128.971 84.3344 132.789C76.1467 136.607 67.4049 137.672 59.7936 136.086C52.1813 134.501 45.3774 130.152 42.0143 122.94C40.4336 119.55 39.2865 114.775 38.6109 109.668C37.9242 104.476 37.6782 98.584 38.0881 92.7998C38.4957 87.0501 39.5674 81.1747 41.6617 76.1428C43.7432 71.1415 47.064 66.4536 52.2696 64.0262C57.4753 61.5987 63.201 62.0682 68.3702 63.6884C73.571 65.3186 78.7607 68.2742 83.4272 71.6578C88.1217 75.0618 92.4774 79.0379 96.0128 82.9008C99.4907 86.701 102.412 90.6494 103.992 94.0391C107.355 101.251 106.313 109.259 102.635 116.109ZM82.2213 128.258C96.8333 121.444 104.552 107.07 99.4607 96.1522C94.3697 85.2345 68.9948 61.744 54.3827 68.5577C39.7707 75.3714 41.4548 109.909 46.5458 120.827C51.6368 131.744 67.6093 135.071 82.2213 128.258Z" fill="#08090C"/>
<path d="M99.4607 96.1522C104.552 107.07 96.8333 121.444 82.2213 128.258C67.6093 135.071 51.6368 131.744 46.5458 120.827C41.4548 109.909 39.7707 75.3714 54.3827 68.5577C68.9948 61.744 94.3697 85.2345 99.4607 96.1522Z" fill="#08090C"/>
<path fill-rule="evenodd" clip-rule="evenodd" d="M310.196 156.103C297.696 158.706 283.163 156.982 269.443 150.584C255.722 144.186 245.06 134.162 239.02 122.913C232.979 111.662 231.439 98.8665 236.73 87.5202C239.274 82.0635 244.119 75.4531 250.114 68.9031C256.166 62.2903 263.631 55.4767 271.66 49.6548C279.661 43.8533 288.41 38.8994 297.029 36.1979C305.616 33.5064 314.618 32.8926 322.59 36.61C330.562 40.3274 335.878 47.6175 339.335 55.9257C342.806 64.2645 344.635 74.1514 345.334 84.0097C346.035 93.9026 345.614 104.001 344.438 112.887C343.274 121.69 341.324 129.65 338.78 135.107C333.489 146.453 322.697 153.499 310.196 156.103ZM271.556 146.052C297.234 158.026 325.302 152.179 334.248 132.994C343.195 113.808 346.154 53.1152 320.477 41.1416C294.799 29.1679 250.208 70.4477 241.261 89.6333C232.315 108.819 245.878 134.078 271.556 146.052Z" fill="#08090C"/>
<path d="M334.248 132.994C325.302 152.179 297.234 158.026 271.556 146.052C245.878 134.078 232.315 108.819 241.261 89.6333C250.208 70.4477 294.799 29.1679 320.477 41.1416C346.154 53.1152 343.195 113.808 334.248 132.994Z" fill="#313749"/>
<path fill-rule="evenodd" clip-rule="evenodd" d="M302.195 135.983C294.584 137.568 285.842 136.504 277.654 132.686C269.467 128.868 263.032 122.856 259.354 116.006C255.676 109.155 254.633 101.148 257.997 93.9359C259.577 90.5462 262.498 86.5979 265.976 82.7977C269.511 78.9348 273.867 74.9588 278.561 71.5548C283.228 68.1712 288.417 65.2156 293.618 63.5855C298.787 61.9652 304.513 61.4958 309.719 63.9232C314.924 66.3506 318.245 71.0385 320.327 76.0397C322.421 81.0716 323.493 86.947 323.9 92.6966C324.31 98.4808 324.064 104.373 323.377 109.564C322.702 114.671 321.555 119.447 319.974 122.836C316.611 130.049 309.807 134.397 302.195 135.983ZM279.767 128.154C294.379 134.968 310.351 131.641 315.442 120.723C320.533 109.806 322.217 75.2684 307.606 68.4548C292.994 61.6411 267.619 85.1314 262.528 96.049C257.437 106.967 265.155 121.341 279.767 128.154Z" fill="#08090C"/>
<path d="M315.442 120.723C310.351 131.641 294.379 134.968 279.767 128.154C265.155 121.341 257.437 106.967 262.528 96.049C267.619 85.1314 292.994 61.6411 307.606 68.4548C322.217 75.2684 320.533 109.806 315.442 120.723Z" fill="#08090C"/>
<path fill-rule="evenodd" clip-rule="evenodd" d="M307.391 292.715C274.646 308.189 229.858 315.687 180.885 315.687C131.913 315.687 87.1246 308.189 54.3793 292.715C21.5796 277.215 0 253.19 0 220.167C0 187.865 20.7582 150.74 53.1943 121.916C85.7769 92.9624 130.891 71.6743 180.885 71.6743C230.879 71.6743 275.993 92.9624 308.576 121.916C341.012 150.74 361.77 187.865 361.77 220.167C361.77 253.19 340.191 277.215 307.391 292.715ZM180.885 310.687C278.024 310.687 356.77 280.879 356.77 220.167C356.77 159.456 278.024 76.6743 180.885 76.6743C83.7465 76.6743 5 159.456 5 220.167C5 280.879 83.7465 310.687 180.885 310.687Z" fill="#08090C"/>
<path d="M356.77 220.167C356.77 280.879 278.024 310.687 180.885 310.687C83.7465 310.687 5 280.879 5 220.167C5 159.456 83.7465 76.6743 180.885 76.6743C278.024 76.6743 356.77 159.456 356.77 220.167Z" fill="#313749"/>
<path d="M269.034 265.334C269.034 295.69 229.661 310.594 181.091 310.594C132.522 310.594 93.1486 295.69 93.1486 265.334C93.1486 234.978 132.522 193.588 181.091 193.588C229.661 193.588 269.034 234.978 269.034 265.334Z" fill="#919AB6"/>
<path d="M144.179 242.633C144.172 242.859 144.169 243.086 144.169 243.314V243.344C144.176 254.634 152.288 263.784 162.293 263.784C171.594 263.784 179.259 255.877 180.298 245.694C180.337 245.695 180.377 245.695 180.417 245.695C180.721 245.695 181.023 245.686 181.323 245.67C182.352 255.864 190.021 263.784 199.33 263.784C209.34 263.784 217.454 254.626 217.454 243.329C217.454 243.096 217.451 242.865 217.444 242.634C217.119 253.608 209.133 262.393 199.33 262.393C189.32 262.393 181.205 253.235 181.205 241.938C181.205 241.891 181.206 241.845 181.206 241.798H180.417C180.417 241.845 180.417 241.891 180.417 241.938C180.417 253.235 172.303 262.393 162.293 262.393C152.489 262.393 144.504 253.608 144.179 242.633Z" fill="#08090C" stroke="#08090C" stroke-width="3"/>
<path d="M227.728 231.622C239.25 232.236 254.637 234.831 271.201 239.27C287.765 243.708 302.388 249.154 312.674 254.384C306.132 248.113 290.774 240.885 272.108 235.884C253.443 230.883 236.528 229.463 227.728 231.622Z" fill="#08090C"/>
<path d="M227.183 223.079C237.456 220.69 251.592 219.214 267.197 219.214C282.802 219.214 296.939 220.69 307.211 223.079C299.984 218.715 284.782 215.709 267.197 215.709C249.612 215.709 234.41 218.715 227.183 223.079Z" fill="#08090C"/>
<path d="M226.835 240.174C236.524 243.01 248.953 248.481 261.858 255.932C274.763 263.383 285.716 271.41 293.016 278.384C289.222 271.154 278.153 261.292 263.61 252.896C249.068 244.5 234.993 239.845 226.835 240.174Z" fill="#08090C"/>
<path d="M133.699 231.622C122.177 232.236 106.79 234.831 90.2258 239.27C73.6617 243.708 59.0384 249.154 48.7531 254.383C55.2945 248.113 70.6532 240.885 89.3186 235.884C107.984 230.883 124.899 229.462 133.699 231.622Z" fill="#08090C"/>
<path d="M134.244 223.079C123.971 220.69 109.835 219.214 94.2298 219.214C78.6248 219.214 64.4883 220.69 54.2159 223.079C61.4426 218.715 76.645 215.709 94.2298 215.709C111.814 215.709 127.017 218.715 134.244 223.079Z" fill="#08090C"/>
<path d="M134.592 240.174C124.902 243.009 112.474 248.481 99.569 255.932C86.664 263.382 75.7113 271.41 68.4109 278.384C72.2053 271.154 83.2743 261.292 97.8165 252.896C112.359 244.5 126.434 239.845 134.592 240.174Z" fill="#08090C"/>
<path d="M163.223 226.03C163.223 219.959 171.098 215.037 180.811 215.037C190.525 215.037 198.4 219.959 198.4 226.03C198.4 232.101 190.525 240.379 180.811 240.379C171.098 240.379 163.223 232.101 163.223 226.03Z" fill="#08090C"/>
<circle cx="126.901" cy="176.861" r="25.975" fill="#08090C"/>
<ellipse cx="5.40767" cy="7.99772" rx="5.40767" ry="7.99772" transform="matrix(0.909809 -0.415028 0.430286 0.902692 131.59 166.73)" fill="#ECF1FE"/>
<circle cx="237.901" cy="177.227" r="25.975" fill="#08090C"/>
<ellipse cx="5.40767" cy="7.99772" rx="5.40767" ry="7.99772" transform="matrix(0.909809 -0.415028 0.430286 0.902692 242.586 166.73)" fill="#ECF1FE"/>
<path d="M212.963 94.8222C203.748 105.803 199.428 119.13 199.881 131.829C192.242 116.752 193.016 99.1717 203.399 86.7975C206.195 83.4656 209.483 80.7543 213.112 78.6666C218.167 79.6144 223.145 80.7753 228.039 82.1321C222.505 85.3226 217.372 89.5672 212.963 94.8222Z" fill="#08090C"/>
<path d="M148.088 94.8222C157.302 105.803 161.623 119.13 161.169 131.829C168.809 116.752 168.035 99.1717 157.651 86.7975C154.856 83.4656 151.567 80.7543 147.938 78.6666C142.884 79.6144 137.905 80.7753 133.012 82.1321C138.545 85.3226 143.678 89.5672 148.088 94.8222Z" fill="#08090C"/>
<path d="M6.88565 240.355C4.94223 233.811 3.9263 227.063 3.9263 220.167C3.9263 214.165 4.69594 207.947 6.17691 201.615C29.0689 191.016 59.4923 194.095 88.6062 209.101C60.2284 206.799 32.4355 215.29 11.8764 235.144C10.133 236.827 8.46952 238.565 6.88565 240.355Z" fill="#08090C"/>
<path d="M12.5066 182.758C15.1667 180.257 18.0171 177.893 21.0538 175.686C39.5516 162.247 61.4833 157.195 82.0383 159.88C66.6699 150.326 49.3556 146.336 33.4086 148.749C24.5936 159.754 17.5172 171.28 12.5066 182.758Z" fill="#08090C"/>
<path d="M349.094 182.758C346.434 180.257 343.584 177.893 340.547 175.686C322.049 162.247 300.118 157.195 279.563 159.88C294.931 150.326 312.245 146.336 328.192 148.749C337.007 159.754 344.084 171.28 349.094 182.758Z" fill="#08090C"/>
<path d="M354.665 240.596C356.655 233.977 357.697 227.148 357.697 220.167C357.697 214.212 356.939 208.045 355.481 201.765C332.553 190.988 301.981 194.025 272.731 209.101C301.109 206.799 328.902 215.29 349.461 235.144C351.283 236.903 353.017 238.722 354.665 240.596Z" fill="#08090C"/>
<path d="M170.148 75.9538L179.932 160.685L189.716 75.9538C186.477 75.7688 183.215 75.6742 179.932 75.6742C176.649 75.6742 173.387 75.7688 170.148 75.9538Z" fill="#08090C"/>
<path fill-rule="evenodd" clip-rule="evenodd" d="M33.2994 88.8207L37.6883 81.4717C66.8227 32.6876 120.156 0 181.129 0C242.102 0 295.435 32.6876 324.57 81.4717L328.958 88.8207H33.2994ZM320.399 83.9626C319.42 82.3243 318.414 80.7048 317.38 79.1045C288.514 34.4294 238.275 4.8581 181.129 4.8581C123.983 4.8581 73.7434 34.4294 44.878 79.1045C43.8441 80.7048 42.8376 82.3243 41.8592 83.9626H320.399Z" fill="#120802"/>
<path d="M317.38 79.1045C318.414 80.7048 319.42 82.3243 320.399 83.9626H41.8592C42.8376 82.3243 43.8441 80.7048 44.878 79.1045C73.7434 34.4294 123.983 4.8581 181.129 4.8581C238.275 4.8581 288.514 34.4294 317.38 79.1045Z" fill="#4B63AA"/>
<path fill-rule="evenodd" clip-rule="evenodd" d="M11.0041 161.961C11.7822 134.993 18.8361 109.588 30.7585 87.1655C33.4738 82.0588 38.7969 79.1058 44.3724 79.1058H317.891C323.466 79.1058 328.789 82.0588 331.505 87.1655C342.506 107.856 349.363 131.087 350.967 155.744C351.554 164.766 344.182 171.817 335.566 171.817L20.6483 171.817C15.3196 171.817 10.8451 167.471 11.0041 161.961ZM35.048 89.4462C36.8716 86.0165 40.488 83.9639 44.3724 83.9639H317.891C321.775 83.9639 325.391 86.0165 327.215 89.4463C337.901 109.543 344.56 132.106 346.119 156.059C346.51 162.07 341.59 166.959 335.566 166.959L20.6483 166.959C17.9652 166.959 15.7828 164.783 15.8602 162.101C16.6162 135.899 23.4684 111.224 35.048 89.4462Z" fill="#120802"/>
<path d="M44.3724 83.9639C40.488 83.9639 36.8716 86.0165 35.048 89.4462C23.4684 111.224 16.6162 135.899 15.8602 162.101C15.7828 164.783 17.9652 166.959 20.6483 166.959L335.566 166.959C341.59 166.959 346.51 162.07 346.119 156.059C344.56 132.106 337.901 109.543 327.215 89.4463C325.391 86.0165 321.775 83.9639 317.891 83.9639H44.3724Z" fill="#4B63AA"/>
<path fill-rule="evenodd" clip-rule="evenodd" d="M237.225 71.9731H305.299V110.868H237.225V71.9731ZM242.083 76.8312V106.01H300.441V76.8312H242.083Z" fill="#120802"/>
<path d="M242.083 76.8312H300.441V106.01H242.083V76.8312Z" fill="#120802"/>
<path fill-rule="evenodd" clip-rule="evenodd" d="M287.418 90.0127V81.9092L297.961 92.4594C298.52 93.0183 299.425 93.0183 299.984 92.4594L300.085 92.3582C300.644 91.7992 300.644 90.893 300.085 90.334L286.937 77.1772C286.448 76.6881 285.693 76.6269 285.138 76.9937C285.059 77.0461 284.984 77.1073 284.914 77.1772L284.813 77.2784L284.811 77.2805L271.766 90.334C271.549 90.5509 271.416 90.8201 271.368 91.1009C271.341 91.2108 271.326 91.3257 271.326 91.444V91.5871C271.326 92.3776 271.967 93.0184 272.757 93.0184H282.13L271.766 103.39C271.207 103.949 271.207 104.855 271.766 105.414L271.867 105.515C272.425 106.074 273.331 106.074 273.89 105.515L284.414 94.9838V104.504C284.414 105.295 285.054 105.936 285.844 105.936H285.987C286.777 105.936 287.418 105.295 287.418 104.504V93.0184H292.639C293.428 93.0184 294.069 92.3776 294.069 91.5871V91.444C294.069 90.6535 293.428 90.0127 292.639 90.0127H287.418ZM276.335 90.0127H284.414V81.9281L276.335 90.0127Z" fill="#4B63AA"/>
<path fill-rule="evenodd" clip-rule="evenodd" d="M268.33 78.1882C268.33 77.3983 268.971 76.7579 269.76 76.7579H269.903C270.693 76.7579 271.333 77.3983 271.333 78.1882V91.8832L271.355 91.9058L271.333 91.9284V104.505C271.333 105.295 270.693 105.936 269.903 105.936H269.76C268.971 105.936 268.33 105.295 268.33 104.505V94.932L257.761 105.506C257.202 106.064 256.297 106.064 255.739 105.506L242.596 92.3582C242.527 92.2884 242.466 92.2131 242.413 92.1338C242.256 91.8949 242.177 91.6191 242.178 91.3434C242.178 91.253 242.187 91.1627 242.204 91.0736C242.256 90.8032 242.387 90.5449 242.596 90.3355L255.739 77.1877C256.297 76.6292 257.202 76.6292 257.761 77.1877L257.862 77.2889C258.067 77.4939 258.197 77.7457 258.251 78.0099V89.845H268.33V78.1882ZM255.249 89.845H250.602C249.812 89.845 249.172 90.4854 249.172 91.2753V91.4183C249.172 92.2083 249.812 92.8486 250.602 92.8486H255.249V100.924L245.753 91.4251L255.249 81.9259V89.845ZM258.251 100.768V92.8486H266.167L258.251 100.768Z" fill="#4B63AA"/>
</svg>
