<svg width="366" height="543" viewBox="0 0 366 543" fill="none" xmlns="http://www.w3.org/2000/svg">
<path fill-rule="evenodd" clip-rule="evenodd" d="M128.678 513.041C121.201 517.552 111.317 519.565 100.953 519.565C90.5894 519.565 80.7054 517.552 73.2283 513.041C65.5436 508.405 60.3867 501.058 60.3867 491.185C60.3867 481.84 65.0265 471.451 72.0515 463.482C79.115 455.469 89.2711 449.145 100.953 449.145C112.635 449.145 122.792 455.469 129.855 463.482C136.88 471.451 141.52 481.84 141.52 491.185C141.52 501.058 136.363 508.405 128.678 513.041ZM100.953 514.528C120.575 514.528 136.482 506.841 136.482 491.185C136.482 475.529 120.575 454.182 100.953 454.182C81.3311 454.182 65.4242 475.529 65.4242 491.185C65.4242 506.841 81.3311 514.528 100.953 514.528Z" fill="#08090C"/>
<path d="M136.482 491.185C136.482 506.841 120.575 514.528 100.953 514.528C81.3311 514.528 65.4242 506.841 65.4242 491.185C65.4242 475.529 81.3311 454.182 100.953 454.182C120.575 454.182 136.482 475.529 136.482 491.185Z" fill="#919AB6"/>
<path fill-rule="evenodd" clip-rule="evenodd" d="M284.489 513.041C277.012 517.552 267.128 519.565 256.764 519.565C246.4 519.565 236.517 517.552 229.039 513.041C221.355 508.405 216.198 501.058 216.198 491.185C216.198 481.84 220.838 471.451 227.863 463.482C234.926 455.469 245.082 449.145 256.764 449.145C268.447 449.145 278.603 455.469 285.666 463.482C292.691 471.451 297.331 481.84 297.331 491.185C297.331 501.058 292.174 508.405 284.489 513.041ZM256.764 514.528C276.387 514.528 292.293 506.841 292.293 491.185C292.293 475.529 276.387 454.182 256.764 454.182C237.142 454.182 221.235 475.529 221.235 491.185C221.235 506.841 237.142 514.528 256.764 514.528Z" fill="#08090C"/>
<path d="M292.293 491.185C292.293 506.841 276.387 514.528 256.764 514.528C237.142 514.528 221.235 506.841 221.235 491.185C221.235 475.529 237.142 454.182 256.764 454.182C276.387 454.182 292.293 475.529 292.293 491.185Z" fill="#919AB6"/>
<path fill-rule="evenodd" clip-rule="evenodd" d="M236.01 468.186C252.941 472.484 267.133 474.812 278.938 475.108C293.691 475.477 308.064 472.733 318.504 462.846C329.144 452.771 331.33 439.441 331.364 429.084C331.399 418.76 329.283 407.482 327.35 397.717C327.063 396.266 326.775 394.826 326.49 393.403C324.722 384.568 323.083 376.36 322.184 368.266C321.145 358.914 321.308 351.257 322.912 345.053C324.397 339.304 327.172 334.512 332.371 330.371C336.044 327.445 341.431 324.451 349.371 321.943C359.231 318.828 366.716 309.097 364.774 298.049C362.89 287.334 352.432 279.485 341.269 282.624C327.818 286.407 316.543 291.839 307.449 299.083C294.818 309.145 287.626 321.725 284.184 335.045C280.859 347.911 281.134 361.027 282.429 372.683C283.537 382.657 285.548 392.685 287.284 401.342L287.304 401.438L287.304 401.44L287.307 401.457C287.583 402.834 287.852 404.175 288.111 405.482C290.139 415.731 291.383 423.215 291.364 428.951C291.355 431.823 291.026 433.252 290.823 433.85C289.921 434.274 286.986 435.296 279.938 435.12C272.295 434.929 261.586 433.357 246.854 429.668C236.339 427.035 225.271 432.924 222.166 443.583C219.091 454.136 225.121 465.422 236.01 468.186ZM290.669 434.208C290.667 434.206 290.681 434.177 290.714 434.128C290.687 434.186 290.67 434.21 290.669 434.208ZM259.11 468.033C252.451 466.917 245.177 465.354 237.24 463.34C229.211 461.302 224.649 452.935 226.966 444.981C229.283 437.028 237.603 432.506 245.639 434.518C254.845 436.823 262.598 438.338 269.102 439.209C267.951 441.456 266.884 443.706 265.902 445.955C268.245 443.752 270.748 441.665 273.407 439.71C275.721 439.936 277.852 440.07 279.813 440.119C290.608 440.389 293.776 438.06 294.438 437.433C294.952 436.947 296.344 435.249 296.364 428.968C296.366 428.637 296.363 428.302 296.357 427.963C306.169 424.819 316.338 423.691 326.242 424.493C326.326 426.038 326.369 427.565 326.364 429.068C326.332 438.851 324.255 450.514 315.066 459.216C314.366 459.878 313.645 460.505 312.902 461.099C293.731 455.804 275.133 456.349 260.073 463.322C259.704 464.901 259.383 466.472 259.11 468.033ZM326.124 422.66C316.073 417.177 305.286 414.207 294.79 414.01C294.846 414.337 294.9 414.66 294.953 414.981C294.424 411.779 293.765 408.299 293.016 404.512C292.755 403.193 292.484 401.84 292.207 400.459L292.206 400.456L292.205 400.45C291.877 398.817 291.542 397.143 291.205 395.438L291.3 395.918C300.41 391.612 310.118 388.684 320.148 387.112C320.612 389.511 321.097 391.933 321.587 394.384L321.602 394.459C321.882 395.859 322.164 397.268 322.445 398.687C323.971 406.4 325.537 414.72 326.124 422.66ZM317.985 374.721C317.693 372.746 317.433 370.78 317.215 368.818C316.144 359.179 316.252 350.84 318.071 343.802C319.801 337.104 323.129 331.34 329.256 326.46C333.497 323.081 339.459 319.83 347.865 317.175C347.9 317.164 347.935 317.153 347.97 317.141C341.913 308.126 334.792 300.054 326.772 293.175C320.677 295.965 315.283 299.235 310.564 302.994C304.182 308.078 299.306 313.841 295.672 320.038C306.694 319.671 318.088 321.96 328.977 326.684C326.843 328.417 325.056 330.26 323.563 332.216C311.434 332.948 299.254 336.126 287.82 341.857C286.057 351.836 286.313 361.933 287.311 371.33L287.31 371.322C297.121 370.899 307.465 372.056 317.985 374.721ZM339.679 288.304C343.446 297.141 346.39 306.776 348.404 316.996C356.014 314.331 361.251 306.887 359.849 298.915C358.415 290.756 350.597 285.195 342.623 287.437C341.628 287.717 340.647 288.006 339.679 288.304Z" fill="#08090C"/>
<path d="M348.404 316.996C346.39 306.776 343.446 297.141 339.679 288.304C340.647 288.006 341.628 287.717 342.623 287.437C350.597 285.195 358.415 290.756 359.849 298.915C361.251 306.887 356.014 314.331 348.404 316.996Z" fill="#313749"/>
<path d="M317.215 368.818C317.433 370.78 317.693 372.746 317.985 374.721C307.465 372.056 297.121 370.899 287.31 371.322L287.311 371.33C286.313 361.933 286.057 351.836 287.82 341.857C299.254 336.126 311.434 332.948 323.563 332.216C325.056 330.26 326.843 328.417 328.977 326.684C318.088 321.96 306.694 319.671 295.672 320.038C299.306 313.841 304.182 308.078 310.564 302.994C315.283 299.235 320.677 295.965 326.772 293.175C334.792 300.054 341.913 308.126 347.97 317.141C347.935 317.153 347.9 317.164 347.865 317.175C339.459 319.83 333.497 323.081 329.256 326.46C323.129 331.34 319.801 337.104 318.071 343.802C316.252 350.84 316.144 359.179 317.215 368.818Z" fill="#313749"/>
<path d="M294.79 414.01C305.286 414.207 316.073 417.177 326.124 422.66C325.537 414.72 323.971 406.4 322.445 398.687C322.164 397.268 321.882 395.859 321.602 394.459L321.587 394.384C321.097 391.933 320.612 389.511 320.148 387.112C310.118 388.684 300.41 391.612 291.3 395.918L291.205 395.438C291.542 397.143 291.877 398.817 292.205 400.45L292.206 400.456L292.207 400.459C292.484 401.84 292.755 403.193 293.016 404.512C293.765 408.299 294.424 411.779 294.953 414.981C294.9 414.66 294.846 414.337 294.79 414.01Z" fill="#313749"/>
<path d="M237.24 463.34C245.177 465.354 252.451 466.917 259.11 468.033C259.383 466.472 259.704 464.901 260.073 463.322C275.133 456.349 293.731 455.804 312.902 461.099C313.645 460.505 314.366 459.878 315.066 459.216C324.255 450.514 326.332 438.851 326.364 429.068C326.369 427.565 326.326 426.038 326.242 424.493C316.338 423.691 306.169 424.819 296.357 427.963C296.363 428.302 296.366 428.637 296.364 428.968C296.344 435.249 294.952 436.947 294.438 437.433C293.776 438.06 290.608 440.389 279.813 440.119C277.852 440.07 275.721 439.936 273.407 439.71C270.748 441.665 268.245 443.752 265.902 445.955C266.884 443.706 267.951 441.456 269.102 439.209C262.598 438.338 254.845 436.823 245.639 434.518C237.603 432.506 229.283 437.028 226.966 444.981C224.649 452.935 229.211 461.302 237.24 463.34Z" fill="#313749"/>
<path fill-rule="evenodd" clip-rule="evenodd" d="M235.334 80.5861C217.368 74.4652 198.087 70.9117 178 70.8343C157.913 70.9117 138.632 74.4653 120.666 80.5861C118.031 76.3017 114.347 71.5842 110.064 66.9039C104.188 60.4833 96.9404 53.8681 89.1443 48.2152C81.3764 42.5827 72.8742 37.7674 64.4914 35.1398C56.1405 32.5223 47.3595 31.9166 39.5709 35.5485C31.7823 39.1803 26.602 46.2963 23.2393 54.376C19.8637 62.4866 18.0874 72.0949 17.409 81.6659C16.7282 91.2717 17.137 101.076 18.2784 109.704C19.4086 118.248 21.3023 125.988 23.7812 131.304C25.7324 135.488 28.4499 139.071 31.7328 142.046C11.8909 166.167 0 193.244 0 217.531C0 250.084 21.2588 273.814 53.6785 289.145C60.6201 292.427 68.1096 295.347 76.0703 297.908C55.7113 331.782 43.3224 372.412 43.3224 407.538L43.3226 407.787L43.3224 408.036C43.3224 446.949 58.5395 476.347 83.3681 495.898C107.921 515.232 141.458 524.625 178 524.72C214.542 524.625 248.079 515.232 272.632 495.898C297.46 476.347 312.678 446.949 312.678 408.036L312.677 407.787L312.678 407.538C312.678 372.412 300.289 331.782 279.93 297.908C287.89 295.347 295.38 292.427 302.322 289.145C334.741 273.814 356 250.084 356 217.53C356 193.244 344.109 166.167 324.267 142.046C327.55 139.071 330.268 135.488 332.219 131.304C334.698 125.988 336.591 118.248 337.722 109.704C338.863 101.076 339.272 91.2717 338.591 81.6658C337.913 72.0948 336.136 62.4865 332.761 54.3759C329.398 46.2963 324.218 39.1803 316.429 35.5484C308.641 31.9166 299.859 32.5222 291.509 35.1398C283.126 37.7673 274.624 42.5827 266.856 48.2151C259.06 53.8681 251.812 60.4833 245.936 66.9038C241.653 71.5842 237.969 76.3017 235.334 80.5861ZM178 519.3C222.332 519.183 261.439 505.069 284.836 476.641C268.453 467.943 249.648 464.46 230.571 466.008C253.938 453.964 278.176 449.844 298.421 454.611C302.028 446.486 304.662 437.587 306.191 427.913C291.69 421.134 275.964 418.856 260.992 420.811C275.757 411.633 292.374 407.751 307.719 409.956C307.732 409.155 307.739 408.349 307.739 407.538C307.739 404.412 307.637 401.237 307.438 398.025C306.634 397.186 305.811 396.36 304.969 395.547C285.035 376.296 258.087 368.063 230.571 370.296C254.871 357.772 280.111 353.816 300.825 359.512C299.01 352.881 296.864 346.246 294.411 339.678C277.021 327.965 256.797 323.624 237.788 326.107C252.271 317.104 268.535 313.197 283.633 315.132C280.926 309.807 278.022 304.596 274.934 299.542L275.114 299.487L275.067 299.411C247.059 307.72 213.664 311.806 178 311.856C142.336 311.806 108.941 307.72 80.9329 299.411L80.8863 299.487L81.0658 299.542C77.9782 304.596 75.0736 309.807 72.367 315.132C87.4647 313.197 103.729 317.104 118.212 326.107C99.2026 323.624 78.9792 327.965 61.5886 339.678C59.1356 346.246 56.9896 352.881 55.1754 359.512C75.8889 353.816 101.129 357.772 125.429 370.296C97.9133 368.063 70.9651 376.296 51.0308 395.547C50.1888 396.36 49.366 397.186 48.5624 398.025C48.3626 401.237 48.2611 404.412 48.2611 407.538C48.2611 408.349 48.2679 409.155 48.2815 409.956C63.6261 407.751 80.2433 411.633 95.0081 420.811C80.0359 418.856 64.3104 421.134 49.809 427.913C51.3384 437.587 53.972 446.486 57.5793 454.611C77.8244 449.844 102.062 453.965 125.429 466.008C106.352 464.46 87.5473 467.943 71.1641 476.641C94.561 505.069 133.668 519.183 178 519.3ZM178 307.021C262.946 306.899 333.521 283.648 348.268 236.513C346.94 235.05 345.556 233.623 344.117 232.234C323.81 212.623 296.358 204.236 268.328 206.51C296.666 191.905 326.26 188.738 348.753 198.667C347.159 192.014 344.773 185.236 341.666 178.454C339.697 176.729 337.63 175.076 335.468 173.505C317.197 160.231 295.534 155.241 275.231 157.892C289.93 148.755 306.432 144.77 321.764 146.691C301.736 121.758 272.687 99.5541 238.516 86.8595C224.217 100.974 213.528 120.573 207.315 142.554C206.808 119.7 210.55 98.028 217.959 80.5651L218.184 80.6196C208.272 78.2048 198.028 76.61 187.536 75.9766L178 158.557L168.464 75.9766C157.972 76.61 147.728 78.2049 137.816 80.6197L138.041 80.5651C145.45 98.0281 149.192 119.7 148.685 142.554C142.472 120.573 131.783 100.974 117.484 86.8595C83.313 99.5542 54.2638 121.758 34.2356 146.691C49.5682 144.77 66.0699 148.755 80.7694 157.893C60.4664 155.241 38.8034 160.231 20.5324 173.505C18.37 175.077 16.3033 176.729 14.3337 178.454C11.2268 185.236 8.84147 192.014 7.24654 198.667C29.7402 188.739 59.3341 191.905 87.6719 206.51C59.6419 204.236 32.1898 212.623 11.8826 232.234C10.444 233.623 9.0604 235.05 7.73175 236.513C22.4787 283.648 93.0543 306.899 178 307.021ZM314.3 40.114C291.386 29.4288 252.937 62.4815 240.196 82.3166C246.014 84.4764 251.685 86.904 257.191 89.5672C256.413 89.1912 255.633 88.8198 254.849 88.4533C256.327 86.2976 258.148 84.0523 260.157 81.8571C263.649 78.0415 267.951 74.1141 272.588 70.7519C277.197 67.4097 282.323 64.4903 287.46 62.8801C292.566 61.2798 298.222 60.8161 303.364 63.2138C308.505 65.6114 311.786 70.2419 313.842 75.1818C315.91 80.1521 316.969 85.9555 317.371 91.6347C317.776 97.348 317.533 103.168 316.855 108.296C316.188 113.34 315.055 118.057 313.493 121.405C312.585 123.353 311.422 125.09 310.059 126.617C313.912 130.369 317.568 134.237 321.01 138.196C323.778 135.656 326.037 132.64 327.653 129.175C336.328 110.572 339.197 51.7237 314.3 40.114ZM41.6998 40.114C64.6142 29.4289 103.063 62.4816 115.804 82.3166C109.986 84.4764 104.315 86.904 98.8092 89.5672C99.5866 89.1912 100.367 88.8198 101.151 88.4533C99.6733 86.2976 97.8524 84.0523 95.8433 81.8571C92.3513 78.0415 88.049 74.1142 83.412 70.7519C78.8028 67.4097 73.6767 64.4904 68.5396 62.8802C63.4338 61.2798 57.7782 60.8161 52.6364 63.2138C47.4946 65.6115 44.2144 70.2419 42.1585 75.1819C40.0899 80.1521 39.0313 85.9555 38.6287 91.6347C38.2238 97.348 38.4668 103.168 39.1451 108.296C39.8124 113.34 40.9454 118.057 42.5067 121.405C43.4151 123.353 44.5776 125.09 45.941 126.617C42.0883 130.369 38.4318 134.237 34.9897 138.196C32.2219 135.656 29.9626 132.64 28.3467 129.175C19.6722 110.572 16.8026 51.7237 41.6998 40.114Z" fill="#08090C"/>
<path d="M115.804 82.3166C103.063 62.4816 64.6142 29.4289 41.6998 40.114C16.8026 51.7237 19.6722 110.572 28.3467 129.175C29.9626 132.64 32.2219 135.656 34.9897 138.196C38.4318 134.237 42.0883 130.369 45.941 126.617C44.5776 125.09 43.4151 123.353 42.5067 121.405C40.9454 118.057 39.8124 113.34 39.1451 108.296C38.4668 103.168 38.2238 97.348 38.6287 91.6347C39.0313 85.9555 40.0899 80.1521 42.1585 75.1819C44.2144 70.2419 47.4946 65.6115 52.6364 63.2138C57.7782 60.8161 63.4338 61.2798 68.5396 62.8802C73.6767 64.4904 78.8028 67.4097 83.412 70.7519C88.049 74.1142 92.3513 78.0415 95.8433 81.8571C97.8524 84.0523 99.6733 86.2976 101.151 88.4533C100.367 88.8198 99.5866 89.1912 98.8092 89.5672C104.315 86.904 109.986 84.4764 115.804 82.3166Z" fill="#313749"/>
<path d="M240.196 82.3166C252.937 62.4815 291.386 29.4288 314.3 40.114C339.197 51.7237 336.328 110.572 327.653 129.175C326.037 132.64 323.778 135.656 321.01 138.196C317.568 134.237 313.912 130.369 310.059 126.617C311.422 125.09 312.585 123.353 313.493 121.405C315.055 118.057 316.188 113.34 316.855 108.296C317.533 103.168 317.776 97.348 317.371 91.6347C316.969 85.9555 315.91 80.1521 313.842 75.1818C311.786 70.2419 308.505 65.6114 303.364 63.2138C298.222 60.8161 292.566 61.2798 287.46 62.8801C282.323 64.4903 277.197 67.4097 272.588 70.7519C267.951 74.1141 263.649 78.0415 260.157 81.8571C258.148 84.0523 256.327 86.2976 254.849 88.4533C255.633 88.8198 256.413 89.1912 257.191 89.5672C251.685 86.904 246.014 84.4764 240.196 82.3166Z" fill="#313749"/>
<path d="M178 307.021C262.946 306.899 333.521 283.648 348.268 236.513C346.94 235.05 345.556 233.623 344.117 232.234C323.81 212.623 296.358 204.236 268.328 206.51C296.666 191.905 326.26 188.738 348.753 198.667C347.159 192.014 344.773 185.236 341.666 178.454C339.697 176.729 337.63 175.076 335.468 173.505C317.197 160.231 295.534 155.241 275.231 157.892C289.93 148.755 306.432 144.77 321.764 146.691C301.736 121.758 272.687 99.5541 238.516 86.8595C224.217 100.974 213.528 120.573 207.315 142.554C206.808 119.7 210.55 98.028 217.959 80.5651L218.184 80.6196C208.272 78.2048 198.028 76.61 187.536 75.9766L178 158.557L168.464 75.9766C157.972 76.61 147.728 78.2049 137.816 80.6197L138.041 80.5651C145.45 98.0281 149.192 119.7 148.685 142.554C142.472 120.573 131.783 100.974 117.484 86.8595C83.313 99.5542 54.2638 121.758 34.2356 146.691C49.5682 144.77 66.0699 148.755 80.7694 157.893C60.4664 155.241 38.8034 160.231 20.5324 173.505C18.37 175.077 16.3033 176.729 14.3337 178.454C11.2268 185.236 8.84147 192.014 7.24654 198.667C29.7402 188.739 59.3341 191.905 87.6719 206.51C59.6419 204.236 32.1898 212.623 11.8826 232.234C10.444 233.623 9.0604 235.05 7.73175 236.513C22.4787 283.648 93.0543 306.899 178 307.021Z" fill="#313749"/>
<path d="M178 519.3C222.332 519.183 261.439 505.069 284.836 476.641C268.453 467.943 249.648 464.46 230.571 466.008C253.938 453.964 278.176 449.844 298.421 454.611C302.028 446.486 304.662 437.587 306.191 427.913C291.69 421.134 275.964 418.856 260.992 420.811C275.757 411.633 292.374 407.751 307.719 409.956C307.732 409.155 307.739 408.349 307.739 407.538C307.739 404.412 307.637 401.237 307.438 398.025C306.634 397.186 305.811 396.36 304.969 395.547C285.035 376.296 258.087 368.063 230.571 370.296C254.871 357.772 280.111 353.816 300.825 359.512C299.01 352.881 296.864 346.246 294.411 339.678C277.021 327.965 256.797 323.624 237.788 326.107C252.271 317.104 268.535 313.197 283.633 315.132C280.926 309.807 278.022 304.596 274.934 299.542L275.114 299.487L275.067 299.411C247.059 307.72 213.664 311.806 178 311.856C142.336 311.806 108.941 307.72 80.9329 299.411L80.8863 299.487L81.0658 299.542C77.9782 304.596 75.0736 309.807 72.367 315.132C87.4647 313.197 103.729 317.104 118.212 326.107C99.2026 323.624 78.9792 327.965 61.5886 339.678C59.1356 346.246 56.9896 352.881 55.1754 359.512C75.8889 353.816 101.129 357.772 125.429 370.296C97.9133 368.063 70.9651 376.296 51.0308 395.547C50.1888 396.36 49.366 397.186 48.5624 398.025C48.3626 401.237 48.2611 404.412 48.2611 407.538C48.2611 408.349 48.2679 409.155 48.2815 409.956C63.6261 407.751 80.2433 411.633 95.0081 420.811C80.0359 418.856 64.3104 421.134 49.809 427.913C51.3384 437.587 53.972 446.486 57.5793 454.611C77.8244 449.844 102.062 453.965 125.429 466.008C106.352 464.46 87.5473 467.943 71.1641 476.641C94.561 505.069 133.668 519.183 178 519.3Z" fill="#313749"/>
<path d="M241.586 366.029C239.115 346.545 235.149 326.867 230.012 308.822C213.715 310.853 196.472 311.857 178.67 311.857C160.365 311.857 142.653 310.796 125.953 308.648C120.861 326.496 116.916 345.948 114.43 365.234C114.43 365.234 114.43 365.234 114.43 365.234C114.226 366.817 114.032 368.398 113.848 369.977C117.685 369.874 121.551 369.981 125.429 370.296C125.429 370.296 125.428 370.296 125.429 370.296C121.551 369.981 117.685 369.874 113.848 369.977C112.268 383.527 111.423 396.922 111.423 409.544C111.423 429.934 113.627 447.501 117.576 462.271C117.883 463.42 118.201 464.552 118.529 465.668C127.045 494.618 142.53 512.174 161.199 518.562C166.878 519.055 172.673 519.301 178.558 519.301C183.895 519.301 189.157 519.099 194.326 518.693C213.158 512.421 228.792 494.84 237.37 465.722C237.606 464.923 237.836 464.115 238.061 463.299C238.093 463.182 238.125 463.065 238.157 462.947C238.541 461.538 238.909 460.104 239.26 458.644C239.261 458.639 239.263 458.635 239.264 458.63C242.63 444.639 244.492 428.284 244.492 409.544C244.492 396.911 243.646 383.504 242.063 369.942C241.891 368.468 241.71 366.992 241.521 365.514C241.543 365.686 241.565 365.857 241.586 366.029C241.586 366.029 241.586 366.029 241.586 366.029Z" fill="#919AB6"/>
<path fill-rule="evenodd" clip-rule="evenodd" d="M166.923 536.476C159.446 540.986 149.562 543 139.198 543C128.834 543 118.95 540.986 111.473 536.476C103.788 531.84 98.6315 524.493 98.6315 514.62C98.6315 505.274 103.271 494.886 110.296 486.916C117.36 478.903 127.516 472.579 139.198 472.579C150.88 472.579 161.036 478.903 168.1 486.916C175.125 494.886 179.765 505.274 179.765 514.62C179.765 524.493 174.608 531.84 166.923 536.476ZM139.198 537.963C158.82 537.963 174.727 530.276 174.727 514.62C174.727 498.964 158.82 477.617 139.198 477.617C119.576 477.617 103.669 498.964 103.669 514.62C103.669 530.276 119.576 537.963 139.198 537.963Z" fill="#08090C"/>
<path d="M174.727 514.62C174.727 530.276 158.82 537.963 139.198 537.963C119.576 537.963 103.669 530.276 103.669 514.62C103.669 498.964 119.576 477.617 139.198 477.617C158.82 477.617 174.727 498.964 174.727 514.62Z" fill="#919AB6"/>
<path fill-rule="evenodd" clip-rule="evenodd" d="M244.419 536.476C236.942 540.986 227.058 543 216.694 543C206.33 543 196.446 540.986 188.969 536.476C181.285 531.84 176.128 524.493 176.128 514.62C176.128 505.274 180.767 494.886 187.793 486.916C194.856 478.903 205.012 472.579 216.694 472.579C228.376 472.579 238.533 478.903 245.596 486.916C252.621 494.886 257.261 505.274 257.261 514.62C257.261 524.493 252.104 531.84 244.419 536.476ZM216.694 537.963C236.316 537.963 252.223 530.276 252.223 514.62C252.223 498.964 236.316 477.617 216.694 477.617C197.072 477.617 181.165 498.964 181.165 514.62C181.165 530.276 197.072 537.963 216.694 537.963Z" fill="#08090C"/>
<path d="M252.223 514.62C252.223 530.276 236.316 537.963 216.694 537.963C197.072 537.963 181.165 530.276 181.165 514.62C181.165 498.964 197.072 477.617 216.694 477.617C236.316 477.617 252.223 498.964 252.223 514.62Z" fill="#919AB6"/>
<path d="M264.933 263.575C264.933 293.559 226.042 308.28 178.068 308.28C130.094 308.28 91.2036 293.559 91.2036 263.575C91.2036 233.592 130.094 192.708 178.068 192.708C226.042 192.708 264.933 233.592 264.933 263.575Z" fill="#919AB6"/>
<path d="M178.799 213.895C169.205 213.895 161.427 218.756 161.427 224.753C161.427 230.346 168.193 237.836 176.89 238.819L176.899 240.337C176.899 240.38 176.899 240.423 176.899 240.466C176.899 250.967 169.394 259.159 160.508 259.159C151.804 259.159 144.428 251.304 144.127 241.108L141.105 241.108C141.098 241.346 141.095 241.586 141.095 241.826V241.856C141.102 253.665 149.624 263.556 160.508 263.556C169.049 263.556 176.145 257.452 178.8 249.127C181.454 257.453 188.55 263.556 197.091 263.556C207.979 263.556 216.504 253.656 216.504 241.84C216.504 241.595 216.501 241.352 216.494 241.109L213.472 241.109C213.17 251.304 205.795 259.159 197.091 259.159C188.205 259.159 180.7 250.967 180.7 240.466C180.7 240.442 180.7 240.417 180.7 240.393C180.7 240.375 180.7 240.356 180.7 240.337L180.709 238.819C189.406 237.836 196.172 230.346 196.172 224.753C196.172 218.756 188.394 213.895 178.799 213.895Z" fill="#08090C"/>
<circle cx="125.55" cy="176.187" r="25.6566" fill="#08090C"/>
<ellipse cx="5.34138" cy="7.89968" rx="5.34138" ry="7.89968" transform="matrix(0.909809 -0.415028 0.430286 0.902692 130.181 166.18)" fill="#ECF1FE"/>
<circle cx="235.189" cy="176.548" r="25.6566" fill="#08090C"/>
<ellipse cx="5.34138" cy="7.89968" rx="5.34138" ry="7.89968" transform="matrix(0.909809 -0.415028 0.430286 0.902692 239.816 166.18)" fill="#ECF1FE"/>
<path d="M225.141 230.277C236.522 230.883 251.72 233.446 268.081 237.83C284.442 242.214 298.886 247.594 309.046 252.759C302.584 246.565 287.414 239.426 268.977 234.486C250.541 229.546 233.833 228.143 225.141 230.277Z" fill="#08090C"/>
<path d="M224.603 221.838C234.75 219.478 248.713 218.021 264.126 218.021C279.54 218.021 293.503 219.478 303.65 221.838C296.512 217.528 281.496 214.558 264.126 214.558C246.757 214.558 231.741 217.528 224.603 221.838Z" fill="#08090C"/>
<path d="M224.259 238.724C233.83 241.524 246.106 246.929 258.853 254.288C271.599 261.648 282.418 269.577 289.629 276.465C285.881 269.324 274.948 259.583 260.584 251.29C246.22 242.997 232.317 238.399 224.259 238.724Z" fill="#08090C"/>
<path d="M132.265 230.277C120.884 230.883 105.685 233.446 89.3243 237.83C72.9632 242.214 58.5192 247.593 48.3599 252.759C54.8211 246.565 69.9916 239.426 88.4282 234.486C106.865 229.546 123.572 228.143 132.265 230.277Z" fill="#08090C"/>
<path d="M132.802 221.838C122.656 219.478 108.693 218.02 93.279 218.02C77.8652 218.02 63.9021 219.478 53.7555 221.838C60.8936 217.528 75.9098 214.558 93.2789 214.558C110.648 214.558 125.664 217.528 132.802 221.838Z" fill="#08090C"/>
<path d="M133.147 238.724C123.576 241.524 111.3 246.929 98.553 254.288C85.8062 261.648 74.9878 269.577 67.7768 276.465C71.5247 269.324 82.458 259.583 96.822 251.29C111.186 242.997 125.089 238.399 133.147 238.724Z" fill="#08090C"/>
<path fill-rule="evenodd" clip-rule="evenodd" d="M30.2994 88.8207L34.6883 81.4717C63.8227 32.6876 117.156 0 178.129 0C239.102 0 292.435 32.6876 321.57 81.4717L325.958 88.8207H30.2994ZM317.399 83.9626C316.42 82.3243 315.414 80.7048 314.38 79.1045C285.514 34.4294 235.275 4.8581 178.129 4.8581C120.983 4.8581 70.7434 34.4294 41.878 79.1045C40.8441 80.7048 39.8376 82.3243 38.8592 83.9626H317.399Z" fill="#08090C"/>
<path d="M314.38 79.1045C315.414 80.7048 316.42 82.3243 317.399 83.9626H38.8592C39.8376 82.3243 40.8441 80.7048 41.878 79.1045C70.7434 34.4294 120.983 4.8581 178.129 4.8581C235.275 4.8581 285.514 34.4294 314.38 79.1045Z" fill="#4B63AA"/>
<path fill-rule="evenodd" clip-rule="evenodd" d="M8.00411 161.961C8.78224 134.993 15.8361 109.588 27.7585 87.1655C30.4738 82.0588 35.7969 79.1058 41.3724 79.1058H314.891C320.466 79.1058 325.789 82.0588 328.505 87.1655C339.506 107.856 346.363 131.087 347.967 155.744C348.554 164.766 341.182 171.817 332.566 171.817L17.6483 171.817C12.3196 171.817 7.84512 167.471 8.00411 161.961ZM32.048 89.4462C33.8716 86.0165 37.488 83.9639 41.3724 83.9639H314.891C318.775 83.9639 322.391 86.0165 324.215 89.4463C334.901 109.543 341.56 132.106 343.119 156.059C343.51 162.07 338.59 166.959 332.566 166.959L17.6483 166.959C14.9652 166.959 12.7828 164.783 12.8602 162.101C13.6162 135.899 20.4684 111.224 32.048 89.4462Z" fill="#08090C"/>
<path d="M41.3724 83.9639C37.488 83.9639 33.8716 86.0165 32.048 89.4462C20.4684 111.224 13.6162 135.899 12.8602 162.101C12.7828 164.783 14.9652 166.959 17.6483 166.959L332.566 166.959C338.59 166.959 343.51 162.07 343.119 156.059C341.56 132.106 334.901 109.543 324.215 89.4463C322.391 86.0165 318.775 83.9639 314.891 83.9639H41.3724Z" fill="#4B63AA"/>
<path fill-rule="evenodd" clip-rule="evenodd" d="M234.225 71.9731H302.299V110.868H234.225V71.9731ZM239.083 76.8312V106.01H297.441V76.8312H239.083Z" fill="#08090C"/>
<path d="M239.083 76.8312H297.441V106.01H239.083V76.8312Z" fill="#08090C"/>
<path fill-rule="evenodd" clip-rule="evenodd" d="M284.418 90.0127V81.9092L294.961 92.4594C295.52 93.0183 296.425 93.0183 296.984 92.4594L297.085 92.3582C297.644 91.7992 297.644 90.893 297.085 90.334L283.937 77.1772C283.448 76.6881 282.693 76.6269 282.138 76.9937C282.059 77.0461 281.984 77.1073 281.914 77.1772L281.813 77.2784L281.811 77.2805L268.766 90.334C268.549 90.5509 268.416 90.8201 268.368 91.1009C268.341 91.2108 268.326 91.3257 268.326 91.444V91.5871C268.326 92.3776 268.967 93.0184 269.757 93.0184H279.13L268.766 103.39C268.207 103.949 268.207 104.855 268.766 105.414L268.867 105.515C269.425 106.074 270.331 106.074 270.89 105.515L281.414 94.9838V104.504C281.414 105.295 282.054 105.936 282.844 105.936H282.987C283.777 105.936 284.418 105.295 284.418 104.504V93.0184H289.639C290.428 93.0184 291.069 92.3776 291.069 91.5871V91.444C291.069 90.6535 290.428 90.0127 289.639 90.0127H284.418ZM273.335 90.0127H281.414V81.9281L273.335 90.0127Z" fill="#4B63AA"/>
<path fill-rule="evenodd" clip-rule="evenodd" d="M265.33 78.1882C265.33 77.3983 265.971 76.7579 266.76 76.7579H266.903C267.693 76.7579 268.333 77.3983 268.333 78.1882V91.8832L268.355 91.9058L268.333 91.9284V104.505C268.333 105.295 267.693 105.936 266.903 105.936H266.76C265.971 105.936 265.33 105.295 265.33 104.505V94.932L254.761 105.506C254.202 106.064 253.297 106.064 252.739 105.506L239.596 92.3582C239.527 92.2884 239.466 92.2131 239.413 92.1338C239.256 91.8949 239.177 91.6191 239.178 91.3434C239.178 91.253 239.187 91.1627 239.204 91.0736C239.256 90.8032 239.387 90.5449 239.596 90.3355L252.739 77.1877C253.297 76.6292 254.202 76.6292 254.761 77.1877L254.862 77.2889C255.067 77.4939 255.197 77.7457 255.251 78.0099V89.845H265.33V78.1882ZM252.249 89.845H247.602C246.812 89.845 246.172 90.4854 246.172 91.2753V91.4183C246.172 92.2083 246.812 92.8486 247.602 92.8486H252.249V100.924L242.753 91.4251L252.249 81.9259V89.845ZM255.251 100.768V92.8486H263.167L255.251 100.768Z" fill="#4B63AA"/>
</svg>
