<svg width="127" height="96" viewBox="0 0 127 96" fill="none" xmlns="http://www.w3.org/2000/svg">
<path d="M107.298 8.03985C98.9755 4.22982 90.19 1.52685 81.1655 0C79.9306 2.2076 78.8132 4.47893 77.8181 6.80448C68.2053 5.35593 58.4297 5.35593 48.8168 6.80448C47.8212 4.47917 46.7038 2.20787 45.4694 0C36.4391 1.53975 27.6479 4.24913 19.3175 8.05978C2.77948 32.528 -1.70371 56.3885 0.537887 79.9103C10.2229 87.0661 21.0633 92.5082 32.5877 96C35.1827 92.5099 37.4789 88.8073 39.452 84.9315C35.7043 83.5318 32.0872 81.8049 28.6425 79.7709C29.5491 79.1133 30.4358 78.4359 31.2926 77.7783C41.3159 82.4921 52.256 84.9361 63.3324 84.9361C74.4089 84.9361 85.3489 82.4921 95.3723 77.7783C96.239 78.4857 97.1257 79.1631 98.0223 79.7709C94.5709 81.8082 90.9472 83.5384 87.1929 84.9415C89.1636 88.8155 91.46 92.5149 94.0572 96C105.591 92.5222 116.44 87.0827 126.127 79.9203C128.757 52.6426 121.634 29.0012 107.298 8.03985ZM42.2913 65.4446C36.0447 65.4446 30.8841 59.7758 30.8841 52.802C30.8841 45.8281 35.8654 40.1096 42.2714 40.1096C48.6774 40.1096 53.7982 45.8281 53.6886 52.802C53.579 59.7758 48.6574 65.4446 42.2913 65.4446ZM84.3735 65.4446C78.117 65.4446 72.9762 59.7758 72.9762 52.802C72.9762 45.8281 77.9576 40.1096 84.3735 40.1096C90.7894 40.1096 95.8704 45.8281 95.7608 52.802C95.6512 59.7758 90.7396 65.4446 84.3735 65.4446Z" fill="#ECF1FE"/>
</svg>
