<svg width="31" height="30" viewBox="0 0 31 30" fill="none" xmlns="http://www.w3.org/2000/svg">
<path d="M8.87793 0C4.00472 0 0 3.97372 0 8.82102V21.179C0 26.021 3.99936 30 8.87793 30H21.3156C26.1888 30 30.1935 26.0263 30.1935 21.179V8.82102C30.1935 3.97905 26.1942 0 21.3156 0H8.87793ZM8.87793 2.72727H21.3156C24.7092 2.72727 27.4487 5.44922 27.4487 8.82102V21.179C27.4487 24.5508 24.7092 27.2727 21.3156 27.2727H8.87793C5.48438 27.2727 2.74487 24.5508 2.74487 21.179V8.82102C2.74487 5.44922 5.48438 2.72727 8.87793 2.72727ZM23.2027 5.71023C22.5111 5.71023 21.9589 6.25888 21.9589 6.94602C21.9589 7.63317 22.5111 8.18182 23.2027 8.18182C23.8943 8.18182 24.4465 7.63317 24.4465 6.94602C24.4465 6.25888 23.8943 5.71023 23.2027 5.71023ZM15.0968 6.81818C10.5667 6.81818 6.86217 10.4989 6.86217 15C6.86217 19.5011 10.5667 23.1818 15.0968 23.1818C19.6269 23.1818 23.3314 19.5011 23.3314 15C23.3314 10.4989 19.6269 6.81818 15.0968 6.81818ZM15.0968 9.54545C18.1472 9.54545 20.5865 11.9691 20.5865 15C20.5865 18.0309 18.1472 20.4545 15.0968 20.4545C12.0463 20.4545 9.60704 18.0309 9.60704 15C9.60704 11.9691 12.0463 9.54545 15.0968 9.54545Z" fill="#ECF1FE"/>
</svg>
