<svg width="109" height="117" viewBox="0 0 109 117" fill="none" xmlns="http://www.w3.org/2000/svg">
<path d="M58.7606 117C56.9703 117 55.209 116.74 53.5053 116.22C50.8777 115.441 48.3367 113.362 48.5388 110.503C48.7121 108.02 50.9066 106.461 52.8989 105.854C54.5448 105.334 56.1618 105.132 57.7211 104.959C59.5402 104.728 61.2439 104.526 62.8898 103.862C64.3624 103.255 64.6223 102.88 64.5934 102.62C64.5645 102.476 64.5356 102.389 64.4201 102.303C63.6405 101.725 61.6481 101.638 58.443 102.1L58.3275 102.129C58.0098 102.187 57.5767 102.274 57.057 102.36C54.5448 102.88 50.7622 103.66 48.5099 102.129C47.6437 101.523 47.0662 100.657 46.864 99.5594C46.633 98.2023 47.2683 96.7585 48.5388 95.8923C49.5783 95.1704 50.7911 94.9971 51.6284 94.9105C54.054 94.6795 56.5083 94.6218 58.8761 94.564C59.7424 94.5351 60.6086 94.5351 61.4749 94.5063C62.0524 94.4774 62.6299 94.4774 63.0341 94.3041C63.3518 94.1598 63.4095 93.9865 63.4384 93.8421C63.4673 93.5823 63.3229 93.178 62.9475 92.9181C61.677 92.023 59.5114 92.1674 57.6345 92.2829C57.2013 92.3118 56.7682 92.3406 56.364 92.3695C54.5737 92.4272 52.6391 92.4273 50.7911 91.7631C48.4233 90.9257 45.5935 88.6446 45.4203 82.6386C45.3337 78.7404 44.2653 74.9 42.3595 71.5505C41.1179 69.356 39.5586 67.3925 37.9127 65.3135C36.1802 63.119 34.3611 60.8378 32.9751 58.2679C28.9326 50.7893 29.0192 41.1739 33.1772 33.7818C37.393 26.3609 45.5935 21.3366 54.1117 21.019C62.6299 20.6725 71.2058 25.0904 75.8836 32.1937C80.5902 39.3547 81.2255 48.9413 77.4717 56.6221C76.6343 58.3546 75.5659 60.0005 74.5553 61.5597C73.1116 63.812 71.7544 65.9199 70.9748 68.2588C70.2529 70.4533 70.0508 72.7633 69.8487 75.2465C69.7043 76.8058 69.5888 78.4228 69.3 80.0398C68.5782 84.1401 66.528 86.8832 63.7271 87.5762C61.4749 88.1249 58.8761 87.172 57.2591 85.2085C55.6421 83.3893 54.3427 80.9349 53.7075 78.5094C53.0433 76.055 52.5236 73.3697 52.9856 70.4533C53.3032 68.432 54.054 66.4396 55.0935 64.6782C55.3822 64.1874 55.7287 63.6965 56.0752 63.2056C56.7971 62.1661 57.4323 61.271 57.6345 60.2315C57.8077 59.423 57.4901 58.3546 56.826 58.1236C56.5083 58.0081 56.0463 58.0658 55.4977 58.2679C54.4005 58.6722 53.3609 59.5385 52.2926 60.4625C50.5312 61.9351 48.5677 63.581 45.8534 63.4077C43.8899 63.2633 41.9553 62.0217 40.8291 60.1448C39.9629 58.6722 39.5298 56.8531 39.5875 54.7741C39.6741 50.385 41.7243 45.996 45.1893 42.7331C48.25 39.8456 52.3503 37.8821 56.9992 37.0447C60.1177 36.4961 62.9186 36.5827 65.3441 37.2757C68.376 38.142 70.917 40.0766 72.2742 42.5599C74.4398 46.5158 73.7468 51.8288 70.3684 57.1707C68.9824 59.3652 67.3365 61.4153 65.7484 63.3788C64.5934 64.7937 63.4095 66.2664 62.37 67.7679C59.4536 71.897 58.0965 75.5642 58.212 79.0292C58.2409 80.2708 58.5296 82.0033 59.598 83.3027C60.4931 84.3711 61.8791 84.9197 63.0052 84.6598C65.3153 84.0823 66.0949 80.6173 66.297 79.5778C66.5569 78.1052 66.6724 76.6325 66.8168 75.0733C67.0478 72.5323 67.2499 69.9335 68.0873 67.3925C68.9824 64.6782 70.5417 62.2816 72.0143 60.0005C73.0249 58.4412 73.9778 56.9686 74.7574 55.3804C78.0492 48.6525 77.5006 40.2499 73.3714 33.9839C69.2712 27.7469 61.7636 23.8776 54.2561 24.1664C46.8063 24.4551 39.5875 28.8442 35.9204 35.37C32.2243 41.7802 32.1377 50.2407 35.6894 56.8242C36.9599 59.1631 38.5769 61.2132 40.3383 63.4077C41.9841 65.4867 43.6878 67.6524 45.0449 70.049C47.1817 73.8605 48.3944 78.1918 48.4811 82.5808C48.5677 86.017 49.6938 88.1249 51.8017 88.9045C53.1877 89.3954 54.747 89.4242 56.2196 89.3376C56.595 89.3087 56.9992 89.3087 57.4035 89.2799C59.6846 89.1355 62.5432 88.9334 64.7089 90.4637C65.9505 91.3589 66.6146 92.7738 66.4703 94.2175C66.3259 95.5169 65.4596 96.6141 64.1891 97.1628C63.2651 97.5381 62.3122 97.567 61.5615 97.5959C60.6952 97.6248 59.8001 97.6536 58.9339 97.6536C56.6238 97.7114 54.2272 97.7692 51.9172 98.0002C51.4263 98.0579 50.7333 98.1445 50.2713 98.4622C49.9826 98.6643 49.8671 98.953 49.8671 99.0685C49.9248 99.415 50.0692 99.5305 50.2136 99.646C51.3974 100.455 54.7758 99.7615 56.4217 99.415C56.9992 99.2995 57.4901 99.184 57.8655 99.1552L57.981 99.1263C61.0129 98.6932 64.3335 98.4622 66.2681 99.9348C67.0478 100.541 67.5098 101.35 67.6253 102.331C67.9718 105.161 64.9976 106.374 64.0159 106.749C61.9946 107.558 60.0022 107.818 58.0676 108.049C56.5661 108.222 55.1512 108.395 53.7941 108.828C52.7257 109.146 51.6573 109.897 51.5707 110.792C51.4841 111.889 52.9567 112.957 54.3716 113.362C57.8944 114.43 61.677 114.17 65.9216 112.553C66.7013 112.264 67.5964 112.669 67.8852 113.448C68.1739 114.228 67.7696 115.123 66.99 115.412C64.1025 116.451 61.3594 117 58.7606 117ZM56.364 54.9762C56.8548 54.9762 57.3457 55.0628 57.7788 55.2072C60.06 56.0157 60.984 58.7011 60.5509 60.809C60.2044 62.4837 59.3092 63.812 58.5007 64.967C58.212 65.4001 57.9232 65.8044 57.6345 66.2375C56.7682 67.6524 56.1907 69.2694 55.9308 70.9153C55.7865 71.8393 55.7576 72.7633 55.8153 73.6873C56.5661 71.204 57.8943 68.6341 59.8001 65.9199C60.9262 64.3317 62.139 62.8302 63.294 61.3576C64.8821 59.3652 66.4125 57.4883 67.7119 55.4382C69.0113 53.388 71.8122 48.1328 69.5022 43.9459C68.5493 42.1845 66.6724 40.7985 64.4201 40.1344C62.4277 39.5569 60.0889 39.4991 57.4612 39.99C53.3898 40.7119 49.8382 42.4155 47.2105 44.8988C44.3519 47.5841 42.6483 51.1935 42.5905 54.7741C42.5616 56.3044 42.8504 57.5749 43.399 58.5278C44.0054 59.5385 45.016 60.2315 45.9978 60.3181C47.4415 60.4336 48.7409 59.3363 50.2424 58.0658C51.4841 57.0263 52.7546 55.9579 54.3427 55.3516C55.0646 55.0917 55.7287 54.9762 56.364 54.9762Z" fill="#ECF1FE"/>
<path d="M69.7303 109.073C92.4177 102.345 109 80.9681 109 55.6372C109 24.9096 84.5995 0 54.5 0C24.4005 0 0 24.9096 0 55.6372C0 82.2822 18.3474 104.553 42.8484 110C42.4328 108.593 42.1667 106.929 42.1112 104.965C42.0873 103.868 42.0059 102.775 41.8688 101.691C22.1377 96.0634 7.66406 77.5758 7.66406 55.6372C7.66406 29.2307 28.6332 7.82398 54.5 7.82398C80.3668 7.82398 101.336 29.2307 101.336 55.6372C101.336 75.2008 89.8265 92.0201 73.3429 99.4234C73.2591 100.123 73.1604 100.826 73.0375 101.529C72.4848 104.734 71.3309 107.311 69.7303 109.073Z" fill="#ECF1FE"/>
</svg>
