<svg width="128" height="128" viewBox="0 0 128 128" fill="none" xmlns="http://www.w3.org/2000/svg">
<path fill-rule="evenodd" clip-rule="evenodd" d="M64 128C99.3462 128 128 99.3462 128 64C128 28.6538 99.3462 0 64 0C28.6538 0 0 28.6538 0 64C0 99.3462 28.6538 128 64 128ZM56.1177 118.439C29.4762 114.616 9 91.6993 9 64C9 33.6243 33.6243 9 64 9C94.3757 9 119 33.6243 119 64C119 89.9357 101.048 111.679 76.8923 117.481C74.04 115.752 70.4397 115.98 67.5101 116.166L67.3943 116.174C67.1234 116.193 66.8525 116.203 66.5863 116.212C66.3106 116.222 66.0393 116.232 65.7788 116.252C63.7693 116.371 61.6415 116.331 59.7502 115.661C56.8738 114.597 55.3371 111.721 55.2189 107.032C55.1007 101.043 53.4458 95.1326 50.53 89.9315C48.6781 86.661 46.3534 83.7059 44.1074 80.8689C41.7039 77.8743 39.4973 75.0767 37.7636 71.8851C32.9171 62.9013 33.0353 51.3564 38.0788 42.609C43.0829 33.704 52.9336 27.7148 63.0994 27.3208C73.3441 26.9268 83.5888 32.2067 89.1839 40.7177C94.8185 49.268 95.5671 60.7342 91.0752 69.915C90.0114 72.0821 88.7111 74.0916 87.332 76.2194L87.2495 76.3472C85.2644 79.4217 83.178 82.6532 81.9733 86.3064C80.8883 89.5986 80.5849 92.9618 80.2872 96.2611L80.2395 96.7875C80.2145 97.0577 80.1901 97.326 80.1659 97.5927C79.9993 99.4257 79.8399 101.18 79.5303 102.934C79.2545 104.353 78.1906 109.081 75.0384 109.869C73.5017 110.224 71.6104 109.475 70.3889 108.017C68.931 106.244 68.537 103.88 68.4976 102.186C68.34 97.4574 70.1919 92.4532 74.1715 86.8187C75.59 84.7697 77.2055 82.7602 78.7816 80.8295C80.9488 78.1501 83.1947 75.3525 85.0861 72.3579C89.6962 65.0685 90.6418 57.8184 87.6866 52.4202C85.8347 49.0316 82.3673 46.3916 78.23 45.2096C74.9202 44.2639 71.0982 44.1457 66.8427 44.8943C60.4989 46.037 54.9037 48.7164 50.727 52.6566C45.9987 57.1091 43.2011 63.0983 43.0829 69.0875C43.0041 71.9245 43.5952 74.4069 44.7773 76.4164C46.314 78.9776 48.9539 80.6719 51.6333 80.8689C55.3307 81.1049 58.0072 78.8671 60.4075 76.8603L60.4201 76.8498C61.878 75.5889 63.2964 74.4069 64.7937 73.8552C65.5424 73.5794 66.1728 73.5006 66.6063 73.6582C67.5125 73.9734 67.9459 75.4313 67.7095 76.5346C67.4406 77.9176 66.6098 79.1133 65.6555 80.487L65.5818 80.593C65.109 81.2629 64.6361 81.9327 64.2421 82.6026C62.8236 85.0061 61.7991 87.7249 61.3657 90.4831C60.7353 94.4628 61.4445 98.1272 62.3508 101.476C63.2176 104.786 64.9908 108.135 67.1973 110.618C69.4038 113.297 72.9501 114.597 76.0235 113.849C79.8455 112.903 82.6431 109.16 83.6282 103.565C83.9575 101.72 84.1217 99.8759 84.2818 98.0776C84.3132 97.7245 84.3445 97.3731 84.3768 97.0239C84.6526 93.6353 84.9284 90.4831 85.9135 87.4885C86.9688 84.3228 88.7993 81.4671 90.7516 78.4218L90.7994 78.3471L90.8224 78.3116C92.1947 76.1944 93.6427 73.9603 94.7791 71.6093C99.9014 61.1282 99.0346 48.0465 92.6119 38.2747C86.2287 28.5817 74.5262 22.5531 62.9024 23.0259C51.2787 23.4594 40.0883 30.3154 34.3356 40.4419C28.6616 50.5289 28.5434 63.65 34.0598 73.8552C35.9004 77.268 38.3007 80.3076 40.6071 83.2282L40.7976 83.4694L40.8618 83.5505C43.084 86.3575 45.1874 89.0143 46.8656 91.9804C49.4662 96.5511 50.924 101.792 51.0423 107.111C51.2249 113.442 53.5705 116.74 56.1177 118.439ZM65.9758 69.3633C66.6457 69.3633 67.3155 69.4815 67.9065 69.6785C71.0193 70.7818 72.2802 74.4463 71.6892 77.3226C71.2164 79.608 69.9949 81.4205 68.8916 82.9966C68.6946 83.2921 68.4976 83.5778 68.3006 83.8635L68.2997 83.8648C68.1029 84.15 67.9062 84.4353 67.7095 84.7303C66.5275 86.661 65.7394 88.8676 65.3848 91.1135C65.1878 92.3744 65.1484 93.6353 65.2272 94.8962C66.2516 91.5076 68.0642 88.0007 70.6647 84.2969C71.9183 82.529 73.2506 80.8398 74.5545 79.1864C74.8489 78.8132 75.1422 78.4413 75.4324 78.0713C75.6175 77.8391 75.802 77.608 75.9858 77.3779C77.954 74.9133 79.8393 72.5524 81.461 69.9938C83.2341 67.1962 87.0562 60.0249 83.904 54.3116C82.6037 51.908 80.0425 50.0167 76.9691 49.1104C74.2504 48.3224 71.0587 48.2436 67.4731 48.9134C61.9174 49.8985 57.0708 52.2232 53.4852 55.6118C49.5844 59.2763 47.2596 64.2016 47.1808 69.0875C47.1414 71.1758 47.5354 72.9096 48.2841 74.2098C49.1115 75.5889 50.4906 76.5346 51.8303 76.6528C53.8004 76.8104 55.5735 75.3131 57.6225 73.5794L57.6551 73.5521C59.3391 72.1422 61.0644 70.6977 63.2176 69.8756C64.2027 69.5209 65.109 69.3633 65.9758 69.3633Z" fill="#ECF1FE"/>
</svg>
