<svg width="98" height="98" viewBox="0 0 98 98" fill="none" xmlns="http://www.w3.org/2000/svg">
<mask id="path-1-outside-1_112_17" maskUnits="userSpaceOnUse" x="0" y="0" width="98" height="98" fill="black">
<rect fill="white" width="98" height="98"/>
<path fill-rule="evenodd" clip-rule="evenodd" d="M97 49C97 75.5097 75.5097 97 49 97C22.4903 97 1 75.5097 1 49C1 22.4903 22.4903 1 49 1C75.5097 1 97 22.4903 97 49ZM39.7579 93.05C19.3384 88.7875 4 70.685 4 49C4 30.7813 14.8267 15.0914 30.3972 8.01309C27.7254 10.2445 25.4385 12.9314 23.7185 15.9592C18.8521 24.6105 18.7507 35.8639 23.4819 44.6166C25.0604 47.5435 27.119 50.1503 29.097 52.6551L29.3147 52.9306C31.2211 55.3386 33.0254 57.6175 34.4649 60.1618C36.6954 64.082 37.9458 68.5766 38.0471 73.1388C38.2499 80.1679 41.5617 82.8377 44.3328 83.8177C46.4957 84.595 48.7599 84.5949 50.8551 84.5274C51.3224 84.494 51.8227 84.4606 52.3233 84.4272L52.342 84.426L52.4158 84.4214C54.5952 84.2872 57.0898 84.1335 58.5601 85.1695C58.9995 85.4736 59.1684 85.9467 59.1346 86.2509C59.1008 86.4198 59.0332 86.6226 58.6615 86.7916C58.2536 86.9664 57.6948 86.9905 57.1153 87.0155C57.0488 87.0183 56.982 87.0212 56.9151 87.0243L56.8366 87.0281C56.3296 87.045 55.8226 87.0535 55.3155 87.0619C54.8087 87.0704 54.3019 87.0788 53.7952 87.0957L53.6952 87.0981C50.9551 87.165 48.1174 87.2342 45.3128 87.5012C44.3328 87.6026 42.9135 87.8054 41.6969 88.6502C40.21 89.6641 39.4665 91.3538 39.7368 92.9421C39.7435 92.9783 39.7505 93.0142 39.7579 93.05ZM94 49C94 69.83 79.8472 87.3544 60.6331 92.4819C58.3972 91.7961 55.4727 92.0459 52.7475 92.4352L52.6124 92.469C52.2706 92.4953 51.8471 92.5829 51.3575 92.6842C51.2706 92.7022 51.1817 92.7206 51.0907 92.7391C51.0354 92.7504 50.9794 92.7618 50.9226 92.7731C48.9964 93.1786 45.0425 93.9896 43.6569 93.0434C43.488 92.9082 43.319 92.773 43.2514 92.3676C43.2514 92.2324 43.3866 91.8945 43.7245 91.6579C44.2653 91.2862 45.0763 91.1848 45.6508 91.1172C48.3216 90.8501 51.0914 90.7809 53.7646 90.7141L53.8627 90.7117C54.8766 90.7117 55.9242 90.6779 56.9381 90.6441L56.9958 90.6419C57.8652 90.6086 58.9554 90.5669 60.0133 90.1372C61.5002 89.4951 62.514 88.2109 62.683 86.6902C62.852 85.0005 62.0747 83.3446 60.6215 82.297C58.1183 80.528 54.824 80.7369 52.171 80.9051L52.0717 80.9114C51.8394 80.928 51.607 80.9364 51.3787 80.9447C51.1422 80.9533 50.9096 80.9618 50.6861 80.979C48.9626 81.0804 47.1377 81.0466 45.5156 80.4721C43.0486 79.5596 41.7307 77.0927 41.6293 73.0712C41.5279 67.9345 40.1085 62.8654 37.6078 58.4046C36.0195 55.5997 34.0256 53.0651 32.0994 50.6319C30.0379 48.0636 28.1454 45.6642 26.6585 42.9269C22.5018 35.2218 22.6033 25.3202 26.9289 17.8179C31.2208 10.1804 39.6692 5.04373 48.3881 4.70578C57.1746 4.36785 65.9611 8.89625 70.7598 16.1958C75.5923 23.5291 76.2344 33.3632 72.3819 41.2372C71.4694 43.0958 70.3542 44.8193 69.1714 46.6442L69.0998 46.7552C67.3977 49.3917 65.6085 52.1629 64.5755 55.2955C63.645 58.1188 63.3848 61.0032 63.1295 63.8327L63.0885 64.2847C63.0762 64.418 63.064 64.5508 63.052 64.6831L63.0255 64.9736L63.0253 64.9764C62.8825 66.5478 62.7457 68.0525 62.4802 69.5566C62.2437 70.7732 61.3312 74.8285 58.6277 75.5043C57.3097 75.8085 55.6876 75.1664 54.64 73.916C53.3896 72.3953 53.0517 70.3677 53.0179 68.9145C52.8828 64.8592 54.4711 60.5674 57.8842 55.7348C59.1008 53.9775 60.4864 52.254 61.8382 50.5981C63.6969 48.3001 65.6231 45.9008 67.2452 43.3324C71.1991 37.0805 72.0102 30.8624 69.4756 26.2326C67.8873 23.3263 64.9134 21.0621 61.365 20.0483C58.5264 19.2372 55.2483 19.1358 51.5985 19.7779C46.1577 20.758 41.359 23.056 37.7768 26.4354C33.7215 30.2541 31.3221 35.3908 31.2208 40.5275C31.1531 42.9607 31.6601 45.0897 32.6739 46.8132C33.9918 49.0098 36.256 50.463 38.554 50.6319C41.7252 50.8343 44.0207 48.9151 46.0794 47.1939L46.0901 47.1849C47.3405 46.1035 48.5571 45.0897 49.8412 44.6166C50.4833 44.38 51.0241 44.3124 51.3958 44.4476C52.1731 44.718 52.5448 45.9683 52.342 46.9146C52.1114 48.1008 51.3988 49.1264 50.5801 50.3046L50.5171 50.3954C50.1116 50.9699 49.7061 51.5444 49.3681 52.1189C48.1516 54.1803 47.2729 56.5121 46.9012 58.8777C46.3605 62.2909 46.9688 65.4337 47.746 68.3062C48.4895 71.1449 50.0102 74.0174 51.9027 76.1464C53.7952 78.4444 56.8366 79.5596 59.4725 78.9176C62.7506 78.1065 65.15 74.896 65.9948 70.0973C66.2773 68.5158 66.4181 66.9337 66.5554 65.3917L66.5562 65.3827C66.5829 65.0827 66.6094 64.7842 66.6369 64.4875C66.8735 61.5812 67.11 58.8777 67.9549 56.3093C68.8598 53.5945 70.4296 51.1456 72.1038 48.534L72.1453 48.4691L72.1655 48.4379C73.3424 46.6223 74.5841 44.7064 75.5585 42.6903C79.9518 33.7011 79.2083 22.4815 73.6998 14.1005C72.3876 12.1079 70.8133 10.2958 69.0406 8.6978C83.8358 16.0691 94 31.3475 94 49ZM52.511 41.0344C52.0041 40.8654 51.4296 40.7641 50.8551 40.7641C50.1116 40.7641 49.3343 40.8992 48.4895 41.2034C46.6429 41.9084 45.1629 43.1475 43.7187 44.3566L43.6907 44.38C41.9334 45.8669 40.4127 47.1511 38.723 47.016C37.574 46.9146 36.3912 46.1035 35.6816 44.9207C35.0395 43.8055 34.7015 42.3186 34.7353 40.5275C34.8029 36.337 36.7968 32.1128 40.1424 28.9699C43.2176 26.0636 47.3743 24.0698 52.1393 23.2249C55.2145 22.6504 57.9518 22.718 60.2836 23.3939C62.9196 24.1712 65.1161 25.7933 66.2314 27.8547C68.9349 32.7549 65.6569 38.9054 64.1362 41.3048C62.7453 43.4992 61.1284 45.5241 59.4403 47.6378C59.2826 47.8352 59.1244 48.0334 58.9657 48.2325C58.7184 48.5478 58.4689 48.8641 58.2182 49.182L58.2141 49.1872C57.0953 50.6058 55.9522 52.0551 54.8766 53.572C52.6462 56.7486 51.0917 59.7563 50.213 62.6626C50.1454 61.5812 50.1792 60.4998 50.3482 59.4184C50.6523 57.4921 51.3282 55.5997 52.342 53.9437C52.5109 53.6905 52.68 53.4453 52.8488 53.2005C53.0178 52.9554 53.1868 52.7103 53.3559 52.4568C54.3021 51.105 55.3497 49.5505 55.7552 47.5905C56.2622 45.1235 55.1807 41.9806 52.511 41.0344Z"/>
<path d="M49.1811 1.00033C49.5354 0.998578 49.8895 1.00377 50.2434 1.01579C49.8902 1.00681 49.5361 1.00164 49.1811 1.00033Z"/>
</mask>
<path fill-rule="evenodd" clip-rule="evenodd" d="M97 49C97 75.5097 75.5097 97 49 97C22.4903 97 1 75.5097 1 49C1 22.4903 22.4903 1 49 1C75.5097 1 97 22.4903 97 49ZM39.7579 93.05C19.3384 88.7875 4 70.685 4 49C4 30.7813 14.8267 15.0914 30.3972 8.01309C27.7254 10.2445 25.4385 12.9314 23.7185 15.9592C18.8521 24.6105 18.7507 35.8639 23.4819 44.6166C25.0604 47.5435 27.119 50.1503 29.097 52.6551L29.3147 52.9306C31.2211 55.3386 33.0254 57.6175 34.4649 60.1618C36.6954 64.082 37.9458 68.5766 38.0471 73.1388C38.2499 80.1679 41.5617 82.8377 44.3328 83.8177C46.4957 84.595 48.7599 84.5949 50.8551 84.5274C51.3224 84.494 51.8227 84.4606 52.3233 84.4272L52.342 84.426L52.4158 84.4214C54.5952 84.2872 57.0898 84.1335 58.5601 85.1695C58.9995 85.4736 59.1684 85.9467 59.1346 86.2509C59.1008 86.4198 59.0332 86.6226 58.6615 86.7916C58.2536 86.9664 57.6948 86.9905 57.1153 87.0155C57.0488 87.0183 56.982 87.0212 56.9151 87.0243L56.8366 87.0281C56.3296 87.045 55.8226 87.0535 55.3155 87.0619C54.8087 87.0704 54.3019 87.0788 53.7952 87.0957L53.6952 87.0981C50.9551 87.165 48.1174 87.2342 45.3128 87.5012C44.3328 87.6026 42.9135 87.8054 41.6969 88.6502C40.21 89.6641 39.4665 91.3538 39.7368 92.9421C39.7435 92.9783 39.7505 93.0142 39.7579 93.05ZM94 49C94 69.83 79.8472 87.3544 60.6331 92.4819C58.3972 91.7961 55.4727 92.0459 52.7475 92.4352L52.6124 92.469C52.2706 92.4953 51.8471 92.5829 51.3575 92.6842C51.2706 92.7022 51.1817 92.7206 51.0907 92.7391C51.0354 92.7504 50.9794 92.7618 50.9226 92.7731C48.9964 93.1786 45.0425 93.9896 43.6569 93.0434C43.488 92.9082 43.319 92.773 43.2514 92.3676C43.2514 92.2324 43.3866 91.8945 43.7245 91.6579C44.2653 91.2862 45.0763 91.1848 45.6508 91.1172C48.3216 90.8501 51.0914 90.7809 53.7646 90.7141L53.8627 90.7117C54.8766 90.7117 55.9242 90.6779 56.9381 90.6441L56.9958 90.6419C57.8652 90.6086 58.9554 90.5669 60.0133 90.1372C61.5002 89.4951 62.514 88.2109 62.683 86.6902C62.852 85.0005 62.0747 83.3446 60.6215 82.297C58.1183 80.528 54.824 80.7369 52.171 80.9051L52.0717 80.9114C51.8394 80.928 51.607 80.9364 51.3787 80.9447C51.1422 80.9533 50.9096 80.9618 50.6861 80.979C48.9626 81.0804 47.1377 81.0466 45.5156 80.4721C43.0486 79.5596 41.7307 77.0927 41.6293 73.0712C41.5279 67.9345 40.1085 62.8654 37.6078 58.4046C36.0195 55.5997 34.0256 53.0651 32.0994 50.6319C30.0379 48.0636 28.1454 45.6642 26.6585 42.9269C22.5018 35.2218 22.6033 25.3202 26.9289 17.8179C31.2208 10.1804 39.6692 5.04373 48.3881 4.70578C57.1746 4.36785 65.9611 8.89625 70.7598 16.1958C75.5923 23.5291 76.2344 33.3632 72.3819 41.2372C71.4694 43.0958 70.3542 44.8193 69.1714 46.6442L69.0998 46.7552C67.3977 49.3917 65.6085 52.1629 64.5755 55.2955C63.645 58.1188 63.3848 61.0032 63.1295 63.8327L63.0885 64.2847C63.0762 64.418 63.064 64.5508 63.052 64.6831L63.0255 64.9736L63.0253 64.9764C62.8825 66.5478 62.7457 68.0525 62.4802 69.5566C62.2437 70.7732 61.3312 74.8285 58.6277 75.5043C57.3097 75.8085 55.6876 75.1664 54.64 73.916C53.3896 72.3953 53.0517 70.3677 53.0179 68.9145C52.8828 64.8592 54.4711 60.5674 57.8842 55.7348C59.1008 53.9775 60.4864 52.254 61.8382 50.5981C63.6969 48.3001 65.6231 45.9008 67.2452 43.3324C71.1991 37.0805 72.0102 30.8624 69.4756 26.2326C67.8873 23.3263 64.9134 21.0621 61.365 20.0483C58.5264 19.2372 55.2483 19.1358 51.5985 19.7779C46.1577 20.758 41.359 23.056 37.7768 26.4354C33.7215 30.2541 31.3221 35.3908 31.2208 40.5275C31.1531 42.9607 31.6601 45.0897 32.6739 46.8132C33.9918 49.0098 36.256 50.463 38.554 50.6319C41.7252 50.8343 44.0207 48.9151 46.0794 47.1939L46.0901 47.1849C47.3405 46.1035 48.5571 45.0897 49.8412 44.6166C50.4833 44.38 51.0241 44.3124 51.3958 44.4476C52.1731 44.718 52.5448 45.9683 52.342 46.9146C52.1114 48.1008 51.3988 49.1264 50.5801 50.3046L50.5171 50.3954C50.1116 50.9699 49.7061 51.5444 49.3681 52.1189C48.1516 54.1803 47.2729 56.5121 46.9012 58.8777C46.3605 62.2909 46.9688 65.4337 47.746 68.3062C48.4895 71.1449 50.0102 74.0174 51.9027 76.1464C53.7952 78.4444 56.8366 79.5596 59.4725 78.9176C62.7506 78.1065 65.15 74.896 65.9948 70.0973C66.2773 68.5158 66.4181 66.9337 66.5554 65.3917L66.5562 65.3827C66.5829 65.0827 66.6094 64.7842 66.6369 64.4875C66.8735 61.5812 67.11 58.8777 67.9549 56.3093C68.8598 53.5945 70.4296 51.1456 72.1038 48.534L72.1453 48.4691L72.1655 48.4379C73.3424 46.6223 74.5841 44.7064 75.5585 42.6903C79.9518 33.7011 79.2083 22.4815 73.6998 14.1005C72.3876 12.1079 70.8133 10.2958 69.0406 8.6978C83.8358 16.0691 94 31.3475 94 49ZM52.511 41.0344C52.0041 40.8654 51.4296 40.7641 50.8551 40.7641C50.1116 40.7641 49.3343 40.8992 48.4895 41.2034C46.6429 41.9084 45.1629 43.1475 43.7187 44.3566L43.6907 44.38C41.9334 45.8669 40.4127 47.1511 38.723 47.016C37.574 46.9146 36.3912 46.1035 35.6816 44.9207C35.0395 43.8055 34.7015 42.3186 34.7353 40.5275C34.8029 36.337 36.7968 32.1128 40.1424 28.9699C43.2176 26.0636 47.3743 24.0698 52.1393 23.2249C55.2145 22.6504 57.9518 22.718 60.2836 23.3939C62.9196 24.1712 65.1161 25.7933 66.2314 27.8547C68.9349 32.7549 65.6569 38.9054 64.1362 41.3048C62.7453 43.4992 61.1284 45.5241 59.4403 47.6378C59.2826 47.8352 59.1244 48.0334 58.9657 48.2325C58.7184 48.5478 58.4689 48.8641 58.2182 49.182L58.2141 49.1872C57.0953 50.6058 55.9522 52.0551 54.8766 53.572C52.6462 56.7486 51.0917 59.7563 50.213 62.6626C50.1454 61.5812 50.1792 60.4998 50.3482 59.4184C50.6523 57.4921 51.3282 55.5997 52.342 53.9437C52.5109 53.6905 52.68 53.4453 52.8488 53.2005C53.0178 52.9554 53.1868 52.7103 53.3559 52.4568C54.3021 51.105 55.3497 49.5505 55.7552 47.5905C56.2622 45.1235 55.1807 41.9806 52.511 41.0344Z" fill="#ECF1FE"/>
<path d="M49.1811 1.00033C49.5354 0.998578 49.8895 1.00377 50.2434 1.01579C49.8902 1.00681 49.5361 1.00164 49.1811 1.00033Z" fill="#ECF1FE"/>
<path fill-rule="evenodd" clip-rule="evenodd" d="M97 49C97 75.5097 75.5097 97 49 97C22.4903 97 1 75.5097 1 49C1 22.4903 22.4903 1 49 1C75.5097 1 97 22.4903 97 49ZM39.7579 93.05C19.3384 88.7875 4 70.685 4 49C4 30.7813 14.8267 15.0914 30.3972 8.01309C27.7254 10.2445 25.4385 12.9314 23.7185 15.9592C18.8521 24.6105 18.7507 35.8639 23.4819 44.6166C25.0604 47.5435 27.119 50.1503 29.097 52.6551L29.3147 52.9306C31.2211 55.3386 33.0254 57.6175 34.4649 60.1618C36.6954 64.082 37.9458 68.5766 38.0471 73.1388C38.2499 80.1679 41.5617 82.8377 44.3328 83.8177C46.4957 84.595 48.7599 84.5949 50.8551 84.5274C51.3224 84.494 51.8227 84.4606 52.3233 84.4272L52.342 84.426L52.4158 84.4214C54.5952 84.2872 57.0898 84.1335 58.5601 85.1695C58.9995 85.4736 59.1684 85.9467 59.1346 86.2509C59.1008 86.4198 59.0332 86.6226 58.6615 86.7916C58.2536 86.9664 57.6948 86.9905 57.1153 87.0155C57.0488 87.0183 56.982 87.0212 56.9151 87.0243L56.8366 87.0281C56.3296 87.045 55.8226 87.0535 55.3155 87.0619C54.8087 87.0704 54.3019 87.0788 53.7952 87.0957L53.6952 87.0981C50.9551 87.165 48.1174 87.2342 45.3128 87.5012C44.3328 87.6026 42.9135 87.8054 41.6969 88.6502C40.21 89.6641 39.4665 91.3538 39.7368 92.9421C39.7435 92.9783 39.7505 93.0142 39.7579 93.05ZM94 49C94 69.83 79.8472 87.3544 60.6331 92.4819C58.3972 91.7961 55.4727 92.0459 52.7475 92.4352L52.6124 92.469C52.2706 92.4953 51.8471 92.5829 51.3575 92.6842C51.2706 92.7022 51.1817 92.7206 51.0907 92.7391C51.0354 92.7504 50.9794 92.7618 50.9226 92.7731C48.9964 93.1786 45.0425 93.9896 43.6569 93.0434C43.488 92.9082 43.319 92.773 43.2514 92.3676C43.2514 92.2324 43.3866 91.8945 43.7245 91.6579C44.2653 91.2862 45.0763 91.1848 45.6508 91.1172C48.3216 90.8501 51.0914 90.7809 53.7646 90.7141L53.8627 90.7117C54.8766 90.7117 55.9242 90.6779 56.9381 90.6441L56.9958 90.6419C57.8652 90.6086 58.9554 90.5669 60.0133 90.1372C61.5002 89.4951 62.514 88.2109 62.683 86.6902C62.852 85.0005 62.0747 83.3446 60.6215 82.297C58.1183 80.528 54.824 80.7369 52.171 80.9051L52.0717 80.9114C51.8394 80.928 51.607 80.9364 51.3787 80.9447C51.1422 80.9533 50.9096 80.9618 50.6861 80.979C48.9626 81.0804 47.1377 81.0466 45.5156 80.4721C43.0486 79.5596 41.7307 77.0927 41.6293 73.0712C41.5279 67.9345 40.1085 62.8654 37.6078 58.4046C36.0195 55.5997 34.0256 53.0651 32.0994 50.6319C30.0379 48.0636 28.1454 45.6642 26.6585 42.9269C22.5018 35.2218 22.6033 25.3202 26.9289 17.8179C31.2208 10.1804 39.6692 5.04373 48.3881 4.70578C57.1746 4.36785 65.9611 8.89625 70.7598 16.1958C75.5923 23.5291 76.2344 33.3632 72.3819 41.2372C71.4694 43.0958 70.3542 44.8193 69.1714 46.6442L69.0998 46.7552C67.3977 49.3917 65.6085 52.1629 64.5755 55.2955C63.645 58.1188 63.3848 61.0032 63.1295 63.8327L63.0885 64.2847C63.0762 64.418 63.064 64.5508 63.052 64.6831L63.0255 64.9736L63.0253 64.9764C62.8825 66.5478 62.7457 68.0525 62.4802 69.5566C62.2437 70.7732 61.3312 74.8285 58.6277 75.5043C57.3097 75.8085 55.6876 75.1664 54.64 73.916C53.3896 72.3953 53.0517 70.3677 53.0179 68.9145C52.8828 64.8592 54.4711 60.5674 57.8842 55.7348C59.1008 53.9775 60.4864 52.254 61.8382 50.5981C63.6969 48.3001 65.6231 45.9008 67.2452 43.3324C71.1991 37.0805 72.0102 30.8624 69.4756 26.2326C67.8873 23.3263 64.9134 21.0621 61.365 20.0483C58.5264 19.2372 55.2483 19.1358 51.5985 19.7779C46.1577 20.758 41.359 23.056 37.7768 26.4354C33.7215 30.2541 31.3221 35.3908 31.2208 40.5275C31.1531 42.9607 31.6601 45.0897 32.6739 46.8132C33.9918 49.0098 36.256 50.463 38.554 50.6319C41.7252 50.8343 44.0207 48.9151 46.0794 47.1939L46.0901 47.1849C47.3405 46.1035 48.5571 45.0897 49.8412 44.6166C50.4833 44.38 51.0241 44.3124 51.3958 44.4476C52.1731 44.718 52.5448 45.9683 52.342 46.9146C52.1114 48.1008 51.3988 49.1264 50.5801 50.3046L50.5171 50.3954C50.1116 50.9699 49.7061 51.5444 49.3681 52.1189C48.1516 54.1803 47.2729 56.5121 46.9012 58.8777C46.3605 62.2909 46.9688 65.4337 47.746 68.3062C48.4895 71.1449 50.0102 74.0174 51.9027 76.1464C53.7952 78.4444 56.8366 79.5596 59.4725 78.9176C62.7506 78.1065 65.15 74.896 65.9948 70.0973C66.2773 68.5158 66.4181 66.9337 66.5554 65.3917L66.5562 65.3827C66.5829 65.0827 66.6094 64.7842 66.6369 64.4875C66.8735 61.5812 67.11 58.8777 67.9549 56.3093C68.8598 53.5945 70.4296 51.1456 72.1038 48.534L72.1453 48.4691L72.1655 48.4379C73.3424 46.6223 74.5841 44.7064 75.5585 42.6903C79.9518 33.7011 79.2083 22.4815 73.6998 14.1005C72.3876 12.1079 70.8133 10.2958 69.0406 8.6978C83.8358 16.0691 94 31.3475 94 49ZM52.511 41.0344C52.0041 40.8654 51.4296 40.7641 50.8551 40.7641C50.1116 40.7641 49.3343 40.8992 48.4895 41.2034C46.6429 41.9084 45.1629 43.1475 43.7187 44.3566L43.6907 44.38C41.9334 45.8669 40.4127 47.1511 38.723 47.016C37.574 46.9146 36.3912 46.1035 35.6816 44.9207C35.0395 43.8055 34.7015 42.3186 34.7353 40.5275C34.8029 36.337 36.7968 32.1128 40.1424 28.9699C43.2176 26.0636 47.3743 24.0698 52.1393 23.2249C55.2145 22.6504 57.9518 22.718 60.2836 23.3939C62.9196 24.1712 65.1161 25.7933 66.2314 27.8547C68.9349 32.7549 65.6569 38.9054 64.1362 41.3048C62.7453 43.4992 61.1284 45.5241 59.4403 47.6378C59.2826 47.8352 59.1244 48.0334 58.9657 48.2325C58.7184 48.5478 58.4689 48.8641 58.2182 49.182L58.2141 49.1872C57.0953 50.6058 55.9522 52.0551 54.8766 53.572C52.6462 56.7486 51.0917 59.7563 50.213 62.6626C50.1454 61.5812 50.1792 60.4998 50.3482 59.4184C50.6523 57.4921 51.3282 55.5997 52.342 53.9437C52.5109 53.6905 52.68 53.4453 52.8488 53.2005C53.0178 52.9554 53.1868 52.7103 53.3559 52.4568C54.3021 51.105 55.3497 49.5505 55.7552 47.5905C56.2622 45.1235 55.1807 41.9806 52.511 41.0344Z" stroke="#ECF1FE" stroke-width="2" mask="url(#path-1-outside-1_112_17)"/>
<path d="M49.1811 1.00033C49.5354 0.998578 49.8895 1.00377 50.2434 1.01579C49.8902 1.00681 49.5361 1.00164 49.1811 1.00033Z" stroke="#ECF1FE" stroke-width="2" mask="url(#path-1-outside-1_112_17)"/>
</svg>
