<svg width="116" height="116" viewBox="0 0 116 116" fill="none" xmlns="http://www.w3.org/2000/svg">
<path fill-rule="evenodd" clip-rule="evenodd" d="M58 115C89.4802 115 115 89.4802 115 58C115 26.5198 89.4802 1 58 1C26.5198 1 1 26.5198 1 58C1 89.4802 26.5198 115 58 115ZM60.3322 105.944C59.5595 105.981 58.7819 106 58 106C31.4903 106 10 84.5097 10 58C10 31.4903 31.4903 10 58 10C58.0095 10 58.019 10 58.0286 10C57.723 10.0003 57.4173 10.0066 57.1117 10.019C48.5935 10.3366 40.393 15.3609 36.1772 22.7818C32.0192 30.1739 31.9326 39.7893 35.9751 47.2679C37.3239 49.7689 39.083 51.9964 40.7732 54.1367C40.8198 54.1957 40.8663 54.2546 40.9127 54.3135L40.9598 54.3729C42.5883 56.4299 44.1297 58.3769 45.3595 60.5505C47.2653 63.9 48.3337 67.7404 48.4203 71.6386C48.5935 77.6446 51.4233 79.9257 53.7911 80.7631C55.6391 81.4273 57.5737 81.4272 59.364 81.3695C59.7682 81.3406 60.2013 81.3117 60.6345 81.2829L60.6973 81.279C62.5595 81.1643 64.6911 81.033 65.9475 81.9181C66.3229 82.178 66.4673 82.5823 66.4384 82.8421C66.4095 82.9865 66.3518 83.1598 66.0341 83.3041C65.6856 83.4535 65.2082 83.4741 64.7131 83.4954C64.634 83.4989 64.5544 83.5023 64.4749 83.5063C64.0417 83.5207 63.6085 83.5279 63.1753 83.5351C62.7422 83.5424 62.3092 83.5496 61.8761 83.564L61.7906 83.5661C59.4493 83.6232 57.0248 83.6823 54.6284 83.9105C53.7911 83.9971 52.5783 84.1704 51.5388 84.8923C50.2683 85.7585 49.633 87.2023 49.864 88.5594C50.0662 89.6567 50.6437 90.5229 51.5099 91.1293C53.7622 92.6597 57.5448 91.8801 60.057 91.3603C60.4194 91.2999 60.7398 91.2395 61.0082 91.1889C61.1247 91.1669 61.2314 91.1468 61.3275 91.1293L61.443 91.1004C64.6481 90.6384 66.6405 90.725 67.4201 91.3026C67.5356 91.3892 67.5645 91.4758 67.5934 91.6202C67.6223 91.8801 67.3624 92.2554 65.8898 92.8618C64.2923 93.5064 62.6405 93.7158 60.8815 93.9387L60.7211 93.9591C59.1618 94.1323 57.5448 94.3344 55.8989 94.8542C53.9066 95.4606 51.7121 97.0198 51.5388 99.5031C51.3367 102.362 53.8777 104.441 56.5053 105.22C57.7537 105.601 59.0332 105.843 60.3322 105.944ZM69.1875 104.689C69.4537 104.601 69.7213 104.509 69.99 104.412C70.7697 104.123 71.1739 103.228 70.8852 102.448C70.5964 101.669 69.7013 101.264 68.9216 101.553C64.677 103.17 60.8944 103.43 57.3716 102.362C55.9567 101.957 54.4841 100.889 54.5707 99.7918C54.6573 98.8967 55.7257 98.146 56.7941 97.8283C58.1512 97.3952 59.5661 97.222 61.0676 97.0487C63.0022 96.8177 64.9946 96.5578 67.0159 95.7493C67.9976 95.3739 70.9718 94.1612 70.6253 91.3314C70.5098 90.3497 70.0478 89.5412 69.2681 88.9348C67.3335 87.4622 64.0129 87.6932 60.981 88.1263L60.8655 88.1552C60.5735 88.1776 60.2116 88.2525 59.7935 88.339C59.6741 88.3637 59.55 88.3894 59.4217 88.415C57.7758 88.7615 54.3974 89.4545 53.2136 88.646C53.0692 88.5305 52.9248 88.415 52.8671 88.0685C52.8671 87.953 52.9826 87.6643 53.2713 87.4622C53.7333 87.1445 54.4263 87.0579 54.9172 87.0002C57.1991 86.772 59.5656 86.7128 61.8496 86.6558L61.9339 86.6536C62.8001 86.6536 63.6952 86.6248 64.5615 86.5959L64.6108 86.594C65.3537 86.5656 66.2852 86.53 67.1891 86.1628C68.4596 85.6141 69.3259 84.5169 69.4703 83.2175C69.6146 81.7738 68.9505 80.3589 67.7089 79.4637C65.57 77.9523 62.7552 78.1308 60.4883 78.2745L60.4035 78.2799C60.205 78.294 60.0065 78.3013 59.8114 78.3083C59.6092 78.3157 59.4107 78.3229 59.2196 78.3376C57.747 78.4242 56.1877 78.3954 54.8017 77.9045C52.6938 77.1249 51.5677 75.017 51.4811 71.5808C51.3944 67.1918 50.1817 62.8605 48.0449 59.049C46.6878 56.6524 44.9841 54.4867 43.3383 52.4077C41.5769 50.2132 39.9599 48.1631 38.6894 45.8242C35.1377 39.2407 35.2243 30.7802 38.9204 24.37C42.5875 17.8442 49.8063 13.4551 57.2561 13.1664C64.7636 12.8776 72.2712 16.7469 76.3714 22.9839C80.5006 29.2499 81.0492 37.6525 77.7574 44.3804C76.9778 45.9686 76.0249 47.4412 75.0143 49.0005L74.9538 49.0941C73.4991 51.3472 71.9702 53.7153 71.0873 56.3925C70.2922 58.8051 70.0698 61.2698 69.8517 63.6876C69.84 63.8163 69.8284 63.9449 69.8168 64.0733C69.7984 64.2713 69.7806 64.468 69.7628 64.6634C69.6407 66.0066 69.5239 67.2922 69.297 68.5778C69.0949 69.6173 68.3153 73.0823 66.0052 73.6598C64.8791 73.9197 63.4931 73.3711 62.598 72.3027C61.5296 71.0033 61.2409 69.2708 61.212 68.0292C61.0965 64.5642 62.4536 60.897 65.37 56.7679C66.4095 55.2664 67.5934 53.7937 68.7484 52.3788C70.3365 50.4153 71.9824 48.3652 73.3684 46.1707C76.7468 40.8288 77.4398 35.5158 75.2742 31.5599C73.917 29.0766 71.376 27.142 68.3441 26.2757C65.9186 25.5827 63.1177 25.4961 59.9992 26.0447C55.3503 26.8821 51.25 28.8456 48.1893 31.7331C44.7243 34.996 42.6741 39.385 42.5875 43.7741C42.5298 45.8531 42.9629 47.6722 43.8291 49.1448C44.9553 51.0217 46.8899 52.2633 48.8534 52.4077C51.563 52.5807 53.5244 50.9408 55.2834 49.4701L55.2926 49.4625C56.361 48.5385 57.4005 47.6722 58.4977 47.2679C59.0463 47.0658 59.5083 47.0081 59.826 47.1236C60.4901 47.3546 60.8077 48.423 60.6345 49.2315C60.4374 50.245 59.8286 51.1212 59.1292 52.1279L59.0752 52.2056C58.7287 52.6965 58.3822 53.1874 58.0935 53.6782C57.054 55.4396 56.3032 57.432 55.9856 59.4533C55.5236 62.3697 56.0433 65.055 56.7075 67.5094C57.3427 69.9349 58.6421 72.3893 60.2591 74.2085C61.8761 76.172 64.4749 77.1249 66.7271 76.5762C69.528 75.8832 71.5782 73.1401 72.3 69.0398C72.5414 67.6882 72.6617 66.3366 72.779 65.0187C72.802 64.7599 72.825 64.5024 72.8487 64.2465C73.0508 61.7633 73.2529 59.4533 73.9748 57.2587C74.7481 54.9388 76.0896 52.8462 77.5202 50.6145L77.5553 50.5597L77.5722 50.5336C78.5779 48.9821 79.639 47.3449 80.4717 45.6221C84.2255 37.9413 83.5902 28.3547 78.8836 21.1937C74.3972 14.3811 66.3253 10.0386 58.1576 10.0003C84.5948 10.0852 106 31.5429 106 58C106 80.6577 90.3012 99.6487 69.1875 104.689ZM60.7788 44.2072C60.3457 44.0628 59.8548 43.9762 59.364 43.9762C58.7287 43.9762 58.0646 44.0917 57.3427 44.3516C55.7648 44.954 54.5004 46.0126 53.2663 47.0458L53.2424 47.0658C51.7409 48.3363 50.4415 49.4336 48.9978 49.3181C48.016 49.2315 47.0054 48.5385 46.399 47.5278C45.8504 46.5749 45.5616 45.3044 45.5905 43.7741C45.6483 40.1935 47.3519 36.5841 50.2105 33.8988C52.8382 31.4155 56.3898 29.7119 60.4612 28.99C63.0889 28.4991 65.4277 28.5568 67.4201 29.1344C69.6724 29.7985 71.5493 31.1845 72.5022 32.9459C74.8122 37.1328 72.0113 42.388 70.7119 44.4382C69.5235 46.3132 68.1418 48.0434 66.6995 49.8495C66.5648 50.0181 66.4296 50.1874 66.294 50.3576C66.0813 50.6288 65.8666 50.901 65.6509 51.1745C64.6953 52.3862 63.7189 53.6242 62.8001 54.9199C60.8943 57.6341 59.5661 60.204 58.8153 62.6873C58.7576 61.7633 58.7865 60.8393 58.9308 59.9153C59.1907 58.2694 59.7682 56.6524 60.6345 55.2375C60.7789 55.0209 60.9232 54.8116 61.0676 54.6022C61.212 54.3929 61.3564 54.1835 61.5007 53.967C62.3092 52.812 63.2044 51.4837 63.5509 49.809C63.984 47.7011 63.06 45.0157 60.7788 44.2072Z" fill="#ECF1FE" stroke="#ECF1FE"/>
</svg>
