<svg width="96" height="96" viewBox="0 0 96 96" fill="none" xmlns="http://www.w3.org/2000/svg">
<path fill-rule="evenodd" clip-rule="evenodd" d="M96 48C96 74.5097 74.5097 96 48 96C21.4903 96 0 74.5097 0 48C0 21.4903 21.4903 0 48 0C74.5097 0 96 21.4903 96 48ZM38.7579 92.05C18.3384 87.7875 3 69.685 3 48C3 29.7813 13.8267 14.0914 29.3972 7.01309C26.7254 9.24453 24.4385 11.9314 22.7185 14.9592C17.8521 23.6105 17.7507 34.8639 22.4819 43.6166C24.0604 46.5435 26.119 49.1503 28.097 51.6551L28.3147 51.9306C30.2211 54.3386 32.0254 56.6175 33.4649 59.1618C35.6954 63.082 36.9458 67.5766 37.0471 72.1388C37.2499 79.1679 40.5617 81.8377 43.3328 82.8177C45.4957 83.595 47.7599 83.5949 49.8551 83.5274C50.3224 83.494 50.8227 83.4606 51.3233 83.4272L51.342 83.426L51.4158 83.4214C53.5952 83.2872 56.0898 83.1335 57.5601 84.1695C57.9995 84.4736 58.1684 84.9467 58.1346 85.2509C58.1008 85.4198 58.0332 85.6226 57.6615 85.7916C57.2536 85.9664 56.6948 85.9905 56.1153 86.0155C56.0488 86.0183 55.982 86.0212 55.9151 86.0243L55.8366 86.0281C55.3296 86.045 54.8226 86.0535 54.3155 86.0619C53.8087 86.0704 53.3019 86.0788 52.7952 86.0957L52.6952 86.0981C49.9551 86.165 47.1174 86.2342 44.3128 86.5012C43.3328 86.6026 41.9135 86.8054 40.6969 87.6502C39.21 88.6641 38.4665 90.3538 38.7368 91.9421C38.7435 91.9783 38.7505 92.0142 38.7579 92.05ZM93 48C93 68.83 78.8472 86.3544 59.6331 91.4819C57.3972 90.7961 54.4727 91.0459 51.7475 91.4352L51.6124 91.469C51.2706 91.4953 50.8471 91.5829 50.3575 91.6842C50.2706 91.7022 50.1817 91.7206 50.0907 91.7391C50.0354 91.7504 49.9794 91.7618 49.9226 91.7731C47.9964 92.1786 44.0425 92.9896 42.6569 92.0434C42.488 91.9082 42.319 91.773 42.2514 91.3676C42.2514 91.2324 42.3866 90.8945 42.7245 90.6579C43.2653 90.2862 44.0763 90.1848 44.6508 90.1172C47.3216 89.8501 50.0914 89.7809 52.7646 89.7141L52.8627 89.7117C53.8766 89.7117 54.9242 89.6779 55.9381 89.6441L55.9958 89.6419C56.8652 89.6086 57.9554 89.5669 59.0133 89.1372C60.5002 88.4951 61.514 87.2109 61.683 85.6902C61.852 84.0005 61.0747 82.3446 59.6215 81.297C57.1183 79.528 53.824 79.7369 51.171 79.9051L51.0717 79.9114C50.8394 79.928 50.607 79.9364 50.3787 79.9447C50.1422 79.9533 49.9096 79.9618 49.6861 79.979C47.9626 80.0804 46.1377 80.0466 44.5156 79.4721C42.0486 78.5596 40.7307 76.0927 40.6293 72.0712C40.5279 66.9345 39.1085 61.8654 36.6078 57.4046C35.0195 54.5997 33.0256 52.0651 31.0994 49.6319C29.0379 47.0636 27.1454 44.6642 25.6585 41.9269C21.5018 34.2218 21.6033 24.3202 25.9289 16.8179C30.2208 9.18043 38.6692 4.04373 47.3881 3.70578C56.1746 3.36785 64.9611 7.89625 69.7598 15.1958C74.5923 22.5291 75.2344 32.3632 71.3819 40.2372C70.4694 42.0958 69.3542 43.8193 68.1714 45.6442L68.0998 45.7552C66.3977 48.3917 64.6085 51.1629 63.5755 54.2955C62.645 57.1188 62.3848 60.0032 62.1295 62.8327L62.0885 63.2847C62.0762 63.418 62.064 63.5508 62.052 63.6831L62.0255 63.9736L62.0253 63.9764C61.8825 65.5478 61.7457 67.0525 61.4802 68.5566C61.2437 69.7732 60.3312 73.8285 57.6277 74.5043C56.3097 74.8085 54.6876 74.1664 53.64 72.916C52.3896 71.3953 52.0517 69.3677 52.0179 67.9145C51.8828 63.8592 53.4711 59.5674 56.8842 54.7348C58.1008 52.9775 59.4864 51.254 60.8382 49.5981C62.6969 47.3001 64.6231 44.9008 66.2452 42.3324C70.1991 36.0805 71.0102 29.8624 68.4756 25.2326C66.8873 22.3263 63.9134 20.0621 60.365 19.0483C57.5264 18.2372 54.2483 18.1358 50.5985 18.7779C45.1577 19.758 40.359 22.056 36.7768 25.4354C32.7215 29.2541 30.3221 34.3908 30.2208 39.5275C30.1531 41.9607 30.6601 44.0897 31.6739 45.8132C32.9918 48.0098 35.256 49.463 37.554 49.6319C40.7252 49.8343 43.0207 47.9151 45.0794 46.1939L45.0901 46.1849C46.3405 45.1035 47.5571 44.0897 48.8412 43.6166C49.4833 43.38 50.0241 43.3124 50.3958 43.4476C51.1731 43.718 51.5448 44.9683 51.342 45.9146C51.1114 47.1008 50.3988 48.1264 49.5801 49.3046L49.5171 49.3954C49.1116 49.9699 48.7061 50.5444 48.3681 51.1189C47.1516 53.1803 46.2729 55.5121 45.9012 57.8777C45.3605 61.2909 45.9688 64.4337 46.746 67.3062C47.4895 70.1449 49.0102 73.0174 50.9027 75.1464C52.7952 77.4444 55.8366 78.5596 58.4725 77.9176C61.7506 77.1065 64.15 73.896 64.9948 69.0973C65.2773 67.5158 65.4181 65.9337 65.5554 64.3917L65.5562 64.3827C65.5829 64.0827 65.6094 63.7842 65.6369 63.4875C65.8735 60.5812 66.11 57.8777 66.9549 55.3093C67.8598 52.5945 69.4296 50.1456 71.1038 47.534L71.1453 47.4691L71.1655 47.4379C72.3424 45.6223 73.5841 43.7064 74.5585 41.6903C78.9518 32.7011 78.2083 21.4815 72.6998 13.1005C71.3876 11.1079 69.8133 9.29581 68.0406 7.6978C82.8358 15.0691 93 30.3475 93 48ZM51.511 40.0344C51.0041 39.8654 50.4296 39.7641 49.8551 39.7641C49.1116 39.7641 48.3343 39.8992 47.4895 40.2034C45.6429 40.9084 44.1629 42.1475 42.7187 43.3566L42.6907 43.38C40.9334 44.8669 39.4127 46.1511 37.723 46.016C36.574 45.9146 35.3912 45.1035 34.6816 43.9207C34.0395 42.8055 33.7015 41.3186 33.7353 39.5275C33.8029 35.337 35.7968 31.1128 39.1424 27.9699C42.2176 25.0636 46.3743 23.0698 51.1393 22.2249C54.2145 21.6504 56.9518 21.718 59.2836 22.3939C61.9196 23.1712 64.1161 24.7933 65.2314 26.8547C67.9349 31.7549 64.6569 37.9054 63.1362 40.3048C61.7453 42.4992 60.1284 44.5241 58.4403 46.6378C58.2826 46.8352 58.1244 47.0334 57.9657 47.2325C57.7184 47.5478 57.4689 47.8641 57.2182 48.182L57.2141 48.1872C56.0953 49.6058 54.9522 51.0551 53.8766 52.572C51.6462 55.7486 50.0917 58.7563 49.213 61.6626C49.1454 60.5812 49.1792 59.4998 49.3482 58.4184C49.6523 56.4921 50.3282 54.5997 51.342 52.9437C51.5109 52.6905 51.68 52.4453 51.8488 52.2005C52.0178 51.9554 52.1868 51.7103 52.3559 51.4568C53.3021 50.105 54.3497 48.5505 54.7552 46.5905C55.2622 44.1235 54.1807 40.9806 51.511 40.0344Z" fill="#ECF1FE"/>
<path d="M48.1811 0.000332811C48.5354 -0.00142189 48.8895 0.00376661 49.2434 0.0157891C48.8902 0.00680932 48.5361 0.001644 48.1811 0.000332811Z" fill="#ECF1FE"/>
</svg>
