<svg width="96" height="96" viewBox="0 0 96 96" fill="none" xmlns="http://www.w3.org/2000/svg">
<path fill-rule="evenodd" clip-rule="evenodd" d="M86.625 0H9.375C4.19733 0 0 4.19733 0 9.375V86.625C0 91.8027 4.19733 96 9.375 96H86.625C91.8027 96 96 91.8027 96 86.625V9.375C96 4.19733 91.8027 0 86.625 0ZM79.02 12.48H58.74C56.2547 12.48 54.24 14.4947 54.24 16.98V49.98C54.24 52.4653 56.2547 54.48 58.74 54.48H79.02C81.5053 54.48 83.52 52.4653 83.52 49.98V16.98C83.52 14.4947 81.5053 12.48 79.02 12.48ZM16.98 12.48H37.26C39.7453 12.48 41.76 14.4947 41.76 16.98V73.98C41.76 76.4653 39.7453 78.48 37.26 78.48H16.98C14.4947 78.48 12.48 76.4653 12.48 73.98V16.98C12.48 14.4947 14.4947 12.48 16.98 12.48Z" fill="#ECF1FE"/>
</svg>
