<svg width="737" height="1011" viewBox="0 0 737 1011" fill="none" xmlns="http://www.w3.org/2000/svg">
<circle cx="526" cy="638" r="100" fill="#EE6123" stroke="#541312" stroke-width="10"/>
<path d="M368.5 802C474.049 802 558 697.817 558 571.5C558 445.183 474.049 341 368.5 341C262.951 341 179 445.183 179 571.5C179 697.817 262.951 802 368.5 802Z" fill="#EE6123" stroke="#541312" stroke-width="10"/>
<ellipse cx="368" cy="498.778" rx="125" ry="152.778" fill="#ECF1FE"/>
<mask id="path-4-outside-1_15_136" maskUnits="userSpaceOnUse" x="-5.19601" y="333.359" width="743.031" height="680.639" fill="black">
<rect fill="white" x="-5.19601" y="333.359" width="743.031" height="680.639"/>
<path fill-rule="evenodd" clip-rule="evenodd" d="M450.521 602.71L450.521 602.709L450.519 602.71C302.09 645.271 155.735 596.217 108.778 492.654C62.534 561.129 44.8379 639.112 66.0151 712.966C111.663 872.159 320.651 951.912 532.9 891.189C533.004 891.159 533.109 891.129 533.214 891.099C639.392 860.653 706.955 771.413 684.119 691.777C661.284 612.141 556.699 572.265 450.521 602.71Z"/>
</mask>
<path fill-rule="evenodd" clip-rule="evenodd" d="M450.521 602.71L450.521 602.709L450.519 602.71C302.09 645.271 155.735 596.217 108.778 492.654C62.534 561.129 44.8379 639.112 66.0151 712.966C111.663 872.159 320.651 951.912 532.9 891.189C533.004 891.159 533.109 891.129 533.214 891.099C639.392 860.653 706.955 771.413 684.119 691.777C661.284 612.141 556.699 572.265 450.521 602.71Z" fill="#ECF1FE"/>
<path d="M450.521 602.709L447.764 593.097L457.377 590.34L460.133 599.953L450.521 602.709ZM450.521 602.71L453.277 612.323L443.665 615.079L440.909 605.467L450.521 602.71ZM108.778 492.654L100.491 487.058L110.5 472.237L117.885 488.525L108.778 492.654ZM532.9 891.189L530.149 881.574L530.155 881.573L532.9 891.189ZM460.133 599.953L460.134 599.954L440.909 605.467L440.908 605.466L460.133 599.953ZM447.763 593.097L447.764 593.097L453.277 612.322L453.275 612.322L447.763 593.097ZM117.885 488.525C161.998 585.814 301.975 634.901 447.763 593.097L453.275 612.322C302.205 655.641 149.472 606.62 99.6704 496.784L117.885 488.525ZM56.4024 715.722C34.2451 638.45 52.9581 557.441 100.491 487.058L117.065 498.251C72.1098 564.817 55.4307 639.774 75.6277 710.209L56.4024 715.722ZM535.65 900.803C427.648 931.702 320.108 926.978 233.416 893.889C146.72 860.798 80.288 799.021 56.4024 715.722L75.6277 710.209C97.3902 786.104 158.276 843.801 240.548 875.204C322.824 906.608 425.903 911.399 530.149 881.574L535.65 900.803ZM530.155 881.573C530.256 881.544 530.357 881.515 530.458 881.486L535.97 900.711C535.862 900.742 535.753 900.774 535.644 900.805L530.155 881.573ZM530.458 881.486C581.668 866.802 623.192 838.033 649.074 803.848C674.953 769.666 684.862 730.648 674.507 694.534L693.732 689.021C706.212 732.543 693.757 777.962 665.019 815.92C636.284 853.875 590.938 884.949 535.97 900.711L530.458 881.486ZM674.507 694.534C664.151 658.419 635.071 630.581 595.011 615.307C554.947 600.031 504.487 597.639 453.277 612.323L447.765 593.098C502.732 577.336 557.654 579.659 602.136 596.619C646.622 613.581 681.252 645.499 693.732 689.021L674.507 694.534Z" fill="#541312" mask="url(#path-4-outside-1_15_136)"/>
<path fill-rule="evenodd" clip-rule="evenodd" d="M195.671 865.685C254.176 833.115 290.423 750.33 280.722 658.031C278.988 641.537 275.883 625.646 271.586 610.556C326.037 622.305 388.095 620.61 450.519 602.71L450.521 602.709L450.522 602.71C556.699 572.265 661.285 612.141 684.12 691.777C706.955 771.413 639.392 860.653 533.214 891.099L532.9 891.189C408.675 926.729 285.568 914.149 195.671 865.685Z" fill="#EE6123"/>
<path d="M279.554 103.295C303.252 131.537 291.821 180.143 254.023 211.859C216.225 243.576 166.373 246.392 142.675 218.151C118.977 189.909 86.6415 89.1442 124.44 57.4278C162.238 25.7113 255.857 75.0535 279.554 103.295Z" fill="#EE6123"/>
<path d="M279.554 103.295C303.252 131.537 291.821 180.143 254.023 211.859C216.225 243.576 166.373 246.392 142.675 218.151C118.977 189.909 86.6415 89.1442 124.44 57.4278C162.238 25.7113 255.857 75.0535 279.554 103.295Z" fill="#EE6123"/>
<path d="M279.554 103.295C303.252 131.537 291.821 180.143 254.023 211.859C216.225 243.576 166.373 246.392 142.675 218.151C118.977 189.909 86.6415 89.1442 124.44 57.4278C162.238 25.7113 255.857 75.0535 279.554 103.295Z" stroke="#541312" stroke-width="10"/>
<path d="M279.554 103.295C303.252 131.537 291.821 180.143 254.023 211.859C216.225 243.576 166.373 246.392 142.675 218.151C118.977 189.909 86.6415 89.1442 124.44 57.4278C162.238 25.7113 255.857 75.0535 279.554 103.295Z" stroke="#541312" stroke-width="10"/>
<path d="M245.872 122.277C259.357 138.347 252.852 166.007 231.343 184.055C209.834 202.103 181.465 203.706 167.98 187.635C154.495 171.564 136.094 114.224 157.603 96.1757C179.113 78.1274 232.386 106.206 245.872 122.277Z" fill="#ECF1FE"/>
<path d="M245.872 122.277C259.357 138.347 252.852 166.007 231.343 184.055C209.834 202.103 181.465 203.706 167.98 187.635C154.495 171.564 136.094 114.224 157.603 96.1757C179.113 78.1274 232.386 106.206 245.872 122.277Z" fill="#ECF1FE"/>
<path d="M593.787 218.151C570.09 246.392 520.238 243.576 482.439 211.859C444.641 180.143 433.21 131.537 456.908 103.295C480.606 75.0534 574.224 25.7113 612.023 57.4277C649.821 89.1441 617.485 189.909 593.787 218.151Z" fill="#EE6123"/>
<path d="M593.787 218.151C570.09 246.392 520.238 243.576 482.439 211.859C444.641 180.143 433.21 131.537 456.908 103.295C480.606 75.0534 574.224 25.7113 612.023 57.4277C649.821 89.1441 617.485 189.909 593.787 218.151Z" fill="#EE6123"/>
<path d="M593.787 218.151C570.09 246.392 520.238 243.576 482.439 211.859C444.641 180.143 433.21 131.537 456.908 103.295C480.606 75.0534 574.224 25.7113 612.023 57.4277C649.821 89.1441 617.485 189.909 593.787 218.151Z" stroke="#541312" stroke-width="10"/>
<path d="M593.787 218.151C570.09 246.392 520.238 243.576 482.439 211.859C444.641 180.143 433.21 131.537 456.908 103.295C480.606 75.0534 574.224 25.7113 612.023 57.4277C649.821 89.1441 617.485 189.909 593.787 218.151Z" stroke="#541312" stroke-width="10"/>
<path d="M569.246 188.276C555.761 204.347 527.392 202.744 505.883 184.696C484.374 166.647 477.869 138.988 491.354 122.917C504.839 106.846 558.113 78.768 579.622 96.8163C601.132 114.865 582.731 172.205 569.246 188.276Z" fill="#ECF1FE"/>
<path d="M569.246 188.276C555.761 204.347 527.392 202.744 505.883 184.696C484.374 166.647 477.869 138.988 491.354 122.917C504.839 106.846 558.113 78.768 579.622 96.8163C601.132 114.865 582.731 172.205 569.246 188.276Z" fill="#ECF1FE"/>
<path d="M368 490.5C424.451 490.5 475.405 469.366 512.207 444.672C530.618 432.318 545.619 418.987 556.078 406.793C561.305 400.699 565.469 394.806 568.352 389.383C571.188 384.047 573 378.764 573 374C573 364.057 565.342 355.917 554.901 349.5C544.18 342.909 528.997 337.154 510.68 332.391C473.969 322.847 423.526 317 368 317C312.474 317 262.031 322.847 225.32 332.391C207.003 337.154 191.82 342.909 181.099 349.5C170.658 355.917 163 364.057 163 374C163 378.764 164.812 384.047 167.648 389.383C170.531 394.806 174.695 400.699 179.922 406.793C190.381 418.987 205.382 432.318 223.793 444.672C260.595 469.366 311.549 490.5 368 490.5Z" fill="#ECF1FE" stroke="#541312" stroke-width="10"/>
<mask id="path-12-outside-2_15_136" maskUnits="userSpaceOnUse" x="108" y="105" width="520" height="320" fill="black">
<rect fill="white" x="108" y="105" width="520" height="320"/>
<path fill-rule="evenodd" clip-rule="evenodd" d="M617.979 368.261C617.993 367.175 618 366.089 618 365C618 226.929 506.071 115 368 115C229.929 115 118 226.929 118 365C118 366.089 118.007 367.175 118.021 368.261C123.453 364.134 133.144 360.243 146.363 356.7C144.152 370.764 143 385.233 143 400C143 401.089 143.006 402.175 143.019 403.261C164.145 385.429 256.844 372 368 372C479.156 372 571.855 385.429 592.981 403.261C592.994 402.175 593 401.089 593 400C593 385.233 591.848 370.764 589.637 356.7C602.856 360.243 612.547 364.134 617.979 368.261Z"/>
</mask>
<path fill-rule="evenodd" clip-rule="evenodd" d="M617.979 368.261C617.993 367.175 618 366.089 618 365C618 226.929 506.071 115 368 115C229.929 115 118 226.929 118 365C118 366.089 118.007 367.175 118.021 368.261C123.453 364.134 133.144 360.243 146.363 356.7C144.152 370.764 143 385.233 143 400C143 401.089 143.006 402.175 143.019 403.261C164.145 385.429 256.844 372 368 372C479.156 372 571.855 385.429 592.981 403.261C592.994 402.175 593 401.089 593 400C593 385.233 591.848 370.764 589.637 356.7C602.856 360.243 612.547 364.134 617.979 368.261Z" fill="#EE6123"/>
<path d="M617.979 368.261L611.93 376.224L627.725 388.222L627.978 368.389L617.979 368.261ZM118.021 368.261L108.022 368.388L108.275 388.222L124.07 376.224L118.021 368.261ZM146.363 356.7L156.241 358.253L158.629 343.059L143.774 347.041L146.363 356.7ZM143.019 403.261L133.019 403.376L133.263 424.581L149.469 410.902L143.019 403.261ZM592.981 403.261L586.531 410.902L602.737 424.581L602.981 403.376L592.981 403.261ZM589.637 356.7L592.226 347.041L577.371 343.059L579.759 358.253L589.637 356.7ZM608 365C608 366.046 607.993 367.09 607.98 368.133L627.978 368.389C627.993 367.26 628 366.131 628 365H608ZM368 125C500.548 125 608 232.452 608 365H628C628 221.406 511.594 105 368 105V125ZM128 365C128 232.452 235.452 125 368 125V105C224.406 105 108 221.406 108 365H128ZM128.02 368.133C128.007 367.09 128 366.046 128 365H108C108 366.131 108.007 367.261 108.022 368.388L128.02 368.133ZM143.774 347.041C130.382 350.631 119.057 354.915 111.972 360.298L124.07 376.224C127.849 373.353 135.906 369.856 148.952 366.359L143.774 347.041ZM153 400C153 385.753 154.112 371.804 156.241 358.253L136.484 355.148C134.193 369.725 133 384.712 133 400H153ZM153.018 403.146C153.006 402.099 153 401.05 153 400H133C133 401.127 133.006 402.252 133.019 403.376L153.018 403.146ZM368 362C312.063 362 260.622 365.376 220.355 371.041C200.237 373.871 182.722 377.298 168.747 381.227C155.176 385.042 143.606 389.679 136.569 395.619L149.469 410.902C152.994 407.927 160.934 404.198 174.16 400.48C186.981 396.876 203.549 393.602 223.141 390.846C262.295 385.338 312.781 382 368 382V362ZM599.431 395.619C592.394 389.679 580.824 385.042 567.253 381.227C553.278 377.298 535.763 373.871 515.645 371.041C475.378 365.376 423.937 362 368 362V382C423.219 382 473.705 385.338 512.859 390.846C532.451 393.602 549.019 396.876 561.84 400.48C575.066 404.198 583.006 407.927 586.531 410.902L599.431 395.619ZM583 400C583 401.05 582.994 402.099 582.982 403.146L602.981 403.376C602.994 402.252 603 401.127 603 400H583ZM579.759 358.253C581.888 371.804 583 385.753 583 400H603C603 384.712 601.807 369.725 599.516 355.148L579.759 358.253ZM624.028 360.298C616.943 354.915 605.618 350.631 592.226 347.041L587.048 366.359C600.094 369.856 608.151 373.353 611.93 376.224L624.028 360.298Z" fill="#541312" mask="url(#path-12-outside-2_15_136)"/>
<path fill-rule="evenodd" clip-rule="evenodd" d="M220.493 298.494C258.072 312.172 286.51 336.342 297.868 361.121C306.671 350.076 334.738 342 368 342C401.387 342 429.54 350.137 438.231 361.245C438.074 361.044 437.91 360.844 437.74 360.646C449.246 336.038 477.557 312.094 514.889 298.506C549.227 286.008 583.348 285.127 607.768 293.979C614.426 316.492 618 340.328 618 365C618 366.088 617.993 367.175 617.979 368.26C612.547 364.134 602.856 360.243 589.637 356.7C591.848 370.764 593 385.233 593 400C593 401.088 592.994 402.175 592.981 403.26C587.388 398.54 576.779 394.127 562.139 390.191C540.548 425.781 461.818 485.5 368 485.5C274.182 485.5 195.452 425.781 173.861 390.191C159.221 394.127 148.612 398.54 143.019 403.26C143.006 402.175 143 401.088 143 400C143 385.233 144.152 370.764 146.363 356.7C133.144 360.243 123.453 364.134 118.021 368.26C118.007 367.175 118 366.088 118 365C118 340.233 121.601 316.308 128.309 293.719C152.679 285.133 186.48 286.114 220.493 298.494Z" fill="#ECF1FE"/>
<path d="M408 370.4C408 376.144 390.091 392.7 368 392.7C345.909 392.7 328 376.144 328 370.4C328 364.656 345.909 360 368 360C390.091 360 408 364.656 408 370.4Z" fill="#541312"/>
<ellipse cx="307.038" cy="300.5" rx="24.0385" ry="37.5" fill="#541312"/>
<ellipse cx="315.013" cy="287.5" rx="8.01282" ry="12.5" fill="#ECF1FE"/>
<ellipse cx="429.038" cy="300.5" rx="24.0385" ry="37.5" fill="#541312"/>
<ellipse cx="437.013" cy="287.5" rx="8.01282" ry="12.5" fill="#ECF1FE"/>
<path d="M276 227L291.453 221.961C301.35 218.734 312.008 218.677 321.939 221.797L338.5 227" stroke="#541312" stroke-width="10"/>
<path d="M398 227L413.453 221.961C423.35 218.734 434.008 218.677 443.939 221.797L460.5 227" stroke="#541312" stroke-width="10"/>
<mask id="path-22-inside-3_15_136" fill="white">
<path fill-rule="evenodd" clip-rule="evenodd" d="M431.823 405.784C424.357 414.647 413.176 420.278 400.681 420.278C387.367 420.278 375.546 413.885 368.12 404.002C360.695 413.885 348.874 420.278 335.56 420.278C323.064 420.278 311.884 414.647 304.418 405.783C303.489 407.733 303 409.756 303 411.829C303 427.843 332.155 474.002 368.12 474.002C404.085 474.002 433.24 427.843 433.24 411.829C433.24 409.756 432.751 407.734 431.823 405.784Z"/>
</mask>
<path fill-rule="evenodd" clip-rule="evenodd" d="M431.823 405.784C424.357 414.647 413.176 420.278 400.681 420.278C387.367 420.278 375.546 413.885 368.12 404.002C360.695 413.885 348.874 420.278 335.56 420.278C323.064 420.278 311.884 414.647 304.418 405.783C303.489 407.733 303 409.756 303 411.829C303 427.843 332.155 474.002 368.12 474.002C404.085 474.002 433.24 427.843 433.24 411.829C433.24 409.756 432.751 407.734 431.823 405.784Z" fill="#FB9197"/>
<path d="M431.823 405.784L440.851 401.484L434.175 387.469L424.174 399.341L431.823 405.784ZM368.12 404.002L376.115 397.995L368.12 387.354L360.125 397.995L368.12 404.002ZM304.418 405.783L312.066 399.341L302.066 387.469L295.39 401.482L304.418 405.783ZM424.174 399.341C418.527 406.045 410.103 410.278 400.681 410.278V430.278C416.249 430.278 430.186 423.249 439.471 412.226L424.174 399.341ZM400.681 410.278C390.644 410.278 381.733 405.473 376.115 397.995L360.125 410.009C369.359 422.298 384.089 430.278 400.681 430.278V410.278ZM360.125 397.995C354.507 405.473 345.597 410.278 335.56 410.278V430.278C352.152 430.278 366.882 422.298 376.115 410.009L360.125 397.995ZM335.56 410.278C326.138 410.278 317.713 406.045 312.066 399.341L296.769 412.226C306.054 423.248 319.991 430.278 335.56 430.278V410.278ZM295.39 401.482C293.879 404.653 293 408.138 293 411.829H313C313 411.374 313.098 410.814 313.446 410.084L295.39 401.482ZM293 411.829C293 418.192 295.668 425.773 299.176 432.778C302.854 440.12 308.094 448.091 314.53 455.485C327.102 469.932 345.899 484.002 368.12 484.002V464.002C354.377 464.002 340.613 454.992 329.617 442.356C324.268 436.209 319.972 429.638 317.059 423.821C313.976 417.667 313 413.473 313 411.829H293ZM368.12 484.002C390.341 484.002 409.138 469.932 421.71 455.485C428.146 448.091 433.386 440.12 437.064 432.778C440.572 425.773 443.24 418.192 443.24 411.829H423.24C423.24 413.473 422.263 417.667 419.181 423.821C416.268 429.638 411.972 436.209 406.623 442.356C395.627 454.992 381.863 464.002 368.12 464.002V484.002ZM443.24 411.829C443.24 408.138 442.361 404.654 440.851 401.484L422.794 410.084C423.142 410.814 423.24 411.374 423.24 411.829H443.24Z" fill="#541312" mask="url(#path-22-inside-3_15_136)"/>
<path d="M171.259 37C165.856 37 161.253 40.924 160.397 46.2589L140.269 171.823C139.197 178.508 144.36 184.565 151.13 184.565H584.426C591.163 184.565 596.317 178.564 595.3 171.904L576.13 46.3399C575.31 40.968 570.69 37 565.256 37H171.259Z" fill="#8E7DBE" stroke="#541312" stroke-width="12"/>
<path d="M138.487 166.404L143.062 169.227L138.487 166.404L77.6003 265.063C73.0775 272.391 78.3495 281.84 86.9612 281.84H648.552C657.164 281.84 662.435 272.391 657.913 265.063L597.026 166.404L597.026 166.404C595.023 163.158 591.48 161.181 587.665 161.181H147.848C144.033 161.181 140.49 163.158 138.487 166.404Z" fill="#8E7DBE" stroke="#541312" stroke-width="12"/>
<rect x="461.84" y="128.997" width="99.136" height="52.568" fill="#541312" stroke="#541312" stroke-width="6"/>
<path fill-rule="evenodd" clip-rule="evenodd" d="M490.097 132.501C490.096 132.501 490.097 132.502 490.097 132.502H490.099C490.1 132.502 490.101 132.503 490.101 132.504V151.189C490.101 151.741 490.549 152.189 491.101 152.189H508.906C509.458 152.189 509.906 151.741 509.906 151.189V133.002C509.906 132.726 510.13 132.502 510.406 132.502C510.682 132.502 510.906 132.726 510.906 133.002V152.188C510.906 152.188 510.906 152.189 510.907 152.189C510.907 152.189 510.907 152.189 510.907 152.189V153.188L510.907 153.188L510.907 153.188L510.907 153.188L510.907 153.189L510.907 153.189L510.907 153.189C510.906 153.189 510.906 153.189 510.906 153.189C510.906 153.19 510.906 153.19 510.906 153.19V173.374C510.906 173.651 510.682 173.874 510.406 173.874C510.13 173.874 509.906 173.651 509.906 173.374V156.588C509.906 155.698 508.832 155.252 508.201 155.879L490.101 173.874C490.101 173.875 490.101 173.875 490.1 173.875C490.1 173.875 490.1 173.875 490.1 173.875C490.099 173.875 490.099 173.875 490.099 173.875L490.099 173.875C490.098 173.876 490.097 173.876 490.096 173.875C490.095 173.875 490.095 173.875 490.094 173.875H489.799C489.413 173.875 489.101 173.562 489.101 173.176C489.101 172.991 489.027 172.812 488.895 172.681L469.293 153.189C468.902 152.8 468.902 152.167 469.293 151.778L489.036 132.145C489.231 131.952 489.546 131.952 489.741 132.145L490.097 132.499C490.097 132.5 490.097 132.5 490.097 132.501ZM489.101 169.071C489.101 169.961 488.026 170.407 487.396 169.78L470.715 153.192C470.322 152.801 470.322 152.165 470.715 151.774L487.396 135.187C488.026 134.559 489.101 135.006 489.101 135.896V151.189C489.101 151.741 488.653 152.189 488.101 152.189H480.198C479.921 152.189 479.698 152.412 479.698 152.689C479.698 152.965 479.921 153.189 480.198 153.189H488.101C488.653 153.189 489.101 153.636 489.101 154.189V169.071ZM507.77 154.898C508.402 154.269 507.957 153.189 507.065 153.189H491.101C490.549 153.189 490.101 153.636 490.101 154.189V170.06C490.101 170.95 491.175 171.397 491.806 170.769L507.77 154.898ZM553.367 152.835C553.562 153.033 553.882 153.033 554.078 152.835C554.27 152.64 554.27 152.327 554.078 152.132L534.664 132.506C534.277 132.115 533.645 132.115 533.258 132.506C533.258 132.506 533.257 132.505 533.257 132.505H533.244C533.24 132.505 533.236 132.504 533.234 132.501L533.032 132.298C532.759 132.021 532.312 132.021 532.038 132.298L512.567 151.981C512.292 152.26 512.292 152.708 512.567 152.986L512.767 153.188C512.771 153.192 512.774 153.198 512.774 153.205C512.774 153.218 512.785 153.229 512.798 153.229H529.436C530.324 153.229 530.772 154.3 530.147 154.932L512.418 172.855C512.226 173.049 512.226 173.363 512.418 173.558C512.614 173.756 512.934 173.756 513.129 173.558L530.547 155.95C531.175 155.315 532.258 155.76 532.258 156.653V173.451C532.258 173.727 532.482 173.951 532.758 173.951C533.034 173.951 533.258 173.727 533.258 173.451V154.229C533.258 153.676 533.705 153.229 534.258 153.229H543.004C543.28 153.229 543.504 153.005 543.504 152.729C543.504 152.453 543.28 152.229 543.004 152.229H534.258C533.705 152.229 533.258 151.781 533.258 151.229V132.506L553.367 152.835ZM532.258 135.93C532.258 135.037 531.175 134.592 530.547 135.227L515.414 150.525C514.789 151.157 515.237 152.229 516.125 152.229H531.258C531.81 152.229 532.258 151.781 532.258 151.229V135.93Z" fill="#541312"/>
<path d="M490.097 132.501L491.153 133.565L491.155 133.564L490.097 132.501ZM510.907 153.188H509.407V153.524L509.55 153.827L510.907 153.188ZM510.907 153.188L512.405 153.274L512.426 152.894L512.264 152.55L510.907 153.188ZM510.907 153.188L512.3 153.746L512.391 153.518L512.405 153.274L510.907 153.188ZM510.907 153.188L511.968 154.249L512.185 154.031L512.3 153.746L510.907 153.188ZM510.907 153.189L511.508 154.563L511.768 154.449L511.968 154.249L510.907 153.189ZM510.907 153.189L510.306 151.814L510.05 151.926L509.851 152.123L510.907 153.189ZM510.907 153.189L511.961 154.256L511.962 154.254L510.907 153.189ZM510.906 153.189L509.501 152.666L509.498 152.672L510.906 153.189ZM508.201 155.879L509.259 156.943V156.943L508.201 155.879ZM490.101 173.874L489.044 172.811L489.041 172.814L490.101 173.874ZM490.1 173.875L490.722 175.24L490.729 175.236L490.737 175.233L490.1 173.875ZM490.099 173.875L491.156 174.94L491.16 174.936L490.099 173.875ZM490.099 173.875L489.042 172.811L489.042 172.811L490.099 173.875ZM490.096 173.875L491.153 172.811L491.152 172.81L490.096 173.875ZM488.895 172.681L489.953 171.618L489.953 171.618L488.895 172.681ZM469.293 153.189L470.351 152.125H470.351L469.293 153.189ZM469.293 151.778L468.236 150.715L468.236 150.715L469.293 151.778ZM489.036 132.145L487.978 131.082L487.978 131.082L489.036 132.145ZM489.741 132.145L490.798 131.082V131.082L489.741 132.145ZM490.097 132.499L491.155 131.436L491.154 131.436L490.097 132.499ZM487.396 169.78L488.453 168.717L487.396 169.78ZM470.715 153.192L469.658 154.256H469.658L470.715 153.192ZM470.715 151.774L469.658 150.711H469.658L470.715 151.774ZM487.396 135.187L486.338 134.123L486.338 134.123L487.396 135.187ZM507.77 154.898L506.712 153.834L506.712 153.834L507.77 154.898ZM491.806 170.769L490.748 169.706H490.748L491.806 170.769ZM554.078 152.835L555.144 153.89L555.144 153.89L554.078 152.835ZM553.367 152.835L552.3 153.89L552.3 153.89L553.367 152.835ZM554.078 152.132L555.144 151.077L555.144 151.077L554.078 152.132ZM534.664 132.506L533.598 133.561L533.598 133.561L534.664 132.506ZM533.234 132.501L532.167 133.556L532.168 133.557L533.234 132.501ZM533.032 132.298L534.099 131.243V131.243L533.032 132.298ZM532.038 132.298L533.104 133.353V133.353L532.038 132.298ZM512.567 151.981L513.634 153.036L513.634 153.036L512.567 151.981ZM512.567 152.986L513.634 151.931L513.634 151.931L512.567 152.986ZM512.767 153.188L511.7 154.242L511.701 154.243L512.767 153.188ZM530.147 154.932L531.214 155.987V155.987L530.147 154.932ZM512.418 172.855L511.352 171.8L512.418 172.855ZM512.418 173.558L513.485 172.503L513.485 172.503L512.418 173.558ZM513.129 173.558L514.196 174.613L514.196 174.613L513.129 173.558ZM530.547 155.95L529.48 154.895V154.895L530.547 155.95ZM530.547 135.227L531.613 136.282V136.282L530.547 135.227ZM515.414 150.525L514.348 149.471L515.414 150.525ZM490.097 131.002C491.432 131.002 492.106 132.62 491.153 133.565L489.04 131.436C488.087 132.382 488.761 134.002 490.097 134.002V131.002ZM490.099 131.002H490.097V134.002H490.099V131.002ZM491.601 132.504C491.601 131.674 490.928 131.002 490.099 131.002V134.002C489.272 134.002 488.601 133.332 488.601 132.504H491.601ZM491.601 151.189V132.504H488.601V151.189H491.601ZM491.101 150.689C491.377 150.689 491.601 150.912 491.601 151.189H488.601C488.601 152.569 489.72 153.689 491.101 153.689V150.689ZM508.906 150.689H491.101V153.689H508.906V150.689ZM508.406 151.189C508.406 150.912 508.63 150.689 508.906 150.689V153.689C510.287 153.689 511.406 152.569 511.406 151.189H508.406ZM508.406 133.002V151.189H511.406V133.002H508.406ZM510.406 131.002C509.302 131.002 508.406 131.897 508.406 133.002H511.406C511.406 133.554 510.958 134.002 510.406 134.002V131.002ZM512.406 133.002C512.406 131.897 511.511 131.002 510.406 131.002V134.002C509.854 134.002 509.406 133.554 509.406 133.002H512.406ZM512.406 152.188V133.002H509.406V152.188H512.406ZM510.907 150.689C511.735 150.689 512.406 151.36 512.406 152.188H509.406C509.406 153.017 510.078 153.689 510.907 153.689V150.689ZM512.407 152.189C512.407 151.368 511.743 150.689 510.907 150.689V153.689C510.07 153.689 509.407 153.009 509.407 152.189H512.407ZM512.407 153.188V152.189H509.407V153.188H512.407ZM512.264 152.55L512.264 152.55L509.55 153.827L509.55 153.827L512.264 152.55ZM512.405 153.274L512.405 153.274L509.409 153.103L509.409 153.103L512.405 153.274ZM512.3 153.746L512.3 153.746L509.514 152.631L509.514 152.631L512.3 153.746ZM511.968 154.249L511.968 154.249L509.846 152.128L509.846 152.128L511.968 154.249ZM511.508 154.563L511.508 154.563L510.306 151.814L510.306 151.814L511.508 154.563ZM511.962 154.254L511.963 154.254L509.851 152.123L509.851 152.123L511.962 154.254ZM512.312 153.713C512.237 153.915 512.118 154.101 511.961 154.256L509.853 152.122C509.695 152.277 509.576 152.463 509.501 152.666L512.312 153.713ZM512.406 153.19C512.406 153.382 512.369 153.557 512.314 153.707L509.498 152.672C509.443 152.822 509.406 152.997 509.406 153.19H512.406ZM512.406 173.374V153.19H509.406V173.374H512.406ZM510.406 175.374C511.511 175.374 512.406 174.479 512.406 173.374H509.406C509.406 172.822 509.854 172.374 510.406 172.374V175.374ZM508.406 173.374C508.406 174.479 509.302 175.374 510.406 175.374V172.374C510.958 172.374 511.406 172.822 511.406 173.374H508.406ZM508.406 156.588V173.374H511.406V156.588H508.406ZM509.259 156.943C508.943 157.256 508.406 157.033 508.406 156.588H511.406C511.406 154.364 508.72 153.247 507.143 154.815L509.259 156.943ZM491.159 174.938L509.259 156.943L507.143 154.815L489.044 172.811L491.159 174.938ZM490.1 175.375C490.498 175.375 490.88 175.217 491.162 174.935L489.041 172.814C489.322 172.532 489.703 172.375 490.1 172.375V175.375ZM490.737 175.233C490.537 175.326 490.32 175.375 490.1 175.375V172.375C489.88 172.375 489.662 172.423 489.462 172.517L490.737 175.233ZM491.16 174.936C491.034 175.062 490.886 175.165 490.722 175.24L489.478 172.51C489.313 172.585 489.164 172.689 489.039 172.815L491.16 174.936ZM491.156 174.94L491.156 174.94L489.042 172.811L489.042 172.811L491.156 174.94ZM489.038 174.939C489.624 175.522 490.57 175.522 491.156 174.939L489.042 172.811C489.626 172.231 490.569 172.231 491.153 172.811L489.038 174.939ZM490.094 175.375C489.697 175.375 489.318 175.217 489.04 174.941L491.152 172.81C490.872 172.533 490.493 172.375 490.094 172.375V175.375ZM489.799 175.375H490.094V172.375H489.799V175.375ZM487.601 173.176C487.601 174.391 488.585 175.375 489.799 175.375V172.375C490.242 172.375 490.601 172.734 490.601 173.176H487.601ZM487.837 173.745C487.686 173.594 487.601 173.39 487.601 173.176H490.601C490.601 172.591 490.367 172.03 489.953 171.618L487.837 173.745ZM468.236 154.252L487.837 173.745L489.953 171.618L470.351 152.125L468.236 154.252ZM468.236 150.715C467.255 151.69 467.255 153.277 468.236 154.252L470.351 152.125C470.55 152.323 470.55 152.644 470.351 152.842L468.236 150.715ZM487.978 131.082L468.236 150.715L470.351 152.842L490.093 133.209L487.978 131.082ZM490.798 131.082C490.018 130.306 488.758 130.306 487.978 131.082L490.093 133.209C489.703 133.597 489.073 133.597 488.683 133.209L490.798 131.082ZM491.154 131.436L490.798 131.082L488.683 133.209L489.039 133.563L491.154 131.436ZM491.155 133.564C491.744 132.977 491.744 132.023 491.155 131.436L489.039 133.563C488.45 132.977 488.45 132.023 489.039 131.437L491.155 133.564ZM486.338 170.844C487.915 172.412 490.601 171.295 490.601 169.071H487.601C487.601 168.626 488.138 168.403 488.453 168.717L486.338 170.844ZM469.658 154.256L486.338 170.844L488.453 168.717L471.773 152.129L469.658 154.256ZM469.658 150.711C468.675 151.688 468.675 153.279 469.658 154.256L471.773 152.129C471.97 152.324 471.97 152.642 471.773 152.838L469.658 150.711ZM486.338 134.123L469.658 150.711L471.773 152.838L488.453 136.25L486.338 134.123ZM490.601 135.896C490.601 133.672 487.915 132.555 486.338 134.123L488.453 136.25C488.138 136.564 487.601 136.341 487.601 135.896H490.601ZM490.601 151.189V135.896H487.601V151.189H490.601ZM488.101 153.689C489.482 153.689 490.601 152.569 490.601 151.189H487.601C487.601 150.912 487.825 150.689 488.101 150.689V153.689ZM480.198 153.689H488.101V150.689H480.198V153.689ZM481.198 152.689C481.198 153.241 480.75 153.689 480.198 153.689V150.689C479.093 150.689 478.198 151.584 478.198 152.689H481.198ZM480.198 151.689C480.75 151.689 481.198 152.136 481.198 152.689H478.198C478.198 153.793 479.093 154.689 480.198 154.689V151.689ZM488.101 151.689H480.198V154.689H488.101V151.689ZM490.601 154.189C490.601 152.808 489.481 151.689 488.101 151.689V154.689C487.825 154.689 487.601 154.465 487.601 154.189H490.601ZM490.601 169.071V154.189H487.601V169.071H490.601ZM507.065 154.689C506.618 154.689 506.396 154.149 506.712 153.834L508.827 155.961C510.409 154.389 509.295 151.689 507.065 151.689V154.689ZM491.101 154.689H507.065V151.689H491.101V154.689ZM491.601 154.189C491.601 154.465 491.377 154.689 491.101 154.689V151.689C489.72 151.689 488.601 152.808 488.601 154.189H491.601ZM491.601 170.06V154.189H488.601V170.06H491.601ZM490.748 169.706C491.064 169.392 491.601 169.615 491.601 170.06H488.601C488.601 172.284 491.286 173.401 492.863 171.833L490.748 169.706ZM506.712 153.834L490.748 169.706L492.863 171.833L508.827 155.961L506.712 153.834ZM553.011 151.78C553.403 151.385 554.042 151.385 554.433 151.78L552.3 153.89C553.083 154.681 554.361 154.681 555.144 153.89L553.011 151.78ZM553.011 153.187C552.626 152.797 552.626 152.17 553.011 151.78L555.144 153.89C555.915 153.111 555.915 151.856 555.144 151.077L553.011 153.187ZM533.598 133.561L553.011 153.187L555.144 151.077L535.731 131.451L533.598 133.561ZM534.324 133.561C534.124 133.763 533.798 133.763 533.598 133.561L535.731 131.451C534.756 130.466 533.166 130.466 532.191 131.451L534.324 133.561ZM534.758 132.506C534.758 131.678 534.087 131.005 533.257 131.005V134.005C532.428 134.005 531.758 133.333 531.758 132.506H534.758ZM533.257 131.005H533.244V134.005H533.257V131.005ZM533.244 131.005C533.641 131.005 534.021 131.164 534.3 131.446L532.168 133.557C532.452 133.844 532.839 134.005 533.244 134.005V131.005ZM534.3 131.446L534.099 131.243L531.966 133.353L532.167 133.556L534.3 131.446ZM534.099 131.243C533.238 130.373 531.832 130.373 530.971 131.243L533.104 133.353C532.791 133.669 532.279 133.669 531.966 133.353L534.099 131.243ZM530.971 131.243L511.501 150.927L513.634 153.036L533.104 133.353L530.971 131.243ZM511.501 150.927C510.648 151.789 510.648 153.178 511.501 154.041L513.634 151.931C513.937 152.237 513.937 152.73 513.634 153.036L511.501 150.927ZM511.501 154.041L511.7 154.242L513.833 152.133L513.634 151.931L511.501 154.041ZM511.701 154.243C511.427 153.966 511.274 153.593 511.274 153.205H514.274C514.274 152.803 514.116 152.418 513.833 152.133L511.701 154.243ZM511.274 153.205C511.274 154.046 511.956 154.729 512.798 154.729V151.729C513.613 151.729 514.274 152.389 514.274 153.205H511.274ZM512.798 154.729H529.436V151.729H512.798V154.729ZM529.436 154.729C528.992 154.729 528.768 154.193 529.081 153.877L531.214 155.987C532.775 154.408 531.657 151.729 529.436 151.729V154.729ZM529.081 153.877L511.352 171.8L513.485 173.91L531.214 155.987L529.081 153.877ZM511.352 171.8C510.581 172.579 510.581 173.834 511.352 174.613L513.485 172.503C513.87 172.893 513.87 173.52 513.485 173.91L511.352 171.8ZM511.352 174.613C512.135 175.404 513.413 175.404 514.196 174.613L512.063 172.503C512.454 172.107 513.093 172.107 513.485 172.503L511.352 174.613ZM514.196 174.613L531.613 157.005L529.48 154.895L512.063 172.503L514.196 174.613ZM531.613 157.005C531.299 157.322 530.758 157.1 530.758 156.653H533.758C533.758 154.419 531.051 153.307 529.48 154.895L531.613 157.005ZM530.758 156.653V173.451H533.758V156.653H530.758ZM530.758 173.451C530.758 174.555 531.653 175.451 532.758 175.451V172.451C533.31 172.451 533.758 172.898 533.758 173.451H530.758ZM532.758 175.451C533.862 175.451 534.758 174.555 534.758 173.451H531.758C531.758 172.898 532.205 172.451 532.758 172.451V175.451ZM534.758 173.451V154.229H531.758V173.451H534.758ZM534.758 154.229C534.758 154.505 534.534 154.729 534.258 154.729V151.729C532.877 151.729 531.758 152.848 531.758 154.229H534.758ZM534.258 154.729H543.004V151.729H534.258V154.729ZM543.004 154.729C544.109 154.729 545.004 153.833 545.004 152.729H542.004C542.004 152.176 542.452 151.729 543.004 151.729V154.729ZM545.004 152.729C545.004 151.624 544.109 150.729 543.004 150.729V153.729C542.452 153.729 542.004 153.281 542.004 152.729H545.004ZM543.004 150.729H534.258V153.729H543.004V150.729ZM534.258 150.729C534.534 150.729 534.758 150.953 534.758 151.229H531.758C531.758 152.609 532.877 153.729 534.258 153.729V150.729ZM534.758 151.229V132.506H531.758V151.229H534.758ZM554.433 151.78L534.324 131.451L532.191 133.561L552.3 153.89L554.433 151.78ZM531.613 136.282C531.299 136.6 530.758 136.377 530.758 135.93H533.758C533.758 133.697 531.051 132.584 529.48 134.172L531.613 136.282ZM516.481 151.58L531.613 136.282L529.48 134.172L514.348 149.471L516.481 151.58ZM516.125 150.729C516.569 150.729 516.793 151.265 516.481 151.58L514.348 149.471C512.786 151.049 513.904 153.729 516.125 153.729V150.729ZM531.258 150.729H516.125V153.729H531.258V150.729ZM530.758 151.229C530.758 150.953 530.982 150.729 531.258 150.729V153.729C532.638 153.729 533.758 152.609 533.758 151.229H530.758ZM530.758 135.93V151.229H533.758V135.93H530.758Z" fill="#8E7DBE"/>
</svg>
