<svg width="408" height="518" viewBox="0 0 408 518" fill="none" xmlns="http://www.w3.org/2000/svg">
<path fill-rule="evenodd" clip-rule="evenodd" d="M302.274 369.117C302.274 443.259 252.928 505.155 190.057 505.155C127.185 505.155 77.8398 443.259 77.8398 369.117C77.8398 294.975 127.185 233.08 190.057 233.08C252.928 233.08 302.274 294.975 302.274 369.117ZM190.057 500.13C249.258 500.13 297.249 441.474 297.249 369.117C297.249 296.761 249.258 238.104 190.057 238.104C130.856 238.104 82.8645 296.761 82.8645 369.117C82.8645 441.474 130.856 500.13 190.057 500.13Z" fill="#120802"/>
<path d="M297.249 369.117C297.249 441.474 249.258 500.13 190.057 500.13C130.856 500.13 82.8645 441.474 82.8645 369.117C82.8645 296.761 130.856 238.104 190.057 238.104C249.258 238.104 297.249 296.761 297.249 369.117Z" fill="#EE6123"/>
<ellipse cx="189.766" cy="326.867" rx="72.6236" ry="88.7621" fill="#ECF1FE"/>
<path fill-rule="evenodd" clip-rule="evenodd" d="M174.346 333.549L174.348 333.549C258.045 357.549 340.608 331.408 370.338 274.837C371.24 273.122 372.092 271.379 372.895 269.608C374 271.243 375.076 272.888 376.124 274.541C400.569 313.111 409.538 356.462 397.74 397.606C371.22 490.093 249.807 536.428 126.497 501.155L126.303 501.1C64.6146 483.411 25.3614 431.564 38.6285 385.296C51.8955 339.028 112.658 315.861 174.346 333.549ZM170.952 327.317L170.922 327.42C140.757 319.762 110.915 321.45 86.5395 330.744C60.8677 340.532 40.9657 358.916 33.7985 383.911C26.6313 408.906 33.7673 435.043 50.3514 456.948C66.9343 478.851 93.1296 496.814 124.918 505.93L125.116 505.986C187.714 523.893 250.015 521.144 300.207 501.985C350.4 482.825 388.776 447.095 402.57 398.991C415.366 354.366 404.574 307.538 377.059 266.796L372.03 259.349L368.319 267.533C342.468 324.546 260.65 353.063 175.747 328.723C175.742 328.722 175.737 328.72 175.733 328.719L170.952 327.317Z" fill="#120802"/>
<path d="M174.346 333.549L174.348 333.549C258.045 357.549 340.608 331.408 370.338 274.837C371.24 273.122 372.092 271.379 372.895 269.608C374 271.243 375.076 272.888 376.124 274.541C400.569 313.111 409.538 356.462 397.74 397.606C371.22 490.093 249.807 536.428 126.497 501.155L126.303 501.1C64.6146 483.411 25.3614 431.564 38.6285 385.296C51.8955 339.028 112.658 315.861 174.346 333.549Z" fill="#ECF1FE"/>
<path d="M322.412 486.335C288.421 467.412 267.362 419.315 272.998 365.69C274.005 356.107 275.81 346.875 278.306 338.107C246.671 344.934 210.616 343.949 174.348 333.549L174.347 333.549L174.346 333.549C112.658 315.861 51.8954 339.029 38.6284 385.296C25.3613 431.564 64.6144 483.411 126.303 501.1L126.461 501.145C198.642 521.802 270.177 514.495 322.412 486.335Z" fill="#EE6123"/>
<path fill-rule="evenodd" clip-rule="evenodd" d="M61.1411 13.0712C52.4829 12.7079 45.1441 14.4434 39.9209 18.8262C34.6976 23.209 31.7141 30.1349 30.5685 38.7247C29.4251 47.2979 30.1558 57.2496 32.0925 67.2633C34.0258 77.2598 37.1385 87.2038 40.672 95.7196C44.222 104.275 48.1297 111.227 51.5825 115.342C58.3339 123.388 68.9318 127.163 80.8833 126.487C92.8354 125.812 105.97 120.674 117.361 111.115C128.752 101.557 136.093 89.5147 138.833 77.8615C141.574 66.2088 139.696 55.1164 132.945 47.0705C129.492 42.9556 123.325 37.9 115.516 32.9184C107.743 27.9597 98.4904 23.1675 88.9815 19.5277C79.4562 15.8817 69.7826 13.4339 61.1411 13.0712ZM118.218 28.6823C126.221 33.7878 132.871 39.1649 136.794 43.8407C144.795 53.3761 146.737 66.2037 143.724 79.0118C140.712 91.8193 132.73 104.778 120.591 114.965C108.451 125.151 94.3028 130.762 81.1668 131.504C68.0302 132.246 55.7346 128.107 47.7335 118.572C43.81 113.896 39.6693 106.414 36.0311 97.6454C32.3764 88.8377 29.1612 78.5688 27.1592 68.2174C25.1606 57.883 24.3488 47.3515 25.5879 38.0604C26.8249 28.786 30.1491 20.4665 36.6911 14.9771C43.2331 9.48769 52.0034 7.65868 61.3518 8.05102C70.7168 8.44407 80.9474 11.0723 90.7777 14.8351C100.624 18.6042 110.179 23.5538 118.218 28.6823Z" fill="#120802"/>
<path d="M39.9209 18.8262C45.1441 14.4434 52.4829 12.7079 61.1411 13.0712C69.7826 13.4339 79.4562 15.8817 88.9815 19.5277C98.4904 23.1675 107.743 27.9597 115.516 32.9184C123.325 37.9 129.492 42.9556 132.945 47.0705C139.696 55.1164 141.574 66.2088 138.833 77.8615C136.093 89.5147 128.752 101.557 117.361 111.115C105.97 120.674 92.8354 125.812 80.8833 126.487C68.9318 127.163 58.3339 123.388 51.5825 115.342C48.1297 111.227 44.222 104.275 40.672 95.7196C37.1385 87.2038 34.0258 77.2598 32.0925 67.2633C30.1558 57.2496 29.4251 47.2979 30.5685 38.7247C31.7141 30.1349 34.6976 23.209 39.9209 18.8262Z" fill="#EE6123"/>
<path d="M113.901 57.272C122.296 67.2767 118.247 84.4954 104.857 95.731C91.4667 106.967 73.8065 107.965 65.4115 97.9598C57.0166 87.9551 45.5616 52.2591 58.9517 41.0234C72.3418 29.7878 105.506 47.2673 113.901 57.272Z" fill="#ECF1FE"/>
<path d="M113.901 57.272C122.296 67.2767 118.247 84.4954 104.857 95.731C91.4667 106.967 73.8065 107.965 65.4115 97.9598C57.0166 87.9551 45.5616 52.2591 58.9517 41.0234C72.3418 29.7878 105.506 47.2673 113.901 57.272Z" fill="#ECF1FE"/>
<path fill-rule="evenodd" clip-rule="evenodd" d="M264.632 32.9184C256.823 37.9 250.655 42.9556 247.203 47.0705C240.451 55.1164 238.574 66.2088 241.314 77.8615C244.055 89.5147 251.396 101.557 262.787 111.115C274.178 120.674 287.312 125.812 299.264 126.487C311.216 127.163 321.814 123.388 328.565 115.342C332.018 111.227 335.926 104.275 339.476 95.7196C343.009 87.2038 346.122 77.2598 348.055 67.2633C349.992 57.2496 350.723 47.2979 349.579 38.7247C348.434 30.1349 345.45 23.209 340.227 18.8262C335.004 14.4434 327.665 12.7079 319.007 13.0712C310.365 13.4339 300.691 15.8817 291.166 19.5277C281.657 23.1675 272.405 27.9597 264.632 32.9184ZM318.796 8.05102C328.144 7.65868 336.915 9.48769 343.457 14.9771C349.999 20.4665 353.323 28.786 354.56 38.0604C355.799 47.3515 354.987 57.883 352.988 68.2174C350.986 78.5688 347.771 88.8377 344.117 97.6454C340.478 106.414 336.338 113.896 332.414 118.572C324.413 128.107 312.117 132.246 298.981 131.504C285.845 130.762 271.697 125.151 259.557 114.965C247.417 104.778 239.435 91.8193 236.423 79.0118C233.411 66.2037 235.352 53.3761 243.353 43.8407C247.277 39.1649 253.926 33.7878 261.93 28.6823C269.969 23.5538 279.523 18.6042 289.37 14.8351C299.2 11.0723 309.431 8.44407 318.796 8.05102Z" fill="#120802"/>
<path d="M247.203 47.0705C250.655 42.9556 256.823 37.9 264.632 32.9184C272.405 27.9597 281.657 23.1675 291.166 19.5277C300.691 15.8817 310.365 13.4339 319.007 13.0712C327.665 12.7079 335.004 14.4434 340.227 18.8262C345.45 23.209 348.434 30.1349 349.579 38.7247C350.723 47.2979 349.992 57.2496 348.055 67.2633C346.122 77.2598 343.009 87.2038 339.476 95.7196C335.926 104.275 332.018 111.227 328.565 115.342C321.814 123.388 311.216 127.163 299.264 126.487C287.312 125.812 274.178 120.674 262.787 111.115C251.396 101.557 244.055 89.5147 241.314 77.8615C238.574 66.2088 240.451 55.1164 247.203 47.0705Z" fill="#EE6123"/>
<path d="M315.212 98.3586C306.817 108.363 289.156 107.365 275.766 96.1298C262.376 84.8941 258.327 67.6755 266.722 57.6708C275.117 47.6661 308.281 30.1866 321.671 41.4222C335.062 52.6578 323.607 88.3539 315.212 98.3586Z" fill="#ECF1FE"/>
<path d="M315.212 98.3586C306.817 108.363 289.156 107.365 275.766 96.1298C262.376 84.8941 258.327 67.6755 266.722 57.6708C275.117 47.6661 308.281 30.1866 321.671 41.4222C335.062 52.6578 323.607 88.3539 315.212 98.3586Z" fill="#ECF1FE"/>
<path fill-rule="evenodd" clip-rule="evenodd" d="M280.769 259.561C257.625 275.09 225.54 288.415 189.93 288.415C154.32 288.415 122.235 275.09 99.0911 259.561C87.5095 251.79 78.0347 243.379 71.3941 235.637C68.0766 231.769 65.3942 227.984 63.5164 224.452C61.6846 221.006 60.399 217.393 60.399 213.978C60.399 206.731 65.9551 201.167 72.5767 197.097C79.4813 192.852 89.1382 189.212 100.626 186.225C123.678 180.231 155.249 176.582 189.93 176.582C224.611 176.582 256.182 180.231 279.234 186.225C290.722 189.212 300.379 192.852 307.283 197.097C313.905 201.167 319.461 206.731 319.461 213.978C319.461 217.393 318.175 221.006 316.343 224.452C314.466 227.984 311.783 231.769 308.466 235.637C301.825 243.379 292.35 251.79 280.769 259.561ZM189.93 283.39C258.693 283.39 314.436 231.856 314.436 213.978C314.436 196.099 258.693 181.606 189.93 181.606C121.167 181.606 65.4237 196.099 65.4237 213.978C65.4237 231.856 121.167 283.39 189.93 283.39Z" fill="#120802"/>
<path d="M314.436 213.978C314.436 231.856 258.693 283.39 189.93 283.39C121.167 283.39 65.4237 231.856 65.4237 213.978C65.4237 196.099 121.167 181.606 189.93 181.606C258.693 181.606 314.436 196.099 314.436 213.978Z" fill="#ECF1FE"/>
<path fill-rule="evenodd" clip-rule="evenodd" d="M350.446 220.435L342.51 214.406C340.83 213.129 337.994 211.728 333.926 210.297C334.651 216.808 335.024 223.439 335.024 230.164C335.024 230.861 335.02 231.556 335.012 232.251L334.89 242.906L326.747 236.033C324.341 234.003 319.181 231.627 310.927 229.307C302.875 227.043 292.504 224.996 280.276 223.276C255.835 219.838 224.349 217.757 189.93 217.757C155.511 217.757 124.025 219.838 99.5835 223.276C87.3554 224.996 76.9844 227.043 68.9333 229.307C60.6792 231.627 55.5185 234.003 53.113 236.033L44.9703 242.906L44.8478 232.251C44.8398 231.557 44.8358 230.861 44.8358 230.164C44.8358 223.439 45.2091 216.808 45.9343 210.297C41.8662 211.728 39.0302 213.129 37.3495 214.406L29.4132 220.435L29.2858 210.469C29.2769 209.772 29.2725 209.074 29.2725 208.375C29.2725 119.646 101.201 47.7177 189.93 47.7177C278.659 47.7177 350.587 119.646 350.587 208.375C350.587 209.074 350.583 209.772 350.574 210.469L350.446 220.435ZM46.6395 204.761C48.2915 204.232 50.0647 203.715 51.9537 203.208C51.6711 205.006 51.4164 206.815 51.1898 208.634C50.4784 214.346 50.046 220.157 49.9084 226.05C49.8765 227.417 49.8604 228.788 49.8604 230.164C49.8604 230.841 49.8643 231.518 49.8721 232.194C50.6867 231.506 51.6722 230.829 52.8208 230.164C53.46 229.794 54.1497 229.427 54.8886 229.064C74.2574 219.559 127.403 212.733 189.93 212.733C252.457 212.733 305.602 219.559 324.971 229.064C325.71 229.427 326.4 229.794 327.039 230.164C328.188 230.829 329.173 231.506 329.988 232.194C329.996 231.518 329.999 230.841 329.999 230.164C329.999 228.788 329.983 227.417 329.952 226.049C329.814 220.157 329.381 214.346 328.67 208.634C328.444 206.815 328.189 205.006 327.906 203.208C329.795 203.715 331.568 204.232 333.22 204.761C336.015 205.654 338.462 206.578 340.536 207.528C341.148 207.808 341.727 208.09 342.273 208.375C343.55 209.04 344.645 209.717 345.55 210.405C345.558 209.729 345.563 209.053 345.563 208.375C345.563 207.052 345.546 205.732 345.513 204.416C343.413 120.292 274.56 52.7423 189.93 52.7423C105.3 52.7423 36.4469 120.292 34.3465 204.416C34.3136 205.732 34.2971 207.052 34.2971 208.375C34.2971 209.053 34.3014 209.729 34.3101 210.405C35.2152 209.717 36.3103 209.04 37.5866 208.375C38.1328 208.09 38.7122 207.808 39.3241 207.528C41.398 206.578 43.8453 205.654 46.6395 204.761Z" fill="#120802"/>
<path d="M46.6395 204.761C48.2915 204.232 50.0647 203.715 51.9537 203.208C51.6711 205.006 51.4164 206.815 51.1898 208.634C50.4784 214.346 50.046 220.157 49.9084 226.05C49.8765 227.417 49.8604 228.788 49.8604 230.164C49.8604 230.841 49.8643 231.518 49.8721 232.194C50.6867 231.506 51.6722 230.829 52.8208 230.164C53.46 229.794 54.1497 229.427 54.8886 229.064C74.2574 219.559 127.403 212.733 189.93 212.733C252.457 212.733 305.602 219.559 324.971 229.064C325.71 229.427 326.4 229.794 327.039 230.164C328.188 230.829 329.173 231.506 329.988 232.194C329.996 231.518 329.999 230.841 329.999 230.164C329.999 228.788 329.983 227.417 329.952 226.049C329.814 220.157 329.381 214.346 328.67 208.634C328.444 206.815 328.189 205.006 327.906 203.208C329.795 203.715 331.568 204.232 333.22 204.761C336.015 205.654 338.462 206.578 340.536 207.528C341.148 207.808 341.727 208.09 342.273 208.375C343.55 209.04 344.645 209.717 345.55 210.405C345.558 209.729 345.563 209.053 345.563 208.375C345.563 207.052 345.546 205.732 345.513 204.416C343.413 120.292 274.56 52.7423 189.93 52.7423C105.3 52.7423 36.4469 120.292 34.3465 204.416C34.3136 205.732 34.2971 207.052 34.2971 208.375C34.2971 209.053 34.3014 209.729 34.3101 210.405C35.2152 209.717 36.3103 209.04 37.5866 208.375C38.1328 208.09 38.7122 207.808 39.3241 207.528C41.398 206.578 43.8453 205.654 46.6395 204.761Z" fill="#EE6123"/>
<path fill-rule="evenodd" clip-rule="evenodd" d="M98.1018 166.973C121.496 175.488 139.2 190.535 146.27 205.961C151.751 199.085 169.223 194.057 189.93 194.057C210.339 194.057 227.605 198.941 233.345 205.664C240.508 190.345 258.132 175.439 281.373 166.98C302.749 159.2 323.991 158.652 339.193 164.163C343.338 178.177 345.563 193.016 345.563 208.375C345.563 209.053 345.558 209.73 345.55 210.405C342.168 207.836 336.135 205.414 327.906 203.208C329.282 211.964 329.999 220.971 329.999 230.164C329.999 230.842 329.996 231.518 329.988 232.194C326.506 229.255 319.901 226.508 310.787 224.058C297.346 246.213 248.334 283.39 189.93 283.39C131.526 283.39 82.514 246.213 69.0727 224.058C59.9586 226.508 53.3539 229.255 49.8721 232.194C49.8643 231.518 49.8604 230.842 49.8604 230.164C49.8604 220.971 50.5778 211.964 51.9537 203.208C43.7247 205.414 37.6917 207.836 34.31 210.405C34.3013 209.73 34.297 209.053 34.297 208.375C34.297 192.957 36.539 178.063 40.7148 164C55.8857 158.655 76.928 159.266 98.1018 166.973Z" fill="#ECF1FE"/>
<path d="M214.831 211.737C214.831 215.312 203.683 225.619 189.93 225.619C176.177 225.619 165.029 215.312 165.029 211.737C165.029 208.161 176.177 205.262 189.93 205.262C203.683 205.262 214.831 208.161 214.831 211.737Z" fill="#120802"/>
<ellipse cx="151.979" cy="168.222" rx="14.9647" ry="23.3449" fill="#120802"/>
<ellipse cx="156.944" cy="160.129" rx="4.98823" ry="7.78164" fill="#ECF1FE"/>
<ellipse cx="227.928" cy="168.222" rx="14.9647" ry="23.3449" fill="#120802"/>
<ellipse cx="232.893" cy="160.129" rx="4.98823" ry="7.78164" fill="#ECF1FE"/>
<path d="M132.657 122.466L136.458 121.226C146.404 117.983 157.114 117.926 167.094 121.061L171.565 122.466" stroke="#120802" stroke-width="5"/>
<path d="M208.606 122.466L212.407 121.226C222.353 117.983 233.063 117.925 243.043 121.061L247.514 122.466" stroke="#120802" stroke-width="5"/>
<path fill-rule="evenodd" clip-rule="evenodd" d="M226.997 240.421C222.307 243.839 216.528 245.859 210.279 245.859C202.34 245.859 195.161 242.6 190.009 237.356C184.857 242.6 177.679 245.859 169.74 245.859C163.49 245.859 157.711 243.839 153.021 240.421C153.47 242.063 154.25 244.092 155.405 246.4C157.339 250.261 160.162 254.573 163.663 258.596C170.757 266.747 180.118 273.153 190.009 273.153C199.9 273.153 209.261 266.747 216.355 258.596C219.856 254.573 222.679 250.261 224.612 246.4C225.768 244.093 226.548 242.063 226.997 240.421ZM227.304 236.212C222.805 240.295 216.833 242.784 210.279 242.784C203.121 242.784 196.656 239.815 192.048 235.043C191.321 234.289 190.64 233.49 190.009 232.651C189.379 233.49 188.698 234.289 187.97 235.043C183.362 239.815 176.898 242.784 169.74 242.784C163.186 242.784 157.213 240.295 152.714 236.211C151.874 235.448 151.085 234.629 150.353 233.76C149.799 234.922 149.497 236.125 149.472 237.358C149.471 237.413 149.47 237.469 149.47 237.524C149.47 247.493 167.62 276.228 190.009 276.228C212.398 276.228 230.548 247.493 230.548 237.524C230.548 237.469 230.547 237.414 230.546 237.358C230.521 236.126 230.219 234.923 229.665 233.761C228.933 234.63 228.144 235.448 227.304 236.212Z" fill="#120802"/>
<path d="M210.279 245.859C216.528 245.859 222.307 243.839 226.997 240.421C226.548 242.063 225.768 244.093 224.612 246.4C222.679 250.261 219.856 254.573 216.355 258.596C209.261 266.747 199.9 273.153 190.009 273.153C180.118 273.153 170.757 266.747 163.663 258.596C160.162 254.573 157.339 250.261 155.405 246.4C154.25 244.092 153.47 242.063 153.021 240.421C157.711 243.839 163.49 245.859 169.74 245.859C177.679 245.859 184.857 242.6 190.009 237.356C195.161 242.6 202.34 245.859 210.279 245.859Z" fill="#120802"/>
<path d="M211.755 263.161C205.435 257.914 197.912 254.177 189.837 254.177C181.763 254.177 174.24 257.914 167.92 263.161C174.283 269.016 181.889 273.153 189.837 273.153C197.786 273.153 205.392 269.016 211.755 263.161Z" fill="#FB9197"/>
<path fill-rule="evenodd" clip-rule="evenodd" d="M63.2049 0H318.347C323.096 0 327.133 3.46768 327.85 8.16212L339.872 86.9078C340.761 92.7275 336.257 97.9715 330.37 97.9715H50.5816C44.6655 97.9715 40.1534 92.6785 41.0898 86.837L53.7132 8.09134C54.4606 3.42914 58.4832 0 63.2049 0ZM63.2049 4.57221C60.729 4.57221 58.6197 6.37035 58.2278 8.81505L45.6044 87.5607C45.1134 90.6238 47.4794 93.3993 50.5816 93.3993H330.37C333.457 93.3993 335.818 90.6495 335.353 87.5978L323.33 8.85217C322.954 6.39055 320.837 4.57221 318.347 4.57221H63.2049Z" fill="#120802"/>
<path d="M58.2278 8.81505C58.6197 6.37035 60.729 4.57221 63.2049 4.57221H318.347C320.837 4.57221 322.954 6.39055 323.33 8.85217L335.353 87.5978C335.818 90.6495 333.457 93.3993 330.37 93.3993H50.5816C47.4794 93.3993 45.1134 90.6238 45.6044 87.5607L58.2278 8.81505Z" fill="#3BA99C"/>
<path fill-rule="evenodd" clip-rule="evenodd" d="M47.3453 81.3683H333.561C336.895 81.3683 339.991 83.0956 341.742 85.9327L379.459 147.049C383.412 153.453 378.804 161.71 371.279 161.71H9.62813C2.10223 161.71 -2.50482 153.453 1.44763 147.049L39.1648 85.9327C40.9157 83.0956 44.0115 81.3683 47.3453 81.3683ZM47.3453 85.9405C45.5972 85.9405 43.9738 86.8463 43.0557 88.3339L5.33854 149.45C3.266 152.808 5.68179 157.138 9.62813 157.138H371.279C375.225 157.138 377.641 152.808 375.568 149.45L337.851 88.3339C336.933 86.8463 335.31 85.9405 333.561 85.9405H47.3453Z" fill="#120802"/>
<path d="M43.0557 88.3339C43.9738 86.8463 45.5972 85.9405 47.3453 85.9405H333.561C335.31 85.9405 336.933 86.8463 337.851 88.3339L375.568 149.45C377.641 152.808 375.225 157.138 371.279 157.138H9.62813C5.68179 157.138 3.266 152.808 5.33854 149.45L43.0557 88.3339Z" fill="#3BA99C"/>
<path fill-rule="evenodd" clip-rule="evenodd" d="M252.436 59.5075H316.504V96.1139H252.436V59.5075ZM257.008 64.0797V91.5417H311.932V64.0797H257.008Z" fill="#120802"/>
<path d="M257.008 64.0797H311.932V91.5417H257.008V64.0797Z" fill="#120802"/>
<path fill-rule="evenodd" clip-rule="evenodd" d="M299.676 76.4857V68.8591L309.598 78.7884C310.124 79.3145 310.977 79.3145 311.502 78.7884L311.597 78.6932C312.123 78.1671 312.123 77.3142 311.597 76.7881L299.223 64.4055C298.763 63.9452 298.053 63.8877 297.53 64.2329C297.456 64.2822 297.385 64.3398 297.319 64.4055L297.224 64.5008L297.222 64.5028L284.944 76.7882C284.74 76.9923 284.616 77.2456 284.57 77.5099C284.544 77.6134 284.531 77.7215 284.531 77.8328V77.9675C284.531 78.7115 285.134 79.3146 285.877 79.3146H294.699L284.945 89.0755C284.419 89.6016 284.419 90.4545 284.945 90.9805L285.04 91.0758C285.565 91.6018 286.418 91.6018 286.944 91.0758L296.849 81.1643V90.1246C296.849 90.8686 297.451 91.4717 298.195 91.4717H298.329C299.073 91.4717 299.676 90.8686 299.676 90.1246V79.3146H304.589C305.333 79.3146 305.935 78.7115 305.935 77.9675V77.8328C305.935 77.0888 305.333 76.4857 304.589 76.4857H299.676ZM289.245 76.4857H296.849V68.8769L289.245 76.4857Z" fill="#3BA99C"/>
<path fill-rule="evenodd" clip-rule="evenodd" d="M281.712 65.3571C281.712 64.6137 282.314 64.011 283.057 64.011H283.192C283.935 64.011 284.537 64.6137 284.537 65.3571V78.2461L284.558 78.2674L284.537 78.2887V90.1256C284.537 90.869 283.935 91.4717 283.192 91.4717H283.057C282.314 91.4717 281.712 90.869 281.712 90.1256V81.1155L271.764 91.0672C271.238 91.5929 270.386 91.5929 269.861 91.0672L257.492 78.6932C257.426 78.6275 257.369 78.5567 257.319 78.482C257.171 78.2572 257.097 77.9976 257.098 77.7381C257.098 77.6531 257.106 77.568 257.122 77.4842C257.172 77.2297 257.295 76.9866 257.492 76.7895L269.861 64.4155C270.386 63.8898 271.238 63.8898 271.764 64.4155L271.859 64.5107C272.052 64.7036 272.174 64.9406 272.225 65.1892V76.3279H281.712V65.3571ZM269.4 76.3279H265.026C264.283 76.3279 263.681 76.9306 263.681 77.674V77.8086C263.681 78.5521 264.283 79.1548 265.026 79.1548H269.4V86.7552L260.463 77.815L269.4 68.8748V76.3279ZM272.225 86.6079V79.1548H279.675L272.225 86.6079Z" fill="#3BA99C"/>
</svg>
