<svg width="616" height="546" viewBox="0 0 616 546" fill="none" xmlns="http://www.w3.org/2000/svg">
<path fill-rule="evenodd" clip-rule="evenodd" d="M85.7998 264.9C85.7998 288.593 66.5928 307.8 42.8999 307.8C19.2069 307.8 0 288.593 0 264.9C0 241.207 19.2069 222 42.8999 222C66.5928 222 85.7998 241.207 85.7998 264.9ZM42.8999 302.8C63.8314 302.8 80.7998 285.831 80.7998 264.9C80.7998 243.968 63.8314 227 42.8999 227C21.9684 227 5 243.968 5 264.9C5 285.831 21.9684 302.8 42.8999 302.8Z" fill="#11122C"/>
<path d="M80.7998 264.9C80.7998 285.831 63.8314 302.8 42.8999 302.8C21.9684 302.8 5 285.831 5 264.9C5 243.968 21.9684 227 42.8999 227C63.8314 227 80.7998 243.968 80.7998 264.9Z" fill="#ECF1FE"/>
<path d="M33.8024 291.883C54.734 291.883 71.7023 274.915 71.7023 253.983C71.7023 247.32 69.9829 241.059 66.9635 235.618C75.412 242.569 80.7997 253.105 80.7997 264.9C80.7997 285.831 63.8313 302.8 42.8998 302.8C28.6314 302.8 16.2045 294.915 9.73877 283.265C16.2837 288.65 24.6655 291.883 33.8024 291.883Z" fill="#BFCFFA"/>
<path fill-rule="evenodd" clip-rule="evenodd" d="M599.226 456.222C541.438 507.679 465.654 539.492 382.22 540.948C197.542 544.172 45.1369 397.452 41.164 212.964C41.1566 212.618 41.1497 212.273 41.1433 211.927C41.1409 211.807 41.1387 211.687 41.1367 211.568C39.5208 118.996 113.255 42.6419 205.827 41.0261C298.398 39.4102 374.752 113.144 376.368 205.716C376.446 210.192 376.641 214.638 376.949 219.052C377.066 220.734 377.2 222.411 377.351 224.083C378.966 223.714 380.617 223.439 382.297 223.262C383.752 223.11 385.228 223.031 386.723 223.031C409.87 223.031 428.634 241.795 428.634 264.942C428.634 282.164 418.245 296.96 403.393 303.406C401.867 304.068 400.294 304.642 398.68 305.122C398.858 305.513 399.037 305.904 399.216 306.295C399.74 307.434 400.272 308.568 400.812 309.698C437.219 385.831 510.74 440.596 597.563 450.997C599.767 451.261 601.979 451.497 604.2 451.703C602.557 453.226 600.899 454.732 599.226 456.222ZM405.512 307.936C442.172 384.249 516.909 438.565 604.663 446.724L615.809 447.761L607.599 455.37C548.351 510.283 469.434 544.426 382.307 545.947C194.525 549.225 39.619 399.754 36.1442 212.021C36.1418 211.9 36.1395 211.777 36.1374 211.655M405.512 307.936C422.064 300.693 433.634 284.174 433.634 264.942C433.634 239.034 412.631 218.031 386.723 218.031C385.099 218.031 383.492 218.114 381.907 218.276C381.622 214.089 381.441 209.873 381.367 205.629C379.703 110.296 301.072 34.3628 205.739 36.0268C110.407 37.6909 34.4739 116.323 36.1374 211.655" fill="#11122C"/>
<path d="M382.22 540.948C465.654 539.492 541.438 507.679 599.226 456.222C600.899 454.732 602.557 453.226 604.2 451.703C601.979 451.497 599.767 451.261 597.563 450.997C510.74 440.596 437.219 385.831 400.812 309.698C400.272 308.568 399.74 307.434 399.216 306.295C399.037 305.904 398.858 305.513 398.68 305.122C400.294 304.642 401.867 304.068 403.393 303.406C418.245 296.96 428.634 282.164 428.634 264.942C428.634 241.795 409.87 223.031 386.723 223.031C385.228 223.031 383.752 223.11 382.297 223.262C380.617 223.439 378.966 223.714 377.351 224.083C377.2 222.411 377.066 220.734 376.949 219.052C376.641 214.638 376.446 210.192 376.368 205.716C374.752 113.144 298.398 39.4102 205.827 41.0261C113.255 42.6419 39.5208 118.996 41.1367 211.568C41.1387 211.687 41.1409 211.807 41.1433 211.927C41.1497 212.273 41.1566 212.618 41.164 212.964C45.1369 397.452 197.542 544.172 382.22 540.948Z" fill="#ECF1FE"/>
<path fill-rule="evenodd" clip-rule="evenodd" d="M381.249 298.701C406.162 298.701 426.357 279.882 426.357 256.668C426.357 254.235 426.136 251.851 425.71 249.531C427.597 254.301 428.634 259.5 428.634 264.942C428.634 288.088 409.87 306.852 386.723 306.852C372.515 306.852 359.957 299.781 352.378 288.966C360.201 295.044 370.266 298.701 381.249 298.701Z" fill="#BFCFFA"/>
<path d="M601.8 451.468C543.81 476.796 475.234 491.439 401.752 491.439C268.649 491.439 151.644 443.395 84.4868 370.83C143.106 474.241 255.006 543.168 382.22 540.948C468.07 539.449 545.82 505.811 604.2 451.703C603.399 451.628 602.599 451.55 601.8 451.468Z" fill="#BFCFFA"/>
<path fill-rule="evenodd" clip-rule="evenodd" d="M287.123 184.047C287.123 200.981 273.396 214.708 256.462 214.708C239.529 214.708 225.801 200.981 225.801 184.047C225.801 167.114 239.529 153.386 256.462 153.386C273.396 153.386 287.123 167.114 287.123 184.047ZM256.462 211.708C271.739 211.708 284.123 199.324 284.123 184.047C284.123 168.771 271.739 156.386 256.462 156.386C241.185 156.386 228.801 168.771 228.801 184.047C228.801 199.324 241.185 211.708 256.462 211.708Z" fill="#11122C"/>
<path d="M284.123 184.047C284.123 199.324 271.739 211.708 256.462 211.708C241.185 211.708 228.801 199.324 228.801 184.047C228.801 168.771 241.185 156.386 256.462 156.386C271.739 156.386 284.123 168.771 284.123 184.047Z" fill="#11122C"/>
<path d="M256.462 176.503C256.462 183.447 250.833 189.076 243.889 189.076C236.945 189.076 231.316 183.447 231.316 176.503C231.316 169.559 236.945 163.93 243.889 163.93C250.833 163.93 256.462 169.559 256.462 176.503Z" fill="#ECF1FE"/>
<path fill-rule="evenodd" clip-rule="evenodd" d="M153.01 184.047C153.01 200.981 139.283 214.708 122.349 214.708C105.416 214.708 91.6882 200.981 91.6882 184.047C91.6882 167.114 105.416 153.386 122.349 153.386C139.283 153.386 153.01 167.114 153.01 184.047ZM122.349 211.708C137.626 211.708 150.01 199.324 150.01 184.047C150.01 168.771 137.626 156.386 122.349 156.386C107.072 156.386 94.6882 168.771 94.6882 184.047C94.6882 199.324 107.072 211.708 122.349 211.708Z" fill="#11122C"/>
<path d="M150.01 184.047C150.01 199.324 137.626 211.708 122.349 211.708C107.072 211.708 94.6882 199.324 94.6882 184.047C94.6882 168.771 107.072 156.386 122.349 156.386C137.626 156.386 150.01 168.771 150.01 184.047Z" fill="#11122C"/>
<path d="M122.349 176.503C122.349 183.447 116.72 189.076 109.776 189.076C102.832 189.076 97.2026 183.447 97.2026 176.503C97.2026 169.559 102.832 163.93 109.776 163.93C116.72 163.93 122.349 169.559 122.349 176.503Z" fill="#ECF1FE"/>
<path fill-rule="evenodd" clip-rule="evenodd" d="M214.875 295.089C208.883 303.238 200.359 308.587 190.667 308.587C180.976 308.587 172.452 303.238 166.46 295.089C160.467 286.938 156.851 275.823 156.851 263.677C156.851 251.531 160.467 240.415 166.46 232.265C172.452 224.115 180.976 218.767 190.667 218.767C200.359 218.767 208.883 224.115 214.875 232.265C220.868 240.415 224.484 251.531 224.484 263.677C224.484 275.823 220.868 286.938 214.875 295.089ZM190.667 305.587C207.687 305.587 221.484 286.823 221.484 263.677C221.484 240.53 207.687 221.767 190.667 221.767C173.648 221.767 159.851 240.53 159.851 263.677C159.851 286.823 173.648 305.587 190.667 305.587Z" fill="#11122C"/>
<path d="M221.484 263.677C221.484 286.823 207.687 305.587 190.667 305.587C173.648 305.587 159.851 286.823 159.851 263.677C159.851 240.53 173.648 221.767 190.667 221.767C207.687 221.767 221.484 240.53 221.484 263.677Z" fill="#11122C"/>
<path d="M165.849 288.525C173.137 276.163 186.589 267.868 201.979 267.868C208.757 267.868 215.16 269.477 220.826 272.335C217.893 291.327 205.505 305.587 190.667 305.587C180.487 305.587 171.46 298.874 165.849 288.525Z" fill="#FECACC"/>
<path d="M201.979 267.868C186.589 267.868 173.137 276.163 165.849 288.525C165.861 288.547 165.873 288.57 165.885 288.592C172.061 285.008 179.236 282.956 186.891 282.956C196.861 282.956 206.017 286.437 213.212 292.25C216.964 286.776 219.652 279.934 220.826 272.335C215.16 269.477 208.757 267.868 201.979 267.868Z" fill="#FB9197"/>
<path fill-rule="evenodd" clip-rule="evenodd" d="M69.1185 0H348.133C353.326 0 357.741 3.79212 358.525 8.92579L371.672 95.0391C372.643 101.403 367.718 107.138 361.28 107.138H55.3141C48.8444 107.138 43.9102 101.35 44.9343 94.9617L58.7387 8.84839C59.556 3.74998 63.955 0 69.1185 0ZM69.1185 5C66.4109 5 64.1042 6.96637 63.6757 9.63981L49.8712 95.7531C49.3343 99.1028 51.9216 102.138 55.3141 102.138H361.28C364.656 102.138 367.238 99.1309 366.729 95.7937L353.582 9.6804C353.171 6.98846 350.856 5 348.133 5H69.1185Z" fill="#11122C"/>
<path d="M63.6757 9.63981C64.1042 6.96637 66.4109 5 69.1185 5H348.133C350.856 5 353.171 6.98846 353.582 9.6804L366.729 95.7937C367.238 99.1309 364.656 102.138 361.28 102.138H55.3141C51.9216 102.138 49.3343 99.1028 49.8712 95.7531L63.6757 9.63981Z" fill="#4B63AA"/>
<path fill-rule="evenodd" clip-rule="evenodd" d="M51.7751 88.9813H364.77C368.416 88.9813 371.801 90.8703 373.716 93.9728L414.962 160.807C419.284 167.81 414.246 176.84 406.016 176.84H10.529C2.29892 176.84 -2.73917 167.81 1.58308 160.807L42.8292 93.9728C44.7439 90.8703 48.1293 88.9813 51.7751 88.9813ZM51.7751 93.9813C49.8634 93.9813 48.0882 94.9718 47.0842 96.5987L5.83803 163.433C3.57157 167.105 6.2134 171.84 10.529 171.84H406.016C410.332 171.84 412.974 167.105 410.707 163.433L369.461 96.5987C368.457 94.9718 366.682 93.9813 364.77 93.9813H51.7751Z" fill="#11122C"/>
<path d="M47.0842 96.5987C48.0882 94.9718 49.8634 93.9813 51.7751 93.9813H364.77C366.682 93.9813 368.457 94.9718 369.461 96.5987L410.707 163.433C412.974 167.105 410.332 171.84 406.016 171.84H10.529C6.2134 171.84 3.57157 167.105 5.83803 163.433L47.0842 96.5987Z" fill="#4B63AA"/>
<path fill-rule="evenodd" clip-rule="evenodd" d="M276.054 65.0752H346.117V105.107H276.054V65.0752ZM281.054 70.0752V100.107H341.117V70.0752H281.054Z" fill="#11122C"/>
<path d="M281.054 70.0752H341.117V100.107H281.054V70.0752Z" fill="#11122C"/>
<path fill-rule="evenodd" clip-rule="evenodd" d="M327.714 83.6419V75.3017L338.565 86.16C339.14 86.7353 340.072 86.7353 340.647 86.16L340.751 86.0559C341.326 85.4806 341.326 84.5479 340.751 83.9726L327.219 70.4315C326.716 69.9281 325.939 69.8652 325.368 70.2427C325.286 70.2966 325.209 70.3596 325.137 70.4315L325.033 70.5356L325.031 70.5378L311.604 83.9726C311.381 84.1958 311.245 84.4729 311.195 84.7619C311.167 84.8751 311.152 84.9933 311.152 85.115V85.2623C311.152 86.0759 311.811 86.7354 312.624 86.7354H322.272L311.605 97.4096C311.03 97.9849 311.03 98.9176 311.605 99.4929L311.709 99.5971C312.284 100.172 313.216 100.172 313.791 99.5971L324.622 88.7583V98.5569C324.622 99.3705 325.281 100.03 326.094 100.03H326.242C327.055 100.03 327.714 99.3705 327.714 98.5569V86.7354H333.087C333.9 86.7354 334.559 86.0759 334.559 85.2623V85.115C334.559 84.3015 333.9 83.6419 333.087 83.6419H327.714ZM316.307 83.6419H324.622V75.3211L316.307 83.6419Z" fill="#4B63AA"/>
<path fill-rule="evenodd" clip-rule="evenodd" d="M308.069 71.4721C308.069 70.6591 308.728 70 309.54 70H309.688C310.5 70 311.159 70.6591 311.159 71.4721V85.567L311.182 85.5903L311.159 85.6135V98.5579C311.159 99.3709 310.5 100.03 309.688 100.03H309.54C308.728 100.03 308.069 99.3709 308.069 98.5579V88.7049L297.191 99.5876C296.616 100.163 295.684 100.163 295.11 99.5876L281.583 86.0559C281.511 85.984 281.449 85.9066 281.395 85.825C281.232 85.5791 281.152 85.2952 281.152 85.0115C281.153 84.9185 281.162 84.8255 281.179 84.7338C281.233 84.4555 281.368 84.1897 281.583 83.9741L295.11 70.4424C295.684 69.8675 296.616 69.8675 297.191 70.4424L297.295 70.5465C297.506 70.7575 297.639 71.0166 297.695 71.2885V83.4693H308.069V71.4721ZM294.605 83.4693H289.823C289.01 83.4693 288.351 84.1284 288.351 84.9414V85.0886C288.351 85.9016 289.01 86.5607 289.823 86.5607H294.605V94.8722L284.832 85.0955L294.605 75.3189V83.4693ZM297.695 94.7111V86.5607H305.842L297.695 94.7111Z" fill="#4B63AA"/>
</svg>
