<svg width="405" height="544" viewBox="0 0 405 544" fill="none" xmlns="http://www.w3.org/2000/svg">
<path fill-rule="evenodd" clip-rule="evenodd" d="M151.426 513.1C143.963 517.602 134.099 519.611 123.755 519.611C113.412 519.611 103.547 517.602 96.0847 513.1C88.415 508.473 83.2682 501.141 83.2682 491.287C83.2682 481.96 87.8989 471.591 94.9102 463.638C101.96 455.64 112.096 449.329 123.755 449.329C135.415 449.329 145.551 455.64 152.6 463.638C159.612 471.591 164.242 481.96 164.242 491.287C164.242 501.141 159.096 508.473 151.426 513.1ZM123.755 514.584C143.339 514.584 159.215 506.912 159.215 491.287C159.215 475.662 143.339 454.356 123.755 454.356C104.172 454.356 88.2959 475.662 88.2959 491.287C88.2959 506.912 104.172 514.584 123.755 514.584Z" fill="#08090C"/>
<path d="M159.215 491.287C159.215 506.912 143.339 514.584 123.755 514.584C104.172 514.584 88.2959 506.912 88.2959 491.287C88.2959 475.662 104.172 454.356 123.755 454.356C143.339 454.356 159.215 475.662 159.215 491.287Z" fill="#919AB6"/>
<path fill-rule="evenodd" clip-rule="evenodd" d="M306.931 513.1C299.469 517.602 289.604 519.611 279.261 519.611C268.917 519.611 259.053 517.602 251.59 513.1C243.921 508.473 238.774 501.141 238.774 491.287C238.774 481.96 243.404 471.591 250.416 463.638C257.465 455.64 267.602 449.329 279.261 449.329C290.92 449.329 301.056 455.64 308.106 463.638C315.117 471.591 319.748 481.96 319.748 491.287C319.748 501.141 314.601 508.473 306.931 513.1ZM279.261 514.584C298.845 514.584 314.72 506.912 314.72 491.287C314.72 475.662 298.845 454.356 279.261 454.356C259.677 454.356 243.801 475.662 243.801 491.287C243.801 506.912 259.677 514.584 279.261 514.584Z" fill="#08090C"/>
<path d="M314.72 491.287C314.72 506.912 298.845 514.584 279.261 514.584C259.677 514.584 243.801 506.912 243.801 491.287C243.801 475.662 259.677 454.356 279.261 454.356C298.845 454.356 314.72 475.662 314.72 491.287Z" fill="#919AB6"/>
<path fill-rule="evenodd" clip-rule="evenodd" d="M54.6706 142.833C51.3941 139.863 48.682 136.287 46.7346 132.111C44.2606 126.805 42.3705 119.08 41.2426 110.554C40.1034 101.942 39.6954 92.1574 40.3749 82.5704C41.0519 73.0182 42.8248 63.4287 46.1937 55.334C49.5498 47.2702 54.72 40.1682 62.4933 36.5434C70.2666 32.9187 79.0304 33.5232 87.3649 36.1356C95.7313 38.758 104.217 43.5639 111.969 49.1853C119.75 54.8272 126.984 61.4294 132.848 67.8373C137.123 72.5085 140.8 77.2168 143.429 81.4928C161.559 75.3161 181.031 71.7589 201.319 71.7589C221.72 71.7589 241.296 75.3557 259.511 81.596C262.145 77.2927 265.846 72.5463 270.155 67.8376C276.02 61.4296 283.253 54.8274 291.034 49.1855C298.787 43.5641 307.272 38.7582 315.638 36.1358C323.973 33.5234 332.737 32.9189 340.51 36.5437C348.283 40.1684 353.454 47.2705 356.81 55.3343C360.179 63.429 361.951 73.0184 362.629 82.5706C363.308 92.1577 362.9 101.943 361.761 110.554C360.633 119.081 358.743 126.806 356.269 132.111C354.28 136.376 351.494 140.015 348.123 143.022C367.833 167.048 379.639 193.993 379.639 218.169C379.639 250.658 358.421 274.342 326.065 289.642C319.083 292.944 311.545 295.878 303.531 298.448C323.789 332.179 336.13 372.609 336.178 407.599C336.179 407.664 336.179 407.729 336.179 407.793C336.18 407.962 336.18 408.132 336.18 408.301C336.18 414.831 335.75 421.094 334.918 427.086C341.258 424.843 344.54 422.537 346.182 420.947C347.699 419.479 348.821 417.599 349.155 414.022C349.513 410.18 348.94 404.487 346.758 395.676C345.473 390.489 344.063 385.738 342.492 380.444L342.483 380.414C341.376 376.688 340.194 372.705 338.948 368.194C336.224 358.33 333.499 346.815 333.086 335.082C332.662 323.048 334.627 309.773 342.192 297.257C346.759 289.7 352.888 283.218 360.418 277.734C371.678 269.535 385.963 275.938 391.069 287.193C396.507 299.183 389.628 311.344 383.133 319.2C382.561 319.892 382.105 320.547 381.736 321.157C380.07 323.914 379.057 327.617 379.263 333.456C379.479 339.601 380.994 346.868 383.486 355.895C384.304 358.854 385.306 362.252 386.374 365.875L386.393 365.939C388.181 372.003 390.15 378.677 391.609 384.569C396.224 403.205 400.938 432.248 378.321 454.144C367.923 464.21 353.72 470.599 336.809 474.564C329.873 476.19 322.217 477.47 313.791 478.409C313.881 478.36 313.927 478.3 313.93 478.231C313.884 478.29 313.837 478.35 313.791 478.409C308.675 484.956 302.781 490.818 296.213 495.99C271.583 515.384 237.895 524.757 201.209 524.757C164.522 524.757 130.834 515.384 106.205 495.99C81.4248 476.477 66.2374 447.137 66.2374 408.301L66.2377 408.052L66.2374 407.804C66.2374 372.746 78.6021 332.196 98.9211 298.388C90.9761 295.832 83.5013 292.919 76.5733 289.642C44.2171 274.342 23 250.658 23 218.169C23 193.93 34.8676 166.906 54.6706 142.833ZM317.827 472.861C324.28 472.014 330.215 470.951 335.663 469.674C346.042 467.241 355.156 463.913 362.861 459.464C351.176 456.39 339.225 454.948 327.317 455.281C324.686 461.56 321.506 467.421 317.827 472.861ZM329.297 395.836C329.836 396.356 330.367 396.882 330.89 397.413C331.128 400.925 331.249 404.393 331.249 407.804C331.249 408.855 331.238 409.898 331.215 410.933C316.565 409.43 300.915 413.362 286.929 422.056C301.074 420.209 315.893 422.147 329.711 428.098C328.196 437.702 325.591 446.54 322.024 454.615C301.969 450.128 278.084 454.285 255.045 466.159C273.865 464.632 292.419 468.011 308.636 476.472C285.216 505.164 245.838 519.348 201.208 519.348C156.733 519.348 117.473 505.262 94.0246 476.771C110.376 468.09 129.143 464.614 148.183 466.159C124.861 454.139 100.672 450.027 80.4664 454.785C76.8661 446.675 74.2377 437.794 72.7113 428.138C87.1843 421.373 102.879 419.099 117.822 421.051C103.086 411.89 86.5014 408.016 71.1868 410.217C71.1733 409.417 71.1665 408.613 71.1665 407.804C71.1665 404.683 71.2678 401.515 71.4671 398.309C72.2692 397.472 73.0904 396.647 73.9307 395.836C93.826 376.623 120.721 368.406 148.183 370.634C123.931 358.135 98.7401 354.187 78.0672 359.872C79.8778 353.254 82.0196 346.632 84.4679 340.077C101.824 328.387 122.008 324.054 140.98 326.532C126.526 317.547 110.293 313.647 95.2251 315.578C97.9264 310.264 100.825 305.063 103.907 300.02L103.728 299.965L103.774 299.888C131.903 308.233 165.474 312.31 201.319 312.31C237.008 312.31 270.444 308.269 298.497 299.997C301.532 304.963 304.389 310.081 307.056 315.31C292.711 314.096 277.474 318.046 263.823 326.532C281.657 324.202 300.562 327.892 317.183 338.053C319.923 345.19 322.302 352.416 324.286 359.638C303.779 354.3 278.956 358.311 255.045 370.634C282.506 368.406 309.402 376.623 329.297 395.836ZM344.878 139.175C347.734 136.603 350.06 133.529 351.712 129.986C360.37 111.42 363.234 52.6872 338.385 41.1002C315.474 30.4164 277.001 63.546 264.356 83.3296C269.814 85.3659 275.141 87.6381 280.324 90.1197C281.891 87.7049 283.927 85.15 286.206 82.6597C289.691 78.8516 293.985 74.932 298.613 71.5764C303.213 68.2408 308.329 65.3272 313.456 63.7201C318.552 62.1229 324.196 61.6602 329.328 64.0531C334.46 66.4461 337.734 71.0674 339.785 75.9976C341.85 80.9581 342.906 86.75 343.308 92.418C343.712 98.1202 343.47 103.929 342.793 109.046C342.127 114.081 340.996 118.789 339.438 122.13C338.29 124.593 336.734 126.716 334.88 128.506C338.385 131.972 341.722 135.536 344.878 139.175ZM64.6181 41.1C87.4875 30.4358 125.86 63.4237 138.577 83.2199C132.771 85.3755 127.111 87.7983 121.615 90.4563C122.391 90.081 123.17 89.7103 123.953 89.3445C122.478 87.1931 120.661 84.9522 118.655 82.7613C115.17 78.9531 110.876 75.0335 106.248 71.6778C101.648 68.3422 96.5322 65.4286 91.4052 63.8215C86.3094 62.2243 80.6649 61.7615 75.5332 64.1545C70.4014 66.5475 67.1277 71.1689 65.0758 76.0991C63.0113 81.0597 61.9547 86.8516 61.553 92.5197C61.1488 98.2218 61.3914 104.031 62.0684 109.148C62.7343 114.183 63.8652 118.89 65.4234 122.232C66.33 124.176 67.4902 125.909 68.8509 127.433C65.0058 131.178 61.3564 135.039 57.9211 138.99C55.1587 136.455 52.9038 133.445 51.2911 129.986C42.6336 111.42 39.7697 52.687 64.6181 41.1ZM278.013 94.3769C298.217 104.025 316.198 116.95 331.012 131.512C336.272 136.683 341.133 142.06 345.552 147.571C330.031 145.417 313.251 149.373 298.332 158.648C318.595 156.001 340.215 160.981 358.451 174.23C361.04 176.111 363.492 178.109 365.804 180.21C368.685 186.652 370.911 193.085 372.421 199.405C349.954 189.42 320.353 192.562 292.011 207.17C319.986 204.901 347.385 213.271 367.652 232.843C369.122 234.263 370.534 235.722 371.889 237.218C357.061 284.314 286.334 307.484 201.319 307.484C116.242 307.484 45.4733 284.28 30.7166 237.114C32.0426 235.654 33.4235 234.23 34.8593 232.843C55.1267 213.271 82.525 204.901 110.5 207.17C82.2177 192.593 52.6819 189.433 30.2323 199.342C31.8241 192.702 34.2048 185.938 37.3056 179.169C39.2713 177.447 41.334 175.798 43.4921 174.23C61.7274 160.981 83.3478 156.001 103.611 158.648C88.9404 149.528 72.471 145.551 57.1685 147.468C77.1574 122.584 106.15 100.424 140.253 87.7539C154.525 101.841 165.193 121.401 171.394 143.339C171.9 120.53 168.165 98.9005 160.77 81.4719L160.546 81.5263C170.439 79.1162 180.662 77.5245 191.134 76.8923L200.76 160.256L210.393 76.8289C221.218 77.4111 231.78 79.0203 241.99 81.5014C234.604 98.9249 230.874 120.543 231.379 143.339C237.575 121.42 248.23 101.874 262.483 87.7901C267.788 89.7645 272.97 91.9686 278.013 94.3769ZM371.125 453.814C372.415 452.768 373.65 451.676 374.828 450.536C390.39 435.47 391.825 416.585 389.595 400.233C377.693 398.907 365.408 399.954 353.518 403.479C355.401 415.12 353.645 420.712 349.675 424.556C347.425 426.735 343.539 429.332 336.85 431.729C348.64 436.976 360.221 444.432 371.125 453.814ZM389.469 399.343C376.857 391.896 363.135 387.851 349.807 387.588C349.014 384.765 348.182 381.963 347.311 379.032C347.31 379.028 347.309 379.024 347.308 379.02L347.306 379.015L347.305 379.012L347.304 379.006L347.303 379.004C346.194 375.269 345.022 371.324 343.789 366.857C343.293 365.062 342.801 363.223 342.325 361.349C353.048 355.624 364.7 351.894 376.801 350.118C377.345 352.393 377.963 354.761 378.645 357.232C379.475 360.236 380.488 363.672 381.551 367.276C381.552 367.278 381.552 367.28 381.553 367.282L381.554 367.287L381.555 367.289L381.555 367.29L381.556 367.293L381.557 367.295C383.358 373.403 385.301 379.992 386.734 385.776C387.769 389.957 388.771 394.534 389.469 399.343ZM374.674 338.854C374.449 337.049 374.303 335.311 374.244 333.633C374.014 327.115 375.133 322.374 377.438 318.559C377.932 317.741 378.531 316.884 379.262 315.999C382.238 312.4 384.915 308.309 386.499 304.044L386.466 304.131C386.455 304.161 386.444 304.191 386.433 304.221L386.413 304.272C370.683 303.963 354.601 307.747 339.91 315.861C338.353 322.233 337.896 328.613 338.1 334.743C349.623 333.638 361.986 334.798 374.584 338.104C374.613 338.353 374.642 338.603 374.674 338.854ZM387.595 300.236C376.061 294.708 363.862 291.928 352.058 292.163C355.301 288.375 359.078 284.923 363.374 281.794C371.446 275.916 382.37 280.174 386.495 289.268C388.122 292.855 388.33 296.574 387.595 300.236Z" fill="#08090C"/>
<path d="M331.012 131.512C316.198 116.95 298.217 104.025 278.013 94.3769C272.97 91.9686 267.788 89.7645 262.483 87.7901C248.23 101.874 237.575 121.42 231.379 143.339C230.874 120.543 234.604 98.9249 241.99 81.5014C231.78 79.0203 221.218 77.4111 210.393 76.8289L200.76 160.256L191.134 76.8923C180.662 77.5245 170.439 79.1162 160.546 81.5263L160.77 81.4719C168.165 98.9005 171.9 120.53 171.394 143.339C165.193 121.401 154.525 101.841 140.253 87.7539C106.15 100.424 77.1574 122.584 57.1685 147.468C72.471 145.551 88.9404 149.528 103.611 158.648C83.3478 156.001 61.7274 160.981 43.4921 174.23C41.334 175.798 39.2713 177.447 37.3056 179.169C34.2048 185.938 31.8241 192.702 30.2323 199.342C52.6819 189.433 82.2177 192.593 110.5 207.17C82.525 204.901 55.1267 213.271 34.8593 232.843C33.4235 234.23 32.0426 235.654 30.7166 237.114C45.4733 284.28 116.242 307.484 201.319 307.484C286.334 307.484 357.061 284.314 371.889 237.218C370.534 235.722 369.122 234.263 367.652 232.843C347.385 213.271 319.986 204.901 292.011 207.17C320.353 192.562 349.954 189.42 372.421 199.405C370.911 193.085 368.685 186.652 365.804 180.21C363.492 178.109 361.04 176.111 358.451 174.23C340.215 160.981 318.595 156.001 298.332 158.648C313.251 149.373 330.031 145.417 345.552 147.571C341.133 142.06 336.272 136.683 331.012 131.512Z" fill="#313749"/>
<path d="M138.577 83.2199C125.86 63.4237 87.4875 30.4358 64.6181 41.1C39.7697 52.687 42.6336 111.42 51.2911 129.986C52.9038 133.445 55.1587 136.455 57.9211 138.99C61.3564 135.039 65.0058 131.178 68.8509 127.433C67.4902 125.909 66.33 124.176 65.4234 122.232C63.8652 118.89 62.7343 114.183 62.0684 109.148C61.3914 104.031 61.1488 98.2218 61.553 92.5197C61.9547 86.8516 63.0113 81.0597 65.0758 76.0991C67.1277 71.1689 70.4014 66.5475 75.5332 64.1545C80.6649 61.7615 86.3094 62.2243 91.4052 63.8215C96.5322 65.4286 101.648 68.3422 106.248 71.6778C110.876 75.0335 115.17 78.9531 118.655 82.7613C120.661 84.9522 122.478 87.1931 123.953 89.3445C123.17 89.7103 122.391 90.081 121.615 90.4563C127.111 87.7983 132.771 85.3755 138.577 83.2199Z" fill="#313749"/>
<path d="M351.712 129.986C350.06 133.529 347.734 136.603 344.878 139.175C341.722 135.536 338.385 131.972 334.88 128.506C336.734 126.716 338.29 124.593 339.438 122.13C340.996 118.789 342.127 114.081 342.793 109.046C343.47 103.929 343.712 98.1202 343.308 92.418C342.906 86.75 341.85 80.9581 339.785 75.9976C337.734 71.0674 334.46 66.4461 329.328 64.0531C324.196 61.6602 318.552 62.1229 313.456 63.7201C308.329 65.3272 303.213 68.2408 298.613 71.5764C293.985 74.932 289.691 78.8516 286.206 82.6597C283.927 85.15 281.891 87.7049 280.324 90.1197C275.141 87.6381 269.814 85.3659 264.356 83.3296C277.001 63.546 315.474 30.4164 338.385 41.1002C363.234 52.6872 360.37 111.42 351.712 129.986Z" fill="#313749"/>
<path d="M330.89 397.413C330.367 396.882 329.836 396.356 329.297 395.836C309.402 376.623 282.506 368.406 255.045 370.634C278.956 358.311 303.779 354.3 324.286 359.638C322.302 352.416 319.923 345.19 317.183 338.053C300.562 327.892 281.657 324.202 263.823 326.532C277.474 318.046 292.711 314.096 307.056 315.31C304.389 310.081 301.532 304.963 298.497 299.997C270.444 308.269 237.008 312.31 201.319 312.31C165.474 312.31 131.903 308.233 103.774 299.888L103.728 299.965L103.907 300.02C100.825 305.063 97.9264 310.264 95.2251 315.578C110.293 313.647 126.526 317.547 140.98 326.532C122.008 324.054 101.824 328.387 84.4679 340.077C82.0196 346.632 79.8778 353.254 78.0672 359.872C98.7401 354.187 123.931 358.135 148.183 370.634C120.721 368.406 93.826 376.623 73.9307 395.836C73.0904 396.647 72.2692 397.472 71.4671 398.309C71.2678 401.515 71.1665 404.683 71.1665 407.804C71.1665 408.613 71.1733 409.417 71.1868 410.217C86.5014 408.016 103.086 411.89 117.822 421.051C102.879 419.099 87.1843 421.373 72.7113 428.138C74.2377 437.794 76.8661 446.675 80.4664 454.785C100.672 450.027 124.861 454.139 148.183 466.159C129.143 464.614 110.376 468.09 94.0246 476.771C117.473 505.262 156.733 519.348 201.208 519.348C245.838 519.348 285.216 505.164 308.636 476.472C292.419 468.011 273.865 464.632 255.045 466.159C278.084 454.285 301.969 450.128 322.024 454.615C325.591 446.54 328.196 437.702 329.711 428.098C315.893 422.147 301.074 420.209 286.929 422.056C300.915 413.362 316.565 409.43 331.215 410.933C331.238 409.898 331.249 408.855 331.249 407.804C331.249 404.393 331.128 400.925 330.89 397.413Z" fill="#313749"/>
<path d="M374.828 450.536C373.65 451.676 372.415 452.768 371.125 453.814C360.221 444.432 348.64 436.976 336.85 431.729C343.539 429.332 347.425 426.735 349.675 424.556C353.645 420.712 355.401 415.12 353.518 403.479C365.408 399.954 377.693 398.907 389.595 400.233C391.825 416.585 390.39 435.47 374.828 450.536Z" fill="#313749"/>
<path d="M335.663 469.674C330.215 470.951 324.28 472.014 317.827 472.861C321.506 467.421 324.686 461.56 327.317 455.281C339.225 454.948 351.176 456.39 362.861 459.464C355.156 463.913 346.042 467.241 335.663 469.674Z" fill="#313749"/>
<path d="M349.807 387.588C363.135 387.851 376.857 391.896 389.469 399.343C388.771 394.534 387.769 389.957 386.734 385.776C385.301 379.992 383.358 373.403 381.557 367.295L381.556 367.293L381.555 367.29L381.555 367.289L381.554 367.287L381.553 367.282L381.551 367.276C380.488 363.672 379.475 360.236 378.645 357.232C377.963 354.761 377.345 352.393 376.801 350.118C364.7 351.894 353.048 355.624 342.325 361.349C342.801 363.223 343.293 365.062 343.789 366.857C345.022 371.324 346.194 375.269 347.303 379.004L347.304 379.006L347.305 379.012L347.306 379.015L347.308 379.02L347.311 379.032C348.182 381.963 349.014 384.765 349.807 387.588Z" fill="#313749"/>
<path d="M374.244 333.633C374.303 335.311 374.449 337.049 374.674 338.854C374.642 338.603 374.613 338.353 374.584 338.104C361.986 334.798 349.623 333.638 338.1 334.743C337.896 328.613 338.353 322.233 339.91 315.861C354.601 307.747 370.683 303.963 386.413 304.272L386.433 304.221L386.466 304.131L386.499 304.044C384.915 308.309 382.238 312.4 379.262 315.999C378.531 316.884 377.932 317.741 377.438 318.559C375.133 322.374 374.014 327.115 374.244 333.633Z" fill="#313749"/>
<path d="M352.058 292.163C363.862 291.928 376.061 294.708 387.595 300.236C388.33 296.574 388.122 292.855 386.495 289.268C382.37 280.174 371.446 275.916 363.374 281.794C359.078 284.923 355.301 288.375 352.058 292.163Z" fill="#313749"/>
<path d="M264.113 366.376C261.646 346.931 257.688 327.291 252.561 309.282C236.296 311.308 219.087 312.31 201.319 312.31C183.051 312.31 165.373 311.251 148.706 309.108C143.624 326.92 139.687 346.335 137.206 365.583C137.206 365.583 137.206 365.583 137.206 365.583C137.002 367.162 136.809 368.74 136.625 370.316C140.454 370.214 144.313 370.32 148.183 370.634C148.183 370.634 148.183 370.634 148.183 370.634C144.313 370.32 140.454 370.214 136.625 370.316C135.048 383.839 134.204 397.208 134.204 409.806C134.204 430.156 136.404 447.688 140.345 462.43C140.652 463.576 140.969 464.706 141.296 465.819C149.796 494.712 165.25 512.235 183.883 518.61C189.551 519.102 195.334 519.347 201.208 519.347C206.535 519.347 211.787 519.145 216.945 518.741C235.74 512.481 251.343 494.935 259.905 465.874C260.14 465.076 260.37 464.27 260.594 463.455C260.626 463.338 260.658 463.221 260.69 463.104C261.073 461.698 261.44 460.266 261.791 458.809C261.792 458.805 261.793 458.8 261.794 458.796C265.155 444.832 267.013 428.509 267.013 409.806C267.013 397.197 266.168 383.817 264.588 370.282C264.417 368.81 264.236 367.337 264.047 365.862C264.069 366.033 264.091 366.205 264.113 366.376C264.113 366.376 264.113 366.376 264.113 366.376Z" fill="#919AB6"/>
<path fill-rule="evenodd" clip-rule="evenodd" d="M189.596 537.488C182.133 541.99 172.269 544 161.925 544C151.582 544 141.717 541.99 134.255 537.488C126.585 532.862 121.438 525.529 121.438 515.675C121.438 506.348 126.069 495.98 133.08 488.026C140.13 480.029 150.266 473.717 161.925 473.717C173.584 473.717 183.721 480.029 190.77 488.026C197.782 495.98 202.412 506.348 202.412 515.675C202.412 525.529 197.265 532.862 189.596 537.488ZM161.925 538.972C181.509 538.972 197.385 531.301 197.385 515.675C197.385 500.05 181.509 478.745 161.925 478.745C142.341 478.745 126.466 500.05 126.466 515.675C126.466 531.301 142.341 538.972 161.925 538.972Z" fill="#08090C"/>
<path d="M197.385 515.675C197.385 531.301 181.509 538.972 161.925 538.972C142.341 538.972 126.466 531.301 126.466 515.675C126.466 500.05 142.341 478.745 161.925 478.745C181.509 478.745 197.385 500.05 197.385 515.675Z" fill="#919AB6"/>
<path fill-rule="evenodd" clip-rule="evenodd" d="M266.94 537.488C259.478 541.99 249.613 544 239.269 544C228.926 544 219.061 541.99 211.599 537.488C203.929 532.861 198.782 525.529 198.782 515.675C198.782 506.348 203.413 495.98 210.424 488.026C217.474 480.029 227.61 473.717 239.269 473.717C250.929 473.717 261.065 480.029 268.114 488.026C275.126 495.98 279.756 506.348 279.756 515.675C279.756 525.529 274.61 532.861 266.94 537.488ZM239.269 538.972C258.853 538.972 274.729 531.301 274.729 515.675C274.729 500.05 258.853 478.745 239.269 478.745C219.686 478.745 203.81 500.05 203.81 515.675C203.81 531.301 219.686 538.972 239.269 538.972Z" fill="#08090C"/>
<path d="M274.729 515.675C274.729 531.301 258.853 538.972 239.269 538.972C219.686 538.972 203.81 531.301 203.81 515.675C203.81 500.05 219.686 478.745 239.269 478.745C258.853 478.745 274.729 500.05 274.729 515.675Z" fill="#919AB6"/>
<path d="M287.413 264.123C287.413 294.048 248.599 308.741 200.719 308.741C152.839 308.741 114.025 294.048 114.025 264.123C114.025 234.198 152.839 193.395 200.719 193.395C248.599 193.395 287.413 234.198 287.413 264.123Z" fill="#919AB6"/>
<path d="M201.449 214.54C191.873 214.54 184.11 219.392 184.11 225.377C184.11 230.959 190.864 238.435 199.543 239.415L199.552 240.931C199.552 240.973 199.552 241.016 199.552 241.059C199.552 251.539 192.062 259.715 183.193 259.715C174.506 259.715 167.145 251.875 166.844 241.7L163.829 241.7C163.822 241.937 163.818 242.177 163.818 242.416V242.446C163.825 254.232 172.331 264.104 183.193 264.104C191.718 264.104 198.799 258.012 201.449 249.703C204.099 258.012 211.18 264.104 219.704 264.104C230.571 264.104 239.08 254.224 239.08 242.431C239.08 242.186 239.076 241.943 239.069 241.701L236.054 241.7C235.752 251.876 228.391 259.715 219.704 259.715C210.836 259.715 203.346 251.539 203.346 241.059C203.346 241.035 203.346 241.011 203.346 240.987C203.346 240.968 203.346 240.949 203.346 240.931L203.355 239.415C212.034 238.434 218.788 230.959 218.788 225.377C218.788 219.392 211.025 214.54 201.449 214.54Z" fill="#08090C"/>
<circle cx="148.304" cy="176.906" r="25.6063" fill="#08090C"/>
<ellipse cx="5.33091" cy="7.88419" rx="5.33091" ry="7.88419" transform="matrix(0.909809 -0.415028 0.430286 0.902692 152.926 166.919)" fill="#ECF1FE"/>
<circle cx="257.728" cy="177.267" r="25.6063" fill="#08090C"/>
<ellipse cx="5.33091" cy="7.88419" rx="5.33091" ry="7.88419" transform="matrix(0.909809 -0.415028 0.430286 0.902692 262.346 166.919)" fill="#ECF1FE"/>
<path d="M247.699 230.89C259.058 231.495 274.227 234.053 290.556 238.429C306.885 242.804 321.3 248.173 331.44 253.328C324.991 247.147 309.851 240.022 291.45 235.091C273.05 230.161 256.375 228.761 247.699 230.89Z" fill="#08090C"/>
<path d="M247.163 222.468C257.289 220.113 271.225 218.658 286.609 218.658C301.992 218.658 315.928 220.113 326.054 222.468C318.93 218.166 303.944 215.203 286.609 215.203C269.273 215.203 254.287 218.166 247.163 222.468Z" fill="#08090C"/>
<path d="M246.819 239.32C256.371 242.116 268.623 247.51 281.345 254.855C294.067 262.199 304.864 270.113 312.061 276.988C308.32 269.861 297.409 260.139 283.073 251.862C268.737 243.585 254.862 238.996 246.819 239.32Z" fill="#08090C"/>
<path d="M155.005 230.89C143.647 231.495 128.478 234.053 112.149 238.429C95.8202 242.804 81.4045 248.173 71.2651 253.328C77.7137 247.147 92.8544 240.022 111.255 235.091C129.655 230.161 146.33 228.761 155.005 230.89Z" fill="#08090C"/>
<path d="M155.542 222.468C145.415 220.112 131.48 218.658 116.096 218.658C100.713 218.658 86.7768 220.112 76.6502 222.468C83.7743 218.166 98.761 215.202 116.096 215.202C133.431 215.202 148.418 218.166 155.542 222.468Z" fill="#08090C"/>
<path d="M155.886 239.32C146.334 242.116 134.082 247.509 121.36 254.854C108.638 262.199 97.8407 270.113 90.6439 276.988C94.3844 269.861 105.296 260.139 119.632 251.862C133.968 243.585 147.843 238.996 155.886 239.32Z" fill="#08090C"/>
<path fill-rule="evenodd" clip-rule="evenodd" d="M67.1564 0H338.25C343.296 0 347.586 3.68447 348.347 8.67241L361.121 92.3412C362.065 98.5248 357.279 104.097 351.024 104.097H53.7439C47.4579 104.097 42.6637 98.4727 43.6587 92.266L57.0713 8.5972C57.8654 3.64353 62.1395 0 67.1564 0ZM67.1564 4.85806C64.5257 4.85806 62.2845 6.76862 61.8681 9.36616L48.4555 93.0349C47.9338 96.2896 50.4477 99.2385 53.7439 99.2385H351.024C354.304 99.2385 356.814 96.3168 356.318 93.0744L343.545 9.4056C343.145 6.79008 340.896 4.85806 338.25 4.85806H67.1564Z" fill="#08090C"/>
<path d="M61.8681 9.36616C62.2845 6.76862 64.5257 4.85806 67.1564 4.85806H338.25C340.896 4.85806 343.145 6.79008 343.545 9.4056L356.318 93.0744C356.814 96.3168 354.304 99.2385 351.024 99.2385H53.7439C50.4477 99.2385 47.9338 96.2896 48.4555 93.0349L61.8681 9.36616Z" fill="#4B63AA"/>
<path fill-rule="evenodd" clip-rule="evenodd" d="M50.3053 86.4554H354.415C357.958 86.4554 361.247 88.2907 363.107 91.3051L403.183 156.242C407.382 163.047 402.487 171.82 394.491 171.82H10.2301C2.23366 171.82 -2.66142 163.047 1.53814 156.242L41.6134 91.3051C43.4737 88.2907 46.7631 86.4554 50.3053 86.4554ZM50.3053 91.3134C48.4479 91.3134 46.7231 92.2758 45.7476 93.8565L5.6723 158.793C3.47018 162.362 6.03702 166.962 10.2301 166.962H394.491C398.684 166.962 401.251 162.362 399.048 158.793L358.973 93.8565C357.998 92.2758 356.273 91.3134 354.415 91.3134H50.3053Z" fill="#08090C"/>
<path d="M45.7476 93.8565C46.7231 92.2758 48.4479 91.3134 50.3053 91.3134H354.415C356.273 91.3134 357.998 92.2758 358.973 93.8565L399.048 158.793C401.251 162.362 398.684 166.962 394.491 166.962H10.2301C6.03702 166.962 3.47018 162.362 5.6723 158.793L45.7476 93.8565Z" fill="#4B63AA"/>
<path fill-rule="evenodd" clip-rule="evenodd" d="M268.218 63.2279H336.292V102.123H268.218V63.2279ZM273.076 68.0859V97.2648H331.434V68.0859H273.076Z" fill="#08090C"/>
<path d="M273.076 68.0859H331.434V97.2648H273.076V68.0859Z" fill="#08090C"/>
<path fill-rule="evenodd" clip-rule="evenodd" d="M318.411 81.2676V73.1641L328.954 83.7142C329.513 84.2732 330.419 84.2732 330.977 83.7142L331.078 83.613C331.637 83.0541 331.637 82.1478 331.078 81.5889L317.93 68.4321C317.441 67.943 316.687 67.8819 316.132 68.2487C316.052 68.3011 315.977 68.3623 315.907 68.4321L315.806 68.5333L315.804 68.5355L302.759 81.5889C302.542 81.8058 302.41 82.0749 302.361 82.3558C302.334 82.4657 302.32 82.5806 302.32 82.6988V82.842C302.32 83.6324 302.96 84.2732 303.75 84.2732H313.124L302.759 94.6445C302.2 95.2034 302.2 96.1096 302.759 96.6686L302.86 96.7698C303.419 97.3287 304.324 97.3287 304.883 96.7698L315.407 86.2387V95.7592C315.407 96.5496 316.048 97.1904 316.838 97.1904H316.981C317.771 97.1904 318.411 96.5496 318.411 95.7592V84.2732H323.632C324.422 84.2732 325.062 83.6324 325.062 82.842V82.6988C325.062 81.9084 324.422 81.2676 323.632 81.2676H318.411ZM307.328 81.2676H315.407V73.183L307.328 81.2676Z" fill="#4B63AA"/>
<path fill-rule="evenodd" clip-rule="evenodd" d="M299.324 69.4432C299.324 68.6533 299.964 68.0129 300.754 68.0129H300.897C301.686 68.0129 302.326 68.6533 302.326 69.4432V83.138L302.349 83.1606L302.326 83.1832V95.7602C302.326 96.5501 301.686 97.1904 300.897 97.1904H300.754C299.964 97.1904 299.324 96.5501 299.324 95.7602V86.1868L288.754 96.7606C288.196 97.3192 287.291 97.3192 286.732 96.7606L273.59 83.613C273.52 83.5432 273.459 83.468 273.407 83.3887C273.249 83.1497 273.171 82.8739 273.171 82.5983C273.172 82.5079 273.18 82.4175 273.197 82.3285C273.25 82.058 273.381 81.7998 273.59 81.5903L286.732 68.4427C287.291 67.8842 288.196 67.8842 288.754 68.4427L288.855 68.5438C289.06 68.7489 289.19 69.0006 289.245 69.2648V81.0999H299.324V69.4432ZM286.242 81.0999H281.596C280.806 81.0999 280.166 81.7402 280.166 82.5302V82.6732C280.166 83.4631 280.806 84.1035 281.596 84.1035H286.242V92.179L276.747 82.6799L286.242 73.1808V81.0999ZM289.245 92.0225V84.1035H297.16L289.245 92.0225Z" fill="#4B63AA"/>
</svg>
