<svg width="405" height="544" viewBox="0 0 405 544" fill="none" xmlns="http://www.w3.org/2000/svg">
<path fill-rule="evenodd" clip-rule="evenodd" d="M152.678 514.041C145.201 518.552 135.317 520.565 124.953 520.565C114.589 520.565 104.705 518.552 97.2283 514.041C89.5436 509.405 84.3867 502.058 84.3867 492.185C84.3867 482.84 89.0265 472.451 96.0515 464.482C103.115 456.469 113.271 450.145 124.953 450.145C136.635 450.145 146.792 456.469 153.855 464.482C160.88 472.451 165.52 482.84 165.52 492.185C165.52 502.058 160.363 509.405 152.678 514.041ZM124.953 515.528C144.575 515.528 160.482 507.841 160.482 492.185C160.482 476.529 144.575 455.182 124.953 455.182C105.331 455.182 89.4242 476.529 89.4242 492.185C89.4242 507.841 105.331 515.528 124.953 515.528Z" fill="#08090C"/>
<path d="M160.482 492.185C160.482 507.841 144.575 515.528 124.953 515.528C105.331 515.528 89.4242 507.841 89.4242 492.185C89.4242 476.529 105.331 455.182 124.953 455.182C144.575 455.182 160.482 476.529 160.482 492.185Z" fill="#919AB6"/>
<path fill-rule="evenodd" clip-rule="evenodd" d="M308.489 514.041C301.012 518.552 291.128 520.565 280.764 520.565C270.4 520.565 260.517 518.552 253.039 514.041C245.355 509.405 240.198 502.058 240.198 492.185C240.198 482.84 244.838 472.451 251.863 464.482C258.926 456.469 269.082 450.145 280.764 450.145C292.447 450.145 302.603 456.469 309.666 464.482C316.691 472.451 321.331 482.84 321.331 492.185C321.331 502.058 316.174 509.405 308.489 514.041ZM280.764 515.528C300.387 515.528 316.293 507.841 316.293 492.185C316.293 476.529 300.387 455.182 280.764 455.182C261.142 455.182 245.235 476.529 245.235 492.185C245.235 507.841 261.142 515.528 280.764 515.528Z" fill="#08090C"/>
<path d="M316.293 492.185C316.293 507.841 300.387 515.528 280.764 515.528C261.142 515.528 245.235 507.841 245.235 492.185C245.235 476.529 261.142 455.182 280.764 455.182C300.387 455.182 316.293 476.529 316.293 492.185Z" fill="#919AB6"/>
<path fill-rule="evenodd" clip-rule="evenodd" d="M202 71.8343C222.087 71.9117 241.368 75.4652 259.334 81.5861C261.969 77.3017 265.653 72.5842 269.936 67.9038C275.812 61.4833 283.06 54.8681 290.856 49.2151C298.624 43.5827 307.126 38.7673 315.509 36.1398C323.859 33.5222 332.641 32.9166 340.429 36.5484C348.218 40.1803 353.398 47.2963 356.761 55.3759C360.136 63.4865 361.913 73.0948 362.591 82.6658C363.272 92.2717 362.863 102.076 361.722 110.704C360.591 119.248 358.698 126.988 356.219 132.304C354.268 136.488 351.55 140.071 348.267 143.046C368.109 167.167 380 194.244 380 218.53C380 251.084 358.741 274.814 326.322 290.145C319.38 293.427 311.89 296.347 303.93 298.908C307.89 305.497 311.549 312.342 314.873 319.353C318.848 312.334 324.27 305.802 331.449 300.084C340.543 292.84 351.818 287.407 365.269 283.624C376.432 280.485 386.89 288.334 388.774 299.049C390.716 310.097 383.231 319.828 373.371 322.943C365.431 325.451 360.044 328.445 356.371 331.371C351.172 335.512 348.397 340.304 346.912 346.053C345.308 352.257 345.145 359.914 346.184 369.266C347.083 377.36 348.722 385.568 350.49 394.403C350.775 395.826 351.063 397.266 351.35 398.717C353.283 408.483 355.398 419.76 355.364 430.084C355.33 440.442 353.144 453.771 342.504 463.846C335.482 470.496 326.681 473.914 317.181 475.328C311.418 483.502 304.509 490.695 296.632 496.898C272.079 516.232 238.542 525.625 202 525.72C165.458 525.625 131.921 516.232 107.368 496.898C82.5395 477.347 67.3224 447.949 67.3224 409.036L67.3226 408.787L67.3224 408.538C67.3224 373.412 79.7113 332.782 100.07 298.908C92.1096 296.347 84.6201 293.427 77.6785 290.145C45.2588 274.814 24 251.084 24 218.531C24 194.244 35.8909 167.167 55.7328 143.046C52.4499 140.071 49.7324 136.488 47.7812 132.304C45.3023 126.988 43.4086 119.248 42.2784 110.704C41.137 102.076 40.7282 92.2717 41.409 82.6659C42.0874 73.0949 43.8637 63.4866 47.2393 55.376C50.602 47.2963 55.7823 40.1803 63.5709 36.5485C71.3595 32.9166 80.1405 33.5223 88.4914 36.1398C96.8742 38.7674 105.376 43.5827 113.144 49.2152C120.94 54.8681 128.188 61.4833 134.064 67.9039C138.347 72.5842 142.031 77.3017 144.666 81.5861C162.632 75.4653 181.913 71.9117 202 71.8343Z" fill="#313749"/>
<path fill-rule="evenodd" clip-rule="evenodd" d="M202 71.8343C222.087 71.9117 241.368 75.4652 259.334 81.5861C261.969 77.3017 265.653 72.5842 269.936 67.9038C275.812 61.4833 283.06 54.8681 290.856 49.2151C298.624 43.5827 307.126 38.7673 315.509 36.1398C323.859 33.5222 332.641 32.9166 340.429 36.5484C348.218 40.1803 353.398 47.2963 356.761 55.3759C360.136 63.4865 361.913 73.0948 362.591 82.6658C363.272 92.2717 362.863 102.076 361.722 110.704C360.591 119.248 358.698 126.988 356.219 132.304C354.268 136.488 351.55 140.071 348.267 143.046C368.109 167.167 380 194.244 380 218.53C380 251.084 358.741 274.814 326.322 290.145C319.38 293.427 311.89 296.347 303.93 298.908C307.89 305.497 311.549 312.342 314.873 319.353C318.848 312.334 324.27 305.802 331.449 300.084C340.543 292.84 351.818 287.407 365.269 283.624C376.432 280.485 386.89 288.334 388.774 299.049C390.716 310.097 383.231 319.828 373.371 322.943C365.431 325.451 360.044 328.445 356.371 331.371C351.172 335.512 348.397 340.304 346.912 346.053C345.308 352.257 345.145 359.914 346.184 369.266C347.083 377.36 348.722 385.568 350.49 394.403C350.775 395.826 351.063 397.266 351.35 398.717C353.283 408.483 355.398 419.76 355.364 430.084C355.33 440.442 353.144 453.771 342.504 463.846C335.482 470.496 326.681 473.914 317.181 475.328C311.418 483.502 304.509 490.695 296.632 496.898C272.079 516.232 238.542 525.625 202 525.72C165.458 525.625 131.921 516.232 107.368 496.898C82.5395 477.347 67.3224 447.949 67.3224 409.036L67.3226 408.787L67.3224 408.538C67.3224 373.412 79.7113 332.782 100.07 298.908C92.1096 296.347 84.6201 293.427 77.6785 290.145C45.2588 274.814 24 251.084 24 218.531C24 194.244 35.8909 167.167 55.7328 143.046C52.4499 140.071 49.7324 136.488 47.7812 132.304C45.3023 126.988 43.4086 119.248 42.2784 110.704C41.137 102.076 40.7282 92.2717 41.409 82.6659C42.0874 73.0949 43.8637 63.4866 47.2393 55.376C50.602 47.2963 55.7823 40.1803 63.5709 36.5485C71.3595 32.9166 80.1405 33.5223 88.4914 36.1398C96.8742 38.7674 105.376 43.5827 113.144 49.2152C120.94 54.8681 128.188 61.4833 134.064 67.9039C138.347 72.5842 142.031 77.3017 144.666 81.5861C162.632 75.4653 181.913 71.9117 202 71.8343ZM325.965 460.227C326.042 460.065 326.118 459.903 326.194 459.74C329.73 460.318 333.306 461.106 336.902 462.099C337.645 461.505 338.366 460.878 339.066 460.216C348.255 451.514 350.332 439.852 350.364 430.068C350.369 428.566 350.326 427.038 350.242 425.494C345.431 425.104 340.558 425.169 335.694 425.7C334.151 438.398 330.827 449.912 325.965 460.227ZM336.402 417.982C336.404 417.945 336.406 417.908 336.409 417.871C341.065 419.291 345.667 421.228 350.124 423.66C349.537 415.72 347.971 407.4 346.445 399.688C346.164 398.268 345.882 396.859 345.602 395.459L345.587 395.384C345.097 392.933 344.612 390.511 344.148 388.112C341.263 388.564 338.405 389.129 335.58 389.806C336.304 396.173 336.678 402.439 336.678 408.538L336.677 408.787L336.678 409.036C336.678 412.076 336.585 415.058 336.402 417.982ZM333.074 373.817C336.025 374.329 338.998 374.964 341.985 375.721C341.693 373.747 341.433 371.78 341.215 369.819C340.144 360.179 340.252 351.84 342.071 344.802C343.164 340.572 344.894 336.714 347.563 333.217C339.265 333.717 330.944 335.363 322.854 338.187C327.27 349.966 330.723 361.972 333.074 373.817ZM308.836 477.641C285.439 506.069 246.332 520.183 202 520.3C157.668 520.183 118.561 506.069 95.1641 477.641C111.547 468.943 130.352 465.46 149.429 467.008C126.062 454.965 101.824 450.844 81.5793 455.611C77.972 447.486 75.3384 438.587 73.809 428.913C88.3104 422.134 104.036 419.856 119.008 421.811C104.243 412.633 87.6261 408.751 72.2815 410.956C72.2679 410.155 72.2611 409.349 72.2611 408.538C72.2611 405.412 72.3626 402.237 72.5624 399.025C73.366 398.186 74.1888 397.36 75.0308 396.547C94.9651 377.296 121.913 369.063 149.429 371.296C125.129 358.772 99.8889 354.816 79.1754 360.512C80.9896 353.881 83.1356 347.246 85.5886 340.678C102.979 328.965 123.203 324.624 142.212 327.107C127.729 318.104 111.465 314.197 96.367 316.132C99.0736 310.807 101.978 305.596 105.066 300.542L104.886 300.487L104.933 300.411C132.941 308.72 166.336 312.806 202 312.856C237.664 312.806 271.059 308.72 299.067 300.411L299.114 300.487L298.934 300.542C302.022 305.596 304.926 310.807 307.633 316.132C292.535 314.197 276.271 318.104 261.788 327.107C280.797 324.624 301.021 328.965 318.411 340.678C320.864 347.246 323.01 353.881 324.825 360.512C304.111 354.816 278.871 358.772 254.571 371.296C282.087 369.063 309.035 377.296 328.969 396.547C329.811 397.36 330.634 398.186 331.438 399.025C331.637 402.237 331.739 405.412 331.739 408.538C331.739 409.349 331.732 410.155 331.719 410.956C316.374 408.751 299.757 412.633 284.992 421.811C299.964 419.856 315.69 422.134 330.191 428.913C328.662 438.587 326.028 447.486 322.421 455.611C302.176 450.844 277.938 454.964 254.571 467.008C273.648 465.46 292.453 468.943 308.836 477.641ZM372.268 237.513C357.521 284.648 286.946 307.899 202 308.021C117.054 307.899 46.4787 284.648 31.7318 237.513C33.0604 236.05 34.444 234.623 35.8826 233.234C56.1898 213.623 83.6419 205.236 111.672 207.51C83.3341 192.905 53.7402 189.739 31.2465 199.667C32.8415 193.014 35.2268 186.236 38.3337 179.454C40.3033 177.729 42.37 176.077 44.5324 174.505C62.8034 161.231 84.4664 156.241 104.769 158.893C90.0699 149.755 73.5682 145.77 58.2356 147.691C78.2638 122.758 107.313 100.554 141.484 87.8595C155.783 101.974 166.472 121.573 172.685 143.554C173.192 120.7 169.45 99.0281 162.041 81.5651L161.816 81.6197C171.728 79.2049 181.972 77.61 192.464 76.9766L202 159.557L211.536 76.9766C222.028 77.61 232.272 79.2048 242.184 81.6196L241.959 81.5651C234.55 99.028 230.808 120.7 231.315 143.554C237.528 121.573 248.217 101.974 262.516 87.8595C296.687 100.554 325.736 122.758 345.764 147.691C330.432 145.77 313.93 149.755 299.231 158.892C319.534 156.241 341.197 161.231 359.468 174.505C361.63 176.076 363.697 177.729 365.666 179.454C368.773 186.236 371.159 193.014 372.753 199.667C350.26 189.738 320.666 192.905 292.328 207.51C320.358 205.236 347.81 213.623 368.117 233.234C369.556 234.623 370.94 236.05 372.268 237.513ZM264.196 83.3166C276.937 63.4815 315.386 30.4288 338.3 41.114C363.197 52.7237 360.328 111.572 351.653 130.175C350.037 133.64 347.778 136.656 345.01 139.196C341.568 135.237 337.912 131.369 334.059 127.617C335.422 126.09 336.585 124.353 337.493 122.405C339.055 119.057 340.188 114.34 340.855 109.296C341.533 104.168 341.776 98.348 341.371 92.6347C340.969 86.9555 339.91 81.1521 337.842 76.1818C335.786 71.2419 332.505 66.6114 327.364 64.2138C322.222 61.8161 316.566 62.2798 311.46 63.8801C306.323 65.4903 301.197 68.4097 296.588 71.7519C291.951 75.1141 287.649 79.0415 284.157 82.8571C282.148 85.0523 280.327 87.2976 278.849 89.4533C279.633 89.8198 280.413 90.1912 281.191 90.5672C275.685 87.904 270.014 85.4764 264.196 83.3166ZM139.804 83.3166C127.063 63.4816 88.6142 30.4289 65.6998 41.114C40.8026 52.7237 43.6722 111.572 52.3467 130.175C53.9626 133.64 56.2219 136.656 58.9897 139.196C62.4318 135.237 66.0883 131.369 69.941 127.617C68.5776 126.09 67.4151 124.353 66.5067 122.405C64.9454 119.057 63.8124 114.34 63.1451 109.296C62.4668 104.168 62.2238 98.348 62.6287 92.6347C63.0313 86.9555 64.0899 81.1521 66.1585 76.1819C68.2144 71.2419 71.4946 66.6115 76.6364 64.2138C81.7782 61.8161 87.4338 62.2798 92.5396 63.8802C97.6767 65.4904 102.803 68.4097 107.412 71.7519C112.049 75.1142 116.351 79.0415 119.843 82.8571C121.852 85.0523 123.673 87.2976 125.151 89.4533C124.367 89.8198 123.587 90.1912 122.809 90.5672C128.315 87.904 133.986 85.4764 139.804 83.3166ZM319.672 321.038C330.694 320.671 342.088 322.96 352.977 327.684C353.069 327.609 353.162 327.534 353.256 327.46C357.497 324.081 363.459 320.831 371.865 318.175C371.9 318.164 371.935 318.153 371.97 318.142C365.913 309.127 358.792 301.054 350.772 294.176C344.677 296.965 339.283 300.235 334.564 303.995C328.182 309.078 323.306 314.841 319.672 321.038ZM363.679 289.304C367.446 298.141 370.39 307.776 372.404 317.996C380.014 315.331 385.251 307.887 383.849 299.915C382.415 291.756 374.597 286.195 366.623 288.438C365.628 288.717 364.647 289.006 363.679 289.304Z" fill="#08090C"/>
<path d="M265.586 367.029C263.115 347.545 259.149 327.867 254.012 309.822C237.715 311.853 220.472 312.857 202.67 312.857C184.365 312.857 166.653 311.796 149.953 309.648C144.861 327.496 140.916 346.948 138.43 366.234C138.43 366.234 138.43 366.234 138.43 366.234C138.226 367.817 138.032 369.398 137.848 370.977C141.685 370.874 145.551 370.981 149.429 371.296C149.429 371.296 149.428 371.296 149.429 371.296C145.551 370.981 141.685 370.874 137.848 370.977C136.268 384.527 135.423 397.922 135.423 410.544C135.423 430.934 137.627 448.501 141.576 463.271C141.883 464.42 142.201 465.552 142.529 466.668C151.045 495.617 166.53 513.174 185.199 519.562C190.878 520.055 196.673 520.301 202.558 520.301C207.895 520.301 213.157 520.099 218.326 519.693C237.158 513.421 252.792 495.84 261.37 466.722C261.606 465.923 261.836 465.115 262.061 464.299C262.093 464.182 262.125 464.065 262.157 463.947C262.541 462.538 262.909 461.104 263.26 459.644C263.261 459.639 263.263 459.635 263.264 459.63C266.63 445.639 268.492 429.284 268.492 410.544C268.492 397.911 267.646 384.504 266.063 370.942C265.891 369.468 265.71 367.992 265.521 366.514C265.543 366.686 265.565 366.857 265.586 367.029C265.586 367.029 265.586 367.029 265.586 367.029Z" fill="#919AB6"/>
<path fill-rule="evenodd" clip-rule="evenodd" d="M190.923 537.476C183.446 541.986 173.562 544 163.198 544C152.834 544 142.95 541.986 135.473 537.476C127.788 532.84 122.632 525.493 122.632 515.62C122.632 506.274 127.271 495.886 134.296 487.916C141.36 479.903 151.516 473.579 163.198 473.579C174.88 473.579 185.036 479.903 192.1 487.916C199.125 495.886 203.765 506.274 203.765 515.62C203.765 525.493 198.608 532.84 190.923 537.476ZM163.198 538.963C182.82 538.963 198.727 531.276 198.727 515.62C198.727 499.964 182.82 478.617 163.198 478.617C143.576 478.617 127.669 499.964 127.669 515.62C127.669 531.276 143.576 538.963 163.198 538.963Z" fill="#08090C"/>
<path d="M198.727 515.62C198.727 531.276 182.82 538.963 163.198 538.963C143.576 538.963 127.669 531.276 127.669 515.62C127.669 499.964 143.576 478.617 163.198 478.617C182.82 478.617 198.727 499.964 198.727 515.62Z" fill="#919AB6"/>
<path fill-rule="evenodd" clip-rule="evenodd" d="M268.419 537.476C260.942 541.986 251.058 544 240.694 544C230.33 544 220.446 541.986 212.969 537.476C205.285 532.84 200.128 525.493 200.128 515.62C200.128 506.274 204.767 495.886 211.793 487.916C218.856 479.903 229.012 473.579 240.694 473.579C252.376 473.579 262.533 479.903 269.596 487.916C276.621 495.886 281.261 506.274 281.261 515.62C281.261 525.493 276.104 532.84 268.419 537.476ZM240.694 538.963C260.316 538.963 276.223 531.276 276.223 515.62C276.223 499.964 260.316 478.617 240.694 478.617C221.072 478.617 205.165 499.964 205.165 515.62C205.165 531.276 221.072 538.963 240.694 538.963Z" fill="#08090C"/>
<path d="M276.223 515.62C276.223 531.276 260.316 538.963 240.694 538.963C221.072 538.963 205.165 531.276 205.165 515.62C205.165 499.964 221.072 478.617 240.694 478.617C260.316 478.617 276.223 499.964 276.223 515.62Z" fill="#919AB6"/>
<path d="M288.933 264.575C288.933 294.559 250.042 309.281 202.068 309.281C154.094 309.281 115.204 294.559 115.204 264.575C115.204 234.592 154.094 193.708 202.068 193.708C250.042 193.708 288.933 234.592 288.933 264.575Z" fill="#919AB6"/>
<path d="M202.799 214.895C193.205 214.895 185.427 219.756 185.427 225.753C185.427 231.346 192.193 238.836 200.89 239.818L200.899 241.337C200.899 241.38 200.899 241.423 200.899 241.466C200.899 251.967 193.394 260.159 184.508 260.159C175.804 260.159 168.428 252.303 168.127 242.108L165.105 242.108C165.098 242.346 165.095 242.586 165.095 242.826V242.856C165.102 254.665 173.624 264.556 184.508 264.556C193.049 264.556 200.145 258.452 202.8 250.127C205.454 258.452 212.55 264.556 221.091 264.556C231.979 264.556 240.504 254.656 240.504 242.84C240.504 242.595 240.501 242.351 240.494 242.109L237.472 242.109C237.17 252.304 229.795 260.159 221.091 260.159C212.205 260.159 204.7 251.967 204.7 241.466C204.7 241.442 204.7 241.417 204.7 241.393C204.7 241.375 204.7 241.356 204.7 241.337L204.709 239.818C213.406 238.836 220.172 231.346 220.172 225.753C220.172 219.756 212.394 214.895 202.799 214.895Z" fill="#08090C"/>
<circle cx="149.55" cy="177.187" r="25.6566" fill="#08090C"/>
<ellipse cx="5.34138" cy="7.89968" rx="5.34138" ry="7.89968" transform="matrix(0.909809 -0.415028 0.430286 0.902692 154.181 167.18)" fill="#ECF1FE"/>
<circle cx="259.189" cy="177.548" r="25.6566" fill="#08090C"/>
<ellipse cx="5.34138" cy="7.89968" rx="5.34138" ry="7.89968" transform="matrix(0.909809 -0.415028 0.430286 0.902692 263.816 167.18)" fill="#ECF1FE"/>
<path d="M249.141 231.277C260.522 231.883 275.72 234.447 292.081 238.83C308.442 243.214 322.886 248.594 333.046 253.759C326.584 247.565 311.414 240.426 292.977 235.486C274.541 230.546 257.833 229.144 249.141 231.277Z" fill="#08090C"/>
<path d="M248.603 222.838C258.75 220.478 272.713 219.021 288.126 219.021C303.54 219.021 317.503 220.478 327.65 222.838C320.512 218.528 305.496 215.559 288.126 215.559C270.757 215.559 255.741 218.528 248.603 222.838Z" fill="#08090C"/>
<path d="M248.259 239.724C257.83 242.525 270.106 247.929 282.853 255.288C295.599 262.648 306.418 270.577 313.629 277.465C309.881 270.324 298.948 260.583 284.584 252.29C270.22 243.997 256.317 239.399 248.259 239.724Z" fill="#08090C"/>
<path d="M156.265 231.277C144.884 231.883 129.685 234.446 113.324 238.83C96.9632 243.214 82.5192 248.594 72.3599 253.759C78.8211 247.565 93.9916 240.426 112.428 235.486C130.865 230.546 147.572 229.143 156.265 231.277Z" fill="#08090C"/>
<path d="M156.802 222.838C146.656 220.478 132.693 219.02 117.279 219.02C101.865 219.02 87.9021 220.478 77.7555 222.838C84.8936 218.528 99.9098 215.558 117.279 215.558C134.648 215.558 149.664 218.528 156.802 222.838Z" fill="#08090C"/>
<path d="M157.147 239.724C147.576 242.524 135.3 247.929 122.553 255.288C109.806 262.648 98.9878 270.577 91.7768 277.465C95.5247 270.324 106.458 260.583 120.822 252.29C135.186 243.997 149.089 239.399 157.147 239.724Z" fill="#08090C"/>
<path fill-rule="evenodd" clip-rule="evenodd" d="M67.1564 0H338.25C343.296 0 347.586 3.68447 348.347 8.67241L361.121 92.3412C362.065 98.5248 357.279 104.097 351.024 104.097H53.7439C47.4579 104.097 42.6637 98.4727 43.6587 92.266L57.0713 8.5972C57.8654 3.64353 62.1395 0 67.1564 0ZM67.1564 4.85806C64.5257 4.85806 62.2845 6.76862 61.8681 9.36616L48.4555 93.0349C47.9338 96.2896 50.4477 99.2385 53.7439 99.2385H351.024C354.304 99.2385 356.813 96.3168 356.318 93.0744L343.545 9.4056C343.145 6.79008 340.896 4.85806 338.25 4.85806H67.1564Z" fill="#08090C"/>
<path d="M61.8681 9.36616C62.2845 6.76862 64.5257 4.85806 67.1564 4.85806H338.25C340.896 4.85806 343.145 6.79008 343.545 9.4056L356.318 93.0744C356.813 96.3168 354.304 99.2385 351.024 99.2385H53.7439C50.4477 99.2385 47.9338 96.2896 48.4555 93.0349L61.8681 9.36616Z" fill="#4B63AA"/>
<path fill-rule="evenodd" clip-rule="evenodd" d="M50.3053 86.4554H354.415C357.958 86.4554 361.247 88.2907 363.107 91.3051L403.183 156.242C407.382 163.047 402.487 171.82 394.491 171.82H10.2301C2.23366 171.82 -2.66142 163.047 1.53814 156.242L41.6134 91.3051C43.4737 88.2907 46.7631 86.4554 50.3053 86.4554ZM50.3053 91.3134C48.4479 91.3134 46.7231 92.2758 45.7476 93.8565L5.6723 158.793C3.47018 162.362 6.03702 166.962 10.2301 166.962H394.491C398.684 166.962 401.251 162.362 399.048 158.793L358.973 93.8565C357.998 92.2758 356.273 91.3134 354.415 91.3134H50.3053Z" fill="#08090C"/>
<path d="M45.7476 93.8565C46.7231 92.2758 48.4479 91.3134 50.3053 91.3134H354.415C356.273 91.3134 357.998 92.2758 358.973 93.8565L399.048 158.793C401.251 162.362 398.684 166.962 394.491 166.962H10.2301C6.03702 166.962 3.47018 162.362 5.6723 158.793L45.7476 93.8565Z" fill="#4B63AA"/>
<path fill-rule="evenodd" clip-rule="evenodd" d="M268.218 63.2279H336.292V102.123H268.218V63.2279ZM273.076 68.0859V97.2648H331.434V68.0859H273.076Z" fill="#08090C"/>
<path d="M273.076 68.0859H331.434V97.2648H273.076V68.0859Z" fill="#08090C"/>
<path fill-rule="evenodd" clip-rule="evenodd" d="M318.411 81.2676V73.1641L328.954 83.7142C329.513 84.2732 330.419 84.2732 330.977 83.7142L331.078 83.613C331.637 83.0541 331.637 82.1478 331.078 81.5889L317.93 68.4321C317.441 67.943 316.687 67.8819 316.132 68.2487C316.052 68.3011 315.977 68.3623 315.907 68.4321L315.806 68.5333L315.804 68.5355L302.759 81.5889C302.542 81.8058 302.41 82.0749 302.361 82.3558C302.334 82.4657 302.32 82.5806 302.32 82.6988V82.842C302.32 83.6324 302.96 84.2732 303.75 84.2732H313.124L302.759 94.6445C302.2 95.2034 302.2 96.1096 302.759 96.6686L302.86 96.7698C303.419 97.3287 304.324 97.3287 304.883 96.7698L315.407 86.2387V95.7592C315.407 96.5496 316.048 97.1904 316.838 97.1904H316.981C317.771 97.1904 318.411 96.5496 318.411 95.7592V84.2732H323.632C324.422 84.2732 325.062 83.6324 325.062 82.842V82.6988C325.062 81.9084 324.422 81.2676 323.632 81.2676H318.411ZM307.328 81.2676H315.407V73.183L307.328 81.2676Z" fill="#4B63AA"/>
<path fill-rule="evenodd" clip-rule="evenodd" d="M299.324 69.4432C299.324 68.6533 299.964 68.0129 300.754 68.0129H300.897C301.686 68.0129 302.326 68.6533 302.326 69.4432V83.138L302.349 83.1606L302.326 83.1832V95.7602C302.326 96.5501 301.686 97.1904 300.897 97.1904H300.754C299.964 97.1904 299.324 96.5501 299.324 95.7602V86.1868L288.754 96.7606C288.196 97.3192 287.291 97.3192 286.732 96.7606L273.59 83.613C273.52 83.5432 273.459 83.468 273.407 83.3887C273.249 83.1497 273.171 82.8739 273.171 82.5983C273.172 82.5079 273.18 82.4175 273.197 82.3285C273.25 82.058 273.381 81.7998 273.59 81.5903L286.732 68.4427C287.291 67.8842 288.196 67.8842 288.754 68.4427L288.855 68.5438C289.06 68.7489 289.19 69.0006 289.245 69.2648V81.0999H299.324V69.4432ZM286.242 81.0999H281.596C280.806 81.0999 280.166 81.7402 280.166 82.5302V82.6732C280.166 83.4631 280.806 84.1035 281.596 84.1035H286.242V92.179L276.747 82.6799L286.242 73.1808V81.0999ZM289.245 92.0225V84.1035H297.16L289.245 92.0225Z" fill="#4B63AA"/>
</svg>
