<svg width="420" height="544" viewBox="0 0 420 544" fill="none" xmlns="http://www.w3.org/2000/svg">
<path fill-rule="evenodd" clip-rule="evenodd" d="M346.19 350.464C342.958 340.823 339.926 329.972 340.667 320.488C341.064 315.409 342.594 309.852 346.506 305.073C350.48 300.216 355.887 297.415 361.723 296.069C372.548 293.572 386.963 295.597 404.769 300.616C411.587 302.538 415.556 309.623 413.634 316.441C411.712 323.258 404.627 327.227 397.809 325.306C380.541 320.438 371.555 320.126 367.489 321.064C367.199 324.78 367.237 332.544 370.512 342.309C372.322 347.708 374.224 352.784 376.261 358.216C378.036 362.951 379.913 367.958 381.919 373.688C385.858 384.938 389.607 397.227 391.088 409.197C392.567 421.146 391.95 434.021 385.846 445.578C373.529 468.898 343.988 478.865 295.92 476.833C294.277 476.763 292.613 476.68 290.926 476.583L292.406 450.973C342.645 453.876 358.282 442.841 363.164 433.597C365.87 428.474 366.769 421.546 365.63 412.348C364.495 403.172 361.492 392.971 357.708 382.166C356.199 377.854 354.382 372.976 352.555 368.071L352.555 368.07L352.554 368.069C350.25 361.881 347.93 355.651 346.19 350.464ZM347.87 369.819C347.87 369.818 347.87 369.816 347.869 369.815L347.848 369.758C345.559 363.612 343.215 357.319 341.45 352.053C338.222 342.426 334.854 330.703 335.682 320.099C336.133 314.329 337.897 307.697 342.636 301.906C347.464 296.007 353.944 292.732 360.599 291.197C372.738 288.396 388.21 290.753 406.125 295.803C415.601 298.474 421.117 308.321 418.446 317.797C415.775 327.273 405.928 332.789 396.452 330.118C384.258 326.681 376.728 325.697 372.404 325.643C372.538 329.361 373.197 334.591 375.252 340.719C377.028 346.014 378.896 351.001 380.933 356.436L380.943 356.462L380.949 356.478C382.721 361.205 384.614 366.254 386.638 372.036C390.608 383.373 394.501 396.069 396.05 408.583C397.595 421.067 397.034 435.102 390.268 447.913C375.994 474.937 341.794 484.53 290.638 481.574L285.646 481.286L287.703 445.693L292.694 445.982C342.754 448.874 355.385 437.619 358.743 431.262C360.787 427.391 361.74 421.621 360.668 412.963C359.6 404.331 356.743 394.538 352.989 383.818C351.499 379.563 349.701 374.735 347.87 369.819Z" fill="#08090C"/>
<path d="M346.19 350.464C342.958 340.823 339.926 329.972 340.667 320.488C341.064 315.409 342.594 309.852 346.506 305.073C350.48 300.216 355.887 297.415 361.723 296.069C372.548 293.572 386.963 295.597 404.769 300.616C411.587 302.538 415.556 309.623 413.634 316.441C411.712 323.258 404.627 327.227 397.809 325.306C380.541 320.438 371.555 320.126 367.489 321.064C367.199 324.78 367.237 332.544 370.512 342.309C372.322 347.708 374.224 352.784 376.261 358.216C378.036 362.951 379.913 367.958 381.919 373.688C385.858 384.938 389.607 397.227 391.088 409.197C392.567 421.146 391.95 434.021 385.846 445.578C373.529 468.898 343.988 478.865 295.92 476.833C294.277 476.763 292.613 476.68 290.926 476.583L292.406 450.973C342.645 453.876 358.282 442.841 363.164 433.597C365.87 428.474 366.769 421.546 365.63 412.348C364.495 403.172 361.492 392.971 357.708 382.166C356.199 377.854 354.382 372.976 352.555 368.071L352.555 368.07L352.554 368.069C350.25 361.881 347.93 355.651 346.19 350.464Z" fill="#313749"/>
<path d="M340.427 315.55C341.275 311.961 342.835 308.336 345.506 305.073C347.633 302.474 350.172 300.463 352.966 298.949C359.64 300.288 366.326 303.558 372.538 308.599C361.889 306.784 350.689 309.013 340.427 315.55Z" fill="#08090C"/>
<path d="M345.587 351C345.516 350.816 345.446 350.633 345.377 350.452C343.244 344.882 341.189 338.908 340 333.029C350.231 332.705 361.252 335.133 372.259 340.133C372.519 340.841 372.792 341.569 373.079 342.317C373.383 343.113 373.69 343.902 374 344.686C364.147 344.782 354.513 346.871 345.587 351Z" fill="#08090C"/>
<path d="M360.138 392.579C359.23 389.597 358.229 386.554 357.158 383.459C367.131 385.049 377.014 387.658 386.439 391.225C386.542 391.607 386.644 391.99 386.745 392.374C377.968 391.783 369.037 391.846 360.138 392.579Z" fill="#08090C"/>
<path d="M340.281 447.145C344.775 446.007 348.464 444.632 351.492 443.118C350.713 450.928 347.235 458.873 341.318 466.164C342.383 459.914 342.056 453.474 340.281 447.145Z" fill="#08090C"/>
<path d="M397.234 297.625C395.094 304.251 391.854 310.977 387.562 317.611C388.334 310.03 387.798 302.506 385.928 295.271C389.506 295.864 393.275 296.655 397.234 297.625Z" fill="#08090C"/>
<path d="M357.926 432.973C360.471 429.84 362.774 426.851 364.853 424C368.915 429.689 372.282 436.495 374.801 444.216C369.842 439.42 364.167 435.623 357.926 432.973Z" fill="#08090C"/>
<path fill-rule="evenodd" clip-rule="evenodd" d="M141.003 506.226C133.333 510.854 123.178 512.927 112.51 512.927C101.843 512.927 91.6881 510.854 84.0173 506.226C76.1404 501.474 70.8676 493.956 70.8676 483.853C70.8676 474.273 75.6271 463.603 82.8493 455.41C90.1095 447.174 100.535 440.69 112.51 440.69C124.486 440.69 134.911 447.174 142.171 455.41C149.394 463.603 154.153 474.273 154.153 483.853C154.153 493.956 148.88 501.474 141.003 506.226ZM112.51 507.927C132.748 507.927 149.153 499.999 149.153 483.853C149.153 467.706 132.748 445.69 112.51 445.69C92.2731 445.69 75.8676 467.706 75.8676 483.853C75.8676 499.999 92.2731 507.927 112.51 507.927Z" fill="#08090C"/>
<path d="M149.153 483.853C149.153 499.999 132.748 507.927 112.51 507.927C92.2731 507.927 75.8676 499.999 75.8676 483.853C75.8676 467.706 92.2731 445.69 112.51 445.69C132.748 445.69 149.153 467.706 149.153 483.853Z" fill="#919AB6"/>
<path fill-rule="evenodd" clip-rule="evenodd" d="M322.458 506.226C314.788 510.854 304.633 512.927 293.965 512.927C283.298 512.927 273.143 510.854 265.472 506.226C257.595 501.474 252.322 493.956 252.322 483.853C252.322 474.273 257.082 463.603 264.304 455.41C271.564 447.174 281.989 440.69 293.965 440.69C305.941 440.69 316.366 447.174 323.626 455.41C330.849 463.603 335.608 474.273 335.608 483.853C335.608 493.956 330.335 501.474 322.458 506.226ZM293.965 507.927C314.202 507.927 330.608 499.999 330.608 483.853C330.608 467.706 314.202 445.69 293.965 445.69C273.728 445.69 257.322 467.706 257.322 483.853C257.322 499.999 273.728 507.927 293.965 507.927Z" fill="#08090C"/>
<path d="M330.608 483.853C330.608 499.999 314.202 507.927 293.965 507.927C273.728 507.927 257.322 499.999 257.322 483.853C257.322 467.706 273.728 445.69 293.965 445.69C314.202 445.69 330.608 467.706 330.608 483.853Z" fill="#919AB6"/>
<path fill-rule="evenodd" clip-rule="evenodd" d="M299.462 502.076C274.474 521.756 240.3 531.264 203.091 531.264C165.883 531.264 131.709 521.756 106.72 502.076C81.579 482.275 66.1773 452.505 66.1773 413.114C66.1773 374.039 81.3197 328.239 105.67 292.175C129.932 256.241 164.228 228.748 203.091 228.748C241.954 228.748 276.25 256.241 300.512 292.175C324.863 328.239 340.005 374.039 340.005 413.114C340.005 452.505 324.603 482.275 299.462 502.076ZM203.091 526.264C275.945 526.264 335.005 489.004 335.005 413.114C335.005 337.225 275.945 233.748 203.091 233.748C130.237 233.748 71.1773 337.225 71.1773 413.114C71.1773 489.004 130.237 526.264 203.091 526.264Z" fill="#08090C"/>
<path d="M335.005 413.114C335.005 489.004 275.945 526.264 203.091 526.264C130.237 526.264 71.1773 489.004 71.1773 413.114C71.1773 337.225 130.237 233.748 203.091 233.748C275.945 233.748 335.005 337.225 335.005 413.114Z" fill="#313749"/>
<path d="M317.191 331.039C314.123 324.077 310.72 317.246 307.012 310.635C297.672 311.254 288.115 315.279 279.379 322.369C291.935 320.228 305.162 323.008 317.191 331.039Z" fill="#08090C"/>
<path d="M322.39 469.104C326.601 461.625 329.921 453.406 332.228 444.444C314.993 440.092 294.669 444.734 275.049 457.427C291.695 455.732 308.102 459.557 322.39 469.104Z" fill="#08090C"/>
<path d="M335.598 393.012C333.887 379.73 330.652 366.011 326.104 352.459C310.699 348.813 292.688 353.26 275.287 364.969C297.023 362.667 318.312 371.158 334.059 391.012C334.581 391.67 335.094 392.337 335.598 393.012Z" fill="#08090C"/>
<path d="M335.375 426.38C335.792 422.098 336.005 417.676 336.005 413.114C336.005 410.885 335.954 408.633 335.853 406.36C310.692 404.223 283.578 408.506 259.439 418.387C284.601 416.222 311.042 418.786 335.375 426.38Z" fill="#08090C"/>
<path d="M88.9908 331.039C92.0591 324.077 95.4623 317.246 99.1699 310.635C108.51 311.254 118.067 315.279 126.804 322.37C114.247 320.228 101.02 323.008 88.9908 331.039Z" fill="#08090C"/>
<path d="M83.7924 469.104C79.5815 461.625 76.2616 453.406 73.9546 444.444C91.1888 440.092 111.513 444.734 131.133 457.427C114.487 455.732 98.0798 459.557 83.7924 469.104Z" fill="#08090C"/>
<path d="M71.5841 392.012C73.2953 378.73 76.5297 365.011 81.0785 351.459C96.4833 347.813 114.494 352.26 131.895 363.969C110.159 361.667 88.8706 370.158 73.1231 390.012C72.6007 390.67 72.0877 391.337 71.5841 392.012Z" fill="#08090C"/>
<path d="M70.8075 426.38C70.3906 422.098 70.1772 417.676 70.1772 413.114C70.1772 410.885 70.2282 408.633 70.3289 406.36C95.4904 404.223 122.604 408.506 146.743 418.387C121.581 416.222 95.1404 418.786 70.8075 426.38Z" fill="#08090C"/>
<path d="M270.339 413.114C270.339 489.004 240.181 526.264 202.979 526.264C165.777 526.264 135.619 489.004 135.619 413.114C135.619 337.225 165.777 233.748 202.979 233.748C240.181 233.748 270.339 337.225 270.339 413.114Z" fill="#919AB6"/>
<path fill-rule="evenodd" clip-rule="evenodd" d="M156.247 537.299C148.576 541.927 138.421 544 127.754 544C117.086 544 106.931 541.927 99.2607 537.299C91.3837 532.547 86.111 525.029 86.111 514.926C86.111 505.346 90.8705 494.676 98.0926 486.483C105.353 478.247 115.778 471.763 127.754 471.763C139.729 471.763 150.155 478.247 157.415 486.483C164.637 494.676 169.396 505.346 169.396 514.926C169.396 525.029 164.124 532.547 156.247 537.299ZM127.754 539C147.991 539 164.396 531.072 164.396 514.926C164.396 498.779 147.991 476.763 127.754 476.763C107.517 476.763 91.111 498.779 91.111 514.926C91.111 531.072 107.517 539 127.754 539Z" fill="#08090C"/>
<path d="M164.396 514.926C164.396 531.072 147.991 539 127.754 539C107.517 539 91.111 531.072 91.111 514.926C91.111 498.779 107.517 476.763 127.754 476.763C147.991 476.763 164.396 498.779 164.396 514.926Z" fill="#919AB6"/>
<path fill-rule="evenodd" clip-rule="evenodd" d="M306.629 537.299C298.958 541.927 288.803 544 278.136 544C267.468 544 257.313 541.927 249.642 537.299C241.766 532.547 236.493 525.029 236.493 514.926C236.493 505.346 241.252 494.676 248.474 486.483C255.735 478.247 266.16 471.763 278.136 471.763C290.111 471.763 300.536 478.247 307.797 486.483C315.019 494.676 319.778 505.346 319.778 514.926C319.778 525.029 314.506 532.547 306.629 537.299ZM278.136 539C298.373 539 314.778 531.072 314.778 514.926C314.778 498.779 298.373 476.763 278.136 476.763C257.898 476.763 241.493 498.779 241.493 514.926C241.493 531.072 257.898 539 278.136 539Z" fill="#08090C"/>
<path d="M314.778 514.926C314.778 531.072 298.373 539 278.136 539C257.898 539 241.493 531.072 241.493 514.926C241.493 498.779 257.898 476.763 278.136 476.763C298.373 476.763 314.778 498.779 314.778 514.926Z" fill="#919AB6"/>
<path fill-rule="evenodd" clip-rule="evenodd" d="M145.19 122.913C139.149 134.162 128.487 144.186 114.766 150.584C101.046 156.982 86.5136 158.706 74.0133 156.103C61.5119 153.499 50.7203 146.453 45.4294 135.107C42.8849 129.65 40.9352 121.69 39.7708 112.887C38.5952 104.001 38.1741 93.9026 38.8753 84.0097C39.574 74.1514 41.4033 64.2645 44.8738 55.9257C48.3316 47.6175 53.6475 40.3274 61.6195 36.61C69.5916 32.8926 78.5931 33.5064 87.1801 36.1979C95.7989 38.8994 104.548 43.8533 112.55 49.6548C120.579 55.4767 128.044 62.2903 134.096 68.9031C140.09 75.4531 144.935 82.0635 147.479 87.5202C152.77 98.8665 151.231 111.662 145.19 122.913ZM112.653 146.052C138.331 134.078 151.894 108.819 142.948 89.6333C134.001 70.4477 89.4103 29.1679 63.7326 41.1416C38.055 53.1152 41.0145 113.808 49.9609 132.994C58.9073 152.179 86.9756 158.026 112.653 146.052Z" fill="#08090C"/>
<path d="M142.948 89.6333C151.894 108.819 138.331 134.078 112.653 146.052C86.9756 158.026 58.9073 152.179 49.9609 132.994C41.0145 113.808 38.055 53.1152 63.7326 41.1416C89.4103 29.1679 134.001 70.4477 142.948 89.6333Z" fill="#313749"/>
<path fill-rule="evenodd" clip-rule="evenodd" d="M124.635 116.109C120.957 122.959 114.522 128.971 106.334 132.789C98.1467 136.607 89.4049 137.672 81.7936 136.086C74.1813 134.501 67.3774 130.152 64.0143 122.94C62.4336 119.55 61.2865 114.775 60.6109 109.668C59.9242 104.476 59.6782 98.584 60.0881 92.7997C60.4957 87.0501 61.5674 81.1747 63.6617 76.1427C65.7432 71.1415 69.064 66.4536 74.2696 64.0261C79.4753 61.5987 85.201 62.0681 90.3702 63.6884C95.571 65.3185 100.761 68.2742 105.427 71.6578C110.122 75.0618 114.477 79.0378 118.013 82.9008C121.491 86.701 124.412 90.6494 125.992 94.0391C129.355 101.251 128.313 109.259 124.635 116.109ZM104.221 128.258C118.833 121.444 126.552 107.07 121.461 96.1522C116.37 85.2345 90.9948 61.744 76.3827 68.5577C61.7707 75.3714 63.4548 109.909 68.5458 120.827C73.6368 131.744 89.6093 135.071 104.221 128.258Z" fill="#08090C"/>
<path d="M121.461 96.1522C126.552 107.07 118.833 121.444 104.221 128.258C89.6093 135.071 73.6368 131.744 68.5458 120.827C63.4548 109.909 61.7707 75.3714 76.3827 68.5577C90.9948 61.744 116.37 85.2345 121.461 96.1522Z" fill="#08090C"/>
<path fill-rule="evenodd" clip-rule="evenodd" d="M332.196 156.103C319.696 158.706 305.163 156.982 291.443 150.584C277.722 144.186 267.06 134.162 261.02 122.913C254.979 111.662 253.439 98.8666 258.73 87.5202C261.274 82.0635 266.119 75.4531 272.114 68.9031C278.166 62.2903 285.631 55.4768 293.66 49.6549C301.661 43.8533 310.41 38.8994 319.029 36.1979C327.616 33.5064 336.618 32.8926 344.59 36.61C352.562 40.3275 357.878 47.6176 361.335 55.9257C364.806 64.2645 366.635 74.1514 367.334 84.0097C368.035 93.9026 367.614 104.001 366.438 112.887C365.274 121.69 363.324 129.65 360.78 135.107C355.489 146.453 344.697 153.499 332.196 156.103ZM293.556 146.052C319.234 158.026 347.302 152.179 356.248 132.994C365.195 113.808 368.154 53.1153 342.477 41.1416C316.799 29.1679 272.208 70.4477 263.261 89.6333C254.315 108.819 267.878 134.078 293.556 146.052Z" fill="#08090C"/>
<path d="M356.248 132.994C347.302 152.179 319.234 158.026 293.556 146.052C267.878 134.078 254.315 108.819 263.261 89.6333C272.208 70.4477 316.799 29.1679 342.477 41.1416C368.154 53.1153 365.195 113.808 356.248 132.994Z" fill="#313749"/>
<path fill-rule="evenodd" clip-rule="evenodd" d="M324.195 135.983C316.584 137.568 307.842 136.504 299.654 132.686C291.467 128.868 285.032 122.856 281.354 116.006C277.676 109.155 276.633 101.148 279.997 93.9359C281.577 90.5462 284.498 86.5979 287.976 82.7977C291.511 78.9348 295.867 74.9588 300.561 71.5548C305.228 68.1712 310.417 65.2157 315.618 63.5855C320.787 61.9653 326.513 61.4958 331.719 63.9233C336.924 66.3507 340.245 71.0385 342.327 76.0398C344.421 81.0717 345.493 86.947 345.9 92.6966C346.31 98.4808 346.064 104.373 345.377 109.564C344.702 114.671 343.555 119.447 341.974 122.836C338.611 130.049 331.807 134.397 324.195 135.983ZM301.767 128.154C316.379 134.968 332.351 131.641 337.442 120.723C342.533 109.806 344.217 75.2684 329.606 68.4548C314.994 61.6412 289.619 85.1315 284.528 96.049C279.437 106.967 287.155 121.341 301.767 128.154Z" fill="#08090C"/>
<path d="M337.442 120.723C332.351 131.641 316.379 134.968 301.767 128.154C287.155 121.341 279.437 106.967 284.528 96.049C289.619 85.1315 314.994 61.6412 329.606 68.4548C344.217 75.2684 342.533 109.806 337.442 120.723Z" fill="#08090C"/>
<path fill-rule="evenodd" clip-rule="evenodd" d="M329.391 292.715C296.646 308.189 251.858 315.687 202.885 315.687C153.913 315.687 109.125 308.189 76.3793 292.715C43.5796 277.215 22 253.19 22 220.167C22 187.865 42.7582 150.74 75.1943 121.916C107.777 92.9624 152.891 71.6743 202.885 71.6743C252.879 71.6743 297.993 92.9624 330.576 121.916C363.012 150.74 383.77 187.865 383.77 220.167C383.77 253.19 362.191 277.215 329.391 292.715ZM202.885 310.687C300.024 310.687 378.77 280.879 378.77 220.167C378.77 159.456 300.024 76.6743 202.885 76.6743C105.746 76.6743 27 159.456 27 220.167C27 280.879 105.746 310.687 202.885 310.687Z" fill="#08090C"/>
<path d="M378.77 220.167C378.77 280.879 300.024 310.687 202.885 310.687C105.746 310.687 27 280.879 27 220.167C27 159.456 105.746 76.6743 202.885 76.6743C300.024 76.6743 378.77 159.456 378.77 220.167Z" fill="#313749"/>
<path d="M291.034 265.334C291.034 295.69 251.661 310.594 203.091 310.594C154.522 310.594 115.149 295.69 115.149 265.334C115.149 234.978 154.522 193.588 203.091 193.588C251.661 193.588 291.034 234.978 291.034 265.334Z" fill="#919AB6"/>
<path d="M166.179 242.633C166.172 242.859 166.169 243.086 166.169 243.314V243.344C166.176 254.634 174.288 263.784 184.293 263.784C193.594 263.784 201.259 255.877 202.298 245.694C202.337 245.695 202.377 245.695 202.417 245.695C202.721 245.695 203.023 245.686 203.323 245.67C204.352 255.864 212.021 263.784 221.33 263.784C231.34 263.784 239.454 254.626 239.454 243.329C239.454 243.096 239.451 242.865 239.444 242.634C239.119 253.608 231.133 262.393 221.33 262.393C211.32 262.393 203.205 253.235 203.205 241.938C203.205 241.891 203.206 241.845 203.206 241.798H202.417C202.417 241.845 202.417 241.891 202.417 241.938C202.417 253.235 194.303 262.393 184.293 262.393C174.489 262.393 166.504 253.608 166.179 242.633Z" fill="#08090C" stroke="#08090C" stroke-width="3"/>
<path d="M249.728 231.622C261.25 232.236 276.637 234.831 293.201 239.27C309.765 243.708 324.388 249.154 334.674 254.384C328.132 248.113 312.774 240.885 294.108 235.884C275.443 230.883 258.528 229.463 249.728 231.622Z" fill="#08090C"/>
<path d="M249.183 223.079C259.456 220.69 273.592 219.214 289.197 219.214C304.802 219.214 318.939 220.69 329.211 223.079C321.984 218.715 306.782 215.709 289.197 215.709C271.612 215.709 256.41 218.715 249.183 223.079Z" fill="#08090C"/>
<path d="M248.835 240.174C258.524 243.01 270.953 248.481 283.858 255.932C296.763 263.383 307.716 271.41 315.016 278.384C311.222 271.154 300.153 261.292 285.61 252.896C271.068 244.5 256.993 239.845 248.835 240.174Z" fill="#08090C"/>
<path d="M155.699 231.622C144.177 232.236 128.79 234.831 112.226 239.27C95.6617 243.708 81.0384 249.154 70.7531 254.383C77.2945 248.113 92.6532 240.885 111.319 235.884C129.984 230.883 146.899 229.462 155.699 231.622Z" fill="#08090C"/>
<path d="M156.244 223.079C145.971 220.69 131.835 219.214 116.23 219.214C100.625 219.214 86.4883 220.69 76.2159 223.079C83.4426 218.715 98.645 215.709 116.23 215.709C133.814 215.709 149.017 218.715 156.244 223.079Z" fill="#08090C"/>
<path d="M156.592 240.174C146.902 243.009 134.474 248.481 121.569 255.932C108.664 263.382 97.7113 271.41 90.4109 278.384C94.2053 271.154 105.274 261.292 119.817 252.896C134.359 244.5 148.434 239.845 156.592 240.174Z" fill="#08090C"/>
<path d="M185.223 226.03C185.223 219.959 193.098 215.037 202.811 215.037C212.525 215.037 220.4 219.959 220.4 226.03C220.4 232.101 212.525 240.379 202.811 240.379C193.098 240.379 185.223 232.101 185.223 226.03Z" fill="#08090C"/>
<circle cx="148.901" cy="176.861" r="25.975" fill="#08090C"/>
<ellipse cx="5.40767" cy="7.99772" rx="5.40767" ry="7.99772" transform="matrix(0.909809 -0.415028 0.430286 0.902692 153.59 166.73)" fill="#ECF1FE"/>
<circle cx="259.901" cy="177.227" r="25.975" fill="#08090C"/>
<ellipse cx="5.40767" cy="7.99772" rx="5.40767" ry="7.99772" transform="matrix(0.909809 -0.415028 0.430286 0.902692 264.586 166.73)" fill="#ECF1FE"/>
<path d="M234.963 94.8223C225.748 105.803 221.428 119.13 221.881 131.829C214.242 116.752 215.016 99.1718 225.399 86.7975C228.195 83.4657 231.483 80.7543 235.112 78.6667C240.167 79.6144 245.145 80.7754 250.039 82.1322C244.505 85.3227 239.372 89.5673 234.963 94.8223Z" fill="#08090C"/>
<path d="M170.088 94.8223C179.302 105.803 183.623 119.13 183.169 131.829C190.809 116.752 190.035 99.1718 179.651 86.7975C176.856 83.4657 173.567 80.7543 169.938 78.6667C164.884 79.6144 159.905 80.7753 155.012 82.1322C160.545 85.3227 165.678 89.5673 170.088 94.8223Z" fill="#08090C"/>
<path d="M28.8856 240.355C26.9422 233.811 25.9263 227.063 25.9263 220.167C25.9263 214.165 26.6959 207.947 28.1769 201.615C51.0689 191.016 81.4923 194.096 110.606 209.101C82.2284 206.799 54.4355 215.29 33.8764 235.144C32.133 236.827 30.4695 238.565 28.8856 240.355Z" fill="#08090C"/>
<path d="M34.5066 182.758C37.1667 180.257 40.0171 177.893 43.0538 175.686C61.5516 162.247 83.4833 157.195 104.038 159.88C88.6699 150.326 71.3556 146.336 55.4086 148.749C46.5936 159.754 39.5172 171.28 34.5066 182.758Z" fill="#08090C"/>
<path d="M371.094 182.758C368.434 180.257 365.584 177.893 362.547 175.686C344.049 162.247 322.118 157.195 301.563 159.88C316.931 150.326 334.245 146.336 350.192 148.749C359.007 159.754 366.084 171.28 371.094 182.758Z" fill="#08090C"/>
<path d="M376.665 240.596C378.655 233.977 379.697 227.148 379.697 220.167C379.697 214.212 378.939 208.045 377.481 201.765C354.553 190.988 323.981 194.025 294.731 209.101C323.109 206.799 350.902 215.29 371.461 235.144C373.283 236.903 375.017 238.722 376.665 240.596Z" fill="#08090C"/>
<path d="M192.148 75.9538L201.932 160.685L211.716 75.9538C208.477 75.7688 205.215 75.6742 201.932 75.6742C198.649 75.6742 195.387 75.7688 192.148 75.9538Z" fill="#08090C"/>
<path fill-rule="evenodd" clip-rule="evenodd" d="M67.1564 0H338.25C343.296 0 347.586 3.68447 348.347 8.67241L361.121 92.3412C362.065 98.5248 357.279 104.097 351.024 104.097H53.7439C47.4579 104.097 42.6637 98.4727 43.6587 92.266L57.0713 8.5972C57.8654 3.64353 62.1395 0 67.1564 0ZM67.1564 4.85806C64.5257 4.85806 62.2845 6.76862 61.8681 9.36616L48.4555 93.0349C47.9338 96.2896 50.4477 99.2385 53.7439 99.2385H351.024C354.304 99.2385 356.813 96.3168 356.318 93.0744L343.545 9.4056C343.145 6.79008 340.896 4.85806 338.25 4.85806H67.1564Z" fill="#08090C"/>
<path d="M61.8681 9.36616C62.2845 6.76862 64.5257 4.85806 67.1564 4.85806H338.25C340.896 4.85806 343.145 6.79008 343.545 9.4056L356.318 93.0744C356.813 96.3168 354.304 99.2385 351.024 99.2385H53.7439C50.4477 99.2385 47.9338 96.2896 48.4555 93.0349L61.8681 9.36616Z" fill="#4B63AA"/>
<path fill-rule="evenodd" clip-rule="evenodd" d="M50.3053 86.4554H354.415C357.958 86.4554 361.247 88.2907 363.107 91.3051L403.183 156.242C407.382 163.047 402.487 171.82 394.491 171.82H10.2301C2.23366 171.82 -2.66142 163.047 1.53814 156.242L41.6134 91.3051C43.4737 88.2907 46.7631 86.4554 50.3053 86.4554ZM50.3053 91.3134C48.4479 91.3134 46.7231 92.2758 45.7476 93.8565L5.6723 158.793C3.47018 162.362 6.03702 166.962 10.2301 166.962H394.491C398.684 166.962 401.251 162.362 399.048 158.793L358.973 93.8565C357.998 92.2758 356.273 91.3134 354.415 91.3134H50.3053Z" fill="#08090C"/>
<path d="M45.7476 93.8565C46.7231 92.2758 48.4479 91.3134 50.3053 91.3134H354.415C356.273 91.3134 357.998 92.2758 358.973 93.8565L399.048 158.793C401.251 162.362 398.684 166.962 394.491 166.962H10.2301C6.03702 166.962 3.47018 162.362 5.6723 158.793L45.7476 93.8565Z" fill="#4B63AA"/>
<path fill-rule="evenodd" clip-rule="evenodd" d="M268.218 63.2279H336.292V102.123H268.218V63.2279ZM273.076 68.0859V97.2648H331.434V68.0859H273.076Z" fill="#08090C"/>
<path d="M273.076 68.0859H331.434V97.2648H273.076V68.0859Z" fill="#08090C"/>
<path fill-rule="evenodd" clip-rule="evenodd" d="M318.411 81.2676V73.1641L328.954 83.7142C329.513 84.2732 330.419 84.2732 330.977 83.7142L331.078 83.613C331.637 83.0541 331.637 82.1478 331.078 81.5889L317.93 68.4321C317.441 67.943 316.687 67.8819 316.132 68.2487C316.052 68.3011 315.977 68.3623 315.907 68.4321L315.806 68.5333L315.804 68.5355L302.759 81.5889C302.542 81.8058 302.41 82.0749 302.361 82.3558C302.334 82.4657 302.32 82.5806 302.32 82.6988V82.842C302.32 83.6324 302.96 84.2732 303.75 84.2732H313.124L302.759 94.6445C302.2 95.2034 302.2 96.1096 302.759 96.6686L302.86 96.7698C303.419 97.3287 304.324 97.3287 304.883 96.7698L315.407 86.2387V95.7592C315.407 96.5496 316.048 97.1904 316.838 97.1904H316.981C317.771 97.1904 318.411 96.5496 318.411 95.7592V84.2732H323.632C324.422 84.2732 325.062 83.6324 325.062 82.842V82.6988C325.062 81.9084 324.422 81.2676 323.632 81.2676H318.411ZM307.328 81.2676H315.407V73.183L307.328 81.2676Z" fill="#4B63AA"/>
<path fill-rule="evenodd" clip-rule="evenodd" d="M299.324 69.4432C299.324 68.6533 299.964 68.0129 300.754 68.0129H300.897C301.686 68.0129 302.326 68.6533 302.326 69.4432V83.138L302.349 83.1606L302.326 83.1832V95.7602C302.326 96.5501 301.686 97.1904 300.897 97.1904H300.754C299.964 97.1904 299.324 96.5501 299.324 95.7602V86.1868L288.754 96.7606C288.196 97.3192 287.291 97.3192 286.732 96.7606L273.59 83.613C273.52 83.5432 273.459 83.468 273.407 83.3887C273.249 83.1497 273.171 82.8739 273.171 82.5983C273.172 82.5079 273.18 82.4175 273.197 82.3285C273.25 82.058 273.381 81.7998 273.59 81.5903L286.732 68.4427C287.291 67.8842 288.196 67.8842 288.754 68.4427L288.855 68.5438C289.06 68.7489 289.19 69.0006 289.245 69.2648V81.0999H299.324V69.4432ZM286.242 81.0999H281.596C280.806 81.0999 280.166 81.7402 280.166 82.5302V82.6732C280.166 83.4631 280.806 84.1035 281.596 84.1035H286.242V92.179L276.747 82.6799L286.242 73.1808V81.0999ZM289.245 92.0225V84.1035H297.16L289.245 92.0225Z" fill="#4B63AA"/>
</svg>
