<svg width="405" height="544" viewBox="0 0 405 544" fill="none" xmlns="http://www.w3.org/2000/svg">
<path fill-rule="evenodd" clip-rule="evenodd" d="M150.678 514.041C143.201 518.552 133.317 520.565 122.953 520.565C112.589 520.565 102.705 518.552 95.2283 514.041C87.5436 509.405 82.3867 502.058 82.3867 492.185C82.3867 482.84 87.0265 472.451 94.0515 464.482C101.115 456.469 111.271 450.145 122.953 450.145C134.635 450.145 144.792 456.469 151.855 464.482C158.88 472.451 163.52 482.84 163.52 492.185C163.52 502.058 158.363 509.405 150.678 514.041ZM122.953 515.528C142.575 515.528 158.482 507.841 158.482 492.185C158.482 476.529 142.575 455.182 122.953 455.182C103.331 455.182 87.4242 476.529 87.4242 492.185C87.4242 507.841 103.331 515.528 122.953 515.528Z" fill="#08090C"/>
<path d="M158.482 492.185C158.482 507.841 142.575 515.528 122.953 515.528C103.331 515.528 87.4242 507.841 87.4242 492.185C87.4242 476.529 103.331 455.182 122.953 455.182C142.575 455.182 158.482 476.529 158.482 492.185Z" fill="#919AB6"/>
<path fill-rule="evenodd" clip-rule="evenodd" d="M306.489 514.041C299.012 518.552 289.128 520.565 278.764 520.565C268.4 520.565 258.517 518.552 251.039 514.041C243.355 509.405 238.198 502.058 238.198 492.185C238.198 482.84 242.838 472.451 249.863 464.482C256.926 456.469 267.082 450.145 278.764 450.145C290.447 450.145 300.603 456.469 307.666 464.482C314.691 472.451 319.331 482.84 319.331 492.185C319.331 502.058 314.174 509.405 306.489 514.041ZM278.764 515.528C298.387 515.528 314.293 507.841 314.293 492.185C314.293 476.529 298.387 455.182 278.764 455.182C259.142 455.182 243.235 476.529 243.235 492.185C243.235 507.841 259.142 515.528 278.764 515.528Z" fill="#08090C"/>
<path d="M314.293 492.185C314.293 507.841 298.387 515.528 278.764 515.528C259.142 515.528 243.235 507.841 243.235 492.185C243.235 476.529 259.142 455.182 278.764 455.182C298.387 455.182 314.293 476.529 314.293 492.185Z" fill="#919AB6"/>
<path fill-rule="evenodd" clip-rule="evenodd" d="M200 71.8343C220.087 71.9117 239.368 75.4652 257.334 81.5861C259.969 77.3017 263.653 72.5842 267.936 67.9038C273.812 61.4833 281.06 54.8681 288.856 49.2151C296.624 43.5827 305.126 38.7673 313.509 36.1398C321.859 33.5222 330.641 32.9166 338.429 36.5484C346.218 40.1803 351.398 47.2963 354.761 55.3759C358.136 63.4865 359.913 73.0948 360.591 82.6658C361.272 92.2717 360.863 102.076 359.722 110.704C358.591 119.248 356.698 126.988 354.219 132.304C352.268 136.488 349.55 140.071 346.267 143.046C366.109 167.167 378 194.244 378 218.53C378 251.084 356.741 274.814 324.322 290.145C317.38 293.427 309.89 296.347 301.93 298.908C305.89 305.497 309.549 312.342 312.873 319.353C316.848 312.334 322.27 305.802 329.449 300.084C338.543 292.84 349.818 287.407 363.269 283.624C374.432 280.485 384.89 288.334 386.774 299.049C388.716 310.097 381.231 319.828 371.371 322.943C363.431 325.451 358.044 328.445 354.371 331.371C349.172 335.512 346.397 340.304 344.912 346.053C343.308 352.257 343.145 359.914 344.184 369.266C345.083 377.36 346.722 385.568 348.49 394.403C348.775 395.826 349.063 397.266 349.35 398.717C351.283 408.483 353.398 419.76 353.364 430.084C353.33 440.442 351.144 453.771 340.504 463.846C333.482 470.496 324.681 473.914 315.181 475.328C309.418 483.502 302.509 490.695 294.632 496.898C270.079 516.232 236.542 525.625 200 525.72C163.458 525.625 129.921 516.232 105.368 496.898C80.5395 477.347 65.3224 447.949 65.3224 409.036L65.3226 408.787L65.3224 408.538C65.3224 373.412 77.7113 332.782 98.0703 298.908C90.1096 296.347 82.6201 293.427 75.6785 290.145C43.2588 274.814 22 251.084 22 218.531C22 194.244 33.8909 167.167 53.7328 143.046C50.4499 140.071 47.7324 136.488 45.7812 132.304C43.3023 126.988 41.4086 119.248 40.2784 110.704C39.137 102.076 38.7282 92.2717 39.409 82.6659C40.0874 73.0949 41.8637 63.4866 45.2393 55.376C48.602 47.2963 53.7823 40.1803 61.5709 36.5485C69.3595 32.9166 78.1405 33.5223 86.4914 36.1398C94.8742 38.7674 103.376 43.5827 111.144 49.2152C118.94 54.8681 126.188 61.4833 132.064 67.9039C136.347 72.5842 140.031 77.3017 142.666 81.5861C160.632 75.4653 179.913 71.9117 200 71.8343Z" fill="#313749"/>
<path fill-rule="evenodd" clip-rule="evenodd" d="M200 71.8343C220.087 71.9117 239.368 75.4652 257.334 81.5861C259.969 77.3017 263.653 72.5842 267.936 67.9038C273.812 61.4833 281.06 54.8681 288.856 49.2151C296.624 43.5827 305.126 38.7673 313.509 36.1398C321.859 33.5222 330.641 32.9166 338.429 36.5484C346.218 40.1803 351.398 47.2963 354.761 55.3759C358.136 63.4865 359.913 73.0948 360.591 82.6658C361.272 92.2717 360.863 102.076 359.722 110.704C358.591 119.248 356.698 126.988 354.219 132.304C352.268 136.488 349.55 140.071 346.267 143.046C366.109 167.167 378 194.244 378 218.53C378 251.084 356.741 274.814 324.322 290.145C317.38 293.427 309.89 296.347 301.93 298.908C305.89 305.497 309.549 312.342 312.873 319.353C316.848 312.334 322.27 305.802 329.449 300.084C338.543 292.84 349.818 287.407 363.269 283.624C374.432 280.485 384.89 288.334 386.774 299.049C388.716 310.097 381.231 319.828 371.371 322.943C363.431 325.451 358.044 328.445 354.371 331.371C349.172 335.512 346.397 340.304 344.912 346.053C343.308 352.257 343.145 359.914 344.184 369.266C345.083 377.36 346.722 385.568 348.49 394.403C348.775 395.826 349.063 397.266 349.35 398.717C351.283 408.483 353.398 419.76 353.364 430.084C353.33 440.442 351.144 453.771 340.504 463.846C333.482 470.496 324.681 473.914 315.181 475.328C309.418 483.502 302.509 490.695 294.632 496.898C270.079 516.232 236.542 525.625 200 525.72C163.458 525.625 129.921 516.232 105.368 496.898C80.5395 477.347 65.3224 447.949 65.3224 409.036L65.3226 408.787L65.3224 408.538C65.3224 373.412 77.7113 332.782 98.0703 298.908C90.1096 296.347 82.6201 293.427 75.6785 290.145C43.2588 274.814 22 251.084 22 218.531C22 194.244 33.8909 167.167 53.7328 143.046C50.4499 140.071 47.7324 136.488 45.7812 132.304C43.3023 126.988 41.4086 119.248 40.2784 110.704C39.137 102.076 38.7282 92.2717 39.409 82.6659C40.0874 73.0949 41.8637 63.4866 45.2393 55.376C48.602 47.2963 53.7823 40.1803 61.5709 36.5485C69.3595 32.9166 78.1405 33.5223 86.4914 36.1398C94.8742 38.7674 103.376 43.5827 111.144 49.2152C118.94 54.8681 126.188 61.4833 132.064 67.9039C136.347 72.5842 140.031 77.3017 142.666 81.5861C160.632 75.4653 179.913 71.9117 200 71.8343ZM323.965 460.227C324.042 460.065 324.118 459.903 324.194 459.74C327.73 460.318 331.306 461.106 334.902 462.099C335.645 461.505 336.366 460.878 337.066 460.216C346.255 451.514 348.332 439.852 348.364 430.068C348.369 428.566 348.326 427.038 348.242 425.494C343.431 425.104 338.558 425.169 333.694 425.7C332.151 438.398 328.827 449.912 323.965 460.227ZM334.402 417.982C334.404 417.945 334.406 417.908 334.409 417.871C339.065 419.291 343.667 421.228 348.124 423.66C347.537 415.72 345.971 407.4 344.445 399.688C344.164 398.268 343.882 396.859 343.602 395.459L343.587 395.384C343.097 392.933 342.612 390.511 342.148 388.112C339.263 388.564 336.405 389.129 333.58 389.806C334.304 396.173 334.678 402.439 334.678 408.538L334.677 408.787L334.678 409.036C334.678 412.076 334.585 415.058 334.402 417.982ZM331.074 373.817C334.025 374.329 336.998 374.964 339.985 375.721C339.693 373.747 339.433 371.78 339.215 369.819C338.144 360.179 338.252 351.84 340.071 344.802C341.164 340.572 342.894 336.714 345.563 333.217C337.265 333.717 328.944 335.363 320.854 338.187C325.27 349.966 328.723 361.972 331.074 373.817ZM306.836 477.641C283.439 506.069 244.332 520.183 200 520.3C155.668 520.183 116.561 506.069 93.1641 477.641C109.547 468.943 128.352 465.46 147.429 467.008C124.062 454.965 99.8244 450.844 79.5793 455.611C75.972 447.486 73.3384 438.587 71.809 428.913C86.3104 422.134 102.036 419.856 117.008 421.811C102.243 412.633 85.6261 408.751 70.2815 410.956C70.2679 410.155 70.2611 409.349 70.2611 408.538C70.2611 405.412 70.3626 402.237 70.5624 399.025C71.366 398.186 72.1888 397.36 73.0308 396.547C92.9651 377.296 119.913 369.063 147.429 371.296C123.129 358.772 97.8889 354.816 77.1754 360.512C78.9896 353.881 81.1356 347.246 83.5886 340.678C100.979 328.965 121.203 324.624 140.212 327.107C125.729 318.104 109.465 314.197 94.367 316.132C97.0736 310.807 99.9782 305.596 103.066 300.542L102.886 300.487L102.933 300.411C130.941 308.72 164.336 312.806 200 312.856C235.664 312.806 269.059 308.72 297.067 300.411L297.114 300.487L296.934 300.542C300.022 305.596 302.926 310.807 305.633 316.132C290.535 314.197 274.271 318.104 259.788 327.107C278.797 324.624 299.021 328.965 316.411 340.678C318.864 347.246 321.01 353.881 322.825 360.512C302.111 354.816 276.871 358.772 252.571 371.296C280.087 369.063 307.035 377.296 326.969 396.547C327.811 397.36 328.634 398.186 329.438 399.025C329.637 402.237 329.739 405.412 329.739 408.538C329.739 409.349 329.732 410.155 329.719 410.956C314.374 408.751 297.757 412.633 282.992 421.811C297.964 419.856 313.69 422.134 328.191 428.913C326.662 438.587 324.028 447.486 320.421 455.611C300.176 450.844 275.938 454.964 252.571 467.008C271.648 465.46 290.453 468.943 306.836 477.641ZM370.268 237.513C355.521 284.648 284.946 307.899 200 308.021C115.054 307.899 44.4787 284.648 29.7318 237.513C31.0604 236.05 32.444 234.623 33.8826 233.234C54.1898 213.623 81.6419 205.236 109.672 207.51C81.3341 192.905 51.7402 189.739 29.2465 199.667C30.8415 193.014 33.2268 186.236 36.3337 179.454C38.3033 177.729 40.37 176.077 42.5324 174.505C60.8034 161.231 82.4664 156.241 102.769 158.893C88.0699 149.755 71.5682 145.77 56.2356 147.691C76.2638 122.758 105.313 100.554 139.484 87.8595C153.783 101.974 164.472 121.573 170.685 143.554C171.192 120.7 167.45 99.0281 160.041 81.5651L159.816 81.6197C169.728 79.2049 179.972 77.61 190.464 76.9766L200 159.557L209.536 76.9766C220.028 77.61 230.272 79.2048 240.184 81.6196L239.959 81.5651C232.55 99.028 228.808 120.7 229.315 143.554C235.528 121.573 246.217 101.974 260.516 87.8595C294.687 100.554 323.736 122.758 343.764 147.691C328.432 145.77 311.93 149.755 297.231 158.892C317.534 156.241 339.197 161.231 357.468 174.505C359.63 176.076 361.697 177.729 363.666 179.454C366.773 186.236 369.159 193.014 370.753 199.667C348.26 189.738 318.666 192.905 290.328 207.51C318.358 205.236 345.81 213.623 366.117 233.234C367.556 234.623 368.94 236.05 370.268 237.513ZM262.196 83.3166C274.937 63.4815 313.386 30.4288 336.3 41.114C361.197 52.7237 358.328 111.572 349.653 130.175C348.037 133.64 345.778 136.656 343.01 139.196C339.568 135.237 335.912 131.369 332.059 127.617C333.422 126.09 334.585 124.353 335.493 122.405C337.055 119.057 338.188 114.34 338.855 109.296C339.533 104.168 339.776 98.348 339.371 92.6347C338.969 86.9555 337.91 81.1521 335.842 76.1818C333.786 71.2419 330.505 66.6114 325.364 64.2138C320.222 61.8161 314.566 62.2798 309.46 63.8801C304.323 65.4903 299.197 68.4097 294.588 71.7519C289.951 75.1141 285.649 79.0415 282.157 82.8571C280.148 85.0523 278.327 87.2976 276.849 89.4533C277.633 89.8198 278.413 90.1912 279.191 90.5672C273.685 87.904 268.014 85.4764 262.196 83.3166ZM137.804 83.3166C125.063 63.4816 86.6142 30.4289 63.6998 41.114C38.8026 52.7237 41.6722 111.572 50.3467 130.175C51.9626 133.64 54.2219 136.656 56.9897 139.196C60.4318 135.237 64.0883 131.369 67.941 127.617C66.5776 126.09 65.4151 124.353 64.5067 122.405C62.9454 119.057 61.8124 114.34 61.1451 109.296C60.4668 104.168 60.2238 98.348 60.6287 92.6347C61.0313 86.9555 62.0899 81.1521 64.1585 76.1819C66.2144 71.2419 69.4946 66.6115 74.6364 64.2138C79.7782 61.8161 85.4338 62.2798 90.5396 63.8802C95.6767 65.4904 100.803 68.4097 105.412 71.7519C110.049 75.1142 114.351 79.0415 117.843 82.8571C119.852 85.0523 121.673 87.2976 123.151 89.4533C122.367 89.8198 121.587 90.1912 120.809 90.5672C126.315 87.904 131.986 85.4764 137.804 83.3166ZM317.672 321.038C328.694 320.671 340.088 322.96 350.977 327.684C351.069 327.609 351.162 327.534 351.256 327.46C355.497 324.081 361.459 320.831 369.865 318.175C369.9 318.164 369.935 318.153 369.97 318.142C363.913 309.127 356.792 301.054 348.772 294.176C342.677 296.965 337.283 300.235 332.564 303.995C326.182 309.078 321.306 314.841 317.672 321.038ZM361.679 289.304C365.446 298.141 368.39 307.776 370.404 317.996C378.014 315.331 383.251 307.887 381.849 299.915C380.415 291.756 372.597 286.195 364.623 288.438C363.628 288.717 362.647 289.006 361.679 289.304Z" fill="#08090C"/>
<path d="M263.586 367.029C261.115 347.545 257.149 327.867 252.012 309.822C235.715 311.853 218.472 312.857 200.67 312.857C182.365 312.857 164.653 311.796 147.953 309.648C142.861 327.496 138.916 346.948 136.43 366.234C136.43 366.234 136.43 366.234 136.43 366.234C136.226 367.817 136.032 369.398 135.848 370.977C139.685 370.874 143.551 370.981 147.429 371.296C147.429 371.296 147.428 371.296 147.429 371.296C143.551 370.981 139.685 370.874 135.848 370.977C134.268 384.527 133.423 397.922 133.423 410.544C133.423 430.934 135.627 448.501 139.576 463.271C139.883 464.42 140.201 465.552 140.529 466.668C149.045 495.617 164.53 513.174 183.199 519.562C188.878 520.055 194.673 520.301 200.558 520.301C205.895 520.301 211.157 520.099 216.326 519.693C235.158 513.421 250.792 495.84 259.37 466.722C259.606 465.923 259.836 465.115 260.061 464.299C260.093 464.182 260.125 464.065 260.157 463.947C260.541 462.538 260.909 461.104 261.26 459.644C261.261 459.639 261.263 459.635 261.264 459.63C264.63 445.639 266.492 429.284 266.492 410.544C266.492 397.911 265.646 384.504 264.063 370.942C263.891 369.468 263.71 367.992 263.521 366.514C263.543 366.686 263.565 366.857 263.586 367.029C263.586 367.029 263.586 367.029 263.586 367.029Z" fill="#919AB6"/>
<path fill-rule="evenodd" clip-rule="evenodd" d="M188.923 537.476C181.446 541.986 171.562 544 161.198 544C150.834 544 140.95 541.986 133.473 537.476C125.788 532.84 120.632 525.493 120.632 515.62C120.632 506.274 125.271 495.886 132.296 487.916C139.36 479.903 149.516 473.579 161.198 473.579C172.88 473.579 183.036 479.903 190.1 487.916C197.125 495.886 201.765 506.274 201.765 515.62C201.765 525.493 196.608 532.84 188.923 537.476ZM161.198 538.963C180.82 538.963 196.727 531.276 196.727 515.62C196.727 499.964 180.82 478.617 161.198 478.617C141.576 478.617 125.669 499.964 125.669 515.62C125.669 531.276 141.576 538.963 161.198 538.963Z" fill="#08090C"/>
<path d="M196.727 515.62C196.727 531.276 180.82 538.963 161.198 538.963C141.576 538.963 125.669 531.276 125.669 515.62C125.669 499.964 141.576 478.617 161.198 478.617C180.82 478.617 196.727 499.964 196.727 515.62Z" fill="#919AB6"/>
<path fill-rule="evenodd" clip-rule="evenodd" d="M266.419 537.476C258.942 541.986 249.058 544 238.694 544C228.33 544 218.446 541.986 210.969 537.476C203.285 532.84 198.128 525.493 198.128 515.62C198.128 506.274 202.767 495.886 209.793 487.916C216.856 479.903 227.012 473.579 238.694 473.579C250.376 473.579 260.533 479.903 267.596 487.916C274.621 495.886 279.261 506.274 279.261 515.62C279.261 525.493 274.104 532.84 266.419 537.476ZM238.694 538.963C258.316 538.963 274.223 531.276 274.223 515.62C274.223 499.964 258.316 478.617 238.694 478.617C219.072 478.617 203.165 499.964 203.165 515.62C203.165 531.276 219.072 538.963 238.694 538.963Z" fill="#08090C"/>
<path d="M274.223 515.62C274.223 531.276 258.316 538.963 238.694 538.963C219.072 538.963 203.165 531.276 203.165 515.62C203.165 499.964 219.072 478.617 238.694 478.617C258.316 478.617 274.223 499.964 274.223 515.62Z" fill="#919AB6"/>
<path d="M286.933 264.575C286.933 294.559 248.042 309.281 200.068 309.281C152.094 309.281 113.204 294.559 113.204 264.575C113.204 234.592 152.094 193.708 200.068 193.708C248.042 193.708 286.933 234.592 286.933 264.575Z" fill="#919AB6"/>
<path d="M200.799 214.895C191.205 214.895 183.427 219.756 183.427 225.753C183.427 231.346 190.193 238.836 198.89 239.818L198.899 241.337C198.899 241.38 198.899 241.423 198.899 241.466C198.899 251.967 191.394 260.159 182.508 260.159C173.804 260.159 166.428 252.303 166.127 242.108L163.105 242.108C163.098 242.346 163.095 242.586 163.095 242.826V242.856C163.102 254.665 171.624 264.556 182.508 264.556C191.049 264.556 198.145 258.452 200.8 250.127C203.454 258.452 210.55 264.556 219.091 264.556C229.979 264.556 238.504 254.656 238.504 242.84C238.504 242.595 238.501 242.351 238.494 242.109L235.472 242.109C235.17 252.304 227.795 260.159 219.091 260.159C210.205 260.159 202.7 251.967 202.7 241.466C202.7 241.442 202.7 241.417 202.7 241.393C202.7 241.375 202.7 241.356 202.7 241.337L202.709 239.818C211.406 238.836 218.172 231.346 218.172 225.753C218.172 219.756 210.394 214.895 200.799 214.895Z" fill="#08090C"/>
<circle cx="147.55" cy="177.187" r="25.6566" fill="#08090C"/>
<ellipse cx="5.34138" cy="7.89968" rx="5.34138" ry="7.89968" transform="matrix(0.909809 -0.415028 0.430286 0.902692 152.181 167.18)" fill="#ECF1FE"/>
<circle cx="257.189" cy="177.548" r="25.6566" fill="#08090C"/>
<ellipse cx="5.34138" cy="7.89968" rx="5.34138" ry="7.89968" transform="matrix(0.909809 -0.415028 0.430286 0.902692 261.816 167.18)" fill="#ECF1FE"/>
<path d="M247.141 231.277C258.522 231.883 273.72 234.447 290.081 238.83C306.442 243.214 320.886 248.594 331.046 253.759C324.584 247.565 309.414 240.426 290.977 235.486C272.541 230.546 255.833 229.144 247.141 231.277Z" fill="#08090C"/>
<path d="M246.603 222.838C256.75 220.478 270.713 219.021 286.126 219.021C301.54 219.021 315.503 220.478 325.65 222.838C318.512 218.528 303.496 215.559 286.126 215.559C268.757 215.559 253.741 218.528 246.603 222.838Z" fill="#08090C"/>
<path d="M246.259 239.724C255.83 242.525 268.106 247.929 280.853 255.288C293.599 262.648 304.418 270.577 311.629 277.465C307.881 270.324 296.948 260.583 282.584 252.29C268.22 243.997 254.317 239.399 246.259 239.724Z" fill="#08090C"/>
<path d="M154.265 231.277C142.884 231.883 127.685 234.446 111.324 238.83C94.9632 243.214 80.5192 248.594 70.3599 253.759C76.8211 247.565 91.9916 240.426 110.428 235.486C128.865 230.546 145.572 229.143 154.265 231.277Z" fill="#08090C"/>
<path d="M154.802 222.838C144.656 220.478 130.693 219.02 115.279 219.02C99.8652 219.02 85.9021 220.478 75.7555 222.838C82.8936 218.528 97.9098 215.558 115.279 215.558C132.648 215.558 147.664 218.528 154.802 222.838Z" fill="#08090C"/>
<path d="M155.147 239.724C145.576 242.524 133.3 247.929 120.553 255.288C107.806 262.648 96.9878 270.577 89.7768 277.465C93.5247 270.324 104.458 260.583 118.822 252.29C133.186 243.997 147.089 239.399 155.147 239.724Z" fill="#08090C"/>
<path fill-rule="evenodd" clip-rule="evenodd" d="M67.1564 0H338.25C343.296 0 347.586 3.68447 348.347 8.67241L361.121 92.3412C362.065 98.5248 357.279 104.097 351.024 104.097H53.7439C47.4579 104.097 42.6637 98.4727 43.6587 92.266L57.0713 8.5972C57.8654 3.64353 62.1395 0 67.1564 0ZM67.1564 4.85806C64.5257 4.85806 62.2845 6.76862 61.8681 9.36616L48.4555 93.0349C47.9338 96.2896 50.4477 99.2385 53.7439 99.2385H351.024C354.304 99.2385 356.813 96.3168 356.318 93.0744L343.545 9.4056C343.145 6.79008 340.896 4.85806 338.25 4.85806H67.1564Z" fill="#08090C"/>
<path d="M61.8681 9.36616C62.2845 6.76862 64.5257 4.85806 67.1564 4.85806H338.25C340.896 4.85806 343.145 6.79008 343.545 9.4056L356.318 93.0744C356.813 96.3168 354.304 99.2385 351.024 99.2385H53.7439C50.4477 99.2385 47.9338 96.2896 48.4555 93.0349L61.8681 9.36616Z" fill="#4B63AA"/>
<path fill-rule="evenodd" clip-rule="evenodd" d="M50.3053 86.4554H354.415C357.958 86.4554 361.247 88.2907 363.107 91.3051L403.183 156.242C407.382 163.047 402.487 171.82 394.491 171.82H10.2301C2.23366 171.82 -2.66142 163.047 1.53814 156.242L41.6134 91.3051C43.4737 88.2907 46.7631 86.4554 50.3053 86.4554ZM50.3053 91.3134C48.4479 91.3134 46.7231 92.2758 45.7476 93.8565L5.6723 158.793C3.47018 162.362 6.03702 166.962 10.2301 166.962H394.491C398.684 166.962 401.251 162.362 399.048 158.793L358.973 93.8565C357.998 92.2758 356.273 91.3134 354.415 91.3134H50.3053Z" fill="#08090C"/>
<path d="M45.7476 93.8565C46.7231 92.2758 48.4479 91.3134 50.3053 91.3134H354.415C356.273 91.3134 357.998 92.2758 358.973 93.8565L399.048 158.793C401.251 162.362 398.684 166.962 394.491 166.962H10.2301C6.03702 166.962 3.47018 162.362 5.6723 158.793L45.7476 93.8565Z" fill="#4B63AA"/>
<path fill-rule="evenodd" clip-rule="evenodd" d="M268.218 63.2279H336.292V102.123H268.218V63.2279ZM273.076 68.0859V97.2648H331.434V68.0859H273.076Z" fill="#08090C"/>
<path d="M273.076 68.0859H331.434V97.2648H273.076V68.0859Z" fill="#08090C"/>
<path fill-rule="evenodd" clip-rule="evenodd" d="M318.411 81.2676V73.1641L328.954 83.7142C329.513 84.2732 330.419 84.2732 330.977 83.7142L331.078 83.613C331.637 83.0541 331.637 82.1478 331.078 81.5889L317.93 68.4321C317.441 67.943 316.687 67.8819 316.132 68.2487C316.052 68.3011 315.977 68.3623 315.907 68.4321L315.806 68.5333L315.804 68.5355L302.759 81.5889C302.542 81.8058 302.41 82.0749 302.361 82.3558C302.334 82.4657 302.32 82.5806 302.32 82.6988V82.842C302.32 83.6324 302.96 84.2732 303.75 84.2732H313.124L302.759 94.6445C302.2 95.2034 302.2 96.1096 302.759 96.6686L302.86 96.7698C303.419 97.3287 304.324 97.3287 304.883 96.7698L315.407 86.2387V95.7592C315.407 96.5496 316.048 97.1904 316.838 97.1904H316.981C317.771 97.1904 318.411 96.5496 318.411 95.7592V84.2732H323.632C324.422 84.2732 325.062 83.6324 325.062 82.842V82.6988C325.062 81.9084 324.422 81.2676 323.632 81.2676H318.411ZM307.328 81.2676H315.407V73.183L307.328 81.2676Z" fill="#4B63AA"/>
<path fill-rule="evenodd" clip-rule="evenodd" d="M299.324 69.4432C299.324 68.6533 299.964 68.0129 300.754 68.0129H300.897C301.686 68.0129 302.326 68.6533 302.326 69.4432V83.138L302.349 83.1606L302.326 83.1832V95.7602C302.326 96.5501 301.686 97.1904 300.897 97.1904H300.754C299.964 97.1904 299.324 96.5501 299.324 95.7602V86.1868L288.754 96.7606C288.196 97.3192 287.291 97.3192 286.732 96.7606L273.59 83.613C273.52 83.5432 273.459 83.468 273.407 83.3887C273.249 83.1497 273.171 82.8739 273.171 82.5983C273.172 82.5079 273.18 82.4175 273.197 82.3285C273.25 82.058 273.381 81.7998 273.59 81.5903L286.732 68.4427C287.291 67.8842 288.196 67.8842 288.754 68.4427L288.855 68.5438C289.06 68.7489 289.19 69.0006 289.245 69.2648V81.0999H299.324V69.4432ZM286.242 81.0999H281.596C280.806 81.0999 280.166 81.7402 280.166 82.5302V82.6732C280.166 83.4631 280.806 84.1035 281.596 84.1035H286.242V92.179L276.747 82.6799L286.242 73.1808V81.0999ZM289.245 92.0225V84.1035H297.16L289.245 92.0225Z" fill="#4B63AA"/>
</svg>
