<svg width="383" height="510" viewBox="0 0 383 510" fill="none" xmlns="http://www.w3.org/2000/svg">
<path fill-rule="evenodd" clip-rule="evenodd" d="M78.8656 296.213C48.166 296.213 23.279 321.1 23.279 351.799C23.279 382.499 48.166 407.386 78.8656 407.386C109.565 407.386 134.452 382.499 134.452 351.799C134.452 321.1 109.565 296.213 78.8656 296.213ZM18.2544 351.799C18.2544 318.325 45.3909 291.188 78.8656 291.188C112.34 291.188 139.477 318.325 139.477 351.799C139.477 385.274 112.34 412.41 78.8656 412.41C45.3909 412.41 18.2544 385.274 18.2544 351.799Z" fill="#120802"/>
<path d="M23.279 351.799C23.279 321.1 48.166 296.213 78.8656 296.213C109.565 296.213 134.452 321.1 134.452 351.799C134.452 382.499 109.565 407.386 78.8656 407.386C48.166 407.386 23.279 382.499 23.279 351.799Z" fill="#EE6123"/>
<path fill-rule="evenodd" clip-rule="evenodd" d="M277.274 361.117C277.274 435.259 227.928 497.155 165.057 497.155C102.185 497.155 52.8398 435.259 52.8398 361.117C52.8398 286.975 102.185 225.08 165.057 225.08C227.928 225.08 277.274 286.975 277.274 361.117ZM165.057 492.13C224.258 492.13 272.249 433.474 272.249 361.117C272.249 288.761 224.258 230.104 165.057 230.104C105.856 230.104 57.8645 288.761 57.8645 361.117C57.8645 433.474 105.856 492.13 165.057 492.13Z" fill="#120802"/>
<path d="M272.249 361.117C272.249 433.474 224.258 492.13 165.057 492.13C105.856 492.13 57.8645 433.474 57.8645 361.117C57.8645 288.761 105.856 230.104 165.057 230.104C224.258 230.104 272.249 288.761 272.249 361.117Z" fill="#EE6123"/>
<ellipse cx="164.766" cy="318.867" rx="72.6236" ry="88.7621" fill="#ECF1FE"/>
<path fill-rule="evenodd" clip-rule="evenodd" d="M149.346 325.549L149.348 325.549C233.045 349.549 315.608 323.408 345.338 266.837C346.24 265.122 347.092 263.379 347.895 261.608C349 263.243 350.076 264.888 351.124 266.541C375.569 305.111 384.538 348.462 372.74 389.606C346.22 482.093 224.807 528.428 101.497 493.155L101.303 493.099C39.6146 475.411 0.361454 423.564 13.6285 377.296C26.8955 331.028 87.6584 307.861 149.346 325.549ZM145.952 319.317L145.922 319.419C115.757 311.762 85.9146 313.45 61.5395 322.744C35.8677 332.532 15.9657 350.916 8.79851 375.911C1.63135 400.906 8.76732 427.043 25.3514 448.948C41.9343 470.851 68.1296 488.814 99.9177 497.929L100.116 497.986C162.714 515.893 225.015 513.144 275.207 493.985C325.4 474.825 363.776 439.095 377.57 390.991C390.366 346.366 379.574 299.538 352.059 258.796L347.03 251.349L343.319 259.533C317.468 316.546 235.65 345.063 150.747 320.723C150.742 320.722 150.737 320.72 150.733 320.719L145.952 319.317Z" fill="#120802"/>
<path d="M149.346 325.549L149.348 325.549C233.045 349.549 315.608 323.408 345.338 266.837C346.24 265.122 347.092 263.379 347.895 261.608C349 263.243 350.076 264.888 351.124 266.541C375.569 305.111 384.538 348.462 372.74 389.606C346.22 482.093 224.807 528.428 101.497 493.155L101.303 493.099C39.6146 475.411 0.361454 423.564 13.6285 377.296C26.8955 331.028 87.6584 307.861 149.346 325.549Z" fill="#ECF1FE"/>
<path d="M297.412 478.335C263.421 459.412 242.362 411.315 247.998 357.69C249.005 348.107 250.81 338.875 253.306 330.107C221.671 336.934 185.616 335.949 149.348 325.549L149.347 325.549L149.346 325.549C87.6583 307.861 26.8954 331.029 13.6284 377.296C0.361336 423.564 39.6144 475.411 101.303 493.1L101.461 493.145C173.642 513.802 245.177 506.495 297.412 478.335Z" fill="#EE6123"/>
<path fill-rule="evenodd" clip-rule="evenodd" d="M36.1411 5.07124C27.4829 4.70785 20.1441 6.44339 14.9209 10.8262C9.69764 15.209 6.7141 22.1349 5.56848 30.7247C4.42506 39.2979 5.15583 49.2496 7.09245 59.2633C9.02576 69.2598 12.1385 79.2038 15.672 87.7196C19.222 96.275 23.1297 103.227 26.5825 107.342C33.3339 115.388 43.9318 119.163 55.8833 118.487C67.8354 117.812 80.9699 112.674 92.3608 103.115C103.752 93.5574 111.093 81.5147 113.833 69.8615C116.574 58.2088 114.696 47.1164 107.945 39.0705C104.492 34.9556 98.3246 29.9 90.5157 24.9184C82.7428 19.9597 73.4904 15.1675 63.9815 11.5277C54.4562 7.88168 44.7826 5.43392 36.1411 5.07124ZM93.218 20.6823C101.221 25.7878 107.871 31.1649 111.794 35.8407C119.795 45.3761 121.737 58.2037 118.724 71.0118C115.712 83.8193 107.73 96.7781 95.5905 106.965C83.4508 117.151 69.3028 122.762 56.1668 123.504C43.0302 124.246 30.7346 120.107 22.7335 110.572C18.81 105.896 14.6693 98.4135 11.0311 89.6454C7.37643 80.8377 4.16118 70.5688 2.15923 60.2174C0.160587 49.883 -0.651205 39.3515 0.587944 30.0604C1.82489 20.786 5.14905 12.4665 11.6911 6.97712C18.2331 1.48769 27.0034 -0.341323 36.3518 0.0510224C45.7168 0.444068 55.9474 3.07231 65.7777 6.83513C75.6243 10.6042 85.1788 15.5538 93.218 20.6823Z" fill="#120802"/>
<path d="M14.9209 10.8262C20.1441 6.44339 27.4829 4.70785 36.1411 5.07124C44.7826 5.43392 54.4562 7.88168 63.9815 11.5277C73.4904 15.1675 82.7428 19.9597 90.5157 24.9184C98.3246 29.9 104.492 34.9556 107.945 39.0705C114.696 47.1164 116.574 58.2088 113.833 69.8615C111.093 81.5147 103.752 93.5574 92.3608 103.115C80.9699 112.674 67.8354 117.812 55.8833 118.487C43.9318 119.163 33.3339 115.388 26.5825 107.342C23.1297 103.227 19.222 96.275 15.672 87.7196C12.1385 79.2038 9.02576 69.2598 7.09245 59.2633C5.15583 49.2496 4.42506 39.2979 5.56848 30.7247C6.7141 22.1349 9.69764 15.209 14.9209 10.8262Z" fill="#EE6123"/>
<path d="M88.9014 49.2721C97.2963 59.2768 93.2469 76.4955 79.8568 87.7311C66.4667 98.9667 48.8065 99.9646 40.4115 89.9599C32.0166 79.9552 20.5616 44.2592 33.9517 33.0235C47.3418 21.7879 80.5064 39.2674 88.9014 49.2721Z" fill="#ECF1FE"/>
<path d="M88.9014 49.2721C97.2963 59.2768 93.2469 76.4955 79.8568 87.7311C66.4667 98.9667 48.8065 99.9646 40.4115 89.9599C32.0166 79.9552 20.5616 44.2592 33.9517 33.0235C47.3418 21.7879 80.5064 39.2674 88.9014 49.2721Z" fill="#ECF1FE"/>
<path fill-rule="evenodd" clip-rule="evenodd" d="M239.632 24.9184C231.823 29.9 225.655 34.9556 222.203 39.0705C215.451 47.1164 213.574 58.2088 216.314 69.8615C219.055 81.5147 226.396 93.5574 237.787 103.115C249.178 112.674 262.312 117.812 274.264 118.487C286.216 119.163 296.814 115.388 303.565 107.342C307.018 103.227 310.926 96.275 314.476 87.7196C318.009 79.2038 321.122 69.2598 323.055 59.2633C324.992 49.2496 325.723 39.2979 324.579 30.7247C323.434 22.1349 320.45 15.209 315.227 10.8262C310.004 6.44339 302.665 4.70785 294.007 5.07124C285.365 5.43392 275.691 7.88168 266.166 11.5277C256.657 15.1675 247.405 19.9597 239.632 24.9184ZM293.796 0.0510224C303.144 -0.341323 311.915 1.48769 318.457 6.97712C324.999 12.4665 328.323 20.786 329.56 30.0604C330.799 39.3515 329.987 49.883 327.988 60.2174C325.986 70.5688 322.771 80.8377 319.117 89.6454C315.478 98.4135 311.338 105.896 307.414 110.572C299.413 120.107 287.117 124.246 273.981 123.504C260.845 122.762 246.697 117.151 234.557 106.965C222.417 96.7781 214.435 83.8193 211.423 71.0118C208.411 58.2037 210.352 45.3761 218.353 35.8407C222.277 31.1649 228.926 25.7878 236.93 20.6823C244.969 15.5538 254.523 10.6042 264.37 6.83513C274.2 3.07231 284.431 0.444068 293.796 0.0510224Z" fill="#120802"/>
<path d="M222.203 39.0705C225.655 34.9556 231.823 29.9 239.632 24.9184C247.405 19.9597 256.657 15.1675 266.166 11.5277C275.691 7.88168 285.365 5.43392 294.007 5.07124C302.665 4.70785 310.004 6.44339 315.227 10.8262C320.45 15.209 323.434 22.1349 324.579 30.7247C325.723 39.2979 324.992 49.2496 323.055 59.2633C321.122 69.2598 318.009 79.2038 314.476 87.7196C310.926 96.275 307.018 103.227 303.565 107.342C296.814 115.388 286.216 119.163 274.264 118.487C262.312 117.812 249.178 112.674 237.787 103.115C226.396 93.5574 219.055 81.5147 216.314 69.8615C213.574 58.2088 215.451 47.1164 222.203 39.0705Z" fill="#EE6123"/>
<path d="M290.212 90.3587C281.817 100.363 264.156 99.3655 250.766 88.1299C237.376 76.8942 233.327 59.6756 241.722 49.6709C250.117 39.6662 283.281 22.1866 296.671 33.4223C310.061 44.6579 298.606 80.354 290.212 90.3587Z" fill="#ECF1FE"/>
<path d="M290.212 90.3587C281.817 100.363 264.156 99.3655 250.766 88.1299C237.376 76.8942 233.327 59.6756 241.722 49.6709C250.117 39.6662 283.281 22.1866 296.671 33.4223C310.061 44.6579 298.606 80.354 290.212 90.3587Z" fill="#ECF1FE"/>
<path fill-rule="evenodd" clip-rule="evenodd" d="M255.769 251.561C232.625 267.09 200.54 280.415 164.93 280.415C129.32 280.415 97.235 267.09 74.0911 251.561C62.5095 243.79 53.0347 235.379 46.3941 227.637C43.0766 223.769 40.3942 219.984 38.5164 216.452C36.6846 213.006 35.399 209.393 35.399 205.978C35.399 198.731 40.9551 193.167 47.5767 189.097C54.4813 184.852 64.1382 181.212 75.6263 178.225C98.6779 172.231 130.249 168.582 164.93 168.582C199.611 168.582 231.182 172.231 254.234 178.225C265.722 181.212 275.379 184.852 282.283 189.097C288.905 193.167 294.461 198.731 294.461 205.978C294.461 209.393 293.175 213.006 291.343 216.452C289.466 219.984 286.783 223.769 283.466 227.637C276.825 235.379 267.35 243.79 255.769 251.561ZM164.93 275.39C233.693 275.39 289.436 223.856 289.436 205.978C289.436 188.099 233.693 173.606 164.93 173.606C96.167 173.606 40.4237 188.099 40.4237 205.978C40.4237 223.856 96.167 275.39 164.93 275.39Z" fill="#120802"/>
<path d="M289.436 205.978C289.436 223.856 233.693 275.39 164.93 275.39C96.167 275.39 40.4237 223.856 40.4237 205.978C40.4237 188.099 96.167 173.606 164.93 173.606C233.693 173.606 289.436 188.099 289.436 205.978Z" fill="#ECF1FE"/>
<path fill-rule="evenodd" clip-rule="evenodd" d="M325.446 212.435L317.51 206.406C315.83 205.129 312.994 203.728 308.926 202.297C309.651 208.808 310.024 215.439 310.024 222.164C310.024 222.861 310.02 223.557 310.012 224.251L309.89 234.906L301.747 228.033C299.341 226.003 294.181 223.627 285.927 221.307C277.875 219.044 267.504 216.996 255.276 215.276C230.835 211.838 199.349 209.758 164.93 209.758C130.511 209.758 99.0246 211.838 74.5835 215.276C62.3554 216.996 51.9844 219.044 43.9333 221.307C35.6792 223.627 30.5185 226.003 28.113 228.033L19.9703 234.906L19.8478 224.251C19.8398 223.557 19.8358 222.861 19.8358 222.164C19.8358 215.439 20.2091 208.808 20.9343 202.297C16.8662 203.728 14.0302 205.129 12.3495 206.406L4.41322 212.435L4.28584 202.469C4.27693 201.772 4.27246 201.074 4.27246 200.375C4.27246 111.647 76.2013 39.7178 164.93 39.7178C253.659 39.7178 325.587 111.647 325.587 200.375C325.587 201.074 325.583 201.772 325.574 202.469L325.446 212.435ZM21.6395 196.761C23.2915 196.232 25.0647 195.715 26.9537 195.208C26.6711 197.006 26.4164 198.815 26.1898 200.634C25.4784 206.346 25.046 212.157 24.9084 218.05C24.8765 219.417 24.8604 220.788 24.8604 222.164C24.8604 222.842 24.8643 223.518 24.8721 224.194C25.6867 223.506 26.6722 222.829 27.8208 222.164C28.46 221.794 29.1497 221.427 29.8886 221.065C49.2574 211.559 102.403 204.733 164.93 204.733C227.457 204.733 280.602 211.559 299.971 221.065C300.71 221.427 301.4 221.794 302.039 222.164C303.188 222.829 304.173 223.506 304.988 224.194C304.996 223.518 304.999 222.842 304.999 222.164C304.999 220.788 304.983 219.417 304.951 218.05C304.814 212.157 304.381 206.346 303.67 200.634C303.444 198.815 303.189 197.006 302.906 195.208C304.795 195.715 306.568 196.232 308.22 196.761C311.015 197.654 313.462 198.578 315.536 199.528C316.148 199.808 316.727 200.091 317.273 200.375C318.55 201.04 319.645 201.718 320.55 202.405C320.558 201.73 320.563 201.053 320.563 200.375C320.563 199.052 320.546 197.732 320.513 196.416C318.413 112.292 249.56 44.7424 164.93 44.7424C80.2999 44.7424 11.4469 112.292 9.34647 196.416C9.31362 197.732 9.29709 199.052 9.29709 200.375C9.29709 201.053 9.30142 201.73 9.31006 202.405C10.2152 201.718 11.3103 201.04 12.5866 200.375C13.1328 200.091 13.7122 199.808 14.3241 199.528C16.398 198.578 18.8453 197.654 21.6395 196.761Z" fill="#120802"/>
<path d="M21.6395 196.761C23.2915 196.232 25.0647 195.715 26.9537 195.208C26.6711 197.006 26.4164 198.815 26.1898 200.634C25.4784 206.346 25.046 212.157 24.9084 218.05C24.8765 219.417 24.8604 220.788 24.8604 222.164C24.8604 222.842 24.8643 223.518 24.8721 224.194C25.6867 223.506 26.6722 222.829 27.8208 222.164C28.46 221.794 29.1497 221.427 29.8886 221.065C49.2574 211.559 102.403 204.733 164.93 204.733C227.457 204.733 280.602 211.559 299.971 221.065C300.71 221.427 301.4 221.794 302.039 222.164C303.188 222.829 304.173 223.506 304.988 224.194C304.996 223.518 304.999 222.842 304.999 222.164C304.999 220.788 304.983 219.417 304.951 218.05C304.814 212.157 304.381 206.346 303.67 200.634C303.444 198.815 303.189 197.006 302.906 195.208C304.795 195.715 306.568 196.232 308.22 196.761C311.015 197.654 313.462 198.578 315.536 199.528C316.148 199.808 316.727 200.091 317.273 200.375C318.55 201.04 319.645 201.718 320.55 202.405C320.558 201.73 320.563 201.053 320.563 200.375C320.563 199.052 320.546 197.732 320.513 196.416C318.413 112.292 249.56 44.7424 164.93 44.7424C80.2999 44.7424 11.4469 112.292 9.34647 196.416C9.31362 197.732 9.29709 199.052 9.29709 200.375C9.29709 201.053 9.30142 201.73 9.31006 202.405C10.2152 201.718 11.3103 201.04 12.5866 200.375C13.1328 200.091 13.7122 199.808 14.3241 199.528C16.398 198.578 18.8453 197.654 21.6395 196.761Z" fill="#EE6123"/>
<path fill-rule="evenodd" clip-rule="evenodd" d="M73.1018 158.973C96.4963 167.488 114.2 182.535 121.27 197.96C126.751 191.085 144.223 186.057 164.93 186.057C185.339 186.057 202.605 190.941 208.345 197.664C215.508 182.345 233.132 167.439 256.373 158.98C277.749 151.2 298.991 150.652 314.193 156.163C318.338 170.177 320.563 185.016 320.563 200.375C320.563 201.053 320.558 201.729 320.55 202.405C317.168 199.836 311.135 197.414 302.906 195.208C304.282 203.964 304.999 212.971 304.999 222.164C304.999 222.841 304.996 223.518 304.988 224.194C301.506 221.255 294.901 218.508 285.787 216.058C272.346 238.213 223.334 275.39 164.93 275.39C106.526 275.39 57.514 238.213 44.0727 216.058C34.9586 218.508 28.3539 221.255 24.8721 224.194C24.8643 223.518 24.8604 222.842 24.8604 222.164C24.8604 212.971 25.5778 203.964 26.9537 195.208C18.7247 197.414 12.6917 199.836 9.30997 202.405C9.30133 201.73 9.297 201.053 9.297 200.375C9.297 184.957 11.539 170.063 15.7148 156C30.8857 150.655 51.928 151.266 73.1018 158.973Z" fill="#ECF1FE"/>
<path d="M189.831 203.737C189.831 207.312 178.683 217.619 164.93 217.619C151.177 217.619 140.029 207.312 140.029 203.737C140.029 200.161 151.177 197.262 164.93 197.262C178.683 197.262 189.831 200.161 189.831 203.737Z" fill="#120802"/>
<ellipse cx="126.979" cy="160.222" rx="14.9647" ry="23.3449" fill="#120802"/>
<ellipse cx="131.944" cy="152.129" rx="4.98823" ry="7.78164" fill="#ECF1FE"/>
<ellipse cx="202.928" cy="160.222" rx="14.9647" ry="23.3449" fill="#120802"/>
<ellipse cx="207.893" cy="152.129" rx="4.98823" ry="7.78164" fill="#ECF1FE"/>
<path d="M107.657 114.466L111.458 113.226C121.404 109.983 132.114 109.926 142.094 113.061L146.565 114.466" stroke="#120802" stroke-width="5"/>
<path d="M183.606 114.466L187.407 113.226C197.353 109.983 208.063 109.926 218.043 113.061L222.514 114.466" stroke="#120802" stroke-width="5"/>
<path fill-rule="evenodd" clip-rule="evenodd" d="M201.997 232.421C197.307 235.839 191.528 237.859 185.279 237.859C177.34 237.859 170.161 234.6 165.009 229.356C159.857 234.6 152.679 237.859 144.74 237.859C138.49 237.859 132.711 235.839 128.021 232.421C128.47 234.063 129.25 236.092 130.405 238.4C132.339 242.261 135.162 246.573 138.663 250.596C145.757 258.747 155.118 265.153 165.009 265.153C174.9 265.153 184.261 258.747 191.355 250.596C194.856 246.573 197.679 242.261 199.612 238.4C200.768 236.093 201.548 234.063 201.997 232.421ZM202.304 228.212C197.805 232.295 191.833 234.784 185.279 234.784C178.121 234.784 171.656 231.815 167.048 227.043C166.321 226.289 165.64 225.49 165.009 224.651C164.379 225.49 163.698 226.289 162.97 227.043C158.362 231.815 151.898 234.784 144.74 234.784C138.186 234.784 132.213 232.295 127.714 228.211C126.874 227.448 126.085 226.629 125.353 225.76C124.799 226.922 124.497 228.125 124.472 229.358C124.471 229.413 124.47 229.469 124.47 229.524C124.47 239.493 142.62 268.228 165.009 268.228C187.398 268.228 205.548 239.493 205.548 229.524C205.548 229.469 205.547 229.414 205.546 229.358C205.521 228.126 205.219 226.923 204.665 225.761C203.933 226.63 203.144 227.448 202.304 228.212Z" fill="#120802"/>
<path d="M185.279 237.859C191.528 237.859 197.307 235.839 201.997 232.421C201.548 234.063 200.768 236.093 199.612 238.4C197.679 242.261 194.856 246.573 191.355 250.596C184.261 258.747 174.9 265.153 165.009 265.153C155.118 265.153 145.757 258.747 138.663 250.596C135.162 246.573 132.339 242.261 130.405 238.4C129.25 236.092 128.47 234.063 128.021 232.421C132.711 235.839 138.49 237.859 144.74 237.859C152.679 237.859 159.857 234.6 165.009 229.356C170.161 234.6 177.34 237.859 185.279 237.859Z" fill="#120802"/>
<path d="M186.755 255.161C180.435 249.914 172.912 246.177 164.837 246.177C156.763 246.177 149.24 249.914 142.92 255.161C149.283 261.016 156.889 265.153 164.837 265.153C172.786 265.153 180.392 261.016 186.755 255.161Z" fill="#FB9197"/>
</svg>
