<svg width="616" height="510" viewBox="0 0 616 510" fill="none" xmlns="http://www.w3.org/2000/svg">
<path fill-rule="evenodd" clip-rule="evenodd" d="M85.7998 228.9C85.7998 252.593 66.5928 271.8 42.8999 271.8C19.2069 271.8 0 252.593 0 228.9C0 205.207 19.2069 186 42.8999 186C66.5928 186 85.7998 205.207 85.7998 228.9ZM42.8999 266.8C63.8314 266.8 80.7998 249.831 80.7998 228.9C80.7998 207.968 63.8314 191 42.8999 191C21.9684 191 5 207.968 5 228.9C5 249.831 21.9684 266.8 42.8999 266.8Z" fill="#11122C"/>
<path d="M80.7998 228.9C80.7998 249.831 63.8314 266.8 42.8999 266.8C21.9684 266.8 5 249.831 5 228.9C5 207.968 21.9684 191 42.8999 191C63.8314 191 80.7998 207.968 80.7998 228.9Z" fill="#ECF1FE"/>
<path d="M33.8024 255.883C54.734 255.883 71.7023 238.915 71.7023 217.983C71.7023 211.32 69.9829 205.059 66.9635 199.618C75.412 206.569 80.7997 217.105 80.7997 228.9C80.7997 249.831 63.8313 266.8 42.8998 266.8C28.6314 266.8 16.2045 258.915 9.73877 247.265C16.2837 252.65 24.6655 255.883 33.8024 255.883Z" fill="#BFCFFA"/>
<path fill-rule="evenodd" clip-rule="evenodd" d="M599.226 420.222C541.438 471.679 465.654 503.492 382.22 504.948C197.542 508.172 45.1369 361.452 41.164 176.964C41.1566 176.618 41.1497 176.273 41.1433 175.927C41.1409 175.807 41.1387 175.687 41.1367 175.568C39.5208 82.996 113.255 6.64192 205.827 5.02607C298.398 3.41023 374.752 77.1445 376.368 169.716C376.446 174.192 376.641 178.638 376.949 183.052C377.066 184.734 377.2 186.411 377.351 188.083C378.966 187.714 380.617 187.439 382.297 187.262C383.752 187.11 385.228 187.031 386.723 187.031C409.87 187.031 428.634 205.795 428.634 228.942C428.634 246.164 418.245 260.96 403.393 267.406C401.867 268.068 400.294 268.642 398.68 269.122C398.858 269.513 399.037 269.904 399.216 270.295C399.74 271.434 400.272 272.568 400.812 273.698C437.219 349.831 510.74 404.596 597.563 414.997C599.767 415.261 601.979 415.497 604.2 415.703C602.557 417.226 600.899 418.732 599.226 420.222ZM405.512 271.936C442.172 348.249 516.909 402.565 604.663 410.724L615.809 411.761L607.599 419.37C548.351 474.283 469.434 508.426 382.307 509.947C194.525 513.225 39.619 363.754 36.1442 176.021C36.1418 175.9 36.1395 175.777 36.1374 175.655M405.512 271.936C422.064 264.693 433.634 248.174 433.634 228.942C433.634 203.034 412.631 182.031 386.723 182.031C385.099 182.031 383.492 182.114 381.907 182.276C381.622 178.089 381.441 173.873 381.367 169.629C379.703 74.2962 301.072 -1.6372 205.739 0.0268355C110.407 1.69087 34.4739 80.3226 36.1374 175.655" fill="#11122C"/>
<path d="M382.22 504.948C465.654 503.492 541.438 471.679 599.226 420.222C600.899 418.732 602.557 417.226 604.2 415.703C601.979 415.497 599.767 415.261 597.563 414.997C510.74 404.596 437.219 349.831 400.812 273.698C400.272 272.568 399.74 271.434 399.216 270.295C399.037 269.904 398.858 269.513 398.68 269.122C400.294 268.642 401.867 268.068 403.393 267.406C418.245 260.96 428.634 246.164 428.634 228.942C428.634 205.795 409.87 187.031 386.723 187.031C385.228 187.031 383.752 187.11 382.297 187.262C380.617 187.439 378.966 187.714 377.351 188.083C377.2 186.411 377.066 184.734 376.949 183.052C376.641 178.638 376.446 174.192 376.368 169.716C374.752 77.1445 298.398 3.41023 205.827 5.02607C113.255 6.64192 39.5208 82.996 41.1367 175.568C41.1387 175.687 41.1409 175.807 41.1433 175.927C41.1497 176.273 41.1566 176.618 41.164 176.964C45.1369 361.452 197.542 508.172 382.22 504.948Z" fill="#ECF1FE"/>
<path fill-rule="evenodd" clip-rule="evenodd" d="M381.249 262.701C406.162 262.701 426.357 243.882 426.357 220.668C426.357 218.235 426.136 215.851 425.71 213.531C427.597 218.301 428.634 223.5 428.634 228.942C428.634 252.088 409.87 270.852 386.723 270.852C372.515 270.852 359.957 263.781 352.378 252.966C360.201 259.044 370.266 262.701 381.249 262.701Z" fill="#BFCFFA"/>
<path d="M601.8 415.468C543.81 440.796 475.234 455.439 401.752 455.439C268.649 455.439 151.644 407.395 84.4868 334.83C143.106 438.241 255.006 507.168 382.22 504.948C468.07 503.449 545.82 469.811 604.2 415.703C603.399 415.628 602.599 415.55 601.8 415.468Z" fill="#BFCFFA"/>
<path fill-rule="evenodd" clip-rule="evenodd" d="M287.123 148.047C287.123 164.981 273.396 178.708 256.462 178.708C239.529 178.708 225.801 164.981 225.801 148.047C225.801 131.114 239.529 117.386 256.462 117.386C273.396 117.386 287.123 131.114 287.123 148.047ZM256.462 175.708C271.739 175.708 284.123 163.324 284.123 148.047C284.123 132.771 271.739 120.386 256.462 120.386C241.185 120.386 228.801 132.771 228.801 148.047C228.801 163.324 241.185 175.708 256.462 175.708Z" fill="#11122C"/>
<path d="M284.123 148.047C284.123 163.324 271.739 175.708 256.462 175.708C241.185 175.708 228.801 163.324 228.801 148.047C228.801 132.771 241.185 120.386 256.462 120.386C271.739 120.386 284.123 132.771 284.123 148.047Z" fill="#11122C"/>
<path d="M256.462 140.504C256.462 147.447 250.833 153.077 243.889 153.077C236.945 153.077 231.316 147.447 231.316 140.504C231.316 133.56 236.945 127.93 243.889 127.93C250.833 127.93 256.462 133.56 256.462 140.504Z" fill="#ECF1FE"/>
<path fill-rule="evenodd" clip-rule="evenodd" d="M153.01 148.047C153.01 164.981 139.283 178.708 122.349 178.708C105.416 178.708 91.6882 164.981 91.6882 148.047C91.6882 131.114 105.416 117.386 122.349 117.386C139.283 117.386 153.01 131.114 153.01 148.047ZM122.349 175.708C137.626 175.708 150.01 163.324 150.01 148.047C150.01 132.771 137.626 120.386 122.349 120.386C107.072 120.386 94.6882 132.771 94.6882 148.047C94.6882 163.324 107.072 175.708 122.349 175.708Z" fill="#11122C"/>
<path d="M150.01 148.047C150.01 163.324 137.626 175.708 122.349 175.708C107.072 175.708 94.6882 163.324 94.6882 148.047C94.6882 132.771 107.072 120.386 122.349 120.386C137.626 120.386 150.01 132.771 150.01 148.047Z" fill="#11122C"/>
<path d="M122.349 140.503C122.349 147.447 116.72 153.076 109.776 153.076C102.832 153.076 97.2026 147.447 97.2026 140.503C97.2026 133.559 102.832 127.93 109.776 127.93C116.72 127.93 122.349 133.559 122.349 140.503Z" fill="#ECF1FE"/>
<path fill-rule="evenodd" clip-rule="evenodd" d="M214.875 259.089C208.883 267.238 200.359 272.587 190.667 272.587C180.976 272.587 172.452 267.238 166.46 259.089C160.467 250.938 156.851 239.823 156.851 227.677C156.851 215.531 160.467 204.415 166.46 196.265C172.452 188.115 180.976 182.766 190.667 182.766C200.359 182.766 208.883 188.115 214.875 196.265C220.868 204.415 224.484 215.531 224.484 227.677C224.484 239.823 220.868 250.938 214.875 259.089ZM190.667 269.587C207.687 269.587 221.484 250.823 221.484 227.677C221.484 204.53 207.687 185.766 190.667 185.766C173.648 185.766 159.851 204.53 159.851 227.677C159.851 250.823 173.648 269.587 190.667 269.587Z" fill="#11122C"/>
<path d="M221.484 227.677C221.484 250.823 207.687 269.587 190.667 269.587C173.648 269.587 159.851 250.823 159.851 227.677C159.851 204.53 173.648 185.766 190.667 185.766C207.687 185.766 221.484 204.53 221.484 227.677Z" fill="#11122C"/>
<path d="M165.849 252.525C173.137 240.163 186.589 231.868 201.979 231.868C208.757 231.868 215.16 233.477 220.826 236.335C217.893 255.327 205.505 269.587 190.667 269.587C180.487 269.587 171.46 262.874 165.849 252.525Z" fill="#FECACC"/>
<path d="M201.979 231.868C186.589 231.868 173.137 240.163 165.849 252.525C165.861 252.547 165.873 252.57 165.885 252.592C172.061 249.008 179.236 246.956 186.891 246.956C196.861 246.956 206.017 250.437 213.212 256.25C216.964 250.776 219.652 243.934 220.826 236.335C215.16 233.477 208.757 231.868 201.979 231.868Z" fill="#FB9197"/>
</svg>
