<svg width="373" height="510" viewBox="0 0 373 510" fill="none" xmlns="http://www.w3.org/2000/svg">
<path fill-rule="evenodd" clip-rule="evenodd" d="M128.426 479.1C120.963 483.601 111.099 485.611 100.755 485.611C90.4117 485.611 80.5471 483.601 73.0847 479.1C65.415 474.473 60.2682 467.141 60.2682 457.287C60.2682 447.96 64.8989 437.591 71.9102 429.637C78.9598 421.64 89.096 415.329 100.755 415.329C112.415 415.329 122.551 421.64 129.6 429.637C136.612 437.591 141.242 447.96 141.242 457.287C141.242 467.141 136.096 474.473 128.426 479.1ZM100.755 480.584C120.339 480.584 136.215 472.912 136.215 457.287C136.215 441.662 120.339 420.356 100.755 420.356C81.1716 420.356 65.2959 441.662 65.2959 457.287C65.2959 472.912 81.1716 480.584 100.755 480.584Z" fill="#08090C"/>
<path d="M136.215 457.287C136.215 472.912 120.339 480.584 100.755 480.584C81.1716 480.584 65.2959 472.912 65.2959 457.287C65.2959 441.662 81.1716 420.356 100.755 420.356C120.339 420.356 136.215 441.662 136.215 457.287Z" fill="#919AB6"/>
<path fill-rule="evenodd" clip-rule="evenodd" d="M283.931 479.1C276.469 483.601 266.604 485.611 256.261 485.611C245.917 485.611 236.053 483.601 228.59 479.1C220.921 474.473 215.774 467.141 215.774 457.287C215.774 447.96 220.404 437.591 227.416 429.637C234.465 421.64 244.602 415.329 256.261 415.329C267.92 415.329 278.056 421.64 285.106 429.637C292.117 437.591 296.748 447.96 296.748 457.287C296.748 467.141 291.601 474.473 283.931 479.1ZM256.261 480.584C275.845 480.584 291.72 472.912 291.72 457.287C291.72 441.662 275.845 420.356 256.261 420.356C236.677 420.356 220.801 441.662 220.801 457.287C220.801 472.912 236.677 480.584 256.261 480.584Z" fill="#08090C"/>
<path d="M291.72 457.287C291.72 472.912 275.845 480.584 256.261 480.584C236.677 480.584 220.801 472.912 220.801 457.287C220.801 441.662 236.677 420.356 256.261 420.356C275.845 420.356 291.72 441.662 291.72 457.287Z" fill="#919AB6"/>
<path fill-rule="evenodd" clip-rule="evenodd" d="M31.6706 108.833C28.3941 105.863 25.682 102.287 23.7346 98.1108C21.2606 92.8053 19.3705 85.0804 18.2426 76.5538C17.1034 67.9423 16.6954 58.1574 17.3749 48.5704C18.0519 39.0182 19.8248 29.4287 23.1937 21.334C26.5498 13.2702 31.72 6.1682 39.4933 2.54344C47.2666 -1.08131 56.0304 -0.476817 64.3649 2.13558C72.7313 4.75798 81.2169 9.56389 88.9695 15.1853C96.7503 20.8272 103.984 27.4294 109.848 33.8373C114.123 38.5085 117.8 43.2168 120.429 47.4928C138.559 41.3161 158.031 37.7589 178.319 37.7589C198.72 37.7589 218.296 41.3557 236.511 47.596C239.145 43.2927 242.846 38.5463 247.155 33.8376C253.02 27.4296 260.253 20.8274 268.034 15.1855C275.787 9.56413 284.272 4.75822 292.638 2.13583C300.973 -0.476571 309.737 -1.08107 317.51 2.54369C325.283 6.16844 330.454 13.2705 333.81 21.3343C337.179 29.429 338.951 39.0184 339.629 48.5706C340.308 58.1577 339.9 67.9426 338.761 76.554C337.633 85.0807 335.743 92.8055 333.269 98.111C331.28 102.376 328.494 106.015 325.123 109.022C344.833 133.048 356.639 159.993 356.639 184.169C356.639 216.658 335.421 240.342 303.065 255.642C296.083 258.944 288.545 261.878 280.531 264.448C300.789 298.179 313.13 338.609 313.178 373.599C313.179 373.664 313.179 373.729 313.179 373.793C313.18 373.962 313.18 374.132 313.18 374.301C313.18 380.831 312.75 387.094 311.918 393.086C318.258 390.843 321.54 388.537 323.182 386.947C324.699 385.479 325.821 383.599 326.155 380.022C326.513 376.18 325.94 370.487 323.758 361.676C322.473 356.489 321.063 351.738 319.492 346.444L319.483 346.414C318.376 342.688 317.194 338.705 315.948 334.194C313.224 324.33 310.499 312.815 310.086 301.082C309.662 289.048 311.627 275.773 319.192 263.257C323.759 255.7 329.888 249.218 337.418 243.734C348.678 235.535 362.963 241.938 368.069 253.193C373.507 265.183 366.628 277.344 360.133 285.2C359.561 285.892 359.105 286.547 358.736 287.157C357.07 289.914 356.057 293.617 356.263 299.456C356.479 305.601 357.994 312.868 360.486 321.895C361.304 324.854 362.306 328.252 363.374 331.875L363.393 331.939C365.181 338.003 367.15 344.677 368.609 350.569C373.224 369.205 377.938 398.248 355.321 420.144C344.923 430.21 330.72 436.599 313.809 440.564C306.873 442.19 299.217 443.47 290.791 444.409C290.881 444.36 290.927 444.3 290.93 444.231C290.884 444.29 290.837 444.35 290.791 444.409C285.675 450.956 279.781 456.818 273.213 461.99C248.583 481.384 214.895 490.757 178.209 490.757C141.522 490.757 107.834 481.384 83.2046 461.99C58.4248 442.477 43.2374 413.137 43.2374 374.301L43.2377 374.052L43.2374 373.804C43.2374 338.746 55.6021 298.196 75.9211 264.388C67.9761 261.832 60.5013 258.919 53.5733 255.642C21.2171 240.342 0 216.658 0 184.169C0 159.93 11.8676 132.906 31.6706 108.833ZM294.827 438.861C301.28 438.014 307.215 436.951 312.663 435.674C323.042 433.241 332.156 429.913 339.861 425.464C328.176 422.39 316.225 420.948 304.317 421.281C301.686 427.56 298.506 433.421 294.827 438.861ZM306.297 361.836C306.836 362.356 307.367 362.882 307.89 363.413C308.128 366.925 308.249 370.393 308.249 373.804C308.249 374.855 308.238 375.898 308.215 376.933C293.565 375.43 277.915 379.362 263.929 388.056C278.074 386.209 292.893 388.147 306.711 394.098C305.196 403.702 302.591 412.54 299.024 420.615C278.969 416.128 255.084 420.285 232.045 432.159C250.865 430.632 269.419 434.011 285.636 442.472C262.216 471.164 222.838 485.348 178.208 485.348C133.733 485.348 94.4735 471.262 71.0246 442.771C87.3757 434.09 106.143 430.614 125.183 432.159C101.861 420.139 77.6718 416.027 57.4664 420.785C53.8661 412.675 51.2377 403.794 49.7113 394.138C64.1843 387.373 79.879 385.099 94.8219 387.051C80.0859 377.89 63.5014 374.016 48.1868 376.217C48.1733 375.417 48.1665 374.613 48.1665 373.804C48.1665 370.683 48.2678 367.515 48.4671 364.309C49.2692 363.472 50.0904 362.647 50.9307 361.836C70.826 342.623 97.7213 334.406 125.183 336.634C100.931 324.135 75.7401 320.187 55.0672 325.872C56.8778 319.254 59.0196 312.632 61.4679 306.077C78.8244 294.387 99.0081 290.054 117.98 292.532C103.526 283.547 87.2932 279.647 72.2251 281.578C74.9264 276.264 77.8253 271.063 80.9068 266.02L80.7277 265.965L80.7743 265.888C108.903 274.233 142.474 278.31 178.319 278.31C214.008 278.31 247.444 274.269 275.497 265.997C278.532 270.963 281.389 276.081 284.056 281.31C269.711 280.096 254.474 284.046 240.823 292.532C258.657 290.202 277.562 293.892 294.183 304.053C296.923 311.19 299.302 318.416 301.286 325.638C280.779 320.3 255.956 324.311 232.045 336.634C259.506 334.406 286.402 342.623 306.297 361.836ZM321.878 105.175C324.734 102.603 327.06 99.5295 328.712 95.9862C337.37 77.4202 340.234 18.6872 315.385 7.10025C292.474 -3.58363 254.001 29.546 241.356 49.3296C246.814 51.3659 252.141 53.6381 257.324 56.1197C258.891 53.7049 260.927 51.15 263.206 48.6597C266.691 44.8516 270.985 40.932 275.613 37.5764C280.213 34.2408 285.329 31.3272 290.456 29.7201C295.552 28.1229 301.196 27.6602 306.328 30.0531C311.46 32.4461 314.734 37.0674 316.785 41.9976C318.85 46.9581 319.906 52.75 320.308 58.418C320.712 64.1202 320.47 69.9289 319.793 75.0465C319.127 80.0809 317.996 84.7885 316.438 88.1301C315.29 90.5926 313.734 92.7164 311.88 94.5058C315.385 97.9724 318.722 101.536 321.878 105.175ZM41.6181 7.10001C64.4875 -3.56418 102.86 29.4237 115.577 49.2199C109.771 51.3755 104.111 53.7983 98.6154 56.4563C99.3913 56.081 100.17 55.7103 100.953 55.3445C99.4778 53.1931 97.6605 50.9522 95.6554 48.7613C92.1702 44.9531 87.8764 41.0335 83.2485 37.6778C78.6482 34.3422 73.5322 31.4286 68.4052 29.8215C63.3094 28.2243 57.6649 27.7615 52.5332 30.1545C47.4014 32.5475 44.1277 37.1689 42.0758 42.0991C40.0113 47.0597 38.9547 52.8516 38.553 58.5197C38.1488 64.2218 38.3914 70.0306 39.0684 75.1482C39.7343 80.1827 40.8652 84.8904 42.4234 88.232C43.33 90.1762 44.4902 91.9093 45.8509 93.4333C42.0058 97.1776 38.3564 101.039 34.9211 104.99C32.1587 102.455 29.9038 99.4445 28.2911 95.986C19.6336 77.42 16.7697 18.687 41.6181 7.10001ZM255.013 60.3769C275.217 70.0249 293.198 82.9498 308.012 97.5122C313.272 102.683 318.133 108.06 322.552 113.571C307.031 111.417 290.251 115.373 275.332 124.648C295.595 122.001 317.215 126.981 335.451 140.23C338.04 142.111 340.492 144.109 342.804 146.21C345.685 152.652 347.911 159.085 349.421 165.405C326.954 155.42 297.353 158.562 269.011 173.17C296.986 170.901 324.385 179.271 344.652 198.843C346.122 200.263 347.534 201.722 348.889 203.218C334.061 250.314 263.334 273.484 178.319 273.484C93.2422 273.484 22.4733 250.28 7.71659 203.114C9.04264 201.654 10.4235 200.23 11.8593 198.843C32.1267 179.271 59.525 170.901 87.5 173.17C59.2177 158.593 29.6819 155.433 7.23233 165.342C8.82414 158.702 11.2048 151.938 14.3056 145.169C16.2713 143.447 18.334 141.798 20.4921 140.23C38.7274 126.981 60.3478 122.001 80.611 124.648C65.9404 115.528 49.471 111.551 34.1685 113.468C54.1574 88.5836 83.1496 66.4236 117.253 53.7539C131.525 67.8409 142.193 87.4012 148.394 109.339C148.9 86.5297 145.165 64.9005 137.77 47.4719L137.546 47.5263C147.439 45.1162 157.662 43.5245 168.134 42.8923L177.76 126.256L187.393 42.8289C198.218 43.4111 208.78 45.0203 218.99 47.5014C211.604 64.9249 207.874 86.5425 208.379 109.339C214.575 87.4199 225.23 67.8745 239.483 53.7901C244.788 55.7645 249.97 57.9686 255.013 60.3769ZM348.125 419.814C349.415 418.768 350.65 417.676 351.828 416.536C367.39 401.47 368.825 382.585 366.595 366.233C354.693 364.907 342.408 365.954 330.518 369.479C332.401 381.12 330.645 386.712 326.675 390.556C324.425 392.735 320.539 395.332 313.85 397.729C325.64 402.976 337.221 410.432 348.125 419.814ZM366.469 365.343C353.857 357.896 340.135 353.851 326.807 353.588C326.014 350.765 325.182 347.963 324.311 345.032C324.31 345.028 324.309 345.024 324.308 345.02L324.306 345.015L324.305 345.012L324.304 345.006L324.303 345.004C323.194 341.269 322.022 337.324 320.789 332.857C320.293 331.062 319.801 329.223 319.325 327.349C330.048 321.624 341.7 317.894 353.801 316.118C354.345 318.393 354.963 320.761 355.645 323.232C356.475 326.236 357.488 329.672 358.551 333.276C358.552 333.278 358.552 333.28 358.553 333.282L358.554 333.287L358.555 333.289L358.555 333.29L358.556 333.293L358.557 333.295C360.358 339.403 362.301 345.992 363.734 351.776C364.769 355.957 365.771 360.534 366.469 365.343ZM351.674 304.854C351.449 303.049 351.303 301.311 351.244 299.633C351.014 293.115 352.133 288.374 354.438 284.559C354.932 283.741 355.531 282.884 356.262 281.999C359.238 278.4 361.915 274.309 363.499 270.044L363.466 270.131C363.455 270.161 363.444 270.191 363.433 270.221L363.413 270.272C347.683 269.963 331.601 273.747 316.91 281.861C315.353 288.233 314.896 294.613 315.1 300.743C326.623 299.638 338.986 300.798 351.584 304.104C351.613 304.353 351.642 304.603 351.674 304.854ZM364.595 266.236C353.061 260.708 340.862 257.928 329.058 258.163C332.301 254.375 336.078 250.923 340.374 247.794C348.446 241.916 359.37 246.174 363.495 255.268C365.122 258.855 365.33 262.574 364.595 266.236Z" fill="#08090C"/>
<path d="M308.012 97.5122C293.198 82.9498 275.217 70.0249 255.013 60.3769C249.97 57.9686 244.788 55.7645 239.483 53.7901C225.23 67.8745 214.575 87.4199 208.379 109.339C207.874 86.5425 211.604 64.9249 218.99 47.5014C208.78 45.0203 198.218 43.4111 187.393 42.8289L177.76 126.256L168.134 42.8923C157.662 43.5245 147.439 45.1162 137.546 47.5263L137.77 47.4719C145.165 64.9005 148.9 86.5297 148.394 109.339C142.193 87.4012 131.525 67.8409 117.253 53.7539C83.1496 66.4236 54.1574 88.5836 34.1685 113.468C49.471 111.551 65.9404 115.528 80.611 124.648C60.3478 122.001 38.7274 126.981 20.4921 140.23C18.334 141.798 16.2713 143.447 14.3056 145.169C11.2048 151.938 8.82414 158.702 7.23233 165.342C29.6819 155.433 59.2177 158.593 87.5 173.17C59.525 170.901 32.1267 179.271 11.8593 198.843C10.4235 200.23 9.04264 201.654 7.71659 203.114C22.4733 250.28 93.2422 273.484 178.319 273.484C263.334 273.484 334.061 250.314 348.889 203.218C347.534 201.722 346.122 200.263 344.652 198.843C324.385 179.271 296.986 170.901 269.011 173.17C297.353 158.562 326.954 155.42 349.421 165.405C347.911 159.085 345.685 152.652 342.804 146.21C340.492 144.109 338.04 142.111 335.451 140.23C317.215 126.981 295.595 122.001 275.332 124.648C290.251 115.373 307.031 111.417 322.552 113.571C318.133 108.06 313.272 102.683 308.012 97.5122Z" fill="#313749"/>
<path d="M115.577 49.2199C102.86 29.4237 64.4875 -3.56418 41.6181 7.10001C16.7697 18.687 19.6336 77.42 28.2911 95.986C29.9038 99.4445 32.1587 102.455 34.9211 104.99C38.3564 101.039 42.0058 97.1776 45.8509 93.4333C44.4902 91.9093 43.33 90.1762 42.4234 88.232C40.8652 84.8904 39.7343 80.1827 39.0684 75.1482C38.3914 70.0306 38.1488 64.2218 38.553 58.5197C38.9547 52.8516 40.0113 47.0597 42.0758 42.0991C44.1277 37.1689 47.4014 32.5475 52.5332 30.1545C57.6649 27.7615 63.3094 28.2243 68.4052 29.8215C73.5322 31.4286 78.6482 34.3422 83.2485 37.6778C87.8764 41.0335 92.1702 44.9531 95.6554 48.7613C97.6605 50.9522 99.4778 53.1931 100.953 55.3445C100.17 55.7103 99.3913 56.081 98.6154 56.4563C104.111 53.7983 109.771 51.3755 115.577 49.2199Z" fill="#313749"/>
<path d="M328.712 95.9862C327.06 99.5295 324.734 102.603 321.878 105.175C318.722 101.536 315.385 97.9724 311.88 94.5058C313.734 92.7164 315.29 90.5926 316.438 88.1301C317.996 84.7885 319.127 80.0809 319.793 75.0465C320.47 69.9289 320.712 64.1202 320.308 58.418C319.906 52.75 318.85 46.9581 316.785 41.9976C314.734 37.0674 311.46 32.4461 306.328 30.0531C301.196 27.6602 295.552 28.1229 290.456 29.7201C285.329 31.3272 280.213 34.2408 275.613 37.5764C270.985 40.932 266.691 44.8516 263.206 48.6597C260.927 51.15 258.891 53.7049 257.324 56.1197C252.141 53.6381 246.814 51.3659 241.356 49.3296C254.001 29.546 292.474 -3.58363 315.385 7.10025C340.234 18.6872 337.37 77.4202 328.712 95.9862Z" fill="#313749"/>
<path d="M307.89 363.413C307.367 362.882 306.836 362.356 306.297 361.836C286.402 342.623 259.506 334.406 232.045 336.634C255.956 324.311 280.779 320.3 301.286 325.638C299.302 318.416 296.923 311.19 294.183 304.053C277.562 293.892 258.657 290.202 240.823 292.532C254.474 284.046 269.711 280.096 284.056 281.31C281.389 276.081 278.532 270.963 275.497 265.997C247.444 274.269 214.008 278.31 178.319 278.31C142.474 278.31 108.903 274.233 80.7743 265.888L80.7277 265.965L80.9068 266.02C77.8253 271.063 74.9264 276.264 72.2251 281.578C87.2932 279.647 103.526 283.547 117.98 292.532C99.0081 290.054 78.8244 294.387 61.4679 306.077C59.0196 312.632 56.8778 319.254 55.0672 325.872C75.7401 320.187 100.931 324.135 125.183 336.634C97.7213 334.406 70.826 342.623 50.9307 361.836C50.0904 362.647 49.2692 363.472 48.4671 364.309C48.2678 367.515 48.1665 370.683 48.1665 373.804C48.1665 374.613 48.1733 375.417 48.1868 376.217C63.5014 374.016 80.0859 377.89 94.8219 387.051C79.879 385.099 64.1843 387.373 49.7113 394.138C51.2377 403.794 53.8661 412.675 57.4664 420.785C77.6718 416.027 101.861 420.139 125.183 432.159C106.143 430.614 87.3757 434.09 71.0246 442.771C94.4735 471.262 133.733 485.348 178.208 485.348C222.838 485.348 262.216 471.164 285.636 442.472C269.419 434.011 250.865 430.632 232.045 432.159C255.084 420.285 278.969 416.128 299.024 420.615C302.591 412.54 305.196 403.702 306.711 394.098C292.893 388.147 278.074 386.209 263.929 388.056C277.915 379.362 293.565 375.43 308.215 376.933C308.238 375.898 308.249 374.855 308.249 373.804C308.249 370.393 308.128 366.925 307.89 363.413Z" fill="#313749"/>
<path d="M351.828 416.536C350.65 417.676 349.415 418.768 348.125 419.814C337.221 410.432 325.64 402.976 313.85 397.729C320.539 395.332 324.425 392.735 326.675 390.556C330.645 386.712 332.401 381.12 330.518 369.479C342.408 365.954 354.693 364.907 366.595 366.233C368.825 382.585 367.39 401.47 351.828 416.536Z" fill="#313749"/>
<path d="M312.663 435.674C307.215 436.951 301.28 438.014 294.827 438.861C298.506 433.421 301.686 427.56 304.317 421.281C316.225 420.948 328.176 422.39 339.861 425.464C332.156 429.913 323.042 433.241 312.663 435.674Z" fill="#313749"/>
<path d="M326.807 353.588C340.135 353.851 353.857 357.896 366.469 365.343C365.771 360.534 364.769 355.957 363.734 351.776C362.301 345.992 360.358 339.403 358.557 333.295L358.556 333.293L358.555 333.29L358.555 333.289L358.554 333.287L358.553 333.282L358.551 333.276C357.488 329.672 356.475 326.236 355.645 323.232C354.963 320.761 354.345 318.393 353.801 316.118C341.7 317.894 330.048 321.624 319.325 327.349C319.801 329.223 320.293 331.062 320.789 332.857C322.022 337.324 323.194 341.269 324.303 345.004L324.304 345.006L324.305 345.012L324.306 345.015L324.308 345.02L324.311 345.032C325.182 347.963 326.014 350.765 326.807 353.588Z" fill="#313749"/>
<path d="M351.244 299.633C351.303 301.311 351.449 303.049 351.674 304.854C351.642 304.603 351.613 304.353 351.584 304.104C338.986 300.798 326.623 299.638 315.1 300.743C314.896 294.613 315.353 288.233 316.91 281.861C331.601 273.747 347.683 269.963 363.413 270.272L363.433 270.221L363.466 270.131L363.499 270.044C361.915 274.309 359.238 278.4 356.262 281.999C355.531 282.884 354.932 283.741 354.438 284.559C352.133 288.374 351.014 293.115 351.244 299.633Z" fill="#313749"/>
<path d="M329.058 258.163C340.862 257.928 353.061 260.708 364.595 266.236C365.33 262.574 365.122 258.855 363.495 255.268C359.37 246.174 348.446 241.916 340.374 247.794C336.078 250.923 332.301 254.375 329.058 258.163Z" fill="#313749"/>
<path d="M241.113 332.376C238.646 312.93 234.688 293.291 229.561 275.282C213.296 277.308 196.087 278.31 178.319 278.31C160.051 278.31 142.373 277.251 125.706 275.108C120.624 292.92 116.687 312.335 114.206 331.583C114.206 331.583 114.206 331.583 114.206 331.583C114.002 333.162 113.809 334.74 113.625 336.316C117.454 336.214 121.313 336.32 125.183 336.634C125.183 336.634 125.183 336.634 125.183 336.634C121.313 336.32 117.454 336.214 113.625 336.316C112.048 349.839 111.204 363.208 111.204 375.806C111.204 396.156 113.404 413.688 117.345 428.43C117.652 429.576 117.969 430.706 118.296 431.819C126.796 460.712 142.25 478.235 160.883 484.61C166.551 485.102 172.334 485.347 178.208 485.347C183.535 485.347 188.787 485.145 193.945 484.741C212.74 478.481 228.343 460.935 236.905 431.874C237.14 431.076 237.37 430.27 237.594 429.455C237.626 429.338 237.658 429.221 237.69 429.104C238.073 427.698 238.44 426.266 238.791 424.809C238.792 424.805 238.793 424.8 238.794 424.796C242.155 410.832 244.013 394.509 244.013 375.806C244.013 363.197 243.168 349.816 241.588 336.282C241.417 334.81 241.236 333.337 241.047 331.862C241.069 332.033 241.091 332.204 241.113 332.376C241.113 332.376 241.113 332.376 241.113 332.376Z" fill="#919AB6"/>
<path fill-rule="evenodd" clip-rule="evenodd" d="M166.596 503.488C159.133 507.99 149.269 510 138.925 510C128.582 510 118.717 507.99 111.255 503.488C103.585 498.862 98.4382 491.529 98.4382 481.675C98.4382 472.348 103.069 461.98 110.08 454.026C117.13 446.029 127.266 439.717 138.925 439.717C150.584 439.717 160.721 446.029 167.77 454.026C174.782 461.98 179.412 472.348 179.412 481.675C179.412 491.529 174.265 498.862 166.596 503.488ZM138.925 504.972C158.509 504.972 174.385 497.301 174.385 481.675C174.385 466.05 158.509 444.745 138.925 444.745C119.341 444.745 103.466 466.05 103.466 481.675C103.466 497.301 119.341 504.972 138.925 504.972Z" fill="#08090C"/>
<path d="M174.385 481.675C174.385 497.301 158.509 504.972 138.925 504.972C119.341 504.972 103.466 497.301 103.466 481.675C103.466 466.05 119.341 444.745 138.925 444.745C158.509 444.745 174.385 466.05 174.385 481.675Z" fill="#919AB6"/>
<path fill-rule="evenodd" clip-rule="evenodd" d="M243.94 503.488C236.478 507.99 226.613 510 216.269 510C205.926 510 196.061 507.99 188.599 503.488C180.929 498.862 175.782 491.529 175.782 481.675C175.782 472.348 180.413 461.98 187.424 454.026C194.474 446.029 204.61 439.717 216.269 439.717C227.929 439.717 238.065 446.029 245.114 454.026C252.126 461.98 256.756 472.348 256.756 481.675C256.756 491.529 251.61 498.862 243.94 503.488ZM216.269 504.972C235.853 504.972 251.729 497.301 251.729 481.675C251.729 466.05 235.853 444.745 216.269 444.745C196.686 444.745 180.81 466.05 180.81 481.675C180.81 497.301 196.686 504.972 216.269 504.972Z" fill="#08090C"/>
<path d="M251.729 481.675C251.729 497.301 235.853 504.972 216.269 504.972C196.686 504.972 180.81 497.301 180.81 481.675C180.81 466.05 196.686 444.745 216.269 444.745C235.853 444.745 251.729 466.05 251.729 481.675Z" fill="#919AB6"/>
<path d="M264.413 230.123C264.413 260.048 225.599 274.741 177.719 274.741C129.839 274.741 91.0248 260.048 91.0248 230.123C91.0248 200.198 129.839 159.395 177.719 159.395C225.599 159.395 264.413 200.198 264.413 230.123Z" fill="#919AB6"/>
<path d="M178.449 180.54C168.873 180.54 161.11 185.392 161.11 191.377C161.11 196.959 167.864 204.435 176.543 205.415L176.552 206.931C176.552 206.973 176.552 207.016 176.552 207.059C176.552 217.539 169.062 225.715 160.193 225.715C151.506 225.715 144.145 217.875 143.844 207.7L140.829 207.7C140.822 207.937 140.818 208.177 140.818 208.416V208.446C140.825 220.232 149.331 230.104 160.193 230.104C168.718 230.104 175.799 224.012 178.449 215.703C181.099 224.012 188.18 230.104 196.704 230.104C207.571 230.104 216.08 220.224 216.08 208.431C216.08 208.186 216.076 207.943 216.069 207.701L213.054 207.7C212.752 217.876 205.391 225.715 196.704 225.715C187.836 225.715 180.346 217.539 180.346 207.059C180.346 207.035 180.346 207.011 180.346 206.987C180.346 206.968 180.346 206.949 180.346 206.931L180.355 205.415C189.034 204.434 195.788 196.959 195.788 191.377C195.788 185.392 188.025 180.54 178.449 180.54Z" fill="#08090C"/>
<circle cx="125.304" cy="142.906" r="25.6063" fill="#08090C"/>
<ellipse cx="5.33091" cy="7.88419" rx="5.33091" ry="7.88419" transform="matrix(0.909809 -0.415028 0.430286 0.902692 129.926 132.919)" fill="#ECF1FE"/>
<circle cx="234.728" cy="143.267" r="25.6063" fill="#08090C"/>
<ellipse cx="5.33091" cy="7.88419" rx="5.33091" ry="7.88419" transform="matrix(0.909809 -0.415028 0.430286 0.902692 239.346 132.919)" fill="#ECF1FE"/>
<path d="M224.699 196.89C236.058 197.495 251.227 200.053 267.556 204.429C283.885 208.804 298.3 214.173 308.44 219.328C301.991 213.147 286.851 206.022 268.45 201.091C250.05 196.161 233.375 194.761 224.699 196.89Z" fill="#08090C"/>
<path d="M224.163 188.468C234.289 186.113 248.225 184.658 263.609 184.658C278.992 184.658 292.928 186.113 303.054 188.468C295.93 184.166 280.944 181.203 263.609 181.203C246.273 181.203 231.287 184.166 224.163 188.468Z" fill="#08090C"/>
<path d="M223.819 205.32C233.371 208.116 245.623 213.509 258.345 220.854C271.067 228.199 281.864 236.113 289.061 242.988C285.32 235.861 274.409 226.139 260.073 217.862C245.737 209.585 231.862 204.996 223.819 205.32Z" fill="#08090C"/>
<path d="M132.005 196.89C120.647 197.495 105.478 200.053 89.1492 204.429C72.8202 208.804 58.4045 214.173 48.2651 219.328C54.7137 213.146 69.8544 206.021 88.2548 201.091C106.655 196.161 123.33 194.761 132.005 196.89Z" fill="#08090C"/>
<path d="M132.542 188.468C122.415 186.112 108.48 184.658 93.0961 184.658C77.7126 184.658 63.7768 186.112 53.6502 188.468C60.7743 184.166 75.761 181.202 93.0961 181.202C110.431 181.202 125.418 184.166 132.542 188.468Z" fill="#08090C"/>
<path d="M132.886 205.32C123.334 208.116 111.082 213.509 98.3598 220.854C85.6379 228.199 74.8407 236.113 67.6439 242.988C71.3844 235.861 82.2963 226.139 96.6321 217.862C110.968 209.585 124.843 204.996 132.886 205.32Z" fill="#08090C"/>
</svg>
