<svg width="366" height="510" viewBox="0 0 366 510" fill="none" xmlns="http://www.w3.org/2000/svg">
<path fill-rule="evenodd" clip-rule="evenodd" d="M128.678 480.041C121.201 484.552 111.317 486.565 100.953 486.565C90.5894 486.565 80.7054 484.552 73.2283 480.041C65.5436 475.405 60.3867 468.058 60.3867 458.185C60.3867 448.84 65.0265 438.451 72.0515 430.481C79.115 422.469 89.2711 416.145 100.953 416.145C112.635 416.145 122.792 422.469 129.855 430.481C136.88 438.451 141.52 448.84 141.52 458.185C141.52 468.058 136.363 475.405 128.678 480.041ZM100.953 481.528C120.575 481.528 136.482 473.841 136.482 458.185C136.482 442.529 120.575 421.182 100.953 421.182C81.3311 421.182 65.4242 442.529 65.4242 458.185C65.4242 473.841 81.3311 481.528 100.953 481.528Z" fill="#08090C"/>
<path d="M136.482 458.185C136.482 473.841 120.575 481.528 100.953 481.528C81.3311 481.528 65.4242 473.841 65.4242 458.185C65.4242 442.529 81.3311 421.182 100.953 421.182C120.575 421.182 136.482 442.529 136.482 458.185Z" fill="#919AB6"/>
<path fill-rule="evenodd" clip-rule="evenodd" d="M284.489 480.041C277.012 484.552 267.128 486.565 256.764 486.565C246.4 486.565 236.517 484.552 229.039 480.041C221.355 475.405 216.198 468.058 216.198 458.185C216.198 448.84 220.838 438.451 227.863 430.481C234.926 422.469 245.082 416.145 256.764 416.145C268.447 416.145 278.603 422.469 285.666 430.481C292.691 438.451 297.331 448.84 297.331 458.185C297.331 468.058 292.174 475.405 284.489 480.041ZM256.764 481.528C276.387 481.528 292.293 473.841 292.293 458.185C292.293 442.529 276.387 421.182 256.764 421.182C237.142 421.182 221.235 442.529 221.235 458.185C221.235 473.841 237.142 481.528 256.764 481.528Z" fill="#08090C"/>
<path d="M292.293 458.185C292.293 473.841 276.387 481.528 256.764 481.528C237.142 481.528 221.235 473.841 221.235 458.185C221.235 442.529 237.142 421.182 256.764 421.182C276.387 421.182 292.293 442.529 292.293 458.185Z" fill="#919AB6"/>
<path fill-rule="evenodd" clip-rule="evenodd" d="M236.01 435.186C252.941 439.484 267.133 441.812 278.938 442.108C293.691 442.477 308.064 439.733 318.504 429.846C329.144 419.771 331.33 406.441 331.364 396.084C331.399 385.76 329.283 374.482 327.35 364.717C327.063 363.266 326.775 361.826 326.49 360.403C324.722 351.568 323.083 343.36 322.184 335.266C321.145 325.914 321.308 318.257 322.912 312.053C324.397 306.304 327.172 301.512 332.371 297.371C336.044 294.445 341.431 291.451 349.371 288.943C359.231 285.828 366.716 276.097 364.774 265.049C362.89 254.334 352.432 246.485 341.269 249.624C327.818 253.407 316.543 258.839 307.449 266.083C294.818 276.145 287.626 288.725 284.184 302.045C280.859 314.911 281.134 328.027 282.429 339.683C283.537 349.657 285.548 359.685 287.284 368.342L287.304 368.438L287.304 368.44L287.307 368.457C287.583 369.834 287.852 371.175 288.111 372.482C290.139 382.731 291.383 390.215 291.364 395.951C291.355 398.823 291.026 400.252 290.823 400.85C289.921 401.274 286.986 402.296 279.938 402.12C272.295 401.929 261.586 400.357 246.854 396.668C236.339 394.035 225.271 399.924 222.166 410.583C219.091 421.136 225.121 432.422 236.01 435.186ZM290.669 401.208C290.667 401.206 290.681 401.177 290.714 401.128C290.687 401.186 290.67 401.21 290.669 401.208ZM259.11 435.033C252.451 433.917 245.177 432.354 237.24 430.34C229.211 428.302 224.649 419.935 226.966 411.981C229.283 404.028 237.603 399.506 245.639 401.518C254.845 403.823 262.598 405.338 269.102 406.209C267.951 408.456 266.884 410.706 265.902 412.955C268.245 410.752 270.748 408.665 273.407 406.71C275.721 406.936 277.852 407.07 279.813 407.119C290.608 407.389 293.776 405.06 294.438 404.433C294.952 403.947 296.344 402.249 296.364 395.968C296.366 395.637 296.363 395.302 296.357 394.963C306.169 391.819 316.338 390.691 326.242 391.493C326.326 393.038 326.369 394.565 326.364 396.068C326.332 405.851 324.255 417.514 315.066 426.216C314.366 426.878 313.645 427.505 312.902 428.099C293.731 422.804 275.133 423.349 260.073 430.322C259.704 431.901 259.383 433.472 259.11 435.033ZM326.124 389.66C316.073 384.177 305.286 381.207 294.79 381.01C294.846 381.337 294.9 381.66 294.953 381.981C294.424 378.779 293.765 375.299 293.016 371.512C292.755 370.193 292.484 368.84 292.207 367.459L292.206 367.456L292.205 367.45C291.877 365.817 291.542 364.143 291.205 362.438L291.3 362.918C300.41 358.612 310.118 355.684 320.148 354.112C320.612 356.511 321.097 358.933 321.587 361.384L321.602 361.459C321.882 362.859 322.164 364.268 322.445 365.687C323.971 373.4 325.537 381.72 326.124 389.66ZM317.985 341.721C317.693 339.746 317.433 337.78 317.215 335.818C316.144 326.179 316.252 317.84 318.071 310.802C319.801 304.104 323.129 298.34 329.256 293.46C333.497 290.081 339.459 286.83 347.865 284.175C347.9 284.164 347.935 284.153 347.97 284.141C341.913 275.126 334.792 267.054 326.772 260.175C320.677 262.965 315.283 266.235 310.564 269.994C304.182 275.078 299.306 280.841 295.672 287.038C306.694 286.671 318.088 288.96 328.977 293.684C326.843 295.417 325.056 297.26 323.563 299.216C311.434 299.948 299.254 303.126 287.82 308.857C286.057 318.836 286.313 328.933 287.311 338.33L287.31 338.322C297.121 337.899 307.465 339.056 317.985 341.721ZM339.679 255.304C343.446 264.141 346.39 273.776 348.404 283.996C356.014 281.331 361.251 273.887 359.849 265.915C358.415 257.756 350.597 252.195 342.623 254.437C341.628 254.717 340.647 255.006 339.679 255.304Z" fill="#08090C"/>
<path d="M348.404 283.996C346.39 273.776 343.446 264.141 339.679 255.304C340.647 255.006 341.628 254.717 342.623 254.437C350.597 252.195 358.415 257.756 359.849 265.915C361.251 273.887 356.014 281.331 348.404 283.996Z" fill="#313749"/>
<path d="M317.215 335.818C317.433 337.78 317.693 339.746 317.985 341.721C307.465 339.056 297.121 337.899 287.31 338.322L287.311 338.33C286.313 328.933 286.057 318.836 287.82 308.857C299.254 303.126 311.434 299.948 323.563 299.216C325.056 297.26 326.843 295.417 328.977 293.684C318.088 288.96 306.694 286.671 295.672 287.038C299.306 280.841 304.182 275.078 310.564 269.994C315.283 266.235 320.677 262.965 326.772 260.175C334.792 267.054 341.913 275.126 347.97 284.141C347.935 284.153 347.9 284.164 347.865 284.175C339.459 286.83 333.497 290.081 329.256 293.46C323.129 298.34 319.801 304.104 318.071 310.802C316.252 317.84 316.144 326.179 317.215 335.818Z" fill="#313749"/>
<path d="M294.79 381.01C305.286 381.207 316.073 384.177 326.124 389.66C325.537 381.72 323.971 373.4 322.445 365.687C322.164 364.268 321.882 362.859 321.602 361.459L321.587 361.384C321.097 358.933 320.612 356.511 320.148 354.112C310.118 355.684 300.41 358.612 291.3 362.918L291.205 362.438C291.542 364.143 291.877 365.817 292.205 367.45L292.206 367.456L292.207 367.459C292.484 368.84 292.755 370.193 293.016 371.512C293.765 375.299 294.424 378.779 294.953 381.981C294.9 381.66 294.846 381.337 294.79 381.01Z" fill="#313749"/>
<path d="M237.24 430.34C245.177 432.354 252.451 433.917 259.11 435.033C259.383 433.472 259.704 431.901 260.073 430.322C275.133 423.349 293.731 422.804 312.902 428.099C313.645 427.505 314.366 426.878 315.066 426.216C324.255 417.514 326.332 405.851 326.364 396.068C326.369 394.565 326.326 393.038 326.242 391.493C316.338 390.691 306.169 391.819 296.357 394.963C296.363 395.302 296.366 395.637 296.364 395.968C296.344 402.249 294.952 403.947 294.438 404.433C293.776 405.06 290.608 407.389 279.813 407.119C277.852 407.07 275.721 406.936 273.407 406.71C270.748 408.665 268.245 410.752 265.902 412.955C266.884 410.706 267.951 408.456 269.102 406.209C262.598 405.338 254.845 403.823 245.639 401.518C237.603 399.506 229.283 404.028 226.966 411.981C224.649 419.935 229.211 428.302 237.24 430.34Z" fill="#313749"/>
<path fill-rule="evenodd" clip-rule="evenodd" d="M235.334 47.5861C217.368 41.4652 198.087 37.9117 178 37.8343C157.913 37.9117 138.632 41.4653 120.666 47.5861C118.031 43.3017 114.347 38.5842 110.064 33.9039C104.188 27.4833 96.9404 20.8681 89.1443 15.2152C81.3764 9.58271 72.8742 4.76736 64.4914 2.13981C56.1405 -0.477722 47.3595 -1.0834 39.5709 2.54847C31.7823 6.18035 26.602 13.2963 23.2393 21.376C19.8637 29.4866 18.0874 39.0949 17.409 48.6659C16.7282 58.2717 17.137 68.0758 18.2784 76.7042C19.4086 85.2476 21.3023 92.9877 23.7812 98.3036C25.7324 102.488 28.4499 106.071 31.7328 109.046C11.8909 133.167 0 160.244 0 184.531C0 217.084 21.2588 240.814 53.6785 256.145C60.6201 259.427 68.1096 262.347 76.0703 264.908C55.7113 298.782 43.3224 339.412 43.3224 374.538L43.3226 374.787L43.3224 375.036C43.3224 413.949 58.5395 443.347 83.3681 462.898C107.921 482.232 141.458 491.625 178 491.72C214.542 491.625 248.079 482.232 272.632 462.898C297.46 443.347 312.678 413.949 312.678 375.036L312.677 374.787L312.678 374.538C312.678 339.412 300.289 298.782 279.93 264.908C287.89 262.347 295.38 259.427 302.322 256.145C334.741 240.814 356 217.084 356 184.53C356 160.244 344.109 133.167 324.267 109.046C327.55 106.071 330.268 102.488 332.219 98.3035C334.698 92.9876 336.591 85.2476 337.722 76.7042C338.863 68.0758 339.272 58.2717 338.591 48.6658C337.913 39.0948 336.136 29.4865 332.761 21.3759C329.398 13.2963 324.218 6.18032 316.429 2.54844C308.641 -1.08344 299.859 -0.477754 291.509 2.13978C283.126 4.76732 274.624 9.58268 266.856 15.2151C259.06 20.8681 251.812 27.4833 245.936 33.9038C241.653 38.5842 237.969 43.3017 235.334 47.5861ZM178 486.3C222.332 486.183 261.439 472.069 284.836 443.641C268.453 434.943 249.648 431.46 230.571 433.008C253.938 420.964 278.176 416.844 298.421 421.611C302.028 413.486 304.662 404.587 306.191 394.913C291.69 388.134 275.964 385.856 260.992 387.811C275.757 378.633 292.374 374.751 307.719 376.956C307.732 376.155 307.739 375.349 307.739 374.538C307.739 371.412 307.637 368.237 307.438 365.025C306.634 364.186 305.811 363.36 304.969 362.547C285.035 343.296 258.087 335.063 230.571 337.296C254.871 324.772 280.111 320.816 300.825 326.512C299.01 319.881 296.864 313.246 294.411 306.678C277.021 294.965 256.797 290.624 237.788 293.107C252.271 284.104 268.535 280.197 283.633 282.132C280.926 276.807 278.022 271.596 274.934 266.542L275.114 266.487L275.067 266.411C247.059 274.72 213.664 278.806 178 278.856C142.336 278.806 108.941 274.72 80.9329 266.411L80.8863 266.487L81.0658 266.542C77.9782 271.596 75.0736 276.807 72.367 282.132C87.4647 280.197 103.729 284.104 118.212 293.107C99.2026 290.624 78.9792 294.965 61.5886 306.678C59.1356 313.246 56.9896 319.881 55.1754 326.512C75.8889 320.816 101.129 324.772 125.429 337.296C97.9133 335.063 70.9651 343.296 51.0308 362.547C50.1888 363.36 49.366 364.186 48.5624 365.025C48.3626 368.237 48.2611 371.412 48.2611 374.538C48.2611 375.349 48.2679 376.155 48.2815 376.956C63.6261 374.751 80.2433 378.633 95.0081 387.811C80.0359 385.856 64.3104 388.134 49.809 394.913C51.3384 404.587 53.972 413.486 57.5793 421.611C77.8244 416.844 102.062 420.965 125.429 433.008C106.352 431.46 87.5473 434.943 71.1641 443.641C94.561 472.069 133.668 486.183 178 486.3ZM178 274.021C262.946 273.899 333.521 250.648 348.268 203.513C346.94 202.05 345.556 200.623 344.117 199.234C323.81 179.623 296.358 171.236 268.328 173.51C296.666 158.905 326.26 155.738 348.753 165.667C347.159 159.014 344.773 152.236 341.666 145.454C339.697 143.729 337.63 142.076 335.468 140.505C317.197 127.231 295.534 122.241 275.231 124.892C289.93 115.755 306.432 111.77 321.764 113.691C301.736 88.7576 272.687 66.5541 238.516 53.8595C224.217 67.9742 213.528 87.5729 207.315 109.554C206.808 86.6997 210.55 65.028 217.959 47.5651L218.184 47.6196C208.272 45.2048 198.028 43.61 187.536 42.9766L178 125.557L168.464 42.9766C157.972 43.61 147.728 45.2049 137.816 47.6197L138.041 47.5651C145.45 65.0281 149.192 86.6998 148.685 109.554C142.472 87.5729 131.783 67.9742 117.484 53.8595C83.313 66.5542 54.2638 88.7576 34.2356 113.691C49.5682 111.77 66.0699 115.755 80.7694 124.893C60.4664 122.241 38.8034 127.231 20.5324 140.505C18.37 142.077 16.3033 143.729 14.3337 145.454C11.2268 152.236 8.84147 159.014 7.24654 165.667C29.7402 155.739 59.3341 158.905 87.6719 173.51C59.6419 171.236 32.1898 179.623 11.8826 199.234C10.444 200.623 9.0604 202.05 7.73175 203.513C22.4787 250.648 93.0543 273.899 178 274.021ZM314.3 7.11395C291.386 -3.57118 252.937 29.4815 240.196 49.3166C246.014 51.4764 251.685 53.904 257.191 56.5672C256.413 56.1912 255.633 55.8198 254.849 55.4533C256.327 53.2976 258.148 51.0523 260.157 48.8571C263.649 45.0415 267.951 41.1141 272.588 37.7519C277.197 34.4097 282.323 31.4903 287.46 29.8801C292.566 28.2798 298.222 27.8161 303.364 30.2138C308.505 32.6114 311.786 37.2419 313.842 42.1818C315.91 47.1521 316.969 52.9555 317.371 58.6347C317.776 64.348 317.533 70.1682 316.855 75.2959C316.188 80.3402 315.055 85.0572 313.493 88.4054C312.585 90.3534 311.422 92.0899 310.059 93.6169C313.912 97.3685 317.568 101.237 321.01 105.196C323.778 102.656 326.037 99.6399 327.653 96.1746C336.328 77.5721 339.197 18.7237 314.3 7.11395ZM41.6998 7.11399C64.6142 -3.57115 103.063 29.4816 115.804 49.3166C109.986 51.4764 104.315 53.904 98.8092 56.5672C99.5866 56.1912 100.367 55.8198 101.151 55.4533C99.6733 53.2976 97.8524 51.0523 95.8433 48.8571C92.3513 45.0415 88.049 41.1142 83.412 37.7519C78.8028 34.4097 73.6767 31.4904 68.5396 29.8802C63.4338 28.2798 57.7782 27.8161 52.6364 30.2138C47.4946 32.6115 44.2144 37.2419 42.1585 42.1819C40.0899 47.1521 39.0313 52.9555 38.6287 58.6347C38.2238 64.348 38.4668 70.1682 39.1451 75.2959C39.8124 80.3403 40.9454 85.0572 42.5067 88.4054C43.4151 90.3534 44.5776 92.0899 45.941 93.6169C42.0883 97.3686 38.4318 101.237 34.9897 105.196C32.2219 102.656 29.9626 99.6399 28.3467 96.1746C19.6722 77.5721 16.8026 18.7237 41.6998 7.11399Z" fill="#08090C"/>
<path d="M115.804 49.3166C103.063 29.4816 64.6142 -3.57115 41.6998 7.11399C16.8026 18.7237 19.6722 77.5721 28.3467 96.1746C29.9626 99.6399 32.2219 102.656 34.9897 105.196C38.4318 101.237 42.0883 97.3686 45.941 93.6169C44.5776 92.0899 43.4151 90.3534 42.5067 88.4054C40.9454 85.0572 39.8124 80.3403 39.1451 75.2959C38.4668 70.1682 38.2238 64.348 38.6287 58.6347C39.0313 52.9555 40.0899 47.1521 42.1585 42.1819C44.2144 37.2419 47.4946 32.6115 52.6364 30.2138C57.7782 27.8161 63.4338 28.2798 68.5396 29.8802C73.6767 31.4904 78.8028 34.4097 83.412 37.7519C88.049 41.1142 92.3513 45.0415 95.8433 48.8571C97.8524 51.0523 99.6733 53.2976 101.151 55.4533C100.367 55.8198 99.5866 56.1912 98.8092 56.5672C104.315 53.904 109.986 51.4764 115.804 49.3166Z" fill="#313749"/>
<path d="M240.196 49.3166C252.937 29.4815 291.386 -3.57118 314.3 7.11395C339.197 18.7237 336.328 77.5721 327.653 96.1746C326.037 99.6399 323.778 102.656 321.01 105.196C317.568 101.237 313.912 97.3685 310.059 93.6169C311.422 92.0899 312.585 90.3534 313.493 88.4054C315.055 85.0572 316.188 80.3402 316.855 75.2959C317.533 70.1682 317.776 64.348 317.371 58.6347C316.969 52.9555 315.91 47.1521 313.842 42.1818C311.786 37.2419 308.505 32.6114 303.364 30.2138C298.222 27.8161 292.566 28.2798 287.46 29.8801C282.323 31.4903 277.197 34.4097 272.588 37.7519C267.951 41.1141 263.649 45.0415 260.157 48.8571C258.148 51.0523 256.327 53.2976 254.849 55.4533C255.633 55.8198 256.413 56.1912 257.191 56.5672C251.685 53.904 246.014 51.4764 240.196 49.3166Z" fill="#313749"/>
<path d="M178 274.021C262.946 273.899 333.521 250.648 348.268 203.513C346.94 202.05 345.556 200.623 344.117 199.234C323.81 179.623 296.358 171.236 268.328 173.51C296.666 158.905 326.26 155.738 348.753 165.667C347.159 159.014 344.773 152.236 341.666 145.454C339.697 143.729 337.63 142.076 335.468 140.505C317.197 127.231 295.534 122.241 275.231 124.892C289.93 115.755 306.432 111.77 321.764 113.691C301.736 88.7576 272.687 66.5541 238.516 53.8595C224.217 67.9742 213.528 87.5729 207.315 109.554C206.808 86.6997 210.55 65.028 217.959 47.5651L218.184 47.6196C208.272 45.2048 198.028 43.61 187.536 42.9766L178 125.557L168.464 42.9766C157.972 43.61 147.728 45.2049 137.816 47.6197L138.041 47.5651C145.45 65.0281 149.192 86.6998 148.685 109.554C142.472 87.5729 131.783 67.9742 117.484 53.8595C83.313 66.5542 54.2638 88.7576 34.2356 113.691C49.5682 111.77 66.0699 115.755 80.7694 124.893C60.4664 122.241 38.8034 127.231 20.5324 140.505C18.37 142.077 16.3033 143.729 14.3337 145.454C11.2268 152.236 8.84147 159.014 7.24654 165.667C29.7402 155.739 59.3341 158.905 87.6719 173.51C59.6419 171.236 32.1898 179.623 11.8826 199.234C10.444 200.623 9.0604 202.05 7.73175 203.513C22.4787 250.648 93.0543 273.899 178 274.021Z" fill="#313749"/>
<path d="M178 486.3C222.332 486.183 261.439 472.069 284.836 443.641C268.453 434.943 249.648 431.46 230.571 433.008C253.938 420.964 278.176 416.844 298.421 421.611C302.028 413.486 304.662 404.587 306.191 394.913C291.69 388.134 275.964 385.856 260.992 387.811C275.757 378.633 292.374 374.751 307.719 376.956C307.732 376.155 307.739 375.349 307.739 374.538C307.739 371.412 307.637 368.237 307.438 365.025C306.634 364.186 305.811 363.36 304.969 362.547C285.035 343.296 258.087 335.063 230.571 337.296C254.871 324.772 280.111 320.816 300.825 326.512C299.01 319.881 296.864 313.246 294.411 306.678C277.021 294.965 256.797 290.624 237.788 293.107C252.271 284.104 268.535 280.197 283.633 282.132C280.926 276.807 278.022 271.596 274.934 266.542L275.114 266.487L275.067 266.411C247.059 274.72 213.664 278.806 178 278.856C142.336 278.806 108.941 274.72 80.9329 266.411L80.8863 266.487L81.0658 266.542C77.9782 271.596 75.0736 276.807 72.367 282.132C87.4647 280.197 103.729 284.104 118.212 293.107C99.2026 290.624 78.9792 294.965 61.5886 306.678C59.1356 313.246 56.9896 319.881 55.1754 326.512C75.8889 320.816 101.129 324.772 125.429 337.296C97.9133 335.063 70.9651 343.296 51.0308 362.547C50.1888 363.36 49.366 364.186 48.5624 365.025C48.3626 368.237 48.2611 371.412 48.2611 374.538C48.2611 375.349 48.2679 376.155 48.2815 376.956C63.6261 374.751 80.2433 378.633 95.0081 387.811C80.0359 385.856 64.3104 388.134 49.809 394.913C51.3384 404.587 53.972 413.486 57.5793 421.611C77.8244 416.844 102.062 420.965 125.429 433.008C106.352 431.46 87.5473 434.943 71.1641 443.641C94.561 472.069 133.668 486.183 178 486.3Z" fill="#313749"/>
<path d="M241.586 333.029C239.115 313.545 235.149 293.867 230.012 275.822C213.715 277.853 196.472 278.857 178.67 278.857C160.365 278.857 142.653 277.796 125.953 275.648C120.861 293.496 116.916 312.948 114.43 332.234C114.43 332.234 114.43 332.234 114.43 332.234C114.226 333.817 114.032 335.398 113.848 336.977C117.685 336.874 121.551 336.981 125.429 337.296C125.429 337.296 125.428 337.296 125.429 337.296C121.551 336.981 117.685 336.874 113.848 336.977C112.268 350.527 111.423 363.922 111.423 376.544C111.423 396.934 113.627 414.501 117.576 429.271C117.883 430.42 118.201 431.552 118.529 432.668C127.045 461.618 142.53 479.174 161.199 485.562C166.878 486.055 172.673 486.301 178.558 486.301C183.895 486.301 189.157 486.099 194.326 485.693C213.158 479.421 228.792 461.84 237.37 432.722C237.606 431.923 237.836 431.115 238.061 430.299C238.093 430.182 238.125 430.065 238.157 429.947C238.541 428.538 238.909 427.104 239.26 425.644C239.261 425.639 239.263 425.635 239.264 425.63C242.63 411.639 244.492 395.284 244.492 376.544C244.492 363.911 243.646 350.504 242.063 336.942C241.891 335.468 241.71 333.992 241.521 332.514C241.543 332.686 241.565 332.857 241.586 333.029C241.586 333.029 241.586 333.029 241.586 333.029Z" fill="#919AB6"/>
<path fill-rule="evenodd" clip-rule="evenodd" d="M166.923 503.476C159.446 507.986 149.562 510 139.198 510C128.834 510 118.95 507.986 111.473 503.476C103.788 498.84 98.6315 491.493 98.6315 481.62C98.6315 472.274 103.271 461.886 110.296 453.916C117.36 445.903 127.516 439.579 139.198 439.579C150.88 439.579 161.036 445.903 168.1 453.916C175.125 461.886 179.765 472.274 179.765 481.62C179.765 491.493 174.608 498.84 166.923 503.476ZM139.198 504.963C158.82 504.963 174.727 497.276 174.727 481.62C174.727 465.964 158.82 444.617 139.198 444.617C119.576 444.617 103.669 465.964 103.669 481.62C103.669 497.276 119.576 504.963 139.198 504.963Z" fill="#08090C"/>
<path d="M174.727 481.62C174.727 497.276 158.82 504.963 139.198 504.963C119.576 504.963 103.669 497.276 103.669 481.62C103.669 465.964 119.576 444.617 139.198 444.617C158.82 444.617 174.727 465.964 174.727 481.62Z" fill="#919AB6"/>
<path fill-rule="evenodd" clip-rule="evenodd" d="M244.419 503.476C236.942 507.986 227.058 510 216.694 510C206.33 510 196.446 507.986 188.969 503.476C181.285 498.84 176.128 491.493 176.128 481.62C176.128 472.274 180.767 461.886 187.793 453.916C194.856 445.903 205.012 439.579 216.694 439.579C228.376 439.579 238.533 445.903 245.596 453.916C252.621 461.886 257.261 472.274 257.261 481.62C257.261 491.493 252.104 498.84 244.419 503.476ZM216.694 504.963C236.316 504.963 252.223 497.276 252.223 481.62C252.223 465.964 236.316 444.617 216.694 444.617C197.072 444.617 181.165 465.964 181.165 481.62C181.165 497.276 197.072 504.963 216.694 504.963Z" fill="#08090C"/>
<path d="M252.223 481.62C252.223 497.276 236.316 504.963 216.694 504.963C197.072 504.963 181.165 497.276 181.165 481.62C181.165 465.964 197.072 444.617 216.694 444.617C236.316 444.617 252.223 465.964 252.223 481.62Z" fill="#919AB6"/>
<path d="M264.933 230.576C264.933 260.559 226.042 275.281 178.068 275.281C130.094 275.281 91.2036 260.559 91.2036 230.576C91.2036 200.592 130.094 159.708 178.068 159.708C226.042 159.708 264.933 200.592 264.933 230.576Z" fill="#919AB6"/>
<path d="M178.799 180.895C169.205 180.895 161.427 185.756 161.427 191.753C161.427 197.346 168.193 204.836 176.89 205.819L176.899 207.337C176.899 207.38 176.899 207.423 176.899 207.466C176.899 217.967 169.394 226.159 160.508 226.159C151.804 226.159 144.428 218.304 144.127 208.108L141.105 208.108C141.098 208.346 141.095 208.586 141.095 208.826V208.856C141.102 220.665 149.624 230.556 160.508 230.556C169.049 230.556 176.145 224.452 178.799 216.127C181.454 224.453 188.55 230.556 197.091 230.556C207.979 230.556 216.504 220.656 216.504 208.84C216.504 208.595 216.501 208.352 216.494 208.109L213.472 208.109C213.17 218.304 205.795 226.159 197.091 226.159C188.205 226.159 180.7 217.967 180.7 207.466C180.7 207.442 180.7 207.417 180.7 207.393C180.7 207.375 180.7 207.356 180.7 207.337L180.709 205.819C189.406 204.836 196.172 197.346 196.172 191.753C196.172 185.756 188.394 180.895 178.799 180.895Z" fill="#08090C"/>
<circle cx="125.55" cy="143.186" r="25.6566" fill="#08090C"/>
<ellipse cx="5.34138" cy="7.89968" rx="5.34138" ry="7.89968" transform="matrix(0.909809 -0.415028 0.430286 0.902692 130.181 133.18)" fill="#ECF1FE"/>
<circle cx="235.189" cy="143.548" r="25.6566" fill="#08090C"/>
<ellipse cx="5.34138" cy="7.89968" rx="5.34138" ry="7.89968" transform="matrix(0.909809 -0.415028 0.430286 0.902692 239.816 133.18)" fill="#ECF1FE"/>
<path d="M225.141 197.277C236.522 197.883 251.72 200.446 268.081 204.83C284.442 209.214 298.886 214.594 309.046 219.759C302.584 213.565 287.414 206.426 268.977 201.486C250.541 196.546 233.833 195.143 225.141 197.277Z" fill="#08090C"/>
<path d="M224.603 188.838C234.75 186.478 248.713 185.021 264.126 185.021C279.54 185.021 293.503 186.478 303.65 188.838C296.512 184.528 281.496 181.558 264.126 181.558C246.757 181.558 231.741 184.528 224.603 188.838Z" fill="#08090C"/>
<path d="M224.259 205.724C233.83 208.524 246.106 213.929 258.853 221.288C271.599 228.648 282.418 236.577 289.629 243.465C285.881 236.324 274.948 226.583 260.584 218.29C246.22 209.997 232.317 205.399 224.259 205.724Z" fill="#08090C"/>
<path d="M132.265 197.277C120.884 197.883 105.685 200.446 89.3243 204.83C72.9632 209.214 58.5192 214.593 48.3599 219.759C54.8211 213.565 69.9916 206.426 88.4282 201.486C106.865 196.546 123.572 195.143 132.265 197.277Z" fill="#08090C"/>
<path d="M132.802 188.838C122.656 186.478 108.693 185.02 93.279 185.02C77.8652 185.02 63.9021 186.478 53.7555 188.838C60.8936 184.528 75.9098 181.558 93.2789 181.558C110.648 181.558 125.664 184.528 132.802 188.838Z" fill="#08090C"/>
<path d="M133.147 205.724C123.576 208.524 111.3 213.929 98.553 221.288C85.8062 228.648 74.9878 236.577 67.7768 243.465C71.5247 236.324 82.458 226.583 96.822 218.29C111.186 209.997 125.089 205.399 133.147 205.724Z" fill="#08090C"/>
</svg>
