<svg width="398" height="510" viewBox="0 0 398 510" fill="none" xmlns="http://www.w3.org/2000/svg">
<path d="M356.676 323.339L356.676 323.339L356.671 323.327L356.671 323.326C354.634 317.892 352.748 312.861 350.956 307.514C348.314 299.636 347.874 293.147 347.959 289.227C352.197 288.858 360.509 289.569 375.204 293.712C383.351 296.008 391.817 291.266 394.114 283.119C396.41 274.972 391.667 266.506 383.521 264.209C365.66 259.175 350.717 256.984 339.234 259.633C332.99 261.073 327.046 264.112 322.645 269.489C318.319 274.774 316.672 280.869 316.248 286.294C315.464 296.337 318.664 307.624 321.894 317.258C323.646 322.485 325.978 328.746 328.274 334.912L328.28 334.927L328.28 334.927L328.285 334.942L328.286 334.943C328.286 334.943 328.286 334.943 328.286 334.944C330.115 339.855 331.922 344.708 333.423 348.992C337.191 359.755 340.121 369.751 341.223 378.655C342.328 387.583 341.402 393.932 339.027 398.43C334.907 406.23 320.773 417.375 270.624 414.477L268.128 414.333L267.984 416.829L266.504 442.438L266.36 444.934L268.856 445.078C319.945 448.03 352.625 438.316 366.131 412.745C372.566 400.562 373.155 387.107 371.643 374.89C370.128 362.648 366.307 350.155 362.352 338.862C360.337 333.106 358.452 328.078 356.678 323.347L356.676 323.339Z" fill="#313749" stroke="#08090C" stroke-width="5"/>
<path fill-rule="evenodd" clip-rule="evenodd" d="M319.501 281.55C320.349 277.961 321.909 274.336 324.579 271.073C326.707 268.474 329.245 266.463 332.04 264.949C338.714 266.288 345.4 269.558 351.611 274.599C340.963 272.784 329.763 275.013 319.501 281.55Z" fill="#08090C"/>
<path fill-rule="evenodd" clip-rule="evenodd" d="M340 378.092C340.351 376.223 340.55 374.196 340.593 372C344.342 373.738 348.095 375.816 351.82 378.226C347.853 377.822 343.902 377.776 340 378.092Z" fill="#08090C"/>
<path fill-rule="evenodd" clip-rule="evenodd" d="M324.449 317.013C324.387 316.828 324.325 316.645 324.264 316.463C322.392 310.88 320.587 304.891 319.544 298.997C328.526 298.672 338.202 301.107 347.866 306.119C348.094 306.829 348.334 307.559 348.585 308.308C348.853 309.107 349.122 309.897 349.394 310.684C340.744 310.78 332.285 312.873 324.449 317.013Z" fill="#08090C"/>
<path fill-rule="evenodd" clip-rule="evenodd" d="M339.212 358.579C338.304 355.597 337.302 352.554 336.232 349.459C346.205 351.049 356.088 353.658 365.513 357.225C365.616 357.607 365.718 357.99 365.819 358.374C357.041 357.783 348.111 357.846 339.212 358.579Z" fill="#08090C"/>
<path fill-rule="evenodd" clip-rule="evenodd" d="M318.355 414.145C322.849 413.007 326.538 411.633 329.565 410.118C328.787 417.928 325.309 425.873 319.391 433.165C320.457 426.914 320.129 420.474 318.355 414.145Z" fill="#08090C"/>
<path fill-rule="evenodd" clip-rule="evenodd" d="M375.308 264.625C373.167 271.251 369.927 277.977 365.635 284.611C366.408 277.03 365.871 269.507 364.002 262.271C367.58 262.864 371.349 263.655 375.308 264.625Z" fill="#08090C"/>
<path fill-rule="evenodd" clip-rule="evenodd" d="M336.052 404.973C338.597 401.84 340.899 398.851 342.979 396C347.041 401.689 350.408 408.495 352.926 416.216C347.968 411.42 342.293 407.623 336.052 404.973Z" fill="#08090C"/>
<path d="M90.5841 476.427C100.977 476.427 110.635 474.399 117.786 470.085C125.04 465.709 129.727 458.941 129.727 449.853C129.727 441.026 125.296 430.921 118.37 423.063C111.424 415.184 101.631 409.19 90.5841 409.19C79.5369 409.19 69.744 415.184 62.7983 423.063C55.8717 430.921 51.4413 441.026 51.4413 449.853C51.4413 458.941 56.1284 465.709 63.3824 470.085C70.5333 474.399 80.1911 476.427 90.5841 476.427Z" fill="#919AB6" stroke="#08090C" stroke-width="5"/>
<path d="M272.039 476.427C282.432 476.427 292.09 474.399 299.241 470.085C306.495 465.709 311.182 458.941 311.182 449.853C311.182 441.026 306.751 430.921 299.825 423.063C292.879 415.184 283.086 409.19 272.039 409.19C260.992 409.19 251.199 415.184 244.253 423.063C237.327 430.921 232.896 441.026 232.896 449.853C232.896 458.941 237.583 465.709 244.837 470.085C251.988 474.399 261.646 476.427 272.039 476.427Z" fill="#919AB6" stroke="#08090C" stroke-width="5"/>
<path d="M181.165 494.764C217.983 494.764 251.559 485.353 275.989 466.112C300.495 446.81 315.579 417.782 315.579 379.114C315.579 340.604 300.625 295.283 276.514 259.574C252.447 223.929 218.81 197.248 181.165 197.248C143.52 197.248 109.883 223.929 85.8158 259.574C61.7047 295.283 46.751 340.604 46.751 379.114C46.751 417.782 61.8343 446.81 86.3409 466.112C110.771 485.353 144.347 494.764 181.165 494.764Z" fill="#313749" stroke="#08090C" stroke-width="5"/>
<path fill-rule="evenodd" clip-rule="evenodd" d="M294.265 297.039C291.197 290.077 287.794 283.246 284.086 276.635C274.745 277.254 265.188 281.279 256.452 288.37C269.009 286.228 282.236 289.008 294.265 297.039Z" fill="#08090C"/>
<path fill-rule="evenodd" clip-rule="evenodd" d="M299.464 435.104C303.674 427.625 306.994 419.406 309.301 410.444C292.067 406.092 271.743 410.734 252.123 423.428C268.769 421.732 285.176 425.557 299.464 435.104Z" fill="#08090C"/>
<path fill-rule="evenodd" clip-rule="evenodd" d="M311.672 358.012C309.961 344.73 306.726 331.011 302.177 317.46C286.773 313.813 268.761 318.261 251.361 329.969C273.097 327.667 294.385 336.158 310.133 356.012C310.655 356.67 311.168 357.337 311.672 358.012Z" fill="#08090C"/>
<path fill-rule="evenodd" clip-rule="evenodd" d="M312.448 392.38C312.865 388.098 313.079 383.676 313.079 379.114C313.079 376.885 313.028 374.633 312.927 372.36C287.765 370.223 260.652 374.506 236.512 384.387C261.675 382.222 288.115 384.787 312.448 392.38Z" fill="#08090C"/>
<path fill-rule="evenodd" clip-rule="evenodd" d="M68.0646 297.039C71.1329 290.077 74.536 283.246 78.2436 276.635C87.5842 277.254 97.1412 281.279 105.877 288.37C93.3207 286.228 80.0934 289.008 68.0646 297.039Z" fill="#08090C"/>
<path fill-rule="evenodd" clip-rule="evenodd" d="M62.8661 435.104C58.6552 427.625 55.3353 419.406 53.0283 410.444C70.2625 406.092 90.5867 410.734 110.207 423.428C93.5609 421.732 77.1535 425.557 62.8661 435.104Z" fill="#08090C"/>
<path fill-rule="evenodd" clip-rule="evenodd" d="M50.6578 358.012C52.369 344.73 55.6034 331.011 60.1523 317.46C75.557 313.813 93.5681 318.261 110.969 329.969C89.2324 327.667 67.9443 336.158 52.1968 356.012C51.6745 356.67 51.1615 357.337 50.6578 358.012Z" fill="#08090C"/>
<path fill-rule="evenodd" clip-rule="evenodd" d="M49.8812 392.38C49.4643 388.098 49.2509 383.676 49.2509 379.114C49.2509 376.885 49.3019 374.633 49.4026 372.36C74.5641 370.223 101.677 374.506 125.817 384.387C100.655 382.222 74.2141 384.787 49.8812 392.38Z" fill="#08090C"/>
<path d="M248.413 379.114C248.413 455.004 218.255 492.264 181.053 492.264C143.851 492.264 113.692 455.004 113.692 379.114C113.692 303.225 143.851 199.748 181.053 199.748C218.255 199.748 248.413 303.225 248.413 379.114Z" fill="#919AB6"/>
<path d="M105.827 507.5C116.22 507.5 125.878 505.472 133.029 501.158C140.283 496.782 144.97 490.014 144.97 480.926C144.97 472.099 140.54 461.994 133.613 454.136C126.668 446.257 116.875 440.263 105.827 440.263C94.7803 440.263 84.9874 446.257 78.0417 454.136C71.1151 461.994 66.6847 472.099 66.6847 480.926C66.6847 490.014 71.3718 496.782 78.6257 501.158C85.7766 505.472 95.4345 507.5 105.827 507.5Z" fill="#919AB6" stroke="#08090C" stroke-width="5"/>
<path d="M256.209 507.5C266.602 507.5 276.26 505.472 283.411 501.158C290.665 496.782 295.352 490.014 295.352 480.926C295.352 472.099 290.922 461.994 283.995 454.136C277.049 446.257 267.256 440.263 256.209 440.263C245.162 440.263 235.369 446.257 228.424 454.136C221.497 461.994 217.066 472.099 217.066 480.926C217.066 490.014 221.754 496.782 229.008 501.158C236.158 505.472 245.816 507.5 256.209 507.5Z" fill="#919AB6" stroke="#08090C" stroke-width="5"/>
<path d="M92.84 116.584C106.561 110.186 117.223 100.162 123.263 88.9125C129.304 77.6621 130.844 64.8665 125.553 53.5201C123.009 48.0634 118.164 41.453 112.169 34.903C106.117 28.2902 98.6524 21.4767 90.6232 15.6548C82.6222 9.85323 73.8726 4.89932 65.2538 2.19783C56.6668 -0.49371 47.6653 -1.10748 39.6932 2.60994C31.7212 6.32737 26.4053 13.6175 22.9475 21.9256C19.477 30.2644 17.6477 40.1513 16.949 50.0096C16.2478 59.9025 16.6689 70.0007 17.8445 78.8874C19.0089 87.6897 20.9586 95.6501 23.5031 101.107C28.794 112.453 39.5856 119.499 52.087 122.103C64.5873 124.706 79.1195 122.982 92.84 116.584Z" fill="#313749" stroke="#08090C" stroke-width="10"/>
<path d="M99.5344 62.1522C104.625 73.0699 96.907 87.444 82.295 94.2577C67.683 101.071 51.7105 97.7445 46.6195 86.8268C41.5285 75.9091 39.8444 41.3714 54.4564 34.5577C69.0685 27.744 94.4434 51.2345 99.5344 62.1522Z" fill="#08090C"/>
<path d="M99.5344 62.1522C104.625 73.0699 96.907 87.444 82.295 94.2577C67.683 101.071 51.7105 97.7445 46.6195 86.8268C41.5285 75.9091 39.8444 41.3714 54.4564 34.5577C69.0685 27.744 94.4434 51.2345 99.5344 62.1522Z" fill="#08090C"/>
<path d="M269.517 116.584C283.237 122.982 297.769 124.706 310.27 122.103C322.771 119.499 333.563 112.453 338.853 101.107C341.398 95.6501 343.348 87.6897 344.512 78.8874C345.688 70.0007 346.109 59.9025 345.408 50.0096C344.709 40.1513 342.88 30.2644 339.409 21.9256C335.951 13.6175 330.635 6.32737 322.663 2.60995C314.691 -1.10748 305.69 -0.493709 297.103 2.19783C288.484 4.89932 279.734 9.85323 271.733 15.6548C263.704 21.4767 256.239 28.2902 250.187 34.903C244.193 41.453 239.348 48.0634 236.804 53.5201C231.513 64.8665 233.052 77.6621 239.093 88.9125C245.134 100.162 255.796 110.186 269.517 116.584Z" fill="#313749" stroke="#08090C" stroke-width="10"/>
<path d="M277.728 98.6856C285.916 102.504 294.657 103.568 302.269 101.983C309.881 100.397 316.685 96.0486 320.048 88.8363C321.628 85.4466 322.775 80.6712 323.451 75.5642C324.138 70.373 324.384 64.4806 323.974 58.6964C323.566 52.9468 322.495 47.0715 320.4 42.0396C318.319 37.0384 314.998 32.3505 309.792 29.9231C304.587 27.4957 298.861 27.9651 293.692 29.5853C288.491 31.2155 283.302 34.1711 278.635 37.5547C273.941 40.9586 269.585 44.9346 266.05 48.7976C262.572 52.5977 259.651 56.5461 258.07 59.9358C254.707 67.1481 255.749 75.1553 259.428 82.0058C263.106 88.8554 269.54 94.8676 277.728 98.6856Z" fill="#08090C" stroke="#08090C" stroke-width="10"/>
<mask id="path-27-outside-1_48_4" maskUnits="userSpaceOnUse" x="0.0737" y="37.6743" width="362" height="245" fill="black">
<rect fill="white" x="0.0737" y="37.6743" width="362" height="245"/>
<path d="M356.844 186.167C356.844 246.879 278.098 276.687 180.959 276.687C83.8202 276.687 5.0737 246.879 5.0737 186.167C5.0737 125.456 83.8202 42.6743 180.959 42.6743C278.098 42.6743 356.844 125.456 356.844 186.167Z"/>
</mask>
<path d="M356.844 186.167C356.844 246.879 278.098 276.687 180.959 276.687C83.8202 276.687 5.0737 246.879 5.0737 186.167C5.0737 125.456 83.8202 42.6743 180.959 42.6743C278.098 42.6743 356.844 125.456 356.844 186.167Z" fill="#313749"/>
<path d="M351.844 186.167C351.844 213.856 334.05 235.091 303.192 249.673C272.28 264.281 229.125 271.687 180.959 271.687V281.687C229.931 281.687 274.719 274.189 307.465 258.715C340.264 243.215 361.844 219.19 361.844 186.167H351.844ZM180.959 271.687C132.793 271.687 89.6381 264.281 58.7255 249.673C27.8674 235.091 10.0737 213.856 10.0737 186.167H0.0737C0.0737 219.19 21.6533 243.215 54.453 258.715C87.1983 274.189 131.986 281.687 180.959 281.687V271.687ZM10.0737 186.167C10.0737 157.758 28.6887 123.136 59.9106 95.3914C90.9858 67.7769 133.814 47.6743 180.959 47.6743V37.6743C130.965 37.6743 85.8506 58.9624 53.268 87.9164C20.8319 116.74 0.0737 153.865 0.0737 186.167H10.0737ZM180.959 47.6743C228.104 47.6743 270.932 67.7769 302.007 95.3914C333.229 123.136 351.844 157.758 351.844 186.167H361.844C361.844 153.865 341.086 116.74 308.65 87.9164C276.067 58.9624 230.953 37.6743 180.959 37.6743V47.6743Z" fill="#08090C" mask="url(#path-27-outside-1_48_4)"/>
<path d="M269.107 231.334C269.107 261.69 229.734 276.594 181.165 276.594C132.596 276.594 93.2223 261.69 93.2223 231.334C93.2223 200.978 132.596 159.588 181.165 159.588C229.734 159.588 269.107 200.978 269.107 231.334Z" fill="#919AB6"/>
<mask id="path-30-outside-2_48_4" maskUnits="userSpaceOnUse" x="142.242" y="205.798" width="78" height="26" fill="black">
<rect fill="white" x="142.242" y="205.798" width="78" height="26"/>
<path fill-rule="evenodd" clip-rule="evenodd" d="M144.253 208.633C144.246 208.859 144.243 209.086 144.242 209.314V209.344C144.25 220.634 152.361 229.784 162.367 229.784C171.668 229.784 179.332 221.877 180.371 211.694C180.411 211.695 180.451 211.695 180.491 211.695C180.795 211.695 181.097 211.686 181.397 211.67C182.425 221.864 190.095 229.784 199.404 229.784C209.413 229.784 217.528 220.626 217.528 209.329C217.528 209.096 217.524 208.865 217.518 208.634C217.192 219.608 209.207 228.393 199.404 228.393C189.394 228.393 181.279 219.235 181.279 207.938C181.279 207.891 181.279 207.845 181.28 207.798H180.491C180.491 207.845 180.491 207.891 180.491 207.938C180.491 219.235 172.377 228.393 162.367 228.393C152.563 228.393 144.578 219.608 144.253 208.633Z"/>
</mask>
<path fill-rule="evenodd" clip-rule="evenodd" d="M144.253 208.633C144.246 208.859 144.243 209.086 144.242 209.314V209.344C144.25 220.634 152.361 229.784 162.367 229.784C171.668 229.784 179.332 221.877 180.371 211.694C180.411 211.695 180.451 211.695 180.491 211.695C180.795 211.695 181.097 211.686 181.397 211.67C182.425 221.864 190.095 229.784 199.404 229.784C209.413 229.784 217.528 220.626 217.528 209.329C217.528 209.096 217.524 208.865 217.518 208.634C217.192 219.608 209.207 228.393 199.404 228.393C189.394 228.393 181.279 219.235 181.279 207.938C181.279 207.891 181.279 207.845 181.28 207.798H180.491C180.491 207.845 180.491 207.891 180.491 207.938C180.491 219.235 172.377 228.393 162.367 228.393C152.563 228.393 144.578 219.608 144.253 208.633Z" fill="#08090C"/>
<path d="M144.253 208.633L146.252 208.574L142.254 208.574L144.253 208.633ZM144.242 209.314L142.242 209.313V209.314H144.242ZM144.242 209.344H142.242L142.242 209.345L144.242 209.344ZM180.371 211.694L180.386 209.694L178.566 209.681L178.382 211.491L180.371 211.694ZM181.397 211.67L183.386 211.469L183.194 209.567L181.286 209.673L181.397 211.67ZM217.518 208.634L219.517 208.575L215.519 208.574L217.518 208.634ZM181.28 207.798L183.28 207.81L183.292 205.798H181.28V207.798ZM180.491 207.798V205.798H178.479L178.491 207.81L180.491 207.798ZM142.254 208.574C142.246 208.819 142.243 209.066 142.242 209.313L146.242 209.316C146.243 209.107 146.246 208.899 146.252 208.692L142.254 208.574ZM146.242 209.344V209.314H142.242V209.344H146.242ZM142.242 209.345C142.25 221.505 151.037 231.784 162.367 231.784V227.784C153.686 227.784 146.249 219.763 146.242 209.343L142.242 209.345ZM162.367 231.784C172.893 231.784 181.24 222.89 182.361 211.897L178.382 211.491C177.425 220.864 170.443 227.784 162.367 227.784V231.784ZM180.357 213.694C180.401 213.694 180.446 213.695 180.491 213.695V209.695C180.456 209.695 180.421 209.695 180.386 209.694L180.357 213.694ZM180.491 213.695C180.832 213.695 181.171 213.685 181.507 213.667L181.286 209.673C181.023 209.687 180.758 209.695 180.491 209.695V213.695ZM179.407 211.87C180.517 222.876 188.869 231.784 199.404 231.784V227.784C191.321 227.784 184.334 220.853 183.386 211.469L179.407 211.87ZM199.404 231.784C210.738 231.784 219.528 221.496 219.528 209.329H215.528C215.528 219.756 208.088 227.784 199.404 227.784V231.784ZM219.528 209.329C219.528 209.077 219.524 208.825 219.517 208.575L215.519 208.693C215.525 208.904 215.528 209.116 215.528 209.329H219.528ZM215.519 208.574C215.219 218.696 207.911 226.393 199.404 226.393V230.393C210.503 230.393 219.166 220.521 219.517 208.693L215.519 208.574ZM199.404 226.393C190.719 226.393 183.279 218.364 183.279 207.938H179.279C179.279 220.105 188.069 230.393 199.404 230.393V226.393ZM183.279 207.938C183.279 207.895 183.279 207.853 183.28 207.81L179.28 207.787C179.279 207.837 179.279 207.887 179.279 207.938H183.279ZM181.28 205.798H180.491V209.798H181.28V205.798ZM178.491 207.81C178.491 207.853 178.491 207.895 178.491 207.938H182.491C182.491 207.887 182.491 207.837 182.491 207.787L178.491 207.81ZM178.491 207.938C178.491 218.364 171.052 226.393 162.367 226.393V230.393C173.702 230.393 182.491 220.105 182.491 207.938H178.491ZM162.367 226.393C153.859 226.393 146.551 218.695 146.252 208.574L142.254 208.692C142.604 220.521 151.267 230.393 162.367 230.393V226.393Z" fill="#08090C" mask="url(#path-30-outside-2_48_4)"/>
<path fill-rule="evenodd" clip-rule="evenodd" d="M227.802 197.622C239.324 198.236 254.711 200.831 271.275 205.27C287.839 209.708 302.462 215.154 312.748 220.383C306.206 214.113 290.847 206.885 272.182 201.884C253.517 196.883 236.602 195.462 227.802 197.622Z" fill="#08090C"/>
<path fill-rule="evenodd" clip-rule="evenodd" d="M227.257 189.079C237.529 186.69 251.666 185.214 267.271 185.214C282.876 185.214 297.012 186.69 307.285 189.079C300.058 184.715 284.856 181.709 267.271 181.709C249.686 181.709 234.484 184.715 227.257 189.079Z" fill="#08090C"/>
<path fill-rule="evenodd" clip-rule="evenodd" d="M226.908 206.174C236.598 209.009 249.027 214.481 261.932 221.932C274.837 229.382 285.789 237.41 293.09 244.384C289.295 237.154 278.226 227.292 263.684 218.896C249.142 210.5 235.067 205.845 226.908 206.174Z" fill="#08090C"/>
<path fill-rule="evenodd" clip-rule="evenodd" d="M133.773 197.622C122.251 198.236 106.864 200.831 90.2995 205.27C73.7354 209.708 59.1122 215.154 48.8268 220.383C55.3682 214.113 70.7269 206.885 89.3923 201.884C108.058 196.883 124.973 195.462 133.773 197.622Z" fill="#08090C"/>
<path fill-rule="evenodd" clip-rule="evenodd" d="M134.317 189.079C124.045 186.69 109.909 185.214 94.3035 185.214C78.6985 185.214 64.5621 186.69 54.2896 189.079C61.5163 184.715 76.7188 181.709 94.3035 181.709C111.888 181.709 127.091 184.715 134.317 189.079Z" fill="#08090C"/>
<path fill-rule="evenodd" clip-rule="evenodd" d="M134.666 206.174C124.976 209.009 112.548 214.481 99.6428 221.932C86.7377 229.382 75.785 237.41 68.4846 244.384C72.279 237.154 83.348 227.292 97.8902 218.896C112.432 210.5 126.508 205.845 134.666 206.174Z" fill="#08090C"/>
<path d="M163.297 192.03C163.297 185.959 171.171 181.037 180.885 181.037C190.599 181.037 198.474 185.959 198.474 192.03C198.474 198.101 190.599 206.379 180.885 206.379C171.171 206.379 163.297 198.101 163.297 192.03Z" fill="#08090C"/>
<circle cx="126.975" cy="142.861" r="25.975" fill="#08090C"/>
<ellipse cx="5.40767" cy="7.99772" rx="5.40767" ry="7.99772" transform="matrix(0.909809 -0.415028 0.430286 0.902692 131.664 132.73)" fill="#ECF1FE"/>
<circle cx="237.975" cy="143.227" r="25.975" fill="#08090C"/>
<ellipse cx="5.40767" cy="7.99772" rx="5.40767" ry="7.99772" transform="matrix(0.909809 -0.415028 0.430286 0.902692 242.66 132.73)" fill="#ECF1FE"/>
<path fill-rule="evenodd" clip-rule="evenodd" d="M213.036 61.8226C203.822 72.8038 199.501 86.1302 199.955 98.8292C192.315 83.7527 193.089 66.1721 203.473 53.7978C206.268 50.466 209.557 47.7546 213.186 45.667C218.24 46.6147 223.219 47.7757 228.112 49.1325C222.579 52.323 217.446 56.5676 213.036 61.8226Z" fill="#08090C"/>
<path fill-rule="evenodd" clip-rule="evenodd" d="M148.162 61.8226C157.376 72.8038 161.696 86.1302 161.243 98.8291C168.882 83.7527 168.108 66.1721 157.725 53.7978C154.929 50.466 151.641 47.7546 148.012 45.667C142.958 46.6147 137.979 47.7757 133.086 49.1325C138.619 52.323 143.752 56.5676 148.162 61.8226Z" fill="#08090C"/>
<path fill-rule="evenodd" clip-rule="evenodd" d="M7.95935 206.355C6.01593 199.811 5 193.063 5 186.167C5 180.165 5.76964 173.947 7.25061 167.615C30.1426 157.016 60.566 160.096 89.6799 175.101C61.3021 172.799 33.5092 181.29 12.9501 201.144C11.2067 202.827 9.54322 204.566 7.95935 206.355Z" fill="#08090C"/>
<path fill-rule="evenodd" clip-rule="evenodd" d="M353.739 206.597C355.729 199.977 356.77 193.148 356.77 186.167C356.77 180.212 356.013 174.045 354.555 167.765C331.626 156.988 301.055 160.025 271.805 175.101C300.182 172.799 327.975 181.29 348.535 201.144C350.356 202.903 352.091 204.722 353.739 206.597Z" fill="#08090C"/>
<path fill-rule="evenodd" clip-rule="evenodd" d="M13.5803 148.758C16.2404 146.257 19.0908 143.893 22.1275 141.687C40.6253 128.247 62.557 123.195 83.112 125.88C67.7436 116.326 50.4293 112.336 34.4823 114.749C25.6673 125.754 18.5909 137.28 13.5803 148.758Z" fill="#08090C"/>
<path fill-rule="evenodd" clip-rule="evenodd" d="M348.168 148.758C345.508 146.257 342.658 143.893 339.621 141.687C321.123 128.247 299.191 123.195 278.636 125.88C294.005 116.326 311.319 112.336 327.266 114.749C336.081 125.754 343.158 137.28 348.168 148.758Z" fill="#08090C"/>
<path fill-rule="evenodd" clip-rule="evenodd" d="M170.222 42.954L180.006 127.685L189.79 42.954C186.551 42.7689 183.289 42.6743 180.006 42.6743C176.723 42.6743 173.461 42.7689 170.222 42.954Z" fill="#08090C"/>
</svg>
