<svg width="366" height="510" viewBox="0 0 366 510" fill="none" xmlns="http://www.w3.org/2000/svg">
<path fill-rule="evenodd" clip-rule="evenodd" d="M128.678 480.041C121.201 484.552 111.317 486.565 100.953 486.565C90.5894 486.565 80.7054 484.552 73.2283 480.041C65.5436 475.405 60.3867 468.058 60.3867 458.185C60.3867 448.84 65.0265 438.451 72.0515 430.481C79.115 422.469 89.2711 416.145 100.953 416.145C112.635 416.145 122.792 422.469 129.855 430.481C136.88 438.451 141.52 448.84 141.52 458.185C141.52 468.058 136.363 475.405 128.678 480.041ZM100.953 481.528C120.575 481.528 136.482 473.841 136.482 458.185C136.482 442.529 120.575 421.182 100.953 421.182C81.3311 421.182 65.4242 442.529 65.4242 458.185C65.4242 473.841 81.3311 481.528 100.953 481.528Z" fill="#08090C"/>
<path d="M136.482 458.185C136.482 473.841 120.575 481.528 100.953 481.528C81.3311 481.528 65.4242 473.841 65.4242 458.185C65.4242 442.529 81.3311 421.182 100.953 421.182C120.575 421.182 136.482 442.529 136.482 458.185Z" fill="#919AB6"/>
<path fill-rule="evenodd" clip-rule="evenodd" d="M284.489 480.041C277.012 484.552 267.128 486.565 256.764 486.565C246.4 486.565 236.517 484.552 229.039 480.041C221.355 475.405 216.198 468.058 216.198 458.185C216.198 448.84 220.838 438.451 227.863 430.481C234.926 422.469 245.082 416.145 256.764 416.145C268.447 416.145 278.603 422.469 285.666 430.481C292.691 438.451 297.331 448.84 297.331 458.185C297.331 468.058 292.174 475.405 284.489 480.041ZM256.764 481.528C276.387 481.528 292.293 473.841 292.293 458.185C292.293 442.529 276.387 421.182 256.764 421.182C237.142 421.182 221.235 442.529 221.235 458.185C221.235 473.841 237.142 481.528 256.764 481.528Z" fill="#08090C"/>
<path d="M292.293 458.185C292.293 473.841 276.387 481.528 256.764 481.528C237.142 481.528 221.235 473.841 221.235 458.185C221.235 442.529 237.142 421.182 256.764 421.182C276.387 421.182 292.293 442.529 292.293 458.185Z" fill="#919AB6"/>
<path fill-rule="evenodd" clip-rule="evenodd" d="M178 37.8343C198.087 37.9117 217.368 41.4652 235.334 47.5861C237.969 43.3017 241.653 38.5842 245.936 33.9038C251.812 27.4833 259.06 20.8681 266.856 15.2151C274.624 9.58268 283.126 4.76732 291.509 2.13978C299.859 -0.477754 308.641 -1.08344 316.429 2.54844C324.218 6.18032 329.398 13.2963 332.761 21.3759C336.136 29.4865 337.913 39.0948 338.591 48.6658C339.272 58.2717 338.863 68.0758 337.722 76.7042C336.591 85.2476 334.698 92.9876 332.219 98.3035C330.268 102.488 327.55 106.071 324.267 109.046C344.109 133.167 356 160.244 356 184.53C356 217.084 334.741 240.814 302.322 256.145C295.38 259.427 287.89 262.347 279.93 264.908C283.89 271.497 287.549 278.342 290.873 285.353C294.848 278.334 300.27 271.802 307.449 266.084C316.543 258.84 327.818 253.407 341.269 249.624C352.432 246.485 362.89 254.334 364.774 265.049C366.716 276.097 359.231 285.828 349.371 288.943C341.431 291.451 336.044 294.445 332.371 297.371C327.172 301.512 324.397 306.304 322.912 312.053C321.308 318.257 321.145 325.914 322.184 335.266C323.083 343.36 324.722 351.568 326.49 360.403C326.775 361.826 327.063 363.266 327.35 364.717C329.283 374.483 331.398 385.76 331.364 396.084C331.33 406.442 329.144 419.771 318.504 429.846C311.482 436.496 302.681 439.914 293.181 441.328C287.418 449.502 280.509 456.695 272.632 462.898C248.079 482.232 214.542 491.625 178 491.72C141.458 491.625 107.921 482.232 83.3681 462.898C58.5395 443.347 43.3224 413.949 43.3224 375.036L43.3226 374.787L43.3224 374.538C43.3224 339.412 55.7113 298.782 76.0703 264.908C68.1096 262.347 60.6201 259.427 53.6785 256.145C21.2588 240.814 0 217.084 0 184.531C0 160.244 11.8909 133.167 31.7328 109.046C28.4499 106.071 25.7324 102.488 23.7812 98.3036C21.3023 92.9877 19.4086 85.2476 18.2784 76.7042C17.137 68.0758 16.7282 58.2717 17.409 48.6659C18.0874 39.0949 19.8637 29.4866 23.2393 21.376C26.602 13.2963 31.7823 6.18035 39.5709 2.54847C47.3595 -1.0834 56.1405 -0.477722 64.4914 2.13981C72.8742 4.76736 81.3764 9.58271 89.1443 15.2152C96.9404 20.8681 104.188 27.4833 110.064 33.9039C114.347 38.5842 118.031 43.3017 120.666 47.5861C138.632 41.4653 157.913 37.9117 178 37.8343Z" fill="#313749"/>
<path fill-rule="evenodd" clip-rule="evenodd" d="M178 37.8343C198.087 37.9117 217.368 41.4652 235.334 47.5861C237.969 43.3017 241.653 38.5842 245.936 33.9038C251.812 27.4833 259.06 20.8681 266.856 15.2151C274.624 9.58268 283.126 4.76732 291.509 2.13978C299.859 -0.477754 308.641 -1.08344 316.429 2.54844C324.218 6.18032 329.398 13.2963 332.761 21.3759C336.136 29.4865 337.913 39.0948 338.591 48.6658C339.272 58.2717 338.863 68.0758 337.722 76.7042C336.591 85.2476 334.698 92.9876 332.219 98.3035C330.268 102.488 327.55 106.071 324.267 109.046C344.109 133.167 356 160.244 356 184.53C356 217.084 334.741 240.814 302.322 256.145C295.38 259.427 287.89 262.347 279.93 264.908C283.89 271.497 287.549 278.342 290.873 285.353C294.848 278.334 300.27 271.802 307.449 266.084C316.543 258.84 327.818 253.407 341.269 249.624C352.432 246.485 362.89 254.334 364.774 265.049C366.716 276.097 359.231 285.828 349.371 288.943C341.431 291.451 336.044 294.445 332.371 297.371C327.172 301.512 324.397 306.304 322.912 312.053C321.308 318.257 321.145 325.914 322.184 335.266C323.083 343.36 324.722 351.568 326.49 360.403C326.775 361.826 327.063 363.266 327.35 364.717C329.283 374.483 331.398 385.76 331.364 396.084C331.33 406.442 329.144 419.771 318.504 429.846C311.482 436.496 302.681 439.914 293.181 441.328C287.418 449.502 280.509 456.695 272.632 462.898C248.079 482.232 214.542 491.625 178 491.72C141.458 491.625 107.921 482.232 83.3681 462.898C58.5395 443.347 43.3224 413.949 43.3224 375.036L43.3226 374.787L43.3224 374.538C43.3224 339.412 55.7113 298.782 76.0703 264.908C68.1096 262.347 60.6201 259.427 53.6785 256.145C21.2588 240.814 0 217.084 0 184.531C0 160.244 11.8909 133.167 31.7328 109.046C28.4499 106.071 25.7324 102.488 23.7812 98.3036C21.3023 92.9877 19.4086 85.2476 18.2784 76.7042C17.137 68.0758 16.7282 58.2717 17.409 48.6659C18.0874 39.0949 19.8637 29.4866 23.2393 21.376C26.602 13.2963 31.7823 6.18035 39.5709 2.54847C47.3595 -1.0834 56.1405 -0.477722 64.4914 2.13981C72.8742 4.76736 81.3764 9.58271 89.1443 15.2152C96.9404 20.8681 104.188 27.4833 110.064 33.9039C114.347 38.5842 118.031 43.3017 120.666 47.5861C138.632 41.4653 157.913 37.9117 178 37.8343ZM301.965 426.227C302.042 426.065 302.118 425.903 302.194 425.74C305.73 426.318 309.306 427.106 312.902 428.099C313.645 427.505 314.366 426.878 315.066 426.216C324.255 417.514 326.332 405.852 326.364 396.068C326.369 394.566 326.326 393.038 326.242 391.494C321.431 391.104 316.558 391.169 311.694 391.7C310.151 404.398 306.827 415.912 301.965 426.227ZM312.402 383.982C312.404 383.945 312.406 383.908 312.409 383.871C317.065 385.291 321.667 387.228 326.124 389.66C325.537 381.72 323.971 373.4 322.445 365.688C322.164 364.268 321.882 362.859 321.602 361.459L321.587 361.384C321.097 358.933 320.612 356.511 320.148 354.112C317.263 354.564 314.405 355.129 311.58 355.806C312.304 362.173 312.678 368.439 312.678 374.538L312.677 374.787L312.678 375.036C312.678 378.076 312.585 381.058 312.402 383.982ZM309.074 339.817C312.025 340.329 314.998 340.964 317.985 341.721C317.693 339.747 317.433 337.78 317.215 335.819C316.144 326.179 316.252 317.84 318.071 310.802C319.164 306.572 320.894 302.714 323.563 299.217C315.265 299.717 306.944 301.363 298.854 304.187C303.27 315.966 306.723 327.972 309.074 339.817ZM284.836 443.641C261.439 472.069 222.332 486.183 178 486.3C133.668 486.183 94.561 472.069 71.1641 443.641C87.5473 434.943 106.352 431.46 125.429 433.008C102.062 420.965 77.8244 416.844 57.5793 421.611C53.972 413.486 51.3384 404.587 49.809 394.913C64.3104 388.134 80.0359 385.856 95.0081 387.811C80.2433 378.633 63.6261 374.751 48.2815 376.956C48.2679 376.155 48.2611 375.349 48.2611 374.538C48.2611 371.412 48.3626 368.237 48.5624 365.025C49.366 364.186 50.1888 363.36 51.0308 362.547C70.9651 343.296 97.9133 335.063 125.429 337.296C101.129 324.772 75.8889 320.816 55.1754 326.512C56.9896 319.881 59.1356 313.246 61.5886 306.678C78.9792 294.965 99.2026 290.624 118.212 293.107C103.729 284.104 87.4647 280.197 72.367 282.132C75.0736 276.807 77.9782 271.596 81.0658 266.542L80.8863 266.487L80.9329 266.411C108.941 274.72 142.336 278.806 178 278.856C213.664 278.806 247.059 274.72 275.067 266.411L275.114 266.487L274.934 266.542C278.022 271.596 280.926 276.807 283.633 282.132C268.535 280.197 252.271 284.104 237.788 293.107C256.797 290.624 277.021 294.965 294.411 306.678C296.864 313.246 299.01 319.881 300.825 326.512C280.111 320.816 254.871 324.772 230.571 337.296C258.087 335.063 285.035 343.296 304.969 362.547C305.811 363.36 306.634 364.186 307.438 365.025C307.637 368.237 307.739 371.412 307.739 374.538C307.739 375.349 307.732 376.155 307.719 376.956C292.374 374.751 275.757 378.633 260.992 387.811C275.964 385.856 291.69 388.134 306.191 394.913C304.662 404.587 302.028 413.486 298.421 421.611C278.176 416.844 253.938 420.964 230.571 433.008C249.648 431.46 268.453 434.943 284.836 443.641ZM348.268 203.513C333.521 250.648 262.946 273.899 178 274.021C93.0543 273.899 22.4787 250.648 7.73175 203.513C9.0604 202.05 10.444 200.623 11.8826 199.234C32.1898 179.623 59.6419 171.236 87.6719 173.51C59.3341 158.905 29.7402 155.739 7.24654 165.667C8.84147 159.014 11.2268 152.236 14.3337 145.454C16.3033 143.729 18.37 142.077 20.5324 140.505C38.8034 127.231 60.4664 122.241 80.7694 124.893C66.0699 115.755 49.5682 111.77 34.2356 113.691C54.2638 88.7576 83.313 66.5542 117.484 53.8595C131.783 67.9742 142.472 87.5729 148.685 109.554C149.192 86.6998 145.45 65.0281 138.041 47.5651L137.816 47.6197C147.728 45.2049 157.972 43.61 168.464 42.9766L178 125.557L187.536 42.9766C198.028 43.61 208.272 45.2048 218.184 47.6196L217.959 47.5651C210.55 65.028 206.808 86.6997 207.315 109.554C213.528 87.5729 224.217 67.9742 238.516 53.8595C272.687 66.5541 301.736 88.7576 321.764 113.691C306.432 111.77 289.93 115.755 275.231 124.892C295.534 122.241 317.197 127.231 335.468 140.505C337.63 142.076 339.697 143.729 341.666 145.454C344.773 152.236 347.159 159.014 348.753 165.667C326.26 155.738 296.666 158.905 268.328 173.51C296.358 171.236 323.81 179.623 344.117 199.234C345.556 200.623 346.94 202.05 348.268 203.513ZM240.196 49.3166C252.937 29.4815 291.386 -3.57118 314.3 7.11395C339.197 18.7237 336.328 77.5721 327.653 96.1746C326.037 99.6399 323.778 102.656 321.01 105.196C317.568 101.237 313.912 97.3685 310.059 93.6169C311.422 92.0899 312.585 90.3534 313.493 88.4054C315.055 85.0572 316.188 80.3402 316.855 75.2959C317.533 70.1682 317.776 64.348 317.371 58.6347C316.969 52.9555 315.91 47.1521 313.842 42.1818C311.786 37.2419 308.505 32.6114 303.364 30.2138C298.222 27.8161 292.566 28.2798 287.46 29.8801C282.323 31.4903 277.197 34.4097 272.588 37.7519C267.951 41.1141 263.649 45.0415 260.157 48.8571C258.148 51.0523 256.327 53.2976 254.849 55.4533C255.633 55.8198 256.413 56.1912 257.191 56.5672C251.685 53.904 246.014 51.4764 240.196 49.3166ZM115.804 49.3166C103.063 29.4816 64.6142 -3.57115 41.6998 7.11399C16.8026 18.7237 19.6722 77.5721 28.3467 96.1746C29.9626 99.6399 32.2219 102.656 34.9897 105.196C38.4318 101.237 42.0883 97.3686 45.941 93.6169C44.5776 92.0899 43.4151 90.3534 42.5067 88.4054C40.9454 85.0572 39.8124 80.3403 39.1451 75.2959C38.4668 70.1682 38.2238 64.348 38.6287 58.6347C39.0313 52.9555 40.0899 47.1521 42.1585 42.1819C44.2144 37.2419 47.4946 32.6115 52.6364 30.2138C57.7782 27.8161 63.4338 28.2798 68.5396 29.8802C73.6767 31.4904 78.8028 34.4097 83.412 37.7519C88.049 41.1142 92.3513 45.0415 95.8433 48.8571C97.8524 51.0523 99.6733 53.2976 101.151 55.4533C100.367 55.8198 99.5866 56.1912 98.8092 56.5672C104.315 53.904 109.986 51.4764 115.804 49.3166ZM295.672 287.038C306.694 286.671 318.088 288.96 328.977 293.684C329.069 293.609 329.162 293.534 329.256 293.46C333.497 290.081 339.459 286.831 347.865 284.175C347.9 284.164 347.935 284.153 347.97 284.142C341.913 275.127 334.792 267.054 326.772 260.176C320.677 262.965 315.283 266.235 310.564 269.995C304.182 275.078 299.306 280.841 295.672 287.038ZM339.679 255.304C343.446 264.141 346.39 273.776 348.404 283.996C356.014 281.331 361.251 273.887 359.849 265.915C358.415 257.756 350.597 252.195 342.623 254.438C341.628 254.717 340.647 255.006 339.679 255.304Z" fill="#08090C"/>
<path d="M241.586 333.029C239.115 313.545 235.149 293.867 230.012 275.822C213.715 277.853 196.472 278.857 178.67 278.857C160.365 278.857 142.653 277.796 125.953 275.648C120.861 293.496 116.916 312.948 114.43 332.234C114.43 332.234 114.43 332.234 114.43 332.234C114.226 333.817 114.032 335.398 113.848 336.977C117.685 336.874 121.551 336.981 125.429 337.296C125.429 337.296 125.428 337.296 125.429 337.296C121.551 336.981 117.685 336.874 113.848 336.977C112.268 350.527 111.423 363.922 111.423 376.544C111.423 396.934 113.627 414.501 117.576 429.271C117.883 430.42 118.201 431.552 118.529 432.668C127.045 461.618 142.53 479.174 161.199 485.562C166.878 486.055 172.673 486.301 178.558 486.301C183.895 486.301 189.157 486.099 194.326 485.693C213.158 479.421 228.792 461.84 237.37 432.722C237.606 431.923 237.836 431.115 238.061 430.299C238.093 430.182 238.125 430.065 238.157 429.947C238.541 428.538 238.909 427.104 239.26 425.644C239.261 425.639 239.263 425.635 239.264 425.63C242.63 411.639 244.492 395.284 244.492 376.544C244.492 363.911 243.646 350.504 242.063 336.942C241.891 335.468 241.71 333.992 241.521 332.514C241.543 332.686 241.565 332.857 241.586 333.029C241.586 333.029 241.586 333.029 241.586 333.029Z" fill="#919AB6"/>
<path fill-rule="evenodd" clip-rule="evenodd" d="M166.923 503.476C159.446 507.986 149.562 510 139.198 510C128.834 510 118.95 507.986 111.473 503.476C103.788 498.84 98.6315 491.493 98.6315 481.62C98.6315 472.274 103.271 461.886 110.296 453.916C117.36 445.903 127.516 439.579 139.198 439.579C150.88 439.579 161.036 445.903 168.1 453.916C175.125 461.886 179.765 472.274 179.765 481.62C179.765 491.493 174.608 498.84 166.923 503.476ZM139.198 504.963C158.82 504.963 174.727 497.276 174.727 481.62C174.727 465.964 158.82 444.617 139.198 444.617C119.576 444.617 103.669 465.964 103.669 481.62C103.669 497.276 119.576 504.963 139.198 504.963Z" fill="#08090C"/>
<path d="M174.727 481.62C174.727 497.276 158.82 504.963 139.198 504.963C119.576 504.963 103.669 497.276 103.669 481.62C103.669 465.964 119.576 444.617 139.198 444.617C158.82 444.617 174.727 465.964 174.727 481.62Z" fill="#919AB6"/>
<path fill-rule="evenodd" clip-rule="evenodd" d="M244.419 503.476C236.942 507.986 227.058 510 216.694 510C206.33 510 196.446 507.986 188.969 503.476C181.285 498.84 176.128 491.493 176.128 481.62C176.128 472.274 180.767 461.886 187.793 453.916C194.856 445.903 205.012 439.579 216.694 439.579C228.376 439.579 238.533 445.903 245.596 453.916C252.621 461.886 257.261 472.274 257.261 481.62C257.261 491.493 252.104 498.84 244.419 503.476ZM216.694 504.963C236.316 504.963 252.223 497.276 252.223 481.62C252.223 465.964 236.316 444.617 216.694 444.617C197.072 444.617 181.165 465.964 181.165 481.62C181.165 497.276 197.072 504.963 216.694 504.963Z" fill="#08090C"/>
<path d="M252.223 481.62C252.223 497.276 236.316 504.963 216.694 504.963C197.072 504.963 181.165 497.276 181.165 481.62C181.165 465.964 197.072 444.617 216.694 444.617C236.316 444.617 252.223 465.964 252.223 481.62Z" fill="#919AB6"/>
<path d="M264.933 230.576C264.933 260.559 226.042 275.281 178.068 275.281C130.094 275.281 91.2036 260.559 91.2036 230.576C91.2036 200.592 130.094 159.708 178.068 159.708C226.042 159.708 264.933 200.592 264.933 230.576Z" fill="#919AB6"/>
<path d="M178.799 180.895C169.205 180.895 161.427 185.756 161.427 191.753C161.427 197.346 168.193 204.836 176.89 205.819L176.899 207.337C176.899 207.38 176.899 207.423 176.899 207.466C176.899 217.967 169.394 226.159 160.508 226.159C151.804 226.159 144.428 218.304 144.127 208.108L141.105 208.108C141.098 208.346 141.095 208.586 141.095 208.826V208.856C141.102 220.665 149.624 230.556 160.508 230.556C169.049 230.556 176.145 224.452 178.799 216.127C181.454 224.453 188.55 230.556 197.091 230.556C207.979 230.556 216.504 220.656 216.504 208.84C216.504 208.595 216.501 208.352 216.494 208.109L213.472 208.109C213.17 218.304 205.795 226.159 197.091 226.159C188.205 226.159 180.7 217.967 180.7 207.466C180.7 207.442 180.7 207.417 180.7 207.393C180.7 207.375 180.7 207.356 180.7 207.337L180.709 205.819C189.406 204.836 196.172 197.346 196.172 191.753C196.172 185.756 188.394 180.895 178.799 180.895Z" fill="#08090C"/>
<circle cx="125.55" cy="143.186" r="25.6566" fill="#08090C"/>
<ellipse cx="5.34138" cy="7.89968" rx="5.34138" ry="7.89968" transform="matrix(0.909809 -0.415028 0.430286 0.902692 130.181 133.18)" fill="#ECF1FE"/>
<circle cx="235.189" cy="143.548" r="25.6566" fill="#08090C"/>
<ellipse cx="5.34138" cy="7.89968" rx="5.34138" ry="7.89968" transform="matrix(0.909809 -0.415028 0.430286 0.902692 239.816 133.18)" fill="#ECF1FE"/>
<path d="M225.141 197.277C236.522 197.883 251.72 200.446 268.081 204.83C284.442 209.214 298.886 214.594 309.046 219.759C302.584 213.565 287.414 206.426 268.977 201.486C250.541 196.546 233.833 195.143 225.141 197.277Z" fill="#08090C"/>
<path d="M224.603 188.838C234.75 186.478 248.713 185.021 264.126 185.021C279.54 185.021 293.503 186.478 303.65 188.838C296.512 184.528 281.496 181.558 264.126 181.558C246.757 181.558 231.741 184.528 224.603 188.838Z" fill="#08090C"/>
<path d="M224.259 205.724C233.83 208.524 246.106 213.929 258.853 221.288C271.599 228.648 282.418 236.577 289.629 243.465C285.881 236.324 274.948 226.583 260.584 218.29C246.22 209.997 232.317 205.399 224.259 205.724Z" fill="#08090C"/>
<path d="M132.265 197.277C120.884 197.883 105.685 200.446 89.3243 204.83C72.9632 209.214 58.5192 214.593 48.3599 219.759C54.8211 213.565 69.9916 206.426 88.4282 201.486C106.865 196.546 123.572 195.143 132.265 197.277Z" fill="#08090C"/>
<path d="M132.802 188.838C122.656 186.478 108.693 185.02 93.279 185.02C77.8652 185.02 63.9021 186.478 53.7555 188.838C60.8936 184.528 75.9098 181.558 93.2789 181.558C110.648 181.558 125.664 184.528 132.802 188.838Z" fill="#08090C"/>
<path d="M133.147 205.724C123.576 208.524 111.3 213.929 98.553 221.288C85.8062 228.648 74.9878 236.577 67.7768 243.465C71.5247 236.324 82.458 226.583 96.822 218.29C111.186 209.997 125.089 205.399 133.147 205.724Z" fill="#08090C"/>
</svg>
