<svg width="1343" height="1011" viewBox="0 0 1343 1011" fill="none" xmlns="http://www.w3.org/2000/svg">
<circle cx="816.357" cy="372.429" r="100" transform="rotate(180 816.357 372.429)" fill="#EE6123" stroke="#541312" stroke-width="10"/>
<path d="M973.857 208.429C868.308 208.429 784.357 312.612 784.357 438.929C784.357 565.246 868.308 669.429 973.857 669.429C1079.41 669.429 1163.36 565.246 1163.36 438.929C1163.36 312.612 1079.41 208.429 973.857 208.429Z" fill="#EE6123" stroke="#541312" stroke-width="10"/>
<ellipse cx="974.357" cy="511.651" rx="125" ry="152.778" transform="rotate(180 974.357 511.651)" fill="#ECF1FE"/>
<mask id="path-4-outside-1_14_4471" maskUnits="userSpaceOnUse" x="604.522" y="-3.56904" width="743.031" height="680.639" fill="black">
<rect fill="#ECF1FE" x="604.522" y="-3.56904" width="743.031" height="680.639"/>
<path fill-rule="evenodd" clip-rule="evenodd" d="M891.836 407.719L891.836 407.72L891.838 407.719C1040.27 365.158 1186.62 414.212 1233.58 517.775C1279.82 449.3 1297.52 371.317 1276.34 297.464C1230.69 138.27 1021.71 58.517 809.457 119.241C809.352 119.271 809.248 119.301 809.143 119.331C702.965 149.777 635.402 239.016 658.238 318.652C681.073 398.288 785.658 438.164 891.836 407.719Z"/>
</mask>
<path fill-rule="evenodd" clip-rule="evenodd" d="M891.836 407.719L891.836 407.72L891.838 407.719C1040.27 365.158 1186.62 414.212 1233.58 517.775C1279.82 449.3 1297.52 371.317 1276.34 297.464C1230.69 138.27 1021.71 58.517 809.457 119.241C809.352 119.271 809.248 119.301 809.143 119.331C702.965 149.777 635.402 239.016 658.238 318.652C681.073 398.288 785.658 438.164 891.836 407.719Z" fill="#ECF1FE"/>
<path d="M891.836 407.72L894.592 417.333L884.98 420.089L882.223 410.476L891.836 407.72ZM891.836 407.719L889.079 398.106L898.692 395.35L901.448 404.962L891.836 407.719ZM891.838 407.719L894.594 417.332L891.838 407.719ZM1233.58 517.775L1241.87 523.371L1231.86 538.192L1224.47 521.904L1233.58 517.775ZM809.457 119.241L812.208 128.855L812.202 128.857L809.457 119.241ZM882.223 410.476L882.223 410.475L901.448 404.962L901.449 404.964L882.223 410.476ZM894.594 417.332L894.592 417.333L889.08 398.107L889.082 398.107L894.594 417.332ZM1224.47 521.904C1180.36 424.615 1040.38 375.528 894.594 417.332L889.082 398.107C1040.15 354.788 1192.88 403.809 1242.69 513.645L1224.47 521.904ZM1285.95 294.707C1308.11 371.979 1289.4 452.989 1241.87 523.371L1225.29 512.178C1270.25 445.612 1286.93 370.655 1266.73 300.22L1285.95 294.707ZM806.707 109.626C914.709 78.7272 1022.25 83.4507 1108.94 116.54C1195.64 149.632 1262.07 211.408 1285.95 294.707L1266.73 300.22C1244.97 224.325 1184.08 166.628 1101.81 135.226C1019.53 103.821 916.454 99.0304 812.208 128.855L806.707 109.626ZM812.202 128.857C812.101 128.885 812 128.914 811.899 128.943L806.386 109.718C806.495 109.687 806.604 109.656 806.713 109.625L812.202 128.857ZM811.899 128.943C760.689 143.627 719.165 172.396 693.283 206.581C667.404 240.763 657.495 279.781 667.85 315.896L648.625 321.408C636.145 277.886 648.6 232.467 677.337 194.509C706.073 156.554 751.419 125.48 806.386 109.718L811.899 128.943ZM667.85 315.896C678.206 352.01 707.285 379.848 747.346 395.122C787.41 410.398 837.869 412.79 889.079 398.106L894.592 417.331C839.624 433.093 784.702 430.77 740.221 413.81C695.735 396.848 661.105 364.93 648.625 321.408L667.85 315.896Z" fill="#541312" mask="url(#path-4-outside-1_14_4471)"/>
<path fill-rule="evenodd" clip-rule="evenodd" d="M1146.69 144.744C1088.18 177.314 1051.93 260.099 1061.64 352.399C1063.37 368.892 1066.47 384.783 1070.77 399.873C1016.32 388.124 954.263 389.819 891.838 407.719L891.836 407.72L891.836 407.719C785.658 438.164 681.073 398.288 658.238 318.652C635.402 239.016 702.965 149.777 809.143 119.331L809.457 119.241C933.682 83.7003 1056.79 96.2805 1146.69 144.744Z" fill="#EE6123"/>
<path d="M1062.8 907.134C1039.11 878.892 1050.54 830.287 1088.33 798.57C1126.13 766.854 1175.98 764.037 1199.68 792.279C1223.38 820.52 1255.72 921.285 1217.92 953.001C1180.12 984.718 1086.5 935.376 1062.8 907.134Z" fill="#EE6123"/>
<path d="M1062.8 907.134C1039.11 878.892 1050.54 830.287 1088.33 798.57C1126.13 766.854 1175.98 764.037 1199.68 792.279C1223.38 820.52 1255.72 921.285 1217.92 953.001C1180.12 984.718 1086.5 935.376 1062.8 907.134Z" fill="#EE6123"/>
<path d="M1062.8 907.134C1039.11 878.892 1050.54 830.287 1088.33 798.57C1126.13 766.854 1175.98 764.037 1199.68 792.279C1223.38 820.52 1255.72 921.285 1217.92 953.001C1180.12 984.718 1086.5 935.376 1062.8 907.134Z" stroke="#541312" stroke-width="10"/>
<path d="M1062.8 907.134C1039.11 878.892 1050.54 830.287 1088.33 798.57C1126.13 766.854 1175.98 764.037 1199.68 792.279C1223.38 820.52 1255.72 921.285 1217.92 953.001C1180.12 984.718 1086.5 935.376 1062.8 907.134Z" stroke="#541312" stroke-width="10"/>
<path d="M1096.49 888.153C1083 872.082 1089.5 844.423 1111.01 826.374C1132.52 808.326 1160.89 806.723 1174.38 822.794C1187.86 838.865 1206.26 896.205 1184.75 914.254C1163.24 932.302 1109.97 904.224 1096.49 888.153Z" fill="#ECF1FE"/>
<path d="M1096.49 888.153C1083 872.082 1089.5 844.423 1111.01 826.374C1132.52 808.326 1160.89 806.723 1174.38 822.794C1187.86 838.865 1206.26 896.205 1184.75 914.254C1163.24 932.302 1109.97 904.224 1096.49 888.153Z" fill="#ECF1FE"/>
<path d="M748.57 792.279C772.267 764.037 822.119 766.854 859.918 798.57C897.716 830.287 909.147 878.892 885.449 907.134C861.751 935.376 768.132 984.718 730.334 953.001C692.536 921.285 724.872 820.52 748.57 792.279Z" fill="#EE6123"/>
<path d="M748.57 792.279C772.267 764.037 822.119 766.854 859.918 798.57C897.716 830.287 909.147 878.892 885.449 907.134C861.751 935.376 768.132 984.718 730.334 953.001C692.536 921.285 724.872 820.52 748.57 792.279Z" fill="#EE6123"/>
<path d="M748.57 792.279C772.267 764.037 822.119 766.854 859.918 798.57C897.716 830.287 909.147 878.892 885.449 907.134C861.751 935.376 768.132 984.718 730.334 953.001C692.536 921.285 724.872 820.52 748.57 792.279Z" stroke="#541312" stroke-width="10"/>
<path d="M748.57 792.279C772.267 764.037 822.119 766.854 859.918 798.57C897.716 830.287 909.147 878.892 885.449 907.134C861.751 935.376 768.132 984.718 730.334 953.001C692.536 921.285 724.872 820.52 748.57 792.279Z" stroke="#541312" stroke-width="10"/>
<path d="M773.111 822.153C786.597 806.082 814.965 807.685 836.474 825.734C857.983 843.782 864.488 871.441 851.003 887.512C837.518 903.583 784.244 931.661 762.735 913.613C741.226 895.565 759.626 838.224 773.111 822.153Z" fill="#ECF1FE"/>
<path d="M773.111 822.153C786.597 806.082 814.965 807.685 836.474 825.734C857.983 843.782 864.488 871.441 851.003 887.512C837.518 903.583 784.244 931.661 762.735 913.613C741.226 895.565 759.626 838.224 773.111 822.153Z" fill="#ECF1FE"/>
<path d="M974.357 519.929C917.907 519.929 866.952 541.063 830.15 565.758C811.739 578.111 796.738 591.442 786.279 603.636C781.052 609.73 776.888 615.623 774.005 621.046C771.169 626.382 769.357 631.665 769.357 636.429C769.357 646.372 777.016 654.512 787.456 660.93C798.178 667.52 813.36 673.275 831.678 678.038C868.388 687.583 918.831 693.429 974.357 693.429C1029.88 693.429 1080.33 687.583 1117.04 678.038C1135.35 673.275 1150.54 667.52 1161.26 660.93C1171.7 654.512 1179.36 646.372 1179.36 636.429C1179.36 631.665 1177.55 626.382 1174.71 621.046C1171.83 615.623 1167.66 609.73 1162.44 603.636C1151.98 591.442 1136.98 578.111 1118.56 565.758C1081.76 541.063 1030.81 519.929 974.357 519.929Z" fill="#ECF1FE" stroke="#541312" stroke-width="10"/>
<mask id="path-12-outside-2_14_4471" maskUnits="userSpaceOnUse" x="714.357" y="585.429" width="520" height="320" fill="black">
<rect fill="#ECF1FE" x="714.357" y="585.429" width="520" height="320"/>
<path fill-rule="evenodd" clip-rule="evenodd" d="M724.357 645.429C724.357 644.341 724.364 643.254 724.378 642.169C729.81 646.295 739.501 650.186 752.72 653.729C750.51 639.665 749.357 625.197 749.357 610.429C749.357 609.341 749.363 608.254 749.376 607.169C765.76 620.997 825.189 632.178 902.89 636.501C901.885 638.253 901.357 640.069 901.357 641.929C901.357 656.565 934.04 668.429 974.357 668.429C1014.67 668.429 1047.36 656.565 1047.36 641.929C1047.36 640.069 1046.83 638.253 1045.82 636.501C1123.53 632.178 1182.95 620.997 1199.34 607.169C1199.35 608.254 1199.36 609.341 1199.36 610.429C1199.36 625.197 1198.2 639.665 1195.99 653.729C1209.21 650.186 1218.9 646.295 1224.34 642.169C1224.35 643.254 1224.36 644.341 1224.36 645.429C1224.36 783.5 1112.43 895.429 974.357 895.429C836.286 895.429 724.357 783.5 724.357 645.429Z"/>
</mask>
<path fill-rule="evenodd" clip-rule="evenodd" d="M724.357 645.429C724.357 644.341 724.364 643.254 724.378 642.169C729.81 646.295 739.501 650.186 752.72 653.729C750.51 639.665 749.357 625.197 749.357 610.429C749.357 609.341 749.363 608.254 749.376 607.169C765.76 620.997 825.189 632.178 902.89 636.501C901.885 638.253 901.357 640.069 901.357 641.929C901.357 656.565 934.04 668.429 974.357 668.429C1014.67 668.429 1047.36 656.565 1047.36 641.929C1047.36 640.069 1046.83 638.253 1045.82 636.501C1123.53 632.178 1182.95 620.997 1199.34 607.169C1199.35 608.254 1199.36 609.341 1199.36 610.429C1199.36 625.197 1198.2 639.665 1195.99 653.729C1209.21 650.186 1218.9 646.295 1224.34 642.169C1224.35 643.254 1224.36 644.341 1224.36 645.429C1224.36 783.5 1112.43 895.429 974.357 895.429C836.286 895.429 724.357 783.5 724.357 645.429Z" fill="#EE6123"/>
<path d="M724.378 642.169L730.427 634.206L714.633 622.207L714.379 642.041L724.378 642.169ZM752.72 653.729L750.131 663.388L764.986 667.37L762.599 652.177L752.72 653.729ZM749.376 607.169L755.826 599.527L739.62 585.848L739.377 607.054L749.376 607.169ZM902.89 636.501L911.565 641.475L919.626 627.417L903.445 626.517L902.89 636.501ZM1045.82 636.501L1045.27 626.517L1029.09 627.417L1037.15 641.476L1045.82 636.501ZM1199.34 607.169L1209.34 607.054L1209.09 585.849L1192.89 599.527L1199.34 607.169ZM1195.99 653.729L1186.12 652.177L1183.73 667.37L1198.58 663.388L1195.99 653.729ZM1224.34 642.169L1234.34 642.041L1234.08 622.207L1218.29 634.206L1224.34 642.169ZM714.379 642.041C714.364 643.169 714.357 644.298 714.357 645.429H734.357C734.357 644.383 734.364 643.339 734.377 642.297L714.379 642.041ZM755.309 644.07C742.263 640.573 734.206 637.076 730.427 634.206L718.329 650.132C725.415 655.514 736.739 659.799 750.131 663.388L755.309 644.07ZM739.357 610.429C739.357 625.717 740.55 640.704 742.841 655.282L762.599 652.177C760.469 638.625 759.357 624.676 759.357 610.429H739.357ZM739.377 607.054C739.364 608.177 739.357 609.302 739.357 610.429H759.357C759.357 609.379 759.363 608.33 759.375 607.284L739.377 607.054ZM903.445 626.517C864.885 624.371 831.065 620.533 805.008 615.576C791.97 613.095 781.053 610.368 772.539 607.501C763.789 604.555 758.454 601.745 755.826 599.527L742.926 614.81C748.49 619.507 756.728 623.28 766.157 626.455C775.821 629.709 787.69 632.64 801.27 635.223C828.449 640.394 863.194 644.308 902.334 646.486L903.445 626.517ZM911.357 641.929C911.357 641.957 911.352 641.959 911.365 641.911C911.38 641.858 911.429 641.713 911.565 641.475L894.215 631.527C892.462 634.585 891.357 638.098 891.357 641.929H911.357ZM974.357 658.429C955.05 658.429 938.007 655.572 926.151 651.268C920.181 649.101 916.054 646.756 913.607 644.656C911.126 642.527 911.357 641.57 911.357 641.929H891.357C891.357 649.606 895.674 655.621 900.581 659.833C905.522 664.073 912.085 667.439 919.326 670.067C933.89 675.354 953.348 678.429 974.357 678.429V658.429ZM1037.36 641.929C1037.36 641.57 1037.59 642.527 1035.11 644.656C1032.66 646.756 1028.53 649.101 1022.56 651.268C1010.71 655.572 993.665 658.429 974.357 658.429V678.429C995.366 678.429 1014.82 675.354 1029.39 670.067C1036.63 667.439 1043.19 664.073 1048.13 659.833C1053.04 655.621 1057.36 649.606 1057.36 641.929H1037.36ZM1037.15 641.476C1037.29 641.713 1037.33 641.858 1037.35 641.911C1037.36 641.959 1037.36 641.957 1037.36 641.929H1057.36C1057.36 638.098 1056.25 634.585 1054.5 631.527L1037.15 641.476ZM1192.89 599.527C1190.26 601.745 1184.93 604.555 1176.18 607.501C1167.66 610.368 1156.74 613.095 1143.71 615.576C1117.65 620.533 1083.83 624.371 1045.27 626.517L1046.38 646.486C1085.52 644.308 1120.27 640.394 1147.44 635.223C1161.02 632.64 1172.89 629.709 1182.56 626.455C1191.99 623.28 1200.22 619.507 1205.79 614.81L1192.89 599.527ZM1209.36 610.429C1209.36 609.302 1209.35 608.177 1209.34 607.054L1189.34 607.284C1189.35 608.331 1189.36 609.379 1189.36 610.429H1209.36ZM1205.87 655.282C1208.16 640.704 1209.36 625.717 1209.36 610.429H1189.36C1189.36 624.676 1188.25 638.625 1186.12 652.177L1205.87 655.282ZM1218.29 634.206C1214.51 637.076 1206.45 640.573 1193.41 644.07L1198.58 663.388C1211.98 659.799 1223.3 655.514 1230.39 650.132L1218.29 634.206ZM1234.36 645.429C1234.36 644.298 1234.35 643.169 1234.34 642.041L1214.34 642.296C1214.35 643.339 1214.36 644.383 1214.36 645.429H1234.36ZM974.357 905.429C1117.95 905.429 1234.36 789.023 1234.36 645.429H1214.36C1214.36 777.978 1106.91 885.429 974.357 885.429V905.429ZM714.357 645.429C714.357 789.023 830.763 905.429 974.357 905.429V885.429C841.809 885.429 734.357 777.978 734.357 645.429H714.357Z" fill="#541312" mask="url(#path-12-outside-2_14_4471)"/>
<path fill-rule="evenodd" clip-rule="evenodd" d="M780.219 620.238C808.464 627.832 851.714 633.654 902.89 636.501C901.885 638.253 901.357 640.069 901.357 641.929C901.357 656.565 934.04 668.429 974.357 668.429C1014.67 668.429 1047.36 656.565 1047.36 641.929C1047.36 640.069 1046.83 638.253 1045.82 636.501C1097 633.654 1140.25 627.832 1168.5 620.238C1146.9 584.648 1068.17 524.929 974.357 524.929C880.54 524.929 801.81 584.648 780.219 620.238Z" fill="#ECF1FE"/>
<path fill-rule="evenodd" clip-rule="evenodd" d="M1044.49 649.309C1046.36 646.966 1047.36 644.49 1047.36 641.929C1047.36 640.069 1046.83 638.253 1045.82 636.501C1123.53 632.178 1182.95 620.997 1199.34 607.169C1199.35 608.254 1199.36 609.341 1199.36 610.429C1199.36 625.197 1198.2 639.665 1195.99 653.729C1209.21 650.186 1218.9 646.295 1224.34 642.169C1224.35 643.254 1224.36 644.341 1224.36 645.429C1224.36 670.196 1220.76 694.121 1214.05 716.71C1189.68 725.296 1155.88 724.315 1121.86 711.935C1084.28 698.258 1055.85 674.087 1044.49 649.309Z" fill="#ECF1FE"/>
<path fill-rule="evenodd" clip-rule="evenodd" d="M724.378 642.169C724.364 643.254 724.357 644.341 724.357 645.429C724.357 670.101 727.931 693.937 734.589 716.45C759.009 725.302 793.131 724.421 827.468 711.923C864.801 698.335 893.111 674.391 904.617 649.784C902.498 647.302 901.357 644.664 901.357 641.929C901.357 640.069 901.885 638.253 902.89 636.501C825.189 632.178 765.76 620.997 749.376 607.169C749.363 608.254 749.357 609.341 749.357 610.429C749.357 625.197 750.51 639.665 752.72 653.729C739.501 650.186 729.81 646.295 724.378 642.169Z" fill="#ECF1FE"/>
<path d="M934.357 640.029C934.357 634.285 952.266 617.729 974.357 617.729C996.449 617.729 1014.36 634.285 1014.36 640.029C1014.36 645.773 996.449 650.429 974.357 650.429C952.266 650.429 934.357 645.773 934.357 640.029Z" fill="#541312"/>
<ellipse cx="1035.32" cy="709.929" rx="24.0385" ry="37.5" transform="rotate(180 1035.32 709.929)" fill="#541312"/>
<ellipse cx="1027.34" cy="722.929" rx="8.01282" ry="12.5" transform="rotate(180 1027.34 722.929)" fill="#ECF1FE"/>
<ellipse cx="913.319" cy="709.929" rx="24.0385" ry="37.5" transform="rotate(180 913.319 709.929)" fill="#541312"/>
<ellipse cx="905.344" cy="722.929" rx="8.01282" ry="12.5" transform="rotate(180 905.344 722.929)" fill="#ECF1FE"/>
<path d="M1066.36 783.429L1050.9 788.468C1041.01 791.695 1030.35 791.752 1020.42 788.632L1003.86 783.429" stroke="#541312" stroke-width="10"/>
<path d="M944.357 783.429L928.904 788.468C919.007 791.695 908.35 791.752 898.418 788.632L881.857 783.429" stroke="#541312" stroke-width="10"/>
<mask id="path-24-inside-3_14_4471" fill="#ECF1FE">
<path fill-rule="evenodd" clip-rule="evenodd" d="M910.535 604.645C918.001 595.782 929.181 590.151 941.677 590.151C954.99 590.151 966.811 596.544 974.237 606.427C981.662 596.544 993.483 590.151 1006.8 590.151C1019.29 590.151 1030.47 595.782 1037.94 604.646C1038.87 602.696 1039.36 600.673 1039.36 598.6C1039.36 582.586 1010.2 536.427 974.237 536.427C938.272 536.427 909.117 582.586 909.117 598.6C909.117 600.673 909.606 602.695 910.535 604.645Z"/>
</mask>
<path fill-rule="evenodd" clip-rule="evenodd" d="M910.535 604.645C918.001 595.782 929.181 590.151 941.677 590.151C954.99 590.151 966.811 596.544 974.237 606.427C981.662 596.544 993.483 590.151 1006.8 590.151C1019.29 590.151 1030.47 595.782 1037.94 604.646C1038.87 602.696 1039.36 600.673 1039.36 598.6C1039.36 582.586 1010.2 536.427 974.237 536.427C938.272 536.427 909.117 582.586 909.117 598.6C909.117 600.673 909.606 602.695 910.535 604.645Z" fill="#FB9197"/>
<path d="M910.535 604.645L901.506 608.946L908.182 622.96L918.183 611.088L910.535 604.645ZM974.237 606.427L966.242 612.434L974.237 623.075L982.232 612.434L974.237 606.427ZM1037.94 604.646L1030.29 611.088L1040.29 622.96L1046.97 608.947L1037.94 604.646ZM918.183 611.088C923.83 604.384 932.254 600.151 941.677 600.151V580.151C926.108 580.151 912.171 587.181 902.886 598.203L918.183 611.088ZM941.677 600.151C951.713 600.151 960.624 604.956 966.242 612.434L982.232 600.421C972.999 588.131 958.268 580.151 941.677 580.151V600.151ZM982.232 612.434C987.85 604.956 996.761 600.151 1006.8 600.151V580.151C990.205 580.151 975.475 588.131 966.242 600.421L982.232 612.434ZM1006.8 600.151C1016.22 600.151 1024.64 604.384 1030.29 611.088L1045.59 598.204C1036.3 587.181 1022.37 580.151 1006.8 580.151V600.151ZM1046.97 608.947C1048.48 605.776 1049.36 602.292 1049.36 598.6H1029.36C1029.36 599.055 1029.26 599.616 1028.91 600.345L1046.97 608.947ZM1049.36 598.6C1049.36 592.237 1046.69 584.656 1043.18 577.651C1039.5 570.309 1034.26 562.339 1027.83 554.944C1015.26 540.497 996.459 526.427 974.237 526.427V546.427C987.981 546.427 1001.74 555.437 1012.74 568.073C1018.09 574.22 1022.39 580.792 1025.3 586.608C1028.38 592.762 1029.36 596.956 1029.36 598.6H1049.36ZM974.237 526.427C952.016 526.427 933.219 540.497 920.647 554.944C914.212 562.339 908.971 570.309 905.293 577.651C901.785 584.656 899.117 592.237 899.117 598.6H919.117C919.117 596.956 920.094 592.762 923.176 586.608C926.089 580.792 930.385 574.22 935.734 568.073C946.73 555.437 960.494 546.427 974.237 546.427V526.427ZM899.117 598.6C899.117 602.291 899.996 605.775 901.506 608.946L919.563 600.345C919.215 599.615 919.117 599.055 919.117 598.6H899.117Z" fill="#541312" mask="url(#path-24-inside-3_14_4471)"/>
<mask id="path-26-outside-4_14_4471" maskUnits="userSpaceOnUse" x="751.908" y="841.429" width="444" height="138" fill="black">
<rect fill="#ECF1FE" x="751.908" y="841.429" width="444" height="138"/>
<path fill-rule="evenodd" clip-rule="evenodd" d="M773.807 853.802H1173.91C1133.27 921.855 1058.88 967.429 973.858 967.429C888.831 967.429 814.449 921.855 773.807 853.802Z"/>
</mask>
<path fill-rule="evenodd" clip-rule="evenodd" d="M773.807 853.802H1173.91C1133.27 921.855 1058.88 967.429 973.858 967.429C888.831 967.429 814.449 921.855 773.807 853.802Z" fill="#FCDC4D"/>
<path d="M1173.91 853.802L1184.21 859.954L1195.05 841.802H1173.91V853.802ZM773.807 853.802V841.802H752.663L763.504 859.954L773.807 853.802ZM1173.91 841.802H773.807V865.802H1173.91V841.802ZM1163.61 847.649C1125.04 912.226 1054.49 955.429 973.858 955.429V979.429C1063.28 979.429 1141.49 931.484 1184.21 859.954L1163.61 847.649ZM973.858 955.429C893.228 955.429 822.676 912.226 784.11 847.649L763.504 859.954C806.223 931.484 884.435 979.429 973.858 979.429V955.429Z" fill="#541312" mask="url(#path-26-outside-4_14_4471)"/>
<mask id="path-28-outside-5_14_4471" maskUnits="userSpaceOnUse" x="724.357" y="721.802" width="499" height="144" fill="black">
<rect fill="#ECF1FE" x="724.357" y="721.802" width="499" height="144"/>
<path fill-rule="evenodd" clip-rule="evenodd" d="M1173.56 853.802C1177.12 853.802 1180.43 851.916 1182.14 848.795C1200.77 814.907 1211.36 775.983 1211.36 734.586C1211.36 734.586 1211.36 734.586 1211.36 734.586H736.357C736.357 734.586 736.357 734.586 736.357 734.586C736.357 775.983 746.949 814.907 765.57 848.795C767.285 851.916 770.592 853.802 774.154 853.802H1173.56Z"/>
</mask>
<path fill-rule="evenodd" clip-rule="evenodd" d="M1173.56 853.802C1177.12 853.802 1180.43 851.916 1182.14 848.795C1200.77 814.907 1211.36 775.983 1211.36 734.586C1211.36 734.586 1211.36 734.586 1211.36 734.586H736.357C736.357 734.586 736.357 734.586 736.357 734.586C736.357 775.983 746.949 814.907 765.57 848.795C767.285 851.916 770.592 853.802 774.154 853.802H1173.56Z" fill="#FCDC4D"/>
<path d="M765.57 848.795L776.086 843.016L765.57 848.795ZM1192.66 854.574C1212.23 818.96 1223.36 778.054 1223.36 734.586H1199.36C1199.36 773.912 1189.3 810.854 1171.63 843.016L1192.66 854.574ZM1211.36 722.586H736.357V746.586H1211.36V722.586ZM724.357 734.586C724.357 778.054 735.483 818.96 755.053 854.574L776.086 843.016C758.414 810.854 748.357 773.912 748.357 734.586H724.357ZM774.154 865.802H1173.56V841.802H774.154V865.802ZM736.357 722.586C729.452 722.586 724.357 728.24 724.357 734.586H748.357C748.357 740.932 743.263 746.586 736.357 746.586V722.586ZM1223.36 734.586C1223.36 727.958 1217.98 722.586 1211.36 722.586V746.586C1204.73 746.586 1199.36 741.213 1199.36 734.586H1223.36ZM755.053 854.574C758.954 861.674 766.379 865.802 774.154 865.802V841.802C774.805 841.802 775.615 842.158 776.086 843.016L755.053 854.574ZM1171.63 843.016C1172.1 842.158 1172.91 841.802 1173.56 841.802V865.802C1181.34 865.802 1188.76 861.674 1192.66 854.574L1171.63 843.016Z" fill="#541312" mask="url(#path-28-outside-5_14_4471)"/>
<rect x="889.308" y="867.047" width="89.8272" height="47.9136" transform="rotate(180 889.308 867.047)" fill="#541312" stroke="#541312" stroke-width="6"/>
<path fill-rule="evenodd" clip-rule="evenodd" d="M865.204 863.581C865.205 863.58 865.204 863.58 865.203 863.58H865.202C865.201 863.58 865.2 863.579 865.2 863.578V844.893C865.2 844.341 864.752 843.893 864.2 843.893H846.395C845.842 843.893 845.395 844.341 845.395 844.893V863.08C845.395 863.356 845.171 863.58 844.895 863.58C844.619 863.58 844.395 863.356 844.395 863.08V843.893C844.395 843.893 844.394 843.893 844.394 843.893C844.394 843.893 844.394 843.893 844.394 843.893V842.893L844.394 842.893L844.394 842.893L844.394 842.893L844.394 842.893L844.394 842.893L844.394 842.893C844.394 842.892 844.395 842.892 844.395 842.892C844.395 842.892 844.395 842.892 844.395 842.892V822.707C844.395 822.431 844.619 822.207 844.895 822.207C845.171 822.207 845.395 822.431 845.395 822.707V839.494C845.395 840.383 846.469 840.83 847.1 840.203L865.2 822.207C865.2 822.207 865.2 822.207 865.201 822.207C865.201 822.207 865.201 822.207 865.201 822.207C865.201 822.207 865.201 822.206 865.202 822.206L865.202 822.206C865.203 822.205 865.204 822.205 865.205 822.206C865.206 822.207 865.206 822.207 865.207 822.207H865.502C865.887 822.207 866.2 822.519 866.2 822.905C866.2 823.091 866.274 823.269 866.406 823.4L886.008 842.893C886.399 843.282 886.399 843.914 886.008 844.303L866.265 863.936C866.07 864.13 865.755 864.13 865.56 863.936L865.204 863.582C865.204 863.582 865.204 863.581 865.204 863.581ZM866.2 827.01C866.2 826.121 867.274 825.674 867.905 826.301L884.585 842.889C884.979 843.28 884.979 843.916 884.585 844.307L867.905 860.895C867.274 861.522 866.2 861.075 866.2 860.186V844.893C866.2 844.341 866.648 843.893 867.2 843.893H875.103C875.379 843.893 875.603 843.669 875.603 843.393C875.603 843.117 875.379 842.893 875.103 842.893H867.2C866.648 842.893 866.2 842.445 866.2 841.893V827.01ZM847.531 841.184C846.898 841.813 847.344 842.893 848.236 842.893H864.2C864.752 842.893 865.2 842.445 865.2 841.893V826.021C865.2 825.132 864.126 824.685 863.495 825.312L847.531 841.184ZM801.934 843.246C801.738 843.048 801.419 843.048 801.223 843.246C801.03 843.441 801.03 843.755 801.223 843.95L820.637 863.575C821.024 863.967 821.656 863.967 822.043 863.575C822.043 863.576 822.043 863.576 822.044 863.576H822.057C822.061 863.576 822.064 863.578 822.067 863.58L822.268 863.784C822.542 864.06 822.989 864.06 823.263 863.784L842.733 844.1C843.009 843.822 843.009 843.374 842.733 843.096L842.534 842.894C842.529 842.889 842.527 842.883 842.527 842.877C842.527 842.864 842.516 842.853 842.503 842.853H825.865C824.976 842.853 824.529 841.781 825.154 841.15L842.882 823.227C843.075 823.032 843.075 822.718 842.882 822.524C842.687 822.326 842.367 822.326 842.171 822.524L824.754 840.132C824.126 840.767 823.043 840.322 823.043 839.428V822.631C823.043 822.355 822.819 822.131 822.543 822.131C822.267 822.131 822.043 822.355 822.043 822.631V841.853C822.043 842.405 821.595 842.853 821.043 842.853H812.297C812.021 842.853 811.797 843.077 811.797 843.353C811.797 843.629 812.021 843.853 812.297 843.853H821.043C821.595 843.853 822.043 844.301 822.043 844.853V863.575L801.934 843.246ZM823.043 860.151C823.043 861.045 824.126 861.49 824.754 860.854L839.887 845.556C840.511 844.925 840.064 843.853 839.176 843.853H824.043C823.491 843.853 823.043 844.301 823.043 844.853V860.151Z" fill="#541312"/>
<path d="M865.204 863.581L864.147 862.516L864.146 862.518L865.204 863.581ZM844.394 842.893H845.894V842.558L845.751 842.254L844.394 842.893ZM844.394 842.893L842.896 842.808L842.874 843.188L843.037 843.532L844.394 842.893ZM844.394 842.893L843.001 842.336L842.91 842.563L842.896 842.808L844.394 842.893ZM844.394 842.893L843.333 841.832L843.115 842.05L843.001 842.336L844.394 842.893ZM844.394 842.893L843.793 841.519L843.533 841.632L843.333 841.832L844.394 842.893ZM844.394 842.893L844.995 844.267L845.251 844.155L845.45 843.958L844.394 842.893ZM844.394 842.893L843.34 841.825L843.338 841.827L844.394 842.893ZM844.395 842.892L845.8 843.416L845.802 843.41L844.395 842.892ZM847.1 840.203L846.042 839.139V839.139L847.1 840.203ZM865.2 822.207L866.257 823.271L866.26 823.268L865.2 822.207ZM865.201 822.207L864.579 820.842L864.571 820.845L864.564 820.849L865.201 822.207ZM865.202 822.206L864.145 821.142L864.141 821.146L865.202 822.206ZM865.202 822.206L866.259 823.271L866.259 823.27L865.202 822.206ZM865.205 822.206L864.148 823.27L864.149 823.271L865.205 822.206ZM866.406 823.4L865.348 824.464L865.348 824.464L866.406 823.4ZM886.008 842.893L884.95 843.957H884.95L886.008 842.893ZM886.008 844.303L887.065 845.367L887.065 845.367L886.008 844.303ZM866.265 863.936L867.323 865L867.323 865L866.265 863.936ZM865.56 863.936L864.502 865V865L865.56 863.936ZM865.204 863.582L864.146 864.645L864.146 864.646L865.204 863.582ZM867.905 826.301L866.847 827.365L867.905 826.301ZM884.585 842.889L885.643 841.825H885.643L884.585 842.889ZM884.585 844.307L885.643 845.371H885.643L884.585 844.307ZM867.905 860.895L868.963 861.959L868.963 861.959L867.905 860.895ZM847.531 841.184L848.589 842.248L848.589 842.248L847.531 841.184ZM863.495 825.312L864.553 826.376H864.553L863.495 825.312ZM801.223 843.246L800.157 842.191L800.157 842.191L801.223 843.246ZM801.934 843.246L803 842.191L803 842.191L801.934 843.246ZM801.223 843.95L800.157 845.004L800.157 845.004L801.223 843.95ZM820.637 863.575L821.703 862.521L821.703 862.521L820.637 863.575ZM822.067 863.58L823.134 862.525L823.133 862.525L822.067 863.58ZM822.268 863.784L821.202 864.839V864.839L822.268 863.784ZM823.263 863.784L822.197 862.729V862.729L823.263 863.784ZM842.733 844.1L841.667 843.045L841.667 843.045L842.733 844.1ZM842.733 843.096L841.667 844.151L841.667 844.151L842.733 843.096ZM842.534 842.894L843.6 841.839L843.6 841.839L842.534 842.894ZM825.154 841.15L824.087 840.095V840.095L825.154 841.15ZM842.882 823.227L843.949 824.282L842.882 823.227ZM842.882 822.524L841.816 823.579L841.816 823.579L842.882 822.524ZM842.171 822.524L841.105 821.469L841.105 821.469L842.171 822.524ZM824.754 840.132L825.82 841.187V841.187L824.754 840.132ZM824.754 860.854L823.688 859.8V859.8L824.754 860.854ZM839.887 845.556L840.953 846.611L839.887 845.556ZM865.203 865.08C863.869 865.08 863.195 863.462 864.147 862.516L866.261 864.645C867.214 863.699 866.54 862.08 865.203 862.08V865.08ZM865.202 865.08H865.203V862.08H865.202V865.08ZM863.7 863.578C863.7 864.408 864.373 865.08 865.202 865.08V862.08C866.028 862.08 866.7 862.75 866.7 863.578H863.7ZM863.7 844.893V863.578H866.7V844.893H863.7ZM864.2 845.393C863.924 845.393 863.7 845.169 863.7 844.893H866.7C866.7 843.512 865.581 842.393 864.2 842.393V845.393ZM846.395 845.393H864.2V842.393H846.395V845.393ZM846.895 844.893C846.895 845.169 846.671 845.393 846.395 845.393V842.393C845.014 842.393 843.895 843.512 843.895 844.893H846.895ZM846.895 863.08V844.893H843.895V863.08H846.895ZM844.895 865.08C845.999 865.08 846.895 864.184 846.895 863.08H843.895C843.895 862.528 844.342 862.08 844.895 862.08V865.08ZM842.895 863.08C842.895 864.184 843.79 865.08 844.895 865.08V862.08C845.447 862.08 845.895 862.528 845.895 863.08H842.895ZM842.895 843.893V863.08H845.895V843.893H842.895ZM844.394 845.393C843.566 845.393 842.895 844.722 842.895 843.893H845.895C845.895 843.065 845.223 842.393 844.394 842.393V845.393ZM842.894 843.893C842.894 844.713 843.557 845.393 844.394 845.393V842.393C845.23 842.393 845.894 843.072 845.894 843.893H842.894ZM842.894 842.893V843.893H845.894V842.893H842.894ZM843.037 843.532L843.037 843.532L845.751 842.254L845.751 842.254L843.037 843.532ZM842.896 842.808L842.896 842.808L845.891 842.979L845.891 842.979L842.896 842.808ZM843.001 842.336L843.001 842.336L845.786 843.45L845.786 843.45L843.001 842.336ZM843.333 841.832L843.333 841.832L845.454 843.954L845.454 843.954L843.333 841.832ZM843.793 841.519L843.793 841.519L844.995 844.267L844.995 844.267L843.793 841.519ZM843.338 841.827L843.338 841.828L845.45 843.958L845.45 843.958L843.338 841.827ZM842.989 842.368C843.064 842.166 843.183 841.98 843.34 841.825L845.448 843.96C845.606 843.804 845.725 843.618 845.8 843.416L842.989 842.368ZM842.895 842.892C842.895 842.699 842.932 842.524 842.987 842.374L845.802 843.41C845.858 843.259 845.895 843.084 845.895 842.892H842.895ZM842.895 822.707V842.892H845.895V822.707H842.895ZM844.895 820.707C843.79 820.707 842.895 821.603 842.895 822.707H845.895C845.895 823.259 845.447 823.707 844.895 823.707V820.707ZM846.895 822.707C846.895 821.603 845.999 820.707 844.895 820.707V823.707C844.342 823.707 843.895 823.259 843.895 822.707H846.895ZM846.895 839.494V822.707H843.895V839.494H846.895ZM846.042 839.139C846.358 838.825 846.895 839.049 846.895 839.494H843.895C843.895 841.717 846.58 842.834 848.157 841.266L846.042 839.139ZM864.142 821.143L846.042 839.139L848.157 841.266L866.257 823.271L864.142 821.143ZM865.201 820.707C864.803 820.707 864.421 820.865 864.139 821.147L866.26 823.268C865.979 823.549 865.598 823.707 865.201 823.707V820.707ZM864.564 820.849C864.764 820.755 864.981 820.707 865.201 820.707V823.707C865.421 823.707 865.638 823.658 865.839 823.565L864.564 820.849ZM864.141 821.146C864.267 821.02 864.415 820.917 864.579 820.842L865.823 823.572C865.988 823.497 866.136 823.393 866.262 823.267L864.141 821.146ZM864.145 821.142L864.145 821.142L866.258 823.271L866.259 823.271L864.145 821.142ZM866.262 821.142C865.677 820.56 864.73 820.56 864.145 821.142L866.259 823.27C865.675 823.851 864.732 823.851 864.148 823.27L866.262 821.142ZM865.207 820.707C865.604 820.707 865.982 820.865 866.261 821.141L864.149 823.271C864.429 823.549 864.808 823.707 865.207 823.707V820.707ZM865.502 820.707H865.207V823.707H865.502V820.707ZM867.7 822.905C867.7 821.691 866.716 820.707 865.502 820.707V823.707C865.059 823.707 864.7 823.348 864.7 822.905H867.7ZM867.464 822.337C867.615 822.487 867.7 822.692 867.7 822.905H864.7C864.7 823.49 864.933 824.051 865.348 824.464L867.464 822.337ZM887.065 841.829L867.464 822.337L865.348 824.464L884.95 843.957L887.065 841.829ZM887.065 845.367C888.046 844.392 888.046 842.805 887.065 841.829L884.95 843.957C884.751 843.759 884.751 843.437 884.95 843.24L887.065 845.367ZM867.323 865L887.065 845.367L884.95 843.24L865.207 862.872L867.323 865ZM864.502 865C865.282 865.775 866.543 865.775 867.323 865L865.207 862.872C865.597 862.485 866.228 862.485 866.618 862.872L864.502 865ZM864.146 864.646L864.502 865L866.618 862.872L866.262 862.519L864.146 864.646ZM864.146 862.518C863.556 863.104 863.556 864.059 864.146 864.645L866.262 862.519C866.851 863.105 866.851 864.058 866.262 864.644L864.146 862.518ZM868.963 825.238C867.386 823.67 864.7 824.787 864.7 827.01H867.7C867.7 827.455 867.163 827.679 866.847 827.365L868.963 825.238ZM885.643 841.825L868.963 825.238L866.847 827.365L883.528 843.953L885.643 841.825ZM885.643 845.371C886.626 844.393 886.626 842.803 885.643 841.825L883.528 843.953C883.331 843.757 883.331 843.439 883.528 843.244L885.643 845.371ZM868.963 861.959L885.643 845.371L883.528 843.244L866.847 859.831L868.963 861.959ZM864.7 860.186C864.7 862.41 867.386 863.527 868.963 861.959L866.847 859.831C867.163 859.518 867.7 859.741 867.7 860.186H864.7ZM864.7 844.893V860.186H867.7V844.893H864.7ZM867.2 842.393C865.819 842.393 864.7 843.512 864.7 844.893H867.7C867.7 845.169 867.476 845.393 867.2 845.393V842.393ZM875.103 842.393H867.2V845.393H875.103V842.393ZM874.103 843.393C874.103 842.841 874.551 842.393 875.103 842.393V845.393C876.208 845.393 877.103 844.498 877.103 843.393H874.103ZM875.103 844.393C874.551 844.393 874.103 843.945 874.103 843.393H877.103C877.103 842.288 876.208 841.393 875.103 841.393V844.393ZM867.2 844.393H875.103V841.393H867.2V844.393ZM864.7 841.893C864.7 843.274 865.819 844.393 867.2 844.393V841.393C867.476 841.393 867.7 841.617 867.7 841.893H864.7ZM864.7 827.01V841.893H867.7V827.01H864.7ZM848.236 841.393C848.682 841.393 848.905 841.933 848.589 842.248L846.474 840.12C844.892 841.693 846.005 844.393 848.236 844.393V841.393ZM864.2 841.393H848.236V844.393H864.2V841.393ZM863.7 841.893C863.7 841.617 863.924 841.393 864.2 841.393V844.393C865.581 844.393 866.7 843.274 866.7 841.893H863.7ZM863.7 826.021V841.893H866.7V826.021H863.7ZM864.553 826.376C864.237 826.689 863.7 826.466 863.7 826.021H866.7C866.7 823.798 864.014 822.681 862.437 824.248L864.553 826.376ZM848.589 842.248L864.553 826.376L862.437 824.248L846.474 840.12L848.589 842.248ZM802.29 844.301C801.898 844.697 801.259 844.697 800.868 844.301L803 842.191C802.218 841.4 800.939 841.4 800.157 842.191L802.29 844.301ZM802.29 842.895C802.675 843.284 802.675 843.912 802.29 844.301L800.157 842.191C799.386 842.971 799.386 844.225 800.157 845.004L802.29 842.895ZM821.703 862.521L802.29 842.895L800.157 845.004L819.57 864.63L821.703 862.521ZM820.977 862.521C821.177 862.318 821.503 862.318 821.703 862.521L819.57 864.63C820.544 865.615 822.135 865.615 823.109 864.63L820.977 862.521ZM820.543 863.575C820.543 864.403 821.214 865.076 822.044 865.076V862.076C822.873 862.076 823.543 862.749 823.543 863.575H820.543ZM822.044 865.076H822.057V862.076H822.044V865.076ZM822.057 865.076C821.66 865.076 821.28 864.917 821.001 864.635L823.133 862.525C822.849 862.238 822.462 862.076 822.057 862.076V865.076ZM821.001 864.635L821.202 864.839L823.335 862.729L823.134 862.525L821.001 864.635ZM821.202 864.839C822.063 865.709 823.469 865.709 824.329 864.839L822.197 862.729C822.51 862.412 823.021 862.412 823.335 862.729L821.202 864.839ZM824.329 864.839L843.8 845.155L841.667 843.045L822.197 862.729L824.329 864.839ZM843.8 845.155C844.653 844.292 844.653 842.903 843.8 842.041L841.667 844.151C841.364 843.844 841.364 843.351 841.667 843.045L843.8 845.155ZM843.8 842.041L843.6 841.839L841.467 843.949L841.667 844.151L843.8 842.041ZM843.6 841.839C843.874 842.115 844.027 842.489 844.027 842.877H841.027C841.027 843.278 841.185 843.663 841.468 843.949L843.6 841.839ZM844.027 842.877C844.027 842.035 843.345 841.353 842.503 841.353V844.353C841.688 844.353 841.027 843.692 841.027 842.877H844.027ZM842.503 841.353H825.865V844.353H842.503V841.353ZM825.865 841.353C826.309 841.353 826.532 841.889 826.22 842.205L824.087 840.095C822.526 841.674 823.644 844.353 825.865 844.353V841.353ZM826.22 842.205L843.949 824.282L841.816 822.172L824.087 840.095L826.22 842.205ZM843.949 824.282C844.72 823.502 844.72 822.248 843.949 821.469L841.816 823.579C841.431 823.189 841.431 822.562 841.816 822.172L843.949 824.282ZM843.949 821.469C843.166 820.677 841.888 820.677 841.105 821.469L843.238 823.579C842.846 823.974 842.207 823.974 841.816 823.579L843.949 821.469ZM841.105 821.469L823.688 839.077L825.82 841.187L843.238 823.579L841.105 821.469ZM823.688 839.077C824.002 838.759 824.543 838.982 824.543 839.428H821.543C821.543 841.662 824.25 842.775 825.82 841.187L823.688 839.077ZM824.543 839.428V822.631H821.543V839.428H824.543ZM824.543 822.631C824.543 821.526 823.648 820.631 822.543 820.631V823.631C821.991 823.631 821.543 823.183 821.543 822.631H824.543ZM822.543 820.631C821.438 820.631 820.543 821.526 820.543 822.631H823.543C823.543 823.183 823.095 823.631 822.543 823.631V820.631ZM820.543 822.631V841.853H823.543V822.631H820.543ZM820.543 841.853C820.543 841.577 820.767 841.353 821.043 841.353V844.353C822.424 844.353 823.543 843.234 823.543 841.853H820.543ZM821.043 841.353H812.297V844.353H821.043V841.353ZM812.297 841.353C811.192 841.353 810.297 842.248 810.297 843.353H813.297C813.297 843.905 812.849 844.353 812.297 844.353V841.353ZM810.297 843.353C810.297 844.457 811.192 845.353 812.297 845.353V842.353C812.849 842.353 813.297 842.801 813.297 843.353H810.297ZM812.297 845.353H821.043V842.353H812.297V845.353ZM821.043 845.353C820.767 845.353 820.543 845.129 820.543 844.853H823.543C823.543 843.472 822.424 842.353 821.043 842.353V845.353ZM820.543 844.853V863.575H823.543V844.853H820.543ZM800.868 844.301L820.977 864.63L823.109 862.521L803 842.191L800.868 844.301ZM823.688 859.8C824.002 859.482 824.543 859.704 824.543 860.151H821.543C821.543 862.385 824.25 863.497 825.82 861.909L823.688 859.8ZM838.82 844.501L823.688 859.8L825.82 861.909L840.953 846.611L838.82 844.501ZM839.176 845.353C838.732 845.353 838.508 844.817 838.82 844.501L840.953 846.611C842.515 845.032 841.396 842.353 839.176 842.353V845.353ZM824.043 845.353H839.176V842.353H824.043V845.353ZM824.543 844.853C824.543 845.129 824.319 845.353 824.043 845.353V842.353C822.662 842.353 821.543 843.472 821.543 844.853H824.543ZM824.543 860.151V844.853H821.543V860.151H824.543Z" fill="#FCDC4D"/>
<circle cx="526" cy="638.429" r="100" fill="#EE6123" stroke="#541312" stroke-width="10"/>
<path d="M368.5 802.429C474.049 802.429 558 698.246 558 571.929C558 445.612 474.049 341.429 368.5 341.429C262.951 341.429 179 445.612 179 571.929C179 698.246 262.951 802.429 368.5 802.429Z" fill="#EE6123" stroke="#541312" stroke-width="10"/>
<ellipse cx="368" cy="499.207" rx="125" ry="152.778" fill="#ECF1FE"/>
<mask id="path-36-outside-6_14_4471" maskUnits="userSpaceOnUse" x="-5.19601" y="333.788" width="743.031" height="680.639" fill="black">
<rect fill="#ECF1FE" x="-5.19601" y="333.788" width="743.031" height="680.639"/>
<path fill-rule="evenodd" clip-rule="evenodd" d="M450.521 603.14L450.521 603.139L450.519 603.139C302.09 645.7 155.735 596.646 108.778 493.084C62.534 561.558 44.838 639.541 66.0151 713.395C111.663 872.589 320.651 952.341 532.9 891.618C533.004 891.588 533.109 891.558 533.214 891.528C639.392 861.082 706.955 771.843 684.119 692.206C661.284 612.571 556.699 572.694 450.521 603.14Z"/>
</mask>
<path fill-rule="evenodd" clip-rule="evenodd" d="M450.521 603.14L450.521 603.139L450.519 603.139C302.09 645.7 155.735 596.646 108.778 493.084C62.534 561.558 44.838 639.541 66.0151 713.395C111.663 872.589 320.651 952.341 532.9 891.618C533.004 891.588 533.109 891.558 533.214 891.528C639.392 861.082 706.955 771.843 684.119 692.206C661.284 612.571 556.699 572.694 450.521 603.14Z" fill="#ECF1FE"/>
<path d="M450.521 603.139L447.764 593.526L457.377 590.77L460.133 600.382L450.521 603.139ZM450.521 603.14L453.277 612.752L443.665 615.509L440.909 605.896L450.521 603.14ZM108.778 493.084L100.491 487.487L110.5 472.666L117.885 488.954L108.778 493.084ZM532.9 891.618L530.149 882.004L530.155 882.002L532.9 891.618ZM460.133 600.382L460.134 600.383L440.909 605.896L440.908 605.895L460.133 600.382ZM447.763 593.526L447.764 593.526L453.277 612.751L453.275 612.752L447.763 593.526ZM117.885 488.954C161.998 586.243 301.975 635.33 447.763 593.526L453.275 612.752C302.205 656.07 149.472 607.049 99.6704 497.213L117.885 488.954ZM56.4025 716.151C34.2452 638.879 52.9581 557.87 100.491 487.487L117.065 498.68C72.1098 565.247 55.4307 640.203 75.6277 710.638L56.4025 716.151ZM535.65 901.232C427.648 932.131 320.108 927.408 233.416 894.318C146.72 861.227 80.2881 799.45 56.4025 716.151L75.6277 710.638C97.3903 786.533 158.276 844.23 240.548 875.633C322.824 907.037 425.903 911.828 530.149 882.004L535.65 901.232ZM530.155 882.002C530.256 881.973 530.357 881.944 530.458 881.915L535.97 901.14C535.862 901.172 535.753 901.203 535.644 901.234L530.155 882.002ZM530.458 881.915C581.668 867.231 623.192 838.463 649.074 804.277C674.953 770.095 684.862 731.077 674.507 694.963L693.732 689.45C706.212 732.972 693.757 778.392 665.019 816.35C636.284 854.304 590.938 885.379 535.97 901.14L530.458 881.915ZM674.507 694.963C664.151 658.849 635.071 631.011 595.011 615.736C554.947 600.461 504.487 598.068 453.277 612.752L447.765 593.527C502.732 577.765 557.654 580.088 602.136 597.049C646.622 614.01 681.252 645.928 693.732 689.45L674.507 694.963Z" fill="#541312" mask="url(#path-36-outside-6_14_4471)"/>
<path fill-rule="evenodd" clip-rule="evenodd" d="M195.671 866.114C254.176 833.545 290.423 750.76 280.722 658.46C278.988 641.966 275.883 626.075 271.586 610.985C326.037 622.734 388.095 621.039 450.519 603.139L450.521 603.139L450.522 603.14C556.699 572.694 661.285 612.571 684.12 692.206C706.955 771.843 639.392 861.082 533.215 891.528L532.9 891.618C408.675 927.158 285.568 914.578 195.671 866.114Z" fill="#EE6123"/>
<path d="M279.554 103.724C303.252 131.966 291.821 180.572 254.023 212.288C216.225 244.005 166.373 246.822 142.675 218.58C118.977 190.338 86.6415 89.5734 124.44 57.857C162.238 26.1405 255.857 75.4827 279.554 103.724Z" fill="#EE6123"/>
<path d="M279.554 103.724C303.252 131.966 291.821 180.572 254.023 212.288C216.225 244.005 166.373 246.822 142.675 218.58C118.977 190.338 86.6415 89.5734 124.44 57.857C162.238 26.1405 255.857 75.4827 279.554 103.724Z" fill="#EE6123"/>
<path d="M279.554 103.724C303.252 131.966 291.821 180.572 254.023 212.288C216.225 244.005 166.373 246.822 142.675 218.58C118.977 190.338 86.6415 89.5734 124.44 57.857C162.238 26.1405 255.857 75.4827 279.554 103.724Z" stroke="#541312" stroke-width="10"/>
<path d="M279.554 103.724C303.252 131.966 291.821 180.572 254.023 212.288C216.225 244.005 166.373 246.822 142.675 218.58C118.977 190.338 86.6415 89.5734 124.44 57.857C162.238 26.1405 255.857 75.4827 279.554 103.724Z" stroke="#541312" stroke-width="10"/>
<path d="M245.872 122.706C259.357 138.777 252.852 166.436 231.343 184.484C209.834 202.532 181.465 204.135 167.98 188.064C154.495 171.993 136.094 114.653 157.603 96.6049C179.113 78.5566 232.386 106.635 245.872 122.706Z" fill="#ECF1FE"/>
<path d="M245.872 122.706C259.357 138.777 252.852 166.436 231.343 184.484C209.834 202.532 181.465 204.135 167.98 188.064C154.495 171.993 136.094 114.653 157.603 96.6049C179.113 78.5566 232.386 106.635 245.872 122.706Z" fill="#ECF1FE"/>
<path d="M593.787 218.58C570.09 246.822 520.238 244.005 482.439 212.288C444.641 180.572 433.21 131.966 456.908 103.724C480.606 75.4826 574.224 26.1405 612.023 57.8569C649.821 89.5733 617.485 190.338 593.787 218.58Z" fill="#EE6123"/>
<path d="M593.787 218.58C570.09 246.822 520.238 244.005 482.439 212.288C444.641 180.572 433.21 131.966 456.908 103.724C480.606 75.4826 574.224 26.1405 612.023 57.8569C649.821 89.5733 617.485 190.338 593.787 218.58Z" fill="#EE6123"/>
<path d="M593.787 218.58C570.09 246.822 520.238 244.005 482.439 212.288C444.641 180.572 433.21 131.966 456.908 103.724C480.606 75.4826 574.224 26.1405 612.023 57.8569C649.821 89.5733 617.485 190.338 593.787 218.58Z" stroke="#541312" stroke-width="10"/>
<path d="M593.787 218.58C570.09 246.822 520.238 244.005 482.439 212.288C444.641 180.572 433.21 131.966 456.908 103.724C480.606 75.4826 574.224 26.1405 612.023 57.8569C649.821 89.5733 617.485 190.338 593.787 218.58Z" stroke="#541312" stroke-width="10"/>
<path d="M569.246 188.705C555.761 204.776 527.392 203.173 505.883 185.125C484.374 167.076 477.869 139.417 491.354 123.346C504.839 107.275 558.113 79.1972 579.622 97.2455C601.132 115.294 582.731 172.634 569.246 188.705Z" fill="#ECF1FE"/>
<path d="M569.246 188.705C555.761 204.776 527.392 203.173 505.883 185.125C484.374 167.076 477.869 139.417 491.354 123.346C504.839 107.275 558.113 79.1972 579.622 97.2455C601.132 115.294 582.731 172.634 569.246 188.705Z" fill="#ECF1FE"/>
<path d="M368 490.929C424.451 490.929 475.405 469.795 512.207 445.101C530.618 432.747 545.619 419.416 556.078 407.222C561.305 401.128 565.469 395.235 568.352 389.812C571.188 384.476 573 379.193 573 374.429C573 364.486 565.342 356.347 554.901 349.929C544.18 343.338 528.997 337.583 510.68 332.821C473.969 323.276 423.526 317.429 368 317.429C312.474 317.429 262.031 323.276 225.32 332.821C207.003 337.583 191.82 343.338 181.099 349.929C170.658 356.347 163 364.486 163 374.429C163 379.193 164.812 384.476 167.648 389.812C170.531 395.235 174.695 401.128 179.922 407.222C190.381 419.416 205.382 432.747 223.793 445.101C260.595 469.795 311.549 490.929 368 490.929Z" fill="#ECF1FE" stroke="#541312" stroke-width="10"/>
<mask id="path-44-outside-7_14_4471" maskUnits="userSpaceOnUse" x="108" y="105.429" width="520" height="320" fill="black">
<rect fill="#ECF1FE" x="108" y="105.429" width="520" height="320"/>
<path fill-rule="evenodd" clip-rule="evenodd" d="M618 365.429C618 366.518 617.993 367.605 617.979 368.69C612.547 364.563 602.856 360.672 589.637 357.129C591.848 371.194 593 385.662 593 400.429C593 401.518 592.994 402.605 592.981 403.69C576.598 389.861 517.168 378.68 439.467 374.357C440.472 372.605 441 370.79 441 368.929C441 354.294 408.317 342.429 368 342.429C327.683 342.429 295 354.294 295 368.929C295 370.79 295.528 372.605 296.533 374.357C218.832 378.68 159.402 389.861 143.019 403.69C143.006 402.605 143 401.518 143 400.429C143 385.662 144.152 371.194 146.363 357.129C133.144 360.672 123.453 364.563 118.021 368.69C118.007 367.605 118 366.518 118 365.429C118 227.358 229.929 115.429 368 115.429C506.071 115.429 618 227.358 618 365.429Z"/>
</mask>
<path fill-rule="evenodd" clip-rule="evenodd" d="M618 365.429C618 366.518 617.993 367.605 617.979 368.69C612.547 364.563 602.856 360.672 589.637 357.129C591.848 371.194 593 385.662 593 400.429C593 401.518 592.994 402.605 592.981 403.69C576.598 389.861 517.168 378.68 439.467 374.357C440.472 372.605 441 370.79 441 368.929C441 354.294 408.317 342.429 368 342.429C327.683 342.429 295 354.294 295 368.929C295 370.79 295.528 372.605 296.533 374.357C218.832 378.68 159.402 389.861 143.019 403.69C143.006 402.605 143 401.518 143 400.429C143 385.662 144.152 371.194 146.363 357.129C133.144 360.672 123.453 364.563 118.021 368.69C118.007 367.605 118 366.518 118 365.429C118 227.358 229.929 115.429 368 115.429C506.071 115.429 618 227.358 618 365.429Z" fill="#EE6123"/>
<path d="M617.979 368.69L611.93 376.653L627.725 388.651L627.978 368.818L617.979 368.69ZM589.637 357.129L592.226 347.47L577.371 343.488L579.759 358.682L589.637 357.129ZM592.981 403.69L586.531 411.332L602.737 425.01L602.981 403.805L592.981 403.69ZM439.467 374.357L430.792 369.383L422.731 383.442L438.912 384.342L439.467 374.357ZM296.533 374.357L297.088 384.342L313.269 383.442L305.208 369.383L296.533 374.357ZM143.019 403.69L133.019 403.805L133.263 425.01L149.469 411.332L143.019 403.69ZM146.363 357.129L156.241 358.682L158.629 343.488L143.774 347.47L146.363 357.129ZM118.021 368.69L108.022 368.818L108.275 388.651L124.07 376.653L118.021 368.69ZM627.978 368.818C627.993 367.69 628 366.56 628 365.429H608C608 366.475 607.993 367.52 607.98 368.562L627.978 368.818ZM587.048 366.788C600.094 370.285 608.151 373.782 611.93 376.653L624.028 360.727C616.943 355.344 605.618 351.06 592.226 347.47L587.048 366.788ZM603 400.429C603 385.141 601.807 370.154 599.516 355.577L579.759 358.682C581.888 372.233 583 386.182 583 400.429H603ZM602.981 403.805C602.994 402.681 603 401.556 603 400.429H583C583 401.479 582.994 402.528 582.982 403.575L602.981 403.805ZM438.912 384.342C477.473 386.487 511.292 390.325 537.349 395.283C550.387 397.763 561.304 400.491 569.819 403.358C578.569 406.304 583.903 409.113 586.531 411.332L599.431 396.048C593.867 391.352 585.63 387.578 576.201 384.403C566.536 381.149 554.667 378.219 541.087 375.635C513.909 370.464 479.163 366.55 440.023 364.373L438.912 384.342ZM431 368.929C431 368.901 431.006 368.9 430.992 368.947C430.977 369.001 430.929 369.145 430.792 369.383L448.142 379.332C449.896 376.274 451 372.76 451 368.929H431ZM368 352.429C387.307 352.429 404.35 355.286 416.207 359.591C422.176 361.758 426.303 364.102 428.75 366.203C431.231 368.332 431 369.288 431 368.929H451C451 361.252 446.683 355.237 441.776 351.026C436.835 346.785 430.272 343.42 423.031 340.791C408.467 335.504 389.009 332.429 368 332.429V352.429ZM305 368.929C305 369.288 304.769 368.332 307.25 366.203C309.697 364.102 313.824 361.758 319.793 359.591C331.65 355.286 348.693 352.429 368 352.429V332.429C346.991 332.429 327.533 335.504 312.969 340.791C305.728 343.42 299.165 346.785 294.224 351.026C289.317 355.237 285 361.252 285 368.929H305ZM305.208 369.383C305.071 369.145 305.023 369.001 305.008 368.947C304.994 368.9 305 368.901 305 368.929H285C285 372.76 286.104 376.274 287.858 379.332L305.208 369.383ZM149.469 411.332C152.097 409.113 157.431 406.304 166.181 403.358C174.696 400.491 185.613 397.763 198.651 395.283C224.708 390.325 258.527 386.487 297.088 384.342L295.977 364.373C256.837 366.55 222.091 370.464 194.913 375.635C181.333 378.219 169.464 381.149 159.799 384.403C150.37 387.578 142.133 391.352 136.569 396.048L149.469 411.332ZM133 400.429C133 401.556 133.006 402.681 133.019 403.805L153.018 403.575C153.006 402.528 153 401.479 153 400.429H133ZM136.484 355.577C134.193 370.154 133 385.141 133 400.429H153C153 386.183 154.112 372.233 156.241 358.682L136.484 355.577ZM124.07 376.653C127.849 373.782 135.906 370.285 148.952 366.788L143.774 347.47C130.382 351.06 119.057 355.344 111.972 360.727L124.07 376.653ZM108 365.429C108 366.56 108.007 367.69 108.022 368.818L128.02 368.562C128.007 367.519 128 366.475 128 365.429H108ZM368 105.429C224.406 105.429 108 221.835 108 365.429H128C128 232.881 235.452 125.429 368 125.429V105.429ZM628 365.429C628 221.835 511.594 105.429 368 105.429V125.429C500.548 125.429 608 232.881 608 365.429H628Z" fill="#541312" mask="url(#path-44-outside-7_14_4471)"/>
<path fill-rule="evenodd" clip-rule="evenodd" d="M562.139 390.621C533.893 383.027 490.643 377.204 439.467 374.357C440.472 372.605 441 370.79 441 368.929C441 354.294 408.317 342.429 368 342.429C327.683 342.429 295 354.294 295 368.929C295 370.79 295.528 372.605 296.533 374.357C245.357 377.204 202.107 383.027 173.861 390.621C195.452 426.21 274.182 485.929 368 485.929C461.817 485.929 540.548 426.21 562.139 390.621Z" fill="#ECF1FE"/>
<path fill-rule="evenodd" clip-rule="evenodd" d="M297.868 361.55C296.001 363.892 295 366.368 295 368.929C295 370.789 295.528 372.605 296.533 374.357C218.832 378.68 159.402 389.861 143.019 403.69C143.006 402.604 143 401.518 143 400.429C143 385.662 144.152 371.193 146.363 357.129C133.144 360.672 123.453 364.563 118.021 368.69C118.007 367.604 118 366.518 118 365.429C118 340.663 121.601 316.737 128.309 294.148C152.679 285.562 186.48 286.543 220.493 298.923C258.072 312.601 286.51 336.772 297.868 361.55Z" fill="#ECF1FE"/>
<path fill-rule="evenodd" clip-rule="evenodd" d="M617.979 368.69C617.993 367.605 618 366.518 618 365.429C618 340.758 614.426 316.921 607.768 294.409C583.348 285.557 549.227 286.437 514.889 298.935C477.557 312.523 449.246 336.467 437.74 361.075C439.859 363.557 441 366.195 441 368.929C441 370.79 440.472 372.605 439.467 374.357C517.168 378.68 576.598 389.861 592.981 403.69C592.994 402.605 593 401.518 593 400.429C593 385.662 591.848 371.194 589.637 357.129C602.856 360.672 612.547 364.563 617.979 368.69Z" fill="#ECF1FE"/>
<path d="M408 370.829C408 376.573 390.091 393.129 368 393.129C345.909 393.129 328 376.573 328 370.829C328 365.085 345.909 360.429 368 360.429C390.091 360.429 408 365.085 408 370.829Z" fill="#541312"/>
<ellipse cx="307.038" cy="300.929" rx="24.0385" ry="37.5" fill="#541312"/>
<ellipse cx="315.013" cy="287.929" rx="8.01282" ry="12.5" fill="#ECF1FE"/>
<ellipse cx="429.038" cy="300.929" rx="24.0385" ry="37.5" fill="#541312"/>
<ellipse cx="437.013" cy="287.929" rx="8.01282" ry="12.5" fill="#ECF1FE"/>
<path d="M276 227.429L291.453 222.391C301.35 219.164 312.008 219.106 321.939 222.226L338.5 227.429" stroke="#541312" stroke-width="10"/>
<path d="M398 227.429L413.453 222.391C423.35 219.164 434.008 219.106 443.939 222.226L460.5 227.429" stroke="#541312" stroke-width="10"/>
<mask id="path-56-inside-8_14_4471" fill="#ECF1FE">
<path fill-rule="evenodd" clip-rule="evenodd" d="M431.823 406.213C424.357 415.076 413.176 420.707 400.681 420.707C387.367 420.707 375.546 414.315 368.12 404.431C360.695 414.315 348.874 420.707 335.56 420.707C323.064 420.707 311.884 415.076 304.418 406.212C303.489 408.163 303 410.185 303 412.259C303 428.272 332.155 474.431 368.12 474.431C404.085 474.431 433.24 428.272 433.24 412.259C433.24 410.185 432.751 408.163 431.823 406.213Z"/>
</mask>
<path fill-rule="evenodd" clip-rule="evenodd" d="M431.823 406.213C424.357 415.076 413.176 420.707 400.681 420.707C387.367 420.707 375.546 414.315 368.12 404.431C360.695 414.315 348.874 420.707 335.56 420.707C323.064 420.707 311.884 415.076 304.418 406.212C303.489 408.163 303 410.185 303 412.259C303 428.272 332.155 474.431 368.12 474.431C404.085 474.431 433.24 428.272 433.24 412.259C433.24 410.185 432.751 408.163 431.823 406.213Z" fill="#FB9197"/>
<path d="M431.823 406.213L440.851 401.913L434.175 387.898L424.174 399.771L431.823 406.213ZM368.12 404.431L376.115 398.424L368.12 387.783L360.125 398.424L368.12 404.431ZM304.418 406.212L312.066 399.77L302.066 387.898L295.39 401.912L304.418 406.212ZM424.174 399.771C418.527 406.475 410.103 410.707 400.681 410.707V430.707C416.249 430.707 430.186 423.678 439.471 412.656L424.174 399.771ZM400.681 410.707C390.644 410.707 381.733 405.902 376.115 398.424L360.125 410.438C369.359 422.727 384.089 430.707 400.681 430.707V410.707ZM360.125 398.424C354.507 405.902 345.597 410.707 335.56 410.707V430.707C352.152 430.707 366.882 422.727 376.115 410.438L360.125 398.424ZM335.56 410.707C326.138 410.707 317.713 406.474 312.066 399.77L296.769 412.655C306.054 423.677 319.991 430.707 335.56 430.707V410.707ZM295.39 401.912C293.879 405.082 293 408.567 293 412.259H313C313 411.804 313.098 411.243 313.446 410.513L295.39 401.912ZM293 412.259C293 418.621 295.668 426.202 299.176 433.207C302.854 440.549 308.094 448.52 314.53 455.915C327.102 470.361 345.899 484.431 368.12 484.431V464.431C354.377 464.431 340.613 455.421 329.617 442.785C324.268 436.639 319.972 430.067 317.059 424.251C313.976 418.097 313 413.902 313 412.259H293ZM368.12 484.431C390.341 484.431 409.138 470.361 421.71 455.915C428.146 448.52 433.386 440.549 437.064 433.207C440.572 426.202 443.24 418.621 443.24 412.259H423.24C423.24 413.902 422.263 418.097 419.181 424.251C416.268 430.067 411.972 436.639 406.623 442.785C395.627 455.421 381.863 464.431 368.12 464.431V484.431ZM443.24 412.259C443.24 408.567 442.361 405.083 440.851 401.913L422.794 410.513C423.142 411.243 423.24 411.804 423.24 412.259H443.24Z" fill="#541312" mask="url(#path-56-inside-8_14_4471)"/>
<mask id="path-58-outside-9_14_4471" maskUnits="userSpaceOnUse" x="146.449" y="31.4292" width="444" height="138" fill="black">
<rect fill="#ECF1FE" x="146.449" y="31.4292" width="444" height="138"/>
<path fill-rule="evenodd" clip-rule="evenodd" d="M568.55 157.057H168.449C209.091 89.0035 283.473 43.4292 368.499 43.4292C453.526 43.4292 527.908 89.0035 568.55 157.057Z"/>
</mask>
<path fill-rule="evenodd" clip-rule="evenodd" d="M568.55 157.057H168.449C209.091 89.0035 283.473 43.4292 368.499 43.4292C453.526 43.4292 527.908 89.0035 568.55 157.057Z" fill="#3BA99C"/>
<path d="M168.449 157.057L158.146 150.904L147.305 169.057H168.449V157.057ZM568.55 157.057V169.057H589.694L578.853 150.904L568.55 157.057ZM168.449 169.057H568.55V145.057H168.449V169.057ZM178.751 163.21C217.318 98.6322 287.869 55.4292 368.499 55.4292V31.4292C279.077 31.4292 200.864 79.3748 158.146 150.904L178.751 163.21ZM368.499 55.4292C449.13 55.4292 519.681 98.6322 558.248 163.21L578.853 150.904C536.135 79.3748 457.922 31.4292 368.499 31.4292V55.4292Z" fill="#541312" mask="url(#path-58-outside-9_14_4471)"/>
<mask id="path-60-outside-10_14_4471" maskUnits="userSpaceOnUse" x="119" y="145.056" width="499" height="144" fill="black">
<rect fill="#ECF1FE" x="119" y="145.056" width="499" height="144"/>
<path fill-rule="evenodd" clip-rule="evenodd" d="M168.796 157.056C165.235 157.056 161.928 158.942 160.212 162.064C141.591 195.952 131 234.875 131 276.272C131 276.273 131 276.273 131 276.273H606C606 276.273 606 276.273 606 276.272C606 234.875 595.409 195.952 576.788 162.064C575.072 158.942 571.765 157.056 568.204 157.056H168.796Z"/>
</mask>
<path fill-rule="evenodd" clip-rule="evenodd" d="M168.796 157.056C165.235 157.056 161.928 158.942 160.212 162.064C141.591 195.952 131 234.875 131 276.272C131 276.273 131 276.273 131 276.273H606C606 276.273 606 276.273 606 276.272C606 234.875 595.409 195.952 576.788 162.064C575.072 158.942 571.765 157.056 568.204 157.056H168.796Z" fill="#3BA99C"/>
<path d="M576.788 162.064L566.271 167.843L576.788 162.064ZM149.696 156.285C130.126 191.899 119 232.804 119 276.272H143C143 236.946 153.057 200.005 170.729 167.843L149.696 156.285ZM131 288.273H606V264.273H131V288.273ZM618 276.272C618 232.804 606.874 191.899 587.304 156.285L566.271 167.843C583.943 200.005 594 236.946 594 276.272H618ZM568.204 145.056H168.796V169.056H568.204V145.056ZM606 288.273C612.906 288.273 618 282.618 618 276.272H594C594 269.927 599.094 264.273 606 264.273V288.273ZM119 276.272C119 282.9 124.373 288.273 131 288.273V264.273C137.628 264.273 143 269.645 143 276.272H119ZM587.304 156.285C583.403 149.184 575.978 145.056 568.204 145.056V169.056C567.552 169.056 566.742 168.701 566.271 167.843L587.304 156.285ZM170.729 167.843C170.258 168.701 169.448 169.056 168.796 169.056V145.056C161.022 145.056 153.597 149.184 149.696 156.285L170.729 167.843Z" fill="#541312" mask="url(#path-60-outside-10_14_4471)"/>
<rect x="453.049" y="143.812" width="89.8272" height="47.9136" fill="#541312" stroke="#541312" stroke-width="6"/>
<path fill-rule="evenodd" clip-rule="evenodd" d="M477.153 147.277C477.152 147.278 477.153 147.279 477.153 147.279H477.155C477.156 147.279 477.157 147.28 477.157 147.281V165.965C477.157 166.518 477.605 166.965 478.157 166.965H495.962C496.515 166.965 496.962 166.518 496.962 165.965V147.779C496.962 147.502 497.186 147.279 497.462 147.279C497.738 147.279 497.962 147.502 497.962 147.779V166.965C497.962 166.965 497.962 166.965 497.963 166.965C497.963 166.965 497.963 166.966 497.963 166.966V167.965L497.963 167.965L497.963 167.965L497.963 167.965L497.963 167.965L497.963 167.965L497.963 167.966C497.963 167.966 497.962 167.966 497.962 167.966C497.962 167.967 497.962 167.967 497.962 167.967V188.151C497.962 188.427 497.738 188.651 497.462 188.651C497.186 188.651 496.962 188.427 496.962 188.151V171.365C496.962 170.475 495.888 170.029 495.257 170.656L477.157 188.651C477.157 188.651 477.157 188.652 477.156 188.652C477.156 188.652 477.156 188.652 477.156 188.652C477.156 188.652 477.155 188.652 477.155 188.652L477.155 188.652C477.154 188.653 477.153 188.653 477.152 188.652C477.151 188.652 477.151 188.652 477.15 188.652H476.855C476.47 188.652 476.157 188.339 476.157 187.953C476.157 187.767 476.083 187.589 475.951 187.458L456.349 167.965C455.958 167.577 455.958 166.944 456.349 166.555L476.092 146.922C476.287 146.728 476.602 146.728 476.797 146.922L477.153 147.276C477.153 147.277 477.153 147.277 477.153 147.277ZM476.157 183.848C476.157 184.737 475.083 185.184 474.452 184.557L457.771 167.969C457.378 167.578 457.378 166.942 457.771 166.551L474.452 149.964C475.083 149.336 476.157 149.783 476.157 150.673V165.965C476.157 166.518 475.709 166.965 475.157 166.965H467.254C466.978 166.965 466.754 167.189 466.754 167.465C466.754 167.742 466.978 167.965 467.254 167.965H475.157C475.709 167.965 476.157 168.413 476.157 168.965V183.848ZM494.826 169.675C495.459 169.045 495.013 167.965 494.121 167.965H478.157C477.605 167.965 477.157 168.413 477.157 168.965V184.837C477.157 185.727 478.231 186.173 478.862 185.546L494.826 169.675ZM540.423 167.612C540.619 167.81 540.938 167.81 541.134 167.612C541.327 167.417 541.327 167.104 541.134 166.909L521.72 147.283C521.333 146.892 520.701 146.892 520.314 147.283C520.314 147.283 520.314 147.282 520.313 147.282H520.3C520.296 147.282 520.292 147.281 520.29 147.278L520.089 147.075C519.815 146.798 519.368 146.798 519.094 147.075L499.624 166.758C499.348 167.037 499.348 167.484 499.624 167.763L499.823 167.964C499.828 167.969 499.83 167.975 499.83 167.981C499.83 167.995 499.841 168.006 499.854 168.006H516.492C517.381 168.006 517.828 169.077 517.203 169.709L499.475 187.632C499.282 187.826 499.282 188.14 499.475 188.335C499.67 188.533 499.99 188.533 500.185 188.335L517.603 170.727C518.231 170.091 519.314 170.536 519.314 171.43V188.228C519.314 188.504 519.538 188.728 519.814 188.728C520.09 188.728 520.314 188.504 520.314 188.228V169.006C520.314 168.453 520.762 168.006 521.314 168.006H530.06C530.336 168.006 530.56 167.782 530.56 167.506C530.56 167.229 530.336 167.006 530.06 167.006H521.314C520.762 167.006 520.314 166.558 520.314 166.006V147.283L540.423 167.612ZM519.314 150.707C519.314 149.814 518.231 149.369 517.603 150.004L502.47 165.302C501.846 165.934 502.293 167.006 503.181 167.006H518.314C518.866 167.006 519.314 166.558 519.314 166.006V150.707Z" fill="#541312"/>
<path d="M477.153 147.277L478.21 148.342L478.211 148.341L477.153 147.277ZM497.963 167.965H496.463V168.301L496.606 168.604L497.963 167.965ZM497.963 167.965L499.461 168.051L499.482 167.671L499.32 167.327L497.963 167.965ZM497.963 167.965L499.356 168.522L499.447 168.295L499.461 168.051L497.963 167.965ZM497.963 167.965L499.024 169.026L499.242 168.808L499.356 168.522L497.963 167.965ZM497.963 167.965L498.564 169.34L498.824 169.226L499.024 169.026L497.963 167.965ZM497.963 167.965L497.362 166.591L497.106 166.703L496.907 166.9L497.963 167.965ZM497.963 167.966L499.017 169.033L499.018 169.031L497.963 167.966ZM497.962 167.966L496.557 167.443L496.555 167.449L497.962 167.966ZM495.257 170.656L496.315 171.719V171.719L495.257 170.656ZM477.157 188.651L476.1 187.587L476.097 187.591L477.157 188.651ZM477.156 188.652L477.778 190.017L477.785 190.013L477.793 190.01L477.156 188.652ZM477.155 188.652L478.212 189.717L478.216 189.713L477.155 188.652ZM477.155 188.652L476.098 187.588L476.098 187.588L477.155 188.652ZM477.152 188.652L478.209 187.588L478.208 187.587L477.152 188.652ZM475.951 187.458L477.009 186.395L477.009 186.395L475.951 187.458ZM456.349 167.965L457.407 166.902H457.407L456.349 167.965ZM456.349 166.555L455.292 165.492L455.292 165.492L456.349 166.555ZM476.092 146.922L475.034 145.859L475.034 145.859L476.092 146.922ZM476.797 146.922L477.855 145.859V145.859L476.797 146.922ZM477.153 147.276L478.211 146.213L478.211 146.213L477.153 147.276ZM474.452 184.557L475.51 183.493L474.452 184.557ZM457.771 167.969L456.714 169.033H456.714L457.771 167.969ZM457.771 166.551L456.714 165.488H456.714L457.771 166.551ZM474.452 149.964L473.394 148.9L473.394 148.9L474.452 149.964ZM494.826 169.675L493.768 168.611L493.768 168.611L494.826 169.675ZM478.862 185.546L477.804 184.483H477.804L478.862 185.546ZM541.134 167.612L542.2 168.667L542.2 168.667L541.134 167.612ZM540.423 167.612L539.357 168.667L539.357 168.667L540.423 167.612ZM541.134 166.909L542.2 165.854L542.2 165.854L541.134 166.909ZM521.72 147.283L520.654 148.338L520.654 148.338L521.72 147.283ZM520.29 147.278L519.223 148.333L519.224 148.333L520.29 147.278ZM520.089 147.075L521.155 146.02V146.02L520.089 147.075ZM519.094 147.075L520.16 148.13V148.13L519.094 147.075ZM499.624 166.758L500.69 167.813L500.69 167.813L499.624 166.758ZM499.624 167.763L500.69 166.708L500.69 166.708L499.624 167.763ZM499.823 167.964L498.757 169.019L498.757 169.019L499.823 167.964ZM517.203 169.709L518.27 170.764V170.764L517.203 169.709ZM499.475 187.632L498.408 186.577L499.475 187.632ZM499.475 188.335L500.541 187.28L500.541 187.28L499.475 188.335ZM500.185 188.335L501.252 189.39L501.252 189.39L500.185 188.335ZM517.603 170.727L516.536 169.672V169.672L517.603 170.727ZM517.603 150.004L518.669 151.059V151.059L517.603 150.004ZM502.47 165.302L501.404 164.247L502.47 165.302ZM477.153 145.779C478.488 145.779 479.162 147.397 478.21 148.342L476.096 146.213C475.143 147.159 475.817 148.779 477.153 148.779V145.779ZM477.155 145.779H477.153V148.779H477.155V145.779ZM478.657 147.281C478.657 146.45 477.984 145.779 477.155 145.779V148.779C476.329 148.779 475.657 148.109 475.657 147.281H478.657ZM478.657 165.965V147.281H475.657V165.965H478.657ZM478.157 165.465C478.433 165.465 478.657 165.689 478.657 165.965H475.657C475.657 167.346 476.776 168.465 478.157 168.465V165.465ZM495.962 165.465H478.157V168.465H495.962V165.465ZM495.462 165.965C495.462 165.689 495.686 165.465 495.962 165.465V168.465C497.343 168.465 498.462 167.346 498.462 165.965H495.462ZM495.462 147.779V165.965H498.462V147.779H495.462ZM497.462 145.779C496.358 145.779 495.462 146.674 495.462 147.779H498.462C498.462 148.331 498.015 148.779 497.462 148.779V145.779ZM499.462 147.779C499.462 146.674 498.567 145.779 497.462 145.779V148.779C496.91 148.779 496.462 148.331 496.462 147.779H499.462ZM499.462 166.965V147.779H496.462V166.965H499.462ZM497.963 165.465C498.791 165.465 499.462 166.137 499.462 166.965H496.462C496.462 167.794 497.134 168.465 497.963 168.465V165.465ZM499.463 166.966C499.463 166.145 498.799 165.465 497.963 165.465V168.465C497.127 168.465 496.463 167.786 496.463 166.966H499.463ZM499.463 167.965V166.966H496.463V167.965H499.463ZM499.32 167.327L499.32 167.327L496.606 168.604L496.606 168.604L499.32 167.327ZM499.461 168.051L499.461 168.051L496.466 167.88L496.466 167.88L499.461 168.051ZM499.356 168.522L499.356 168.522L496.57 167.408L496.57 167.408L499.356 168.522ZM499.024 169.026L499.024 169.026L496.903 166.905L496.902 166.905L499.024 169.026ZM498.564 169.34L498.564 169.34L497.362 166.591L497.362 166.591L498.564 169.34ZM499.018 169.031L499.019 169.031L496.907 166.9L496.907 166.9L499.018 169.031ZM499.368 168.49C499.293 168.692 499.174 168.878 499.017 169.033L496.909 166.899C496.751 167.054 496.632 167.24 496.557 167.443L499.368 168.49ZM499.462 167.967C499.462 168.159 499.425 168.334 499.37 168.484L496.555 167.449C496.499 167.599 496.462 167.774 496.462 167.967H499.462ZM499.462 188.151V167.967H496.462V188.151H499.462ZM497.462 190.151C498.567 190.151 499.462 189.256 499.462 188.151H496.462C496.462 187.599 496.91 187.151 497.462 187.151V190.151ZM495.462 188.151C495.462 189.256 496.358 190.151 497.462 190.151V187.151C498.015 187.151 498.462 187.599 498.462 188.151H495.462ZM495.462 171.365V188.151H498.462V171.365H495.462ZM496.315 171.719C495.999 172.033 495.462 171.81 495.462 171.365H498.462C498.462 169.141 495.777 168.024 494.2 169.592L496.315 171.719ZM478.215 189.715L496.315 171.719L494.2 169.592L476.1 187.587L478.215 189.715ZM477.156 190.152C477.554 190.152 477.936 189.994 478.218 189.712L476.097 187.591C476.378 187.309 476.759 187.152 477.156 187.152V190.152ZM477.793 190.01C477.593 190.103 477.376 190.152 477.156 190.152V187.152C476.936 187.152 476.718 187.2 476.518 187.294L477.793 190.01ZM478.216 189.713C478.09 189.838 477.942 189.942 477.778 190.017L476.534 187.287C476.369 187.362 476.221 187.465 476.095 187.591L478.216 189.713ZM478.212 189.717L478.212 189.717L476.099 187.587L476.098 187.588L478.212 189.717ZM476.095 189.716C476.68 190.299 477.626 190.299 478.212 189.716L476.098 187.588C476.682 187.008 477.625 187.008 478.209 187.588L476.095 189.716ZM477.15 190.152C476.753 190.152 476.374 189.994 476.096 189.718L478.208 187.587C477.928 187.31 477.549 187.152 477.15 187.152V190.152ZM476.855 190.152H477.15V187.152H476.855V190.152ZM474.657 187.953C474.657 189.167 475.641 190.152 476.855 190.152V187.152C477.298 187.152 477.657 187.511 477.657 187.953H474.657ZM474.893 188.522C474.742 188.371 474.657 188.167 474.657 187.953H477.657C477.657 187.368 477.424 186.807 477.009 186.395L474.893 188.522ZM455.292 169.029L474.893 188.522L477.009 186.395L457.407 166.902L455.292 169.029ZM455.292 165.492C454.311 166.467 454.311 168.054 455.292 169.029L457.407 166.902C457.606 167.099 457.606 167.421 457.407 167.619L455.292 165.492ZM475.034 145.859L455.292 165.492L457.407 167.619L477.15 147.986L475.034 145.859ZM477.855 145.859C477.074 145.083 475.814 145.083 475.034 145.859L477.15 147.986C476.759 148.374 476.129 148.374 475.739 147.986L477.855 145.859ZM478.211 146.213L477.855 145.859L475.739 147.986L476.095 148.34L478.211 146.213ZM478.211 148.341C478.801 147.754 478.8 146.8 478.211 146.213L476.095 148.34C475.506 147.754 475.506 146.8 476.095 146.214L478.211 148.341ZM473.394 185.621C474.971 187.189 477.657 186.072 477.657 183.848H474.657C474.657 183.403 475.194 183.18 475.51 183.493L473.394 185.621ZM456.714 169.033L473.394 185.621L475.51 183.493L458.829 166.906L456.714 169.033ZM456.714 165.488C455.731 166.465 455.731 168.056 456.714 169.033L458.829 166.906C459.026 167.101 459.026 167.419 458.829 167.615L456.714 165.488ZM473.394 148.9L456.714 165.488L458.829 167.615L475.51 151.027L473.394 148.9ZM477.657 150.673C477.657 148.449 474.971 147.332 473.394 148.9L475.51 151.027C475.194 151.341 474.657 151.117 474.657 150.673H477.657ZM477.657 165.965V150.673H474.657V165.965H477.657ZM475.157 168.465C476.538 168.465 477.657 167.346 477.657 165.965H474.657C474.657 165.689 474.881 165.465 475.157 165.465V168.465ZM467.254 168.465H475.157V165.465H467.254V168.465ZM468.254 167.465C468.254 168.018 467.806 168.465 467.254 168.465V165.465C466.149 165.465 465.254 166.361 465.254 167.465H468.254ZM467.254 166.465C467.806 166.465 468.254 166.913 468.254 167.465H465.254C465.254 168.57 466.149 169.465 467.254 169.465V166.465ZM475.157 166.465H467.254V169.465H475.157V166.465ZM477.657 168.965C477.657 167.585 476.538 166.465 475.157 166.465V169.465C474.881 169.465 474.657 169.242 474.657 168.965H477.657ZM477.657 183.848V168.965H474.657V183.848H477.657ZM494.121 169.465C493.675 169.465 493.452 168.925 493.768 168.611L495.883 170.738C497.465 169.165 496.351 166.465 494.121 166.465V169.465ZM478.157 169.465H494.121V166.465H478.157V169.465ZM478.657 168.965C478.657 169.242 478.433 169.465 478.157 169.465V166.465C476.776 166.465 475.657 167.585 475.657 168.965H478.657ZM478.657 184.837V168.965H475.657V184.837H478.657ZM477.804 184.483C478.12 184.169 478.657 184.392 478.657 184.837H475.657C475.657 187.061 478.343 188.178 479.92 186.61L477.804 184.483ZM493.768 168.611L477.804 184.483L479.92 186.61L495.883 170.738L493.768 168.611ZM540.067 166.557C540.459 166.162 541.098 166.162 541.489 166.557L539.357 168.667C540.139 169.458 541.417 169.458 542.2 168.667L540.067 166.557ZM540.067 167.964C539.682 167.574 539.682 166.947 540.067 166.557L542.2 168.667C542.971 167.888 542.971 166.633 542.2 165.854L540.067 167.964ZM520.654 148.338L540.067 167.964L542.2 165.854L522.787 146.228L520.654 148.338ZM521.38 148.338C521.18 148.54 520.854 148.54 520.654 148.338L522.787 146.228C521.813 145.243 520.222 145.243 519.247 146.228L521.38 148.338ZM521.814 147.283C521.814 146.455 521.143 145.782 520.313 145.782V148.782C519.484 148.782 518.814 148.11 518.814 147.283H521.814ZM520.313 145.782H520.3V148.782H520.313V145.782ZM520.3 145.782C520.697 145.782 521.077 145.941 521.356 146.223L519.224 148.333C519.508 148.62 519.895 148.782 520.3 148.782V145.782ZM521.356 146.223L521.155 146.02L519.022 148.13L519.223 148.333L521.356 146.223ZM521.155 146.02C520.294 145.15 518.888 145.15 518.028 146.02L520.16 148.13C519.847 148.446 519.335 148.446 519.022 148.13L521.155 146.02ZM518.028 146.02L498.557 165.703L500.69 167.813L520.16 148.13L518.028 146.02ZM498.557 165.703C497.704 166.566 497.704 167.955 498.557 168.818L500.69 166.708C500.993 167.014 500.993 167.507 500.69 167.813L498.557 165.703ZM498.557 168.818L498.757 169.019L500.889 166.91L500.69 166.708L498.557 168.818ZM498.757 169.019C498.483 168.743 498.33 168.37 498.33 167.981H501.33C501.33 167.58 501.172 167.195 500.889 166.909L498.757 169.019ZM498.33 167.981C498.33 168.823 499.012 169.506 499.854 169.506V166.506C500.669 166.506 501.33 167.166 501.33 167.981H498.33ZM499.854 169.506H516.492V166.506H499.854V169.506ZM516.492 169.506C516.048 169.506 515.825 168.97 516.137 168.654L518.27 170.764C519.831 169.185 518.713 166.506 516.492 166.506V169.506ZM516.137 168.654L498.408 186.577L500.541 188.686L518.27 170.764L516.137 168.654ZM498.408 186.577C497.637 187.356 497.637 188.61 498.408 189.39L500.541 187.28C500.926 187.67 500.926 188.297 500.541 188.686L498.408 186.577ZM498.408 189.39C499.191 190.181 500.469 190.181 501.252 189.39L499.119 187.28C499.51 186.884 500.15 186.884 500.541 187.28L498.408 189.39ZM501.252 189.39L518.669 171.782L516.536 169.672L499.119 187.28L501.252 189.39ZM518.669 171.782C518.355 172.099 517.814 171.877 517.814 171.43H520.814C520.814 169.196 518.107 168.084 516.536 169.672L518.669 171.782ZM517.814 171.43V188.228H520.814V171.43H517.814ZM517.814 188.228C517.814 189.332 518.709 190.228 519.814 190.228V187.228C520.366 187.228 520.814 187.675 520.814 188.228H517.814ZM519.814 190.228C520.918 190.228 521.814 189.332 521.814 188.228H518.814C518.814 187.675 519.262 187.228 519.814 187.228V190.228ZM521.814 188.228V169.006H518.814V188.228H521.814ZM521.814 169.006C521.814 169.282 521.59 169.506 521.314 169.506V166.506C519.933 166.506 518.814 167.625 518.814 169.006H521.814ZM521.314 169.506H530.06V166.506H521.314V169.506ZM530.06 169.506C531.165 169.506 532.06 168.61 532.06 167.506H529.06C529.06 166.953 529.508 166.506 530.06 166.506V169.506ZM532.06 167.506C532.06 166.401 531.165 165.506 530.06 165.506V168.506C529.508 168.506 529.06 168.058 529.06 167.506H532.06ZM530.06 165.506H521.314V168.506H530.06V165.506ZM521.314 165.506C521.59 165.506 521.814 165.729 521.814 166.006H518.814C518.814 167.386 519.933 168.506 521.314 168.506V165.506ZM521.814 166.006V147.283H518.814V166.006H521.814ZM541.489 166.557L521.38 146.228L519.247 148.338L539.357 168.667L541.489 166.557ZM518.669 151.059C518.355 151.377 517.814 151.154 517.814 150.707H520.814C520.814 148.473 518.107 147.361 516.536 148.949L518.669 151.059ZM503.537 166.357L518.669 151.059L516.536 148.949L501.404 164.247L503.537 166.357ZM503.181 165.506C503.625 165.506 503.849 166.041 503.537 166.357L501.404 164.247C499.842 165.826 500.961 168.506 503.181 168.506V165.506ZM518.314 165.506H503.181V168.506H518.314V165.506ZM517.814 166.006C517.814 165.729 518.038 165.506 518.314 165.506V168.506C519.695 168.506 520.814 167.386 520.814 166.006H517.814ZM517.814 150.707V166.006H520.814V150.707H517.814Z" fill="#3BA99C"/>
</svg>
