<svg width="1268" height="1044" viewBox="0 0 1268 1044" fill="none" xmlns="http://www.w3.org/2000/svg">
<circle cx="74.4904" cy="619.49" r="68.4904" fill="#ECF1FE" stroke="#212254" stroke-width="12"/>
<path fill-rule="evenodd" clip-rule="evenodd" d="M59.4904 663.981C94.0029 663.981 121.981 636.003 121.981 601.491C121.981 590.504 119.146 580.18 114.167 571.21C128.098 582.671 136.981 600.043 136.981 619.491C136.981 654.003 109.003 681.981 74.4904 681.981C50.9642 681.981 30.4744 668.98 19.8135 649.771C30.6049 658.65 44.4251 663.981 59.4904 663.981Z" fill="#BFCFFA"/>
<mask id="path-3-outside-1_203_179" maskUnits="userSpaceOnUse" x="56" y="270" width="874" height="774" fill="black">
<rect fill="white" x="56" y="270" width="874" height="774"/>
<path fill-rule="evenodd" clip-rule="evenodd" d="M317.962 282C456.012 282 567.923 393.912 567.923 531.962H567.924C567.924 540.9 568.237 549.766 568.852 558.548C573.374 557.508 578.083 556.958 582.921 556.958C617.434 556.958 645.412 584.936 645.412 619.448C645.412 648.656 625.374 673.183 598.296 680.033C650.478 801.302 764.805 889.528 901.179 904.613C812.736 983.76 695.95 1031.89 567.924 1031.89C291.937 1031.89 68.1846 808.246 68.0002 532.303L68 531.962C68 393.912 179.912 282 317.962 282Z"/>
</mask>
<path fill-rule="evenodd" clip-rule="evenodd" d="M317.962 282C456.012 282 567.923 393.912 567.923 531.962H567.924C567.924 540.9 568.237 549.766 568.852 558.548C573.374 557.508 578.083 556.958 582.921 556.958C617.434 556.958 645.412 584.936 645.412 619.448C645.412 648.656 625.374 673.183 598.296 680.033C650.478 801.302 764.805 889.528 901.179 904.613C812.736 983.76 695.95 1031.89 567.924 1031.89C291.937 1031.89 68.1846 808.246 68.0002 532.303L68 531.962C68 393.912 179.912 282 317.962 282Z" fill="#ECF1FE"/>
<path d="M567.923 531.962H555.923V543.962H567.923V531.962ZM567.924 531.962H579.924V519.962H567.924V531.962ZM568.852 558.548L556.881 559.387L557.862 573.39L571.543 570.243L568.852 558.548ZM598.296 680.033L595.353 668.4L581.711 671.851L587.273 684.776L598.296 680.033ZM901.179 904.613L909.181 913.555L929.201 895.64L902.498 892.686L901.179 904.613ZM68.0002 532.303L80.0002 532.295V532.295L68.0002 532.303ZM68 531.962H56L56 531.97L68 531.962ZM579.923 531.962C579.923 387.284 462.639 270 317.962 270V294C449.384 294 555.923 400.539 555.923 531.962H579.923ZM567.924 519.962H567.923V543.962H567.924V519.962ZM580.822 557.71C580.227 549.206 579.924 540.62 579.924 531.962H555.924C555.924 541.18 556.246 550.326 556.881 559.387L580.822 557.71ZM571.543 570.243C575.188 569.404 578.995 568.958 582.921 568.958V544.958C577.171 544.958 571.559 545.612 566.161 546.854L571.543 570.243ZM582.921 568.958C610.806 568.958 633.412 591.563 633.412 619.448H657.412C657.412 578.308 624.061 544.958 582.921 544.958V568.958ZM633.412 619.448C633.412 643.031 617.233 662.864 595.353 668.4L601.239 691.667C633.515 683.501 657.412 654.28 657.412 619.448H633.412ZM902.498 892.686C770.526 878.087 659.838 792.696 609.319 675.29L587.273 684.776C641.117 809.908 759.083 900.968 899.86 916.54L902.498 892.686ZM567.924 1043.89C699.016 1043.89 818.624 994.595 909.181 913.555L893.177 895.671C806.849 972.925 692.885 1019.89 567.924 1019.89V1043.89ZM56.0002 532.311C56.189 814.878 285.313 1043.89 567.924 1043.89V1019.89C298.562 1019.89 80.1802 801.614 80.0002 532.295L56.0002 532.311ZM56 531.97L56.0002 532.311L80.0002 532.295L80 531.954L56 531.97ZM317.962 270C173.284 270 56 387.284 56 531.962H80C80 400.539 186.539 294 317.962 294V270Z" fill="#212254" mask="url(#path-3-outside-1_203_179)"/>
<path fill-rule="evenodd" clip-rule="evenodd" d="M641.669 641.452C620.099 657.45 590.29 667.347 557.361 667.347C552.223 667.347 547.162 667.106 542.196 666.638C553.165 676.169 567.49 681.939 583.162 681.939C609.93 681.939 632.767 665.108 641.669 641.452Z" fill="#BFCFFA"/>
<path fill-rule="evenodd" clip-rule="evenodd" d="M148.188 803.631C237.285 941.006 391.991 1031.89 567.923 1031.89C695.922 1031.89 812.685 983.781 901.121 904.665C811.749 942.26 713.563 963.037 610.525 963.037C436.101 963.037 275.583 903.497 148.188 803.631Z" fill="#BFCFFA"/>
<circle cx="386.943" cy="498.217" r="44.2437" fill="#212254" stroke="#212254" stroke-width="6"/>
<circle cx="368.195" cy="486.968" r="21.7471" fill="#ECF1FE" stroke="#212254" stroke-width="6"/>
<circle cx="186.973" cy="498.217" r="44.2437" fill="#212254" stroke="#212254" stroke-width="6"/>
<circle cx="168.226" cy="486.968" r="21.7471" fill="#ECF1FE" stroke="#212254" stroke-width="6"/>
<path d="M288.839 682.439C302.71 682.439 315.016 674.787 323.747 662.913C332.479 651.038 337.788 634.777 337.788 616.948C337.788 599.12 332.479 582.859 323.747 570.984C315.016 559.11 302.71 551.458 288.839 551.458C274.969 551.458 262.662 559.11 253.932 570.984C245.2 582.859 239.89 599.12 239.89 616.948C239.89 634.777 245.2 651.038 253.932 662.913C262.662 674.787 274.969 682.439 288.839 682.439Z" fill="#212254" stroke="#212254" stroke-width="6"/>
<path fill-rule="evenodd" clip-rule="evenodd" d="M251.834 653.998C262.7 635.565 282.758 623.197 305.705 623.197C315.812 623.197 325.359 625.597 333.807 629.857C329.433 658.176 310.962 679.439 288.839 679.439C273.66 679.439 260.2 669.429 251.834 653.998Z" fill="#FECACC"/>
<path fill-rule="evenodd" clip-rule="evenodd" d="M305.705 623.197C282.758 623.197 262.7 635.565 251.834 653.998C251.852 654.031 251.87 654.065 251.888 654.098C261.096 648.754 271.795 645.694 283.208 645.694C298.074 645.694 311.727 650.884 322.454 659.552C328.049 651.39 332.057 641.189 333.807 629.857C325.359 625.597 315.812 623.197 305.705 623.197Z" fill="#FB9197"/>
<mask id="path-14-outside-2_203_179" maskUnits="userSpaceOnUse" x="81.0236" y="209" width="473" height="146" fill="black">
<rect fill="white" x="81.0236" y="209" width="473" height="146"/>
<path fill-rule="evenodd" clip-rule="evenodd" d="M532.606 343H103.024C146.66 269.932 226.523 221 317.815 221C409.106 221 488.969 269.932 532.606 343Z"/>
</mask>
<path fill-rule="evenodd" clip-rule="evenodd" d="M532.606 343H103.024C146.66 269.932 226.523 221 317.815 221C409.106 221 488.969 269.932 532.606 343Z" fill="#DB5957"/>
<path d="M103.024 343L92.721 336.847L81.8799 355H103.024V343ZM532.606 343V355H553.749L542.908 336.847L532.606 343ZM103.024 355H532.606V331H103.024V355ZM113.326 349.153C154.887 279.561 230.92 233 317.815 233V209C222.127 209 138.434 260.304 92.721 336.847L113.326 349.153ZM317.815 233C404.71 233 480.742 279.561 522.303 349.153L542.908 336.847C497.195 260.304 413.502 209 317.815 209V233Z" fill="#212254" mask="url(#path-14-outside-2_203_179)"/>
<mask id="path-16-outside-3_203_179" maskUnits="userSpaceOnUse" x="50" y="331" width="535" height="152" fill="black">
<rect fill="white" x="50" y="331" width="535" height="152"/>
<path fill-rule="evenodd" clip-rule="evenodd" d="M102.972 343C99.4105 343 96.1043 344.886 94.384 348.005C75.7748 381.738 64.583 420.136 63.0073 461.001C62.7945 466.519 67.292 471 72.8148 471H562.815C568.338 471 572.835 466.519 572.622 461.001C571.047 420.136 559.855 381.738 541.246 348.005C539.525 344.886 536.219 343 532.658 343H102.972Z"/>
</mask>
<path fill-rule="evenodd" clip-rule="evenodd" d="M102.972 343C99.4105 343 96.1043 344.886 94.384 348.005C75.7748 381.738 64.583 420.136 63.0073 461.001C62.7945 466.519 67.292 471 72.8148 471H562.815C568.338 471 572.835 466.519 572.622 461.001C571.047 420.136 559.855 381.738 541.246 348.005C539.525 344.886 536.219 343 532.658 343H102.972Z" fill="#DB5957"/>
<path d="M541.246 348.005L530.738 353.801L541.246 348.005ZM572.622 461.001L584.613 460.538L572.622 461.001ZM94.384 348.005L83.8768 342.209L94.384 348.005ZM83.8768 342.209C64.3861 377.54 52.6657 417.759 51.0162 460.538L74.9983 461.463C76.5002 422.513 87.1635 385.937 104.891 353.801L83.8768 342.209ZM72.8148 483H562.815V459H72.8148V483ZM584.613 460.538C582.964 417.759 571.243 377.54 551.753 342.209L530.738 353.801C548.466 385.937 559.129 422.513 560.631 461.463L584.613 460.538ZM532.658 331H102.972V355H532.658V331ZM551.753 342.209C547.848 335.13 540.436 331 532.658 331V355C532.002 355 531.202 354.643 530.738 353.801L551.753 342.209ZM562.815 483C574.84 483 585.1 473.163 584.613 460.538L560.631 461.463C560.57 459.876 561.835 459 562.815 459V483ZM51.0162 460.538C50.5294 473.163 60.7897 483 72.8148 483V459C73.7942 459 75.0596 459.876 74.9983 461.463L51.0162 460.538ZM104.891 353.801C104.427 354.643 103.628 355 102.972 355V331C95.1932 331 87.7815 335.13 83.8768 342.209L104.891 353.801Z" fill="#212254" mask="url(#path-16-outside-3_203_179)"/>
<rect x="408.815" y="329" width="96" height="51" fill="#A22522" stroke="#212254" stroke-width="6"/>
<path fill-rule="evenodd" clip-rule="evenodd" d="M434.473 332.5C434.473 332.501 434.473 332.502 434.474 332.502H434.475C434.476 332.502 434.476 332.502 434.476 332.503V352.711C434.476 353.264 434.924 353.711 435.476 353.711H454.815C455.367 353.711 455.815 353.264 455.815 352.711V333.002C455.815 332.726 456.039 332.502 456.315 332.502C456.591 332.502 456.815 332.726 456.815 333.002V376.421C456.815 376.697 456.591 376.921 456.315 376.921C456.039 376.921 455.815 376.697 455.815 376.421V358.11C455.815 357.22 454.741 356.774 454.11 357.401L435.183 376.218V376.218V376.218L434.476 376.922C434.475 376.922 434.475 376.922 434.474 376.922C434.473 376.922 434.473 376.922 434.472 376.922C434.472 376.921 434.471 376.921 434.47 376.921H434.175C433.789 376.921 433.476 376.608 433.476 376.222C433.476 376.036 433.402 375.857 433.27 375.726L412.138 354.711C411.747 354.323 411.747 353.69 412.138 353.301L433.412 332.145C433.607 331.951 433.922 331.951 434.117 332.145L434.473 332.499C434.474 332.499 434.474 332.5 434.473 332.5ZM433.476 372.116C433.476 373.006 432.402 373.453 431.771 372.825L413.56 354.715C413.167 354.324 413.167 353.688 413.56 353.297L431.771 335.187C432.402 334.56 433.476 335.007 433.476 335.896V352.711C433.476 353.264 433.029 353.711 432.476 353.711H423.807C423.531 353.711 423.307 353.935 423.307 354.211C423.307 354.488 423.531 354.711 423.807 354.711H432.476C433.029 354.711 433.476 355.159 433.476 355.711V372.116ZM453.677 356.421C454.31 355.792 453.864 354.711 452.972 354.711H435.476C434.924 354.711 434.476 355.159 434.476 355.711V373.106C434.476 373.996 435.551 374.443 436.181 373.816L453.677 356.421ZM480.79 332.506C480.79 332.506 480.79 332.506 480.791 332.506H480.807C480.811 332.506 480.815 332.51 480.815 332.514V352.755C480.815 353.307 481.262 353.755 481.815 353.755H491.312C491.588 353.755 491.812 353.978 491.812 354.255C491.812 354.531 491.588 354.755 491.312 354.755H481.815C481.262 354.755 480.815 355.202 480.815 355.755V376.504C480.815 376.78 480.591 377.004 480.315 377.004C480.038 377.004 479.815 376.78 479.815 376.504V358.174C479.815 357.281 478.732 356.836 478.104 357.471L459.175 376.607C458.979 376.805 458.659 376.805 458.464 376.607C458.271 376.412 458.271 376.099 458.464 375.904L477.699 356.458C478.324 355.826 477.877 354.755 476.988 354.755H458.845C458.831 354.755 458.819 354.743 458.819 354.729C458.819 354.722 458.816 354.715 458.812 354.71L458.613 354.509C458.337 354.231 458.337 353.783 458.613 353.505L479.732 332.154C479.928 331.957 480.247 331.957 480.443 332.154L480.79 332.506V332.506ZM478.104 335.222C478.732 334.587 479.815 335.032 479.815 335.926V352.755C479.815 353.307 479.367 353.755 478.815 353.755H462.168C461.28 353.755 460.832 352.683 461.457 352.051L478.104 335.222ZM502.431 354.359C502.626 354.556 502.946 354.556 503.141 354.359C503.334 354.164 503.334 353.85 503.141 353.655L481.873 332.154C481.678 331.957 481.358 331.957 481.162 332.154C480.97 332.349 480.97 332.663 481.162 332.858L502.431 354.359Z" fill="#212254"/>
<path d="M434.473 332.5L435.53 333.565L435.532 333.563L434.473 332.5ZM454.11 357.401L455.167 358.464V358.464L454.11 357.401ZM435.183 376.218L434.125 375.155L433.683 375.594V376.218H435.183ZM435.183 376.218L436.241 377.282L436.683 376.842V376.218H435.183ZM434.476 376.922L433.418 375.858L433.417 375.859L434.476 376.922ZM434.474 376.922L434.565 375.425L434.561 375.425L434.474 376.922ZM434.472 376.922L433.414 377.985L433.416 377.987L434.472 376.922ZM433.27 375.726L434.328 374.663L433.27 375.726ZM412.138 354.711L413.196 353.648H413.196L412.138 354.711ZM412.138 353.301L411.08 352.238L411.08 352.238L412.138 353.301ZM433.412 332.145L434.47 333.209V333.209L433.412 332.145ZM434.117 332.145L433.06 333.209L433.06 333.209L434.117 332.145ZM434.473 332.499L435.532 331.436L435.531 331.435L434.473 332.499ZM431.771 372.825L430.713 373.889H430.713L431.771 372.825ZM413.56 354.715L412.502 355.779L412.502 355.779L413.56 354.715ZM413.56 353.297L412.502 352.234H412.502L413.56 353.297ZM431.771 335.187L430.713 334.124L430.713 334.124L431.771 335.187ZM453.677 356.421L452.62 355.357L452.62 355.357L453.677 356.421ZM436.181 373.816L435.124 372.752H435.124L436.181 373.816ZM480.79 332.506L481.85 333.567L482.29 333.128V332.506H480.79ZM478.104 357.471L479.17 358.526H479.17L478.104 357.471ZM459.175 376.607L460.241 377.662L460.241 377.662L459.175 376.607ZM458.464 376.607L459.53 375.552L459.53 375.552L458.464 376.607ZM458.464 375.904L457.397 374.849L458.464 375.904ZM477.699 356.458L476.633 355.403V355.403L477.699 356.458ZM458.812 354.71L457.745 355.765L457.745 355.765L458.812 354.71ZM458.613 354.509L457.546 355.564L458.613 354.509ZM458.613 353.505L459.679 354.56L459.679 354.56L458.613 353.505ZM479.732 332.154L478.665 331.099L478.665 331.099L479.732 332.154ZM480.443 332.154L481.509 331.099L481.509 331.099L480.443 332.154ZM480.79 332.506H482.29V331.889L481.857 331.451L480.79 332.506ZM478.104 335.222L479.17 336.277L479.17 336.277L478.104 335.222ZM461.457 352.051L460.39 350.996L461.457 352.051ZM503.141 354.359L502.075 353.304L502.075 353.304L503.141 354.359ZM502.431 354.359L503.497 353.304L503.497 353.304L502.431 354.359ZM503.141 353.655L502.075 354.71L502.075 354.71L503.141 353.655ZM481.873 332.154L482.94 331.1L482.94 331.099L481.873 332.154ZM481.162 332.154L480.096 331.099L480.096 331.1L481.162 332.154ZM481.162 332.858L480.096 333.912L480.096 333.912L481.162 332.858ZM434.474 331.002C435.811 331.002 436.481 332.621 435.53 333.565L433.417 331.436C432.465 332.38 433.136 334.002 434.474 334.002V331.002ZM434.475 331.002H434.474V334.002H434.475V331.002ZM435.976 332.503C435.976 331.675 435.305 331.002 434.475 331.002V334.002C433.647 334.002 432.976 333.33 432.976 332.503H435.976ZM435.976 352.711V332.503H432.976V352.711H435.976ZM435.476 352.211C435.752 352.211 435.976 352.435 435.976 352.711H432.976C432.976 354.092 434.096 355.211 435.476 355.211V352.211ZM454.815 352.211H435.476V355.211H454.815V352.211ZM454.315 352.711C454.315 352.435 454.539 352.211 454.815 352.211V355.211C456.195 355.211 457.315 354.092 457.315 352.711H454.315ZM454.315 333.002V352.711H457.315V333.002H454.315ZM456.315 331.002C455.21 331.002 454.315 331.897 454.315 333.002H457.315C457.315 333.554 456.867 334.002 456.315 334.002V331.002ZM458.315 333.002C458.315 331.897 457.419 331.002 456.315 331.002V334.002C455.763 334.002 455.315 333.554 455.315 333.002H458.315ZM458.315 376.421V333.002H455.315V376.421H458.315ZM456.315 378.421C457.419 378.421 458.315 377.526 458.315 376.421H455.315C455.315 375.869 455.763 375.421 456.315 375.421V378.421ZM454.315 376.421C454.315 377.526 455.21 378.421 456.315 378.421V375.421C456.867 375.421 457.315 375.869 457.315 376.421H454.315ZM454.315 358.11V376.421H457.315V358.11H454.315ZM455.167 358.464C454.852 358.778 454.315 358.555 454.315 358.11H457.315C457.315 355.886 454.629 354.769 453.052 356.337L455.167 358.464ZM436.241 377.282L455.167 358.464L453.052 356.337L434.125 375.155L436.241 377.282ZM436.683 376.218V376.218H433.683V376.218H436.683ZM436.683 376.218V376.218H433.683V376.218H436.683ZM435.533 377.985L436.241 377.282L434.125 375.155L433.418 375.858L435.533 377.985ZM434.383 378.42C434.796 378.445 435.22 378.298 435.534 377.984L433.417 375.859C433.73 375.547 434.153 375.4 434.565 375.425L434.383 378.42ZM433.416 377.987C433.684 378.252 434.032 378.399 434.387 378.42L434.561 375.425C434.914 375.445 435.262 375.592 435.528 375.857L433.416 377.987ZM434.47 378.421C434.076 378.421 433.695 378.265 433.414 377.985L435.531 375.859C435.248 375.578 434.867 375.421 434.47 375.421V378.421ZM434.175 378.421H434.47V375.421H434.175V378.421ZM431.976 376.222C431.976 377.436 432.961 378.421 434.175 378.421V375.421C434.618 375.421 434.976 375.78 434.976 376.222H431.976ZM432.212 376.79C432.061 376.64 431.976 376.435 431.976 376.222H434.976C434.976 375.637 434.743 375.075 434.328 374.663L432.212 376.79ZM411.08 355.775L432.212 376.79L434.328 374.663L413.196 353.648L411.08 355.775ZM411.08 352.238C410.1 353.213 410.1 354.8 411.08 355.775L413.196 353.648C413.394 353.846 413.394 354.167 413.196 354.365L411.08 352.238ZM432.355 331.081L411.08 352.238L413.196 354.365L434.47 333.209L432.355 331.081ZM435.175 331.081C434.395 330.306 433.135 330.306 432.355 331.081L434.47 333.209C434.08 333.596 433.45 333.596 433.06 333.209L435.175 331.081ZM435.531 331.435L435.175 331.081L433.06 333.209L433.416 333.562L435.531 331.435ZM435.532 333.563C436.121 332.976 436.121 332.023 435.532 331.436L433.414 333.561C432.827 332.976 432.827 332.024 433.414 331.438L435.532 333.563ZM430.713 373.889C432.29 375.457 434.976 374.34 434.976 372.116H431.976C431.976 371.671 432.513 371.448 432.829 371.762L430.713 373.889ZM412.502 355.779L430.713 373.889L432.829 371.762L414.618 353.652L412.502 355.779ZM412.502 352.234C411.519 353.211 411.519 354.802 412.502 355.779L414.618 353.652C414.814 353.847 414.814 354.165 414.618 354.361L412.502 352.234ZM430.713 334.124L412.502 352.234L414.618 354.361L432.829 336.251L430.713 334.124ZM434.976 335.896C434.976 333.673 432.29 332.556 430.713 334.124L432.829 336.251C432.513 336.565 431.976 336.341 431.976 335.896H434.976ZM434.976 352.711V335.896H431.976V352.711H434.976ZM432.476 355.211C433.857 355.211 434.976 354.092 434.976 352.711H431.976C431.976 352.435 432.2 352.211 432.476 352.211V355.211ZM423.807 355.211H432.476V352.211H423.807V355.211ZM424.807 354.211C424.807 354.764 424.359 355.211 423.807 355.211V352.211C422.702 352.211 421.807 353.107 421.807 354.211H424.807ZM423.807 353.211C424.359 353.211 424.807 353.659 424.807 354.211H421.807C421.807 355.316 422.702 356.211 423.807 356.211V353.211ZM432.476 353.211H423.807V356.211H432.476V353.211ZM434.976 355.711C434.976 354.331 433.857 353.211 432.476 353.211V356.211C432.2 356.211 431.976 355.988 431.976 355.711H434.976ZM434.976 372.116V355.711H431.976V372.116H434.976ZM452.972 356.211C452.526 356.211 452.303 355.671 452.62 355.357L454.735 357.484C456.317 355.912 455.203 353.211 452.972 353.211V356.211ZM435.476 356.211H452.972V353.211H435.476V356.211ZM435.976 355.711C435.976 355.988 435.752 356.211 435.476 356.211V353.211C434.096 353.211 432.976 354.331 432.976 355.711H435.976ZM435.976 373.106V355.711H432.976V373.106H435.976ZM435.124 372.752C435.439 372.438 435.976 372.662 435.976 373.106H432.976C432.976 375.33 435.662 376.447 437.239 374.879L435.124 372.752ZM452.62 355.357L435.124 372.752L437.239 374.879L454.735 357.484L452.62 355.357ZM480.791 331.006C482.154 331.006 482.777 332.642 481.85 333.567L479.73 331.445C478.804 332.371 479.427 334.006 480.791 334.006V331.006ZM480.807 331.006H480.791V334.006H480.807V331.006ZM482.315 332.514C482.315 331.682 481.64 331.006 480.807 331.006V334.006C479.982 334.006 479.315 333.338 479.315 332.514H482.315ZM482.315 352.755V332.514H479.315V352.755H482.315ZM481.815 352.255C482.091 352.255 482.315 352.478 482.315 352.755H479.315C479.315 354.135 480.434 355.255 481.815 355.255V352.255ZM491.312 352.255H481.815V355.255H491.312V352.255ZM493.312 354.255C493.312 353.15 492.417 352.255 491.312 352.255V355.255C490.76 355.255 490.312 354.807 490.312 354.255H493.312ZM491.312 356.255C492.417 356.255 493.312 355.359 493.312 354.255H490.312C490.312 353.702 490.76 353.255 491.312 353.255V356.255ZM481.815 356.255H491.312V353.255H481.815V356.255ZM482.315 355.755C482.315 356.031 482.091 356.255 481.815 356.255V353.255C480.434 353.255 479.315 354.374 479.315 355.755H482.315ZM482.315 376.504V355.755H479.315V376.504H482.315ZM480.315 378.504C481.419 378.504 482.315 377.608 482.315 376.504H479.315C479.315 375.951 479.762 375.504 480.315 375.504V378.504ZM478.315 376.504C478.315 377.608 479.21 378.504 480.315 378.504V375.504C480.867 375.504 481.315 375.951 481.315 376.504H478.315ZM478.315 358.174V376.504H481.315V358.174H478.315ZM479.17 358.526C478.856 358.843 478.315 358.621 478.315 358.174H481.315C481.315 355.94 478.608 354.828 477.037 356.416L479.17 358.526ZM460.241 377.662L479.17 358.526L477.037 356.416L458.108 375.552L460.241 377.662ZM457.397 377.662C458.18 378.453 459.458 378.453 460.241 377.662L458.108 375.552C458.5 375.157 459.139 375.157 459.53 375.552L457.397 377.662ZM457.397 374.849C456.626 375.628 456.626 376.883 457.397 377.662L459.53 375.552C459.916 375.942 459.916 376.569 459.53 376.959L457.397 374.849ZM476.633 355.403L457.397 374.849L459.53 376.959L478.766 357.513L476.633 355.403ZM476.988 356.255C476.544 356.255 476.32 355.719 476.633 355.403L478.766 357.513C480.327 355.934 479.209 353.255 476.988 353.255V356.255ZM458.845 356.255H476.988V353.255H458.845V356.255ZM457.319 354.729C457.319 355.571 458.002 356.255 458.845 356.255V353.255C459.659 353.255 460.319 353.914 460.319 354.729H457.319ZM457.745 355.765C457.472 355.489 457.319 355.116 457.319 354.729H460.319C460.319 354.327 460.161 353.941 459.878 353.655L457.745 355.765ZM457.546 355.564L457.745 355.765L459.878 353.655L459.679 353.454L457.546 355.564ZM457.546 352.45C456.693 353.313 456.693 354.701 457.546 355.564L459.679 353.454C459.982 353.761 459.982 354.253 459.679 354.56L457.546 352.45ZM478.665 331.099L457.546 352.45L459.679 354.56L480.798 333.209L478.665 331.099ZM481.509 331.099C480.726 330.308 479.448 330.308 478.665 331.099L480.798 333.209C480.407 333.605 479.768 333.605 479.376 333.209L481.509 331.099ZM481.857 331.451L481.509 331.099L479.376 333.209L479.724 333.561L481.857 331.451ZM482.29 332.506V332.506H479.29V332.506H482.29ZM481.315 335.926C481.315 333.692 478.608 332.579 477.037 334.167L479.17 336.277C478.856 336.595 478.315 336.372 478.315 335.926H481.315ZM481.315 352.755V335.926H478.315V352.755H481.315ZM478.815 355.255C480.195 355.255 481.315 354.135 481.315 352.755H478.315C478.315 352.478 478.538 352.255 478.815 352.255V355.255ZM462.168 355.255H478.815V352.255H462.168V355.255ZM460.39 350.996C458.829 352.575 459.947 355.255 462.168 355.255V352.255C462.612 352.255 462.836 352.79 462.523 353.106L460.39 350.996ZM477.037 334.167L460.39 350.996L462.523 353.106L479.17 336.277L477.037 334.167ZM502.075 353.304C502.466 352.908 503.106 352.908 503.497 353.304L501.364 355.413C502.147 356.205 503.425 356.205 504.208 355.413L502.075 353.304ZM502.075 354.71C501.69 354.321 501.69 353.693 502.075 353.304L504.208 355.414C504.979 354.634 504.979 353.38 504.208 352.601L502.075 354.71ZM480.807 333.209L502.075 354.71L504.208 352.601L482.94 331.1L480.807 333.209ZM482.229 333.209C481.837 333.605 481.198 333.605 480.807 333.209L482.94 331.099C482.157 330.308 480.879 330.308 480.096 331.099L482.229 333.209ZM482.229 331.803C482.614 332.192 482.614 332.82 482.229 333.209L480.096 331.1C479.325 331.879 479.325 333.133 480.096 333.912L482.229 331.803ZM503.497 353.304L482.229 331.803L480.096 333.912L501.364 355.413L503.497 353.304Z" fill="#212254"/>
<circle cx="1192.69" cy="424.395" r="68.4904" transform="rotate(-180 1192.69 424.395)" fill="#ECF1FE" stroke="#212254" stroke-width="12"/>
<path fill-rule="evenodd" clip-rule="evenodd" d="M1207.69 379.905C1173.18 379.905 1145.2 407.883 1145.2 442.395C1145.2 453.381 1148.03 463.706 1153.01 472.676C1139.08 461.215 1130.2 443.842 1130.2 424.395C1130.2 389.883 1158.18 361.905 1192.69 361.905C1216.22 361.905 1236.7 374.905 1247.37 394.115C1236.57 385.236 1222.75 379.905 1207.69 379.905Z" fill="#BFCFFA"/>
<mask id="path-23-outside-4_203_179" maskUnits="userSpaceOnUse" x="337.179" y="-0.114746" width="874" height="774" fill="black">
<rect fill="white" x="337.179" y="-0.114746" width="874" height="774"/>
<path fill-rule="evenodd" clip-rule="evenodd" d="M949.217 761.885C811.167 761.885 699.256 649.974 699.256 511.924H699.255C699.255 502.985 698.943 494.119 698.327 485.337C693.805 486.378 689.096 486.927 684.258 486.927C649.745 486.927 621.768 458.949 621.768 424.437C621.768 395.23 641.805 370.703 668.883 363.852C616.702 242.584 502.374 154.358 366 139.272C454.443 60.1253 571.229 12.0001 699.256 12.0001C975.242 12.0001 1198.99 235.639 1199.18 511.582L1199.18 511.924C1199.18 649.974 1087.27 761.885 949.217 761.885Z"/>
</mask>
<path fill-rule="evenodd" clip-rule="evenodd" d="M949.217 761.885C811.167 761.885 699.256 649.974 699.256 511.924H699.255C699.255 502.985 698.943 494.119 698.327 485.337C693.805 486.378 689.096 486.927 684.258 486.927C649.745 486.927 621.768 458.949 621.768 424.437C621.768 395.23 641.805 370.703 668.883 363.852C616.702 242.584 502.374 154.358 366 139.272C454.443 60.1253 571.229 12.0001 699.256 12.0001C975.242 12.0001 1198.99 235.639 1199.18 511.582L1199.18 511.924C1199.18 649.974 1087.27 761.885 949.217 761.885Z" fill="#ECF1FE"/>
<path d="M699.256 511.924H711.256V499.924H699.256V511.924ZM699.255 511.924H687.255V523.924H699.255V511.924ZM698.327 485.337L710.298 484.499L709.317 470.495L695.637 473.643L698.327 485.337ZM668.883 363.852L671.826 375.485L685.468 372.034L679.906 359.109L668.883 363.852ZM366 139.272L357.998 130.33L337.978 148.246L364.681 151.2L366 139.272ZM1199.18 511.582L1187.18 511.59V511.59L1199.18 511.582ZM1199.18 511.924H1211.18L1211.18 511.916L1199.18 511.924ZM687.256 511.924C687.256 656.601 804.54 773.885 949.217 773.885V749.885C817.795 749.885 711.256 643.346 711.256 511.924H687.256ZM699.255 523.924H699.256V499.924H699.255V523.924ZM686.357 486.176C686.953 494.679 687.255 503.265 687.255 511.924H711.255C711.255 502.705 710.933 493.56 710.298 484.499L686.357 486.176ZM695.637 473.643C691.991 474.482 688.184 474.927 684.258 474.927V498.927C690.008 498.927 695.62 498.274 701.018 497.032L695.637 473.643ZM684.258 474.927C656.373 474.927 633.768 452.322 633.768 424.437H609.768C609.768 465.577 643.118 498.927 684.258 498.927V474.927ZM633.768 424.437C633.768 400.855 649.946 381.021 671.826 375.485L665.94 352.219C633.664 360.384 609.768 389.605 609.768 424.437H633.768ZM364.681 151.2C496.653 165.798 607.341 251.189 657.86 368.595L679.906 359.109C626.062 233.978 508.096 142.917 367.319 127.345L364.681 151.2ZM699.256 6.10352e-05C568.164 6.10352e-05 448.555 49.2904 357.998 130.33L374.002 148.214C460.33 70.9602 574.294 24.0001 699.256 24.0001V6.10352e-05ZM1211.18 511.574C1210.99 229.007 981.867 6.10352e-05 699.256 6.10352e-05V24.0001C968.617 24.0001 1187 242.271 1187.18 511.59L1211.18 511.574ZM1211.18 511.916L1211.18 511.574L1187.18 511.59L1187.18 511.932L1211.18 511.916ZM949.217 773.885C1093.89 773.885 1211.18 656.601 1211.18 511.924H1187.18C1187.18 643.346 1080.64 749.885 949.217 749.885V773.885Z" fill="#212254" mask="url(#path-23-outside-4_203_179)"/>
<path fill-rule="evenodd" clip-rule="evenodd" d="M625.51 402.433C647.08 386.435 676.89 376.538 709.818 376.538C714.956 376.538 720.017 376.779 724.983 377.246C714.014 367.716 699.689 361.946 684.017 361.946C657.249 361.946 634.412 378.777 625.51 402.433Z" fill="#BFCFFA"/>
<path fill-rule="evenodd" clip-rule="evenodd" d="M1118.99 240.254C1029.89 102.879 875.188 12.0001 699.256 12.0001C571.257 12.0001 454.494 60.1041 366.059 139.22C455.43 101.626 553.616 80.8478 656.654 80.8478C831.079 80.8478 991.596 140.388 1118.99 240.254Z" fill="#BFCFFA"/>
<circle cx="880.237" cy="545.668" r="44.2437" transform="rotate(-180 880.237 545.668)" fill="#212254" stroke="#212254" stroke-width="6"/>
<circle cx="898.984" cy="556.917" r="21.7471" transform="rotate(-180 898.984 556.917)" fill="#ECF1FE" stroke="#212254" stroke-width="6"/>
<circle cx="1080.21" cy="545.668" r="44.2437" transform="rotate(-180 1080.21 545.668)" fill="#212254" stroke="#212254" stroke-width="6"/>
<circle cx="1098.95" cy="556.917" r="21.7471" transform="rotate(-180 1098.95 556.917)" fill="#ECF1FE" stroke="#212254" stroke-width="6"/>
<path d="M978.34 361.446C964.47 361.446 952.163 369.098 943.432 380.972C934.701 392.847 929.391 409.107 929.391 426.936C929.391 444.765 934.701 461.026 943.432 472.901C952.163 484.774 964.47 492.427 978.34 492.427C992.21 492.427 1004.52 484.774 1013.25 472.901C1021.98 461.026 1027.29 444.765 1027.29 426.936C1027.29 409.107 1021.98 392.847 1013.25 380.972C1004.52 369.098 992.21 361.446 978.34 361.446Z" fill="#212254" stroke="#212254" stroke-width="6"/>
<path fill-rule="evenodd" clip-rule="evenodd" d="M1015.35 389.887C1004.48 408.32 984.421 420.688 961.475 420.688C951.367 420.688 941.82 418.288 933.373 414.027C937.746 385.709 956.217 364.446 978.34 364.446C993.519 364.446 1006.98 374.456 1015.35 389.887Z" fill="#FECACC"/>
<path fill-rule="evenodd" clip-rule="evenodd" d="M961.475 420.688C984.421 420.688 1004.48 408.32 1015.35 389.887C1015.33 389.853 1015.31 389.82 1015.29 389.787C1006.08 395.131 995.384 398.191 983.971 398.191C969.105 398.191 955.452 393 944.725 384.333C939.13 392.494 935.123 402.696 933.373 414.027C941.82 418.288 951.367 420.688 961.475 420.688Z" fill="#FB9197"/>
<mask id="path-34-outside-5_203_179" maskUnits="userSpaceOnUse" x="713.156" y="688.885" width="473" height="146" fill="black">
<rect fill="white" x="713.156" y="688.885" width="473" height="146"/>
<path fill-rule="evenodd" clip-rule="evenodd" d="M734.573 700.885H1164.16C1120.52 773.953 1040.66 822.885 949.364 822.885C858.073 822.885 778.21 773.953 734.573 700.885Z"/>
</mask>
<path fill-rule="evenodd" clip-rule="evenodd" d="M734.573 700.885H1164.16C1120.52 773.953 1040.66 822.885 949.364 822.885C858.073 822.885 778.21 773.953 734.573 700.885Z" fill="#FCDC4D"/>
<path d="M1164.16 700.885L1174.46 707.038L1185.3 688.885H1164.16V700.885ZM734.573 700.885V688.885H713.43L724.271 707.038L734.573 700.885ZM1164.16 688.885H734.573V712.885H1164.16V688.885ZM1153.85 694.732C1112.29 764.324 1036.26 810.885 949.364 810.885V834.885C1045.05 834.885 1128.75 783.582 1174.46 707.038L1153.85 694.732ZM949.364 810.885C862.469 810.885 786.437 764.324 744.876 694.732L724.271 707.038C769.984 783.582 853.677 834.885 949.364 834.885V810.885Z" fill="#212254" mask="url(#path-34-outside-5_203_179)"/>
<mask id="path-36-outside-6_203_179" maskUnits="userSpaceOnUse" x="682.179" y="560.885" width="535" height="152" fill="black">
<rect fill="white" x="682.179" y="560.885" width="535" height="152"/>
<path fill-rule="evenodd" clip-rule="evenodd" d="M1164.21 700.885C1167.77 700.885 1171.07 698.999 1172.8 695.88C1191.4 662.147 1202.6 623.749 1204.17 582.885C1204.38 577.366 1199.89 572.885 1194.36 572.885H704.364C698.842 572.885 694.344 577.366 694.557 582.885C696.133 623.749 707.324 662.147 725.934 695.88C727.654 698.999 730.96 700.885 734.522 700.885L1164.21 700.885Z"/>
</mask>
<path fill-rule="evenodd" clip-rule="evenodd" d="M1164.21 700.885C1167.77 700.885 1171.07 698.999 1172.8 695.88C1191.4 662.147 1202.6 623.749 1204.17 582.885C1204.38 577.366 1199.89 572.885 1194.36 572.885H704.364C698.842 572.885 694.344 577.366 694.557 582.885C696.133 623.749 707.324 662.147 725.934 695.88C727.654 698.999 730.96 700.885 734.522 700.885L1164.21 700.885Z" fill="#FCDC4D"/>
<path d="M725.934 695.88L736.441 690.084L725.934 695.88ZM694.557 582.885L682.566 583.347L694.557 582.885ZM1172.8 695.88L1183.3 701.677L1172.8 695.88ZM1183.3 701.677C1202.79 666.346 1214.51 626.126 1216.16 583.347L1192.18 582.422C1190.68 621.372 1180.02 657.949 1162.29 690.084L1183.3 701.677ZM1194.36 560.885H704.364V584.885H1194.36V560.885ZM682.566 583.347C684.215 626.126 695.936 666.346 715.426 701.677L736.441 690.084C718.713 657.949 708.05 621.372 706.548 582.422L682.566 583.347ZM734.522 712.885H1164.21V688.885H734.522V712.885ZM715.426 701.677C719.331 708.755 726.743 712.885 734.522 712.885V688.885C735.177 688.885 735.977 689.243 736.441 690.084L715.426 701.677ZM704.364 560.885C692.339 560.885 682.079 570.722 682.566 583.347L706.548 582.422C706.609 584.01 705.344 584.885 704.364 584.885V560.885ZM1216.16 583.347C1216.65 570.722 1206.39 560.885 1194.36 560.885V584.885C1193.39 584.885 1192.12 584.01 1192.18 582.422L1216.16 583.347ZM1162.29 690.084C1162.75 689.243 1163.55 688.885 1164.21 688.885V712.885C1171.99 712.885 1179.4 708.755 1183.3 701.677L1162.29 690.084Z" fill="#212254" mask="url(#path-36-outside-6_203_179)"/>
<rect x="858.365" y="714.885" width="96" height="51" transform="rotate(-180 858.365 714.885)" fill="#F1C604" stroke="#212254" stroke-width="6"/>
<path fill-rule="evenodd" clip-rule="evenodd" d="M832.706 711.385C832.706 711.385 832.706 711.384 832.705 711.384H832.704C832.704 711.384 832.703 711.383 832.703 711.382V691.174C832.703 690.621 832.255 690.174 831.703 690.174H812.364C811.812 690.174 811.364 690.621 811.364 691.174V710.884C811.364 711.16 811.141 711.384 810.864 711.384C810.588 711.384 810.364 711.16 810.364 710.884V667.464C810.364 667.188 810.588 666.964 810.864 666.964C811.141 666.964 811.364 667.188 811.364 667.464V685.775C811.364 686.665 812.439 687.112 813.069 686.485L831.996 667.667V667.667V667.667L832.703 666.964C832.704 666.963 832.705 666.963 832.705 666.963C832.706 666.963 832.707 666.963 832.707 666.964C832.707 666.964 832.708 666.964 832.709 666.964H833.004C833.39 666.964 833.703 667.277 833.703 667.663C833.703 667.849 833.777 668.028 833.909 668.159L855.041 689.174C855.432 689.563 855.432 690.195 855.041 690.584L833.767 711.74C833.572 711.934 833.257 711.934 833.062 711.74L832.706 711.386C832.706 711.386 832.706 711.385 832.706 711.385ZM833.703 671.769C833.703 670.879 834.777 670.433 835.408 671.06L853.619 689.17C854.012 689.561 854.012 690.197 853.619 690.588L835.408 708.698C834.777 709.325 833.703 708.878 833.703 707.989V691.174C833.703 690.621 834.151 690.174 834.703 690.174H843.372C843.648 690.174 843.872 689.95 843.872 689.674C843.872 689.398 843.648 689.174 843.372 689.174H834.703C834.151 689.174 833.703 688.726 833.703 688.174V671.769ZM813.502 687.465C812.869 688.094 813.315 689.174 814.207 689.174H831.703C832.255 689.174 832.703 688.726 832.703 688.174V670.779C832.703 669.889 831.629 669.442 830.998 670.07L813.502 687.465ZM786.389 711.379C786.389 711.379 786.389 711.379 786.389 711.379H786.372C786.368 711.379 786.365 711.376 786.365 711.372V691.131C786.365 690.578 785.917 690.131 785.365 690.131H775.867C775.591 690.131 775.367 689.907 775.367 689.631C775.367 689.355 775.591 689.131 775.867 689.131H785.365C785.917 689.131 786.365 688.683 786.365 688.131V667.382C786.365 667.106 786.589 666.882 786.865 666.882C787.141 666.882 787.365 667.106 787.365 667.382V685.711C787.365 686.605 788.447 687.05 789.076 686.414L808.005 667.278C808.2 667.08 808.52 667.08 808.716 667.278C808.908 667.473 808.908 667.787 808.716 667.981L789.48 687.427C788.855 688.059 789.303 689.131 790.191 689.131H808.334C808.348 689.131 808.36 689.142 808.36 689.157C808.36 689.164 808.363 689.17 808.368 689.175L808.567 689.376C808.842 689.654 808.842 690.102 808.567 690.381L787.447 711.731C787.252 711.929 786.932 711.929 786.736 711.731L786.389 711.379V711.379ZM789.076 708.663C788.447 709.298 787.365 708.853 787.365 707.96V691.131C787.365 690.578 787.812 690.131 788.365 690.131H805.011C805.9 690.131 806.347 691.202 805.722 691.834L789.076 708.663ZM764.749 689.527C764.553 689.329 764.233 689.329 764.038 689.527C763.845 689.721 763.845 690.035 764.038 690.23L785.306 711.731C785.502 711.929 785.821 711.929 786.017 711.731C786.21 711.536 786.21 711.222 786.017 711.028L764.749 689.527Z" fill="#212254"/>
<path d="M832.706 711.385L831.649 710.32L831.647 710.323L832.706 711.385ZM813.069 686.485L812.012 685.421V685.421L813.069 686.485ZM831.996 667.667L833.054 668.731L833.496 668.291V667.667H831.996ZM831.996 667.667L830.938 666.603L830.496 667.043V667.667H831.996ZM832.703 666.964L833.761 668.027L833.762 668.026L832.703 666.964ZM832.705 666.963L832.614 668.46L832.619 668.46L832.705 666.963ZM832.707 666.964L833.766 665.901L833.763 665.898L832.707 666.964ZM833.909 668.159L832.851 669.223L833.909 668.159ZM855.041 689.174L853.984 690.237H853.984L855.041 689.174ZM855.041 690.584L856.099 691.648L856.099 691.648L855.041 690.584ZM833.767 711.74L832.709 710.677V710.677L833.767 711.74ZM833.062 711.74L834.119 710.677L834.119 710.677L833.062 711.74ZM832.706 711.386L831.647 712.449L831.648 712.45L832.706 711.386ZM835.408 671.06L836.466 669.996H836.466L835.408 671.06ZM853.619 689.17L854.677 688.106L854.677 688.106L853.619 689.17ZM853.619 690.588L854.677 691.652H854.677L853.619 690.588ZM835.408 708.698L836.466 709.761L836.466 709.761L835.408 708.698ZM813.502 687.465L814.56 688.528L814.56 688.528L813.502 687.465ZM830.998 670.07L832.055 671.133H832.055L830.998 670.07ZM786.389 711.379L785.329 710.318L784.889 710.757V711.379H786.389ZM789.076 686.414L788.009 685.359H788.009L789.076 686.414ZM808.005 667.278L806.938 666.223L806.938 666.223L808.005 667.278ZM808.716 667.278L807.649 668.333L807.649 668.333L808.716 667.278ZM808.716 667.981L809.782 669.036L808.716 667.981ZM789.48 687.427L790.546 688.482V688.482L789.48 687.427ZM808.368 689.175L809.434 688.12L809.434 688.12L808.368 689.175ZM808.567 689.376L809.633 688.321L808.567 689.376ZM808.567 690.381L807.5 689.326L807.5 689.326L808.567 690.381ZM787.447 711.731L788.514 712.786L788.514 712.786L787.447 711.731ZM786.736 711.731L785.67 712.786L785.67 712.786L786.736 711.731ZM786.389 711.379H784.889V711.996L785.322 712.434L786.389 711.379ZM789.076 708.663L788.009 707.608L788.009 707.608L789.076 708.663ZM805.722 691.834L806.789 692.889L805.722 691.834ZM764.038 689.527L765.104 690.582L765.104 690.582L764.038 689.527ZM764.749 689.527L763.682 690.582L763.682 690.582L764.749 689.527ZM764.038 690.23L765.104 689.175L765.104 689.175L764.038 690.23ZM785.306 711.731L784.24 712.786L784.24 712.786L785.306 711.731ZM786.017 711.731L787.083 712.786L787.083 712.786L786.017 711.731ZM786.017 711.028L787.083 709.973L787.083 709.973L786.017 711.028ZM832.705 712.884C831.368 712.884 830.698 711.264 831.649 710.32L833.763 712.45C834.715 711.505 834.044 709.884 832.705 709.884V712.884ZM832.704 712.884H832.705V709.884H832.704V712.884ZM831.203 711.382C831.203 712.211 831.874 712.884 832.704 712.884V709.884C833.533 709.884 834.203 710.555 834.203 711.382H831.203ZM831.203 691.174V711.382H834.203V691.174H831.203ZM831.703 691.674C831.427 691.674 831.203 691.45 831.203 691.174H834.203C834.203 689.793 833.084 688.674 831.703 688.674V691.674ZM812.364 691.674H831.703V688.674H812.364V691.674ZM812.864 691.174C812.864 691.45 812.641 691.674 812.364 691.674V688.674C810.984 688.674 809.864 689.793 809.864 691.174H812.864ZM812.864 710.884V691.174H809.864V710.884H812.864ZM810.864 712.884C811.969 712.884 812.864 711.988 812.864 710.884H809.864C809.864 710.331 810.312 709.884 810.864 709.884V712.884ZM808.864 710.884C808.864 711.988 809.76 712.884 810.864 712.884V709.884C811.417 709.884 811.864 710.331 811.864 710.884H808.864ZM808.864 667.464V710.884H811.864V667.464H808.864ZM810.864 665.464C809.76 665.464 808.864 666.36 808.864 667.464H811.864C811.864 668.017 811.417 668.464 810.864 668.464V665.464ZM812.864 667.464C812.864 666.36 811.969 665.464 810.864 665.464V668.464C810.312 668.464 809.864 668.017 809.864 667.464H812.864ZM812.864 685.775V667.464H809.864V685.775H812.864ZM812.012 685.421C812.327 685.107 812.864 685.331 812.864 685.775H809.864C809.864 687.999 812.55 689.116 814.127 687.548L812.012 685.421ZM830.939 666.603L812.012 685.421L814.127 687.548L833.054 668.731L830.939 666.603ZM830.496 667.667V667.667H833.496V667.667H830.496ZM830.496 667.667V667.667H833.496V667.667H830.496ZM831.646 665.9L830.938 666.603L833.054 668.731L833.761 668.027L831.646 665.9ZM832.796 665.466C832.383 665.44 831.959 665.588 831.645 665.901L833.762 668.026C833.449 668.338 833.027 668.485 832.614 668.46L832.796 665.466ZM833.763 665.898C833.496 665.633 833.147 665.486 832.792 665.465L832.619 668.46C832.265 668.44 831.918 668.293 831.651 668.029L833.763 665.898ZM832.709 665.464C833.104 665.464 833.484 665.62 833.766 665.901L831.648 668.026C831.931 668.308 832.313 668.464 832.709 668.464V665.464ZM833.004 665.464H832.709V668.464H833.004V665.464ZM835.203 667.663C835.203 666.449 834.218 665.464 833.004 665.464V668.464C832.562 668.464 832.203 668.106 832.203 667.663H835.203ZM834.967 667.095C835.118 667.246 835.203 667.45 835.203 667.663H832.203C832.203 668.249 832.436 668.81 832.851 669.223L834.967 667.095ZM856.099 688.11L834.967 667.095L832.851 669.223L853.984 690.237L856.099 688.11ZM856.099 691.648C857.08 690.672 857.08 689.085 856.099 688.11L853.984 690.237C853.785 690.04 853.785 689.718 853.984 689.52L856.099 691.648ZM834.825 712.804L856.099 691.648L853.984 689.52L832.709 710.677L834.825 712.804ZM832.004 712.804C832.784 713.58 834.044 713.58 834.825 712.804L832.709 710.677C833.099 710.289 833.729 710.289 834.119 710.677L832.004 712.804ZM831.648 712.45L832.004 712.804L834.119 710.677L833.764 710.323L831.648 712.45ZM831.647 710.323C831.058 710.909 831.058 711.862 831.647 712.449L833.765 710.324C834.353 710.91 834.353 711.862 833.765 712.448L831.647 710.323ZM836.466 669.996C834.889 668.428 832.203 669.545 832.203 671.769H835.203C835.203 672.214 834.666 672.437 834.35 672.124L836.466 669.996ZM854.677 688.106L836.466 669.996L834.35 672.124L852.561 690.233L854.677 688.106ZM854.677 691.652C855.66 690.674 855.66 689.084 854.677 688.106L852.561 690.233C852.365 690.038 852.365 689.72 852.561 689.524L854.677 691.652ZM836.466 709.761L854.677 691.652L852.561 689.524L834.35 707.634L836.466 709.761ZM832.203 707.989C832.203 710.213 834.889 711.33 836.466 709.761L834.35 707.634C834.666 707.321 835.203 707.544 835.203 707.989H832.203ZM832.203 691.174V707.989H835.203V691.174H832.203ZM834.703 688.674C833.322 688.674 832.203 689.793 832.203 691.174H835.203C835.203 691.45 834.979 691.674 834.703 691.674V688.674ZM843.372 688.674H834.703V691.674H843.372V688.674ZM842.372 689.674C842.372 689.121 842.82 688.674 843.372 688.674V691.674C844.477 691.674 845.372 690.778 845.372 689.674H842.372ZM843.372 690.674C842.82 690.674 842.372 690.226 842.372 689.674H845.372C845.372 688.569 844.477 687.674 843.372 687.674V690.674ZM834.703 690.674H843.372V687.674H834.703V690.674ZM832.203 688.174C832.203 689.554 833.322 690.674 834.703 690.674V687.674C834.979 687.674 835.203 687.898 835.203 688.174H832.203ZM832.203 671.769V688.174H835.203V671.769H832.203ZM814.207 687.674C814.653 687.674 814.876 688.214 814.56 688.528L812.444 686.401C810.863 687.974 811.976 690.674 814.207 690.674V687.674ZM831.703 687.674H814.207V690.674H831.703V687.674ZM831.203 688.174C831.203 687.898 831.427 687.674 831.703 687.674V690.674C833.084 690.674 834.203 689.554 834.203 688.174H831.203ZM831.203 670.779V688.174H834.203V670.779H831.203ZM832.055 671.133C831.74 671.447 831.203 671.224 831.203 670.779H834.203C834.203 668.555 831.517 667.438 829.94 669.006L832.055 671.133ZM814.56 688.528L832.055 671.133L829.94 669.006L812.444 686.401L814.56 688.528ZM786.389 712.879C785.025 712.879 784.402 711.243 785.329 710.318L787.449 712.44C788.376 711.515 787.752 709.879 786.389 709.879V712.879ZM786.372 712.879H786.389V709.879H786.372V712.879ZM784.865 711.372C784.865 712.204 785.539 712.879 786.372 712.879V709.879C787.197 709.879 787.865 710.548 787.865 711.372H784.865ZM784.865 691.131V711.372H787.865V691.131H784.865ZM785.365 691.631C785.089 691.631 784.865 691.407 784.865 691.131H787.865C787.865 689.75 786.745 688.631 785.365 688.631V691.631ZM775.867 691.631H785.365V688.631H775.867V691.631ZM773.867 689.631C773.867 690.735 774.763 691.631 775.867 691.631V688.631C776.419 688.631 776.867 689.078 776.867 689.631H773.867ZM775.867 687.631C774.763 687.631 773.867 688.526 773.867 689.631H776.867C776.867 690.183 776.419 690.631 775.867 690.631V687.631ZM785.365 687.631H775.867V690.631H785.365V687.631ZM784.865 688.131C784.865 687.855 785.089 687.631 785.365 687.631V690.631C786.745 690.631 787.865 689.511 787.865 688.131H784.865ZM784.865 667.382V688.131H787.865V667.382H784.865ZM786.865 665.382C785.76 665.382 784.865 666.277 784.865 667.382H787.865C787.865 667.934 787.417 668.382 786.865 668.382V665.382ZM788.865 667.382C788.865 666.277 787.969 665.382 786.865 665.382V668.382C786.312 668.382 785.865 667.934 785.865 667.382H788.865ZM788.865 685.711V667.382H785.865V685.711H788.865ZM788.009 685.359C788.323 685.042 788.865 685.264 788.865 685.711H785.865C785.865 687.945 788.571 689.057 790.142 687.469L788.009 685.359ZM806.938 666.223L788.009 685.359L790.142 687.469L809.071 668.333L806.938 666.223ZM809.782 666.223C808.999 665.432 807.721 665.432 806.938 666.223L809.071 668.333C808.68 668.729 808.041 668.729 807.649 668.333L809.782 666.223ZM809.782 669.036C810.553 668.257 810.553 667.003 809.782 666.223L807.649 668.333C807.264 667.943 807.264 667.316 807.649 666.926L809.782 669.036ZM790.546 688.482L809.782 669.036L807.649 666.926L788.414 686.373L790.546 688.482ZM790.191 687.631C790.635 687.631 790.859 688.167 790.546 688.482L788.414 686.373C786.852 687.951 787.97 690.631 790.191 690.631V687.631ZM808.334 687.631H790.191V690.631H808.334V687.631ZM809.86 689.157C809.86 688.314 809.177 687.631 808.334 687.631V690.631C807.52 690.631 806.86 689.971 806.86 689.157H809.86ZM809.434 688.12C809.707 688.396 809.86 688.769 809.86 689.157H806.86C806.86 689.558 807.018 689.944 807.301 690.23L809.434 688.12ZM809.633 688.321L809.434 688.12L807.301 690.23L807.5 690.431L809.633 688.321ZM809.633 691.435C810.486 690.573 810.486 689.184 809.633 688.321L807.5 690.431C807.197 690.125 807.197 689.632 807.5 689.326L809.633 691.435ZM788.514 712.786L809.633 691.435L807.5 689.326L786.381 710.676L788.514 712.786ZM785.67 712.786C786.453 713.577 787.731 713.577 788.514 712.786L786.381 710.676C786.772 710.28 787.411 710.28 787.803 710.676L785.67 712.786ZM785.322 712.434L785.67 712.786L787.803 710.676L787.455 710.325L785.322 712.434ZM784.889 711.379V711.379H787.889V711.379H784.889ZM785.865 707.96C785.865 710.193 788.571 711.306 790.142 709.718L788.009 707.608C788.323 707.29 788.865 707.513 788.865 707.96H785.865ZM785.865 691.131V707.96H788.865V691.131H785.865ZM788.365 688.631C786.984 688.631 785.865 689.75 785.865 691.131H788.865C788.865 691.407 788.641 691.631 788.365 691.631V688.631ZM805.011 688.631H788.365V691.631H805.011V688.631ZM806.789 692.889C808.35 691.31 807.232 688.631 805.011 688.631V691.631C804.567 691.631 804.344 691.095 804.656 690.779L806.789 692.889ZM790.142 709.718L806.789 692.889L804.656 690.779L788.009 707.608L790.142 709.718ZM765.104 690.582C764.713 690.977 764.074 690.977 763.682 690.582L765.815 688.472C765.032 687.68 763.754 687.68 762.971 688.472L765.104 690.582ZM765.104 689.175C765.49 689.565 765.49 690.192 765.104 690.582L762.971 688.472C762.2 689.251 762.2 690.505 762.971 691.285L765.104 689.175ZM786.372 710.676L765.104 689.175L762.971 691.285L784.24 712.786L786.372 710.676ZM784.95 710.676C785.342 710.28 785.981 710.28 786.372 710.676L784.24 712.786C785.022 713.577 786.3 713.577 787.083 712.786L784.95 710.676ZM784.95 712.083C784.565 711.693 784.565 711.066 784.95 710.676L787.083 712.786C787.854 712.006 787.854 710.752 787.083 709.973L784.95 712.083ZM763.682 690.582L784.95 712.083L787.083 709.973L765.815 688.472L763.682 690.582Z" fill="#212254"/>
</svg>
