<svg width="1343" height="1011" viewBox="0 0 1343 1011" fill="none" xmlns="http://www.w3.org/2000/svg">
<circle cx="100" cy="100" r="100" transform="matrix(1 0 0 -1 1032 472.429)" fill="#EE6123" stroke="#541312" stroke-width="10"/>
<path d="M974.5 208.429C1080.05 208.429 1164 312.612 1164 438.929C1164 565.246 1080.05 669.429 974.5 669.429C868.951 669.429 785 565.246 785 438.929C785 312.612 868.951 208.429 974.5 208.429Z" fill="#EE6123" stroke="#541312" stroke-width="10"/>
<ellipse cx="125" cy="152.778" rx="125" ry="152.778" transform="matrix(1 0 0 -1 849 664.429)" fill="#ECF1FE"/>
<mask id="path-4-outside-1_14_4471" maskUnits="userSpaceOnUse" x="600.804" y="-3.56904" width="743.031" height="680.639" fill="black">
<rect fill="white" x="600.804" y="-3.56904" width="743.031" height="680.639"/>
<path fill-rule="evenodd" clip-rule="evenodd" d="M1056.52 407.719L1056.52 407.72L1056.52 407.719C908.09 365.158 761.735 414.212 714.778 517.775C668.534 449.3 650.838 371.317 672.015 297.464C717.663 138.27 926.652 58.517 1138.9 119.241C1139 119.271 1139.11 119.301 1139.21 119.331C1245.39 149.777 1312.95 239.016 1290.12 318.652C1267.28 398.288 1162.7 438.164 1056.52 407.719Z"/>
</mask>
<path fill-rule="evenodd" clip-rule="evenodd" d="M1056.52 407.719L1056.52 407.72L1056.52 407.719C908.09 365.158 761.735 414.212 714.778 517.775C668.534 449.3 650.838 371.317 672.015 297.464C717.663 138.27 926.652 58.517 1138.9 119.241C1139 119.271 1139.11 119.301 1139.21 119.331C1245.39 149.777 1312.95 239.016 1290.12 318.652C1267.28 398.288 1162.7 438.164 1056.52 407.719Z" fill="#ECF1FE"/>
<path d="M1056.52 407.72L1053.76 417.333L1063.38 420.089L1066.13 410.476L1056.52 407.72ZM1056.52 407.719L1059.28 398.106L1049.67 395.35L1046.91 404.962L1056.52 407.719ZM1056.52 407.719L1053.76 417.332L1056.52 407.719ZM714.778 517.775L706.491 523.371L716.5 538.192L723.886 521.904L714.778 517.775ZM1138.9 119.241L1136.15 128.855L1136.16 128.857L1138.9 119.241ZM1066.13 410.476L1066.13 410.475L1046.91 404.962L1046.91 404.964L1066.13 410.476ZM1053.76 417.332L1053.76 417.333L1059.28 398.107L1059.28 398.107L1053.76 417.332ZM723.886 521.904C767.998 424.615 907.975 375.528 1053.76 417.332L1059.28 398.107C908.205 354.788 755.472 403.809 705.671 513.645L723.886 521.904ZM662.403 294.707C640.245 371.979 658.958 452.989 706.491 523.371L723.065 512.178C678.11 445.612 661.431 370.655 681.628 300.22L662.403 294.707ZM1141.65 109.626C1033.65 78.7272 926.109 83.4507 839.417 116.54C752.721 149.632 686.288 211.408 662.403 294.707L681.628 300.22C703.391 224.325 764.276 166.628 846.549 135.226C928.825 103.821 1031.9 99.0304 1136.15 128.855L1141.65 109.626ZM1136.16 128.857C1136.26 128.885 1136.36 128.914 1136.46 128.943L1141.97 109.718C1141.86 109.687 1141.75 109.656 1141.64 109.625L1136.16 128.857ZM1136.46 128.943C1187.67 143.627 1229.19 172.396 1255.07 206.581C1280.95 240.763 1290.86 279.781 1280.51 315.896L1299.73 321.408C1312.21 277.886 1299.76 232.467 1271.02 194.509C1242.28 156.554 1196.94 125.48 1141.97 109.718L1136.46 128.943ZM1280.51 315.896C1270.15 352.01 1241.07 379.848 1201.01 395.122C1160.95 410.398 1110.49 412.79 1059.28 398.106L1053.77 417.331C1108.73 433.093 1163.65 430.77 1208.14 413.81C1252.62 396.848 1287.25 364.93 1299.73 321.408L1280.51 315.896Z" fill="#541312" mask="url(#path-4-outside-1_14_4471)"/>
<path fill-rule="evenodd" clip-rule="evenodd" d="M801.67 144.744C860.176 177.314 896.422 260.099 886.721 352.399C884.988 368.892 881.882 384.783 877.585 399.873C932.036 388.124 994.094 389.819 1056.52 407.719L1056.52 407.72L1056.52 407.719C1162.7 438.164 1267.28 398.288 1290.12 318.652C1312.95 239.016 1245.39 149.777 1139.21 119.331L1138.9 119.241C1014.68 83.7003 891.567 96.2805 801.67 144.744Z" fill="#EE6123"/>
<path d="M885.554 907.134C909.252 878.892 897.821 830.287 860.023 798.57C822.225 766.854 772.373 764.037 748.675 792.279C724.977 820.52 692.641 921.285 730.44 953.001C768.238 984.718 861.857 935.376 885.554 907.134Z" fill="#EE6123"/>
<path d="M885.554 907.134C909.252 878.892 897.821 830.287 860.023 798.57C822.225 766.854 772.373 764.037 748.675 792.279C724.977 820.52 692.641 921.285 730.44 953.001C768.238 984.718 861.857 935.376 885.554 907.134Z" fill="#EE6123"/>
<path d="M885.554 907.134C909.252 878.892 897.821 830.287 860.023 798.57C822.225 766.854 772.373 764.037 748.675 792.279C724.977 820.52 692.641 921.285 730.44 953.001C768.238 984.718 861.857 935.376 885.554 907.134Z" stroke="#541312" stroke-width="10"/>
<path d="M885.554 907.134C909.252 878.892 897.821 830.287 860.023 798.57C822.225 766.854 772.373 764.037 748.675 792.279C724.977 820.52 692.641 921.285 730.44 953.001C768.238 984.718 861.857 935.376 885.554 907.134Z" stroke="#541312" stroke-width="10"/>
<path d="M851.872 888.153C865.357 872.082 858.852 844.423 837.343 826.374C815.834 808.326 787.465 806.723 773.98 822.794C760.495 838.865 742.094 896.205 763.603 914.254C785.113 932.302 838.386 904.224 851.872 888.153Z" fill="#ECF1FE"/>
<path d="M851.872 888.153C865.357 872.082 858.852 844.423 837.343 826.374C815.834 808.326 787.465 806.723 773.98 822.794C760.495 838.865 742.094 896.205 763.603 914.254C785.113 932.302 838.386 904.224 851.872 888.153Z" fill="#ECF1FE"/>
<path d="M1199.79 792.279C1176.09 764.037 1126.24 766.854 1088.44 798.57C1050.64 830.287 1039.21 878.892 1062.91 907.134C1086.61 935.376 1180.22 984.718 1218.02 953.001C1255.82 921.285 1223.49 820.52 1199.79 792.279Z" fill="#EE6123"/>
<path d="M1199.79 792.279C1176.09 764.037 1126.24 766.854 1088.44 798.57C1050.64 830.287 1039.21 878.892 1062.91 907.134C1086.61 935.376 1180.22 984.718 1218.02 953.001C1255.82 921.285 1223.49 820.52 1199.79 792.279Z" fill="#EE6123"/>
<path d="M1199.79 792.279C1176.09 764.037 1126.24 766.854 1088.44 798.57C1050.64 830.287 1039.21 878.892 1062.91 907.134C1086.61 935.376 1180.22 984.718 1218.02 953.001C1255.82 921.285 1223.49 820.52 1199.79 792.279Z" stroke="#541312" stroke-width="10"/>
<path d="M1199.79 792.279C1176.09 764.037 1126.24 766.854 1088.44 798.57C1050.64 830.287 1039.21 878.892 1062.91 907.134C1086.61 935.376 1180.22 984.718 1218.02 953.001C1255.82 921.285 1223.49 820.52 1199.79 792.279Z" stroke="#541312" stroke-width="10"/>
<path d="M1175.25 822.153C1161.76 806.082 1133.39 807.685 1111.88 825.734C1090.37 843.782 1083.87 871.441 1097.35 887.512C1110.84 903.583 1164.11 931.661 1185.62 913.613C1207.13 895.565 1188.73 838.224 1175.25 822.153Z" fill="#ECF1FE"/>
<path d="M1175.25 822.153C1161.76 806.082 1133.39 807.685 1111.88 825.734C1090.37 843.782 1083.87 871.441 1097.35 887.512C1110.84 903.583 1164.11 931.661 1185.62 913.613C1207.13 895.565 1188.73 838.224 1175.25 822.153Z" fill="#ECF1FE"/>
<path d="M974 519.929C1030.45 519.929 1081.4 541.063 1118.21 565.758C1136.62 578.111 1151.62 591.442 1162.08 603.636C1167.31 609.73 1171.47 615.623 1174.35 621.046C1177.19 626.382 1179 631.665 1179 636.429C1179 646.372 1171.34 654.512 1160.9 660.93C1150.18 667.52 1135 673.275 1116.68 678.038C1079.97 687.583 1029.53 693.429 974 693.429C918.474 693.429 868.031 687.583 831.32 678.038C813.003 673.275 797.82 667.52 787.099 660.93C776.658 654.512 769 646.372 769 636.429C769 631.665 770.812 626.382 773.648 621.046C776.531 615.623 780.695 609.73 785.922 603.636C796.381 591.442 811.382 578.111 829.793 565.758C866.595 541.063 917.549 519.929 974 519.929Z" fill="#ECF1FE" stroke="#541312" stroke-width="10"/>
<mask id="path-12-outside-2_14_4471" maskUnits="userSpaceOnUse" x="714" y="585.429" width="520" height="320" fill="black">
<rect fill="white" x="714" y="585.429" width="520" height="320"/>
<path fill-rule="evenodd" clip-rule="evenodd" d="M1224 645.429C1224 644.341 1223.99 643.254 1223.98 642.169C1218.55 646.295 1208.86 650.186 1195.64 653.729C1197.85 639.665 1199 625.197 1199 610.429C1199 609.341 1198.99 608.254 1198.98 607.169C1182.6 620.997 1123.17 632.178 1045.47 636.501C1046.47 638.253 1047 640.069 1047 641.929C1047 656.565 1014.32 668.429 974 668.429C933.683 668.429 901 656.565 901 641.929C901 640.069 901.528 638.253 902.533 636.501C824.832 632.178 765.402 620.997 749.019 607.169C749.006 608.254 749 609.341 749 610.429C749 625.197 750.152 639.665 752.363 653.729C739.144 650.186 729.453 646.295 724.021 642.169C724.007 643.254 724 644.341 724 645.429C724 783.5 835.929 895.429 974 895.429C1112.07 895.429 1224 783.5 1224 645.429Z"/>
</mask>
<path fill-rule="evenodd" clip-rule="evenodd" d="M1224 645.429C1224 644.341 1223.99 643.254 1223.98 642.169C1218.55 646.295 1208.86 650.186 1195.64 653.729C1197.85 639.665 1199 625.197 1199 610.429C1199 609.341 1198.99 608.254 1198.98 607.169C1182.6 620.997 1123.17 632.178 1045.47 636.501C1046.47 638.253 1047 640.069 1047 641.929C1047 656.565 1014.32 668.429 974 668.429C933.683 668.429 901 656.565 901 641.929C901 640.069 901.528 638.253 902.533 636.501C824.832 632.178 765.402 620.997 749.019 607.169C749.006 608.254 749 609.341 749 610.429C749 625.197 750.152 639.665 752.363 653.729C739.144 650.186 729.453 646.295 724.021 642.169C724.007 643.254 724 644.341 724 645.429C724 783.5 835.929 895.429 974 895.429C1112.07 895.429 1224 783.5 1224 645.429Z" fill="#EE6123"/>
<path d="M1223.98 642.169L1217.93 634.206L1233.72 622.207L1233.98 642.041L1223.98 642.169ZM1195.64 653.729L1198.23 663.388L1183.37 667.37L1185.76 652.177L1195.64 653.729ZM1198.98 607.169L1192.53 599.527L1208.74 585.848L1208.98 607.054L1198.98 607.169ZM1045.47 636.501L1036.79 641.475L1028.73 627.417L1044.91 626.517L1045.47 636.501ZM902.533 636.501L903.088 626.517L919.269 627.417L911.208 641.476L902.533 636.501ZM749.019 607.169L739.019 607.054L739.263 585.849L755.469 599.527L749.019 607.169ZM752.363 653.729L762.241 652.177L764.629 667.37L749.774 663.388L752.363 653.729ZM724.021 642.169L714.022 642.041L714.275 622.207L730.07 634.206L724.021 642.169ZM1233.98 642.041C1233.99 643.169 1234 644.298 1234 645.429H1214C1214 644.383 1213.99 643.339 1213.98 642.297L1233.98 642.041ZM1193.05 644.07C1206.09 640.573 1214.15 637.076 1217.93 634.206L1230.03 650.132C1222.94 655.514 1211.62 659.799 1198.23 663.388L1193.05 644.07ZM1209 610.429C1209 625.717 1207.81 640.704 1205.52 655.282L1185.76 652.177C1187.89 638.625 1189 624.676 1189 610.429H1209ZM1208.98 607.054C1208.99 608.177 1209 609.302 1209 610.429H1189C1189 609.379 1188.99 608.33 1188.98 607.284L1208.98 607.054ZM1044.91 626.517C1083.47 624.371 1117.29 620.533 1143.35 615.576C1156.39 613.095 1167.3 610.368 1175.82 607.501C1184.57 604.555 1189.9 601.745 1192.53 599.527L1205.43 614.81C1199.87 619.507 1191.63 623.28 1182.2 626.455C1172.54 629.709 1160.67 632.64 1147.09 635.223C1119.91 640.394 1085.16 644.308 1046.02 646.486L1044.91 626.517ZM1037 641.929C1037 641.957 1037.01 641.959 1036.99 641.911C1036.98 641.858 1036.93 641.713 1036.79 641.475L1054.14 631.527C1055.9 634.585 1057 638.098 1057 641.929H1037ZM974 658.429C993.307 658.429 1010.35 655.572 1022.21 651.268C1028.18 649.101 1032.3 646.756 1034.75 644.656C1037.23 642.527 1037 641.57 1037 641.929H1057C1057 649.606 1052.68 655.621 1047.78 659.833C1042.84 664.073 1036.27 667.439 1029.03 670.067C1014.47 675.354 995.009 678.429 974 678.429V658.429ZM911 641.929C911 641.57 910.769 642.527 913.25 644.656C915.697 646.756 919.824 649.101 925.793 651.268C937.65 655.572 954.693 658.429 974 658.429V678.429C952.991 678.429 933.533 675.354 918.969 670.067C911.728 667.439 905.165 664.073 900.224 659.833C895.317 655.621 891 649.606 891 641.929H911ZM911.208 641.476C911.071 641.713 911.023 641.858 911.008 641.911C910.994 641.959 911 641.957 911 641.929H891C891 638.098 892.104 634.585 893.858 631.527L911.208 641.476ZM755.469 599.527C758.097 601.745 763.431 604.555 772.181 607.501C780.696 610.368 791.613 613.095 804.651 615.576C830.708 620.533 864.527 624.371 903.088 626.517L901.977 646.486C862.837 644.308 828.091 640.394 800.913 635.223C787.333 632.64 775.464 629.709 765.799 626.455C756.37 623.28 748.133 619.507 742.569 614.81L755.469 599.527ZM739 610.429C739 609.302 739.006 608.177 739.019 607.054L759.018 607.284C759.006 608.331 759 609.379 759 610.429H739ZM742.484 655.282C740.193 640.704 739 625.717 739 610.429H759C759 624.676 760.112 638.625 762.241 652.177L742.484 655.282ZM730.07 634.206C733.849 637.076 741.906 640.573 754.952 644.07L749.774 663.388C736.382 659.799 725.057 655.514 717.972 650.132L730.07 634.206ZM714 645.429C714 644.298 714.007 643.169 714.022 642.041L734.02 642.296C734.007 643.339 734 644.383 734 645.429H714ZM974 905.429C830.406 905.429 714 789.023 714 645.429H734C734 777.978 841.452 885.429 974 885.429V905.429ZM1234 645.429C1234 789.023 1117.59 905.429 974 905.429V885.429C1106.55 885.429 1214 777.978 1214 645.429H1234Z" fill="#541312" mask="url(#path-12-outside-2_14_4471)"/>
<path fill-rule="evenodd" clip-rule="evenodd" d="M1168.14 620.238C1139.89 627.832 1096.64 633.654 1045.47 636.501C1046.47 638.253 1047 640.069 1047 641.929C1047 656.565 1014.32 668.429 974 668.429C933.683 668.429 901 656.565 901 641.929C901 640.069 901.528 638.253 902.533 636.501C851.357 633.654 808.107 627.832 779.861 620.238C801.452 584.648 880.182 524.929 974 524.929C1067.82 524.929 1146.55 584.648 1168.14 620.238Z" fill="#ECF1FE"/>
<path fill-rule="evenodd" clip-rule="evenodd" d="M903.868 649.309C902.001 646.966 901 644.49 901 641.929C901 640.069 901.528 638.253 902.533 636.501C824.832 632.178 765.402 620.997 749.019 607.169C749.006 608.254 749 609.341 749 610.429C749 625.197 750.152 639.665 752.363 653.729C739.144 650.186 729.453 646.295 724.021 642.169C724.007 643.254 724 644.341 724 645.429C724 670.196 727.601 694.121 734.309 716.71C758.679 725.296 792.48 724.315 826.493 711.935C864.072 698.258 892.51 674.087 903.868 649.309Z" fill="#ECF1FE"/>
<path fill-rule="evenodd" clip-rule="evenodd" d="M1223.98 642.169C1223.99 643.254 1224 644.341 1224 645.429C1224 670.101 1220.43 693.937 1213.77 716.45C1189.35 725.302 1155.23 724.421 1120.89 711.923C1083.56 698.335 1055.25 674.391 1043.74 649.784C1045.86 647.302 1047 644.664 1047 641.929C1047 640.069 1046.47 638.253 1045.47 636.501C1123.17 632.178 1182.6 620.997 1198.98 607.169C1198.99 608.254 1199 609.341 1199 610.429C1199 625.197 1197.85 639.665 1195.64 653.729C1208.86 650.186 1218.55 646.295 1223.98 642.169Z" fill="#ECF1FE"/>
<path d="M1014 640.029C1014 634.285 996.091 617.729 974 617.729C951.909 617.729 934 634.285 934 640.029C934 645.773 951.909 650.429 974 650.429C996.091 650.429 1014 645.773 1014 640.029Z" fill="#541312"/>
<ellipse cx="24.0385" cy="37.5" rx="24.0385" ry="37.5" transform="matrix(1 0 0 -1 889 747.429)" fill="#541312"/>
<ellipse cx="8.01282" cy="12.5" rx="8.01282" ry="12.5" transform="matrix(1 0 0 -1 913 735.429)" fill="#ECF1FE"/>
<ellipse cx="24.0385" cy="37.5" rx="24.0385" ry="37.5" transform="matrix(1 0 0 -1 1011 747.429)" fill="#541312"/>
<ellipse cx="8.01282" cy="12.5" rx="8.01282" ry="12.5" transform="matrix(1 0 0 -1 1035 735.429)" fill="#ECF1FE"/>
<path d="M882 783.429L897.453 788.468C907.35 791.695 918.008 791.752 927.939 788.632L944.5 783.429" stroke="#541312" stroke-width="10"/>
<path d="M1004 783.429L1019.45 788.468C1029.35 791.695 1040.01 791.752 1049.94 788.632L1066.5 783.429" stroke="#541312" stroke-width="10"/>
<mask id="path-24-inside-3_14_4471" fill="white">
<path fill-rule="evenodd" clip-rule="evenodd" d="M1037.82 604.645C1030.36 595.782 1019.18 590.151 1006.68 590.151C993.367 590.151 981.546 596.544 974.12 606.427C966.695 596.544 954.874 590.151 941.56 590.151C929.064 590.151 917.884 595.782 910.418 604.646C909.489 602.696 909 600.673 909 598.6C909 582.586 938.155 536.427 974.12 536.427C1010.08 536.427 1039.24 582.586 1039.24 598.6C1039.24 600.673 1038.75 602.695 1037.82 604.645Z"/>
</mask>
<path fill-rule="evenodd" clip-rule="evenodd" d="M1037.82 604.645C1030.36 595.782 1019.18 590.151 1006.68 590.151C993.367 590.151 981.546 596.544 974.12 606.427C966.695 596.544 954.874 590.151 941.56 590.151C929.064 590.151 917.884 595.782 910.418 604.646C909.489 602.696 909 600.673 909 598.6C909 582.586 938.155 536.427 974.12 536.427C1010.08 536.427 1039.24 582.586 1039.24 598.6C1039.24 600.673 1038.75 602.695 1037.82 604.645Z" fill="#FB9197"/>
<path d="M1037.82 604.645L1046.85 608.946L1040.18 622.96L1030.17 611.088L1037.82 604.645ZM974.12 606.427L982.115 612.434L974.12 623.075L966.125 612.434L974.12 606.427ZM910.418 604.646L918.066 611.088L908.066 622.96L901.39 608.947L910.418 604.646ZM1030.17 611.088C1024.53 604.384 1016.1 600.151 1006.68 600.151V580.151C1022.25 580.151 1036.19 587.181 1045.47 598.203L1030.17 611.088ZM1006.68 600.151C996.644 600.151 987.733 604.956 982.115 612.434L966.125 600.421C975.359 588.131 990.089 580.151 1006.68 580.151V600.151ZM966.125 612.434C960.507 604.956 951.597 600.151 941.56 600.151V580.151C958.152 580.151 972.882 588.131 982.115 600.421L966.125 612.434ZM941.56 600.151C932.138 600.151 923.713 604.384 918.066 611.088L902.769 598.204C912.054 587.181 925.991 580.151 941.56 580.151V600.151ZM901.39 608.947C899.879 605.776 899 602.292 899 598.6H919C919 599.055 919.098 599.616 919.446 600.345L901.39 608.947ZM899 598.6C899 592.237 901.668 584.656 905.176 577.651C908.854 570.309 914.094 562.339 920.53 554.944C933.102 540.497 951.899 526.427 974.12 526.427V546.427C960.377 546.427 946.613 555.437 935.617 568.073C930.268 574.22 925.972 580.792 923.059 586.608C919.976 592.762 919 596.956 919 598.6H899ZM974.12 526.427C996.341 526.427 1015.14 540.497 1027.71 554.944C1034.15 562.339 1039.39 570.309 1043.06 577.651C1046.57 584.656 1049.24 592.237 1049.24 598.6H1029.24C1029.24 596.956 1028.26 592.762 1025.18 586.608C1022.27 580.792 1017.97 574.22 1012.62 568.073C1001.63 555.437 987.863 546.427 974.12 546.427V526.427ZM1049.24 598.6C1049.24 602.291 1048.36 605.775 1046.85 608.946L1028.79 600.345C1029.14 599.615 1029.24 599.055 1029.24 598.6H1049.24Z" fill="#541312" mask="url(#path-24-inside-3_14_4471)"/>
<mask id="path-26-outside-4_14_4471" maskUnits="userSpaceOnUse" x="752.449" y="841.429" width="444" height="138" fill="black">
<rect fill="white" x="752.449" y="841.429" width="444" height="138"/>
<path fill-rule="evenodd" clip-rule="evenodd" d="M1174.55 853.802H774.449C815.091 921.855 889.473 967.429 974.499 967.429C1059.53 967.429 1133.91 921.855 1174.55 853.802Z"/>
</mask>
<path fill-rule="evenodd" clip-rule="evenodd" d="M1174.55 853.802H774.449C815.091 921.855 889.473 967.429 974.499 967.429C1059.53 967.429 1133.91 921.855 1174.55 853.802Z" fill="#FCDC4D"/>
<path d="M774.449 853.802L764.146 859.954L753.305 841.802H774.449V853.802ZM1174.55 853.802V841.802H1195.69L1184.85 859.954L1174.55 853.802ZM774.449 841.802H1174.55V865.802H774.449V841.802ZM784.751 847.649C823.318 912.226 893.869 955.429 974.499 955.429V979.429C885.077 979.429 806.864 931.484 764.146 859.954L784.751 847.649ZM974.499 955.429C1055.13 955.429 1125.68 912.226 1164.25 847.649L1184.85 859.954C1142.13 931.484 1063.92 979.429 974.499 979.429V955.429Z" fill="#541312" mask="url(#path-26-outside-4_14_4471)"/>
<mask id="path-28-outside-5_14_4471" maskUnits="userSpaceOnUse" x="725" y="721.802" width="499" height="144" fill="black">
<rect fill="white" x="725" y="721.802" width="499" height="144"/>
<path fill-rule="evenodd" clip-rule="evenodd" d="M774.796 853.802C771.235 853.802 767.928 851.916 766.212 848.795C747.591 814.907 737 775.983 737 734.586C737 734.586 737 734.586 737 734.586H1212C1212 734.586 1212 734.586 1212 734.586C1212 775.983 1201.41 814.907 1182.79 848.795C1181.07 851.916 1177.77 853.802 1174.2 853.802H774.796Z"/>
</mask>
<path fill-rule="evenodd" clip-rule="evenodd" d="M774.796 853.802C771.235 853.802 767.928 851.916 766.212 848.795C747.591 814.907 737 775.983 737 734.586C737 734.586 737 734.586 737 734.586H1212C1212 734.586 1212 734.586 1212 734.586C1212 775.983 1201.41 814.907 1182.79 848.795C1181.07 851.916 1177.77 853.802 1174.2 853.802H774.796Z" fill="#FCDC4D"/>
<path d="M1182.79 848.795L1172.27 843.016L1182.79 848.795ZM755.696 854.574C736.126 818.96 725 778.054 725 734.586H749C749 773.912 759.057 810.854 776.729 843.016L755.696 854.574ZM737 722.586H1212V746.586H737V722.586ZM1224 734.586C1224 778.054 1212.87 818.96 1193.3 854.574L1172.27 843.016C1189.94 810.854 1200 773.912 1200 734.586H1224ZM1174.2 865.802H774.796V841.802H1174.2V865.802ZM1212 722.586C1218.91 722.586 1224 728.24 1224 734.586H1200C1200 740.932 1205.09 746.586 1212 746.586V722.586ZM725 734.586C725 727.958 730.373 722.586 737 722.586V746.586C743.628 746.586 749 741.213 749 734.586H725ZM1193.3 854.574C1189.4 861.674 1181.98 865.802 1174.2 865.802V841.802C1173.55 841.802 1172.74 842.158 1172.27 843.016L1193.3 854.574ZM776.729 843.016C776.258 842.158 775.448 841.802 774.796 841.802V865.802C767.022 865.802 759.597 861.674 755.696 854.574L776.729 843.016Z" fill="#541312" mask="url(#path-28-outside-5_14_4471)"/>
<rect x="-3" y="3" width="89.8272" height="47.9136" transform="matrix(1 0 0 -1 1062.05 870.047)" fill="#541312" stroke="#541312" stroke-width="6"/>
<path fill-rule="evenodd" clip-rule="evenodd" d="M1083.15 863.581C1083.15 863.58 1083.15 863.58 1083.15 863.58H1083.16C1083.16 863.58 1083.16 863.579 1083.16 863.578V844.893C1083.16 844.341 1083.6 843.893 1084.16 843.893H1101.96C1102.51 843.893 1102.96 844.341 1102.96 844.893V863.08C1102.96 863.356 1103.19 863.58 1103.46 863.58C1103.74 863.58 1103.96 863.356 1103.96 863.08V843.893C1103.96 843.893 1103.96 843.893 1103.96 843.893C1103.96 843.893 1103.96 843.893 1103.96 843.893V842.893L1103.96 842.893L1103.96 842.893L1103.96 842.893L1103.96 842.893L1103.96 842.893L1103.96 842.893C1103.96 842.892 1103.96 842.892 1103.96 842.892C1103.96 842.892 1103.96 842.892 1103.96 842.892V822.707C1103.96 822.431 1103.74 822.207 1103.46 822.207C1103.19 822.207 1102.96 822.431 1102.96 822.707V839.494C1102.96 840.383 1101.89 840.83 1101.26 840.203L1083.16 822.207C1083.16 822.207 1083.16 822.207 1083.16 822.207C1083.16 822.207 1083.16 822.207 1083.16 822.207C1083.16 822.207 1083.16 822.206 1083.16 822.206L1083.16 822.206C1083.15 822.205 1083.15 822.205 1083.15 822.206C1083.15 822.207 1083.15 822.207 1083.15 822.207H1082.86C1082.47 822.207 1082.16 822.519 1082.16 822.905C1082.16 823.091 1082.08 823.269 1081.95 823.4L1062.35 842.893C1061.96 843.282 1061.96 843.914 1062.35 844.303L1082.09 863.936C1082.29 864.13 1082.6 864.13 1082.8 863.936L1083.15 863.582C1083.15 863.582 1083.15 863.581 1083.15 863.581ZM1082.16 827.01C1082.16 826.121 1081.08 825.674 1080.45 826.301L1063.77 842.889C1063.38 843.28 1063.38 843.916 1063.77 844.307L1080.45 860.895C1081.08 861.522 1082.16 861.075 1082.16 860.186V844.893C1082.16 844.341 1081.71 843.893 1081.16 843.893H1073.25C1072.98 843.893 1072.75 843.669 1072.75 843.393C1072.75 843.117 1072.98 842.893 1073.25 842.893H1081.16C1081.71 842.893 1082.16 842.445 1082.16 841.893V827.01ZM1100.83 841.184C1101.46 841.813 1101.01 842.893 1100.12 842.893H1084.16C1083.6 842.893 1083.16 842.445 1083.16 841.893V826.021C1083.16 825.132 1084.23 824.685 1084.86 825.312L1100.83 841.184ZM1146.42 843.246C1146.62 843.048 1146.94 843.048 1147.13 843.246C1147.33 843.441 1147.33 843.755 1147.13 843.95L1127.72 863.575C1127.33 863.967 1126.7 863.967 1126.31 863.575C1126.31 863.576 1126.31 863.576 1126.31 863.576H1126.3C1126.3 863.576 1126.29 863.578 1126.29 863.58L1126.09 863.784C1125.81 864.06 1125.37 864.06 1125.09 863.784L1105.62 844.1C1105.35 843.822 1105.35 843.374 1105.62 843.096L1105.82 842.894C1105.83 842.889 1105.83 842.883 1105.83 842.877C1105.83 842.864 1105.84 842.853 1105.85 842.853H1122.49C1123.38 842.853 1123.83 841.781 1123.2 841.15L1105.47 823.227C1105.28 823.032 1105.28 822.718 1105.47 822.524C1105.67 822.326 1105.99 822.326 1106.19 822.524L1123.6 840.132C1124.23 840.767 1125.31 840.322 1125.31 839.428V822.631C1125.31 822.355 1125.54 822.131 1125.81 822.131C1126.09 822.131 1126.31 822.355 1126.31 822.631V841.853C1126.31 842.405 1126.76 842.853 1127.31 842.853H1136.06C1136.34 842.853 1136.56 843.077 1136.56 843.353C1136.56 843.629 1136.34 843.853 1136.06 843.853H1127.31C1126.76 843.853 1126.31 844.301 1126.31 844.853V863.575L1146.42 843.246ZM1125.31 860.151C1125.31 861.045 1124.23 861.49 1123.6 860.854L1108.47 845.556C1107.85 844.925 1108.29 843.853 1109.18 843.853H1124.31C1124.87 843.853 1125.31 844.301 1125.31 844.853V860.151Z" fill="#541312"/>
<path d="M1083.15 863.581L1084.21 862.516L1084.21 862.518L1083.15 863.581ZM1103.96 842.893H1102.46V842.558L1102.61 842.254L1103.96 842.893ZM1103.96 842.893L1105.46 842.808L1105.48 843.188L1105.32 843.532L1103.96 842.893ZM1103.96 842.893L1105.36 842.336L1105.45 842.563L1105.46 842.808L1103.96 842.893ZM1103.96 842.893L1105.02 841.832L1105.24 842.05L1105.36 842.336L1103.96 842.893ZM1103.96 842.893L1104.56 841.519L1104.82 841.632L1105.02 841.832L1103.96 842.893ZM1103.96 842.893L1103.36 844.267L1103.11 844.155L1102.91 843.958L1103.96 842.893ZM1103.96 842.893L1105.02 841.825L1105.02 841.827L1103.96 842.893ZM1103.96 842.892L1102.56 843.416L1102.55 843.41L1103.96 842.892ZM1101.26 840.203L1102.31 839.139V839.139L1101.26 840.203ZM1083.16 822.207L1082.1 823.271L1082.1 823.268L1083.16 822.207ZM1083.16 822.207L1083.78 820.842L1083.79 820.845L1083.79 820.849L1083.16 822.207ZM1083.16 822.206L1084.21 821.142L1084.22 821.146L1083.16 822.206ZM1083.16 822.206L1082.1 823.271L1082.1 823.27L1083.16 822.206ZM1083.15 822.206L1084.21 823.27L1084.21 823.271L1083.15 822.206ZM1081.95 823.4L1083.01 824.464L1083.01 824.464L1081.95 823.4ZM1062.35 842.893L1063.41 843.957H1063.41L1062.35 842.893ZM1062.35 844.303L1061.29 845.367L1061.29 845.367L1062.35 844.303ZM1082.09 863.936L1081.03 865L1081.03 865L1082.09 863.936ZM1082.8 863.936L1083.85 865V865L1082.8 863.936ZM1083.15 863.582L1084.21 864.645L1084.21 864.646L1083.15 863.582ZM1080.45 826.301L1081.51 827.365L1080.45 826.301ZM1063.77 842.889L1062.71 841.825H1062.71L1063.77 842.889ZM1063.77 844.307L1062.71 845.371H1062.71L1063.77 844.307ZM1080.45 860.895L1079.39 861.959L1079.39 861.959L1080.45 860.895ZM1100.83 841.184L1099.77 842.248L1099.77 842.248L1100.83 841.184ZM1084.86 825.312L1083.8 826.376H1083.8L1084.86 825.312ZM1147.13 843.246L1148.2 842.191L1148.2 842.191L1147.13 843.246ZM1146.42 843.246L1145.36 842.191L1145.36 842.191L1146.42 843.246ZM1147.13 843.95L1148.2 845.004L1148.2 845.004L1147.13 843.95ZM1127.72 863.575L1126.65 862.521L1126.65 862.521L1127.72 863.575ZM1126.29 863.58L1125.22 862.525L1125.22 862.525L1126.29 863.58ZM1126.09 863.784L1127.16 864.839V864.839L1126.09 863.784ZM1125.09 863.784L1126.16 862.729V862.729L1125.09 863.784ZM1105.62 844.1L1106.69 843.045L1106.69 843.045L1105.62 844.1ZM1105.62 843.096L1106.69 844.151L1106.69 844.151L1105.62 843.096ZM1105.82 842.894L1104.76 841.839L1104.76 841.839L1105.82 842.894ZM1123.2 841.15L1124.27 840.095V840.095L1123.2 841.15ZM1105.47 823.227L1104.41 824.282L1105.47 823.227ZM1105.47 822.524L1106.54 823.579L1106.54 823.579L1105.47 822.524ZM1106.19 822.524L1107.25 821.469L1107.25 821.469L1106.19 822.524ZM1123.6 840.132L1122.54 841.187V841.187L1123.6 840.132ZM1123.6 860.854L1124.67 859.8V859.8L1123.6 860.854ZM1108.47 845.556L1107.4 846.611L1108.47 845.556ZM1083.15 865.08C1084.49 865.08 1085.16 863.462 1084.21 862.516L1082.1 864.645C1081.14 863.699 1081.82 862.08 1083.15 862.08V865.08ZM1083.16 865.08H1083.15V862.08H1083.16V865.08ZM1084.66 863.578C1084.66 864.408 1083.98 865.08 1083.16 865.08V862.08C1082.33 862.08 1081.66 862.75 1081.66 863.578H1084.66ZM1084.66 844.893V863.578H1081.66V844.893H1084.66ZM1084.16 845.393C1084.43 845.393 1084.66 845.169 1084.66 844.893H1081.66C1081.66 843.512 1082.78 842.393 1084.16 842.393V845.393ZM1101.96 845.393H1084.16V842.393H1101.96V845.393ZM1101.46 844.893C1101.46 845.169 1101.69 845.393 1101.96 845.393V842.393C1103.34 842.393 1104.46 843.512 1104.46 844.893H1101.46ZM1101.46 863.08V844.893H1104.46V863.08H1101.46ZM1103.46 865.08C1102.36 865.08 1101.46 864.184 1101.46 863.08H1104.46C1104.46 862.528 1104.01 862.08 1103.46 862.08V865.08ZM1105.46 863.08C1105.46 864.184 1104.57 865.08 1103.46 865.08V862.08C1102.91 862.08 1102.46 862.528 1102.46 863.08H1105.46ZM1105.46 843.893V863.08H1102.46V843.893H1105.46ZM1103.96 845.393C1104.79 845.393 1105.46 844.722 1105.46 843.893H1102.46C1102.46 843.065 1103.13 842.393 1103.96 842.393V845.393ZM1105.46 843.893C1105.46 844.713 1104.8 845.393 1103.96 845.393V842.393C1103.13 842.393 1102.46 843.072 1102.46 843.893H1105.46ZM1105.46 842.893V843.893H1102.46V842.893H1105.46ZM1105.32 843.532L1105.32 843.532L1102.61 842.254L1102.61 842.254L1105.32 843.532ZM1105.46 842.808L1105.46 842.808L1102.47 842.979L1102.47 842.979L1105.46 842.808ZM1105.36 842.336L1105.36 842.336L1102.57 843.45L1102.57 843.45L1105.36 842.336ZM1105.02 841.832L1105.02 841.832L1102.9 843.954L1102.9 843.954L1105.02 841.832ZM1104.56 841.519L1104.56 841.519L1103.36 844.267L1103.36 844.267L1104.56 841.519ZM1105.02 841.827L1105.02 841.828L1102.91 843.958L1102.91 843.958L1105.02 841.827ZM1105.37 842.368C1105.29 842.166 1105.17 841.98 1105.02 841.825L1102.91 843.96C1102.75 843.804 1102.63 843.618 1102.56 843.416L1105.37 842.368ZM1105.46 842.892C1105.46 842.699 1105.43 842.524 1105.37 842.374L1102.55 843.41C1102.5 843.259 1102.46 843.084 1102.46 842.892H1105.46ZM1105.46 822.707V842.892H1102.46V822.707H1105.46ZM1103.46 820.707C1104.57 820.707 1105.46 821.603 1105.46 822.707H1102.46C1102.46 823.259 1102.91 823.707 1103.46 823.707V820.707ZM1101.46 822.707C1101.46 821.603 1102.36 820.707 1103.46 820.707V823.707C1104.01 823.707 1104.46 823.259 1104.46 822.707H1101.46ZM1101.46 839.494V822.707H1104.46V839.494H1101.46ZM1102.31 839.139C1102 838.825 1101.46 839.049 1101.46 839.494H1104.46C1104.46 841.717 1101.78 842.834 1100.2 841.266L1102.31 839.139ZM1084.21 821.143L1102.31 839.139L1100.2 841.266L1082.1 823.271L1084.21 821.143ZM1083.16 820.707C1083.55 820.707 1083.94 820.865 1084.22 821.147L1082.1 823.268C1082.38 823.549 1082.76 823.707 1083.16 823.707V820.707ZM1083.79 820.849C1083.59 820.755 1083.38 820.707 1083.16 820.707V823.707C1082.94 823.707 1082.72 823.658 1082.52 823.565L1083.79 820.849ZM1084.22 821.146C1084.09 821.02 1083.94 820.917 1083.78 820.842L1082.53 823.572C1082.37 823.497 1082.22 823.393 1082.09 823.267L1084.22 821.146ZM1084.21 821.142L1084.21 821.142L1082.1 823.271L1082.1 823.271L1084.21 821.142ZM1082.09 821.142C1082.68 820.56 1083.63 820.56 1084.21 821.142L1082.1 823.27C1082.68 823.851 1083.63 823.851 1084.21 823.27L1082.09 821.142ZM1083.15 820.707C1082.75 820.707 1082.37 820.865 1082.1 821.141L1084.21 823.271C1083.93 823.549 1083.55 823.707 1083.15 823.707V820.707ZM1082.86 820.707H1083.15V823.707H1082.86V820.707ZM1080.66 822.905C1080.66 821.691 1081.64 820.707 1082.86 820.707V823.707C1083.3 823.707 1083.66 823.348 1083.66 822.905H1080.66ZM1080.89 822.337C1080.74 822.487 1080.66 822.692 1080.66 822.905H1083.66C1083.66 823.49 1083.42 824.051 1083.01 824.464L1080.89 822.337ZM1061.29 841.829L1080.89 822.337L1083.01 824.464L1063.41 843.957L1061.29 841.829ZM1061.29 845.367C1060.31 844.392 1060.31 842.805 1061.29 841.829L1063.41 843.957C1063.61 843.759 1063.61 843.437 1063.41 843.24L1061.29 845.367ZM1081.03 865L1061.29 845.367L1063.41 843.24L1083.15 862.872L1081.03 865ZM1083.85 865C1083.07 865.775 1081.81 865.775 1081.03 865L1083.15 862.872C1082.76 862.485 1082.13 862.485 1081.74 862.872L1083.85 865ZM1084.21 864.646L1083.85 865L1081.74 862.872L1082.1 862.519L1084.21 864.646ZM1084.21 862.518C1084.8 863.104 1084.8 864.059 1084.21 864.645L1082.09 862.519C1081.51 863.105 1081.51 864.058 1082.09 864.644L1084.21 862.518ZM1079.39 825.238C1080.97 823.67 1083.66 824.787 1083.66 827.01H1080.66C1080.66 827.455 1081.19 827.679 1081.51 827.365L1079.39 825.238ZM1062.71 841.825L1079.39 825.238L1081.51 827.365L1064.83 843.953L1062.71 841.825ZM1062.71 845.371C1061.73 844.393 1061.73 842.803 1062.71 841.825L1064.83 843.953C1065.03 843.757 1065.03 843.439 1064.83 843.244L1062.71 845.371ZM1079.39 861.959L1062.71 845.371L1064.83 843.244L1081.51 859.831L1079.39 861.959ZM1083.66 860.186C1083.66 862.41 1080.97 863.527 1079.39 861.959L1081.51 859.831C1081.19 859.518 1080.66 859.741 1080.66 860.186H1083.66ZM1083.66 844.893V860.186H1080.66V844.893H1083.66ZM1081.16 842.393C1082.54 842.393 1083.66 843.512 1083.66 844.893H1080.66C1080.66 845.169 1080.88 845.393 1081.16 845.393V842.393ZM1073.25 842.393H1081.16V845.393H1073.25V842.393ZM1074.25 843.393C1074.25 842.841 1073.81 842.393 1073.25 842.393V845.393C1072.15 845.393 1071.25 844.498 1071.25 843.393H1074.25ZM1073.25 844.393C1073.81 844.393 1074.25 843.945 1074.25 843.393H1071.25C1071.25 842.288 1072.15 841.393 1073.25 841.393V844.393ZM1081.16 844.393H1073.25V841.393H1081.16V844.393ZM1083.66 841.893C1083.66 843.274 1082.54 844.393 1081.16 844.393V841.393C1080.88 841.393 1080.66 841.617 1080.66 841.893H1083.66ZM1083.66 827.01V841.893H1080.66V827.01H1083.66ZM1100.12 841.393C1099.67 841.393 1099.45 841.933 1099.77 842.248L1101.88 840.12C1103.47 841.693 1102.35 844.393 1100.12 844.393V841.393ZM1084.16 841.393H1100.12V844.393H1084.16V841.393ZM1084.66 841.893C1084.66 841.617 1084.43 841.393 1084.16 841.393V844.393C1082.78 844.393 1081.66 843.274 1081.66 841.893H1084.66ZM1084.66 826.021V841.893H1081.66V826.021H1084.66ZM1083.8 826.376C1084.12 826.689 1084.66 826.466 1084.66 826.021H1081.66C1081.66 823.798 1084.34 822.681 1085.92 824.248L1083.8 826.376ZM1099.77 842.248L1083.8 826.376L1085.92 824.248L1101.88 840.12L1099.77 842.248ZM1146.07 844.301C1146.46 844.697 1147.1 844.697 1147.49 844.301L1145.36 842.191C1146.14 841.4 1147.42 841.4 1148.2 842.191L1146.07 844.301ZM1146.07 842.895C1145.68 843.284 1145.68 843.912 1146.07 844.301L1148.2 842.191C1148.97 842.971 1148.97 844.225 1148.2 845.004L1146.07 842.895ZM1126.65 862.521L1146.07 842.895L1148.2 845.004L1128.79 864.63L1126.65 862.521ZM1127.38 862.521C1127.18 862.318 1126.85 862.318 1126.65 862.521L1128.79 864.63C1127.81 865.615 1126.22 865.615 1125.25 864.63L1127.38 862.521ZM1127.81 863.575C1127.81 864.403 1127.14 865.076 1126.31 865.076V862.076C1125.48 862.076 1124.81 862.749 1124.81 863.575H1127.81ZM1126.31 865.076H1126.3V862.076H1126.31V865.076ZM1126.3 865.076C1126.7 865.076 1127.08 864.917 1127.36 864.635L1125.22 862.525C1125.51 862.238 1125.9 862.076 1126.3 862.076V865.076ZM1127.36 864.635L1127.16 864.839L1125.02 862.729L1125.22 862.525L1127.36 864.635ZM1127.16 864.839C1126.29 865.709 1124.89 865.709 1124.03 864.839L1126.16 862.729C1125.85 862.412 1125.34 862.412 1125.02 862.729L1127.16 864.839ZM1124.03 864.839L1104.56 845.155L1106.69 843.045L1126.16 862.729L1124.03 864.839ZM1104.56 845.155C1103.7 844.292 1103.7 842.903 1104.56 842.041L1106.69 844.151C1106.99 843.844 1106.99 843.351 1106.69 843.045L1104.56 845.155ZM1104.56 842.041L1104.76 841.839L1106.89 843.949L1106.69 844.151L1104.56 842.041ZM1104.76 841.839C1104.48 842.115 1104.33 842.489 1104.33 842.877H1107.33C1107.33 843.278 1107.17 843.663 1106.89 843.949L1104.76 841.839ZM1104.33 842.877C1104.33 842.035 1105.01 841.353 1105.85 841.353V844.353C1106.67 844.353 1107.33 843.692 1107.33 842.877H1104.33ZM1105.85 841.353H1122.49V844.353H1105.85V841.353ZM1122.49 841.353C1122.05 841.353 1121.82 841.889 1122.14 842.205L1124.27 840.095C1125.83 841.674 1124.71 844.353 1122.49 844.353V841.353ZM1122.14 842.205L1104.41 824.282L1106.54 822.172L1124.27 840.095L1122.14 842.205ZM1104.41 824.282C1103.64 823.502 1103.64 822.248 1104.41 821.469L1106.54 823.579C1106.93 823.189 1106.93 822.562 1106.54 822.172L1104.41 824.282ZM1104.41 821.469C1105.19 820.677 1106.47 820.677 1107.25 821.469L1105.12 823.579C1105.51 823.974 1106.15 823.974 1106.54 823.579L1104.41 821.469ZM1107.25 821.469L1124.67 839.077L1122.54 841.187L1105.12 823.579L1107.25 821.469ZM1124.67 839.077C1124.36 838.759 1123.81 838.982 1123.81 839.428H1126.81C1126.81 841.662 1124.11 842.775 1122.54 841.187L1124.67 839.077ZM1123.81 839.428V822.631H1126.81V839.428H1123.81ZM1123.81 822.631C1123.81 821.526 1124.71 820.631 1125.81 820.631V823.631C1126.37 823.631 1126.81 823.183 1126.81 822.631H1123.81ZM1125.81 820.631C1126.92 820.631 1127.81 821.526 1127.81 822.631H1124.81C1124.81 823.183 1125.26 823.631 1125.81 823.631V820.631ZM1127.81 822.631V841.853H1124.81V822.631H1127.81ZM1127.81 841.853C1127.81 841.577 1127.59 841.353 1127.31 841.353V844.353C1125.93 844.353 1124.81 843.234 1124.81 841.853H1127.81ZM1127.31 841.353H1136.06V844.353H1127.31V841.353ZM1136.06 841.353C1137.16 841.353 1138.06 842.248 1138.06 843.353H1135.06C1135.06 843.905 1135.51 844.353 1136.06 844.353V841.353ZM1138.06 843.353C1138.06 844.457 1137.16 845.353 1136.06 845.353V842.353C1135.51 842.353 1135.06 842.801 1135.06 843.353H1138.06ZM1136.06 845.353H1127.31V842.353H1136.06V845.353ZM1127.31 845.353C1127.59 845.353 1127.81 845.129 1127.81 844.853H1124.81C1124.81 843.472 1125.93 842.353 1127.31 842.353V845.353ZM1127.81 844.853V863.575H1124.81V844.853H1127.81ZM1147.49 844.301L1127.38 864.63L1125.25 862.521L1145.36 842.191L1147.49 844.301ZM1124.67 859.8C1124.36 859.482 1123.81 859.704 1123.81 860.151H1126.81C1126.81 862.385 1124.11 863.497 1122.54 861.909L1124.67 859.8ZM1109.54 844.501L1124.67 859.8L1122.54 861.909L1107.4 846.611L1109.54 844.501ZM1109.18 845.353C1109.63 845.353 1109.85 844.817 1109.54 844.501L1107.4 846.611C1105.84 845.032 1106.96 842.353 1109.18 842.353V845.353ZM1124.31 845.353H1109.18V842.353H1124.31V845.353ZM1123.81 844.853C1123.81 845.129 1124.04 845.353 1124.31 845.353V842.353C1125.69 842.353 1126.81 843.472 1126.81 844.853H1123.81ZM1123.81 860.151V844.853H1126.81V860.151H1123.81Z" fill="#FCDC4D"/>
<circle cx="526" cy="638.429" r="100" fill="#EE6123" stroke="#541312" stroke-width="10"/>
<path d="M368.5 802.429C474.049 802.429 558 698.246 558 571.929C558 445.612 474.049 341.429 368.5 341.429C262.951 341.429 179 445.612 179 571.929C179 698.246 262.951 802.429 368.5 802.429Z" fill="#EE6123" stroke="#541312" stroke-width="10"/>
<ellipse cx="368" cy="499.207" rx="125" ry="152.778" fill="#ECF1FE"/>
<mask id="path-36-outside-6_14_4471" maskUnits="userSpaceOnUse" x="-5.19601" y="333.788" width="743.031" height="680.639" fill="black">
<rect fill="white" x="-5.19601" y="333.788" width="743.031" height="680.639"/>
<path fill-rule="evenodd" clip-rule="evenodd" d="M450.521 603.14L450.521 603.139L450.519 603.139C302.09 645.7 155.735 596.646 108.778 493.084C62.534 561.558 44.838 639.541 66.0151 713.395C111.663 872.589 320.651 952.341 532.9 891.618C533.004 891.588 533.109 891.558 533.214 891.528C639.392 861.082 706.955 771.843 684.119 692.206C661.284 612.571 556.699 572.694 450.521 603.14Z"/>
</mask>
<path fill-rule="evenodd" clip-rule="evenodd" d="M450.521 603.14L450.521 603.139L450.519 603.139C302.09 645.7 155.735 596.646 108.778 493.084C62.534 561.558 44.838 639.541 66.0151 713.395C111.663 872.589 320.651 952.341 532.9 891.618C533.004 891.588 533.109 891.558 533.214 891.528C639.392 861.082 706.955 771.843 684.119 692.206C661.284 612.571 556.699 572.694 450.521 603.14Z" fill="#ECF1FE"/>
<path d="M450.521 603.139L447.764 593.526L457.377 590.77L460.133 600.382L450.521 603.139ZM450.521 603.14L453.277 612.752L443.665 615.509L440.909 605.896L450.521 603.14ZM108.778 493.084L100.491 487.487L110.5 472.666L117.885 488.954L108.778 493.084ZM532.9 891.618L530.149 882.004L530.155 882.002L532.9 891.618ZM460.133 600.382L460.134 600.383L440.909 605.896L440.908 605.895L460.133 600.382ZM447.763 593.526L447.764 593.526L453.277 612.751L453.275 612.752L447.763 593.526ZM117.885 488.954C161.998 586.243 301.975 635.33 447.763 593.526L453.275 612.752C302.205 656.07 149.472 607.049 99.6704 497.213L117.885 488.954ZM56.4025 716.151C34.2452 638.879 52.9581 557.87 100.491 487.487L117.065 498.68C72.1098 565.247 55.4307 640.203 75.6277 710.638L56.4025 716.151ZM535.65 901.232C427.648 932.131 320.108 927.408 233.416 894.318C146.72 861.227 80.2881 799.45 56.4025 716.151L75.6277 710.638C97.3903 786.533 158.276 844.23 240.548 875.633C322.824 907.037 425.903 911.828 530.149 882.004L535.65 901.232ZM530.155 882.002C530.256 881.973 530.357 881.944 530.458 881.915L535.97 901.14C535.862 901.172 535.753 901.203 535.644 901.234L530.155 882.002ZM530.458 881.915C581.668 867.231 623.192 838.463 649.074 804.277C674.953 770.095 684.862 731.077 674.507 694.963L693.732 689.45C706.212 732.972 693.757 778.392 665.019 816.35C636.284 854.304 590.938 885.379 535.97 901.14L530.458 881.915ZM674.507 694.963C664.151 658.849 635.071 631.011 595.011 615.736C554.947 600.461 504.487 598.068 453.277 612.752L447.765 593.527C502.732 577.765 557.654 580.088 602.136 597.049C646.622 614.01 681.252 645.928 693.732 689.45L674.507 694.963Z" fill="#541312" mask="url(#path-36-outside-6_14_4471)"/>
<path fill-rule="evenodd" clip-rule="evenodd" d="M195.671 866.114C254.176 833.545 290.423 750.76 280.722 658.46C278.988 641.966 275.883 626.075 271.586 610.985C326.037 622.734 388.095 621.039 450.519 603.139L450.521 603.139L450.522 603.14C556.699 572.694 661.285 612.571 684.12 692.206C706.955 771.843 639.392 861.082 533.215 891.528L532.9 891.618C408.675 927.158 285.568 914.578 195.671 866.114Z" fill="#EE6123"/>
<path d="M279.554 103.724C303.252 131.966 291.821 180.572 254.023 212.288C216.225 244.005 166.373 246.822 142.675 218.58C118.977 190.338 86.6415 89.5734 124.44 57.857C162.238 26.1405 255.857 75.4827 279.554 103.724Z" fill="#EE6123"/>
<path d="M279.554 103.724C303.252 131.966 291.821 180.572 254.023 212.288C216.225 244.005 166.373 246.822 142.675 218.58C118.977 190.338 86.6415 89.5734 124.44 57.857C162.238 26.1405 255.857 75.4827 279.554 103.724Z" fill="#EE6123"/>
<path d="M279.554 103.724C303.252 131.966 291.821 180.572 254.023 212.288C216.225 244.005 166.373 246.822 142.675 218.58C118.977 190.338 86.6415 89.5734 124.44 57.857C162.238 26.1405 255.857 75.4827 279.554 103.724Z" stroke="#541312" stroke-width="10"/>
<path d="M279.554 103.724C303.252 131.966 291.821 180.572 254.023 212.288C216.225 244.005 166.373 246.822 142.675 218.58C118.977 190.338 86.6415 89.5734 124.44 57.857C162.238 26.1405 255.857 75.4827 279.554 103.724Z" stroke="#541312" stroke-width="10"/>
<path d="M245.872 122.706C259.357 138.777 252.852 166.436 231.343 184.484C209.834 202.532 181.465 204.135 167.98 188.064C154.495 171.993 136.094 114.653 157.603 96.6049C179.113 78.5566 232.386 106.635 245.872 122.706Z" fill="#ECF1FE"/>
<path d="M245.872 122.706C259.357 138.777 252.852 166.436 231.343 184.484C209.834 202.532 181.465 204.135 167.98 188.064C154.495 171.993 136.094 114.653 157.603 96.6049C179.113 78.5566 232.386 106.635 245.872 122.706Z" fill="#ECF1FE"/>
<path d="M593.787 218.58C570.09 246.822 520.238 244.005 482.439 212.288C444.641 180.572 433.21 131.966 456.908 103.724C480.606 75.4826 574.224 26.1405 612.023 57.8569C649.821 89.5733 617.485 190.338 593.787 218.58Z" fill="#EE6123"/>
<path d="M593.787 218.58C570.09 246.822 520.238 244.005 482.439 212.288C444.641 180.572 433.21 131.966 456.908 103.724C480.606 75.4826 574.224 26.1405 612.023 57.8569C649.821 89.5733 617.485 190.338 593.787 218.58Z" fill="#EE6123"/>
<path d="M593.787 218.58C570.09 246.822 520.238 244.005 482.439 212.288C444.641 180.572 433.21 131.966 456.908 103.724C480.606 75.4826 574.224 26.1405 612.023 57.8569C649.821 89.5733 617.485 190.338 593.787 218.58Z" stroke="#541312" stroke-width="10"/>
<path d="M593.787 218.58C570.09 246.822 520.238 244.005 482.439 212.288C444.641 180.572 433.21 131.966 456.908 103.724C480.606 75.4826 574.224 26.1405 612.023 57.8569C649.821 89.5733 617.485 190.338 593.787 218.58Z" stroke="#541312" stroke-width="10"/>
<path d="M569.246 188.705C555.761 204.776 527.392 203.173 505.883 185.125C484.374 167.076 477.869 139.417 491.354 123.346C504.839 107.275 558.113 79.1972 579.622 97.2455C601.132 115.294 582.731 172.634 569.246 188.705Z" fill="#ECF1FE"/>
<path d="M569.246 188.705C555.761 204.776 527.392 203.173 505.883 185.125C484.374 167.076 477.869 139.417 491.354 123.346C504.839 107.275 558.113 79.1972 579.622 97.2455C601.132 115.294 582.731 172.634 569.246 188.705Z" fill="#ECF1FE"/>
<path d="M368 490.929C424.451 490.929 475.405 469.795 512.207 445.101C530.618 432.747 545.619 419.416 556.078 407.222C561.305 401.128 565.469 395.235 568.352 389.812C571.188 384.476 573 379.193 573 374.429C573 364.486 565.342 356.347 554.901 349.929C544.18 343.338 528.997 337.583 510.68 332.821C473.969 323.276 423.526 317.429 368 317.429C312.474 317.429 262.031 323.276 225.32 332.821C207.003 337.583 191.82 343.338 181.099 349.929C170.658 356.347 163 364.486 163 374.429C163 379.193 164.812 384.476 167.648 389.812C170.531 395.235 174.695 401.128 179.922 407.222C190.381 419.416 205.382 432.747 223.793 445.101C260.595 469.795 311.549 490.929 368 490.929Z" fill="#ECF1FE" stroke="#541312" stroke-width="10"/>
<mask id="path-44-outside-7_14_4471" maskUnits="userSpaceOnUse" x="108" y="105.429" width="520" height="320" fill="black">
<rect fill="white" x="108" y="105.429" width="520" height="320"/>
<path fill-rule="evenodd" clip-rule="evenodd" d="M618 365.429C618 366.518 617.993 367.605 617.979 368.69C612.547 364.563 602.856 360.672 589.637 357.129C591.848 371.194 593 385.662 593 400.429C593 401.518 592.994 402.605 592.981 403.69C576.598 389.861 517.168 378.68 439.467 374.357C440.472 372.605 441 370.79 441 368.929C441 354.294 408.317 342.429 368 342.429C327.683 342.429 295 354.294 295 368.929C295 370.79 295.528 372.605 296.533 374.357C218.832 378.68 159.402 389.861 143.019 403.69C143.006 402.605 143 401.518 143 400.429C143 385.662 144.152 371.194 146.363 357.129C133.144 360.672 123.453 364.563 118.021 368.69C118.007 367.605 118 366.518 118 365.429C118 227.358 229.929 115.429 368 115.429C506.071 115.429 618 227.358 618 365.429Z"/>
</mask>
<path fill-rule="evenodd" clip-rule="evenodd" d="M618 365.429C618 366.518 617.993 367.605 617.979 368.69C612.547 364.563 602.856 360.672 589.637 357.129C591.848 371.194 593 385.662 593 400.429C593 401.518 592.994 402.605 592.981 403.69C576.598 389.861 517.168 378.68 439.467 374.357C440.472 372.605 441 370.79 441 368.929C441 354.294 408.317 342.429 368 342.429C327.683 342.429 295 354.294 295 368.929C295 370.79 295.528 372.605 296.533 374.357C218.832 378.68 159.402 389.861 143.019 403.69C143.006 402.605 143 401.518 143 400.429C143 385.662 144.152 371.194 146.363 357.129C133.144 360.672 123.453 364.563 118.021 368.69C118.007 367.605 118 366.518 118 365.429C118 227.358 229.929 115.429 368 115.429C506.071 115.429 618 227.358 618 365.429Z" fill="#EE6123"/>
<path d="M617.979 368.69L611.93 376.653L627.725 388.651L627.978 368.818L617.979 368.69ZM589.637 357.129L592.226 347.47L577.371 343.488L579.759 358.682L589.637 357.129ZM592.981 403.69L586.531 411.332L602.737 425.01L602.981 403.805L592.981 403.69ZM439.467 374.357L430.792 369.383L422.731 383.442L438.912 384.342L439.467 374.357ZM296.533 374.357L297.088 384.342L313.269 383.442L305.208 369.383L296.533 374.357ZM143.019 403.69L133.019 403.805L133.263 425.01L149.469 411.332L143.019 403.69ZM146.363 357.129L156.241 358.682L158.629 343.488L143.774 347.47L146.363 357.129ZM118.021 368.69L108.022 368.818L108.275 388.651L124.07 376.653L118.021 368.69ZM627.978 368.818C627.993 367.69 628 366.56 628 365.429H608C608 366.475 607.993 367.52 607.98 368.562L627.978 368.818ZM587.048 366.788C600.094 370.285 608.151 373.782 611.93 376.653L624.028 360.727C616.943 355.344 605.618 351.06 592.226 347.47L587.048 366.788ZM603 400.429C603 385.141 601.807 370.154 599.516 355.577L579.759 358.682C581.888 372.233 583 386.182 583 400.429H603ZM602.981 403.805C602.994 402.681 603 401.556 603 400.429H583C583 401.479 582.994 402.528 582.982 403.575L602.981 403.805ZM438.912 384.342C477.473 386.487 511.292 390.325 537.349 395.283C550.387 397.763 561.304 400.491 569.819 403.358C578.569 406.304 583.903 409.113 586.531 411.332L599.431 396.048C593.867 391.352 585.63 387.578 576.201 384.403C566.536 381.149 554.667 378.219 541.087 375.635C513.909 370.464 479.163 366.55 440.023 364.373L438.912 384.342ZM431 368.929C431 368.901 431.006 368.9 430.992 368.947C430.977 369.001 430.929 369.145 430.792 369.383L448.142 379.332C449.896 376.274 451 372.76 451 368.929H431ZM368 352.429C387.307 352.429 404.35 355.286 416.207 359.591C422.176 361.758 426.303 364.102 428.75 366.203C431.231 368.332 431 369.288 431 368.929H451C451 361.252 446.683 355.237 441.776 351.026C436.835 346.785 430.272 343.42 423.031 340.791C408.467 335.504 389.009 332.429 368 332.429V352.429ZM305 368.929C305 369.288 304.769 368.332 307.25 366.203C309.697 364.102 313.824 361.758 319.793 359.591C331.65 355.286 348.693 352.429 368 352.429V332.429C346.991 332.429 327.533 335.504 312.969 340.791C305.728 343.42 299.165 346.785 294.224 351.026C289.317 355.237 285 361.252 285 368.929H305ZM305.208 369.383C305.071 369.145 305.023 369.001 305.008 368.947C304.994 368.9 305 368.901 305 368.929H285C285 372.76 286.104 376.274 287.858 379.332L305.208 369.383ZM149.469 411.332C152.097 409.113 157.431 406.304 166.181 403.358C174.696 400.491 185.613 397.763 198.651 395.283C224.708 390.325 258.527 386.487 297.088 384.342L295.977 364.373C256.837 366.55 222.091 370.464 194.913 375.635C181.333 378.219 169.464 381.149 159.799 384.403C150.37 387.578 142.133 391.352 136.569 396.048L149.469 411.332ZM133 400.429C133 401.556 133.006 402.681 133.019 403.805L153.018 403.575C153.006 402.528 153 401.479 153 400.429H133ZM136.484 355.577C134.193 370.154 133 385.141 133 400.429H153C153 386.183 154.112 372.233 156.241 358.682L136.484 355.577ZM124.07 376.653C127.849 373.782 135.906 370.285 148.952 366.788L143.774 347.47C130.382 351.06 119.057 355.344 111.972 360.727L124.07 376.653ZM108 365.429C108 366.56 108.007 367.69 108.022 368.818L128.02 368.562C128.007 367.519 128 366.475 128 365.429H108ZM368 105.429C224.406 105.429 108 221.835 108 365.429H128C128 232.881 235.452 125.429 368 125.429V105.429ZM628 365.429C628 221.835 511.594 105.429 368 105.429V125.429C500.548 125.429 608 232.881 608 365.429H628Z" fill="#541312" mask="url(#path-44-outside-7_14_4471)"/>
<path fill-rule="evenodd" clip-rule="evenodd" d="M562.139 390.621C533.893 383.027 490.643 377.204 439.467 374.357C440.472 372.605 441 370.79 441 368.929C441 354.294 408.317 342.429 368 342.429C327.683 342.429 295 354.294 295 368.929C295 370.79 295.528 372.605 296.533 374.357C245.357 377.204 202.107 383.027 173.861 390.621C195.452 426.21 274.182 485.929 368 485.929C461.817 485.929 540.548 426.21 562.139 390.621Z" fill="#ECF1FE"/>
<path fill-rule="evenodd" clip-rule="evenodd" d="M297.868 361.55C296.001 363.892 295 366.368 295 368.929C295 370.789 295.528 372.605 296.533 374.357C218.832 378.68 159.402 389.861 143.019 403.69C143.006 402.604 143 401.518 143 400.429C143 385.662 144.152 371.193 146.363 357.129C133.144 360.672 123.453 364.563 118.021 368.69C118.007 367.604 118 366.518 118 365.429C118 340.663 121.601 316.737 128.309 294.148C152.679 285.562 186.48 286.543 220.493 298.923C258.072 312.601 286.51 336.772 297.868 361.55Z" fill="#ECF1FE"/>
<path fill-rule="evenodd" clip-rule="evenodd" d="M617.979 368.69C617.993 367.605 618 366.518 618 365.429C618 340.758 614.426 316.921 607.768 294.409C583.348 285.557 549.227 286.437 514.889 298.935C477.557 312.523 449.246 336.467 437.74 361.075C439.859 363.557 441 366.195 441 368.929C441 370.79 440.472 372.605 439.467 374.357C517.168 378.68 576.598 389.861 592.981 403.69C592.994 402.605 593 401.518 593 400.429C593 385.662 591.848 371.194 589.637 357.129C602.856 360.672 612.547 364.563 617.979 368.69Z" fill="#ECF1FE"/>
<path d="M408 370.829C408 376.573 390.091 393.129 368 393.129C345.909 393.129 328 376.573 328 370.829C328 365.085 345.909 360.429 368 360.429C390.091 360.429 408 365.085 408 370.829Z" fill="#541312"/>
<ellipse cx="307.038" cy="300.929" rx="24.0385" ry="37.5" fill="#541312"/>
<ellipse cx="315.013" cy="287.929" rx="8.01282" ry="12.5" fill="#ECF1FE"/>
<ellipse cx="429.038" cy="300.929" rx="24.0385" ry="37.5" fill="#541312"/>
<ellipse cx="437.013" cy="287.929" rx="8.01282" ry="12.5" fill="#ECF1FE"/>
<path d="M276 227.429L291.453 222.391C301.35 219.164 312.008 219.106 321.939 222.226L338.5 227.429" stroke="#541312" stroke-width="10"/>
<path d="M398 227.429L413.453 222.391C423.35 219.164 434.008 219.106 443.939 222.226L460.5 227.429" stroke="#541312" stroke-width="10"/>
<mask id="path-56-inside-8_14_4471" fill="white">
<path fill-rule="evenodd" clip-rule="evenodd" d="M431.823 406.213C424.357 415.076 413.176 420.707 400.681 420.707C387.367 420.707 375.546 414.315 368.12 404.431C360.695 414.315 348.874 420.707 335.56 420.707C323.064 420.707 311.884 415.076 304.418 406.212C303.489 408.163 303 410.185 303 412.259C303 428.272 332.155 474.431 368.12 474.431C404.085 474.431 433.24 428.272 433.24 412.259C433.24 410.185 432.751 408.163 431.823 406.213Z"/>
</mask>
<path fill-rule="evenodd" clip-rule="evenodd" d="M431.823 406.213C424.357 415.076 413.176 420.707 400.681 420.707C387.367 420.707 375.546 414.315 368.12 404.431C360.695 414.315 348.874 420.707 335.56 420.707C323.064 420.707 311.884 415.076 304.418 406.212C303.489 408.163 303 410.185 303 412.259C303 428.272 332.155 474.431 368.12 474.431C404.085 474.431 433.24 428.272 433.24 412.259C433.24 410.185 432.751 408.163 431.823 406.213Z" fill="#FB9197"/>
<path d="M431.823 406.213L440.851 401.913L434.175 387.898L424.174 399.771L431.823 406.213ZM368.12 404.431L376.115 398.424L368.12 387.783L360.125 398.424L368.12 404.431ZM304.418 406.212L312.066 399.77L302.066 387.898L295.39 401.912L304.418 406.212ZM424.174 399.771C418.527 406.475 410.103 410.707 400.681 410.707V430.707C416.249 430.707 430.186 423.678 439.471 412.656L424.174 399.771ZM400.681 410.707C390.644 410.707 381.733 405.902 376.115 398.424L360.125 410.438C369.359 422.727 384.089 430.707 400.681 430.707V410.707ZM360.125 398.424C354.507 405.902 345.597 410.707 335.56 410.707V430.707C352.152 430.707 366.882 422.727 376.115 410.438L360.125 398.424ZM335.56 410.707C326.138 410.707 317.713 406.474 312.066 399.77L296.769 412.655C306.054 423.677 319.991 430.707 335.56 430.707V410.707ZM295.39 401.912C293.879 405.082 293 408.567 293 412.259H313C313 411.804 313.098 411.243 313.446 410.513L295.39 401.912ZM293 412.259C293 418.621 295.668 426.202 299.176 433.207C302.854 440.549 308.094 448.52 314.53 455.915C327.102 470.361 345.899 484.431 368.12 484.431V464.431C354.377 464.431 340.613 455.421 329.617 442.785C324.268 436.639 319.972 430.067 317.059 424.251C313.976 418.097 313 413.902 313 412.259H293ZM368.12 484.431C390.341 484.431 409.138 470.361 421.71 455.915C428.146 448.52 433.386 440.549 437.064 433.207C440.572 426.202 443.24 418.621 443.24 412.259H423.24C423.24 413.902 422.263 418.097 419.181 424.251C416.268 430.067 411.972 436.639 406.623 442.785C395.627 455.421 381.863 464.431 368.12 464.431V484.431ZM443.24 412.259C443.24 408.567 442.361 405.083 440.851 401.913L422.794 410.513C423.142 411.243 423.24 411.804 423.24 412.259H443.24Z" fill="#541312" mask="url(#path-56-inside-8_14_4471)"/>
<mask id="path-58-outside-9_14_4471" maskUnits="userSpaceOnUse" x="146.449" y="31.4292" width="444" height="138" fill="black">
<rect fill="white" x="146.449" y="31.4292" width="444" height="138"/>
<path fill-rule="evenodd" clip-rule="evenodd" d="M568.55 157.057H168.449C209.091 89.0035 283.473 43.4292 368.499 43.4292C453.526 43.4292 527.908 89.0035 568.55 157.057Z"/>
</mask>
<path fill-rule="evenodd" clip-rule="evenodd" d="M568.55 157.057H168.449C209.091 89.0035 283.473 43.4292 368.499 43.4292C453.526 43.4292 527.908 89.0035 568.55 157.057Z" fill="#3BA99C"/>
<path d="M168.449 157.057L158.146 150.904L147.305 169.057H168.449V157.057ZM568.55 157.057V169.057H589.694L578.853 150.904L568.55 157.057ZM168.449 169.057H568.55V145.057H168.449V169.057ZM178.751 163.21C217.318 98.6322 287.869 55.4292 368.499 55.4292V31.4292C279.077 31.4292 200.864 79.3748 158.146 150.904L178.751 163.21ZM368.499 55.4292C449.13 55.4292 519.681 98.6322 558.248 163.21L578.853 150.904C536.135 79.3748 457.922 31.4292 368.499 31.4292V55.4292Z" fill="#541312" mask="url(#path-58-outside-9_14_4471)"/>
<mask id="path-60-outside-10_14_4471" maskUnits="userSpaceOnUse" x="119" y="145.056" width="499" height="144" fill="black">
<rect fill="white" x="119" y="145.056" width="499" height="144"/>
<path fill-rule="evenodd" clip-rule="evenodd" d="M168.796 157.056C165.235 157.056 161.928 158.942 160.212 162.064C141.591 195.952 131 234.875 131 276.272C131 276.273 131 276.273 131 276.273H606C606 276.273 606 276.273 606 276.272C606 234.875 595.409 195.952 576.788 162.064C575.072 158.942 571.765 157.056 568.204 157.056H168.796Z"/>
</mask>
<path fill-rule="evenodd" clip-rule="evenodd" d="M168.796 157.056C165.235 157.056 161.928 158.942 160.212 162.064C141.591 195.952 131 234.875 131 276.272C131 276.273 131 276.273 131 276.273H606C606 276.273 606 276.273 606 276.272C606 234.875 595.409 195.952 576.788 162.064C575.072 158.942 571.765 157.056 568.204 157.056H168.796Z" fill="#3BA99C"/>
<path d="M576.788 162.064L566.271 167.843L576.788 162.064ZM149.696 156.285C130.126 191.899 119 232.804 119 276.272H143C143 236.946 153.057 200.005 170.729 167.843L149.696 156.285ZM131 288.273H606V264.273H131V288.273ZM618 276.272C618 232.804 606.874 191.899 587.304 156.285L566.271 167.843C583.943 200.005 594 236.946 594 276.272H618ZM568.204 145.056H168.796V169.056H568.204V145.056ZM606 288.273C612.906 288.273 618 282.618 618 276.272H594C594 269.927 599.094 264.273 606 264.273V288.273ZM119 276.272C119 282.9 124.373 288.273 131 288.273V264.273C137.628 264.273 143 269.645 143 276.272H119ZM587.304 156.285C583.403 149.184 575.978 145.056 568.204 145.056V169.056C567.552 169.056 566.742 168.701 566.271 167.843L587.304 156.285ZM170.729 167.843C170.258 168.701 169.448 169.056 168.796 169.056V145.056C161.022 145.056 153.597 149.184 149.696 156.285L170.729 167.843Z" fill="#541312" mask="url(#path-60-outside-10_14_4471)"/>
<rect x="453.049" y="143.812" width="89.8272" height="47.9136" fill="#541312" stroke="#541312" stroke-width="6"/>
<path fill-rule="evenodd" clip-rule="evenodd" d="M477.153 147.277C477.152 147.278 477.153 147.279 477.153 147.279H477.155C477.156 147.279 477.157 147.28 477.157 147.281V165.965C477.157 166.518 477.605 166.965 478.157 166.965H495.962C496.515 166.965 496.962 166.518 496.962 165.965V147.779C496.962 147.502 497.186 147.279 497.462 147.279C497.738 147.279 497.962 147.502 497.962 147.779V166.965C497.962 166.965 497.962 166.965 497.963 166.965C497.963 166.965 497.963 166.966 497.963 166.966V167.965L497.963 167.965L497.963 167.965L497.963 167.965L497.963 167.965L497.963 167.965L497.963 167.966C497.963 167.966 497.962 167.966 497.962 167.966C497.962 167.967 497.962 167.967 497.962 167.967V188.151C497.962 188.427 497.738 188.651 497.462 188.651C497.186 188.651 496.962 188.427 496.962 188.151V171.365C496.962 170.475 495.888 170.029 495.257 170.656L477.157 188.651C477.157 188.651 477.157 188.652 477.156 188.652C477.156 188.652 477.156 188.652 477.156 188.652C477.156 188.652 477.155 188.652 477.155 188.652L477.155 188.652C477.154 188.653 477.153 188.653 477.152 188.652C477.151 188.652 477.151 188.652 477.15 188.652H476.855C476.47 188.652 476.157 188.339 476.157 187.953C476.157 187.767 476.083 187.589 475.951 187.458L456.349 167.965C455.958 167.577 455.958 166.944 456.349 166.555L476.092 146.922C476.287 146.728 476.602 146.728 476.797 146.922L477.153 147.276C477.153 147.277 477.153 147.277 477.153 147.277ZM476.157 183.848C476.157 184.737 475.083 185.184 474.452 184.557L457.771 167.969C457.378 167.578 457.378 166.942 457.771 166.551L474.452 149.964C475.083 149.336 476.157 149.783 476.157 150.673V165.965C476.157 166.518 475.709 166.965 475.157 166.965H467.254C466.978 166.965 466.754 167.189 466.754 167.465C466.754 167.742 466.978 167.965 467.254 167.965H475.157C475.709 167.965 476.157 168.413 476.157 168.965V183.848ZM494.826 169.675C495.459 169.045 495.013 167.965 494.121 167.965H478.157C477.605 167.965 477.157 168.413 477.157 168.965V184.837C477.157 185.727 478.231 186.173 478.862 185.546L494.826 169.675ZM540.423 167.612C540.619 167.81 540.938 167.81 541.134 167.612C541.327 167.417 541.327 167.104 541.134 166.909L521.72 147.283C521.333 146.892 520.701 146.892 520.314 147.283C520.314 147.283 520.314 147.282 520.313 147.282H520.3C520.296 147.282 520.292 147.281 520.29 147.278L520.089 147.075C519.815 146.798 519.368 146.798 519.094 147.075L499.624 166.758C499.348 167.037 499.348 167.484 499.624 167.763L499.823 167.964C499.828 167.969 499.83 167.975 499.83 167.981C499.83 167.995 499.841 168.006 499.854 168.006H516.492C517.381 168.006 517.828 169.077 517.203 169.709L499.475 187.632C499.282 187.826 499.282 188.14 499.475 188.335C499.67 188.533 499.99 188.533 500.185 188.335L517.603 170.727C518.231 170.091 519.314 170.536 519.314 171.43V188.228C519.314 188.504 519.538 188.728 519.814 188.728C520.09 188.728 520.314 188.504 520.314 188.228V169.006C520.314 168.453 520.762 168.006 521.314 168.006H530.06C530.336 168.006 530.56 167.782 530.56 167.506C530.56 167.229 530.336 167.006 530.06 167.006H521.314C520.762 167.006 520.314 166.558 520.314 166.006V147.283L540.423 167.612ZM519.314 150.707C519.314 149.814 518.231 149.369 517.603 150.004L502.47 165.302C501.846 165.934 502.293 167.006 503.181 167.006H518.314C518.866 167.006 519.314 166.558 519.314 166.006V150.707Z" fill="#541312"/>
<path d="M477.153 147.277L478.21 148.342L478.211 148.341L477.153 147.277ZM497.963 167.965H496.463V168.301L496.606 168.604L497.963 167.965ZM497.963 167.965L499.461 168.051L499.482 167.671L499.32 167.327L497.963 167.965ZM497.963 167.965L499.356 168.522L499.447 168.295L499.461 168.051L497.963 167.965ZM497.963 167.965L499.024 169.026L499.242 168.808L499.356 168.522L497.963 167.965ZM497.963 167.965L498.564 169.34L498.824 169.226L499.024 169.026L497.963 167.965ZM497.963 167.965L497.362 166.591L497.106 166.703L496.907 166.9L497.963 167.965ZM497.963 167.966L499.017 169.033L499.018 169.031L497.963 167.966ZM497.962 167.966L496.557 167.443L496.555 167.449L497.962 167.966ZM495.257 170.656L496.315 171.719V171.719L495.257 170.656ZM477.157 188.651L476.1 187.587L476.097 187.591L477.157 188.651ZM477.156 188.652L477.778 190.017L477.785 190.013L477.793 190.01L477.156 188.652ZM477.155 188.652L478.212 189.717L478.216 189.713L477.155 188.652ZM477.155 188.652L476.098 187.588L476.098 187.588L477.155 188.652ZM477.152 188.652L478.209 187.588L478.208 187.587L477.152 188.652ZM475.951 187.458L477.009 186.395L477.009 186.395L475.951 187.458ZM456.349 167.965L457.407 166.902H457.407L456.349 167.965ZM456.349 166.555L455.292 165.492L455.292 165.492L456.349 166.555ZM476.092 146.922L475.034 145.859L475.034 145.859L476.092 146.922ZM476.797 146.922L477.855 145.859V145.859L476.797 146.922ZM477.153 147.276L478.211 146.213L478.211 146.213L477.153 147.276ZM474.452 184.557L475.51 183.493L474.452 184.557ZM457.771 167.969L456.714 169.033H456.714L457.771 167.969ZM457.771 166.551L456.714 165.488H456.714L457.771 166.551ZM474.452 149.964L473.394 148.9L473.394 148.9L474.452 149.964ZM494.826 169.675L493.768 168.611L493.768 168.611L494.826 169.675ZM478.862 185.546L477.804 184.483H477.804L478.862 185.546ZM541.134 167.612L542.2 168.667L542.2 168.667L541.134 167.612ZM540.423 167.612L539.357 168.667L539.357 168.667L540.423 167.612ZM541.134 166.909L542.2 165.854L542.2 165.854L541.134 166.909ZM521.72 147.283L520.654 148.338L520.654 148.338L521.72 147.283ZM520.29 147.278L519.223 148.333L519.224 148.333L520.29 147.278ZM520.089 147.075L521.155 146.02V146.02L520.089 147.075ZM519.094 147.075L520.16 148.13V148.13L519.094 147.075ZM499.624 166.758L500.69 167.813L500.69 167.813L499.624 166.758ZM499.624 167.763L500.69 166.708L500.69 166.708L499.624 167.763ZM499.823 167.964L498.757 169.019L498.757 169.019L499.823 167.964ZM517.203 169.709L518.27 170.764V170.764L517.203 169.709ZM499.475 187.632L498.408 186.577L499.475 187.632ZM499.475 188.335L500.541 187.28L500.541 187.28L499.475 188.335ZM500.185 188.335L501.252 189.39L501.252 189.39L500.185 188.335ZM517.603 170.727L516.536 169.672V169.672L517.603 170.727ZM517.603 150.004L518.669 151.059V151.059L517.603 150.004ZM502.47 165.302L501.404 164.247L502.47 165.302ZM477.153 145.779C478.488 145.779 479.162 147.397 478.21 148.342L476.096 146.213C475.143 147.159 475.817 148.779 477.153 148.779V145.779ZM477.155 145.779H477.153V148.779H477.155V145.779ZM478.657 147.281C478.657 146.45 477.984 145.779 477.155 145.779V148.779C476.329 148.779 475.657 148.109 475.657 147.281H478.657ZM478.657 165.965V147.281H475.657V165.965H478.657ZM478.157 165.465C478.433 165.465 478.657 165.689 478.657 165.965H475.657C475.657 167.346 476.776 168.465 478.157 168.465V165.465ZM495.962 165.465H478.157V168.465H495.962V165.465ZM495.462 165.965C495.462 165.689 495.686 165.465 495.962 165.465V168.465C497.343 168.465 498.462 167.346 498.462 165.965H495.462ZM495.462 147.779V165.965H498.462V147.779H495.462ZM497.462 145.779C496.358 145.779 495.462 146.674 495.462 147.779H498.462C498.462 148.331 498.015 148.779 497.462 148.779V145.779ZM499.462 147.779C499.462 146.674 498.567 145.779 497.462 145.779V148.779C496.91 148.779 496.462 148.331 496.462 147.779H499.462ZM499.462 166.965V147.779H496.462V166.965H499.462ZM497.963 165.465C498.791 165.465 499.462 166.137 499.462 166.965H496.462C496.462 167.794 497.134 168.465 497.963 168.465V165.465ZM499.463 166.966C499.463 166.145 498.799 165.465 497.963 165.465V168.465C497.127 168.465 496.463 167.786 496.463 166.966H499.463ZM499.463 167.965V166.966H496.463V167.965H499.463ZM499.32 167.327L499.32 167.327L496.606 168.604L496.606 168.604L499.32 167.327ZM499.461 168.051L499.461 168.051L496.466 167.88L496.466 167.88L499.461 168.051ZM499.356 168.522L499.356 168.522L496.57 167.408L496.57 167.408L499.356 168.522ZM499.024 169.026L499.024 169.026L496.903 166.905L496.902 166.905L499.024 169.026ZM498.564 169.34L498.564 169.34L497.362 166.591L497.362 166.591L498.564 169.34ZM499.018 169.031L499.019 169.031L496.907 166.9L496.907 166.9L499.018 169.031ZM499.368 168.49C499.293 168.692 499.174 168.878 499.017 169.033L496.909 166.899C496.751 167.054 496.632 167.24 496.557 167.443L499.368 168.49ZM499.462 167.967C499.462 168.159 499.425 168.334 499.37 168.484L496.555 167.449C496.499 167.599 496.462 167.774 496.462 167.967H499.462ZM499.462 188.151V167.967H496.462V188.151H499.462ZM497.462 190.151C498.567 190.151 499.462 189.256 499.462 188.151H496.462C496.462 187.599 496.91 187.151 497.462 187.151V190.151ZM495.462 188.151C495.462 189.256 496.358 190.151 497.462 190.151V187.151C498.015 187.151 498.462 187.599 498.462 188.151H495.462ZM495.462 171.365V188.151H498.462V171.365H495.462ZM496.315 171.719C495.999 172.033 495.462 171.81 495.462 171.365H498.462C498.462 169.141 495.777 168.024 494.2 169.592L496.315 171.719ZM478.215 189.715L496.315 171.719L494.2 169.592L476.1 187.587L478.215 189.715ZM477.156 190.152C477.554 190.152 477.936 189.994 478.218 189.712L476.097 187.591C476.378 187.309 476.759 187.152 477.156 187.152V190.152ZM477.793 190.01C477.593 190.103 477.376 190.152 477.156 190.152V187.152C476.936 187.152 476.718 187.2 476.518 187.294L477.793 190.01ZM478.216 189.713C478.09 189.838 477.942 189.942 477.778 190.017L476.534 187.287C476.369 187.362 476.221 187.465 476.095 187.591L478.216 189.713ZM478.212 189.717L478.212 189.717L476.099 187.587L476.098 187.588L478.212 189.717ZM476.095 189.716C476.68 190.299 477.626 190.299 478.212 189.716L476.098 187.588C476.682 187.008 477.625 187.008 478.209 187.588L476.095 189.716ZM477.15 190.152C476.753 190.152 476.374 189.994 476.096 189.718L478.208 187.587C477.928 187.31 477.549 187.152 477.15 187.152V190.152ZM476.855 190.152H477.15V187.152H476.855V190.152ZM474.657 187.953C474.657 189.167 475.641 190.152 476.855 190.152V187.152C477.298 187.152 477.657 187.511 477.657 187.953H474.657ZM474.893 188.522C474.742 188.371 474.657 188.167 474.657 187.953H477.657C477.657 187.368 477.424 186.807 477.009 186.395L474.893 188.522ZM455.292 169.029L474.893 188.522L477.009 186.395L457.407 166.902L455.292 169.029ZM455.292 165.492C454.311 166.467 454.311 168.054 455.292 169.029L457.407 166.902C457.606 167.099 457.606 167.421 457.407 167.619L455.292 165.492ZM475.034 145.859L455.292 165.492L457.407 167.619L477.15 147.986L475.034 145.859ZM477.855 145.859C477.074 145.083 475.814 145.083 475.034 145.859L477.15 147.986C476.759 148.374 476.129 148.374 475.739 147.986L477.855 145.859ZM478.211 146.213L477.855 145.859L475.739 147.986L476.095 148.34L478.211 146.213ZM478.211 148.341C478.801 147.754 478.8 146.8 478.211 146.213L476.095 148.34C475.506 147.754 475.506 146.8 476.095 146.214L478.211 148.341ZM473.394 185.621C474.971 187.189 477.657 186.072 477.657 183.848H474.657C474.657 183.403 475.194 183.18 475.51 183.493L473.394 185.621ZM456.714 169.033L473.394 185.621L475.51 183.493L458.829 166.906L456.714 169.033ZM456.714 165.488C455.731 166.465 455.731 168.056 456.714 169.033L458.829 166.906C459.026 167.101 459.026 167.419 458.829 167.615L456.714 165.488ZM473.394 148.9L456.714 165.488L458.829 167.615L475.51 151.027L473.394 148.9ZM477.657 150.673C477.657 148.449 474.971 147.332 473.394 148.9L475.51 151.027C475.194 151.341 474.657 151.117 474.657 150.673H477.657ZM477.657 165.965V150.673H474.657V165.965H477.657ZM475.157 168.465C476.538 168.465 477.657 167.346 477.657 165.965H474.657C474.657 165.689 474.881 165.465 475.157 165.465V168.465ZM467.254 168.465H475.157V165.465H467.254V168.465ZM468.254 167.465C468.254 168.018 467.806 168.465 467.254 168.465V165.465C466.149 165.465 465.254 166.361 465.254 167.465H468.254ZM467.254 166.465C467.806 166.465 468.254 166.913 468.254 167.465H465.254C465.254 168.57 466.149 169.465 467.254 169.465V166.465ZM475.157 166.465H467.254V169.465H475.157V166.465ZM477.657 168.965C477.657 167.585 476.538 166.465 475.157 166.465V169.465C474.881 169.465 474.657 169.242 474.657 168.965H477.657ZM477.657 183.848V168.965H474.657V183.848H477.657ZM494.121 169.465C493.675 169.465 493.452 168.925 493.768 168.611L495.883 170.738C497.465 169.165 496.351 166.465 494.121 166.465V169.465ZM478.157 169.465H494.121V166.465H478.157V169.465ZM478.657 168.965C478.657 169.242 478.433 169.465 478.157 169.465V166.465C476.776 166.465 475.657 167.585 475.657 168.965H478.657ZM478.657 184.837V168.965H475.657V184.837H478.657ZM477.804 184.483C478.12 184.169 478.657 184.392 478.657 184.837H475.657C475.657 187.061 478.343 188.178 479.92 186.61L477.804 184.483ZM493.768 168.611L477.804 184.483L479.92 186.61L495.883 170.738L493.768 168.611ZM540.067 166.557C540.459 166.162 541.098 166.162 541.489 166.557L539.357 168.667C540.139 169.458 541.417 169.458 542.2 168.667L540.067 166.557ZM540.067 167.964C539.682 167.574 539.682 166.947 540.067 166.557L542.2 168.667C542.971 167.888 542.971 166.633 542.2 165.854L540.067 167.964ZM520.654 148.338L540.067 167.964L542.2 165.854L522.787 146.228L520.654 148.338ZM521.38 148.338C521.18 148.54 520.854 148.54 520.654 148.338L522.787 146.228C521.813 145.243 520.222 145.243 519.247 146.228L521.38 148.338ZM521.814 147.283C521.814 146.455 521.143 145.782 520.313 145.782V148.782C519.484 148.782 518.814 148.11 518.814 147.283H521.814ZM520.313 145.782H520.3V148.782H520.313V145.782ZM520.3 145.782C520.697 145.782 521.077 145.941 521.356 146.223L519.224 148.333C519.508 148.62 519.895 148.782 520.3 148.782V145.782ZM521.356 146.223L521.155 146.02L519.022 148.13L519.223 148.333L521.356 146.223ZM521.155 146.02C520.294 145.15 518.888 145.15 518.028 146.02L520.16 148.13C519.847 148.446 519.335 148.446 519.022 148.13L521.155 146.02ZM518.028 146.02L498.557 165.703L500.69 167.813L520.16 148.13L518.028 146.02ZM498.557 165.703C497.704 166.566 497.704 167.955 498.557 168.818L500.69 166.708C500.993 167.014 500.993 167.507 500.69 167.813L498.557 165.703ZM498.557 168.818L498.757 169.019L500.889 166.91L500.69 166.708L498.557 168.818ZM498.757 169.019C498.483 168.743 498.33 168.37 498.33 167.981H501.33C501.33 167.58 501.172 167.195 500.889 166.909L498.757 169.019ZM498.33 167.981C498.33 168.823 499.012 169.506 499.854 169.506V166.506C500.669 166.506 501.33 167.166 501.33 167.981H498.33ZM499.854 169.506H516.492V166.506H499.854V169.506ZM516.492 169.506C516.048 169.506 515.825 168.97 516.137 168.654L518.27 170.764C519.831 169.185 518.713 166.506 516.492 166.506V169.506ZM516.137 168.654L498.408 186.577L500.541 188.686L518.27 170.764L516.137 168.654ZM498.408 186.577C497.637 187.356 497.637 188.61 498.408 189.39L500.541 187.28C500.926 187.67 500.926 188.297 500.541 188.686L498.408 186.577ZM498.408 189.39C499.191 190.181 500.469 190.181 501.252 189.39L499.119 187.28C499.51 186.884 500.15 186.884 500.541 187.28L498.408 189.39ZM501.252 189.39L518.669 171.782L516.536 169.672L499.119 187.28L501.252 189.39ZM518.669 171.782C518.355 172.099 517.814 171.877 517.814 171.43H520.814C520.814 169.196 518.107 168.084 516.536 169.672L518.669 171.782ZM517.814 171.43V188.228H520.814V171.43H517.814ZM517.814 188.228C517.814 189.332 518.709 190.228 519.814 190.228V187.228C520.366 187.228 520.814 187.675 520.814 188.228H517.814ZM519.814 190.228C520.918 190.228 521.814 189.332 521.814 188.228H518.814C518.814 187.675 519.262 187.228 519.814 187.228V190.228ZM521.814 188.228V169.006H518.814V188.228H521.814ZM521.814 169.006C521.814 169.282 521.59 169.506 521.314 169.506V166.506C519.933 166.506 518.814 167.625 518.814 169.006H521.814ZM521.314 169.506H530.06V166.506H521.314V169.506ZM530.06 169.506C531.165 169.506 532.06 168.61 532.06 167.506H529.06C529.06 166.953 529.508 166.506 530.06 166.506V169.506ZM532.06 167.506C532.06 166.401 531.165 165.506 530.06 165.506V168.506C529.508 168.506 529.06 168.058 529.06 167.506H532.06ZM530.06 165.506H521.314V168.506H530.06V165.506ZM521.314 165.506C521.59 165.506 521.814 165.729 521.814 166.006H518.814C518.814 167.386 519.933 168.506 521.314 168.506V165.506ZM521.814 166.006V147.283H518.814V166.006H521.814ZM541.489 166.557L521.38 146.228L519.247 148.338L539.357 168.667L541.489 166.557ZM518.669 151.059C518.355 151.377 517.814 151.154 517.814 150.707H520.814C520.814 148.473 518.107 147.361 516.536 148.949L518.669 151.059ZM503.537 166.357L518.669 151.059L516.536 148.949L501.404 164.247L503.537 166.357ZM503.181 165.506C503.625 165.506 503.849 166.041 503.537 166.357L501.404 164.247C499.842 165.826 500.961 168.506 503.181 168.506V165.506ZM518.314 165.506H503.181V168.506H518.314V165.506ZM517.814 166.006C517.814 165.729 518.038 165.506 518.314 165.506V168.506C519.695 168.506 520.814 167.386 520.814 166.006H517.814ZM517.814 150.707V166.006H520.814V150.707H517.814Z" fill="#3BA99C"/>
</svg>
