<svg width="737" height="1011" viewBox="0 0 737 1011" fill="none" xmlns="http://www.w3.org/2000/svg">
<circle cx="526" cy="638" r="100" fill="#EE6123" stroke="#541312" stroke-width="10"/>
<path d="M368.5 802C474.049 802 558 697.817 558 571.5C558 445.183 474.049 341 368.5 341C262.951 341 179 445.183 179 571.5C179 697.817 262.951 802 368.5 802Z" fill="#EE6123" stroke="#541312" stroke-width="10"/>
<ellipse cx="368" cy="498.778" rx="125" ry="152.778" fill="#ECF1FE"/>
<mask id="path-4-outside-1_23_2" maskUnits="userSpaceOnUse" x="-5.19552" y="333.359" width="743.031" height="680.639" fill="black">
<rect fill="white" x="-5.19552" y="333.359" width="743.031" height="680.639"/>
<path fill-rule="evenodd" clip-rule="evenodd" d="M450.522 602.71L450.521 602.709L450.519 602.71C302.09 645.271 155.736 596.217 108.778 492.654C62.5345 561.129 44.8384 639.112 66.0156 712.966C111.664 872.159 320.652 951.912 532.9 891.189C533.005 891.159 533.11 891.129 533.215 891.099C639.393 860.653 706.955 771.413 684.12 691.777C661.285 612.141 556.699 572.265 450.522 602.71Z"/>
</mask>
<path fill-rule="evenodd" clip-rule="evenodd" d="M450.522 602.71L450.521 602.709L450.519 602.71C302.09 645.271 155.736 596.217 108.778 492.654C62.5345 561.129 44.8384 639.112 66.0156 712.966C111.664 872.159 320.652 951.912 532.9 891.189C533.005 891.159 533.11 891.129 533.215 891.099C639.393 860.653 706.955 771.413 684.12 691.777C661.285 612.141 556.699 572.265 450.522 602.71Z" fill="#ECF1FE"/>
<path d="M450.521 602.709L447.765 593.097L457.378 590.34L460.134 599.953L450.521 602.709ZM450.522 602.71L453.278 612.323L443.665 615.079L440.909 605.467L450.522 602.71ZM450.519 602.71L447.763 593.097L450.519 602.71ZM108.778 492.654L100.491 487.058L110.501 472.237L117.886 488.525L108.778 492.654ZM532.9 891.189L530.149 881.574L530.155 881.573L532.9 891.189ZM460.134 599.953L460.134 599.954L440.909 605.467L440.909 605.466L460.134 599.953ZM447.763 593.097L447.765 593.097L453.278 612.322L453.276 612.322L447.763 593.097ZM117.886 488.525C161.999 585.814 301.975 634.901 447.763 593.097L453.276 612.322C302.206 655.641 149.472 606.62 99.6709 496.784L117.886 488.525ZM56.403 715.722C34.2457 638.45 52.9586 557.441 100.491 487.058L117.066 498.251C72.1104 564.817 55.4312 639.774 75.6282 710.209L56.403 715.722ZM535.651 900.803C427.648 931.702 320.109 926.978 233.417 893.889C146.721 860.798 80.2885 799.021 56.403 715.722L75.6282 710.209C97.3908 786.104 158.277 843.801 240.549 875.204C322.825 906.608 425.904 911.399 530.149 881.574L535.651 900.803ZM530.155 881.573C530.256 881.544 530.357 881.515 530.458 881.486L535.971 900.711C535.862 900.742 535.754 900.773 535.645 900.805L530.155 881.573ZM530.458 881.486C581.668 866.802 623.193 838.033 649.074 803.848C674.954 769.666 684.863 730.648 674.507 694.534L693.732 689.021C706.212 732.543 693.758 777.962 665.02 815.92C636.285 853.875 590.939 884.949 535.971 900.711L530.458 881.486ZM674.507 694.534C664.152 658.419 635.072 630.581 595.011 615.307C554.947 600.031 504.488 597.639 453.278 612.323L447.765 593.098C502.733 577.336 557.655 579.659 602.137 596.619C646.622 613.581 681.253 645.499 693.732 689.021L674.507 694.534Z" fill="#541312" mask="url(#path-4-outside-1_23_2)"/>
<path fill-rule="evenodd" clip-rule="evenodd" d="M195.67 865.685C254.176 833.115 290.422 750.33 280.721 658.031C278.987 641.537 275.882 625.646 271.585 610.556C326.036 622.305 388.094 620.61 450.519 602.71L450.521 602.709L450.521 602.71C556.699 572.265 661.284 612.141 684.119 691.777C706.955 771.413 639.392 860.653 533.214 891.099L532.899 891.189C408.675 926.729 285.567 914.149 195.67 865.685Z" fill="#EE6123"/>
<path d="M279.554 103.295C303.252 131.537 291.821 180.143 254.023 211.859C216.225 243.576 166.373 246.392 142.675 218.151C118.977 189.909 86.6415 89.1442 124.44 57.4278C162.238 25.7113 255.857 75.0535 279.554 103.295Z" fill="#EE6123"/>
<path d="M279.554 103.295C303.252 131.537 291.821 180.143 254.023 211.859C216.225 243.576 166.373 246.392 142.675 218.151C118.977 189.909 86.6415 89.1442 124.44 57.4278C162.238 25.7113 255.857 75.0535 279.554 103.295Z" fill="#EE6123"/>
<path d="M279.554 103.295C303.252 131.537 291.821 180.143 254.023 211.859C216.225 243.576 166.373 246.392 142.675 218.151C118.977 189.909 86.6415 89.1442 124.44 57.4278C162.238 25.7113 255.857 75.0535 279.554 103.295Z" stroke="#541312" stroke-width="10"/>
<path d="M245.872 122.277C259.357 138.347 252.852 166.007 231.343 184.055C209.834 202.103 181.466 203.706 167.981 187.635C154.495 171.564 136.095 114.224 157.604 96.1757C179.113 78.1274 232.387 106.206 245.872 122.277Z" fill="#ECF1FE"/>
<path d="M245.872 122.277C259.357 138.347 252.852 166.007 231.343 184.055C209.834 202.103 181.466 203.706 167.981 187.635C154.495 171.564 136.095 114.224 157.604 96.1757C179.113 78.1274 232.387 106.206 245.872 122.277Z" fill="#ECF1FE"/>
<path d="M593.787 218.151C570.09 246.392 520.238 243.576 482.439 211.859C444.641 180.143 433.21 131.537 456.908 103.295C480.606 75.0534 574.224 25.7113 612.023 57.4277C649.821 89.1441 617.485 189.909 593.787 218.151Z" fill="#EE6123"/>
<path d="M593.787 218.151C570.09 246.392 520.238 243.576 482.439 211.859C444.641 180.143 433.21 131.537 456.908 103.295C480.606 75.0534 574.224 25.7113 612.023 57.4277C649.821 89.1441 617.485 189.909 593.787 218.151Z" fill="#EE6123"/>
<path d="M593.787 218.151C570.09 246.392 520.238 243.576 482.439 211.859C444.641 180.143 433.21 131.537 456.908 103.295C480.606 75.0534 574.224 25.7113 612.023 57.4277C649.821 89.1441 617.485 189.909 593.787 218.151Z" stroke="#541312" stroke-width="10"/>
<path d="M569.246 188.276C555.761 204.347 527.392 202.744 505.883 184.696C484.374 166.647 477.869 138.988 491.354 122.917C504.839 106.846 558.113 78.768 579.622 96.8163C601.132 114.865 582.731 172.205 569.246 188.276Z" fill="#ECF1FE"/>
<path d="M569.246 188.276C555.761 204.347 527.392 202.744 505.883 184.696C484.374 166.647 477.869 138.988 491.354 122.917C504.839 106.846 558.113 78.768 579.622 96.8163C601.132 114.865 582.731 172.205 569.246 188.276Z" fill="#ECF1FE"/>
<path d="M368 490.5C424.451 490.5 475.405 469.366 512.207 444.671C530.618 432.318 545.619 418.987 556.078 406.793C561.305 400.699 565.469 394.806 568.352 389.383C571.188 384.047 573 378.764 573 374C573 364.057 565.342 355.917 554.901 349.5C544.18 342.909 528.997 337.154 510.68 332.391C473.969 322.847 423.526 317 368 317C312.474 317 262.031 322.847 225.32 332.391C207.003 337.154 191.82 342.909 181.099 349.5C170.658 355.917 163 364.057 163 374C163 378.764 164.812 384.047 167.648 389.383C170.531 394.806 174.695 400.699 179.922 406.793C190.381 418.987 205.382 432.318 223.793 444.671C260.595 469.366 311.549 490.5 368 490.5Z" fill="#ECF1FE" stroke="#541312" stroke-width="10"/>
<mask id="path-14-outside-2_23_2" maskUnits="userSpaceOnUse" x="108" y="105" width="520" height="320" fill="black">
<rect fill="white" x="108" y="105" width="520" height="320"/>
<path fill-rule="evenodd" clip-rule="evenodd" d="M617.979 368.261C617.993 367.175 618 366.089 618 365C618 226.929 506.071 115 368 115C229.929 115 118 226.929 118 365C118 366.089 118.007 367.175 118.021 368.261C123.453 364.134 133.144 360.243 146.363 356.7C144.152 370.764 143 385.233 143 400C143 401.089 143.006 402.175 143.019 403.261C164.145 385.429 256.844 372 368 372C479.156 372 571.855 385.429 592.981 403.261C592.994 402.175 593 401.089 593 400C593 385.233 591.848 370.764 589.637 356.7C602.856 360.243 612.547 364.134 617.979 368.261Z"/>
</mask>
<path fill-rule="evenodd" clip-rule="evenodd" d="M617.979 368.261C617.993 367.175 618 366.089 618 365C618 226.929 506.071 115 368 115C229.929 115 118 226.929 118 365C118 366.089 118.007 367.175 118.021 368.261C123.453 364.134 133.144 360.243 146.363 356.7C144.152 370.764 143 385.233 143 400C143 401.089 143.006 402.175 143.019 403.261C164.145 385.429 256.844 372 368 372C479.156 372 571.855 385.429 592.981 403.261C592.994 402.175 593 401.089 593 400C593 385.233 591.848 370.764 589.637 356.7C602.856 360.243 612.547 364.134 617.979 368.261Z" fill="#EE6123"/>
<path d="M617.979 368.261L611.93 376.224L627.725 388.222L627.978 368.389L617.979 368.261ZM118.021 368.261L108.022 368.388L108.275 388.222L124.07 376.224L118.021 368.261ZM146.363 356.7L156.241 358.253L158.629 343.059L143.774 347.041L146.363 356.7ZM143.019 403.261L133.019 403.376L133.263 424.581L149.469 410.902L143.019 403.261ZM592.981 403.261L586.531 410.902L602.737 424.581L602.981 403.376L592.981 403.261ZM589.637 356.7L592.226 347.041L577.371 343.059L579.759 358.253L589.637 356.7ZM608 365C608 366.046 607.993 367.09 607.98 368.133L627.978 368.389C627.993 367.26 628 366.131 628 365H608ZM368 125C500.548 125 608 232.452 608 365H628C628 221.406 511.594 105 368 105V125ZM128 365C128 232.452 235.452 125 368 125V105C224.406 105 108 221.406 108 365H128ZM128.02 368.133C128.007 367.09 128 366.046 128 365H108C108 366.131 108.007 367.261 108.022 368.388L128.02 368.133ZM143.774 347.041C130.382 350.631 119.057 354.915 111.972 360.298L124.07 376.224C127.849 373.353 135.906 369.856 148.952 366.359L143.774 347.041ZM153 400C153 385.753 154.112 371.804 156.241 358.253L136.484 355.148C134.193 369.725 133 384.712 133 400H153ZM153.018 403.146C153.006 402.099 153 401.05 153 400H133C133 401.127 133.006 402.252 133.019 403.376L153.018 403.146ZM368 362C312.063 362 260.622 365.376 220.355 371.041C200.237 373.871 182.722 377.298 168.747 381.227C155.176 385.042 143.606 389.679 136.569 395.619L149.469 410.902C152.994 407.927 160.934 404.198 174.16 400.48C186.981 396.876 203.549 393.602 223.141 390.846C262.295 385.338 312.781 382 368 382V362ZM599.431 395.619C592.394 389.679 580.824 385.042 567.253 381.227C553.278 377.298 535.763 373.871 515.645 371.041C475.378 365.376 423.937 362 368 362V382C423.219 382 473.705 385.338 512.859 390.846C532.451 393.602 549.019 396.876 561.84 400.48C575.066 404.198 583.006 407.927 586.531 410.902L599.431 395.619ZM583 400C583 401.05 582.994 402.099 582.982 403.146L602.981 403.376C602.994 402.252 603 401.127 603 400H583ZM579.759 358.253C581.888 371.804 583 385.753 583 400H603C603 384.712 601.807 369.725 599.516 355.148L579.759 358.253ZM624.028 360.298C616.943 354.915 605.618 350.631 592.226 347.041L587.048 366.359C600.094 369.856 608.151 373.353 611.93 376.224L624.028 360.298Z" fill="#541312" mask="url(#path-14-outside-2_23_2)"/>
<path fill-rule="evenodd" clip-rule="evenodd" d="M220.493 298.494C258.072 312.172 286.51 336.343 297.867 361.121C306.671 350.076 334.737 342 368 342C408.317 342 441 353.864 441 368.5C441 365.765 439.859 363.127 437.74 360.645C449.246 336.038 477.557 312.094 514.889 298.506C549.227 286.008 583.349 285.127 607.768 293.979C614.427 316.492 618 340.329 618 365C618 366.088 617.993 367.175 617.979 368.26C612.547 364.134 602.856 360.243 589.638 356.7C591.848 370.764 593 385.233 593 400C593 401.088 592.994 402.175 592.981 403.26C587.388 398.54 576.779 394.127 562.139 390.191C540.548 425.781 461.818 485.5 368 485.5C274.182 485.5 195.452 425.781 173.861 390.191C159.221 394.128 148.612 398.54 143.019 403.261C143.006 402.175 143 401.088 143 400C143 385.233 144.152 370.764 146.363 356.7C133.144 360.243 123.453 364.134 118.021 368.261C118.007 367.175 118 366.088 118 365C118 340.233 121.601 316.308 128.309 293.719C152.679 285.133 186.48 286.114 220.493 298.494Z" fill="#ECF1FE"/>
<path d="M408 370.4C408 376.144 390.091 392.7 368 392.7C345.909 392.7 328 376.144 328 370.4C328 364.656 345.909 360 368 360C390.091 360 408 364.656 408 370.4Z" fill="#541312"/>
<ellipse cx="307.038" cy="300.5" rx="24.0385" ry="37.5" fill="#541312"/>
<ellipse cx="315.013" cy="287.5" rx="8.01282" ry="12.5" fill="#ECF1FE"/>
<ellipse cx="429.038" cy="300.5" rx="24.0385" ry="37.5" fill="#541312"/>
<ellipse cx="437.013" cy="287.5" rx="8.01282" ry="12.5" fill="#ECF1FE"/>
<path d="M276 227L291.453 221.961C301.35 218.734 312.008 218.677 321.939 221.797L338.5 227" stroke="#541312" stroke-width="10"/>
<path d="M398 227L413.453 221.961C423.35 218.734 434.008 218.677 443.939 221.797L460.5 227" stroke="#541312" stroke-width="10"/>
<mask id="path-24-inside-3_23_2" fill="white">
<path fill-rule="evenodd" clip-rule="evenodd" d="M431.823 405.784C424.357 414.647 413.176 420.278 400.681 420.278C387.367 420.278 375.546 413.885 368.12 404.002C360.695 413.885 348.874 420.278 335.56 420.278C323.064 420.278 311.884 414.647 304.418 405.783C303.489 407.733 303 409.756 303 411.829C303 427.843 332.155 474.002 368.12 474.002C404.085 474.002 433.24 427.843 433.24 411.829C433.24 409.756 432.751 407.734 431.823 405.784Z"/>
</mask>
<path fill-rule="evenodd" clip-rule="evenodd" d="M431.823 405.784C424.357 414.647 413.176 420.278 400.681 420.278C387.367 420.278 375.546 413.885 368.12 404.002C360.695 413.885 348.874 420.278 335.56 420.278C323.064 420.278 311.884 414.647 304.418 405.783C303.489 407.733 303 409.756 303 411.829C303 427.843 332.155 474.002 368.12 474.002C404.085 474.002 433.24 427.843 433.24 411.829C433.24 409.756 432.751 407.734 431.823 405.784Z" fill="#FB9197"/>
<path d="M431.823 405.784L440.851 401.484L434.175 387.469L424.174 399.341L431.823 405.784ZM368.12 404.002L376.115 397.995L368.12 387.354L360.125 397.995L368.12 404.002ZM304.418 405.783L312.066 399.341L302.066 387.469L295.39 401.482L304.418 405.783ZM424.174 399.341C418.527 406.045 410.103 410.278 400.681 410.278V430.278C416.249 430.278 430.186 423.249 439.471 412.226L424.174 399.341ZM400.681 410.278C390.644 410.278 381.733 405.473 376.115 397.995L360.125 410.009C369.359 422.298 384.089 430.278 400.681 430.278V410.278ZM360.125 397.995C354.507 405.473 345.597 410.278 335.56 410.278V430.278C352.152 430.278 366.882 422.298 376.115 410.009L360.125 397.995ZM335.56 410.278C326.138 410.278 317.713 406.045 312.066 399.341L296.769 412.226C306.054 423.248 319.991 430.278 335.56 430.278V410.278ZM295.39 401.482C293.879 404.653 293 408.138 293 411.829H313C313 411.374 313.098 410.814 313.446 410.084L295.39 401.482ZM293 411.829C293 418.192 295.668 425.773 299.176 432.778C302.854 440.12 308.094 448.091 314.53 455.485C327.102 469.932 345.899 484.002 368.12 484.002V464.002C354.377 464.002 340.613 454.992 329.617 442.356C324.268 436.209 319.972 429.638 317.059 423.821C313.976 417.667 313 413.473 313 411.829H293ZM368.12 484.002C390.341 484.002 409.138 469.932 421.71 455.485C428.146 448.091 433.386 440.12 437.064 432.778C440.572 425.773 443.24 418.192 443.24 411.829H423.24C423.24 413.473 422.263 417.667 419.181 423.821C416.268 429.638 411.972 436.209 406.623 442.356C395.627 454.992 381.863 464.002 368.12 464.002V484.002ZM443.24 411.829C443.24 408.138 442.361 404.654 440.851 401.484L422.794 410.084C423.142 410.814 423.24 411.374 423.24 411.829H443.24Z" fill="#541312" mask="url(#path-24-inside-3_23_2)"/>
</svg>
