<svg width="625" height="496" viewBox="0 0 625 496" fill="none" xmlns="http://www.w3.org/2000/svg">
<path d="M223.554 103.295C247.252 131.537 235.821 180.143 198.023 211.859C160.225 243.576 110.373 246.392 86.6749 218.151C62.9773 189.909 30.6415 89.1442 68.4397 57.4278C106.238 25.7113 199.857 75.0535 223.554 103.295Z" fill="#EE6123"/>
<path d="M223.554 103.295C247.252 131.537 235.821 180.143 198.023 211.859C160.225 243.576 110.373 246.392 86.6749 218.151C62.9773 189.909 30.6415 89.1442 68.4397 57.4278C106.238 25.7113 199.857 75.0535 223.554 103.295Z" fill="#EE6123"/>
<path d="M223.554 103.295C247.252 131.537 235.821 180.143 198.023 211.859C160.225 243.576 110.373 246.392 86.6749 218.151C62.9773 189.909 30.6415 89.1442 68.4397 57.4278C106.238 25.7113 199.857 75.0535 223.554 103.295Z" stroke="#541312" stroke-width="10"/>
<path d="M189.872 122.277C203.357 138.347 196.852 166.007 175.343 184.055C153.834 202.103 125.466 203.706 111.981 187.635C98.4955 171.564 80.0948 114.224 101.604 96.1757C123.113 78.1274 176.387 106.206 189.872 122.277Z" fill="#ECF1FE"/>
<path d="M189.872 122.277C203.357 138.347 196.852 166.007 175.343 184.055C153.834 202.103 125.466 203.706 111.981 187.635C98.4955 171.564 80.0948 114.224 101.604 96.1757C123.113 78.1274 176.387 106.206 189.872 122.277Z" fill="#ECF1FE"/>
<path d="M537.787 218.151C514.09 246.392 464.238 243.576 426.439 211.859C388.641 180.143 377.21 131.537 400.908 103.295C424.606 75.0534 518.224 25.7113 556.023 57.4277C593.821 89.1441 561.485 189.909 537.787 218.151Z" fill="#EE6123"/>
<path d="M537.787 218.151C514.09 246.392 464.238 243.576 426.439 211.859C388.641 180.143 377.21 131.537 400.908 103.295C424.606 75.0534 518.224 25.7113 556.023 57.4277C593.821 89.1441 561.485 189.909 537.787 218.151Z" fill="#EE6123"/>
<path d="M537.787 218.151C514.09 246.392 464.238 243.576 426.439 211.859C388.641 180.143 377.21 131.537 400.908 103.295C424.606 75.0534 518.224 25.7113 556.023 57.4277C593.821 89.1441 561.485 189.909 537.787 218.151Z" stroke="#541312" stroke-width="10"/>
<path d="M513.246 188.276C499.761 204.347 471.392 202.744 449.883 184.696C428.374 166.647 421.869 138.988 435.354 122.917C448.839 106.846 502.113 78.768 523.622 96.8163C545.132 114.865 526.731 172.205 513.246 188.276Z" fill="#ECF1FE"/>
<path d="M513.246 188.276C499.761 204.347 471.392 202.744 449.883 184.696C428.374 166.647 421.869 138.988 435.354 122.917C448.839 106.846 502.113 78.768 523.622 96.8163C545.132 114.865 526.731 172.205 513.246 188.276Z" fill="#ECF1FE"/>
<path d="M312 490.5C368.451 490.5 419.405 469.366 456.207 444.671C474.618 432.318 489.619 418.987 500.078 406.793C505.305 400.699 509.469 394.806 512.352 389.383C515.188 384.047 517 378.764 517 374C517 364.057 509.342 355.917 498.901 349.5C488.18 342.909 472.997 337.154 454.68 332.391C417.969 322.847 367.526 317 312 317C256.474 317 206.031 322.847 169.32 332.391C151.003 337.154 135.82 342.909 125.099 349.5C114.658 355.917 107 364.057 107 374C107 378.764 108.812 384.047 111.648 389.383C114.531 394.806 118.695 400.699 123.922 406.793C134.381 418.987 149.382 432.318 167.793 444.671C204.595 469.366 255.549 490.5 312 490.5Z" fill="#ECF1FE" stroke="#541312" stroke-width="10"/>
<mask id="path-8-outside-1_14_2853" maskUnits="userSpaceOnUse" x="52" y="105" width="520" height="320" fill="black">
<rect fill="white" x="52" y="105" width="520" height="320"/>
<path fill-rule="evenodd" clip-rule="evenodd" d="M561.979 368.261C561.993 367.175 562 366.089 562 365C562 226.929 450.071 115 312 115C173.929 115 62 226.929 62 365C62 366.089 62.007 367.175 62.0208 368.261C67.453 364.134 77.144 360.243 90.3626 356.7C88.1523 370.764 87 385.233 87 400C87 401.089 87.0063 402.175 87.0187 403.261C108.145 385.429 200.844 372 312 372C423.156 372 515.855 385.429 536.981 403.261C536.994 402.175 537 401.089 537 400C537 385.233 535.848 370.764 533.637 356.7C546.856 360.243 556.547 364.134 561.979 368.261Z"/>
</mask>
<path fill-rule="evenodd" clip-rule="evenodd" d="M561.979 368.261C561.993 367.175 562 366.089 562 365C562 226.929 450.071 115 312 115C173.929 115 62 226.929 62 365C62 366.089 62.007 367.175 62.0208 368.261C67.453 364.134 77.144 360.243 90.3626 356.7C88.1523 370.764 87 385.233 87 400C87 401.089 87.0063 402.175 87.0187 403.261C108.145 385.429 200.844 372 312 372C423.156 372 515.855 385.429 536.981 403.261C536.994 402.175 537 401.089 537 400C537 385.233 535.848 370.764 533.637 356.7C546.856 360.243 556.547 364.134 561.979 368.261Z" fill="#EE6123"/>
<path d="M561.979 368.261L555.93 376.224L571.725 388.222L571.978 368.389L561.979 368.261ZM62.0208 368.261L52.0216 368.388L52.2752 388.222L68.0699 376.224L62.0208 368.261ZM90.3626 356.7L100.241 358.253L102.629 343.059L87.7735 347.041L90.3626 356.7ZM87.0187 403.261L77.0194 403.376L77.2633 424.581L93.4688 410.902L87.0187 403.261ZM536.981 403.261L530.531 410.902L546.737 424.581L546.981 403.376L536.981 403.261ZM533.637 356.7L536.226 347.041L521.371 343.059L523.759 358.253L533.637 356.7ZM552 365C552 366.046 551.993 367.09 551.98 368.133L571.978 368.389C571.993 367.26 572 366.131 572 365H552ZM312 125C444.548 125 552 232.452 552 365H572C572 221.406 455.594 105 312 105V125ZM72 365C72 232.452 179.452 125 312 125V105C168.406 105 52 221.406 52 365H72ZM72.02 368.133C72.0067 367.09 72 366.046 72 365H52C52 366.131 52.0072 367.261 52.0216 368.388L72.02 368.133ZM87.7735 347.041C74.3821 350.631 63.0574 354.915 55.9717 360.298L68.0699 376.224C71.8486 373.353 79.906 369.856 92.9516 366.359L87.7735 347.041ZM97 400C97 385.753 98.1117 371.804 100.241 358.253L80.4838 355.148C78.193 369.725 77 384.712 77 400H97ZM97.0181 403.146C97.006 402.099 97 401.05 97 400H77C77 401.127 77.0065 402.252 77.0194 403.376L97.0181 403.146ZM312 362C256.063 362 204.622 365.376 164.355 371.041C144.237 373.871 126.722 377.298 112.747 381.227C99.1761 385.042 87.6063 389.679 80.5687 395.619L93.4688 410.902C96.9942 407.927 104.934 404.198 118.16 400.48C130.981 396.876 147.549 393.602 167.141 390.846C206.295 385.338 256.781 382 312 382V362ZM543.431 395.619C536.394 389.679 524.824 385.042 511.253 381.227C497.278 377.298 479.763 373.871 459.645 371.041C419.378 365.376 367.937 362 312 362V382C367.219 382 417.705 385.338 456.859 390.846C476.451 393.602 493.019 396.876 505.84 400.48C519.066 404.198 527.006 407.927 530.531 410.902L543.431 395.619ZM527 400C527 401.05 526.994 402.099 526.982 403.146L546.981 403.376C546.994 402.252 547 401.127 547 400H527ZM523.759 358.253C525.888 371.804 527 385.753 527 400H547C547 384.712 545.807 369.725 543.516 355.148L523.759 358.253ZM568.028 360.298C560.943 354.915 549.618 350.631 536.226 347.041L531.048 366.359C544.094 369.856 552.151 373.353 555.93 376.224L568.028 360.298Z" fill="#541312" mask="url(#path-8-outside-1_14_2853)"/>
<path fill-rule="evenodd" clip-rule="evenodd" d="M164.493 298.494C202.072 312.172 230.51 336.342 241.868 361.121C250.671 350.076 278.738 342 312 342C345.387 342 373.54 350.137 382.231 361.245C382.074 361.044 381.91 360.844 381.74 360.646C393.246 336.038 421.557 312.094 458.889 298.506C493.227 286.008 527.348 285.127 551.768 293.979C558.426 316.492 562 340.328 562 365C562 366.088 561.993 367.175 561.979 368.26C556.547 364.134 546.856 360.243 533.637 356.7C535.848 370.764 537 385.233 537 400C537 401.088 536.994 402.175 536.981 403.26C531.388 398.54 520.779 394.127 506.139 390.191C484.548 425.781 405.818 485.5 312 485.5C218.182 485.5 139.452 425.781 117.861 390.191C103.221 394.127 92.6117 398.54 87.0187 403.26C87.0063 402.175 87 401.088 87 400C87 385.233 88.1523 370.764 90.3626 356.7C77.144 360.243 67.453 364.134 62.0208 368.26C62.007 367.175 62 366.088 62 365C62 340.233 65.6013 316.308 72.3089 293.719C96.6787 285.133 130.48 286.114 164.493 298.494Z" fill="#ECF1FE"/>
<path d="M352 370.4C352 376.144 334.091 392.7 312 392.7C289.909 392.7 272 376.144 272 370.4C272 364.656 289.909 360 312 360C334.091 360 352 364.656 352 370.4Z" fill="#541312"/>
<ellipse cx="251.038" cy="300.5" rx="24.0385" ry="37.5" fill="#541312"/>
<ellipse cx="259.013" cy="287.5" rx="8.01282" ry="12.5" fill="#ECF1FE"/>
<ellipse cx="373.038" cy="300.5" rx="24.0385" ry="37.5" fill="#541312"/>
<ellipse cx="381.013" cy="287.5" rx="8.01282" ry="12.5" fill="#ECF1FE"/>
<path d="M220 227L235.453 221.961C245.35 218.734 256.008 218.677 265.939 221.797L282.5 227" stroke="#541312" stroke-width="10"/>
<path d="M342 227L357.453 221.961C367.35 218.734 378.008 218.677 387.939 221.797L404.5 227" stroke="#541312" stroke-width="10"/>
<mask id="path-18-inside-2_14_2853" fill="white">
<path fill-rule="evenodd" clip-rule="evenodd" d="M375.823 405.784C368.357 414.647 357.176 420.278 344.681 420.278C331.367 420.278 319.546 413.885 312.12 404.002C304.695 413.885 292.874 420.278 279.56 420.278C267.064 420.278 255.884 414.647 248.418 405.783C247.489 407.733 247 409.756 247 411.829C247 427.843 276.155 474.002 312.12 474.002C348.085 474.002 377.24 427.843 377.24 411.829C377.24 409.756 376.751 407.734 375.823 405.784Z"/>
</mask>
<path fill-rule="evenodd" clip-rule="evenodd" d="M375.823 405.784C368.357 414.647 357.176 420.278 344.681 420.278C331.367 420.278 319.546 413.885 312.12 404.002C304.695 413.885 292.874 420.278 279.56 420.278C267.064 420.278 255.884 414.647 248.418 405.783C247.489 407.733 247 409.756 247 411.829C247 427.843 276.155 474.002 312.12 474.002C348.085 474.002 377.24 427.843 377.24 411.829C377.24 409.756 376.751 407.734 375.823 405.784Z" fill="#FB9197"/>
<path d="M375.823 405.784L384.851 401.484L378.175 387.469L368.174 399.341L375.823 405.784ZM312.12 404.002L320.115 397.995L312.12 387.354L304.125 397.995L312.12 404.002ZM248.418 405.783L256.066 399.341L246.066 387.469L239.39 401.482L248.418 405.783ZM368.174 399.341C362.527 406.045 354.103 410.278 344.681 410.278V430.278C360.249 430.278 374.186 423.249 383.471 412.226L368.174 399.341ZM344.681 410.278C334.644 410.278 325.733 405.473 320.115 397.995L304.125 410.009C313.359 422.298 328.089 430.278 344.681 430.278V410.278ZM304.125 397.995C298.507 405.473 289.597 410.278 279.56 410.278V430.278C296.152 430.278 310.882 422.298 320.115 410.009L304.125 397.995ZM279.56 410.278C270.138 410.278 261.713 406.045 256.066 399.341L240.769 412.226C250.054 423.248 263.991 430.278 279.56 430.278V410.278ZM239.39 401.482C237.879 404.653 237 408.138 237 411.829H257C257 411.374 257.098 410.814 257.446 410.084L239.39 401.482ZM237 411.829C237 418.192 239.668 425.773 243.176 432.778C246.854 440.12 252.094 448.091 258.53 455.485C271.102 469.932 289.899 484.002 312.12 484.002V464.002C298.377 464.002 284.613 454.992 273.617 442.356C268.268 436.209 263.972 429.638 261.059 423.821C257.976 417.667 257 413.473 257 411.829H237ZM312.12 484.002C334.341 484.002 353.138 469.932 365.71 455.485C372.146 448.091 377.386 440.12 381.064 432.778C384.572 425.773 387.24 418.192 387.24 411.829H367.24C367.24 413.473 366.263 417.667 363.181 423.821C360.268 429.638 355.972 436.209 350.623 442.356C339.627 454.992 325.863 464.002 312.12 464.002V484.002ZM387.24 411.829C387.24 408.138 386.361 404.654 384.851 401.484L366.794 410.084C367.142 410.814 367.24 411.374 367.24 411.829H387.24Z" fill="#541312" mask="url(#path-18-inside-2_14_2853)"/>
</svg>
