<svg width="737" height="1011" viewBox="0 0 737 1011" fill="none" xmlns="http://www.w3.org/2000/svg">
<circle cx="526" cy="638" r="100" fill="#EE6123" stroke="#541312" stroke-width="10"/>
<path d="M368.5 802C474.049 802 558 697.817 558 571.5C558 445.183 474.049 341 368.5 341C262.951 341 179 445.183 179 571.5C179 697.817 262.951 802 368.5 802Z" fill="#EE6123" stroke="#541312" stroke-width="10"/>
<ellipse cx="368" cy="498.778" rx="125" ry="152.778" fill="#ECF1FE"/>
<mask id="path-4-outside-1_14_3363" maskUnits="userSpaceOnUse" x="-5.19552" y="333.359" width="743.031" height="680.639" fill="black">
<rect fill="white" x="-5.19552" y="333.359" width="743.031" height="680.639"/>
<path fill-rule="evenodd" clip-rule="evenodd" d="M450.522 602.71L450.521 602.709L450.519 602.71C302.09 645.271 155.736 596.217 108.778 492.654C62.5345 561.129 44.8384 639.112 66.0156 712.966C111.664 872.159 320.652 951.912 532.9 891.189C533.005 891.159 533.11 891.129 533.215 891.099C639.393 860.653 706.955 771.413 684.12 691.777C661.285 612.141 556.699 572.265 450.522 602.71Z"/>
</mask>
<path fill-rule="evenodd" clip-rule="evenodd" d="M450.522 602.71L450.521 602.709L450.519 602.71C302.09 645.271 155.736 596.217 108.778 492.654C62.5345 561.129 44.8384 639.112 66.0156 712.966C111.664 872.159 320.652 951.912 532.9 891.189C533.005 891.159 533.11 891.129 533.215 891.099C639.393 860.653 706.955 771.413 684.12 691.777C661.285 612.141 556.699 572.265 450.522 602.71Z" fill="#ECF1FE"/>
<path d="M450.521 602.709L447.765 593.097L457.378 590.34L460.134 599.953L450.521 602.709ZM450.522 602.71L453.278 612.323L443.665 615.079L440.909 605.467L450.522 602.71ZM108.778 492.654L100.491 487.058L110.501 472.237L117.886 488.525L108.778 492.654ZM532.9 891.189L530.149 881.574L530.155 881.573L532.9 891.189ZM460.134 599.953L460.134 599.954L440.909 605.467L440.909 605.466L460.134 599.953ZM447.763 593.097L447.765 593.097L453.278 612.322L453.276 612.322L447.763 593.097ZM117.886 488.525C161.999 585.814 301.975 634.901 447.763 593.097L453.276 612.322C302.206 655.641 149.472 606.62 99.6709 496.784L117.886 488.525ZM56.403 715.722C34.2457 638.45 52.9586 557.441 100.491 487.058L117.066 498.251C72.1104 564.817 55.4312 639.774 75.6282 710.209L56.403 715.722ZM535.651 900.803C427.648 931.702 320.109 926.978 233.417 893.889C146.721 860.798 80.2885 799.021 56.403 715.722L75.6282 710.209C97.3908 786.104 158.277 843.801 240.549 875.204C322.825 906.608 425.904 911.399 530.149 881.574L535.651 900.803ZM530.155 881.573C530.256 881.544 530.357 881.515 530.458 881.486L535.971 900.711C535.862 900.742 535.754 900.773 535.645 900.805L530.155 881.573ZM530.458 881.486C581.668 866.802 623.193 838.033 649.074 803.848C674.954 769.666 684.863 730.648 674.507 694.534L693.732 689.021C706.212 732.543 693.758 777.962 665.02 815.92C636.285 853.875 590.939 884.949 535.971 900.711L530.458 881.486ZM674.507 694.534C664.152 658.419 635.072 630.581 595.011 615.307C554.947 600.031 504.488 597.639 453.278 612.323L447.765 593.098C502.733 577.336 557.655 579.659 602.137 596.619C646.622 613.581 681.253 645.499 693.732 689.021L674.507 694.534Z" fill="#541312" mask="url(#path-4-outside-1_14_3363)"/>
<path fill-rule="evenodd" clip-rule="evenodd" d="M195.67 865.685C254.176 833.115 290.422 750.33 280.721 658.031C278.988 641.537 275.882 625.646 271.585 610.556C326.036 622.305 388.094 620.61 450.519 602.71L450.521 602.709L450.521 602.71C556.699 572.265 661.284 612.141 684.119 691.777C706.955 771.413 639.392 860.653 533.214 891.099L532.899 891.189C408.675 926.729 285.567 914.149 195.67 865.685Z" fill="#EE6123"/>
<path d="M279.554 103.295C303.252 131.537 291.821 180.143 254.023 211.859C216.225 243.576 166.373 246.392 142.675 218.151C118.977 189.909 86.6415 89.1442 124.44 57.4278C162.238 25.7113 255.857 75.0535 279.554 103.295Z" fill="#EE6123"/>
<path d="M279.554 103.295C303.252 131.537 291.821 180.143 254.023 211.859C216.225 243.576 166.373 246.392 142.675 218.151C118.977 189.909 86.6415 89.1442 124.44 57.4278C162.238 25.7113 255.857 75.0535 279.554 103.295Z" fill="#EE6123"/>
<path d="M279.554 103.295C303.252 131.537 291.821 180.143 254.023 211.859C216.225 243.576 166.373 246.392 142.675 218.151C118.977 189.909 86.6415 89.1442 124.44 57.4278C162.238 25.7113 255.857 75.0535 279.554 103.295Z" stroke="#541312" stroke-width="10"/>
<path d="M245.872 122.277C259.357 138.347 252.852 166.007 231.343 184.055C209.834 202.103 181.466 203.706 167.981 187.635C154.495 171.564 136.095 114.224 157.604 96.1757C179.113 78.1274 232.387 106.206 245.872 122.277Z" fill="#ECF1FE"/>
<path d="M245.872 122.277C259.357 138.347 252.852 166.007 231.343 184.055C209.834 202.103 181.466 203.706 167.981 187.635C154.495 171.564 136.095 114.224 157.604 96.1757C179.113 78.1274 232.387 106.206 245.872 122.277Z" fill="#ECF1FE"/>
<path d="M593.787 218.151C570.09 246.392 520.238 243.576 482.439 211.859C444.641 180.143 433.21 131.537 456.908 103.295C480.606 75.0534 574.224 25.7113 612.023 57.4277C649.821 89.1441 617.485 189.909 593.787 218.151Z" fill="#EE6123"/>
<path d="M593.787 218.151C570.09 246.392 520.238 243.576 482.439 211.859C444.641 180.143 433.21 131.537 456.908 103.295C480.606 75.0534 574.224 25.7113 612.023 57.4277C649.821 89.1441 617.485 189.909 593.787 218.151Z" fill="#EE6123"/>
<path d="M593.787 218.151C570.09 246.392 520.238 243.576 482.439 211.859C444.641 180.143 433.21 131.537 456.908 103.295C480.606 75.0534 574.224 25.7113 612.023 57.4277C649.821 89.1441 617.485 189.909 593.787 218.151Z" stroke="#541312" stroke-width="10"/>
<path d="M569.246 188.276C555.761 204.347 527.392 202.744 505.883 184.696C484.374 166.647 477.869 138.988 491.354 122.917C504.839 106.846 558.113 78.768 579.622 96.8163C601.132 114.865 582.731 172.205 569.246 188.276Z" fill="#ECF1FE"/>
<path d="M569.246 188.276C555.761 204.347 527.392 202.744 505.883 184.696C484.374 166.647 477.869 138.988 491.354 122.917C504.839 106.846 558.113 78.768 579.622 96.8163C601.132 114.865 582.731 172.205 569.246 188.276Z" fill="#ECF1FE"/>
<path d="M368 490.5C424.451 490.5 475.405 469.366 512.207 444.671C530.618 432.318 545.619 418.987 556.078 406.793C561.305 400.699 565.469 394.806 568.352 389.383C571.188 384.047 573 378.764 573 374C573 364.057 565.342 355.917 554.901 349.5C544.18 342.909 528.997 337.154 510.68 332.391C473.969 322.847 423.526 317 368 317C312.474 317 262.031 322.847 225.32 332.391C207.003 337.154 191.82 342.909 181.099 349.5C170.658 355.917 163 364.057 163 374C163 378.764 164.812 384.047 167.648 389.383C170.531 394.806 174.695 400.699 179.922 406.793C190.381 418.987 205.382 432.318 223.793 444.671C260.595 469.366 311.549 490.5 368 490.5Z" fill="#ECF1FE" stroke="#541312" stroke-width="10"/>
<mask id="path-14-outside-2_14_3363" maskUnits="userSpaceOnUse" x="108" y="105" width="520" height="320" fill="black">
<rect fill="white" x="108" y="105" width="520" height="320"/>
<path fill-rule="evenodd" clip-rule="evenodd" d="M617.979 368.261C617.993 367.175 618 366.089 618 365C618 226.929 506.071 115 368 115C229.929 115 118 226.929 118 365C118 366.089 118.007 367.175 118.021 368.261C123.453 364.134 133.144 360.243 146.363 356.7C144.152 370.764 143 385.233 143 400C143 401.089 143.006 402.175 143.019 403.261C164.145 385.429 256.844 372 368 372C479.156 372 571.855 385.429 592.981 403.261C592.994 402.175 593 401.089 593 400C593 385.233 591.848 370.764 589.637 356.7C602.856 360.243 612.547 364.134 617.979 368.261Z"/>
</mask>
<path fill-rule="evenodd" clip-rule="evenodd" d="M617.979 368.261C617.993 367.175 618 366.089 618 365C618 226.929 506.071 115 368 115C229.929 115 118 226.929 118 365C118 366.089 118.007 367.175 118.021 368.261C123.453 364.134 133.144 360.243 146.363 356.7C144.152 370.764 143 385.233 143 400C143 401.089 143.006 402.175 143.019 403.261C164.145 385.429 256.844 372 368 372C479.156 372 571.855 385.429 592.981 403.261C592.994 402.175 593 401.089 593 400C593 385.233 591.848 370.764 589.637 356.7C602.856 360.243 612.547 364.134 617.979 368.261Z" fill="#EE6123"/>
<path d="M617.979 368.261L611.93 376.224L627.725 388.222L627.978 368.389L617.979 368.261ZM118.021 368.261L108.022 368.388L108.275 388.222L124.07 376.224L118.021 368.261ZM146.363 356.7L156.241 358.253L158.629 343.059L143.774 347.041L146.363 356.7ZM143.019 403.261L133.019 403.376L133.263 424.581L149.469 410.902L143.019 403.261ZM592.981 403.261L586.531 410.902L602.737 424.581L602.981 403.376L592.981 403.261ZM589.637 356.7L592.226 347.041L577.371 343.059L579.759 358.253L589.637 356.7ZM608 365C608 366.046 607.993 367.09 607.98 368.133L627.978 368.389C627.993 367.26 628 366.131 628 365H608ZM368 125C500.548 125 608 232.452 608 365H628C628 221.406 511.594 105 368 105V125ZM128 365C128 232.452 235.452 125 368 125V105C224.406 105 108 221.406 108 365H128ZM128.02 368.133C128.007 367.09 128 366.046 128 365H108C108 366.131 108.007 367.261 108.022 368.388L128.02 368.133ZM143.774 347.041C130.382 350.631 119.057 354.915 111.972 360.298L124.07 376.224C127.849 373.353 135.906 369.856 148.952 366.359L143.774 347.041ZM153 400C153 385.753 154.112 371.804 156.241 358.253L136.484 355.148C134.193 369.725 133 384.712 133 400H153ZM153.018 403.146C153.006 402.099 153 401.05 153 400H133C133 401.127 133.006 402.252 133.019 403.376L153.018 403.146ZM368 362C312.063 362 260.622 365.376 220.355 371.041C200.237 373.871 182.722 377.298 168.747 381.227C155.176 385.042 143.606 389.679 136.569 395.619L149.469 410.902C152.994 407.927 160.934 404.198 174.16 400.48C186.981 396.876 203.549 393.602 223.141 390.846C262.295 385.338 312.781 382 368 382V362ZM599.431 395.619C592.394 389.679 580.824 385.042 567.253 381.227C553.278 377.298 535.763 373.871 515.645 371.041C475.378 365.376 423.937 362 368 362V382C423.219 382 473.705 385.338 512.859 390.846C532.451 393.602 549.019 396.876 561.84 400.48C575.066 404.198 583.006 407.927 586.531 410.902L599.431 395.619ZM583 400C583 401.05 582.994 402.099 582.982 403.146L602.981 403.376C602.994 402.252 603 401.127 603 400H583ZM579.759 358.253C581.888 371.804 583 385.753 583 400H603C603 384.712 601.807 369.725 599.516 355.148L579.759 358.253ZM624.028 360.298C616.943 354.915 605.618 350.631 592.226 347.041L587.048 366.359C600.094 369.856 608.151 373.353 611.93 376.224L624.028 360.298Z" fill="#541312" mask="url(#path-14-outside-2_14_3363)"/>
<path fill-rule="evenodd" clip-rule="evenodd" d="M220.493 298.494C258.072 312.172 286.51 336.343 297.867 361.121C306.671 350.076 334.737 342 368 342C408.317 342 441 353.864 441 368.5C441 365.765 439.859 363.127 437.74 360.645C449.246 336.038 477.557 312.094 514.889 298.506C549.227 286.008 583.349 285.127 607.768 293.979C614.427 316.492 618 340.329 618 365C618 366.088 617.993 367.175 617.979 368.26C612.547 364.134 602.856 360.243 589.638 356.7C591.848 370.764 593 385.233 593 400C593 401.088 592.994 402.175 592.981 403.26C587.388 398.54 576.779 394.127 562.139 390.191C540.548 425.781 461.818 485.5 368 485.5C274.182 485.5 195.452 425.781 173.861 390.191C159.221 394.128 148.612 398.54 143.019 403.261C143.006 402.175 143 401.088 143 400C143 385.233 144.152 370.764 146.363 356.7C133.144 360.243 123.453 364.134 118.021 368.261C118.007 367.175 118 366.088 118 365C118 340.233 121.601 316.308 128.309 293.719C152.679 285.133 186.48 286.114 220.493 298.494Z" fill="#ECF1FE"/>
<path d="M408 370.4C408 376.144 390.091 392.7 368 392.7C345.909 392.7 328 376.144 328 370.4C328 364.656 345.909 360 368 360C390.091 360 408 364.656 408 370.4Z" fill="#541312"/>
<ellipse cx="307.038" cy="300.5" rx="24.0385" ry="37.5" fill="#541312"/>
<ellipse cx="315.013" cy="287.5" rx="8.01282" ry="12.5" fill="#ECF1FE"/>
<ellipse cx="429.038" cy="300.5" rx="24.0385" ry="37.5" fill="#541312"/>
<ellipse cx="437.013" cy="287.5" rx="8.01282" ry="12.5" fill="#ECF1FE"/>
<path d="M276 227L291.453 221.961C301.35 218.734 312.008 218.677 321.939 221.797L338.5 227" stroke="#541312" stroke-width="10"/>
<path d="M398 227L413.453 221.961C423.35 218.734 434.008 218.677 443.939 221.797L460.5 227" stroke="#541312" stroke-width="10"/>
<mask id="path-24-inside-3_14_3363" fill="white">
<path fill-rule="evenodd" clip-rule="evenodd" d="M431.823 405.784C424.357 414.647 413.176 420.278 400.681 420.278C387.367 420.278 375.546 413.885 368.12 404.002C360.695 413.885 348.874 420.278 335.56 420.278C323.064 420.278 311.884 414.647 304.418 405.783C303.489 407.733 303 409.756 303 411.829C303 427.843 332.155 474.002 368.12 474.002C404.085 474.002 433.24 427.843 433.24 411.829C433.24 409.756 432.751 407.734 431.823 405.784Z"/>
</mask>
<path fill-rule="evenodd" clip-rule="evenodd" d="M431.823 405.784C424.357 414.647 413.176 420.278 400.681 420.278C387.367 420.278 375.546 413.885 368.12 404.002C360.695 413.885 348.874 420.278 335.56 420.278C323.064 420.278 311.884 414.647 304.418 405.783C303.489 407.733 303 409.756 303 411.829C303 427.843 332.155 474.002 368.12 474.002C404.085 474.002 433.24 427.843 433.24 411.829C433.24 409.756 432.751 407.734 431.823 405.784Z" fill="#FB9197"/>
<path d="M431.823 405.784L440.851 401.484L434.175 387.469L424.174 399.341L431.823 405.784ZM368.12 404.002L376.115 397.995L368.12 387.354L360.125 397.995L368.12 404.002ZM304.418 405.783L312.066 399.341L302.066 387.469L295.39 401.482L304.418 405.783ZM424.174 399.341C418.527 406.045 410.103 410.278 400.681 410.278V430.278C416.249 430.278 430.186 423.249 439.471 412.226L424.174 399.341ZM400.681 410.278C390.644 410.278 381.733 405.473 376.115 397.995L360.125 410.009C369.359 422.298 384.089 430.278 400.681 430.278V410.278ZM360.125 397.995C354.507 405.473 345.597 410.278 335.56 410.278V430.278C352.152 430.278 366.882 422.298 376.115 410.009L360.125 397.995ZM335.56 410.278C326.138 410.278 317.713 406.045 312.066 399.341L296.769 412.226C306.054 423.248 319.991 430.278 335.56 430.278V410.278ZM295.39 401.482C293.879 404.653 293 408.138 293 411.829H313C313 411.374 313.098 410.814 313.446 410.084L295.39 401.482ZM293 411.829C293 418.192 295.668 425.773 299.176 432.778C302.854 440.12 308.094 448.091 314.53 455.485C327.102 469.932 345.899 484.002 368.12 484.002V464.002C354.377 464.002 340.613 454.992 329.617 442.356C324.268 436.209 319.972 429.638 317.059 423.821C313.976 417.667 313 413.473 313 411.829H293ZM368.12 484.002C390.341 484.002 409.138 469.932 421.71 455.485C428.146 448.091 433.386 440.12 437.064 432.778C440.572 425.773 443.24 418.192 443.24 411.829H423.24C423.24 413.473 422.263 417.667 419.181 423.821C416.268 429.638 411.972 436.209 406.623 442.356C395.627 454.992 381.863 464.002 368.12 464.002V484.002ZM443.24 411.829C443.24 408.138 442.361 404.654 440.851 401.484L422.794 410.084C423.142 410.814 423.24 411.374 423.24 411.829H443.24Z" fill="#541312" mask="url(#path-24-inside-3_14_3363)"/>
<mask id="path-26-outside-4_14_3363" maskUnits="userSpaceOnUse" x="146.449" y="31" width="444" height="138" fill="black">
<rect fill="white" x="146.449" y="31" width="444" height="138"/>
<path fill-rule="evenodd" clip-rule="evenodd" d="M568.551 156.628H168.449C209.091 88.5743 283.473 43 368.5 43C453.526 43 527.908 88.5743 568.551 156.628Z"/>
</mask>
<path fill-rule="evenodd" clip-rule="evenodd" d="M568.551 156.628H168.449C209.091 88.5743 283.473 43 368.5 43C453.526 43 527.908 88.5743 568.551 156.628Z" fill="#3BA99C"/>
<path d="M168.449 156.628L158.147 150.475L147.306 168.628H168.449V156.628ZM568.551 156.628V168.628H589.694L578.853 150.475L568.551 156.628ZM168.449 168.628H568.551V144.628H168.449V168.628ZM178.752 162.78C217.318 98.203 287.87 55 368.5 55V31C279.077 31 200.865 78.9456 158.147 150.475L178.752 162.78ZM368.5 55C449.13 55 519.682 98.203 558.248 162.78L578.853 150.475C536.135 78.9456 457.923 31 368.5 31V55Z" fill="#541312" mask="url(#path-26-outside-4_14_3363)"/>
<mask id="path-28-outside-5_14_3363" maskUnits="userSpaceOnUse" x="119" y="144.627" width="499" height="144" fill="black">
<rect fill="white" x="119" y="144.627" width="499" height="144"/>
<path fill-rule="evenodd" clip-rule="evenodd" d="M168.796 156.627C165.235 156.627 161.928 158.513 160.212 161.635C141.591 195.522 131 234.446 131 275.843C131 275.843 131 275.843 131 275.843H606C606 275.843 606 275.843 606 275.843C606 234.446 595.409 195.522 576.788 161.635C575.072 158.513 571.765 156.627 568.204 156.627H168.796Z"/>
</mask>
<path fill-rule="evenodd" clip-rule="evenodd" d="M168.796 156.627C165.235 156.627 161.928 158.513 160.212 161.635C141.591 195.522 131 234.446 131 275.843C131 275.843 131 275.843 131 275.843H606C606 275.843 606 275.843 606 275.843C606 234.446 595.409 195.522 576.788 161.635C575.072 158.513 571.765 156.627 568.204 156.627H168.796Z" fill="#3BA99C"/>
<path d="M576.788 161.635L566.271 167.413L576.788 161.635ZM149.696 155.856C130.126 191.469 119 232.375 119 275.843H143C143 236.517 153.057 199.575 170.729 167.413L149.696 155.856ZM131 287.843H606V263.843H131V287.843ZM618 275.843C618 232.375 606.874 191.469 587.304 155.856L566.271 167.413C583.943 199.575 594 236.517 594 275.843H618ZM568.204 144.627H168.796V168.627H568.204V144.627ZM606 287.843C612.906 287.843 618 282.189 618 275.843H594C594 269.498 599.094 263.843 606 263.843V287.843ZM119 275.843C119 282.471 124.373 287.843 131 287.843V263.843C137.628 263.843 143 269.216 143 275.843H119ZM587.304 155.856C583.403 148.755 575.978 144.627 568.204 144.627V168.627C567.552 168.627 566.742 168.271 566.271 167.413L587.304 155.856ZM170.729 167.413C170.258 168.271 169.448 168.627 168.796 168.627V144.627C161.022 144.627 153.597 148.755 149.696 155.856L170.729 167.413Z" fill="#541312" mask="url(#path-28-outside-5_14_3363)"/>
<rect x="453.049" y="143.382" width="89.8272" height="47.9136" fill="#541312" stroke="#541312" stroke-width="6"/>
<path fill-rule="evenodd" clip-rule="evenodd" d="M477.153 146.848C477.153 146.849 477.153 146.85 477.154 146.85H477.156C477.157 146.85 477.157 146.85 477.157 146.851V165.536C477.157 166.088 477.605 166.536 478.157 166.536H495.963C496.515 166.536 496.963 166.088 496.963 165.536V147.349C496.963 147.073 497.187 146.849 497.463 146.849C497.739 146.849 497.963 147.073 497.963 147.349V166.536C497.963 166.536 497.963 166.536 497.963 166.536C497.963 166.536 497.964 166.536 497.964 166.537V167.536L497.964 167.536L497.964 167.536L497.964 167.536L497.964 167.536L497.964 167.536L497.963 167.537C497.963 167.537 497.963 167.537 497.963 167.537C497.963 167.537 497.963 167.537 497.963 167.538V187.722C497.963 187.998 497.739 188.222 497.463 188.222C497.187 188.222 496.963 187.998 496.963 187.722V170.936C496.963 170.046 495.888 169.599 495.258 170.227L477.158 188.222C477.158 188.222 477.157 188.222 477.157 188.222C477.157 188.222 477.156 188.222 477.156 188.223C477.156 188.223 477.156 188.223 477.156 188.223L477.156 188.223C477.155 188.224 477.153 188.224 477.152 188.223C477.152 188.223 477.151 188.222 477.151 188.222H476.856C476.47 188.222 476.157 187.91 476.157 187.524C476.157 187.338 476.083 187.16 475.952 187.029L456.35 167.536C455.959 167.147 455.959 166.515 456.35 166.126L476.092 146.493C476.287 146.299 476.602 146.299 476.797 146.493L477.153 146.847C477.154 146.847 477.154 146.848 477.153 146.848ZM476.157 183.419C476.157 184.308 475.083 184.755 474.452 184.128L457.772 167.54C457.379 167.149 457.379 166.513 457.772 166.122L474.452 149.534C475.083 148.907 476.157 149.354 476.157 150.243V165.536C476.157 166.088 475.71 166.536 475.157 166.536H467.254C466.978 166.536 466.754 166.76 466.754 167.036C466.754 167.312 466.978 167.536 467.254 167.536H475.157C475.71 167.536 476.157 167.984 476.157 168.536V183.419ZM494.826 169.245C495.459 168.616 495.013 167.536 494.121 167.536H478.157C477.605 167.536 477.157 167.984 477.157 168.536V184.408C477.157 185.297 478.232 185.744 478.862 185.117L494.826 169.245ZM540.423 167.183C540.619 167.381 540.939 167.381 541.134 167.183C541.327 166.988 541.327 166.674 541.134 166.48L521.721 146.854C521.334 146.462 520.701 146.462 520.314 146.854C520.314 146.853 520.314 146.853 520.314 146.853H520.3C520.297 146.853 520.293 146.852 520.29 146.849L520.089 146.646C519.815 146.369 519.368 146.369 519.094 146.646L499.624 166.329C499.349 166.607 499.349 167.055 499.624 167.334L499.824 167.535C499.828 167.54 499.83 167.546 499.83 167.552C499.83 167.566 499.841 167.576 499.855 167.576H516.493C517.381 167.576 517.828 168.648 517.204 169.28L499.475 187.202C499.282 187.397 499.282 187.711 499.475 187.906C499.671 188.103 499.99 188.103 500.186 187.906L517.603 170.297C518.232 169.662 519.314 170.107 519.314 171.001V187.798C519.314 188.075 519.538 188.298 519.814 188.298C520.09 188.298 520.314 188.075 520.314 187.798V168.576C520.314 168.024 520.762 167.576 521.314 167.576H530.061C530.337 167.576 530.561 167.352 530.561 167.076C530.561 166.8 530.337 166.576 530.061 166.576H521.314C520.762 166.576 520.314 166.129 520.314 165.576V146.854L540.423 167.183ZM519.314 150.278C519.314 149.385 518.232 148.94 517.603 149.575L502.471 164.873C501.846 165.505 502.293 166.576 503.182 166.576H518.314C518.867 166.576 519.314 166.129 519.314 165.576V150.278Z" fill="#541312"/>
<path d="M477.153 146.848L478.21 147.913L478.211 147.912L477.153 146.848ZM497.964 167.536H496.464V167.871L496.606 168.175L497.964 167.536ZM497.964 167.536L499.461 167.622L499.483 167.242L499.321 166.897L497.964 167.536ZM497.964 167.536L499.356 168.093L499.447 167.866L499.461 167.622L497.964 167.536ZM497.964 167.536L499.024 168.597L499.242 168.379L499.356 168.093L497.964 167.536ZM497.964 167.536L498.565 168.91L498.824 168.797L499.024 168.597L497.964 167.536ZM497.964 167.536L497.362 166.162L497.106 166.274L496.908 166.471L497.964 167.536ZM497.963 167.537L499.017 168.604L499.019 168.602L497.963 167.537ZM497.963 167.537L496.557 167.013L496.555 167.019L497.963 167.537ZM495.258 170.227L496.315 171.29V171.29L495.258 170.227ZM477.158 188.222L476.1 187.158L476.097 187.161L477.158 188.222ZM477.156 188.223L477.778 189.587L477.786 189.584L477.794 189.58L477.156 188.223ZM477.156 188.223L478.213 189.287L478.216 189.283L477.156 188.223ZM477.156 188.223L476.099 187.159L476.098 187.159L477.156 188.223ZM477.152 188.223L478.21 187.159L478.208 187.158L477.152 188.223ZM475.952 187.029L477.009 185.965L477.009 185.965L475.952 187.029ZM456.35 167.536L457.408 166.473H457.408L456.35 167.536ZM456.35 166.126L455.292 165.062L455.292 165.062L456.35 166.126ZM476.092 146.493L475.035 145.429L475.035 145.429L476.092 146.493ZM476.797 146.493L477.855 145.429V145.429L476.797 146.493ZM477.153 146.847L478.211 145.784L478.211 145.783L477.153 146.847ZM474.452 184.128L475.51 183.064L474.452 184.128ZM457.772 167.54L456.714 168.604H456.714L457.772 167.54ZM457.772 166.122L456.714 165.058H456.714L457.772 166.122ZM474.452 149.534L473.395 148.471L473.395 148.471L474.452 149.534ZM494.826 169.245L493.769 168.182L493.769 168.182L494.826 169.245ZM478.862 185.117L477.805 184.053H477.805L478.862 185.117ZM541.134 167.183L542.201 168.238L542.201 168.238L541.134 167.183ZM540.423 167.183L539.357 168.238L539.357 168.238L540.423 167.183ZM541.134 166.48L542.201 165.425L542.201 165.425L541.134 166.48ZM521.721 146.854L520.654 147.909L520.654 147.909L521.721 146.854ZM520.29 146.849L519.224 147.904L519.224 147.904L520.29 146.849ZM520.089 146.646L521.156 145.591V145.591L520.089 146.646ZM519.094 146.646L520.161 147.7V147.7L519.094 146.646ZM499.624 166.329L500.69 167.384L500.69 167.384L499.624 166.329ZM499.624 167.334L500.69 166.279L500.69 166.279L499.624 167.334ZM499.824 167.535L498.757 168.59L498.757 168.59L499.824 167.535ZM517.204 169.28L518.27 170.334V170.334L517.204 169.28ZM499.475 187.202L498.409 186.147L499.475 187.202ZM499.475 187.906L500.541 186.851L500.541 186.851L499.475 187.906ZM500.186 187.906L501.252 188.96L501.252 188.96L500.186 187.906ZM517.603 170.297L516.537 169.243V169.243L517.603 170.297ZM517.603 149.575L518.67 150.63V150.63L517.603 149.575ZM502.471 164.873L501.404 163.818L502.471 164.873ZM477.154 145.35C478.489 145.35 479.162 146.967 478.21 147.913L476.097 145.784C475.143 146.73 475.818 148.35 477.154 148.35V145.35ZM477.156 145.35H477.154V148.35H477.156V145.35ZM478.657 146.851C478.657 146.021 477.984 145.35 477.156 145.35V148.35C476.329 148.35 475.657 147.68 475.657 146.851H478.657ZM478.657 165.536V146.851H475.657V165.536H478.657ZM478.157 165.036C478.434 165.036 478.657 165.26 478.657 165.536H475.657C475.657 166.917 476.777 168.036 478.157 168.036V165.036ZM495.963 165.036H478.157V168.036H495.963V165.036ZM495.463 165.536C495.463 165.26 495.687 165.036 495.963 165.036V168.036C497.343 168.036 498.463 166.917 498.463 165.536H495.463ZM495.463 147.349V165.536H498.463V147.349H495.463ZM497.463 145.349C496.358 145.349 495.463 146.245 495.463 147.349H498.463C498.463 147.902 498.015 148.349 497.463 148.349V145.349ZM499.463 147.349C499.463 146.245 498.567 145.349 497.463 145.349V148.349C496.91 148.349 496.463 147.902 496.463 147.349H499.463ZM499.463 166.536V147.349H496.463V166.536H499.463ZM497.963 165.036C498.791 165.036 499.463 165.708 499.463 166.536H496.463C496.463 167.364 497.135 168.036 497.963 168.036V165.036ZM499.464 166.537C499.464 165.716 498.8 165.036 497.963 165.036V168.036C497.127 168.036 496.464 167.357 496.464 166.537H499.464ZM499.464 167.536V166.537H496.464V167.536H499.464ZM499.321 166.897L499.321 166.897L496.606 168.175L496.606 168.175L499.321 166.897ZM499.461 167.622L499.461 167.622L496.466 167.45L496.466 167.451L499.461 167.622ZM499.356 168.093L499.356 168.093L496.571 166.979L496.571 166.979L499.356 168.093ZM499.024 168.597L499.024 168.597L496.903 166.475L496.903 166.476L499.024 168.597ZM498.565 168.91L498.565 168.91L497.362 166.162L497.362 166.162L498.565 168.91ZM499.019 168.602L499.019 168.602L496.908 166.471L496.907 166.471L499.019 168.602ZM499.368 168.061C499.293 168.263 499.174 168.449 499.017 168.604L496.909 166.469C496.752 166.625 496.633 166.811 496.557 167.013L499.368 168.061ZM499.463 167.538C499.463 167.73 499.426 167.905 499.371 168.055L496.555 167.019C496.5 167.17 496.463 167.345 496.463 167.538H499.463ZM499.463 187.722V167.538H496.463V187.722H499.463ZM497.463 189.722C498.567 189.722 499.463 188.827 499.463 187.722H496.463C496.463 187.17 496.91 186.722 497.463 186.722V189.722ZM495.463 187.722C495.463 188.827 496.358 189.722 497.463 189.722V186.722C498.015 186.722 498.463 187.17 498.463 187.722H495.463ZM495.463 170.936V187.722H498.463V170.936H495.463ZM496.315 171.29C496 171.604 495.463 171.38 495.463 170.936H498.463C498.463 168.712 495.777 167.595 494.2 169.163L496.315 171.29ZM478.215 189.286L496.315 171.29L494.2 169.163L476.1 187.158L478.215 189.286ZM477.157 189.722C477.555 189.722 477.937 189.565 478.219 189.283L476.097 187.161C476.379 186.88 476.76 186.722 477.157 186.722V189.722ZM477.794 189.58C477.594 189.674 477.376 189.722 477.157 189.722V186.722C476.937 186.722 476.719 186.771 476.519 186.865L477.794 189.58ZM478.216 189.283C478.091 189.409 477.943 189.513 477.778 189.587L476.534 186.858C476.37 186.933 476.221 187.036 476.095 187.162L478.216 189.283ZM478.212 189.288L478.213 189.287L476.099 187.158L476.099 187.159L478.212 189.288ZM476.095 189.287C476.681 189.869 477.627 189.869 478.213 189.287L476.098 187.159C476.682 186.579 477.625 186.579 478.21 187.159L476.095 189.287ZM477.151 189.722C476.753 189.722 476.375 189.565 476.096 189.288L478.208 187.158C477.929 186.881 477.549 186.722 477.151 186.722V189.722ZM476.856 189.722H477.151V186.722H476.856V189.722ZM474.657 187.524C474.657 188.738 475.642 189.722 476.856 189.722V186.722C477.298 186.722 477.657 187.081 477.657 187.524H474.657ZM474.894 188.093C474.743 187.942 474.657 187.738 474.657 187.524H477.657C477.657 186.939 477.424 186.378 477.009 185.965L474.894 188.093ZM455.292 168.6L474.894 188.093L477.009 185.965L457.408 166.473L455.292 168.6ZM455.292 165.062C454.311 166.038 454.311 167.625 455.292 168.6L457.408 166.473C457.606 166.67 457.606 166.992 457.408 167.19L455.292 165.062ZM475.035 145.429L455.292 165.062L457.408 167.19L477.15 147.557L475.035 145.429ZM477.855 145.429C477.075 144.654 475.815 144.654 475.035 145.429L477.15 147.557C476.76 147.945 476.13 147.945 475.74 147.557L477.855 145.429ZM478.211 145.783L477.855 145.429L475.74 147.557L476.096 147.911L478.211 145.783ZM478.211 147.912C478.801 147.325 478.801 146.37 478.211 145.784L476.095 147.91C475.506 147.324 475.506 146.371 476.095 145.785L478.211 147.912ZM473.395 185.191C474.972 186.76 477.657 185.643 477.657 183.419H474.657C474.657 182.974 475.195 182.751 475.51 183.064L473.395 185.191ZM456.714 168.604L473.395 185.191L475.51 183.064L458.83 166.477L456.714 168.604ZM456.714 165.058C455.731 166.036 455.731 167.626 456.714 168.604L458.83 166.477C459.026 166.672 459.026 166.99 458.83 167.186L456.714 165.058ZM473.395 148.471L456.714 165.058L458.83 167.186L475.51 150.598L473.395 148.471ZM477.657 150.243C477.657 148.019 474.971 146.903 473.395 148.471L475.51 150.598C475.195 150.912 474.657 150.688 474.657 150.243H477.657ZM477.657 165.536V150.243H474.657V165.536H477.657ZM475.157 168.036C476.538 168.036 477.657 166.917 477.657 165.536H474.657C474.657 165.26 474.881 165.036 475.157 165.036V168.036ZM467.254 168.036H475.157V165.036H467.254V168.036ZM468.254 167.036C468.254 167.588 467.806 168.036 467.254 168.036V165.036C466.15 165.036 465.254 165.932 465.254 167.036H468.254ZM467.254 166.036C467.806 166.036 468.254 166.484 468.254 167.036H465.254C465.254 168.141 466.15 169.036 467.254 169.036V166.036ZM475.157 166.036H467.254V169.036H475.157V166.036ZM477.657 168.536C477.657 167.155 476.538 166.036 475.157 166.036V169.036C474.881 169.036 474.657 168.812 474.657 168.536H477.657ZM477.657 183.419V168.536H474.657V183.419H477.657ZM494.121 169.036C493.675 169.036 493.452 168.496 493.769 168.182L495.884 170.309C497.466 168.736 496.352 166.036 494.121 166.036V169.036ZM478.157 169.036H494.121V166.036H478.157V169.036ZM478.657 168.536C478.657 168.812 478.434 169.036 478.157 169.036V166.036C476.777 166.036 475.657 167.155 475.657 168.536H478.657ZM478.657 184.408V168.536H475.657V184.408H478.657ZM477.805 184.053C478.12 183.74 478.657 183.963 478.657 184.408H475.657C475.657 186.632 478.343 187.749 479.92 186.181L477.805 184.053ZM493.769 168.182L477.805 184.053L479.92 186.181L495.884 170.309L493.769 168.182ZM540.068 166.128C540.459 165.732 541.098 165.732 541.49 166.128L539.357 168.238C540.14 169.029 541.418 169.029 542.201 168.238L540.068 166.128ZM540.068 167.535C539.682 167.145 539.682 166.518 540.068 166.128L542.201 168.238C542.972 167.459 542.972 166.204 542.201 165.425L540.068 167.535ZM520.654 147.909L540.068 167.535L542.201 165.425L522.787 145.799L520.654 147.909ZM521.381 147.909C521.181 148.111 520.854 148.111 520.654 147.909L522.787 145.799C521.813 144.814 520.222 144.814 519.248 145.799L521.381 147.909ZM521.814 146.854C521.814 146.026 521.144 145.353 520.314 145.353V148.353C519.485 148.353 518.814 147.681 518.814 146.854H521.814ZM520.314 145.353H520.3V148.353H520.314V145.353ZM520.3 145.353C520.697 145.353 521.078 145.512 521.356 145.794L519.224 147.904C519.508 148.191 519.896 148.353 520.3 148.353V145.353ZM521.357 145.794L521.156 145.591L519.023 147.7L519.224 147.904L521.357 145.794ZM521.156 145.591C520.295 144.72 518.889 144.72 518.028 145.591L520.161 147.7C519.848 148.017 519.336 148.017 519.023 147.7L521.156 145.591ZM518.028 145.591L498.558 165.274L500.69 167.384L520.161 147.7L518.028 145.591ZM498.558 165.274C497.704 166.137 497.704 167.526 498.558 168.388L500.69 166.279C500.993 166.585 500.993 167.078 500.69 167.384L498.558 165.274ZM498.558 168.388L498.757 168.59L500.89 166.48L500.69 166.279L498.558 168.388ZM498.757 168.59C498.484 168.314 498.33 167.941 498.33 167.552H501.33C501.33 167.151 501.172 166.766 500.89 166.48L498.757 168.59ZM498.33 167.552C498.33 168.394 499.013 169.076 499.855 169.076V166.076C500.67 166.076 501.33 166.737 501.33 167.552H498.33ZM499.855 169.076H516.493V166.076H499.855V169.076ZM516.493 169.076C516.049 169.076 515.825 168.54 516.137 168.225L518.27 170.334C519.832 168.756 518.714 166.076 516.493 166.076V169.076ZM516.137 168.225L498.409 186.147L500.541 188.257L518.27 170.334L516.137 168.225ZM498.409 186.147C497.638 186.927 497.638 188.181 498.409 188.96L500.541 186.851C500.927 187.24 500.927 187.868 500.541 188.257L498.409 186.147ZM498.409 188.96C499.191 189.752 500.47 189.752 501.252 188.96L499.12 186.851C499.511 186.455 500.15 186.455 500.541 186.851L498.409 188.96ZM501.252 188.96L518.67 171.352L516.537 169.243L499.12 186.851L501.252 188.96ZM518.67 171.352C518.356 171.67 517.814 171.447 517.814 171.001H520.814C520.814 168.767 518.108 167.654 516.537 169.243L518.67 171.352ZM517.814 171.001V187.798H520.814V171.001H517.814ZM517.814 187.798C517.814 188.903 518.71 189.798 519.814 189.798V186.798C520.367 186.798 520.814 187.246 520.814 187.798H517.814ZM519.814 189.798C520.919 189.798 521.814 188.903 521.814 187.798H518.814C518.814 187.246 519.262 186.798 519.814 186.798V189.798ZM521.814 187.798V168.576H518.814V187.798H521.814ZM521.814 168.576C521.814 168.852 521.59 169.076 521.314 169.076V166.076C519.934 166.076 518.814 167.196 518.814 168.576H521.814ZM521.314 169.076H530.061V166.076H521.314V169.076ZM530.061 169.076C531.165 169.076 532.061 168.181 532.061 167.076H529.061C529.061 166.524 529.508 166.076 530.061 166.076V169.076ZM532.061 167.076C532.061 165.972 531.165 165.076 530.061 165.076V168.076C529.508 168.076 529.061 167.629 529.061 167.076H532.061ZM530.061 165.076H521.314V168.076H530.061V165.076ZM521.314 165.076C521.59 165.076 521.814 165.3 521.814 165.576H518.814C518.814 166.957 519.934 168.076 521.314 168.076V165.076ZM521.814 165.576V146.854H518.814V165.576H521.814ZM541.49 166.128L521.381 145.799L519.248 147.909L539.357 168.238L541.49 166.128ZM518.67 150.63C518.356 150.947 517.814 150.725 517.814 150.278H520.814C520.814 148.044 518.108 146.932 516.537 148.52L518.67 150.63ZM503.537 165.928L518.67 150.63L516.537 148.52L501.404 163.818L503.537 165.928ZM503.182 165.076C503.626 165.076 503.85 165.612 503.537 165.928L501.404 163.818C499.843 165.397 500.961 168.076 503.182 168.076V165.076ZM518.314 165.076H503.182V168.076H518.314V165.076ZM517.814 165.576C517.814 165.3 518.038 165.076 518.314 165.076V168.076C519.695 168.076 520.814 166.957 520.814 165.576H517.814ZM517.814 150.278V165.576H520.814V150.278H517.814Z" fill="#3BA99C"/>
</svg>
