<svg width="551" height="550" viewBox="0 0 551 550" fill="none" xmlns="http://www.w3.org/2000/svg">
<path fill-rule="evenodd" clip-rule="evenodd" d="M275.13 25.524C275.121 25.524 275.117 25.5133 275.123 25.507V25.507C275.127 25.5031 275.127 25.4968 275.123 25.493L274.776 25.1464C274.581 24.9512 274.264 24.9512 274.069 25.1464L25.2929 273.783C24.9024 274.173 24.9024 274.807 25.2929 275.197V275.197L273.955 523.719C274.081 523.846 274.152 524.017 274.152 524.196V524.196C274.152 524.568 274.454 524.87 274.826 524.87H275.096C275.102 524.87 275.108 524.872 275.113 524.877V524.877C275.122 524.886 275.138 524.886 275.147 524.877L275.837 524.187C275.837 524.187 275.837 524.187 275.837 524.187V524.187C275.837 524.186 275.837 524.186 275.837 524.186L522.313 277.9C522.943 277.271 524.02 277.717 524.02 278.608V524.37C524.02 524.646 524.244 524.87 524.52 524.87V524.87C524.796 524.87 525.02 524.646 525.02 524.37V26.024C525.02 25.7478 524.796 25.524 524.52 25.524V25.524C524.244 25.524 524.02 25.7478 524.02 26.024V273.197C524.02 273.749 523.572 274.197 523.02 274.197H276.152C275.6 274.197 275.152 273.749 275.152 273.197V25.5375C275.152 25.53 275.146 25.524 275.139 25.524H275.13ZM272.445 520.797C273.075 521.427 274.152 520.98 274.152 520.09V276.197C274.152 275.645 273.704 275.197 273.152 275.197H150.715C150.439 275.197 150.215 274.973 150.215 274.697V274.697C150.215 274.421 150.439 274.197 150.715 274.197H273.152C273.704 274.197 274.152 273.749 274.152 273.197V28.8905C274.152 27.9997 273.075 27.5535 272.445 28.1832L26.7079 273.783C26.3171 274.173 26.3171 274.807 26.7079 275.197L272.445 520.797ZM521.188 275.197C522.079 275.197 522.525 276.274 521.895 276.904L276.859 521.751C276.229 522.38 275.152 521.934 275.152 521.043V276.197C275.152 275.645 275.6 275.197 276.152 275.197H521.188Z" fill="#A22522"/>
<path d="M521.895 276.904L539.566 294.589L521.895 276.904ZM276.859 521.751L259.188 504.066L276.859 521.751ZM26.7079 273.783L9.03521 256.1L26.7079 273.783ZM26.7079 275.197L9.03522 292.88L26.7079 275.197ZM272.445 28.1832L254.773 10.5005L272.445 28.1832ZM272.445 520.797L290.118 503.114L272.445 520.797ZM275.837 524.186L258.166 506.501L275.837 524.186ZM275.837 524.187L293.509 541.87L275.837 524.187ZM275.147 524.877L257.474 507.194L275.147 524.877ZM25.2929 273.783L7.62021 256.101L25.2929 273.783ZM274.776 25.1464L257.103 42.829L274.776 25.1464ZM274.069 25.1464L291.742 42.829L274.069 25.1464ZM273.955 523.719L256.282 541.402L273.955 523.719ZM522.313 277.9L504.642 260.216L522.313 277.9ZM275.123 25.493L257.45 43.1756L275.123 25.493ZM257.103 42.829L257.45 43.1756L292.796 7.81034L292.449 7.46373L257.103 42.829ZM42.9656 291.466L291.742 42.829L256.396 7.46374L7.62021 256.101L42.9656 291.466ZM291.627 506.037L42.9656 257.514L7.62021 292.88L256.282 541.402L291.627 506.037ZM275.096 499.87H274.826V549.87H275.096V499.87ZM258.164 506.505L257.474 507.194L292.82 542.56L293.509 541.87L258.164 506.505ZM504.642 260.216L258.166 506.501L293.508 541.87L539.984 295.585L504.642 260.216ZM549.02 524.37V278.608H499.02V524.37H549.02ZM500.02 26.024V524.37H550.02V26.024H500.02ZM549.02 273.197V26.024H499.02V273.197H549.02ZM276.152 299.197H523.02V249.197H276.152V299.197ZM250.152 25.5375V273.197H300.152V25.5375H250.152ZM275.13 50.524H275.139V0.523956H275.13V50.524ZM299.152 520.09V276.197H249.152V520.09H299.152ZM273.152 250.197H150.715V300.197H273.152V250.197ZM150.715 299.197H273.152V249.197H150.715V299.197ZM299.152 273.197V28.8905H249.152V273.197H299.152ZM254.773 10.5005L9.03521 256.1L44.3806 291.465L290.118 45.8658L254.773 10.5005ZM9.03522 292.88L254.773 538.48L290.118 503.114L44.3806 257.515L9.03522 292.88ZM294.53 539.435L539.566 294.589L504.224 259.22L259.188 504.066L294.53 539.435ZM250.152 276.197V521.043H300.152V276.197H250.152ZM521.188 250.197H276.152V300.197H521.188V250.197ZM300.152 276.197C300.152 289.452 289.407 300.197 276.152 300.197V250.197C261.793 250.197 250.152 261.838 250.152 276.197H300.152ZM539.566 294.589C555.955 278.212 544.355 250.197 521.188 250.197V300.197C499.803 300.197 489.095 274.337 504.224 259.22L539.566 294.589ZM259.188 504.066C274.31 488.956 300.152 499.666 300.152 521.043H250.152C250.152 544.202 278.148 555.804 294.53 539.435L259.188 504.066ZM9.03521 256.1C-1.12566 266.255 -1.12492 282.726 9.03522 292.88L44.3806 257.515C53.7592 266.888 53.7599 282.091 44.3806 291.465L9.03521 256.1ZM299.152 28.8905C299.152 5.73071 271.154 -5.87165 254.773 10.5005L290.118 45.8658C274.997 60.9786 249.152 50.2687 249.152 28.8905H299.152ZM175.215 274.697C175.215 288.228 164.246 299.197 150.715 299.197V249.197C136.631 249.197 125.215 260.614 125.215 274.697H175.215ZM150.715 250.197C164.246 250.197 175.215 261.166 175.215 274.697H125.215C125.215 288.78 136.631 300.197 150.715 300.197V250.197ZM299.152 276.197C299.152 261.838 287.512 250.197 273.152 250.197V300.197C259.897 300.197 249.152 289.452 249.152 276.197H299.152ZM249.152 520.09C249.152 498.711 274.997 488.002 290.118 503.114L254.773 538.48C271.154 554.851 299.152 543.25 299.152 520.09H249.152ZM300.152 25.5375C300.152 11.7229 288.953 0.523956 275.139 0.523956V50.524C261.339 50.524 250.152 39.3371 250.152 25.5375H300.152ZM276.152 249.197C289.407 249.197 300.152 259.942 300.152 273.197H250.152C250.152 287.556 261.793 299.197 276.152 299.197V249.197ZM499.02 273.197C499.02 259.942 509.765 249.197 523.02 249.197V299.197C537.379 299.197 549.02 287.556 549.02 273.197H499.02ZM524.52 0.523956C510.436 0.523956 499.02 11.9412 499.02 26.024H549.02C549.02 39.5544 538.051 50.524 524.52 50.524V0.523956ZM550.02 26.024C550.02 11.9407 538.603 0.523956 524.52 0.523956V50.524C510.989 50.524 500.02 39.5549 500.02 26.024H550.02ZM524.52 549.87C538.603 549.87 550.02 538.453 550.02 524.37H500.02C500.02 510.838 510.989 499.87 524.52 499.87V549.87ZM499.02 524.37C499.02 538.453 510.436 549.87 524.52 549.87V499.87C538.051 499.87 549.02 510.839 549.02 524.37H499.02ZM293.514 506.509C303.364 516.358 303.193 532.192 293.508 541.87L258.166 506.501C248.48 516.18 248.309 532.014 258.159 541.864L293.514 506.509ZM293.509 541.87C303.277 532.108 303.28 516.274 293.514 506.509L258.159 541.864C248.394 532.099 248.397 516.267 258.164 506.505L293.509 541.87ZM257.441 542.56C267.212 552.325 283.049 552.325 292.82 542.56L257.474 507.194C267.227 497.447 283.032 497.447 292.785 507.194L257.441 542.56ZM275.096 549.87C268.475 549.87 262.124 547.241 257.441 542.56L292.785 507.194C288.092 502.504 281.73 499.87 275.096 499.87V549.87ZM249.152 524.196C249.152 538.375 260.647 549.87 274.826 549.87V499.87C288.261 499.87 299.152 510.761 299.152 524.196H249.152ZM7.62021 256.101C-2.54007 266.255 -2.54006 282.725 7.6202 292.88L42.9656 257.514C52.3448 266.888 52.3448 282.092 42.9656 291.466L7.62021 256.101ZM292.449 7.46373C282.492 -2.48774 266.354 -2.48807 256.396 7.46374L291.742 42.829C282.175 52.3905 266.67 52.3902 257.103 42.829L292.449 7.46373ZM257.447 7.82706C241.689 23.5815 252.847 50.524 275.13 50.524V0.523956C297.395 0.523956 308.544 27.4451 292.798 43.187L257.447 7.82706ZM256.282 541.402C251.717 536.839 249.152 530.65 249.152 524.196H299.152C299.152 517.384 296.445 510.852 291.627 506.037L256.282 541.402ZM539.984 295.585C524.862 310.695 499.02 299.985 499.02 278.608H549.02C549.02 255.449 521.024 243.846 504.642 260.216L539.984 295.585ZM273.152 299.197C287.512 299.197 299.152 287.556 299.152 273.197H249.152C249.152 259.942 259.897 249.197 273.152 249.197V299.197ZM292.798 43.187C302.569 33.4184 302.568 17.5774 292.796 7.81034L257.45 43.1756C247.685 33.4163 247.684 17.5879 257.447 7.82706L292.798 43.187Z" fill="#A22522"/>
</svg>
