<svg width="930" height="835" viewBox="0 0 930 835" fill="none" xmlns="http://www.w3.org/2000/svg">
<circle cx="74.4904" cy="410.49" r="68.4904" fill="#ECF1FE" stroke="#212254" stroke-width="12"/>
<path fill-rule="evenodd" clip-rule="evenodd" d="M59.4904 454.981C94.0029 454.981 121.981 427.003 121.981 392.49C121.981 381.504 119.146 371.18 114.167 362.21C128.098 373.671 136.981 391.043 136.981 410.49C136.981 445.003 109.003 472.981 74.4904 472.981C50.9642 472.981 30.4744 459.98 19.8135 440.771C30.6049 449.65 44.4251 454.981 59.4904 454.981Z" fill="#BFCFFA"/>
<mask id="path-3-outside-1_6_2" maskUnits="userSpaceOnUse" x="56" y="61" width="874" height="774" fill="black">
<rect fill="white" x="56" y="61" width="874" height="774"/>
<path fill-rule="evenodd" clip-rule="evenodd" d="M317.962 73C456.012 73 567.923 184.912 567.923 322.962H567.924C567.924 331.9 568.237 340.766 568.852 349.548C573.374 348.508 578.083 347.958 582.921 347.958C617.434 347.958 645.412 375.936 645.412 410.448C645.412 439.656 625.374 464.183 598.296 471.033C650.478 592.302 764.805 680.528 901.179 695.613C812.736 774.76 695.95 822.885 567.924 822.885C291.937 822.885 68.1846 599.246 68.0002 323.303L68 322.962C68 184.912 179.912 73 317.962 73Z"/>
</mask>
<path fill-rule="evenodd" clip-rule="evenodd" d="M317.962 73C456.012 73 567.923 184.912 567.923 322.962H567.924C567.924 331.9 568.237 340.766 568.852 349.548C573.374 348.508 578.083 347.958 582.921 347.958C617.434 347.958 645.412 375.936 645.412 410.448C645.412 439.656 625.374 464.183 598.296 471.033C650.478 592.302 764.805 680.528 901.179 695.613C812.736 774.76 695.95 822.885 567.924 822.885C291.937 822.885 68.1846 599.246 68.0002 323.303L68 322.962C68 184.912 179.912 73 317.962 73Z" fill="#ECF1FE"/>
<path d="M567.923 322.962H555.923V334.962H567.923V322.962ZM567.924 322.962H579.924V310.962H567.924V322.962ZM568.852 349.548L556.881 350.387L557.862 364.39L571.542 361.243L568.852 349.548ZM598.296 471.033L595.353 459.4L581.711 462.851L587.273 475.776L598.296 471.033ZM901.179 695.613L909.181 704.555L929.201 686.64L902.499 683.686L901.179 695.613ZM68.0002 323.303L80.0002 323.295L80.0002 323.295L68.0002 323.303ZM68 322.962L56 322.962L56 322.97L68 322.962ZM579.923 322.962C579.923 178.284 462.639 61 317.962 61V85C449.384 85 555.923 191.539 555.923 322.962H579.923ZM567.924 310.962H567.923V334.962H567.924V310.962ZM580.822 348.71C580.227 340.206 579.924 331.62 579.924 322.962H555.924C555.924 332.18 556.246 341.326 556.881 350.387L580.822 348.71ZM571.542 361.243C575.188 360.404 578.995 359.958 582.921 359.958V335.958C577.171 335.958 571.559 336.612 566.161 337.854L571.542 361.243ZM582.921 359.958C610.806 359.958 633.412 382.563 633.412 410.448H657.412C657.412 369.308 624.061 335.958 582.921 335.958V359.958ZM633.412 410.448C633.412 434.031 617.233 453.864 595.353 459.4L601.239 482.667C633.515 474.501 657.412 445.28 657.412 410.448H633.412ZM902.499 683.686C770.526 669.087 659.838 583.696 609.319 466.29L587.273 475.776C641.117 600.908 759.084 691.968 899.86 707.54L902.499 683.686ZM567.924 834.885C699.016 834.885 818.624 785.595 909.181 704.555L893.177 686.671C806.849 763.925 692.885 810.885 567.924 810.885V834.885ZM56.0002 323.311C56.189 605.878 285.313 834.885 567.924 834.885V810.885C298.562 810.885 80.1802 592.614 80.0002 323.295L56.0002 323.311ZM56 322.97L56.0002 323.311L80.0002 323.295L80 322.954L56 322.97ZM317.962 61C173.284 61 56 178.284 56 322.962H80C80 191.539 186.539 85 317.962 85V61Z" fill="#212254" mask="url(#path-3-outside-1_6_2)"/>
<path fill-rule="evenodd" clip-rule="evenodd" d="M641.669 432.452C620.099 448.451 590.29 458.347 557.361 458.347C552.223 458.347 547.162 458.106 542.196 457.639C553.165 467.169 567.49 472.939 583.162 472.939C609.93 472.939 632.767 456.108 641.669 432.452Z" fill="#BFCFFA"/>
<path fill-rule="evenodd" clip-rule="evenodd" d="M148.188 594.631C237.285 732.006 391.991 822.885 567.923 822.885C695.922 822.885 812.685 774.781 901.121 695.665C811.749 733.26 713.563 754.037 610.525 754.037C436.101 754.037 275.583 694.497 148.188 594.631Z" fill="#BFCFFA"/>
<circle cx="386.943" cy="289.217" r="44.2437" fill="#212254" stroke="#212254" stroke-width="6"/>
<circle cx="368.195" cy="277.969" r="21.7471" fill="white" stroke="#212254" stroke-width="6"/>
<circle cx="186.973" cy="289.217" r="44.2437" fill="#212254" stroke="#212254" stroke-width="6"/>
<circle cx="168.226" cy="277.969" r="21.7471" fill="white" stroke="#212254" stroke-width="6"/>
<path d="M288.839 473.439C302.71 473.439 315.016 465.787 323.747 453.913C332.479 442.038 337.788 425.778 337.788 407.949C337.788 390.12 332.479 373.859 323.747 361.984C315.016 350.111 302.71 342.458 288.839 342.458C274.969 342.458 262.662 350.111 253.932 361.984C245.2 373.859 239.89 390.12 239.89 407.949C239.89 425.778 245.2 442.038 253.932 453.913C262.662 465.787 274.969 473.439 288.839 473.439Z" fill="#212254" stroke="#212254" stroke-width="6"/>
<path fill-rule="evenodd" clip-rule="evenodd" d="M251.834 444.999C262.701 426.566 282.758 414.198 305.705 414.198C315.812 414.198 325.359 416.597 333.807 420.858C329.433 449.176 310.962 470.439 288.839 470.439C273.66 470.439 260.201 460.429 251.834 444.999Z" fill="#FECACC"/>
<path fill-rule="evenodd" clip-rule="evenodd" d="M305.705 414.198C282.758 414.198 262.701 426.566 251.834 444.999C251.852 445.032 251.87 445.065 251.888 445.098C261.096 439.754 271.795 436.694 283.209 436.694C298.074 436.694 311.727 441.885 322.454 450.553C328.05 442.391 332.057 432.189 333.807 420.858C325.359 416.597 315.812 414.198 305.705 414.198Z" fill="#FB9197"/>
<mask id="path-14-outside-2_6_2" maskUnits="userSpaceOnUse" x="81.0236" y="0" width="473" height="146" fill="black">
<rect fill="white" x="81.0236" width="473" height="146"/>
<path fill-rule="evenodd" clip-rule="evenodd" d="M532.606 134H103.024C146.66 60.9323 226.523 12 317.815 12C409.106 12 488.969 60.9323 532.606 134Z"/>
</mask>
<path fill-rule="evenodd" clip-rule="evenodd" d="M532.606 134H103.024C146.66 60.9323 226.523 12 317.815 12C409.106 12 488.969 60.9323 532.606 134Z" fill="#8E7DBE"/>
<path d="M103.024 134L92.721 127.847L81.8799 146H103.024V134ZM532.606 134V146H553.749L542.908 127.847L532.606 134ZM103.024 146H532.606V122H103.024V146ZM113.326 140.153C154.887 70.5611 230.92 24 317.815 24V0C222.127 0 138.434 51.3036 92.721 127.847L113.326 140.153ZM317.815 24C404.71 24 480.742 70.5611 522.303 140.153L542.908 127.847C497.195 51.3036 413.502 0 317.815 0V24Z" fill="#212254" mask="url(#path-14-outside-2_6_2)"/>
<mask id="path-16-outside-3_6_2" maskUnits="userSpaceOnUse" x="50" y="122" width="535" height="152" fill="black">
<rect fill="white" x="50" y="122" width="535" height="152"/>
<path fill-rule="evenodd" clip-rule="evenodd" d="M102.972 134C99.4105 134 96.1043 135.886 94.384 139.005C75.7748 172.738 64.583 211.136 63.0073 252.001C62.7945 257.519 67.292 262 72.8148 262H562.815C568.338 262 572.835 257.519 572.622 252.001C571.047 211.136 559.855 172.738 541.246 139.005C539.525 135.886 536.219 134 532.658 134H102.972Z"/>
</mask>
<path fill-rule="evenodd" clip-rule="evenodd" d="M102.972 134C99.4105 134 96.1043 135.886 94.384 139.005C75.7748 172.738 64.583 211.136 63.0073 252.001C62.7945 257.519 67.292 262 72.8148 262H562.815C568.338 262 572.835 257.519 572.622 252.001C571.047 211.136 559.855 172.738 541.246 139.005C539.525 135.886 536.219 134 532.658 134H102.972Z" fill="#8E7DBE"/>
<path d="M541.246 139.005L530.738 144.801L541.246 139.005ZM572.622 252.001L584.613 251.538L572.622 252.001ZM94.384 139.005L83.8768 133.209L94.384 139.005ZM83.8768 133.209C64.3861 168.54 52.6657 208.759 51.0162 251.538L74.9983 252.463C76.5002 213.513 87.1635 176.937 104.891 144.801L83.8768 133.209ZM72.8148 274H562.815V250H72.8148V274ZM584.613 251.538C582.964 208.759 571.244 168.54 551.753 133.209L530.738 144.801C548.466 176.937 559.129 213.513 560.631 252.463L584.613 251.538ZM532.658 122H102.972V146H532.658V122ZM551.753 133.209C547.848 126.13 540.436 122 532.658 122V146C532.002 146 531.202 145.643 530.738 144.801L551.753 133.209ZM562.815 274C574.84 274 585.1 264.163 584.613 251.538L560.631 252.463C560.57 250.876 561.835 250 562.815 250V274ZM51.0162 251.538C50.5294 264.163 60.7897 274 72.8148 274V250C73.7942 250 75.0596 250.876 74.9983 252.463L51.0162 251.538ZM104.891 144.801C104.427 145.643 103.628 146 102.972 146V122C95.1932 122 87.7815 126.13 83.8768 133.209L104.891 144.801Z" fill="#212254" mask="url(#path-16-outside-3_6_2)"/>
<rect x="408.815" y="120" width="96" height="51" fill="#5F4B95" stroke="#212254" stroke-width="6"/>
<path fill-rule="evenodd" clip-rule="evenodd" d="M434.473 123.5C434.473 123.501 434.473 123.502 434.474 123.502H434.475C434.476 123.502 434.476 123.502 434.476 123.503V143.711C434.476 144.264 434.924 144.711 435.476 144.711H454.815C455.367 144.711 455.815 144.264 455.815 143.711V124.002C455.815 123.726 456.039 123.502 456.315 123.502C456.591 123.502 456.815 123.726 456.815 124.002V167.421C456.815 167.697 456.591 167.921 456.315 167.921C456.039 167.921 455.815 167.697 455.815 167.421V149.11C455.815 148.22 454.74 147.773 454.11 148.401L435.183 167.218V167.218V167.218L434.476 167.922C434.475 167.922 434.474 167.922 434.474 167.922C434.473 167.922 434.473 167.922 434.472 167.922C434.472 167.921 434.471 167.921 434.47 167.921H434.175C433.789 167.921 433.476 167.608 433.476 167.222C433.476 167.036 433.402 166.857 433.27 166.726L412.138 145.711C411.747 145.323 411.747 144.69 412.138 144.301L433.412 123.145C433.607 122.951 433.922 122.951 434.117 123.145L434.473 123.499C434.474 123.499 434.474 123.5 434.473 123.5ZM433.476 163.116C433.476 164.006 432.402 164.453 431.771 163.825L413.56 145.715C413.167 145.324 413.167 144.688 413.56 144.297L431.771 126.187C432.402 125.56 433.476 126.007 433.476 126.896V143.711C433.476 144.264 433.028 144.711 432.476 144.711H423.807C423.531 144.711 423.307 144.935 423.307 145.211C423.307 145.488 423.531 145.711 423.807 145.711H432.476C433.028 145.711 433.476 146.159 433.476 146.711V163.116ZM453.677 147.421C454.31 146.791 453.864 145.711 452.972 145.711H435.476C434.924 145.711 434.476 146.159 434.476 146.711V164.106C434.476 164.996 435.55 165.443 436.181 164.816L453.677 147.421ZM480.79 123.506C480.79 123.506 480.79 123.506 480.79 123.506H480.807C480.811 123.506 480.814 123.51 480.814 123.514V143.754C480.814 144.307 481.262 144.754 481.814 144.754H491.312C491.588 144.754 491.812 144.978 491.812 145.254C491.812 145.531 491.588 145.754 491.312 145.754H481.814C481.262 145.754 480.814 146.202 480.814 146.754V167.503C480.814 167.78 480.591 168.003 480.314 168.003C480.038 168.003 479.814 167.78 479.814 167.503V149.174C479.814 148.281 478.732 147.836 478.103 148.471L459.174 167.607C458.979 167.805 458.659 167.805 458.464 167.607C458.271 167.412 458.271 167.099 458.464 166.904L477.699 147.458C478.324 146.826 477.876 145.754 476.988 145.754H458.845C458.831 145.754 458.819 145.743 458.819 145.729C458.819 145.722 458.816 145.715 458.812 145.71L458.613 145.509C458.337 145.231 458.337 144.783 458.613 144.505L479.732 123.154C479.927 122.956 480.247 122.956 480.443 123.154L480.79 123.506V123.506ZM478.103 126.222C478.732 125.587 479.814 126.032 479.814 126.926V143.754C479.814 144.307 479.367 144.754 478.814 144.754H462.168C461.279 144.754 460.832 143.683 461.457 143.051L478.103 126.222ZM502.43 145.359C502.626 145.556 502.946 145.556 503.141 145.359C503.334 145.164 503.334 144.85 503.141 144.655L481.873 123.154C481.677 122.956 481.358 122.956 481.162 123.154C480.97 123.349 480.97 123.663 481.162 123.858L502.43 145.359Z" fill="#212254"/>
<path d="M434.473 123.5L435.53 124.565L435.532 124.563L434.473 123.5ZM454.11 148.401L455.167 149.464L455.167 149.464L454.11 148.401ZM435.183 167.218L434.125 166.154L433.683 166.594V167.218H435.183ZM435.183 167.218L436.241 168.282L436.683 167.842V167.218H435.183ZM434.476 167.922L433.418 166.858L433.417 166.859L434.476 167.922ZM434.474 167.922L434.565 166.425L434.56 166.425L434.474 167.922ZM434.472 167.922L433.414 168.984L433.416 168.987L434.472 167.922ZM433.27 166.726L434.328 165.663L434.328 165.663L433.27 166.726ZM412.138 145.711L413.196 144.648L413.196 144.648L412.138 145.711ZM412.138 144.301L411.08 143.238L411.08 143.238L412.138 144.301ZM433.412 123.145L434.47 124.209L434.47 124.209L433.412 123.145ZM434.117 123.145L433.06 124.209L433.06 124.209L434.117 123.145ZM434.473 123.499L435.532 122.436L435.531 122.435L434.473 123.499ZM431.771 163.825L430.713 164.889L430.713 164.889L431.771 163.825ZM413.56 145.715L412.502 146.779L412.502 146.779L413.56 145.715ZM413.56 144.297L412.502 143.234L412.502 143.234L413.56 144.297ZM431.771 126.187L430.713 125.124L430.713 125.124L431.771 126.187ZM453.677 147.421L452.619 146.357L452.619 146.357L453.677 147.421ZM436.181 164.816L435.124 163.752L435.124 163.752L436.181 164.816ZM480.79 123.506L481.85 124.567L482.29 124.128V123.506H480.79ZM478.103 148.471L479.17 149.526L479.17 149.526L478.103 148.471ZM459.174 167.607L460.241 168.662L460.241 168.662L459.174 167.607ZM458.464 167.607L459.53 166.552L459.53 166.552L458.464 167.607ZM458.464 166.904L457.397 165.849L457.397 165.849L458.464 166.904ZM477.699 147.458L476.633 146.403L476.633 146.403L477.699 147.458ZM458.812 145.71L457.745 146.765L457.745 146.765L458.812 145.71ZM458.613 145.509L457.546 146.564L457.546 146.564L458.613 145.509ZM458.613 144.505L459.679 145.56L459.679 145.56L458.613 144.505ZM479.732 123.154L478.665 122.099L478.665 122.099L479.732 123.154ZM480.443 123.154L481.509 122.099L481.509 122.099L480.443 123.154ZM480.79 123.506H482.29V122.889L481.857 122.451L480.79 123.506ZM478.103 126.222L479.17 127.277L479.17 127.277L478.103 126.222ZM461.457 143.051L460.39 141.996L460.39 141.996L461.457 143.051ZM503.141 145.359L502.075 144.304L502.075 144.304L503.141 145.359ZM502.43 145.359L503.497 144.304L503.497 144.304L502.43 145.359ZM503.141 144.655L502.075 145.71L502.075 145.71L503.141 144.655ZM481.873 123.154L482.94 122.099L482.94 122.099L481.873 123.154ZM481.162 123.154L480.096 122.099L480.096 122.099L481.162 123.154ZM481.162 123.858L480.096 124.912L480.096 124.912L481.162 123.858ZM434.474 122.002C435.811 122.002 436.481 123.621 435.53 124.565L433.417 122.435C432.464 123.38 433.135 125.002 434.474 125.002V122.002ZM434.475 122.002H434.474V125.002H434.475V122.002ZM435.976 123.503C435.976 122.675 435.305 122.002 434.475 122.002V125.002C433.646 125.002 432.976 124.33 432.976 123.503H435.976ZM435.976 143.711V123.503H432.976V143.711H435.976ZM435.476 143.211C435.752 143.211 435.976 143.435 435.976 143.711H432.976C432.976 145.092 434.095 146.211 435.476 146.211V143.211ZM454.815 143.211H435.476V146.211H454.815V143.211ZM454.315 143.711C454.315 143.435 454.539 143.211 454.815 143.211V146.211C456.195 146.211 457.315 145.092 457.315 143.711H454.315ZM454.315 124.002V143.711H457.315V124.002H454.315ZM456.315 122.002C455.21 122.002 454.315 122.897 454.315 124.002H457.315C457.315 124.554 456.867 125.002 456.315 125.002V122.002ZM458.315 124.002C458.315 122.897 457.419 122.002 456.315 122.002V125.002C455.762 125.002 455.315 124.554 455.315 124.002H458.315ZM458.315 167.421V124.002H455.315V167.421H458.315ZM456.315 169.421C457.419 169.421 458.315 168.525 458.315 167.421H455.315C455.315 166.869 455.762 166.421 456.315 166.421V169.421ZM454.315 167.421C454.315 168.525 455.21 169.421 456.315 169.421V166.421C456.867 166.421 457.315 166.869 457.315 167.421H454.315ZM454.315 149.11V167.421H457.315V149.11H454.315ZM455.167 149.464C454.852 149.778 454.315 149.555 454.315 149.11H457.315C457.315 146.886 454.629 145.769 453.052 147.337L455.167 149.464ZM436.24 168.282L455.167 149.464L453.052 147.337L434.125 166.154L436.24 168.282ZM436.683 167.218V167.218H433.683V167.218H436.683ZM436.683 167.218V167.218H433.683V167.218H436.683ZM435.533 168.985L436.241 168.282L434.125 166.155L433.418 166.858L435.533 168.985ZM434.383 169.42C434.796 169.445 435.22 169.298 435.534 168.984L433.417 166.859C433.73 166.547 434.153 166.4 434.565 166.425L434.383 169.42ZM433.416 168.987C433.684 169.252 434.032 169.399 434.387 169.42L434.56 166.425C434.914 166.445 435.262 166.592 435.528 166.857L433.416 168.987ZM434.47 169.421C434.076 169.421 433.695 169.265 433.414 168.984L435.531 166.859C435.248 166.577 434.866 166.421 434.47 166.421V169.421ZM434.175 169.421H434.47V166.421H434.175V169.421ZM431.976 167.222C431.976 168.436 432.961 169.421 434.175 169.421V166.421C434.618 166.421 434.976 166.78 434.976 167.222H431.976ZM432.212 167.79C432.061 167.64 431.976 167.435 431.976 167.222H434.976C434.976 166.637 434.743 166.075 434.328 165.663L432.212 167.79ZM411.08 146.775L432.212 167.79L434.328 165.663L413.196 144.648L411.08 146.775ZM411.08 143.238C410.099 144.213 410.099 145.8 411.08 146.775L413.196 144.648C413.394 144.845 413.394 145.167 413.196 145.365L411.08 143.238ZM432.355 122.081L411.08 143.238L413.196 145.365L434.47 124.209L432.355 122.081ZM435.175 122.081C434.395 121.306 433.135 121.306 432.355 122.081L434.47 124.209C434.08 124.596 433.45 124.596 433.06 124.209L435.175 122.081ZM435.531 122.435L435.175 122.081L433.06 124.209L433.416 124.562L435.531 122.435ZM435.532 124.563C436.121 123.976 436.121 123.023 435.532 122.436L433.414 124.561C432.827 123.975 432.826 123.023 433.414 122.438L435.532 124.563ZM430.713 164.889C432.29 166.457 434.976 165.34 434.976 163.116H431.976C431.976 162.671 432.513 162.448 432.829 162.762L430.713 164.889ZM412.502 146.779L430.713 164.889L432.829 162.762L414.618 144.652L412.502 146.779ZM412.502 143.234C411.519 144.211 411.519 145.802 412.502 146.779L414.618 144.652C414.814 144.847 414.814 145.165 414.618 145.361L412.502 143.234ZM430.713 125.124L412.502 143.234L414.618 145.361L432.829 127.251L430.713 125.124ZM434.976 126.896C434.976 124.672 432.29 123.556 430.713 125.124L432.829 127.251C432.513 127.565 431.976 127.341 431.976 126.896H434.976ZM434.976 143.711V126.896H431.976V143.711H434.976ZM432.476 146.211C433.857 146.211 434.976 145.092 434.976 143.711H431.976C431.976 143.435 432.2 143.211 432.476 143.211V146.211ZM423.807 146.211H432.476V143.211H423.807V146.211ZM424.807 145.211C424.807 145.764 424.359 146.211 423.807 146.211V143.211C422.702 143.211 421.807 144.107 421.807 145.211H424.807ZM423.807 144.211C424.359 144.211 424.807 144.659 424.807 145.211H421.807C421.807 146.316 422.702 147.211 423.807 147.211V144.211ZM432.476 144.211H423.807V147.211H432.476V144.211ZM434.976 146.711C434.976 145.331 433.857 144.211 432.476 144.211V147.211C432.2 147.211 431.976 146.988 431.976 146.711H434.976ZM434.976 163.116V146.711H431.976V163.116H434.976ZM452.972 147.211C452.526 147.211 452.303 146.671 452.619 146.357L454.735 148.484C456.317 146.912 455.203 144.211 452.972 144.211V147.211ZM435.476 147.211H452.972V144.211H435.476V147.211ZM435.976 146.711C435.976 146.988 435.752 147.211 435.476 147.211V144.211C434.095 144.211 432.976 145.331 432.976 146.711H435.976ZM435.976 164.106V146.711H432.976V164.106H435.976ZM435.124 163.752C435.439 163.438 435.976 163.662 435.976 164.106H432.976C432.976 166.33 435.662 167.447 437.239 165.879L435.124 163.752ZM452.619 146.357L435.124 163.752L437.239 165.879L454.735 148.484L452.619 146.357ZM480.79 122.006C482.154 122.006 482.777 123.642 481.85 124.567L479.73 122.445C478.803 123.37 479.427 125.006 480.79 125.006V122.006ZM480.807 122.006H480.79V125.006H480.807V122.006ZM482.314 123.514C482.314 122.682 481.64 122.006 480.807 122.006V125.006C479.982 125.006 479.314 124.338 479.314 123.514H482.314ZM482.314 143.754V123.514H479.314V143.754H482.314ZM481.814 143.254C482.091 143.254 482.314 143.478 482.314 143.754H479.314C479.314 145.135 480.434 146.254 481.814 146.254V143.254ZM491.312 143.254H481.814V146.254H491.312V143.254ZM493.312 145.254C493.312 144.15 492.417 143.254 491.312 143.254V146.254C490.76 146.254 490.312 145.807 490.312 145.254H493.312ZM491.312 147.254C492.417 147.254 493.312 146.359 493.312 145.254H490.312C490.312 144.702 490.76 144.254 491.312 144.254V147.254ZM481.814 147.254H491.312V144.254H481.814V147.254ZM482.314 146.754C482.314 147.031 482.091 147.254 481.814 147.254V144.254C480.434 144.254 479.314 145.374 479.314 146.754H482.314ZM482.314 167.503V146.754H479.314V167.503H482.314ZM480.314 169.503C481.419 169.503 482.314 168.608 482.314 167.503H479.314C479.314 166.951 479.762 166.503 480.314 166.503V169.503ZM478.314 167.503C478.314 168.608 479.21 169.503 480.314 169.503V166.503C480.867 166.503 481.314 166.951 481.314 167.503H478.314ZM478.314 149.174V167.503H481.314V149.174H478.314ZM479.17 149.526C478.856 149.843 478.314 149.621 478.314 149.174H481.314C481.314 146.94 478.608 145.828 477.037 147.416L479.17 149.526ZM460.241 168.662L479.17 149.526L477.037 147.416L458.108 166.552L460.241 168.662ZM457.397 168.662C458.18 169.453 459.458 169.453 460.241 168.662L458.108 166.552C458.499 166.156 459.139 166.156 459.53 166.552L457.397 168.662ZM457.397 165.849C456.626 166.628 456.626 167.883 457.397 168.662L459.53 166.552C459.915 166.942 459.915 167.569 459.53 167.959L457.397 165.849ZM476.633 146.403L457.397 165.849L459.53 167.959L478.766 148.513L476.633 146.403ZM476.988 147.254C476.544 147.254 476.32 146.719 476.633 146.403L478.766 148.513C480.327 146.934 479.209 144.254 476.988 144.254V147.254ZM458.845 147.254H476.988V144.254H458.845V147.254ZM457.319 145.729C457.319 146.571 458.002 147.254 458.845 147.254V144.254C459.659 144.254 460.319 144.914 460.319 145.729H457.319ZM457.745 146.765C457.472 146.489 457.319 146.116 457.319 145.729H460.319C460.319 145.327 460.161 144.941 459.878 144.655L457.745 146.765ZM457.546 146.564L457.745 146.765L459.878 144.655L459.679 144.454L457.546 146.564ZM457.546 143.45C456.693 144.312 456.693 145.701 457.546 146.564L459.679 144.454C459.982 144.76 459.982 145.253 459.679 145.56L457.546 143.45ZM478.665 122.099L457.546 143.45L459.679 145.56L480.798 124.209L478.665 122.099ZM481.509 122.099C480.726 121.308 479.448 121.308 478.665 122.099L480.798 124.209C480.407 124.605 479.768 124.605 479.376 124.209L481.509 122.099ZM481.857 122.451L481.509 122.099L479.376 124.209L479.724 124.561L481.857 122.451ZM482.29 123.506V123.506H479.29V123.506H482.29ZM481.314 126.926C481.314 124.692 478.608 123.579 477.037 125.167L479.17 127.277C478.856 127.595 478.314 127.372 478.314 126.926H481.314ZM481.314 143.754V126.926H478.314V143.754H481.314ZM478.814 146.254C480.195 146.254 481.314 145.135 481.314 143.754H478.314C478.314 143.478 478.538 143.254 478.814 143.254V146.254ZM462.168 146.254H478.814V143.254H462.168V146.254ZM460.39 141.996C458.829 143.575 459.947 146.254 462.168 146.254V143.254C462.612 143.254 462.836 143.79 462.523 144.106L460.39 141.996ZM477.037 125.167L460.39 141.996L462.523 144.106L479.17 127.277L477.037 125.167ZM502.075 144.304C502.466 143.908 503.105 143.908 503.497 144.304L501.364 146.413C502.147 147.205 503.425 147.205 504.208 146.413L502.075 144.304ZM502.075 145.71C501.69 145.321 501.69 144.693 502.075 144.304L504.208 146.413C504.979 145.634 504.979 144.38 504.208 143.6L502.075 145.71ZM480.807 124.209L502.075 145.71L504.208 143.6L482.94 122.099L480.807 124.209ZM482.229 124.209C481.837 124.605 481.198 124.605 480.807 124.209L482.94 122.099C482.157 121.308 480.879 121.308 480.096 122.099L482.229 124.209ZM482.229 122.803C482.614 123.192 482.614 123.82 482.229 124.209L480.096 122.099C479.325 122.879 479.325 124.133 480.096 124.912L482.229 122.803ZM503.497 144.304L482.229 122.803L480.096 124.912L501.364 146.413L503.497 144.304Z" fill="#212254"/>
</svg>
