<svg width="930" height="774" viewBox="0 0 930 774" fill="none" xmlns="http://www.w3.org/2000/svg">
<circle cx="74.4904" cy="349.49" r="68.4904" fill="#ECF1FE" stroke="#071F5F" stroke-width="12"/>
<path fill-rule="evenodd" clip-rule="evenodd" d="M59.4904 393.981C94.0029 393.981 121.981 366.003 121.981 331.491C121.981 320.504 119.146 310.18 114.167 301.21C128.098 312.671 136.981 330.043 136.981 349.491C136.981 384.003 109.003 411.981 74.4904 411.981C50.9642 411.981 30.4744 398.98 19.8135 379.771C30.6049 388.65 44.4251 393.981 59.4904 393.981Z" fill="#BFCFFA"/>
<mask id="path-3-outside-1_37_341" maskUnits="userSpaceOnUse" x="56" y="0" width="874" height="774" fill="black">
<rect fill="#ECF1FE" x="56" width="874" height="774"/>
<path fill-rule="evenodd" clip-rule="evenodd" d="M317.962 12C456.012 12 567.923 123.912 567.923 261.962H567.924C567.924 270.9 568.237 279.766 568.852 288.548C573.374 287.508 578.083 286.958 582.921 286.958C617.434 286.958 645.412 314.936 645.412 349.448C645.412 378.656 625.374 403.183 598.296 410.033C650.478 531.302 764.805 619.528 901.179 634.613C812.736 713.76 695.95 761.885 567.924 761.885C291.937 761.885 68.1846 538.246 68.0002 262.303L68 261.962C68 123.912 179.912 12 317.962 12Z"/>
</mask>
<path fill-rule="evenodd" clip-rule="evenodd" d="M317.962 12C456.012 12 567.923 123.912 567.923 261.962H567.924C567.924 270.9 568.237 279.766 568.852 288.548C573.374 287.508 578.083 286.958 582.921 286.958C617.434 286.958 645.412 314.936 645.412 349.448C645.412 378.656 625.374 403.183 598.296 410.033C650.478 531.302 764.805 619.528 901.179 634.613C812.736 713.76 695.95 761.885 567.924 761.885C291.937 761.885 68.1846 538.246 68.0002 262.303L68 261.962C68 123.912 179.912 12 317.962 12Z" fill="#ECF1FE"/>
<path d="M567.923 261.962H555.923V273.962H567.923V261.962ZM567.924 261.962H579.924V249.962H567.924V261.962ZM568.852 288.548L556.881 289.387L557.862 303.39L571.543 300.243L568.852 288.548ZM598.296 410.033L595.353 398.4L581.711 401.851L587.273 414.776L598.296 410.033ZM901.179 634.613L909.181 643.555L929.201 625.64L902.498 622.686L901.179 634.613ZM68.0002 262.303L80.0002 262.295V262.295L68.0002 262.303ZM68 261.962H56L56 261.97L68 261.962ZM579.923 261.962C579.923 117.284 462.639 0 317.962 0V24C449.384 24 555.923 130.539 555.923 261.962H579.923ZM567.924 249.962H567.923V273.962H567.924V249.962ZM580.822 287.71C580.227 279.206 579.924 270.62 579.924 261.962H555.924C555.924 271.18 556.246 280.326 556.881 289.387L580.822 287.71ZM571.543 300.243C575.188 299.404 578.995 298.958 582.921 298.958V274.958C577.171 274.958 571.559 275.612 566.161 276.854L571.543 300.243ZM582.921 298.958C610.806 298.958 633.412 321.563 633.412 349.448H657.412C657.412 308.308 624.061 274.958 582.921 274.958V298.958ZM633.412 349.448C633.412 373.031 617.233 392.864 595.353 398.4L601.239 421.667C633.515 413.501 657.412 384.28 657.412 349.448H633.412ZM902.498 622.686C770.526 608.087 659.838 522.696 609.319 405.29L587.273 414.776C641.117 539.908 759.083 630.968 899.86 646.54L902.498 622.686ZM567.924 773.885C699.016 773.885 818.624 724.595 909.181 643.555L893.177 625.671C806.849 702.925 692.885 749.885 567.924 749.885V773.885ZM56.0002 262.311C56.189 544.878 285.313 773.885 567.924 773.885V749.885C298.562 749.885 80.1802 531.614 80.0002 262.295L56.0002 262.311ZM56 261.97L56.0002 262.311L80.0002 262.295L80 261.954L56 261.97ZM317.962 0C173.284 0 56 117.284 56 261.962H80C80 130.539 186.539 24 317.962 24V0Z" fill="#071F5F" mask="url(#path-3-outside-1_37_341)"/>
<path fill-rule="evenodd" clip-rule="evenodd" d="M641.669 371.452C620.099 387.45 590.29 397.347 557.361 397.347C552.223 397.347 547.162 397.106 542.196 396.638C553.165 406.169 567.49 411.939 583.162 411.939C609.93 411.939 632.767 395.108 641.669 371.452Z" fill="#BFCFFA"/>
<path fill-rule="evenodd" clip-rule="evenodd" d="M148.188 533.631C237.285 671.006 391.991 761.885 567.923 761.885C695.922 761.885 812.685 713.781 901.121 634.665C811.749 672.26 713.563 693.037 610.525 693.037C436.101 693.037 275.583 633.497 148.188 533.631Z" fill="#BFCFFA"/>
<circle cx="386.942" cy="228.217" r="44.2437" fill="#071F5F" stroke="#071F5F" stroke-width="6"/>
<circle cx="368.195" cy="216.968" r="21.7471" fill="#ECF1FE" stroke="#071F5F" stroke-width="6"/>
<circle cx="186.973" cy="228.217" r="44.2437" fill="#071F5F" stroke="#071F5F" stroke-width="6"/>
<circle cx="168.226" cy="216.968" r="21.7471" fill="#ECF1FE" stroke="#071F5F" stroke-width="6"/>
<path d="M288.84 412.439C302.71 412.439 315.017 404.787 323.747 392.913C332.479 381.038 337.788 364.777 337.788 346.948C337.788 329.12 332.479 312.859 323.747 300.984C315.017 289.11 302.71 281.458 288.84 281.458C274.969 281.458 262.662 289.11 253.932 300.984C245.2 312.859 239.891 329.12 239.891 346.948C239.891 364.777 245.2 381.038 253.932 392.913C262.662 404.787 274.969 412.439 288.84 412.439Z" fill="#071F5F" stroke="#071F5F" stroke-width="6"/>
<path fill-rule="evenodd" clip-rule="evenodd" d="M251.834 383.998C262.701 365.565 282.758 353.197 305.705 353.197C315.812 353.197 325.359 355.597 333.807 359.857C329.433 388.176 310.962 409.439 288.84 409.439C273.661 409.439 260.201 399.429 251.834 383.998Z" fill="#FECACC"/>
<path fill-rule="evenodd" clip-rule="evenodd" d="M305.705 353.197C282.758 353.197 262.701 365.565 251.834 383.998C251.852 384.031 251.87 384.065 251.888 384.098C261.097 378.754 271.795 375.694 283.209 375.694C298.074 375.694 311.727 380.884 322.455 389.552C328.05 381.39 332.057 371.189 333.807 359.857C325.359 355.597 315.812 353.197 305.705 353.197Z" fill="#FB9197"/>
</svg>
