<svg width="96" height="96" viewBox="0 0 96 96" fill="none" xmlns="http://www.w3.org/2000/svg">
<path fill-rule="evenodd" clip-rule="evenodd" d="M58.8189 94.7758C55.3418 95.5768 51.7203 96 48 96C21.4903 96 0 74.5097 0 48C0 21.4903 21.4903 0 48 0C74.5097 0 96 21.4903 96 48C96 60.3519 91.3345 71.6141 83.6695 80.1205C73.6075 76.6428 65.4727 69.0336 61.2934 59.3212C64.0222 58.6308 66.0415 56.1591 66.0415 53.2157C66.0415 49.7377 63.222 46.9183 59.744 46.9183C59.2564 46.9183 58.7819 46.9737 58.3262 47.0785C58.2642 46.1935 58.2327 45.3 58.2327 44.3993H58.2325C58.2325 30.4873 46.9547 19.2093 33.0427 19.2093C19.1307 19.2093 7.85271 30.4873 7.85271 44.3993L7.85273 44.4336C7.85315 45.0736 7.86552 45.7108 7.8896 46.345C4.3668 46.6572 1.60464 49.616 1.60464 53.2199C1.60464 57.0319 4.69484 60.1221 8.50678 60.1221C9.11974 60.1221 9.71403 60.0422 10.2798 59.8922C16.8154 80.1359 35.814 94.7791 58.2327 94.7791C58.4283 94.7791 58.6237 94.778 58.8189 94.7758Z" fill="#3BA99C"/>
<path fill-rule="evenodd" clip-rule="evenodd" d="M58.8189 94.7758C55.3418 95.5768 51.7203 96 48 96C21.4903 96 0 74.5097 0 48C0 21.4903 21.4903 0 48 0C74.5097 0 96 21.4903 96 48C96 60.3519 91.3345 71.6141 83.6695 80.1205C73.6075 76.6428 65.4727 69.0336 61.2934 59.3212C64.0222 58.6308 66.0415 56.1591 66.0415 53.2157C66.0415 49.7377 63.222 46.9183 59.744 46.9183C59.2564 46.9183 58.7819 46.9737 58.3262 47.0785C58.2642 46.1935 58.2327 45.3 58.2327 44.3993H58.2325C58.2325 30.4873 46.9547 19.2093 33.0427 19.2093C19.1307 19.2093 7.85271 30.4873 7.85271 44.3993L7.85273 44.4336C7.85315 45.0736 7.86552 45.7108 7.8896 46.345C4.3668 46.6572 1.60464 49.616 1.60464 53.2199C1.60464 57.0319 4.69484 60.1221 8.50678 60.1221C9.11974 60.1221 9.71403 60.0422 10.2798 59.8922C16.8154 80.1359 35.814 94.7791 58.2327 94.7791C58.4283 94.7791 58.6237 94.778 58.8189 94.7758Z" fill="#3BA99C"/>
<path d="M39.9942 45.4573C42.4566 45.4573 44.4528 43.4611 44.4528 40.9986C44.4528 38.5362 42.4566 36.5399 39.9942 36.5399C37.5317 36.5399 35.5355 38.5362 35.5355 40.9986C35.5355 43.4611 37.5317 45.4573 39.9942 45.4573Z" fill="#3BA99C"/>
<path d="M19.8422 45.4573C22.3047 45.4573 24.3009 43.4611 24.3009 40.9986C24.3009 38.5362 22.3047 36.5399 19.8422 36.5399C17.3798 36.5399 15.3836 38.5362 15.3836 40.9986C15.3836 43.4611 17.3798 45.4573 19.8422 45.4573Z" fill="#3BA99C"/>
<path d="M30.1079 59.5636C31.5057 59.5636 32.7459 58.7925 33.6257 57.5959C34.5056 56.3992 35.0407 54.7605 35.0407 52.9637C35.0407 51.1671 34.5056 49.5284 33.6257 48.3317C32.7459 47.1351 31.5057 46.364 30.1079 46.364C28.7101 46.364 27.4698 47.1351 26.59 48.3317C25.7101 49.5284 25.1751 51.1671 25.1751 52.9637C25.1751 54.7605 25.7101 56.3992 26.59 57.5959C27.4698 58.7925 28.7101 59.5636 30.1079 59.5636Z" fill="#3BA99C"/>
</svg>
