<svg width="732" height="1023" viewBox="0 0 732 1023" fill="none" xmlns="http://www.w3.org/2000/svg">
<path d="M148.994 331.363L148.999 331.364C178.8 335.313 206.784 316.93 217.329 287.363C229.638 252.848 246.677 225.884 268.307 206.339C298.998 178.651 337.188 164.627 383.19 164.627C431.01 164.627 468.607 178.074 496.392 204.442C524.329 231.061 538.09 262.692 538.09 299.893C538.09 326.594 530.291 350.978 514.627 373.164C509.647 380.073 499.236 391.116 483.113 406.454C467.058 421.728 445.565 441.052 418.638 464.451C364.456 511.448 328.024 554.156 309.634 592.482L309.633 592.483C290.856 631.643 284.405 674.89 282.794 717.842C281.312 756.622 310.231 789.5 347.291 789.5H396.291C430.112 789.5 457.603 761.799 460.575 726.535L460.575 726.532C462.562 702.792 466.211 685.294 471.489 673.678L471.496 673.662L471.503 673.646C480.473 653.495 504.098 626.181 543.084 591.468C618.609 524.454 668.277 471.113 691.763 431.447L691.765 431.445C715.156 391.876 726.991 349.825 726.991 305.359C726.991 225.221 695.089 154.941 631.585 94.8012C567.967 34.4577 482.363 4.5 375.491 4.5C273.764 4.5 191.284 34.0601 128.299 93.6199L128.299 93.6204C74.8295 144.2 42.2271 204.233 30.755 273.52C26.8817 295.643 40.9515 316.943 62.2945 319.787C62.2949 319.788 62.2952 319.788 62.2956 319.788L148.994 331.363Z" fill="#C9A503" stroke="#212254" stroke-width="9"/>
<circle cx="272.526" cy="180.021" r="46.1666" transform="rotate(69 272.526 180.021)" fill="#ECF1FE" stroke="#212254" stroke-width="9"/>
<path fill-rule="evenodd" clip-rule="evenodd" d="M241.247 181.314C249.493 202.798 273.594 213.528 295.078 205.282C301.917 202.656 307.667 198.424 312.062 193.18C308.256 204.591 299.565 214.273 287.458 218.92C265.975 227.167 241.874 216.436 233.627 194.953C228.006 180.309 231.202 164.449 240.61 153.223C237.663 162.062 237.647 171.937 241.247 181.314Z" fill="#BFCFFA"/>
<mask id="path-4-outside-1_1_251" maskUnits="userSpaceOnUse" x="1.70435" y="83.7105" width="694.532" height="733.071" fill="black">
<rect fill="white" x="1.70435" y="83.7105" width="694.532" height="733.071"/>
<path fill-rule="evenodd" clip-rule="evenodd" d="M325.459 155.066C325.206 155.163 324.954 155.26 324.702 155.359C153.34 221.607 67.8447 414.101 133.722 585.716C164.313 665.41 222.176 726.608 292.576 762.75C269.38 674.254 296.982 582.006 360.001 520.547C370.736 535.766 390.791 542.378 408.972 535.399C430.456 527.152 441.186 503.051 432.94 481.568C431.784 478.556 430.316 475.756 428.588 473.19C433.907 470.709 439.351 468.396 444.914 466.26L444.917 466.259L444.916 466.259C530.849 433.271 573.77 336.868 540.784 250.935C507.797 165.001 411.393 122.079 325.459 155.066Z"/>
</mask>
<path fill-rule="evenodd" clip-rule="evenodd" d="M325.459 155.066C325.206 155.163 324.954 155.26 324.702 155.359C153.34 221.607 67.8447 414.101 133.722 585.716C164.313 665.41 222.176 726.608 292.576 762.75C269.38 674.254 296.982 582.006 360.001 520.547C370.736 535.766 390.791 542.378 408.972 535.399C430.456 527.152 441.186 503.051 432.94 481.568C431.784 478.556 430.316 475.756 428.588 473.19C433.907 470.709 439.351 468.396 444.914 466.26L444.917 466.259L444.916 466.259C530.849 433.271 573.77 336.868 540.784 250.935C507.797 165.001 411.393 122.079 325.459 155.066Z" fill="#ECF1FE"/>
<path d="M324.702 155.359L327.948 163.753L327.958 163.749L327.968 163.745L324.702 155.359ZM292.576 762.75L288.466 770.756L306.391 779.959L301.282 760.468L292.576 762.75ZM360.001 520.547L367.356 515.359L361.273 506.735L353.717 514.104L360.001 520.547ZM428.588 473.19L424.783 465.034L415.242 469.484L421.123 478.217L428.588 473.19ZM444.914 466.26L441.689 457.858L444.914 466.26ZM444.917 466.259L448.142 474.662L456.544 471.436L453.319 463.034L444.917 466.259ZM444.916 466.259L441.691 457.856L433.289 461.082L436.514 469.484L444.916 466.259ZM327.968 163.745C328.206 163.652 328.445 163.56 328.684 163.468L322.234 146.664C321.968 146.766 321.702 146.869 321.437 146.972L327.968 163.745ZM142.124 582.491C78.0257 415.51 161.212 228.212 327.948 163.753L321.457 146.964C145.467 215.001 57.6638 412.693 125.319 588.941L142.124 582.491ZM296.687 754.743C228.18 719.574 171.891 660.038 142.124 582.491L125.319 588.941C156.735 670.782 216.172 733.642 288.466 770.756L296.687 754.743ZM353.717 514.104C288.44 577.765 259.832 673.323 283.871 765.032L301.282 760.468C278.928 675.185 305.523 586.247 366.285 526.99L353.717 514.104ZM405.747 526.997C391.505 532.464 375.772 527.292 367.356 515.359L352.646 525.734C365.699 544.239 390.078 552.292 412.198 543.801L405.747 526.997ZM424.537 484.793C431.003 501.636 422.59 520.531 405.747 526.997L412.198 543.801C438.322 533.773 451.37 504.466 441.342 478.342L424.537 484.793ZM421.123 478.217C422.474 480.224 423.626 482.42 424.537 484.793L441.342 478.342C439.941 474.693 438.158 471.288 436.053 468.163L421.123 478.217ZM441.689 457.858C435.929 460.069 430.293 462.464 424.783 465.034L432.393 481.346C437.522 478.954 442.772 476.723 448.14 474.662L441.689 457.858ZM441.691 457.857L441.689 457.858L448.14 474.662L448.142 474.662L441.691 457.857ZM436.514 469.484L436.514 469.485L453.319 463.034L453.319 463.033L436.514 469.484ZM532.381 254.16C563.587 335.453 522.983 426.65 441.691 457.856L448.142 474.661C538.715 439.892 583.954 338.283 549.186 247.709L532.381 254.16ZM328.684 163.468C409.978 132.263 501.176 172.867 532.381 254.16L549.186 247.709C514.418 157.135 412.808 111.896 322.234 146.664L328.684 163.468Z" fill="#212254" mask="url(#path-4-outside-1_1_251)"/>
<path fill-rule="evenodd" clip-rule="evenodd" d="M394.382 538.326C379.269 528.722 365.986 512.531 358.118 492.033C356.89 488.835 355.83 485.626 354.935 482.422C351.622 491.528 351.453 501.824 355.199 511.581C361.595 528.244 377.529 538.438 394.382 538.326Z" fill="#BFCFFA"/>
<path fill-rule="evenodd" clip-rule="evenodd" d="M175.513 269.895C111.288 358.182 91.6832 476.2 133.722 585.716C164.308 665.395 222.155 726.585 292.537 762.729C247.778 716.079 211.381 659.924 186.76 595.782C145.081 487.206 143.789 373.059 175.513 269.895Z" fill="#BFCFFA"/>
<circle cx="422.677" cy="345.539" r="29.5" transform="rotate(69 422.677 345.539)" fill="#212254" stroke="#212254" stroke-width="4"/>
<circle cx="425.199" cy="331.181" r="14.5" transform="rotate(69 425.199 331.181)" fill="white" stroke="#212254" stroke-width="4"/>
<circle cx="374.893" cy="221.062" r="29.5" transform="rotate(69 374.893 221.062)" fill="#212254" stroke="#212254" stroke-width="4"/>
<circle cx="377.416" cy="206.705" r="14.5" transform="rotate(69 377.416 206.705)" fill="white" stroke="#212254" stroke-width="4"/>
<path d="M284.559 328.491C287.873 337.125 295.578 342.957 305.055 345.555C314.533 348.153 325.924 347.572 337.022 343.312C348.12 339.052 356.973 331.861 362.279 323.589C367.583 315.317 369.406 305.828 366.092 297.194C362.778 288.56 355.074 282.728 345.596 280.13C336.118 277.533 324.728 278.113 313.629 282.373C302.531 286.633 293.678 293.824 288.373 302.096C283.068 310.368 281.245 319.857 284.559 328.491Z" fill="#212254" stroke="#212254" stroke-width="4"/>
<path fill-rule="evenodd" clip-rule="evenodd" d="M293.421 298.66C307.492 301.019 319.984 310.55 325.467 324.834C327.882 331.125 328.67 337.642 328.036 343.918C309.363 347.963 291.713 341.546 286.427 327.775C282.8 318.326 285.814 307.555 293.421 298.66Z" fill="#FECACC"/>
<path fill-rule="evenodd" clip-rule="evenodd" d="M325.467 324.834C319.984 310.55 307.492 301.019 293.421 298.66C293.404 298.679 293.388 298.698 293.372 298.717C298.899 303.172 303.36 309.101 306.088 316.206C309.64 325.46 309.671 335.199 306.839 343.948C313.256 345.48 320.564 345.537 328.036 343.918C328.669 337.642 327.882 331.125 325.467 324.834Z" fill="#FB9197"/>
<circle cx="379" cy="934" r="84.5" fill="#C9A503" stroke="#212254" stroke-width="9"/>
</svg>
