<svg width="40" height="37" viewBox="0 0 40 37" fill="none" xmlns="http://www.w3.org/2000/svg">
<mask id="path-1-inside-1_2_19" fill="white">
<path fill-rule="evenodd" clip-rule="evenodd" d="M10.7366 19.27C4.35471 22.6112 0 29.2971 0 37H40C40 29.2971 35.6453 22.6112 29.2634 19.27C26.9055 21.5725 23.6261 23 20 23C16.3739 23 13.0945 21.5725 10.7366 19.27Z"/>
</mask>
<path fill-rule="evenodd" clip-rule="evenodd" d="M10.7366 19.27C4.35471 22.6112 0 29.2971 0 37H40C40 29.2971 35.6453 22.6112 29.2634 19.27C26.9055 21.5725 23.6261 23 20 23C16.3739 23 13.0945 21.5725 10.7366 19.27Z" fill="#A22522"/>
<path d="M10.7366 19.27L12.1339 17.8391L11.0951 16.8248L9.80894 17.4982L10.7366 19.27ZM0 37H-2V39H0V37ZM40 37V39H42V37H40ZM29.2634 19.27L30.1911 17.4982L28.9049 16.8248L27.8661 17.8391L29.2634 19.27ZM9.80894 17.4982C2.79391 21.1708 -2 28.524 -2 37H2C2 30.0702 5.91551 24.0516 11.6642 21.0419L9.80894 17.4982ZM0 39H40V35H0V39ZM42 37C42 28.524 37.2061 21.1708 30.1911 17.4982L28.3358 21.0419C34.0845 24.0516 38 30.0702 38 37H42ZM27.8661 17.8391C25.8748 19.7835 23.0943 21 20 21V25C24.158 25 27.9361 23.3614 30.6607 20.701L27.8661 17.8391ZM20 21C16.9057 21 14.1252 19.7835 12.1339 17.8391L9.3393 20.701C12.0639 23.3614 15.842 25 20 25V21Z" fill="#212254" mask="url(#path-1-inside-1_2_19)"/>
<circle cx="20" cy="10" r="9" fill="#212254" stroke="#212254" stroke-width="2"/>
</svg>
