<svg width="40" height="38" viewBox="0 0 40 38" fill="none" xmlns="http://www.w3.org/2000/svg">
<mask id="path-1-inside-1_2_19" fill="white">
<path fill-rule="evenodd" clip-rule="evenodd" d="M10.7366 20.27C4.35471 23.6112 0 30.2971 0 38H40C40 30.2971 35.6453 23.6112 29.2634 20.27C26.9055 22.5725 23.6261 24 20 24C16.3739 24 13.0945 22.5725 10.7366 20.27Z"/>
</mask>
<path fill-rule="evenodd" clip-rule="evenodd" d="M10.7366 20.27C4.35471 23.6112 0 30.2971 0 38H40C40 30.2971 35.6453 23.6112 29.2634 20.27C26.9055 22.5725 23.6261 24 20 24C16.3739 24 13.0945 22.5725 10.7366 20.27Z" fill="#212254"/>
<path d="M10.7366 20.27L12.1339 18.8391L11.0951 17.8248L9.80894 18.4982L10.7366 20.27ZM0 38H-2V40H0V38ZM40 38V40H42V38H40ZM29.2634 20.27L30.1911 18.4982L28.9049 17.8248L27.8661 18.8391L29.2634 20.27ZM9.80894 18.4982C2.79391 22.1708 -2 29.524 -2 38H2C2 31.0702 5.91551 25.0516 11.6642 22.0419L9.80894 18.4982ZM0 40H40V36H0V40ZM42 38C42 29.524 37.2061 22.1708 30.1911 18.4982L28.3358 22.0419C34.0845 25.0516 38 31.0702 38 38H42ZM27.8661 18.8391C25.8748 20.7835 23.0943 22 20 22V26C24.158 26 27.9361 24.3614 30.6607 21.701L27.8661 18.8391ZM20 22C16.9057 22 14.1252 20.7835 12.1339 18.8391L9.3393 21.701C12.0639 24.3614 15.842 26 20 26V22Z" fill="#212254" mask="url(#path-1-inside-1_2_19)"/>
<circle cx="20" cy="11" r="9" fill="#212254" stroke="#212254" stroke-width="2"/>
<mask id="path-4-outside-2_2_19" maskUnits="userSpaceOnUse" x="8.08514" y="0" width="23" height="12" fill="black">
<rect fill="white" x="8.08514" width="23" height="12"/>
<path fill-rule="evenodd" clip-rule="evenodd" d="M29.9056 9.57192C29.9864 10.1338 29.5276 10.6076 28.9599 10.6076H11.0401C10.4724 10.6076 10.0137 10.1338 10.0944 9.57192C10.7908 4.72502 14.9604 1 20 1C25.0396 1 29.2092 4.72502 29.9056 9.57192Z"/>
</mask>
<path fill-rule="evenodd" clip-rule="evenodd" d="M29.9056 9.57192C29.9864 10.1338 29.5276 10.6076 28.9599 10.6076H11.0401C10.4724 10.6076 10.0137 10.1338 10.0944 9.57192C10.7908 4.72502 14.9604 1 20 1C25.0396 1 29.2092 4.72502 29.9056 9.57192Z" fill="#A22122"/>
<path d="M29.9056 9.57192L28.9158 9.71414L29.9056 9.57192ZM11.0401 11.6076H28.9599V9.60755H11.0401V11.6076ZM11.0842 9.71414C11.7109 5.35248 15.4648 2 20 2V0C14.456 0 9.8707 4.09756 9.10456 9.42969L11.0842 9.71414ZM20 2C24.5352 2 28.2891 5.35248 28.9158 9.71414L30.8955 9.42969C30.1293 4.09755 25.5441 0 20 0V2ZM28.9599 11.6076C30.0634 11.6076 31.0729 10.6645 30.8955 9.42969L28.9158 9.71414C28.9138 9.70043 28.9147 9.68003 28.9217 9.65886C28.9281 9.63919 28.9373 9.62631 28.9439 9.61924C28.9558 9.60644 28.9636 9.60755 28.9599 9.60755V11.6076ZM11.0401 9.60755C11.0365 9.60755 11.0443 9.60644 11.0562 9.61924C11.0628 9.62631 11.0719 9.63919 11.0784 9.65886C11.0853 9.68003 11.0862 9.70043 11.0842 9.71414L9.10456 9.42969C8.92714 10.6645 9.93667 11.6076 11.0401 11.6076V9.60755Z" fill="#212254" mask="url(#path-4-outside-2_2_19)"/>
</svg>
