<svg width="96" height="96" viewBox="0 0 96 96" fill="none" xmlns="http://www.w3.org/2000/svg">
<path fill-rule="evenodd" clip-rule="evenodd" d="M10 0C4.47715 0 0 4.47714 0 10V86C0 91.5228 4.47715 96 10 96H86C91.5229 96 96 91.5228 96 86V10C96 4.47714 91.5228 0 86 0H10ZM49.9277 21.4505L55.7262 15.3582L61.9177 21.0574L56.022 27.0525L49.9277 21.4505ZM43.8354 18.6991C43.8354 18.6991 50.3208 39.1398 69.0919 22.1393C69.1249 22.1716 69.6986 22.9182 70.4542 23.9016L70.4549 23.9025C71.9763 25.8824 74.2346 28.8212 74.3009 28.8212C67.0274 36.978 44.818 41.4008 43.8354 18.6991ZM22.0171 34.0301L26.5372 42.187C27.6951 41.6518 28.7201 40.9368 29.745 40.222C31.7942 38.7926 33.8433 37.3633 36.955 37.3711C47.6083 37.4003 44.2557 45.3275 40.1987 46.4133C36.7466 47.3368 33.353 46.8199 31.6315 46.5577C30.8612 46.4403 30.4257 46.374 30.4696 46.5105L33.8106 56.9284C48.5189 51.2933 48.5598 68.469 39.0195 70.8837C26.4165 74.0748 18.5107 65.6748 16.5124 49.9507C14.0217 79.9648 37.35 82.0507 41.1813 80.1224C42.664 79.8188 57.7732 74.8103 48.6493 55.9458C58.0269 57.5709 60.5056 52.5853 61.3284 50.9305C61.3636 50.8596 61.3959 50.7948 61.4255 50.7368C61.5888 50.4181 61.7236 50.0228 61.8776 49.5711C62.4044 48.0264 63.1563 45.8214 66.0448 43.7592C73.3202 38.5648 76.1369 47.0148 76.0629 52.8564C76.0621 52.9165 76.0615 52.9788 76.0608 53.0433C76.0345 55.5312 75.9747 61.1946 68.6529 64.6165C63.6908 66.8875 57.3636 66.5439 55.7262 58.0103C51.0738 80.1224 79.0292 81.7623 80.0994 58.0103C79.6732 31.8353 61.3613 35.9292 58.7733 39.0425C55.8019 41.7349 54.2924 44.7016 53.0106 47.2209C51.3344 50.5152 50.0476 53.0444 46.3902 53.1944L40.9848 51.0326C57.6584 40.9086 45.1449 18.5026 22.0171 34.0301Z" fill="#C9A503"/>
</svg>
