<svg width="181" height="194" viewBox="0 0 181 194" fill="none" xmlns="http://www.w3.org/2000/svg">
<path fill-rule="evenodd" clip-rule="evenodd" d="M32.6677 44.5554C45.9423 35.7953 62.0653 30.2597 79.6931 28.4056C84.9062 27.8681 99.39 28.0831 104.415 28.7818C116.83 30.5284 127.202 33.753 137.333 39.0199C159.367 50.494 173.206 69.3848 174.496 89.7266C175.329 102.894 170.654 115.04 160.174 127.051C159.152 128.234 155.229 132.345 151.494 136.161C144.346 143.47 141.874 146.318 140.154 149.22C136.715 155.025 137.333 160.103 142.25 166.176C143.513 167.735 143.648 168.004 143.648 169.24C143.621 171.981 141.659 175.931 139.026 178.403C136.043 181.278 131.125 184.18 125.859 186.196C123.574 187.056 116.48 189.259 115.916 189.259C115.809 189.259 115.701 184.53 115.701 178.779V168.299H112.342H108.983V179.424V190.549L106.511 190.845C103.582 191.194 99.6318 191.57 96.1654 191.812L93.6663 192V180.15V168.299H90.4417H87.2171V180.15V192L84.7449 191.812C81.2516 191.57 77.3015 191.194 74.3994 190.845L71.9003 190.549V179.424V168.299H68.5413H65.1824V178.779C65.1824 184.53 65.0749 189.259 64.9674 189.259C64.833 189.259 63.1133 188.775 61.1248 188.211C46.6947 183.965 38.6063 177.839 37.424 170.18L37.1553 168.353L38.6601 165.693C41.4279 160.856 42.4759 157.712 42.4759 154.326C42.449 152.257 42.3684 151.854 41.4816 150.027C40.1918 147.393 38.7138 145.781 32.8289 140.541C24.2569 132.856 21.1129 129.443 17.2165 123.558C11.8959 115.55 8.59073 106.817 6.41413 95.0741C5.6886 91.0433 5.74234 82.8744 6.54849 79.2736C9.53124 65.8646 18.5064 53.9336 32.6677 44.5554Z" fill="#ECF1FE"/>
<path d="M79.6931 28.4055L79.5392 26.9134L79.5361 26.9137L79.6931 28.4055ZM32.6677 44.5554L31.8415 43.3034L31.8395 43.3047L32.6677 44.5554ZM104.415 28.7817L104.624 27.2963L104.622 27.296L104.415 28.7817ZM137.333 39.0198L138.025 37.6894L138.025 37.6889L137.333 39.0198ZM174.496 89.7266L175.993 89.6319L175.993 89.6316L174.496 89.7266ZM160.174 127.051L159.043 126.065L159.038 126.071L160.174 127.051ZM151.494 136.161L150.422 135.111L150.422 135.112L151.494 136.161ZM140.154 149.22L138.864 148.456L138.864 148.456L140.154 149.22ZM142.25 166.176L141.084 167.12L141.085 167.121L142.25 166.176ZM143.648 169.24L145.147 169.254L145.148 169.247V169.24H143.648ZM139.026 178.403L137.999 177.309L137.992 177.316L137.985 177.323L139.026 178.403ZM125.859 186.196L126.387 187.6L126.395 187.597L125.859 186.196ZM115.701 168.299H117.201V166.799H115.701V168.299ZM108.983 168.299V166.799H107.483V168.299H108.983ZM108.983 190.549L109.161 192.038L110.483 191.88V190.549H108.983ZM106.511 190.845L106.689 192.334L106.689 192.334L106.511 190.845ZM96.1654 191.812L96.061 190.316L96.0528 190.316L96.1654 191.812ZM93.6663 192H92.1663V193.617L93.7789 193.496L93.6663 192ZM93.6663 168.299H95.1663V166.799H93.6663V168.299ZM87.2171 168.299V166.799H85.7171V168.299H87.2171ZM87.2171 192L87.1033 193.496L88.7171 193.618V192H87.2171ZM84.7449 191.812L84.8587 190.316L84.8485 190.315L84.7449 191.812ZM74.3993 190.845L74.5786 189.355L74.5755 189.355L74.3993 190.845ZM71.9003 190.549H70.4003V191.882L71.7241 192.039L71.9003 190.549ZM71.9003 168.299H73.4003V166.799H71.9003V168.299ZM65.1824 168.299V166.799H63.6824V168.299H65.1824ZM61.1248 188.211L60.7014 189.65L60.7083 189.652L60.7153 189.654L61.1248 188.211ZM37.424 170.18L35.9399 170.398L35.9415 170.409L37.424 170.18ZM37.1553 168.353L35.8497 167.614L35.5964 168.062L35.6712 168.571L37.1553 168.353ZM38.6601 165.693L37.3581 164.948L37.3545 164.954L38.6601 165.693ZM42.4758 154.326H43.9758V154.316L43.9757 154.306L42.4758 154.326ZM41.4816 150.027L42.8311 149.372L42.8287 149.367L41.4816 150.027ZM32.8289 140.541L31.8276 141.658L31.8314 141.661L32.8289 140.541ZM17.2165 123.558L18.4672 122.73L18.4659 122.728L17.2165 123.558ZM6.41412 95.074L4.93783 95.3398L4.93924 95.3474L6.41412 95.074ZM6.54848 79.2735L8.01225 79.6012L8.01269 79.5992L6.54848 79.2735ZM79.5361 26.9137C61.6972 28.7901 45.3389 34.3962 31.8415 43.3034L33.4939 45.8073C46.5456 37.1942 62.4334 31.7292 79.85 29.8973L79.5361 26.9137ZM104.622 27.296C102.008 26.9326 97.0481 26.7041 92.1472 26.6302C87.2435 26.5563 82.2417 26.6348 79.5392 26.9134L79.8469 29.8976C82.3575 29.6388 87.2042 29.556 92.1019 29.6299C97.0025 29.7038 101.797 29.9321 104.208 30.2674L104.622 27.296ZM138.025 37.6889C127.729 32.3361 117.191 29.0644 104.624 27.2963L104.206 30.2671C116.469 31.9924 126.675 35.1698 136.641 40.3507L138.025 37.6889ZM175.993 89.6316C174.662 68.6449 160.408 49.3446 138.025 37.6894L136.64 40.3502C158.327 51.6434 171.75 70.1246 172.999 89.8215L175.993 89.6316ZM161.304 128.037C171.985 115.795 176.856 103.275 175.993 89.6319L172.999 89.8213C173.802 102.513 169.322 114.284 159.043 126.065L161.304 128.037ZM152.566 137.21C156.291 133.405 160.251 129.257 161.309 128.032L159.038 126.071C158.054 127.21 154.168 131.285 150.422 135.111L152.566 137.21ZM141.445 149.985C143.057 147.264 145.396 144.542 152.566 137.21L150.422 135.112C143.296 142.398 140.691 145.372 138.864 148.456L141.445 149.985ZM143.416 165.232C141.057 162.319 139.85 159.789 139.557 157.414C139.268 155.068 139.848 152.679 141.445 149.985L138.864 148.456C137.021 151.566 136.19 154.618 136.58 157.781C136.966 160.915 138.526 163.961 141.084 167.12L143.416 165.232ZM145.148 169.24C145.148 168.576 145.118 167.927 144.785 167.202C144.5 166.581 144.015 165.971 143.416 165.232L141.085 167.121C141.749 167.94 141.963 168.244 142.06 168.455C142.109 168.564 142.148 168.667 142.148 169.24H145.148ZM140.052 179.497C141.514 178.125 142.763 176.371 143.655 174.595C144.537 172.838 145.131 170.934 145.147 169.254L142.148 169.225C142.137 170.287 141.737 171.728 140.973 173.249C140.219 174.752 139.171 176.209 137.999 177.309L140.052 179.497ZM126.395 187.597C131.783 185.535 136.895 182.54 140.067 179.483L137.985 177.323C135.19 180.016 130.467 182.826 125.322 184.795L126.395 187.597ZM115.916 190.759C116.114 190.759 116.306 190.721 116.384 190.706C116.5 190.683 116.632 190.653 116.769 190.62C117.046 190.552 117.397 190.457 117.794 190.345C118.59 190.12 119.614 189.814 120.685 189.483C122.816 188.824 125.199 188.047 126.387 187.6L125.33 184.792C124.234 185.204 121.928 185.959 119.799 186.617C118.741 186.944 117.743 187.242 116.979 187.458C116.596 187.566 116.282 187.65 116.054 187.706C115.939 187.734 115.858 187.752 115.807 187.762C115.718 187.78 115.788 187.759 115.916 187.759V190.759ZM114.201 178.779C114.201 181.662 114.228 184.293 114.269 186.207C114.289 187.163 114.313 187.949 114.339 188.501C114.352 188.774 114.366 189.009 114.383 189.185C114.39 189.266 114.402 189.374 114.421 189.478C114.429 189.519 114.45 189.633 114.498 189.763C114.519 189.819 114.578 189.974 114.7 190.141C114.789 190.262 115.18 190.759 115.916 190.759V187.759C116.648 187.759 117.037 188.254 117.122 188.37C117.241 188.533 117.296 188.681 117.314 188.728C117.355 188.84 117.37 188.926 117.371 188.931C117.377 188.963 117.375 188.964 117.369 188.904C117.359 188.799 117.348 188.62 117.335 188.359C117.311 187.846 117.288 187.09 117.268 186.144C117.228 184.255 117.201 181.646 117.201 178.779H114.201ZM114.201 168.299V178.779H117.201V168.299H114.201ZM112.342 169.799H115.701V166.799H112.342V169.799ZM108.983 169.799H112.342V166.799H108.983V169.799ZM110.483 179.424V168.299H107.483V179.424H110.483ZM110.483 190.549V179.424H107.483V190.549H110.483ZM106.689 192.334L109.161 192.038L108.805 189.06L106.333 189.355L106.689 192.334ZM96.2698 193.308C99.7597 193.065 103.734 192.686 106.689 192.334L106.333 189.355C103.43 189.701 99.5039 190.075 96.061 190.316L96.2698 193.308ZM93.7789 193.496L96.2779 193.308L96.0528 190.316L93.5537 190.504L93.7789 193.496ZM92.1663 180.15V192H95.1663V180.15H92.1663ZM92.1663 168.299V180.15H95.1663V168.299H92.1663ZM90.4417 169.799H93.6663V166.799H90.4417V169.799ZM87.2171 169.799H90.4417V166.799H87.2171V169.799ZM88.7171 180.15V168.299H85.7171V180.15H88.7171ZM88.7171 192V180.15H85.7171V192H88.7171ZM84.6311 193.308L87.1033 193.496L87.3309 190.504L84.8587 190.316L84.6311 193.308ZM74.2201 192.334C77.1488 192.686 81.1242 193.065 84.6413 193.308L84.8485 190.315C81.379 190.075 77.4541 189.701 74.5786 189.355L74.2201 192.334ZM71.7241 192.039L74.2232 192.334L74.5755 189.355L72.0765 189.059L71.7241 192.039ZM70.4003 179.424V190.549H73.4003V179.424H70.4003ZM70.4003 168.299V179.424H73.4003V168.299H70.4003ZM68.5413 169.799H71.9003V166.799H68.5413V169.799ZM65.1824 169.799H68.5413V166.799H65.1824V169.799ZM66.6824 178.779V168.299H63.6824V178.779H66.6824ZM64.9674 190.759C65.7031 190.759 66.0947 190.262 66.1831 190.141C66.3057 189.974 66.3647 189.819 66.3853 189.763C66.4332 189.633 66.4547 189.519 66.4623 189.478C66.4817 189.374 66.4933 189.266 66.5009 189.185C66.5175 189.009 66.5318 188.774 66.5447 188.501C66.5708 187.949 66.5946 187.163 66.6149 186.207C66.6554 184.293 66.6824 181.662 66.6824 178.779H63.6824C63.6824 181.646 63.6556 184.255 63.6155 186.144C63.5955 187.09 63.5723 187.846 63.548 188.359C63.5357 188.62 63.524 188.799 63.5141 188.904C63.5085 188.964 63.5068 188.963 63.5127 188.931C63.5136 188.926 63.5284 188.84 63.5697 188.728C63.5869 188.681 63.6425 188.533 63.7618 188.37C63.8468 188.254 64.2351 187.759 64.9674 187.759V190.759ZM60.7153 189.654C61.709 189.936 62.6414 190.2 63.3432 190.393C63.693 190.489 63.993 190.57 64.2173 190.628C64.3282 190.656 64.431 190.682 64.5164 190.701C64.5582 190.71 64.6079 190.721 64.6584 190.73C64.6731 190.732 64.809 190.759 64.9674 190.759V187.759C65.0577 187.759 65.1253 187.768 65.1414 187.77C65.1672 187.773 65.1848 187.776 65.1895 187.777C65.199 187.779 65.1961 187.779 65.1741 187.774C65.132 187.764 65.0629 187.747 64.9626 187.722C64.7645 187.671 64.485 187.596 64.1396 187.501C63.4507 187.311 62.529 187.05 61.5343 186.768L60.7153 189.654ZM35.9415 170.409C36.6083 174.728 39.2126 178.488 43.3989 181.67C47.5713 184.84 53.3902 187.499 60.7014 189.65L61.5482 186.772C54.4292 184.678 48.989 182.15 45.2141 179.281C41.4531 176.423 39.422 173.291 38.9064 169.951L35.9415 170.409ZM35.6712 168.571L35.9399 170.398L38.908 169.962L38.6393 168.135L35.6712 168.571ZM37.3545 164.954L35.8497 167.614L38.4609 169.091L39.9657 166.431L37.3545 164.954ZM40.9758 154.326C40.9758 157.335 40.0692 160.21 37.3582 164.948L39.962 166.438C42.7865 161.502 43.9758 158.089 43.9758 154.326H40.9758ZM40.1321 150.681C40.5758 151.596 40.7466 152.016 40.8389 152.42C40.9329 152.831 40.9624 153.297 40.976 154.345L43.9757 154.306C43.9625 153.286 43.9382 152.516 43.7635 151.751C43.587 150.979 43.2742 150.285 42.8311 149.372L40.1321 150.681ZM31.8314 141.661C37.7403 146.922 38.9926 148.355 40.1345 150.686L42.8287 149.367C41.3909 146.431 39.6874 144.639 33.8264 139.421L31.8314 141.661ZM15.9658 124.386C19.9632 130.423 23.213 133.934 31.8276 141.658L33.8303 139.424C25.3008 131.777 22.2626 128.462 18.4672 122.73L15.9658 124.386ZM4.93924 95.3474C7.14386 107.241 10.5106 116.176 15.9672 124.388L18.4659 122.728C13.2813 114.925 10.0376 106.392 7.889 94.8006L4.93924 95.3474ZM5.08471 78.9458C4.64585 80.906 4.43069 83.9776 4.40697 87.0008C4.38316 90.0345 4.55104 93.1908 4.93785 95.3398L7.8904 94.8083C7.55167 92.9265 7.38366 89.983 7.40687 87.0243C7.43017 84.0551 7.64496 81.2418 8.01224 79.6012L5.08471 78.9458ZM31.8395 43.3047C17.435 52.8439 8.17022 65.0749 5.08427 78.9478L8.01269 79.5992C10.8922 66.6542 19.5777 55.0232 33.4959 45.806L31.8395 43.3047Z" fill="#212254"/>
<path d="M90.6044 108.577L90.1539 107.641L89.7033 108.577L77.7756 133.369L77.4308 134.085H78.2262H102.082H102.877L102.532 133.369L90.6044 108.577Z" fill="#212254" stroke="#212254"/>
<circle cx="124.351" cy="97.492" r="15.5583" fill="#212254" stroke="#212254" stroke-width="3"/>
<circle cx="117.96" cy="93.6578" r="7.89014" fill="white" stroke="#212254" stroke-width="3"/>
<circle cx="56.189" cy="97.492" r="15.5583" fill="#212254" stroke="#212254" stroke-width="3"/>
<circle cx="49.7989" cy="93.6578" r="7.89014" fill="white" stroke="#212254" stroke-width="3"/>
<mask id="path-8-outside-1_2_25" maskUnits="userSpaceOnUse" x="11.197" y="0" width="158" height="48" fill="black">
<rect fill="white" x="11.197" width="158" height="48"/>
<path fill-rule="evenodd" clip-rule="evenodd" d="M163.624 44.5849H17.197C32.0711 19.6791 59.293 3 90.4106 3C121.528 3 148.75 19.6791 163.624 44.5849Z"/>
</mask>
<path fill-rule="evenodd" clip-rule="evenodd" d="M163.624 44.5849H17.197C32.0711 19.6791 59.293 3 90.4106 3C121.528 3 148.75 19.6791 163.624 44.5849Z" fill="#8E7DBE"/>
<path d="M17.197 44.5849L14.6214 43.0466L11.9111 47.5849H17.197V44.5849ZM163.624 44.5849V47.5849H168.91L166.2 43.0466L163.624 44.5849ZM17.197 47.5849H163.624V41.5849H17.197V47.5849ZM19.7727 46.1231C34.1277 22.0862 60.3921 6 90.4106 6V0C58.1939 0 30.0144 17.2719 14.6214 43.0466L19.7727 46.1231ZM90.4106 6C120.429 6 146.693 22.0862 161.048 46.1231L166.2 43.0466C150.807 17.2719 122.627 0 90.4106 0V6Z" fill="#212254" mask="url(#path-8-outside-1_2_25)"/>
<mask id="path-10-outside-2_2_25" maskUnits="userSpaceOnUse" x="0" y="41.5849" width="181" height="137" fill="black">
<rect fill="white" y="41.5849" width="181" height="137"/>
<path fill-rule="evenodd" clip-rule="evenodd" d="M18.0949 44.5849C16.3142 44.5849 14.6577 45.5267 13.8141 47.095C7.97089 57.9566 4.37052 70.2038 3.63277 83.2168C3.47647 85.9738 5.73005 88.2148 8.49147 88.2148L172.33 88.2149C175.091 88.2149 177.345 85.9739 177.188 83.2169C176.451 70.2039 172.85 57.9566 167.007 47.0949C166.164 45.5267 164.507 44.5849 162.726 44.5849H18.0949ZM90.4106 175.134L90.2831 175.134H90.5382L90.4106 175.134Z"/>
</mask>
<path fill-rule="evenodd" clip-rule="evenodd" d="M18.0949 44.5849C16.3142 44.5849 14.6577 45.5267 13.8141 47.095C7.97089 57.9566 4.37052 70.2038 3.63277 83.2168C3.47647 85.9738 5.73005 88.2148 8.49147 88.2148L172.33 88.2149C175.091 88.2149 177.345 85.9739 177.188 83.2169C176.451 70.2039 172.85 57.9566 167.007 47.0949C166.164 45.5267 164.507 44.5849 162.726 44.5849H18.0949ZM90.4106 175.134L90.2831 175.134H90.5382L90.4106 175.134Z" fill="#8E7DBE"/>
<path d="M90.2831 175.134V172.134L90.281 178.134L90.2831 175.134ZM90.4106 175.134L90.4085 178.134L90.4128 178.134L90.4106 175.134ZM90.5382 175.134L90.5403 178.134L90.5382 172.134V175.134ZM167.007 47.0949L164.365 48.5162L167.007 47.0949ZM172.33 88.2149L172.33 85.2149L172.33 88.2149ZM13.8141 47.095L11.1721 45.6737L13.8141 47.095ZM8.49147 88.2148L8.49147 91.2148L8.49147 88.2148ZM6.62796 83.3866C7.34031 70.8217 10.8158 59.0005 16.456 48.5162L11.1721 45.6737C5.12594 56.9126 1.40073 69.5859 0.637582 83.047L6.62796 83.3866ZM172.33 85.2149L8.49147 85.2148L8.49147 91.2148L172.33 91.2149L172.33 85.2149ZM164.365 48.5162C170.005 59.0006 173.481 70.8217 174.193 83.3867L180.184 83.0471C179.421 69.586 175.695 56.9127 169.649 45.6737L164.365 48.5162ZM162.726 41.5849H18.0949V47.5849H162.726V41.5849ZM90.281 178.134L90.4085 178.134L90.4128 172.134L90.2853 172.134L90.281 178.134ZM90.5382 172.134H90.2831V178.134H90.5382V172.134ZM90.4128 178.134L90.5403 178.134L90.536 172.134L90.4085 172.134L90.4128 178.134ZM169.649 45.6737C168.256 43.0844 165.555 41.5849 162.726 41.5849V47.5849C163.46 47.5849 164.071 47.969 164.365 48.5162L169.649 45.6737ZM172.33 91.2149C176.7 91.2149 180.444 87.6372 180.184 83.0471L174.193 83.3867C174.246 84.3106 173.482 85.2149 172.33 85.2149L172.33 91.2149ZM16.456 48.5162C16.7504 47.969 17.3617 47.5849 18.0949 47.5849V41.5849C15.2666 41.5849 12.5651 43.0844 11.1721 45.6737L16.456 48.5162ZM0.637582 83.047C0.377355 87.6371 4.12098 91.2148 8.49147 91.2148L8.49147 85.2148C7.33912 85.2148 6.57558 84.3105 6.62796 83.3866L0.637582 83.047Z" fill="#212254" mask="url(#path-10-outside-2_2_25)"/>
<rect x="120.951" y="39.3354" width="33.6773" height="18.3387" fill="#5F4B95" stroke="#212254" stroke-width="3"/>
<path fill-rule="evenodd" clip-rule="evenodd" d="M130.175 41.0059C130.174 41.0061 130.175 41.0064 130.175 41.0064H130.175C130.175 41.0064 130.176 41.0066 130.176 41.0069V46.5768C130.176 47.1291 130.623 47.5768 131.176 47.5768H135.79C136.342 47.5768 136.79 47.1291 136.79 46.5768V41.5064C136.79 41.2303 137.014 41.0064 137.29 41.0064C137.566 41.0064 137.79 41.2303 137.79 41.5064V55.6471C137.79 55.9233 137.566 56.1471 137.29 56.1471C137.014 56.1471 136.79 55.9233 136.79 55.6471V51.9753C136.79 51.0858 135.716 50.639 135.085 51.2662L130.308 56.016L130.175 56.1474C130.175 56.1477 130.175 56.1477 130.174 56.1474L130.174 56.1471H129.877C129.49 56.1471 129.176 55.8332 129.176 55.4459C129.176 55.2593 129.101 55.0804 128.969 54.9488L122.561 48.5768C122.17 48.188 122.17 47.5553 122.561 47.1665L129.113 40.6511C129.308 40.4572 129.623 40.4572 129.818 40.6511L130.175 41.0054C130.175 41.0056 130.175 41.0058 130.175 41.0059ZM129.176 51.3394C129.176 52.2289 128.101 52.6757 127.471 52.0484L123.983 48.5808C123.59 48.1898 123.59 47.5536 123.983 47.1626L127.471 43.6949C128.101 43.0677 129.176 43.5144 129.176 44.404V46.5768C129.176 47.1291 128.728 47.5768 128.176 47.5768H126.869C126.592 47.5768 126.369 47.8007 126.369 48.0768C126.369 48.353 126.592 48.5768 126.869 48.5768H128.176C128.728 48.5768 129.176 49.0245 129.176 49.5768V51.3394ZM134.653 50.286C135.285 49.6568 134.84 48.5768 133.947 48.5768H131.176C130.623 48.5768 130.176 49.0245 130.176 49.5768V52.3326C130.176 53.2221 131.25 53.6689 131.881 53.0418L134.653 50.286ZM145.962 41.0079L145.962 41.008H145.968C145.969 41.008 145.97 41.0091 145.97 41.0104V46.5915C145.97 47.1438 146.418 47.5915 146.97 47.5915H149.219C149.495 47.5915 149.719 47.8153 149.719 48.0915C149.719 48.3676 149.495 48.5915 149.219 48.5915H146.97C146.418 48.5915 145.97 49.0392 145.97 49.5915V55.6752C145.97 55.9514 145.747 56.1752 145.47 56.1752C145.194 56.1752 144.97 55.9514 144.97 55.6752V52.0271C144.97 51.1335 143.888 50.6886 143.26 51.3238L138.829 55.8033C138.633 56.0011 138.313 56.0011 138.118 55.8033C137.925 55.6085 137.925 55.2949 138.118 55.1001L142.871 50.2947C143.496 49.6632 143.048 48.5915 142.16 48.5915H138.482C138.477 48.5915 138.473 48.5875 138.473 48.5826C138.473 48.5803 138.472 48.578 138.471 48.5764L138.267 48.3703C137.991 48.092 137.991 47.644 138.267 47.3658L144.904 40.6561C145.099 40.4584 145.419 40.4584 145.614 40.6561L145.962 41.0077L145.962 41.0079ZM143.26 43.7401C143.888 43.1049 144.97 43.5499 144.97 44.4434V46.5915C144.97 47.1438 144.523 47.5915 143.97 47.5915H141.846C140.957 47.5915 140.51 46.5198 141.135 45.8882L143.26 43.7401ZM153.104 48.2197C153.3 48.4175 153.619 48.4175 153.815 48.2197C154.008 48.0249 154.008 47.7113 153.815 47.5165L147.029 40.6563C146.834 40.4584 146.514 40.4584 146.318 40.6563C146.126 40.8511 146.126 41.1647 146.318 41.3595L153.104 48.2197Z" fill="#212254"/>
<path d="M130.175 41.0059L129.822 40.6512L129.822 40.6513L130.175 41.0059ZM135.085 51.2662L134.732 50.9116L134.732 50.9116L135.085 51.2662ZM130.308 56.016L129.955 55.6614L129.955 55.6615L130.308 56.016ZM130.175 56.1474L129.823 55.7928L129.823 55.7931L130.175 56.1474ZM130.174 56.1474L130.527 55.7931L130.457 55.723L130.365 55.6851L130.174 56.1474ZM130.174 56.1471L130.364 55.6849L130.273 55.6471H130.174V56.1471ZM128.969 54.9488L128.616 55.3033L128.616 55.3033L128.969 54.9488ZM122.561 48.5768L122.914 48.2223L122.914 48.2223L122.561 48.5768ZM122.561 47.1665L122.914 47.5211L122.914 47.5211L122.561 47.1665ZM129.113 40.6511L129.466 41.0057L129.466 41.0057L129.113 40.6511ZM129.818 40.6511L129.466 41.0057L129.466 41.0057L129.818 40.6511ZM130.175 41.0054L129.822 41.36L129.822 41.3601L130.175 41.0054ZM127.471 52.0484L127.823 51.6939L127.823 51.6939L127.471 52.0484ZM123.983 48.5808L123.631 48.9353L123.631 48.9353L123.983 48.5808ZM123.983 47.1626L124.336 47.5171L124.336 47.5171L123.983 47.1626ZM127.471 43.6949L127.823 44.0495L127.823 44.0495L127.471 43.6949ZM134.653 50.286L135.005 50.6405L135.005 50.6405L134.653 50.286ZM131.881 53.0418L131.528 52.6872L131.528 52.6872L131.881 53.0418ZM145.962 41.008L145.501 41.2012L145.63 41.508H145.962V41.008ZM145.962 41.0079L145.462 40.9988L145.46 41.104L145.501 41.201L145.962 41.0079ZM143.26 51.3238L143.615 51.6755L143.615 51.6755L143.26 51.3238ZM138.829 55.8033L138.473 55.4517L138.473 55.4517L138.829 55.8033ZM138.118 55.8033L137.762 56.1549L137.762 56.1549L138.118 55.8033ZM138.118 55.1001L137.762 54.7485L137.762 54.7485L138.118 55.1001ZM142.871 50.2947L142.516 49.9431L142.516 49.9431L142.871 50.2947ZM138.471 48.5764L138.115 48.928L138.115 48.9281L138.471 48.5764ZM138.267 48.3703L137.911 48.7219L137.911 48.7219L138.267 48.3703ZM138.267 47.3658L137.911 47.0141L137.911 47.0141L138.267 47.3658ZM144.904 40.6561L145.259 41.0078L145.259 41.0078L144.904 40.6561ZM145.614 40.6561L145.97 40.3045L145.97 40.3045L145.614 40.6561ZM145.962 41.0077L146.462 41.0168L146.466 40.806L146.318 40.6561L145.962 41.0077ZM143.26 43.7401L142.904 43.3885L142.904 43.3885L143.26 43.7401ZM141.135 45.8882L141.49 46.2399L141.49 46.2399L141.135 45.8882ZM153.815 48.2197L154.171 48.5713L154.171 48.5713L153.815 48.2197ZM153.104 48.2197L153.46 47.8681L153.46 47.8681L153.104 48.2197ZM153.815 47.5165L154.171 47.1649L154.171 47.1649L153.815 47.5165ZM147.029 40.6563L146.674 41.0079L146.674 41.0079L147.029 40.6563ZM146.318 40.6563L146.674 41.0079L146.674 41.0079L146.318 40.6563ZM146.318 41.3595L145.963 41.7111L145.963 41.7111L146.318 41.3595ZM130.175 40.5064C130.62 40.5064 130.844 41.0458 130.527 41.3605L129.822 40.6513C129.505 40.9663 129.729 41.5064 130.175 41.5064V40.5064ZM130.175 40.5064H130.175V41.5064H130.175V40.5064ZM130.676 41.0069C130.676 40.7304 130.452 40.5064 130.175 40.5064V41.5064C129.899 41.5064 129.676 41.2828 129.676 41.0069H130.676ZM130.676 46.5768V41.0069H129.676V46.5768H130.676ZM131.176 47.0768C130.9 47.0768 130.676 46.853 130.676 46.5768H129.676C129.676 47.4052 130.347 48.0768 131.176 48.0768V47.0768ZM135.79 47.0768H131.176V48.0768H135.79V47.0768ZM136.29 46.5768C136.29 46.853 136.066 47.0768 135.79 47.0768V48.0768C136.618 48.0768 137.29 47.4052 137.29 46.5768H136.29ZM136.29 41.5064V46.5768H137.29V41.5064H136.29ZM137.29 40.5064C136.738 40.5064 136.29 40.9541 136.29 41.5064H137.29V41.5064V40.5064ZM138.29 41.5064C138.29 40.9541 137.842 40.5064 137.29 40.5064V41.5064H138.29ZM138.29 55.6471V41.5064H137.29V55.6471H138.29ZM137.29 56.6471C137.842 56.6471 138.29 56.1994 138.29 55.6471H137.29V56.6471ZM136.29 55.6471C136.29 56.1994 136.738 56.6471 137.29 56.6471V55.6471H136.29ZM136.29 51.9753V55.6471H137.29V51.9753H136.29ZM135.437 51.6207C135.753 51.3072 136.29 51.5306 136.29 51.9753H137.29C137.29 50.6411 135.679 49.9709 134.732 50.9116L135.437 51.6207ZM130.66 56.3706L135.437 51.6207L134.732 50.9116L129.955 55.6614L130.66 56.3706ZM130.528 56.5019L130.66 56.3705L129.955 55.6615L129.823 55.7928L130.528 56.5019ZM129.821 56.5017C130.017 56.6963 130.333 56.6963 130.528 56.5017L129.823 55.7931C130.017 55.5991 130.332 55.5991 130.527 55.7931L129.821 56.5017ZM129.983 56.6093L129.984 56.6096L130.365 55.6851L130.364 55.6849L129.983 56.6093ZM129.877 56.6471H130.174V55.6471H129.877V56.6471ZM128.676 55.4459C128.676 56.1093 129.213 56.6471 129.877 56.6471V55.6471C129.766 55.6471 129.676 55.557 129.676 55.4459H128.676ZM128.616 55.3033C128.654 55.3411 128.676 55.3924 128.676 55.4459H129.676C129.676 55.1262 129.548 54.8197 129.321 54.5942L128.616 55.3033ZM122.209 48.9314L128.616 55.3033L129.321 54.5942L122.914 48.2223L122.209 48.9314ZM122.209 46.812C121.621 47.3963 121.621 48.3471 122.209 48.9314L122.914 48.2223C122.72 48.029 122.72 47.7144 122.914 47.5211L122.209 46.812ZM128.761 40.2966L122.209 46.812L122.914 47.5211L129.466 41.0057L128.761 40.2966ZM130.171 40.2966C129.781 39.9087 129.151 39.9087 128.761 40.2966L129.466 41.0057L129.466 41.0057L130.171 40.2966ZM130.527 40.6509L130.171 40.2966L129.466 41.0057L129.822 41.36L130.527 40.6509ZM130.527 41.3606C130.724 41.1649 130.724 40.8464 130.527 40.6508L129.822 41.3601C129.626 41.1647 129.626 40.8466 129.822 40.6512L130.527 41.3606ZM127.118 52.403C128.064 53.3439 129.676 52.6737 129.676 51.3394H128.676C128.676 51.7841 128.138 52.0075 127.823 51.6939L127.118 52.403ZM123.631 48.9353L127.118 52.403L127.823 51.6939L124.336 48.2262L123.631 48.9353ZM123.631 46.8081C123.041 47.3945 123.041 48.3488 123.631 48.9353L124.336 48.2262C124.139 48.0307 124.139 47.7126 124.336 47.5171L123.631 46.8081ZM127.118 43.3404L123.631 46.8081L124.336 47.5171L127.823 44.0495L127.118 43.3404ZM129.676 44.404C129.676 43.0697 128.064 42.3995 127.118 43.3404L127.823 44.0495C128.138 43.7358 128.676 43.9592 128.676 44.404H129.676ZM129.676 46.5768V44.404H128.676V46.5768H129.676ZM128.176 48.0768C129.004 48.0768 129.676 47.4052 129.676 46.5768H128.676C128.676 46.853 128.452 47.0768 128.176 47.0768V48.0768ZM126.869 48.0768H128.176V47.0768H126.869V48.0768ZM126.869 48.0768V47.0768C126.316 47.0768 125.869 47.5245 125.869 48.0768H126.869ZM126.869 48.0768H126.869H125.869C125.869 48.6291 126.316 49.0768 126.869 49.0768V48.0768ZM128.176 48.0768H126.869V49.0768H128.176V48.0768ZM129.676 49.5768C129.676 48.7484 129.004 48.0768 128.176 48.0768V49.0768C128.452 49.0768 128.676 49.3007 128.676 49.5768H129.676ZM129.676 51.3394V49.5768H128.676V51.3394H129.676ZM133.947 49.0768C134.394 49.0768 134.616 49.6168 134.3 49.9314L135.005 50.6405C135.954 49.6969 135.286 48.0768 133.947 48.0768V49.0768ZM131.176 49.0768H133.947V48.0768H131.176V49.0768ZM130.676 49.5768C130.676 49.3007 130.9 49.0768 131.176 49.0768V48.0768C130.347 48.0768 129.676 48.7484 129.676 49.5768H130.676ZM130.676 52.3326V49.5768H129.676V52.3326H130.676ZM131.528 52.6872C131.213 53.0008 130.676 52.7774 130.676 52.3326H129.676C129.676 53.6669 131.287 54.3371 132.233 53.3963L131.528 52.6872ZM134.3 49.9314L131.528 52.6872L132.233 53.3963L135.005 50.6405L134.3 49.9314ZM146.423 40.8148L146.423 40.8147L145.501 41.201L145.501 41.2012L146.423 40.8148ZM145.968 40.508H145.962V41.508H145.968V40.508ZM146.47 41.0104C146.47 40.7331 146.246 40.508 145.968 40.508V41.508C145.693 41.508 145.47 41.2851 145.47 41.0104H146.47ZM146.47 46.5915V41.0104H145.47V46.5915H146.47ZM146.97 47.0915C146.694 47.0915 146.47 46.8676 146.47 46.5915H145.47C145.47 47.4199 146.142 48.0915 146.97 48.0915V47.0915ZM149.219 47.0915H146.97V48.0915H149.219V47.0915ZM150.219 48.0915C150.219 47.5392 149.771 47.0915 149.219 47.0915V48.0915H150.219ZM149.219 49.0915C149.771 49.0915 150.219 48.6438 150.219 48.0915H149.219V48.0915V49.0915ZM146.97 49.0915H149.219V48.0915H146.97V49.0915ZM146.47 49.5915C146.47 49.3153 146.694 49.0915 146.97 49.0915V48.0915C146.142 48.0915 145.47 48.7631 145.47 49.5915H146.47ZM146.47 55.6752V49.5915H145.47V55.6752H146.47ZM145.47 56.6752C146.023 56.6752 146.47 56.2275 146.47 55.6752H145.47V56.6752ZM144.47 55.6752C144.47 56.2275 144.918 56.6752 145.47 56.6752V55.6752V55.6752H144.47ZM144.47 52.0271V55.6752H145.47V52.0271H144.47ZM143.615 51.6755C143.929 51.3578 144.47 51.5803 144.47 52.0271H145.47C145.47 50.6868 143.847 50.0193 142.904 50.9722L143.615 51.6755ZM139.184 56.1549L143.615 51.6755L142.904 50.9722L138.473 55.4517L139.184 56.1549ZM137.762 56.1549C138.154 56.5506 138.793 56.5506 139.184 56.1549L138.473 55.4517L138.473 55.4517L137.762 56.1549ZM137.762 54.7485C137.377 55.1381 137.377 55.7653 137.762 56.1549L138.473 55.4517V55.4517L137.762 54.7485ZM142.516 49.9431L137.762 54.7485L138.473 55.4517L143.226 50.6464L142.516 49.9431ZM142.16 49.0915C142.604 49.0915 142.828 49.6273 142.516 49.9431L143.226 50.6464C144.164 49.6991 143.492 48.0915 142.16 48.0915V49.0915ZM138.482 49.0915H142.16V48.0915H138.482V49.0915ZM137.973 48.5826C137.973 48.8638 138.201 49.0915 138.482 49.0915V48.0915C138.753 48.0915 138.973 48.3112 138.973 48.5826H137.973ZM138.115 48.9281C138.024 48.836 137.973 48.7118 137.973 48.5826H138.973C138.973 48.4487 138.92 48.32 138.826 48.2247L138.115 48.9281ZM137.911 48.7219L138.115 48.928L138.826 48.2247L138.622 48.0186L137.911 48.7219ZM137.911 47.0141C137.443 47.4872 137.443 48.2488 137.911 48.7219L138.622 48.0186C138.54 47.9352 138.54 47.8008 138.622 47.7174L137.911 47.0141ZM144.548 40.3045L137.911 47.0141L138.622 47.7174L145.259 41.0078L144.548 40.3045ZM145.97 40.3045C145.579 39.9089 144.94 39.9089 144.548 40.3045L145.259 41.0078L145.259 41.0078L145.97 40.3045ZM146.318 40.6561L145.97 40.3045L145.259 41.0078L145.607 41.3594L146.318 40.6561ZM146.462 41.0169L146.462 41.0168L145.462 40.9987L145.462 40.9988L146.462 41.0169ZM145.47 44.4434C145.47 43.1031 143.847 42.4356 142.904 43.3885L143.615 44.0918C143.929 43.7741 144.47 43.9966 144.47 44.4434H145.47ZM145.47 46.5915V44.4434H144.47V46.5915H145.47ZM143.97 48.0915C144.799 48.0915 145.47 47.4199 145.47 46.5915H144.47C144.47 46.8676 144.247 47.0915 143.97 47.0915V48.0915ZM141.846 48.0915H143.97V47.0915H141.846V48.0915ZM140.779 45.5366C139.842 46.4839 140.513 48.0915 141.846 48.0915V47.0915C141.402 47.0915 141.178 46.5556 141.49 46.2399L140.779 45.5366ZM142.904 43.3885L140.779 45.5366L141.49 46.2399L143.615 44.0918L142.904 43.3885ZM153.46 47.8681L153.46 47.8681L152.749 48.5713C153.14 48.967 153.779 48.967 154.171 48.5713L153.46 47.8681ZM153.46 47.8681V47.8681L154.171 48.5713C154.556 48.1817 154.556 47.5545 154.171 47.1649L153.46 47.8681ZM146.674 41.0079L153.46 47.8681L154.171 47.1649L147.385 40.3046L146.674 41.0079ZM146.674 41.0079L146.674 41.0079L147.385 40.3046C146.993 39.909 146.354 39.909 145.963 40.3046L146.674 41.0079ZM146.674 41.0078L146.674 41.0079L145.963 40.3046C145.577 40.6943 145.577 41.3215 145.963 41.7111L146.674 41.0078ZM153.46 47.8681L146.674 41.0078L145.963 41.7111L152.749 48.5713L153.46 47.8681Z" fill="#212254"/>
</svg>
