<svg width="98" height="110" viewBox="0 0 98 110" fill="none" xmlns="http://www.w3.org/2000/svg">
<path fill-rule="evenodd" clip-rule="evenodd" d="M19.0505 30.5915C26.0197 25.9925 34.4843 23.0863 43.7388 22.1129C46.4757 21.8307 54.0797 21.9436 56.7178 22.3104C63.2355 23.2274 68.6811 24.9203 73.9996 27.6854C85.5679 33.7093 92.8333 43.627 93.5105 54.3064C93.9478 61.2192 91.4931 67.5958 85.9911 73.9019C85.455 74.5226 83.3953 76.6811 81.4344 78.6844C77.6817 82.5216 76.3838 84.017 75.4809 85.5407C73.6752 88.5879 73.9996 91.2542 76.5813 94.4426C77.2444 95.2608 77.3149 95.4019 77.3149 96.0508C77.3008 97.4898 76.271 99.5636 74.8884 100.862C73.3225 102.371 70.7408 103.895 67.9757 104.953C66.7766 105.404 63.0521 106.561 62.7559 106.561C62.6995 106.561 62.643 104.078 62.643 101.059V95.5571H60.8796H59.1161V101.398V107.238L57.8182 107.393C56.2805 107.577 54.2067 107.774 52.3868 107.901L51.0748 108V101.779V95.5571H49.3819H47.689V101.779V108L46.3911 107.901C44.5571 107.774 42.4833 107.577 40.9596 107.393L39.6476 107.238V101.398V95.5571H37.8842H36.1207V101.059C36.1207 104.078 36.0643 106.561 36.0079 106.561C35.9373 106.561 35.0345 106.307 33.9905 106.011C26.4147 103.782 22.1683 100.565 21.5476 96.5446L21.4065 95.5853L22.1965 94.1886C23.6496 91.6493 24.1998 89.9987 24.1998 88.2211C24.1857 87.1348 24.1434 86.9232 23.6778 85.9639C23.0007 84.5813 22.2248 83.7349 19.1352 80.9839C14.6349 76.9491 12.9843 75.1575 10.9387 72.0679C8.14537 67.8638 6.41013 63.2789 5.26742 57.1138C4.88651 54.9977 4.91473 50.709 5.33796 48.8186C6.9039 41.7789 11.6158 35.5151 19.0505 30.5915Z" fill="#ECF1FE"/>
<path d="M43.7388 22.1129L43.585 20.6208L43.5819 20.6211L43.7388 22.1129ZM19.0505 30.5915L18.2243 29.3396L18.2223 29.3409L19.0505 30.5915ZM56.7178 22.3104L56.9268 20.825L56.9244 20.8247L56.7178 22.3104ZM73.9996 27.6854L74.6924 26.355L74.6916 26.3545L73.9996 27.6854ZM93.5105 54.3064L95.0075 54.2117L95.0075 54.2115L93.5105 54.3064ZM85.9911 73.9019L84.8608 72.9157L84.8559 72.9215L85.9911 73.9019ZM81.4344 78.6844L80.3624 77.6351L80.3619 77.6356L81.4344 78.6844ZM76.5813 94.4426L75.4156 95.3865L75.4159 95.3869L76.5813 94.4426ZM77.3149 96.0508L78.8149 96.0655L78.8149 96.0582V96.0508H77.3149ZM74.8884 100.862L73.8618 99.7679L73.8545 99.7747L73.8474 99.7816L74.8884 100.862ZM67.9757 104.953L68.5042 106.357L68.5118 106.354L67.9757 104.953ZM62.643 95.5571H64.143V94.0571H62.643V95.5571ZM59.1161 95.5571V94.0571H57.6161V95.5571H59.1161ZM59.1161 107.238L59.2942 108.728L60.6161 108.569V107.238H59.1161ZM57.8182 107.393L57.9959 108.883L57.9963 108.883L57.8182 107.393ZM52.3868 107.901L52.2824 106.405L52.2742 106.405L52.3868 107.901ZM51.0748 108H49.5748V109.617L51.1874 109.496L51.0748 108ZM51.0748 95.5571H52.5748V94.0571H51.0748V95.5571ZM47.689 95.5571V94.0571H46.189V95.5571H47.689ZM47.689 108L47.5752 109.496L49.189 109.618V108H47.689ZM46.3911 107.901L46.5049 106.406L46.4947 106.405L46.3911 107.901ZM40.9596 107.393L41.1389 105.904L41.1358 105.904L40.9596 107.393ZM39.6476 107.238H38.1476V108.571L39.4715 108.728L39.6476 107.238ZM39.6476 95.5571H41.1476V94.0571H39.6476V95.5571ZM36.1207 95.5571V94.0571H34.6207V95.5571H36.1207ZM33.9905 106.011L33.5671 107.45L33.574 107.452L33.581 107.454L33.9905 106.011ZM21.5476 96.5446L20.0635 96.7628L20.0652 96.7735L21.5476 96.5446ZM21.4065 95.5853L20.1009 94.8468L19.8476 95.2945L19.9225 95.8035L21.4065 95.5853ZM22.1965 94.1886L20.8946 93.4436L20.8909 93.4501L22.1965 94.1886ZM24.1998 88.2211H25.6998V88.2114L25.6997 88.2016L24.1998 88.2211ZM23.6778 85.9639L25.0273 85.309L25.0249 85.3041L23.6778 85.9639ZM19.1352 80.9839L18.1339 82.1008L18.1377 82.1042L19.1352 80.9839ZM10.9387 72.0679L12.1894 71.2398L12.188 71.2378L10.9387 72.0679ZM5.26742 57.1138L3.79112 57.3796L3.79254 57.3872L5.26742 57.1138ZM5.33796 48.8186L6.80172 49.1463L6.80217 49.1443L5.33796 48.8186ZM43.5819 20.6211C34.1162 21.6167 25.4163 24.5935 18.2244 29.3396L19.8767 31.8435C26.6231 27.3915 34.8523 24.5559 43.8958 23.6046L43.5819 20.6211ZM56.9244 20.8247C55.5044 20.6272 52.861 20.5072 50.288 20.4684C47.7121 20.4296 45.0493 20.4698 43.585 20.6208L43.8927 23.605C45.1652 23.4738 47.6729 23.4294 50.2428 23.4681C52.8155 23.5069 55.2932 23.6267 56.5113 23.7961L56.9244 20.8247ZM74.6916 26.3545C69.2077 23.5035 63.5964 21.7634 56.9268 20.825L56.5089 23.7958C62.8746 24.6914 68.1544 26.3371 73.3077 29.0163L74.6916 26.3545ZM95.0075 54.2115C94.2894 42.8871 86.6083 32.5599 74.6924 26.355L73.3069 29.0158C84.5275 34.8588 91.3772 44.3668 92.0135 54.4013L95.0075 54.2115ZM87.1214 74.888C92.8243 68.3516 95.4749 61.6002 95.0075 54.2117L92.0135 54.4011C92.4207 60.8381 90.1618 66.84 84.8608 72.9157L87.1214 74.888ZM82.5063 79.7336C84.4567 77.7411 86.5532 75.546 87.1263 74.8823L84.8559 72.9215C84.3569 73.4992 82.3339 75.6211 80.3624 77.6351L82.5063 79.7336ZM76.7714 86.3054C77.5668 84.9631 78.7315 83.5935 82.5068 79.7331L80.3619 77.6356C76.6319 81.4498 75.2009 83.071 74.1905 84.776L76.7714 86.3054ZM77.7471 93.4986C76.5561 92.0277 76.006 90.8221 75.8746 89.7553C75.7468 88.7179 75.9918 87.621 76.7714 86.3054L74.1905 84.776C73.1643 86.5076 72.6687 88.2675 72.8971 90.1221C73.1219 91.9474 74.0249 93.6691 75.4156 95.3865L77.7471 93.4986ZM78.8149 96.0508C78.8149 95.6808 78.8017 95.2103 78.5597 94.6837C78.3648 94.2597 78.0457 93.8671 77.7467 93.4982L75.4159 95.3869C75.5819 95.5918 75.6866 95.7247 75.7592 95.8253C75.8303 95.924 75.8402 95.9505 75.8339 95.9367C75.8203 95.9072 75.8113 95.8716 75.809 95.8557C75.8089 95.855 75.8107 95.8673 75.8123 95.9005C75.8139 95.9346 75.8149 95.9814 75.8149 96.0508H78.8149ZM75.9151 101.955C76.7509 101.17 77.4548 100.179 77.9554 99.1821C78.4469 98.2031 78.8048 97.0937 78.8149 96.0655L75.815 96.0361C75.811 96.447 75.6469 97.0939 75.2743 97.8361C74.9108 98.56 74.4085 99.2547 73.8618 99.7679L75.9151 101.955ZM68.5118 106.354C71.3988 105.249 74.1749 103.633 75.9295 101.941L73.8474 99.7816C72.4701 101.109 70.0828 102.54 67.4396 103.552L68.5118 106.354ZM62.7559 108.061C62.9373 108.061 63.1006 108.027 63.1383 108.02C63.2149 108.005 63.2961 107.986 63.3734 107.967C63.5302 107.929 63.7234 107.877 63.935 107.817C64.3611 107.697 64.9048 107.534 65.4702 107.359C66.5896 107.013 67.8584 106.6 68.5042 106.357L67.4472 103.549C66.8938 103.757 65.7009 104.148 64.5842 104.493C64.0316 104.664 63.5138 104.819 63.1207 104.93C62.9227 104.985 62.767 105.027 62.6587 105.054C62.6035 105.067 62.5731 105.074 62.562 105.076C62.5121 105.086 62.6115 105.061 62.7559 105.061V108.061ZM61.143 101.059C61.143 102.577 61.1572 103.963 61.1786 104.974C61.1893 105.478 61.202 105.897 61.2161 106.197C61.223 106.343 61.2311 106.479 61.2414 106.589C61.2459 106.637 61.2544 106.719 61.2705 106.806C61.2765 106.839 61.2964 106.946 61.3428 107.072C61.3626 107.125 61.4208 107.278 61.5426 107.445C61.6302 107.565 62.021 108.061 62.7559 108.061V105.061C63.489 105.061 63.8781 105.556 63.9639 105.674C64.084 105.838 64.1403 105.987 64.1584 106.036C64.2012 106.152 64.2176 106.245 64.2201 106.259C64.2293 106.308 64.2307 106.334 64.2282 106.308C64.2247 106.27 64.2191 106.189 64.2128 106.055C64.2005 105.794 64.1884 105.405 64.178 104.91C64.1571 103.925 64.143 102.56 64.143 101.059H61.143ZM61.143 95.5571V101.059H64.143V95.5571H61.143ZM60.8796 97.0571H62.643V94.0571H60.8796V97.0571ZM59.1161 97.0571H60.8796V94.0571H59.1161V97.0571ZM60.6161 101.398V95.5571H57.6161V101.398H60.6161ZM60.6161 107.238V101.398H57.6161V107.238H60.6161ZM57.9963 108.883L59.2942 108.728L58.9381 105.749L57.6402 105.904L57.9963 108.883ZM52.4912 109.398C54.3346 109.269 56.4329 109.069 57.9959 108.883L57.6406 105.904C56.1281 106.084 54.0788 106.28 52.2824 106.405L52.4912 109.398ZM51.1874 109.496L52.4994 109.397L52.2742 106.405L50.9622 106.504L51.1874 109.496ZM49.5748 101.779V108H52.5748V101.779H49.5748ZM49.5748 95.5571V101.779H52.5748V95.5571H49.5748ZM49.3819 97.0571H51.0748V94.0571H49.3819V97.0571ZM47.689 97.0571H49.3819V94.0571H47.689V97.0571ZM49.189 101.779V95.5571H46.189V101.779H49.189ZM49.189 108V101.779H46.189V108H49.189ZM46.2773 109.397L47.5752 109.496L47.8028 106.504L46.5049 106.406L46.2773 109.397ZM40.7804 108.883C42.3306 109.069 44.4297 109.269 46.2875 109.398L46.4947 106.405C44.6844 106.279 42.6359 106.084 41.1389 105.904L40.7804 108.883ZM39.4715 108.728L40.7835 108.883L41.1358 105.904L39.8238 105.749L39.4715 108.728ZM38.1476 101.398V107.238H41.1476V101.398H38.1476ZM38.1476 95.5571V101.398H41.1476V95.5571H38.1476ZM37.8842 97.0571H39.6476V94.0571H37.8842V97.0571ZM36.1207 97.0571H37.8842V94.0571H36.1207V97.0571ZM37.6207 101.059V95.5571H34.6207V101.059H37.6207ZM36.0079 108.061C36.7427 108.061 37.1336 107.565 37.2211 107.445C37.343 107.278 37.4011 107.125 37.421 107.072C37.4673 106.946 37.4872 106.839 37.4932 106.806C37.5094 106.719 37.5178 106.637 37.5223 106.589C37.5326 106.479 37.5408 106.343 37.5476 106.197C37.5618 105.897 37.5745 105.478 37.5851 104.974C37.6066 103.963 37.6207 102.577 37.6207 101.059H34.6207C34.6207 102.56 34.6067 103.925 34.5858 104.91C34.5753 105.405 34.5633 105.794 34.551 106.055C34.5447 106.189 34.5391 106.27 34.5355 106.308C34.5331 106.334 34.5345 106.308 34.5436 106.259C34.5461 106.245 34.5625 106.152 34.6054 106.036C34.6234 105.987 34.6798 105.838 34.7999 105.674C34.8857 105.556 35.2748 105.061 36.0079 105.061V108.061ZM33.581 107.454C34.1024 107.602 34.5945 107.741 34.966 107.843C35.1507 107.894 35.3131 107.938 35.4371 107.97C35.4978 107.985 35.5597 108.001 35.6149 108.013C35.6416 108.019 35.6788 108.027 35.7195 108.034C35.7245 108.035 35.8534 108.061 36.0079 108.061V105.061C36.1002 105.061 36.1705 105.07 36.1901 105.072C36.2193 105.076 36.241 105.08 36.2506 105.082C36.2699 105.085 36.2794 105.088 36.2726 105.086C36.2608 105.083 36.2325 105.077 36.1823 105.064C36.0846 105.039 35.9427 105 35.7624 104.951C35.4039 104.852 34.9225 104.716 34.4 104.568L33.581 107.454ZM20.0652 96.7735C20.4511 99.2733 21.9545 101.397 24.2533 103.144C26.5382 104.88 29.6831 106.307 33.5671 107.45L34.4139 104.572C30.7221 103.486 27.9559 102.19 26.0685 100.755C24.195 99.3316 23.2648 97.8366 23.03 96.3157L20.0652 96.7735ZM19.9225 95.8035L20.0635 96.7628L23.0316 96.3264L22.8906 95.367L19.9225 95.8035ZM20.8909 93.4501L20.1009 94.8468L22.7121 96.3238L23.5021 94.9271L20.8909 93.4501ZM22.6998 88.2211C22.6998 89.6216 22.291 91.0034 20.8946 93.4436L23.4985 94.9336C25.0083 92.2951 25.6998 90.3757 25.6998 88.2211H22.6998ZM22.3284 86.6188C22.5614 87.0991 22.6174 87.2546 22.6458 87.3791C22.676 87.5111 22.6927 87.6838 22.6999 88.2406L25.6997 88.2016C25.6928 87.6722 25.6813 87.1959 25.5704 86.7106C25.4578 86.2179 25.2598 85.788 25.0273 85.309L22.3284 86.6188ZM18.1377 82.1042C21.2512 84.8765 21.8015 85.5431 22.3307 86.6237L25.0249 85.3041C24.1999 83.6196 23.1983 82.5933 20.1327 79.8636L18.1377 82.1042ZM9.68797 72.896C11.8346 76.1381 13.591 78.0278 18.1339 82.1008L20.1365 79.8671C15.6787 75.8704 14.134 74.1768 12.1894 71.2398L9.68797 72.896ZM3.79254 57.3872C4.96327 63.7034 6.76001 68.4893 9.68931 72.898L12.188 71.2378C9.53073 67.2384 7.85699 62.8543 6.7423 56.8405L3.79254 57.3872ZM3.87419 48.4909C3.62679 49.5959 3.51374 51.2698 3.50118 52.8698C3.48854 54.4803 3.57665 56.188 3.79114 57.3796L6.74369 56.8481C6.57728 55.9236 6.48904 54.4288 6.50109 52.8933C6.51322 51.3473 6.62589 49.9316 6.80172 49.1463L3.87419 48.4909ZM18.2223 29.3409C10.5445 34.4255 5.54288 40.9892 3.87374 48.4929L6.80217 49.1443C8.26491 42.5685 12.6871 36.6047 19.8788 31.8422L18.2223 29.3409Z" fill="#212254"/>
<path d="M49.6813 64.1001L49.2308 63.1636L48.7802 64.1001L42.5182 77.1155L42.1733 77.8323H42.9687H55.4928H56.2882L55.9433 77.1155L49.6813 64.1001Z" fill="#212254" stroke="#212254"/>
<circle cx="67.4978" cy="53.3545" r="8.99162" fill="#212254" stroke="#212254" stroke-width="3"/>
<circle cx="64.0925" cy="51.3113" r="4.90528" fill="white" stroke="#212254" stroke-width="3"/>
<circle cx="31.1748" cy="53.3545" r="8.99162" fill="#212254" stroke="#212254" stroke-width="3"/>
<circle cx="27.7695" cy="51.3113" r="4.90528" fill="white" stroke="#212254" stroke-width="3"/>
<mask id="path-8-outside-1_2_71" maskUnits="userSpaceOnUse" x="4.42398" y="0" width="90" height="29" fill="black">
<rect fill="white" x="4.42398" width="90" height="29"/>
<path fill-rule="evenodd" clip-rule="evenodd" d="M88.4545 25.1604H10.424C18.3503 11.8882 32.8568 3 49.4392 3C66.0217 3 80.5282 11.8882 88.4545 25.1604Z"/>
</mask>
<path fill-rule="evenodd" clip-rule="evenodd" d="M88.4545 25.1604H10.424C18.3503 11.8882 32.8568 3 49.4392 3C66.0217 3 80.5282 11.8882 88.4545 25.1604Z" fill="#C9A503"/>
<path d="M10.424 25.1604L7.84834 23.6222L5.13807 28.1604H10.424V25.1604ZM88.4545 25.1604V28.1604H93.7404L91.0301 23.6222L88.4545 25.1604ZM10.424 28.1604H88.4545V22.1604H10.424V28.1604ZM12.9996 26.6986C20.407 14.2954 33.9559 6 49.4392 6V0C31.7577 0 16.2936 9.48103 7.84834 23.6222L12.9996 26.6986ZM49.4392 6C64.9226 6 78.4715 14.2954 85.8788 26.6986L91.0301 23.6222C82.5848 9.48103 67.1208 0 49.4392 0V6Z" fill="#212254" mask="url(#path-8-outside-1_2_71)"/>
<mask id="path-10-outside-2_2_71" maskUnits="userSpaceOnUse" x="0" y="22.1604" width="98" height="76" fill="black">
<rect fill="white" y="22.1604" width="98" height="76"/>
<path fill-rule="evenodd" clip-rule="evenodd" d="M15.1225 25.1604C11.5609 25.1604 8.18824 27.0229 6.79457 30.3005C5.68292 32.9148 4.80466 35.6523 4.18592 38.4868C3.00808 43.8826 7.59748 48.4107 13.1203 48.4107H85.7582C91.281 48.4107 95.8704 43.8826 94.6926 38.4868C94.0739 35.6523 93.1956 32.9148 92.084 30.3005C90.6903 27.0229 87.3176 25.1604 83.7561 25.1604H15.1225ZM49.4393 94.7296L49.3927 94.7296H49.4858L49.4393 94.7296Z"/>
</mask>
<path fill-rule="evenodd" clip-rule="evenodd" d="M15.1225 25.1604C11.5609 25.1604 8.18824 27.0229 6.79457 30.3005C5.68292 32.9148 4.80466 35.6523 4.18592 38.4868C3.00808 43.8826 7.59748 48.4107 13.1203 48.4107H85.7582C91.281 48.4107 95.8704 43.8826 94.6926 38.4868C94.0739 35.6523 93.1956 32.9148 92.084 30.3005C90.6903 27.0229 87.3176 25.1604 83.7561 25.1604H15.1225ZM49.4393 94.7296L49.3927 94.7296H49.4858L49.4393 94.7296Z" fill="#C9A503"/>
<path d="M49.3927 94.7296V91.7296L49.3908 97.7296L49.3927 94.7296ZM49.4393 94.7296L49.4373 97.7296L49.4412 97.7296L49.4393 94.7296ZM49.4858 94.7296L49.4878 97.7296L49.4858 91.7296V94.7296ZM92.084 30.3005L94.8447 29.1266L92.084 30.3005ZM94.6926 38.4868L91.7616 39.1266L94.6926 38.4868ZM7.1169 39.1266C7.69528 36.477 8.5162 33.9182 9.55535 31.4744L4.03379 29.1266C2.84965 31.9114 1.91404 34.8276 1.25494 37.847L7.1169 39.1266ZM85.7582 45.4107H13.1203V51.4107H85.7582V45.4107ZM89.3232 31.4744C90.3623 33.9182 91.1833 36.477 91.7616 39.1266L97.6236 37.847C96.9645 34.8276 96.0289 31.9114 94.8447 29.1266L89.3232 31.4744ZM83.7561 22.1604H15.1225V28.1604H83.7561V22.1604ZM49.3908 97.7296L49.4373 97.7296L49.4412 91.7296L49.3947 91.7296L49.3908 97.7296ZM49.4858 91.7296H49.3927V97.7296H49.4858V91.7296ZM49.4412 97.7296L49.4878 97.7296L49.4838 91.7296L49.4373 91.7296L49.4412 97.7296ZM94.8447 29.1266C92.8986 24.5497 88.2974 22.1604 83.7561 22.1604V28.1604C86.3379 28.1604 88.482 29.4961 89.3232 31.4744L94.8447 29.1266ZM85.7582 51.4107C92.7081 51.4107 99.3077 45.562 97.6236 37.847L91.7616 39.1266C92.4332 42.2032 89.8539 45.4107 85.7582 45.4107V51.4107ZM9.55535 31.4744C10.3965 29.4961 12.5407 28.1604 15.1225 28.1604V22.1604C10.5812 22.1604 5.97994 24.5497 4.03379 29.1266L9.55535 31.4744ZM1.25494 37.847C-0.429155 45.562 6.17037 51.4107 13.1203 51.4107V45.4107C9.02458 45.4107 6.44532 42.2032 7.1169 39.1266L1.25494 37.847Z" fill="#212254" mask="url(#path-10-outside-2_2_71)"/>
</svg>
