<svg width="551" height="550" viewBox="0 0 551 550" fill="none" xmlns="http://www.w3.org/2000/svg">
<path fill-rule="evenodd" clip-rule="evenodd" d="M525.073 274.393C524.878 274.588 524.562 274.588 524.366 274.393L275.247 25.4128V25.4128C275.637 25.0225 276.27 25.0221 276.661 25.4124L525.073 273.686C525.269 273.881 525.269 274.198 525.073 274.393V274.393ZM25.4149 274.664C25.4694 274.719 25.5 274.793 25.5 274.87V274.87C25.5 275.03 25.6299 275.16 25.7902 275.16H271.144C272.035 275.16 272.481 276.237 271.851 276.867L25.1465 523.433C24.9511 523.629 24.9512 523.945 25.1465 524.141V524.141C25.3418 524.336 25.6582 524.336 25.8535 524.141L272.54 277.593C273.17 276.963 274.247 277.409 274.247 278.3V524.405C274.247 524.681 274.47 524.905 274.747 524.905V524.905C275.023 524.905 275.247 524.681 275.247 524.405V276.16C275.247 275.608 275.694 275.16 276.247 275.16H399.617C399.893 275.16 400.117 274.936 400.117 274.66V274.66C400.117 274.384 399.893 274.16 399.617 274.16H276.247C275.694 274.16 275.247 273.712 275.247 273.16V25.4128V25.4128C275.247 25.4122 275.246 25.4117 275.246 25.4117H275.05C274.998 25.4117 274.948 25.3911 274.912 25.3543L274.763 25.2059C274.489 24.9314 274.043 24.9314 273.769 25.2059L25.2929 273.543C25.0167 273.819 25.0167 274.266 25.2929 274.542L25.4149 274.664ZM27.7981 272.453C27.1679 273.082 27.614 274.16 28.505 274.16H273.247C273.799 274.16 274.247 273.712 274.247 273.16V28.5554C274.247 27.6646 273.17 27.2184 272.54 27.8481L27.7981 272.453Z" fill="#A22522"/>
<path d="M272.54 27.8481L290.212 45.5307L272.54 27.8481ZM27.7981 272.453L45.4708 290.135L27.7981 272.453ZM25.2929 274.542L7.62014 292.225L25.2929 274.542ZM274.763 25.2059L292.436 7.52342L274.763 25.2059ZM273.769 25.2059L291.442 42.8885L273.769 25.2059ZM274.912 25.3543L292.585 7.67185L274.912 25.3543ZM272.54 277.593L290.212 295.275L272.54 277.593ZM25.8535 524.141L43.5262 541.823L25.8535 524.141ZM25.1465 523.433L7.47383 505.751L25.1465 523.433ZM271.851 276.867L289.524 294.55L271.851 276.867ZM25.4149 274.664L7.74222 292.347L25.4149 274.664ZM525.073 273.686L542.746 256.003L525.073 273.686ZM276.661 25.4124L258.988 43.095L276.661 25.4124ZM524.366 274.393L506.694 292.076L524.366 274.393ZM257.574 43.0954L506.694 292.076L542.039 256.71L292.919 7.73018L257.574 43.0954ZM542.746 256.003L294.334 7.72978L258.988 43.095L507.401 291.368L542.746 256.003ZM25.7902 300.16H271.144V250.16H25.7902V300.16ZM254.178 259.185L7.47383 505.751L42.8193 541.116L289.524 294.55L254.178 259.185ZM43.5262 541.823L290.212 295.275L254.867 259.91L8.18074 506.458L43.5262 541.823ZM249.247 278.3V524.405H299.247V278.3H249.247ZM300.247 524.405V276.16H250.247V524.405H300.247ZM276.247 300.16H399.617V250.16H276.247V300.16ZM399.617 249.16H276.247V299.16H399.617V249.16ZM300.247 273.16V25.4128H250.247V273.16H300.247ZM275.246 0.41172H275.05V50.4117H275.246V0.41172ZM257.09 42.8883L257.239 43.0367L292.585 7.67185L292.436 7.52342L257.09 42.8883ZM42.9656 291.225L291.442 42.8885L256.096 7.52323L7.62015 255.86L42.9656 291.225ZM43.0877 256.982L42.9656 256.86L7.62014 292.225L7.74222 292.347L43.0877 256.982ZM273.247 249.16H28.505V299.16H273.247V249.16ZM249.247 28.5554V273.16H299.247V28.5554H249.247ZM254.867 10.1655L10.1254 254.77L45.4708 290.135L290.212 45.5307L254.867 10.1655ZM299.247 28.5554C299.247 5.39541 271.248 -6.20652 254.867 10.1655L290.212 45.5307C275.091 60.6434 249.247 49.9339 249.247 28.5554H299.247ZM28.505 249.16C49.8882 249.16 60.5978 275.017 45.4708 290.135L10.1254 254.77C-6.26202 271.148 5.33976 299.16 28.505 299.16V249.16ZM273.247 299.16C287.606 299.16 299.247 287.519 299.247 273.16H249.247C249.247 259.905 259.992 249.16 273.247 249.16V299.16ZM7.62015 255.86C-2.42576 265.9 -2.42575 282.185 7.62014 292.225L42.9656 256.86C52.4591 266.348 52.4591 281.737 42.9656 291.225L7.62015 255.86ZM292.436 7.52342C282.4 -2.50749 266.133 -2.50806 256.096 7.52323L291.442 42.8885C281.954 52.3708 266.577 52.3703 257.09 42.8883L292.436 7.52342ZM275.05 0.41172C281.626 0.41172 287.933 3.02314 292.585 7.67185L257.239 43.0367C261.964 47.759 268.37 50.4117 275.05 50.4117V0.41172ZM300.247 25.4128C300.247 11.6051 289.053 0.41172 275.246 0.41172V50.4117C261.439 50.4117 250.247 39.2193 250.247 25.4128H300.247ZM276.247 249.16C289.501 249.16 300.247 259.905 300.247 273.16H250.247C250.247 287.519 261.887 299.16 276.247 299.16V249.16ZM425.117 274.66C425.117 260.577 413.701 249.16 399.617 249.16V299.16C386.086 299.16 375.117 288.191 375.117 274.66H425.117ZM399.617 300.16C413.701 300.16 425.117 288.743 425.117 274.66H375.117C375.117 261.129 386.086 250.16 399.617 250.16V300.16ZM300.247 276.16C300.247 289.414 289.502 300.16 276.247 300.16V250.16C261.887 250.16 250.247 261.801 250.247 276.16H300.247ZM274.747 549.905C288.83 549.905 300.247 538.488 300.247 524.405H250.247C250.247 510.874 261.216 499.905 274.747 499.905V549.905ZM249.247 524.405C249.247 538.488 260.663 549.905 274.747 549.905V499.905C288.278 499.905 299.247 510.874 299.247 524.405H249.247ZM290.212 295.275C275.091 310.388 249.247 299.679 249.247 278.3H299.247C299.247 255.14 271.248 243.538 254.867 259.91L290.212 295.275ZM7.47383 541.823C17.431 551.775 33.5689 551.775 43.5262 541.823L8.18074 506.458C17.7475 496.897 33.2525 496.897 42.8193 506.458L7.47383 541.823ZM7.47383 505.751C-2.49152 515.711 -2.49103 531.864 7.47383 541.823L42.8193 506.458C52.3933 516.027 52.3938 531.547 42.8193 541.116L7.47383 505.751ZM271.144 300.16C249.76 300.16 239.052 274.302 254.178 259.185L289.524 294.55C305.91 278.172 294.311 250.16 271.144 250.16V300.16ZM0.500002 274.87C0.500002 288.837 11.8228 300.16 25.7902 300.16V250.16C39.4371 250.16 50.5 261.223 50.5 274.87H0.500002ZM50.5 274.87C50.5 268.16 47.8336 261.725 43.0877 256.982L7.74222 292.347C3.10524 287.713 0.500002 281.425 0.500002 274.87H50.5ZM507.401 291.368C497.826 281.799 497.826 266.279 507.401 256.71L542.746 292.076C552.711 282.116 552.711 265.963 542.746 256.003L507.401 291.368ZM292.919 43.0954C283.561 52.4488 268.372 52.4742 258.988 43.095L294.334 7.72978C284.168 -2.42987 267.713 -2.40368 257.574 7.73017L292.919 43.0954ZM506.694 292.076C516.651 302.027 532.789 302.027 542.746 292.076L507.401 256.71C516.967 247.149 532.472 247.149 542.039 256.71L506.694 292.076Z" fill="#A22522"/>
</svg>
