<svg width="666" height="337" viewBox="0 0 666 337" fill="none" xmlns="http://www.w3.org/2000/svg">
<path fill-rule="evenodd" clip-rule="evenodd" d="M168.126 18.5047C168.122 18.5088 168.125 18.5159 168.13 18.5159H168.137C168.142 18.5159 168.146 18.5201 168.146 18.5253V166.253C168.146 166.806 168.594 167.253 169.146 167.253H316C316.552 167.253 317 166.806 317 166.253V19.0159C317 18.7398 317.224 18.5159 317.5 18.5159C317.776 18.5159 318 18.7398 318 19.0159V317.491C318 317.767 317.776 317.991 317.5 317.991C317.224 317.991 317 317.767 317 317.491V171.665C317 170.775 315.923 170.328 315.293 170.958L168.838 317.3L168.146 317.991L168.142 317.996C168.135 318.002 168.125 318.002 168.119 317.996C168.116 317.993 168.112 317.991 168.108 317.991H167.83C167.453 317.991 167.146 317.685 167.146 317.307C167.146 317.126 167.074 316.952 166.946 316.823L18.2929 168.253C17.9024 167.863 17.9024 167.23 18.2929 166.84L167.07 18.1463C167.265 17.9512 167.581 17.9512 167.777 18.1463L168.126 18.4953C168.128 18.4979 168.128 18.5021 168.126 18.5047ZM167.146 313.197C167.146 314.087 166.07 314.534 165.44 313.904L19.7079 168.254C19.3171 167.863 19.3171 167.23 19.7079 166.839L165.44 21.1894C166.07 20.5597 167.146 21.0059 167.146 21.8967V166.253C167.146 166.806 166.699 167.253 166.146 167.253H93.7197C93.4436 167.253 93.2197 167.477 93.2197 167.753C93.2197 168.03 93.4436 168.253 93.7197 168.253H166.146C166.699 168.253 167.146 168.701 167.146 169.253V313.197ZM314.876 169.961C315.507 169.331 315.061 168.253 314.169 168.253H169.146C168.594 168.253 168.146 168.701 168.146 169.253V314.164C168.146 315.055 169.223 315.501 169.853 314.872L314.876 169.961ZM646.978 167.945C647.173 168.14 647.489 168.14 647.685 167.945C647.88 167.75 647.88 167.433 647.685 167.238L498.908 18.5446C498.517 18.1544 497.884 18.1548 497.494 18.545C497.389 18.545 497.29 18.5037 497.216 18.4301L497.124 18.3379C496.848 18.0619 496.4 18.0618 496.124 18.3379L347.286 167.092C347.01 167.368 347.01 167.815 347.286 168.091L347.443 168.247C347.475 168.28 347.494 168.324 347.494 168.371C347.494 168.467 347.572 168.545 347.668 168.545H493.501C494.392 168.545 494.838 169.622 494.208 170.252L347.14 317.238C346.945 317.433 346.945 317.75 347.14 317.945C347.335 318.14 347.652 318.14 347.847 317.945L494.787 171.088C495.417 170.458 496.494 170.904 496.494 171.795V318.045C496.494 318.321 496.717 318.545 496.994 318.545C497.27 318.545 497.494 318.321 497.494 318.045V169.545C497.494 168.993 497.941 168.545 498.494 168.545H571.994C572.27 168.545 572.494 168.321 572.494 168.045C572.494 167.769 572.27 167.545 571.994 167.545H498.494C497.941 167.545 497.494 167.097 497.494 166.545V18.545L646.978 167.945ZM350.663 167.545C349.772 167.545 349.326 166.468 349.956 165.838L494.787 21.088C495.417 20.4583 496.494 20.9045 496.494 21.7953V166.545C496.494 167.097 496.046 167.545 495.494 167.545H350.663Z" fill="#212254"/>
<path d="M168.126 18.5047L155.407 5.76762L155.401 5.77396L155.394 5.78031L168.126 18.5047ZM315.293 170.958L302.57 158.225L302.57 158.225L315.293 170.958ZM168.838 317.3L156.115 304.567L156.113 304.569L168.838 317.3ZM168.146 317.991L180.854 330.74L180.862 330.731L180.871 330.722L168.146 317.991ZM168.142 317.996L180.838 330.755L180.844 330.749L180.849 330.744L168.142 317.996ZM168.119 317.996L180.863 305.283L180.839 305.259L180.815 305.235L168.119 317.996ZM166.946 316.823L154.222 329.555L154.223 329.556L166.946 316.823ZM18.2929 168.253L31.0173 155.522H31.0173L18.2929 168.253ZM18.2929 166.84L31.0173 179.571H31.0173L18.2929 166.84ZM167.07 18.1463L154.345 5.41481L154.345 5.41485L167.07 18.1463ZM167.777 18.1463L155.052 30.8774L155.052 30.8779L167.777 18.1463ZM168.126 18.4953L155.401 31.2269L155.407 31.2322L168.126 18.4953ZM165.44 313.904L178.164 301.172H178.164L165.44 313.904ZM19.7079 168.254L6.98342 180.985L6.98358 180.985L19.7079 168.254ZM19.7079 166.839L6.98358 154.108L6.98343 154.108L19.7079 166.839ZM165.44 21.1894L152.715 8.45783L152.715 8.45788L165.44 21.1894ZM314.876 169.961L302.153 157.228L314.876 169.961ZM169.853 314.872L182.576 327.605L182.576 327.605L169.853 314.872ZM647.685 167.945L660.408 180.677L660.409 180.676L647.685 167.945ZM646.978 167.945L634.253 180.677L634.254 180.677L646.978 167.945ZM647.685 167.238L660.409 154.507L660.409 154.506L647.685 167.238ZM498.908 18.5446L486.183 31.276L486.183 31.2761L498.908 18.5446ZM497.216 18.4301L509.941 5.69957L509.94 5.69801L497.216 18.4301ZM497.124 18.3379L484.399 31.0693L484.4 31.07L497.124 18.3379ZM496.124 18.3379L508.848 31.0694L508.848 31.0694L496.124 18.3379ZM347.286 167.092L334.562 154.36L334.562 154.361L347.286 167.092ZM347.286 168.091L334.562 180.823L334.562 180.823L347.286 168.091ZM347.443 168.247L334.718 180.979L334.721 180.981L347.443 168.247ZM494.208 170.252L506.933 182.984L506.933 182.984L494.208 170.252ZM347.14 317.238L359.864 329.97L359.865 329.969L347.14 317.238ZM347.14 317.945L334.416 330.677L347.14 317.945ZM347.847 317.945L360.571 330.677L360.571 330.677L347.847 317.945ZM494.787 171.088L507.511 183.819V183.819L494.787 171.088ZM349.956 165.838L337.231 153.106L337.231 153.106L349.956 165.838ZM494.787 21.088L507.511 33.8194L507.511 33.8193L494.787 21.088ZM168.13 0.515924C184.141 0.515924 192.2 19.8799 180.857 31.229L155.394 5.78031C144.043 17.1377 152.108 36.5159 168.13 36.5159V0.515924ZM168.137 0.515924H168.13V36.5159H168.137V0.515924ZM186.146 18.5253C186.146 8.57981 178.084 0.515924 168.137 0.515924V36.5159C158.2 36.5159 150.146 28.4604 150.146 18.5253H186.146ZM186.146 166.253V18.5253H150.146V166.253H186.146ZM169.146 149.253C178.535 149.253 186.146 156.865 186.146 166.253H150.146C150.146 176.747 158.653 185.253 169.146 185.253V149.253ZM316 149.253H169.146V185.253H316V149.253ZM299 166.253C299 156.865 306.611 149.253 316 149.253V185.253C326.493 185.253 335 176.747 335 166.253H299ZM299 19.0159V166.253H335V19.0159H299ZM317.5 0.515924C307.282 0.515924 299 8.79904 299 19.0159H335C335 28.6805 327.165 36.5159 317.5 36.5159V0.515924ZM336 19.0159C336 8.79892 327.717 0.515924 317.5 0.515924V36.5159C307.835 36.5159 300 28.6806 300 19.0159H336ZM336 317.491V19.0159H300V317.491H336ZM317.5 335.991C327.718 335.991 336 327.708 336 317.491H300C300 307.827 307.834 299.991 317.5 299.991V335.991ZM299 317.491C299 327.708 307.282 335.991 317.5 335.991V299.991C327.166 299.991 335 307.827 335 317.491H299ZM299 171.665V317.491H335V171.665H299ZM328.016 183.691C317.305 194.394 299 186.808 299 171.665H335C335 154.742 314.542 146.263 302.57 158.225L328.016 183.691ZM181.561 330.033L328.016 183.691L302.57 158.225L156.115 304.567L181.561 330.033ZM180.871 330.722L181.562 330.031L156.113 304.569L155.422 305.26L180.871 330.722ZM180.849 330.744L180.854 330.74L155.439 305.242L155.434 305.247L180.849 330.744ZM155.376 330.708C162.418 337.768 173.813 337.746 180.838 330.755L155.445 305.237C162.458 298.258 173.832 298.236 180.863 305.283L155.376 330.708ZM168.108 335.991C163.373 335.991 158.807 334.122 155.424 330.756L180.815 305.235C177.425 301.863 172.851 299.991 168.108 299.991V335.991ZM167.83 335.991H168.108V299.991H167.83V335.991ZM149.146 317.307C149.146 327.625 157.511 335.991 167.83 335.991V299.991C177.394 299.991 185.146 307.744 185.146 317.307H149.146ZM154.223 329.556C150.972 326.307 149.146 321.901 149.146 317.307H185.146C185.146 312.35 183.177 307.596 179.669 304.091L154.223 329.556ZM5.56857 180.985L154.222 329.555L179.67 304.092L31.0173 155.522L5.56857 180.985ZM5.56858 154.108C-1.85619 161.529 -1.85619 173.564 5.56858 180.985L31.0173 155.522C37.6609 162.162 37.6609 172.931 31.0173 179.571L5.56858 154.108ZM154.345 5.41485L5.56857 154.108L31.0173 179.571L179.794 30.8778L154.345 5.41485ZM180.501 5.41531C173.277 -1.80532 161.569 -1.80472 154.345 5.41481L179.794 30.8779C172.961 37.7072 161.885 37.7078 155.052 30.8774L180.501 5.41531ZM180.85 5.76377L180.501 5.41478L155.052 30.8779L155.401 31.2269L180.85 5.76377ZM180.845 31.2417C187.889 24.2075 187.889 12.7924 180.845 5.75852L155.407 31.2322C148.368 24.2034 148.368 12.7967 155.407 5.76762L180.845 31.2417ZM152.715 326.635C164.686 338.6 185.146 330.121 185.146 313.197H149.146C149.146 298.053 167.453 290.467 178.164 301.172L152.715 326.635ZM6.98358 180.985L152.715 326.635L178.164 301.172L32.4323 155.522L6.98358 180.985ZM6.98343 154.108C-0.441257 161.529 -0.441441 173.564 6.98342 180.985L32.4324 155.523C39.0757 162.162 39.0756 172.931 32.4324 179.571L6.98343 154.108ZM152.715 8.45788L6.98358 154.108L32.4323 179.571L178.164 33.9209L152.715 8.45788ZM185.146 21.8967C185.146 4.97183 164.686 -3.50609 152.715 8.45783L178.164 33.9209C167.453 44.6254 149.146 37.04 149.146 21.8967H185.146ZM185.146 166.253V21.8967H149.146V166.253H185.146ZM166.146 185.253C176.64 185.253 185.146 176.747 185.146 166.253H149.146C149.146 156.865 156.757 149.253 166.146 149.253V185.253ZM93.7197 185.253H166.146V149.253H93.7197V185.253ZM111.22 167.753C111.22 177.419 103.385 185.253 93.7197 185.253V149.253C83.5026 149.253 75.2197 157.536 75.2197 167.753H111.22ZM93.7197 150.253C103.385 150.253 111.22 158.089 111.22 167.753H75.2197C75.2197 177.971 83.5023 186.253 93.7197 186.253V150.253ZM166.146 150.253H93.7197V186.253H166.146V150.253ZM185.146 169.253C185.146 158.76 176.64 150.253 166.146 150.253V186.253C156.758 186.253 149.146 178.642 149.146 169.253H185.146ZM185.146 313.197V169.253H149.146V313.197H185.146ZM314.169 186.253C299.021 186.253 291.438 167.935 302.153 157.228L327.599 182.694C339.576 170.727 331.1 150.253 314.169 150.253V186.253ZM169.146 186.253H314.169V150.253H169.146V186.253ZM186.146 169.253C186.146 178.643 178.535 186.253 169.146 186.253V150.253C158.653 150.253 150.146 158.76 150.146 169.253H186.146ZM186.146 314.164V169.253H150.146V314.164H186.146ZM157.13 302.139C167.842 291.436 186.146 299.022 186.146 314.164H150.146C150.146 331.088 170.604 339.567 182.576 327.605L157.13 302.139ZM302.153 157.228L157.13 302.139L182.576 327.605L327.599 182.694L302.153 157.228ZM634.961 155.213C641.795 148.384 652.869 148.385 659.702 155.213L634.254 180.677C641.477 187.896 653.184 187.897 660.408 180.677L634.961 155.213ZM634.96 179.969C628.122 173.134 628.122 162.049 634.96 155.214L660.409 180.676C667.638 173.451 667.638 161.732 660.409 154.507L634.96 179.969ZM486.183 31.2761L634.96 179.969L660.409 154.506L511.632 5.81313L486.183 31.2761ZM510.218 31.2764C503.589 37.9016 492.831 37.9199 486.183 31.276L511.632 5.81324C504.204 -1.61116 492.179 -1.59212 484.769 5.81363L510.218 31.2764ZM497.494 0.545021C502.161 0.545006 506.639 2.39845 509.941 5.69957L484.491 31.1607C487.94 34.6089 492.618 36.545 497.494 36.545L497.494 0.545021ZM509.94 5.69801L509.848 5.60585L484.4 31.07L484.492 31.1622L509.94 5.69801ZM509.848 5.60658C502.544 -1.69427 490.704 -1.69443 483.399 5.60651L508.848 31.0694C502.096 37.8181 491.152 37.818 484.399 31.0693L509.848 5.60658ZM483.399 5.60645L334.562 154.36L360.011 179.823L508.848 31.0694L483.399 5.60645ZM334.562 154.361C327.252 161.667 327.252 173.516 334.562 180.823L360.011 155.36C366.769 162.114 366.768 173.069 360.011 179.823L334.562 154.361ZM334.562 180.823L334.718 180.979L360.167 155.516L360.011 155.36L334.562 180.823ZM334.721 180.981C331.372 177.636 329.494 173.098 329.494 168.371H365.494C365.494 163.551 363.579 158.925 360.164 155.514L334.721 180.981ZM329.494 168.371C329.494 178.407 337.629 186.545 347.668 186.545V150.545C357.514 150.545 365.494 158.527 365.494 168.371H329.494ZM347.668 186.545H493.501V150.545H347.668V186.545ZM493.501 186.545C478.353 186.545 470.77 168.229 481.484 157.521L506.933 182.984C518.907 171.016 510.431 150.545 493.501 150.545V186.545ZM481.484 157.521L334.416 304.506L359.865 329.969L506.933 182.984L481.484 157.521ZM334.416 304.506C327.186 311.732 327.186 323.452 334.416 330.677L359.864 305.213C366.703 312.048 366.703 323.135 359.864 329.97L334.416 304.506ZM334.416 330.677C341.64 337.896 353.347 337.896 360.571 330.677L335.123 305.213C341.956 298.384 353.031 298.384 359.864 305.213L334.416 330.677ZM360.571 330.677L507.511 183.819L482.062 158.356L335.123 305.214L360.571 330.677ZM507.511 183.819C496.8 194.524 478.494 186.938 478.494 171.795H514.494C514.494 154.871 494.033 146.392 482.062 158.356L507.511 183.819ZM478.494 171.795V318.045H514.494V171.795H478.494ZM478.494 318.045C478.494 328.262 486.776 336.545 496.994 336.545V300.545C506.659 300.545 514.494 308.38 514.494 318.045H478.494ZM496.994 336.545C507.211 336.545 515.494 328.262 515.494 318.045H479.494C479.494 308.38 487.329 300.545 496.994 300.545V336.545ZM515.494 318.045V169.545H479.494V318.045H515.494ZM515.494 169.545C515.494 178.934 507.882 186.545 498.494 186.545V150.545C488 150.545 479.494 159.051 479.494 169.545H515.494ZM498.494 186.545H571.994V150.545H498.494V186.545ZM571.994 186.545C582.211 186.545 590.494 178.263 590.494 168.045H554.494C554.494 158.38 562.329 150.545 571.994 150.545V186.545ZM590.494 168.045C590.494 157.827 582.211 149.545 571.994 149.545V185.545C562.329 185.545 554.494 177.71 554.494 168.045H590.494ZM571.994 149.545H498.494V185.545H571.994V149.545ZM498.494 149.545C507.882 149.545 515.494 157.156 515.494 166.545H479.494C479.494 177.038 488 185.545 498.494 185.545V149.545ZM515.494 166.545V18.545H479.494V166.545H515.494ZM659.702 155.214L510.218 5.81353L484.769 31.2765L634.253 180.677L659.702 155.214ZM337.231 153.106C325.257 165.074 333.733 185.545 350.663 185.545V149.545C365.811 149.545 373.394 167.861 362.68 178.569L337.231 153.106ZM482.062 8.35646L337.231 153.106L362.68 178.569L507.511 33.8194L482.062 8.35646ZM514.494 21.7953C514.494 4.87073 494.033 -3.60786 482.062 8.35657L507.511 33.8193C496.8 44.5244 478.494 36.9382 478.494 21.7953H514.494ZM514.494 166.545V21.7953H478.494V166.545H514.494ZM495.494 185.545C505.987 185.545 514.494 177.038 514.494 166.545H478.494C478.494 157.156 486.105 149.545 495.494 149.545V185.545ZM350.663 185.545H495.494V149.545H350.663V185.545Z" fill="#212254"/>
</svg>
