<svg width="301" height="300" viewBox="0 0 301 300" fill="none" xmlns="http://www.w3.org/2000/svg">
<path fill-rule="evenodd" clip-rule="evenodd" d="M269.05 14.7059C269.05 6.58406 275.631 0 283.75 0H285.22C293.339 0 299.92 6.58405 299.92 14.7059V155.515L300.152 155.747L299.92 155.979V285.294C299.92 293.416 293.339 300 285.22 300H283.75C275.631 300 269.05 293.416 269.05 285.294V186.862L160.375 295.581C154.634 301.324 145.326 301.324 139.586 295.581L4.45776 160.399C3.74017 159.681 3.11228 158.907 2.57409 158.092C0.952813 155.635 0.145541 152.799 0.152279 149.965C0.154487 149.036 0.244172 148.107 0.421332 147.191C0.959523 144.41 2.305 141.755 4.45776 139.601L139.586 4.41918C145.326 -1.32382 154.634 -1.32382 160.375 4.41918L161.414 5.45904C163.521 7.56698 164.855 10.1556 165.415 12.8721V134.559H269.05V14.7059ZM134.545 134.559H86.7702C78.6517 134.559 72.0703 141.143 72.0703 149.265V150.735C72.0703 158.857 78.6517 165.441 86.7702 165.441H134.545V248.473L36.9158 150.805L134.545 53.136V134.559ZM165.415 246.864V165.441H246.805L165.415 246.864Z" fill="black"/>
</svg>
