<svg width="300" height="300" viewBox="0 0 300 300" fill="none" xmlns="http://www.w3.org/2000/svg">
<path fill-rule="evenodd" clip-rule="evenodd" d="M165.449 136.283V52.9638L273.854 161.439C279.598 167.186 288.909 167.186 294.653 161.439L295.693 160.398C301.436 154.651 301.436 145.334 295.693 139.587L160.504 4.31032C155.478 -0.718349 147.721 -1.347 142.012 2.42455C141.197 2.96329 140.423 3.59194 139.705 4.31032L138.665 5.35089L138.644 5.37281L4.51651 139.587C2.28812 141.817 0.924325 144.584 0.425158 147.472C0.147344 148.602 0 149.783 0 150.999V152.471C0 160.598 6.58436 167.187 14.7066 167.187H111.084L4.51763 273.823C-1.22566 279.57 -1.22566 288.887 4.51763 294.634L5.55753 295.675C11.3008 301.422 20.6126 301.422 26.3558 295.675L134.566 187.395V285.284C134.566 293.411 141.15 300 149.272 300H150.743C158.865 300 165.449 293.411 165.449 285.284V167.187H219.129C227.251 167.187 233.835 160.598 233.835 152.471V150.999C233.835 142.872 227.251 136.283 219.129 136.283H165.449ZM51.4946 136.283H134.566V53.1582L51.4946 136.283Z" fill="black"/>
</svg>
