<svg width="550" height="534" viewBox="0 0 550 534" fill="none" xmlns="http://www.w3.org/2000/svg">
<path fill-rule="evenodd" clip-rule="evenodd" d="M60.8426 368.157C37.1587 368.157 17.9591 387.356 17.9591 411.04C17.9591 434.724 37.1587 453.924 60.8426 453.924C84.5266 453.924 103.726 434.724 103.726 411.04C103.726 387.356 84.5266 368.157 60.8426 368.157ZM14.0828 411.04C14.0828 385.216 35.0179 364.28 60.8426 364.28C86.6674 364.28 107.603 385.216 107.603 411.04C107.603 436.865 86.6674 457.8 60.8426 457.8C35.0179 457.8 14.0828 436.865 14.0828 411.04Z" fill="#120802"/>
<path d="M17.9591 411.04C17.9591 387.356 37.1587 368.157 60.8426 368.157C84.5266 368.157 103.726 387.356 103.726 411.04C103.726 434.724 84.5266 453.924 60.8426 453.924C37.1587 453.924 17.9591 434.724 17.9591 411.04Z" fill="#EE6123"/>
<path fill-rule="evenodd" clip-rule="evenodd" d="M213.909 418.229C213.909 475.427 175.841 523.178 127.337 523.178C78.8333 523.178 40.7645 475.427 40.7645 418.229C40.7645 361.03 78.8333 313.279 127.337 313.279C175.841 313.279 213.909 361.03 213.909 418.229ZM127.337 519.302C173.009 519.302 210.033 474.05 210.033 418.229C210.033 362.408 173.009 317.156 127.337 317.156C81.6652 317.156 44.6409 362.408 44.6409 418.229C44.6409 474.05 81.6652 519.302 127.337 519.302Z" fill="#120802"/>
<path d="M210.033 418.229C210.033 474.05 173.009 519.302 127.337 519.302C81.6652 519.302 44.6409 474.05 44.6409 418.229C44.6409 362.408 81.6652 317.156 127.337 317.156C173.009 317.156 210.033 362.408 210.033 418.229Z" fill="#EE6123"/>
<ellipse cx="127.113" cy="385.634" rx="56.0271" ry="68.4776" fill="#ECF1FE"/>
<path fill-rule="evenodd" clip-rule="evenodd" d="M115.217 390.789L115.218 390.789C179.788 409.304 243.483 389.137 266.419 345.494C267.114 344.171 267.772 342.826 268.392 341.46C269.244 342.722 270.074 343.99 270.882 345.266C289.742 375.022 296.661 408.465 287.559 440.207C267.099 511.558 173.433 547.305 78.3025 520.092L78.1523 520.049C30.5616 506.403 0.278854 466.405 10.514 430.71C20.7491 395.016 67.626 377.143 115.217 390.789ZM112.598 385.981L112.575 386.06C89.3035 380.153 66.2808 381.455 47.476 388.625C27.6709 396.176 12.3171 410.359 6.78781 429.642C1.25855 448.925 6.76375 469.089 19.5579 485.988C32.3512 502.885 52.5602 516.744 77.0838 523.776L77.2364 523.819C125.529 537.634 173.593 535.513 212.314 520.733C251.037 505.951 280.644 478.386 291.285 441.276C301.157 406.848 292.831 370.722 271.604 339.291L267.724 333.545L264.861 339.859C244.918 383.843 181.798 405.843 116.297 387.066C116.294 387.065 116.29 387.064 116.286 387.062L112.598 385.981Z" fill="#120802"/>
<path d="M115.217 390.789L115.218 390.789C179.788 409.304 243.483 389.137 266.419 345.494C267.114 344.171 267.772 342.826 268.392 341.46C269.244 342.722 270.074 343.99 270.882 345.266C289.742 375.022 296.661 408.465 287.559 440.207C267.099 511.558 173.433 547.305 78.3025 520.092L78.1523 520.049C30.5616 506.403 0.278854 466.405 10.514 430.71C20.7491 395.016 67.626 377.143 115.217 390.789Z" fill="#ECF1FE"/>
<path d="M229.445 508.659C203.222 494.061 186.976 456.955 191.324 415.585C192.101 408.192 193.493 401.069 195.419 394.306C171.013 399.572 143.197 398.812 115.218 390.789L115.217 390.789L115.217 390.789C67.626 377.143 20.749 395.016 10.5139 430.71C0.27872 466.405 30.5614 506.403 78.1522 520.05L78.2742 520.085C133.96 536.021 189.147 530.384 229.445 508.659Z" fill="#EE6123"/>
<path fill-rule="evenodd" clip-rule="evenodd" d="M27.8819 143.549C21.2023 143.269 15.5406 144.608 11.511 147.989C7.48146 151.37 5.17975 156.713 4.29593 163.34C3.41381 169.954 3.97759 177.631 5.47163 185.357C6.96313 193.069 9.36449 200.74 12.0905 207.31C14.8292 213.91 17.844 219.273 20.5077 222.448C25.7162 228.655 33.8922 231.567 43.1125 231.046C52.3331 230.525 62.4661 226.561 71.2538 219.187C80.0415 211.814 85.705 202.523 87.8192 193.533C89.9334 184.543 88.4852 175.986 83.2767 169.778C80.613 166.604 75.8548 162.704 69.8304 158.86C63.8338 155.035 56.6959 151.338 49.36 148.53C42.0115 145.717 34.5486 143.829 27.8819 143.549ZM71.9152 155.592C78.0894 159.531 83.2194 163.68 86.2462 167.287C92.4189 174.643 93.9164 184.539 91.5927 194.42C89.269 204.301 83.111 214.298 73.7455 222.157C64.38 230.015 53.4652 234.344 43.3312 234.917C33.1967 235.489 23.7109 232.296 17.5382 224.94C14.5114 221.332 11.317 215.56 8.51017 208.796C5.69071 202.001 3.21024 194.079 1.66579 186.093C0.123888 178.12 -0.502387 169.995 0.453583 162.827C1.40785 155.672 3.97235 149.254 9.01936 145.019C14.0664 140.784 20.8324 139.373 28.0444 139.676C35.2693 139.979 43.1619 142.007 50.7457 144.91C58.3421 147.817 65.7132 151.636 71.9152 155.592Z" fill="#120802"/>
<path d="M11.511 147.989C15.5406 144.608 21.2023 143.269 27.8819 143.549C34.5486 143.829 42.0115 145.717 49.36 148.53C56.6959 151.338 63.8338 155.035 69.8304 158.86C75.8548 162.704 80.613 166.604 83.2767 169.778C88.4852 175.986 89.9334 184.543 87.8192 193.533C85.705 202.523 80.0415 211.814 71.2538 219.187C62.4661 226.561 52.3331 230.525 43.1125 231.046C33.8922 231.567 25.7162 228.655 20.5077 222.448C17.844 219.273 14.8292 213.91 12.0905 207.31C9.36449 200.74 6.96313 193.069 5.47163 185.357C3.97759 177.631 3.41381 169.954 4.29593 163.34C5.17975 156.713 7.48146 151.37 11.511 147.989Z" fill="#EE6123"/>
<path d="M68.585 177.649C75.0615 185.367 71.9375 198.651 61.6074 207.319C51.2773 215.987 37.6529 216.757 31.1764 209.038C24.6999 201.32 15.8627 173.781 26.1928 165.113C36.5229 156.445 62.1085 169.93 68.585 177.649Z" fill="#ECF1FE"/>
<path d="M68.585 177.649C75.0615 185.367 71.9375 198.651 61.6074 207.319C51.2773 215.987 37.6529 216.757 31.1764 209.038C24.6999 201.32 15.8627 173.781 26.1928 165.113C36.5229 156.445 62.1085 169.93 68.585 177.649Z" fill="#ECF1FE"/>
<path fill-rule="evenodd" clip-rule="evenodd" d="M184.87 158.86C178.845 162.704 174.087 166.604 171.423 169.778C166.215 175.986 164.767 184.543 166.881 193.533C168.995 202.523 174.659 211.814 183.446 219.187C192.234 226.561 202.367 230.525 211.588 231.046C220.808 231.567 228.984 228.655 234.192 222.448C236.856 219.273 239.871 213.91 242.61 207.31C245.336 200.74 247.737 193.069 249.228 185.357C250.722 177.631 251.286 169.954 250.404 163.34C249.52 156.713 247.219 151.37 243.189 147.989C239.159 144.608 233.498 143.269 226.818 143.549C220.151 143.829 212.689 145.717 205.34 148.53C198.004 151.338 190.866 155.035 184.87 158.86ZM226.656 139.676C233.868 139.373 240.634 140.784 245.681 145.019C250.728 149.254 253.292 155.672 254.246 162.827C255.202 169.995 254.576 178.12 253.034 186.093C251.49 194.079 249.009 202.001 246.19 208.796C243.383 215.56 240.189 221.332 237.162 224.94C230.989 232.296 221.503 235.489 211.369 234.917C201.235 234.344 190.32 230.015 180.955 222.157C171.589 214.298 165.431 204.301 163.107 194.42C160.784 184.539 162.281 174.643 168.454 167.287C171.481 163.68 176.611 159.531 182.785 155.592C188.987 151.636 196.358 147.817 203.954 144.91C211.538 142.007 219.431 139.979 226.656 139.676Z" fill="#120802"/>
<path d="M171.423 169.778C174.087 166.604 178.845 162.704 184.87 158.86C190.866 155.035 198.004 151.338 205.34 148.53C212.689 145.717 220.151 143.829 226.818 143.549C233.498 143.269 239.159 144.608 243.189 147.989C247.219 151.37 249.52 156.713 250.404 163.34C251.286 169.954 250.722 177.631 249.228 185.357C247.737 193.069 245.336 200.74 242.61 207.31C239.871 213.91 236.856 219.273 234.192 222.448C228.984 228.655 220.808 231.567 211.588 231.046C202.367 230.525 192.234 226.561 183.446 219.187C174.659 211.814 168.995 202.523 166.881 193.533C164.767 184.543 166.215 175.986 171.423 169.778Z" fill="#EE6123"/>
<path d="M223.89 209.346C217.414 217.064 203.79 216.294 193.459 207.626C183.129 198.958 180.005 185.675 186.482 177.956C192.958 170.238 218.544 156.753 228.874 165.421C239.204 174.089 230.367 201.627 223.89 209.346Z" fill="#ECF1FE"/>
<path d="M223.89 209.346C217.414 217.064 203.79 216.294 193.459 207.626C183.129 198.958 180.005 185.675 186.482 177.956C192.958 170.238 218.544 156.753 228.874 165.421C239.204 174.089 230.367 201.627 223.89 209.346Z" fill="#ECF1FE"/>
<path fill-rule="evenodd" clip-rule="evenodd" d="M197.319 333.709C179.464 345.689 154.711 355.969 127.239 355.969C99.7672 355.969 75.0142 345.689 57.1593 333.709C48.2244 327.714 40.9149 321.225 35.7918 315.253C33.2324 312.269 31.1631 309.349 29.7144 306.623C28.3012 303.965 27.3094 301.177 27.3094 298.543C27.3094 292.953 31.5958 288.66 36.7042 285.52C42.0309 282.245 49.4809 279.436 58.3437 277.132C76.1273 272.508 100.484 269.693 127.239 269.693C153.994 269.693 178.351 272.508 196.134 277.132C204.997 279.436 212.447 282.245 217.774 285.52C222.882 288.66 227.169 292.953 227.169 298.543C227.169 301.177 226.177 303.965 224.764 306.623C223.315 309.349 221.246 312.269 218.686 315.253C213.563 321.225 206.254 327.714 197.319 333.709ZM127.239 352.093C180.288 352.093 223.292 312.336 223.292 298.543C223.292 284.75 180.288 273.569 127.239 273.569C74.1903 273.569 31.1858 284.75 31.1858 298.543C31.1858 312.336 74.1903 352.093 127.239 352.093Z" fill="#120802"/>
<path d="M223.292 298.543C223.292 312.336 180.288 352.093 127.239 352.093C74.1903 352.093 31.1858 312.336 31.1858 298.543C31.1858 284.75 74.1903 273.569 127.239 273.569C180.288 273.569 223.292 284.75 223.292 298.543Z" fill="#ECF1FE"/>
<path fill-rule="evenodd" clip-rule="evenodd" d="M251.073 303.524L244.951 298.873C243.654 297.888 241.466 296.807 238.328 295.703C238.887 300.726 239.175 305.842 239.175 311.03C239.175 311.568 239.172 312.104 239.166 312.64L239.072 320.86L232.79 315.558C230.934 313.992 226.952 312.159 220.585 310.369C214.373 308.623 206.373 307.043 196.939 305.716C178.083 303.064 153.792 301.459 127.239 301.459C100.686 301.459 76.3949 303.064 57.5392 305.716C48.1055 307.043 40.1046 308.623 33.8934 310.369C27.5256 312.159 23.5443 313.992 21.6885 315.558L15.4066 320.86L15.3121 312.64C15.3059 312.104 15.3028 311.568 15.3028 311.03C15.3028 305.842 15.5908 300.726 16.1503 295.703C13.0119 296.807 10.824 297.888 9.52737 298.873L3.40474 303.524L3.30646 295.836C3.29959 295.298 3.29614 294.76 3.29614 294.221C3.29614 225.769 58.7873 170.278 127.239 170.278C195.691 170.278 251.182 225.769 251.182 294.221C251.182 294.76 251.178 295.298 251.172 295.836L251.073 303.524ZM16.6943 291.432C17.9688 291.025 19.3368 290.625 20.7941 290.234C20.5761 291.622 20.3796 293.017 20.2048 294.42C19.656 298.827 19.3224 303.31 19.2162 307.856C19.1916 308.911 19.1792 309.969 19.1792 311.03C19.1792 311.553 19.1822 312.075 19.1882 312.596C19.8166 312.065 20.5769 311.543 21.463 311.03C21.9562 310.744 22.4883 310.462 23.0583 310.182C38.0008 302.848 79.0012 297.582 127.239 297.582C175.477 297.582 216.477 302.848 231.42 310.182C231.99 310.462 232.522 310.744 233.015 311.03C233.901 311.543 234.661 312.065 235.29 312.596C235.296 312.075 235.299 311.553 235.299 311.03C235.299 309.969 235.287 308.911 235.262 307.856C235.156 303.31 234.822 298.827 234.273 294.42C234.099 293.017 233.902 291.622 233.684 290.234C235.141 290.625 236.509 291.025 237.784 291.432C239.939 292.121 241.827 292.834 243.427 293.567C243.899 293.783 244.346 294.001 244.768 294.221C245.752 294.734 246.597 295.256 247.296 295.787C247.302 295.265 247.306 294.743 247.306 294.221C247.306 293.199 247.293 292.181 247.267 291.166C245.647 226.267 192.529 174.154 127.239 174.154C61.9492 174.154 8.83104 226.267 7.2106 291.166C7.18526 292.181 7.17251 293.199 7.17251 294.221C7.17251 294.743 7.17585 295.265 7.18251 295.787C7.88081 295.256 8.72564 294.734 9.71027 294.221C10.1316 294.001 10.5786 293.783 11.0507 293.567C12.6507 292.834 14.5387 292.121 16.6943 291.432Z" fill="#120802"/>
<path d="M16.6943 291.432C17.9688 291.025 19.3368 290.625 20.7941 290.234C20.5761 291.622 20.3796 293.017 20.2048 294.42C19.656 298.827 19.3224 303.31 19.2162 307.856C19.1916 308.911 19.1792 309.969 19.1792 311.03C19.1792 311.553 19.1822 312.075 19.1882 312.596C19.8166 312.065 20.5769 311.543 21.463 311.03C21.9562 310.744 22.4883 310.462 23.0583 310.182C38.0008 302.848 79.0012 297.582 127.239 297.582C175.477 297.582 216.477 302.848 231.42 310.182C231.99 310.462 232.522 310.744 233.015 311.03C233.901 311.543 234.661 312.065 235.29 312.596C235.296 312.075 235.299 311.553 235.299 311.03C235.299 309.969 235.287 308.911 235.262 307.856C235.156 303.31 234.822 298.827 234.273 294.42C234.099 293.017 233.902 291.622 233.684 290.234C235.141 290.625 236.509 291.025 237.784 291.432C239.939 292.121 241.827 292.834 243.427 293.567C243.899 293.783 244.346 294.001 244.768 294.221C245.752 294.734 246.597 295.256 247.296 295.787C247.302 295.265 247.306 294.743 247.306 294.221C247.306 293.199 247.293 292.181 247.267 291.166C245.647 226.267 192.529 174.154 127.239 174.154C61.9492 174.154 8.83104 226.267 7.2106 291.166C7.18526 292.181 7.17251 293.199 7.17251 294.221C7.17251 294.743 7.17585 295.265 7.18251 295.787C7.88081 295.256 8.72564 294.734 9.71027 294.221C10.1316 294.001 10.5786 293.783 11.0507 293.567C12.6507 292.834 14.5387 292.121 16.6943 291.432Z" fill="#EE6123"/>
<path fill-rule="evenodd" clip-rule="evenodd" d="M56.396 262.28C74.4443 268.849 88.1021 280.458 93.5567 292.358C97.7845 287.053 111.264 283.175 127.239 283.175C142.984 283.175 156.304 286.942 160.733 292.129C166.258 280.311 179.855 268.812 197.785 262.286C214.276 256.284 230.663 255.861 242.391 260.112C245.589 270.924 247.305 282.372 247.305 294.221C247.305 294.743 247.302 295.265 247.295 295.787C244.686 293.805 240.032 291.936 233.684 290.235C234.745 296.989 235.299 303.938 235.299 311.03C235.299 311.553 235.296 312.075 235.29 312.596C232.604 310.329 227.508 308.21 220.477 306.319C210.107 323.412 172.296 352.093 127.239 352.093C82.1817 352.093 44.3705 323.412 34.0009 306.319C26.9696 308.21 21.8743 310.329 19.1882 312.596C19.1822 312.075 19.1792 311.553 19.1792 311.03C19.1792 303.938 19.7326 296.989 20.7941 290.235C14.4456 291.936 9.79125 293.805 7.18237 295.787C7.17571 295.266 7.17236 294.744 7.17236 294.221C7.17236 282.326 8.90201 270.835 12.1235 259.986C23.8275 255.863 40.061 256.334 56.396 262.28Z" fill="#ECF1FE"/>
<path d="M146.45 296.814C146.45 299.573 137.849 307.524 127.239 307.524C116.629 307.524 108.028 299.573 108.028 296.814C108.028 294.056 116.629 291.819 127.239 291.819C137.849 291.819 146.45 294.056 146.45 296.814Z" fill="#120802"/>
<ellipse cx="97.9612" cy="263.243" rx="11.5449" ry="18.01" fill="#120802"/>
<ellipse cx="101.791" cy="257" rx="3.84829" ry="6.00332" fill="#ECF1FE"/>
<ellipse cx="156.554" cy="263.243" rx="11.5449" ry="18.01" fill="#120802"/>
<ellipse cx="160.383" cy="257" rx="3.84829" ry="6.00332" fill="#ECF1FE"/>
<path d="M83.0544 227.944L85.987 226.988C93.6599 224.486 101.922 224.441 109.622 226.86L113.071 227.944" stroke="#120802" stroke-width="5"/>
<path d="M141.647 227.944L144.58 226.988C152.252 224.486 160.515 224.441 168.214 226.86L171.664 227.944" stroke="#120802" stroke-width="5"/>
<path fill-rule="evenodd" clip-rule="evenodd" d="M155.835 318.943C152.217 321.58 147.759 323.138 142.937 323.138C136.813 323.138 131.275 320.624 127.3 316.578C123.325 320.624 117.787 323.138 111.663 323.138C106.841 323.138 102.383 321.58 98.7645 318.943C99.1113 320.21 99.7125 321.776 100.604 323.556C102.096 326.535 104.274 329.861 106.975 332.964C112.448 339.253 119.669 344.195 127.3 344.195C134.931 344.195 142.152 339.253 147.625 332.964C150.326 329.861 152.504 326.535 153.996 323.556C154.887 321.776 155.488 320.21 155.835 318.943ZM156.072 315.696C152.602 318.846 147.994 320.766 142.937 320.766C137.415 320.766 132.428 318.476 128.873 314.794C128.312 314.212 127.786 313.596 127.3 312.949C126.814 313.596 126.288 314.212 125.727 314.794C122.172 318.476 117.185 320.766 111.663 320.766C106.606 320.766 101.998 318.846 98.5281 315.695C97.8796 315.107 97.2709 314.475 96.7063 313.805C96.2793 314.701 96.046 315.629 96.0267 316.58C96.0258 316.623 96.0254 316.665 96.0254 316.708C96.0254 324.399 110.027 346.567 127.3 346.567C144.572 346.567 158.574 324.399 158.574 316.708C158.574 316.666 158.574 316.623 158.573 316.58C158.554 315.629 158.321 314.701 157.894 313.805C157.329 314.475 156.72 315.107 156.072 315.696Z" fill="#120802"/>
<path d="M142.937 323.138C147.759 323.138 152.217 321.58 155.835 318.943C155.488 320.21 154.887 321.776 153.996 323.556C152.504 326.535 150.326 329.861 147.625 332.964C142.152 339.253 134.931 344.195 127.3 344.195C119.669 344.195 112.448 339.253 106.975 332.964C104.274 329.861 102.096 326.535 100.604 323.556C99.7125 321.776 99.1113 320.21 98.7645 318.943C102.383 321.58 106.841 323.138 111.663 323.138C117.787 323.138 123.325 320.624 127.3 316.578C131.275 320.624 136.813 323.138 142.937 323.138Z" fill="#120802"/>
<path d="M144.076 336.486C139.201 332.439 133.397 329.555 127.168 329.555C120.938 329.555 115.134 332.439 110.259 336.486C115.168 341.003 121.036 344.195 127.168 344.195C133.3 344.195 139.168 341.003 144.076 336.486Z" fill="#FB9197"/>
<path fill-rule="evenodd" clip-rule="evenodd" d="M20.8203 197.957L24.0071 192.621C45.1613 157.199 83.8862 133.465 128.158 133.465C172.43 133.465 211.155 157.199 232.309 192.621L235.496 197.957H20.8203ZM229.281 194.43C228.57 193.24 227.84 192.064 227.089 190.902C206.13 158.464 169.652 136.992 128.158 136.992C86.6648 136.992 50.1864 158.464 29.2275 190.902C28.4768 192.064 27.746 193.24 27.0355 194.43H229.281Z" fill="#120802"/>
<path d="M227.089 190.902C227.84 192.064 228.57 193.24 229.281 194.43H27.0355C27.746 193.24 28.4768 192.064 29.2275 190.902C50.1864 158.464 86.6648 136.992 128.158 136.992C169.652 136.992 206.13 158.464 227.089 190.902Z" fill="#8E7DBE"/>
<path fill-rule="evenodd" clip-rule="evenodd" d="M4.63189 251.063C5.19688 231.482 10.3187 213.036 18.9754 196.755C20.947 193.047 24.812 190.903 28.8603 190.903H227.46C231.508 190.903 235.373 193.047 237.345 196.755C245.333 211.778 250.311 228.646 251.476 246.549C251.903 253.1 246.55 258.22 240.294 258.22L11.6345 258.22C7.76533 258.22 4.51645 255.064 4.63189 251.063ZM22.09 198.411C23.4141 195.921 26.0399 194.43 28.8603 194.43H227.46C230.28 194.43 232.906 195.921 234.23 198.411C241.989 213.003 246.825 229.386 247.956 246.778C248.24 251.143 244.668 254.692 240.294 254.692L11.6345 254.692C9.68631 254.692 8.10167 253.112 8.15785 251.165C8.70681 232.14 13.6821 214.224 22.09 198.411Z" fill="#120802"/>
<path d="M28.8603 194.43C26.0399 194.43 23.4141 195.921 22.09 198.411C13.6821 214.224 8.70681 232.14 8.15785 251.165C8.10167 253.112 9.68631 254.692 11.6345 254.692L240.294 254.692C244.668 254.692 248.24 251.143 247.956 246.778C246.825 229.386 241.989 213.003 234.23 198.411C232.906 195.921 230.28 194.43 227.46 194.43H28.8603Z" fill="#8E7DBE"/>
<path fill-rule="evenodd" clip-rule="evenodd" d="M168.889 185.724H218.317V213.966H168.889V185.724ZM172.416 189.251V210.438H214.79V189.251H172.416Z" fill="#120802"/>
<path d="M172.416 189.251H214.79V210.438H172.416V189.251Z" fill="#120802"/>
<path fill-rule="evenodd" clip-rule="evenodd" d="M205.334 198.822V192.939L212.989 200.599C213.395 201.005 214.052 201.005 214.458 200.599L214.531 200.526C214.937 200.12 214.937 199.462 214.531 199.056L204.984 189.503C204.63 189.148 204.082 189.103 203.679 189.37C203.621 189.408 203.566 189.452 203.516 189.503L203.442 189.576L203.441 189.578L193.969 199.056C193.811 199.213 193.715 199.409 193.68 199.613C193.66 199.692 193.65 199.776 193.65 199.862V199.966C193.65 200.54 194.115 201.005 194.688 201.005H201.494L193.969 208.535C193.563 208.941 193.563 209.599 193.969 210.005L194.042 210.079C194.448 210.484 195.105 210.484 195.511 210.079L203.153 202.432V209.345C203.153 209.919 203.618 210.384 204.191 210.384H204.295C204.869 210.384 205.334 209.919 205.334 209.345V201.005H209.124C209.698 201.005 210.163 200.54 210.163 199.966V199.862C210.163 199.288 209.698 198.822 209.124 198.822H205.334ZM197.286 198.822H203.153V192.952L197.286 198.822Z" fill="#8E7DBE"/>
<path fill-rule="evenodd" clip-rule="evenodd" d="M191.474 190.237C191.474 189.663 191.939 189.198 192.513 189.198H192.616C193.19 189.198 193.654 189.663 193.654 190.237V200.181L193.671 200.197L193.654 200.213V209.346C193.654 209.919 193.19 210.384 192.616 210.384H192.513C191.939 210.384 191.474 209.919 191.474 209.346V202.394L183.8 210.072C183.394 210.478 182.737 210.478 182.332 210.072L172.789 200.526C172.738 200.475 172.694 200.42 172.656 200.363C172.542 200.189 172.485 199.989 172.485 199.789C172.485 199.723 172.492 199.657 172.504 199.593C172.542 199.396 172.637 199.209 172.789 199.057L182.332 189.51C182.737 189.105 183.394 189.105 183.8 189.51L183.873 189.584C184.022 189.733 184.116 189.915 184.156 190.107V198.701H191.474V190.237ZM181.976 198.701H178.602C178.029 198.701 177.564 199.166 177.564 199.739V199.843C177.564 200.417 178.029 200.882 178.602 200.882H181.976V206.745L175.081 199.848L181.976 192.951V198.701ZM184.156 206.632V200.882H189.904L184.156 206.632Z" fill="#8E7DBE"/>
<path fill-rule="evenodd" clip-rule="evenodd" d="M489.157 164.931C512.841 164.931 532.041 145.731 532.041 122.048C532.041 98.3636 512.841 79.164 489.157 79.164C465.473 79.164 446.274 98.3636 446.274 122.048C446.274 145.731 465.473 164.931 489.157 164.931ZM535.917 122.048C535.917 147.872 514.982 168.807 489.157 168.807C463.333 168.807 442.397 147.872 442.397 122.048C442.397 96.2228 463.333 75.2877 489.157 75.2877C514.982 75.2877 535.917 96.2228 535.917 122.048Z" fill="#120802"/>
<path d="M532.041 122.048C532.041 145.731 512.841 164.931 489.157 164.931C465.473 164.931 446.274 145.731 446.274 122.048C446.274 98.3636 465.473 79.164 489.157 79.164C512.841 79.164 532.041 98.3636 532.041 122.048Z" fill="#EE6123"/>
<path fill-rule="evenodd" clip-rule="evenodd" d="M336.091 114.859C336.091 57.6607 374.159 9.90975 422.663 9.90975C471.167 9.90975 509.236 57.6607 509.236 114.859C509.236 172.057 471.167 219.808 422.663 219.808C374.159 219.808 336.091 172.057 336.091 114.859ZM422.663 13.7861C376.991 13.7861 339.967 59.038 339.967 114.859C339.967 170.68 376.991 215.932 422.663 215.932C468.335 215.932 505.359 170.68 505.359 114.859C505.359 59.038 468.335 13.7861 422.663 13.7861Z" fill="#120802"/>
<path d="M339.967 114.859C339.967 59.038 376.991 13.7861 422.663 13.7861C468.335 13.7861 505.359 59.038 505.359 114.859C505.359 170.68 468.335 215.932 422.663 215.932C376.991 215.932 339.967 170.68 339.967 114.859Z" fill="#EE6123"/>
<ellipse cx="422.887" cy="147.454" rx="56.0271" ry="68.4776" transform="rotate(-180 422.887 147.454)" fill="#ECF1FE"/>
<path fill-rule="evenodd" clip-rule="evenodd" d="M434.783 142.299L434.782 142.299C370.212 123.784 306.517 143.951 283.581 187.594C282.886 188.917 282.228 190.262 281.608 191.628C280.756 190.366 279.926 189.098 279.118 187.822C260.258 158.066 253.339 124.622 262.441 92.8806C282.901 21.5295 376.567 -14.217 471.697 12.9953L471.848 13.0383C519.438 26.6847 549.721 66.6833 539.486 102.378C529.251 138.072 482.374 155.945 434.783 142.299ZM437.402 147.107L437.425 147.028C460.696 152.935 483.719 151.633 502.524 144.463C522.329 136.911 537.683 122.729 543.212 103.446C548.741 84.1631 543.236 63.9992 530.442 47.1001C517.649 30.2023 497.44 16.3441 472.916 9.31208L472.764 9.26843C424.471 -4.546 376.407 -2.42551 337.686 12.3552C298.963 27.1364 269.356 54.7016 258.715 91.8121C248.843 126.24 257.169 162.366 278.396 193.797L282.276 199.542L285.139 193.229C305.082 149.244 368.202 127.245 433.703 146.022C433.706 146.023 433.71 146.024 433.714 146.025L437.402 147.107Z" fill="#120802"/>
<path d="M434.783 142.299L434.782 142.299C370.212 123.784 306.517 143.951 283.581 187.594C282.886 188.917 282.228 190.262 281.608 191.628C280.756 190.366 279.926 189.098 279.118 187.822C260.258 158.066 253.339 124.622 262.441 92.8806C282.901 21.5295 376.567 -14.217 471.697 12.9953L471.848 13.0383C519.438 26.6847 549.721 66.6833 539.486 102.378C529.251 138.072 482.374 155.945 434.783 142.299Z" fill="#ECF1FE"/>
<path d="M320.555 24.429C346.778 39.0272 363.024 76.1329 358.676 117.503C357.899 124.896 356.507 132.019 354.581 138.782C378.987 133.516 406.803 134.276 434.782 142.299L434.783 142.299L434.783 142.299C482.374 155.945 529.251 138.072 539.486 102.377C549.721 66.6831 519.439 26.6846 471.848 13.0381L471.726 13.0032C416.04 -2.93326 360.853 2.70421 320.555 24.429Z" fill="#EE6123"/>
<path fill-rule="evenodd" clip-rule="evenodd" d="M522.118 389.539C528.798 389.819 534.459 388.48 538.489 385.099C542.519 381.718 544.82 376.375 545.704 369.748C546.586 363.134 546.022 355.456 544.528 347.731C543.037 340.019 540.636 332.348 537.909 325.778C535.171 319.178 532.156 313.814 529.492 310.64C524.284 304.433 516.108 301.521 506.888 302.041C497.667 302.562 487.534 306.527 478.746 313.9C469.958 321.274 464.295 330.565 462.181 339.555C460.067 348.545 461.515 357.102 466.723 363.309C469.387 366.484 474.145 370.384 480.17 374.227C486.166 378.053 493.304 381.75 500.64 384.558C507.988 387.371 515.451 389.259 522.118 389.539ZM478.085 377.495C471.911 373.557 466.781 369.408 463.754 365.801C457.581 358.445 456.084 348.549 458.407 338.668C460.731 328.787 466.889 318.789 476.254 310.931C485.62 303.072 496.535 298.744 506.669 298.171C516.803 297.599 526.289 300.792 532.462 308.148C535.489 311.755 538.683 317.528 541.49 324.292C544.309 331.087 546.79 339.009 548.334 346.995C549.876 354.968 550.502 363.093 549.546 370.26C548.592 377.415 546.028 383.834 540.981 388.069C535.934 392.303 529.168 393.714 521.956 393.412C514.731 393.109 506.838 391.081 499.254 388.178C491.658 385.27 484.287 381.452 478.085 377.495Z" fill="#120802"/>
<path d="M538.489 385.099C534.459 388.48 528.798 389.819 522.118 389.539C515.451 389.259 507.988 387.371 500.64 384.558C493.304 381.75 486.166 378.053 480.17 374.227C474.145 370.384 469.387 366.484 466.723 363.309C461.515 357.102 460.067 348.545 462.181 339.555C464.295 330.565 469.958 321.274 478.746 313.9C487.534 306.527 497.667 302.562 506.888 302.041C516.108 301.521 524.284 304.433 529.492 310.64C532.156 313.814 535.171 319.178 537.909 325.778C540.636 332.348 543.037 340.019 544.528 347.731C546.022 355.456 546.586 363.134 545.704 369.748C544.82 376.375 542.519 381.718 538.489 385.099Z" fill="#EE6123"/>
<path d="M481.415 355.439C474.939 347.721 478.063 334.437 488.393 325.769C498.723 317.101 512.347 316.331 518.824 324.05C525.3 331.768 534.137 359.306 523.807 367.974C513.477 376.642 487.892 363.157 481.415 355.439Z" fill="#ECF1FE"/>
<path d="M481.415 355.439C474.939 347.721 478.063 334.437 488.393 325.769C498.723 317.101 512.347 316.331 518.824 324.05C525.3 331.768 534.137 359.306 523.807 367.974C513.477 376.642 487.892 363.157 481.415 355.439Z" fill="#ECF1FE"/>
<path fill-rule="evenodd" clip-rule="evenodd" d="M365.13 374.227C371.155 370.384 375.913 366.484 378.577 363.309C383.785 357.102 385.233 348.545 383.119 339.555C381.005 330.565 375.342 321.274 366.554 313.9C357.766 306.527 347.633 302.562 338.413 302.041C329.192 301.52 321.016 304.433 315.808 310.64C313.144 313.814 310.129 319.178 307.391 325.778C304.665 332.348 302.263 340.019 300.772 347.731C299.278 355.456 298.714 363.134 299.596 369.748C300.48 376.375 302.782 381.718 306.811 385.099C310.841 388.48 316.502 389.819 323.182 389.539C329.849 389.259 337.312 387.371 344.66 384.558C351.996 381.75 359.134 378.053 365.13 374.227ZM323.344 393.412C316.132 393.714 309.366 392.303 304.319 388.068C299.272 383.834 296.708 377.415 295.754 370.26C294.798 363.093 295.424 354.968 296.966 346.995C298.51 339.009 300.991 331.087 303.81 324.292C306.617 317.528 309.811 311.755 312.838 308.148C319.011 300.792 328.497 297.599 338.631 298.171C348.765 298.744 359.68 303.072 369.046 310.931C378.411 318.789 384.569 328.787 386.893 338.667C389.216 348.549 387.719 358.445 381.546 365.801C378.519 369.408 373.389 373.556 367.215 377.495C361.013 381.452 353.642 385.27 346.046 388.178C338.462 391.081 330.569 393.109 323.344 393.412Z" fill="#120802"/>
<path d="M378.577 363.309C375.913 366.484 371.155 370.384 365.13 374.227C359.134 378.053 351.996 381.75 344.66 384.558C337.312 387.371 329.849 389.259 323.182 389.539C316.502 389.819 310.841 388.48 306.811 385.099C302.782 381.718 300.48 376.375 299.596 369.748C298.714 363.134 299.278 355.456 300.772 347.731C302.263 340.019 304.665 332.348 307.391 325.778C310.129 319.178 313.144 313.814 315.808 310.64C321.016 304.433 329.192 301.52 338.413 302.041C347.633 302.562 357.766 306.527 366.554 313.9C375.342 321.274 381.005 330.565 383.119 339.555C385.233 348.545 383.785 357.102 378.577 363.309Z" fill="#EE6123"/>
<path d="M326.11 323.742C332.586 316.024 346.21 316.793 356.541 325.461C366.871 334.129 369.995 347.413 363.518 355.131C357.042 362.85 331.456 376.335 321.126 367.667C310.796 358.999 319.633 331.46 326.11 323.742Z" fill="#ECF1FE"/>
<path d="M326.11 323.742C332.586 316.024 346.21 316.793 356.541 325.461C366.871 334.129 369.995 347.413 363.518 355.131C357.042 362.85 331.456 376.335 321.126 367.667C310.796 358.999 319.633 331.46 326.11 323.742Z" fill="#ECF1FE"/>
<path fill-rule="evenodd" clip-rule="evenodd" d="M352.681 199.379C370.536 187.398 395.289 177.119 422.761 177.119C450.233 177.119 474.986 187.398 492.841 199.379C501.776 205.374 509.085 211.862 514.208 217.835C516.768 220.819 518.837 223.739 520.286 226.464C521.699 229.123 522.691 231.91 522.691 234.545C522.691 240.135 518.404 244.428 513.296 247.568C507.969 250.842 500.519 253.651 491.656 255.956C473.873 260.579 449.516 263.395 422.761 263.395C396.006 263.395 371.649 260.579 353.866 255.956C345.003 253.651 337.553 250.842 332.226 247.568C327.118 244.428 322.831 240.135 322.831 234.545C322.831 231.91 323.823 229.123 325.236 226.464C326.685 223.739 328.754 220.819 331.314 217.835C336.437 211.862 343.746 205.374 352.681 199.379ZM422.761 180.995C369.712 180.995 326.708 220.752 326.708 234.545C326.708 248.337 369.712 259.519 422.761 259.519C475.81 259.519 518.814 248.337 518.814 234.545C518.814 220.752 475.81 180.995 422.761 180.995Z" fill="#120802"/>
<path d="M326.708 234.545C326.708 220.752 369.712 180.995 422.761 180.995C475.81 180.995 518.814 220.752 518.814 234.545C518.814 248.337 475.81 259.519 422.761 259.519C369.712 259.519 326.708 248.337 326.708 234.545Z" fill="#ECF1FE"/>
<path fill-rule="evenodd" clip-rule="evenodd" d="M298.927 229.564L305.049 234.214C306.346 235.199 308.534 236.28 311.672 237.385C311.113 232.361 310.825 227.246 310.825 222.058C310.825 221.52 310.828 220.983 310.834 220.447L310.928 212.227L317.21 217.53C319.066 219.096 323.048 220.929 329.415 222.719C335.627 224.465 343.628 226.044 353.061 227.372C371.917 230.024 396.208 231.629 422.761 231.629C449.314 231.629 473.605 230.024 492.461 227.372C501.895 226.044 509.896 224.465 516.107 222.719C522.474 220.929 526.456 219.096 528.312 217.53L534.593 212.227L534.688 220.447C534.694 220.983 534.697 221.52 534.697 222.058C534.697 227.246 534.409 232.361 533.85 237.385C536.988 236.28 539.176 235.199 540.473 234.214L546.595 229.563L546.694 237.252C546.701 237.789 546.704 238.328 546.704 238.867C546.704 307.319 491.213 362.81 422.761 362.81C354.309 362.81 298.818 307.319 298.818 238.867C298.818 238.328 298.822 237.789 298.829 237.252L298.927 229.564ZM533.306 241.656C532.031 242.063 530.663 242.463 529.206 242.853C529.424 241.466 529.621 240.071 529.795 238.668C530.344 234.261 530.678 229.778 530.784 225.232C530.809 224.177 530.821 223.119 530.821 222.058C530.821 221.535 530.818 221.013 530.812 220.492C530.184 221.022 529.423 221.545 528.537 222.058C528.044 222.343 527.512 222.626 526.942 222.906C511.999 230.239 470.999 235.505 422.761 235.505C374.523 235.505 333.523 230.239 318.58 222.906C318.01 222.626 317.478 222.343 316.985 222.058C316.099 221.545 315.339 221.022 314.71 220.492C314.704 221.013 314.701 221.535 314.701 222.058C314.701 223.119 314.714 224.177 314.738 225.232C314.844 229.778 315.178 234.261 315.727 238.668C315.902 240.071 316.098 241.466 316.316 242.853C314.859 242.463 313.491 242.063 312.216 241.656C310.061 240.966 308.173 240.254 306.573 239.521C306.101 239.305 305.654 239.087 305.232 238.867C304.248 238.354 303.403 237.832 302.705 237.301C302.698 237.822 302.695 238.344 302.695 238.867C302.695 239.888 302.707 240.906 302.733 241.921C304.353 306.821 357.471 358.934 422.761 358.934C488.051 358.934 541.169 306.821 542.79 241.921C542.815 240.906 542.828 239.888 542.828 238.867C542.828 238.344 542.824 237.822 542.818 237.301C542.119 237.832 541.274 238.354 540.29 238.867C539.868 239.087 539.421 239.305 538.949 239.521C537.349 240.254 535.461 240.966 533.306 241.656Z" fill="#120802"/>
<path d="M533.306 241.656C532.031 242.063 530.663 242.463 529.206 242.853C529.424 241.466 529.621 240.071 529.795 238.668C530.344 234.261 530.678 229.778 530.784 225.232C530.809 224.177 530.821 223.119 530.821 222.058C530.821 221.535 530.818 221.013 530.812 220.492C530.184 221.022 529.423 221.545 528.537 222.058C528.044 222.343 527.512 222.626 526.942 222.906C511.999 230.239 470.999 235.505 422.761 235.505C374.523 235.505 333.523 230.239 318.58 222.906C318.01 222.626 317.478 222.343 316.985 222.058C316.099 221.545 315.339 221.022 314.71 220.492C314.704 221.013 314.701 221.535 314.701 222.058C314.701 223.119 314.714 224.177 314.738 225.232C314.844 229.778 315.178 234.261 315.727 238.668C315.902 240.071 316.098 241.466 316.316 242.853C314.859 242.463 313.491 242.063 312.216 241.656C310.061 240.966 308.173 240.254 306.573 239.521C306.101 239.305 305.654 239.087 305.232 238.867C304.248 238.354 303.403 237.832 302.705 237.301C302.698 237.822 302.695 238.344 302.695 238.867C302.695 239.888 302.707 240.906 302.733 241.921C304.353 306.821 357.471 358.934 422.761 358.934C488.051 358.934 541.169 306.821 542.79 241.921C542.815 240.906 542.828 239.888 542.828 238.867C542.828 238.344 542.824 237.822 542.818 237.301C542.119 237.832 541.274 238.354 540.29 238.867C539.868 239.087 539.421 239.305 538.949 239.521C537.349 240.254 535.461 240.966 533.306 241.656Z" fill="#EE6123"/>
<path fill-rule="evenodd" clip-rule="evenodd" d="M493.604 270.808C475.556 264.239 461.898 252.63 456.443 240.73C452.215 246.035 438.736 249.913 422.761 249.913C407.016 249.913 393.696 246.146 389.267 240.958C383.742 252.777 370.145 264.276 352.215 270.802C335.724 276.804 319.336 277.227 307.608 272.976C304.411 262.164 302.694 250.716 302.694 238.867C302.694 238.344 302.698 237.822 302.704 237.301C305.313 239.283 309.968 241.152 316.316 242.853C315.255 236.099 314.701 229.15 314.701 222.058C314.701 221.535 314.704 221.013 314.71 220.492C317.396 222.759 322.492 224.878 329.523 226.769C339.893 209.676 377.704 180.995 422.761 180.995C467.818 180.995 505.629 209.676 515.999 226.768C523.03 224.878 528.126 222.759 530.812 220.492C530.818 221.013 530.821 221.535 530.821 222.058C530.821 229.15 530.267 236.098 529.206 242.853C535.554 241.151 540.209 239.283 542.818 237.301C542.824 237.822 542.828 238.344 542.828 238.867C542.828 250.762 541.098 262.252 537.876 273.101C526.172 277.225 509.939 276.753 493.604 270.808Z" fill="#ECF1FE"/>
<path d="M403.55 236.274C403.55 233.515 412.151 225.564 422.761 225.564C433.371 225.564 441.972 233.515 441.972 236.274C441.972 239.032 433.371 241.268 422.761 241.268C412.151 241.268 403.55 239.032 403.55 236.274Z" fill="#120802"/>
<ellipse cx="452.039" cy="269.844" rx="11.5449" ry="18.01" transform="rotate(-180 452.039 269.844)" fill="#120802"/>
<ellipse cx="448.209" cy="276.088" rx="3.84829" ry="6.00332" transform="rotate(-180 448.209 276.088)" fill="#ECF1FE"/>
<ellipse cx="393.446" cy="269.845" rx="11.5449" ry="18.01" transform="rotate(-180 393.446 269.845)" fill="#120802"/>
<ellipse cx="389.617" cy="276.088" rx="3.84829" ry="6.00332" transform="rotate(-180 389.617 276.088)" fill="#ECF1FE"/>
<path d="M466.946 305.144L464.013 306.1C456.34 308.602 448.078 308.647 440.378 306.228L436.929 305.144" stroke="#120802" stroke-width="5"/>
<path d="M408.353 305.144L405.421 306.1C397.748 308.602 389.485 308.647 381.786 306.228L378.336 305.144" stroke="#120802" stroke-width="5"/>
<path fill-rule="evenodd" clip-rule="evenodd" d="M394.165 214.145C397.783 211.508 402.241 209.95 407.063 209.95C413.187 209.95 418.725 212.463 422.7 216.509C426.675 212.463 432.213 209.95 438.337 209.95C443.159 209.95 447.617 211.508 451.235 214.145C450.889 212.878 450.287 211.312 449.396 209.532C447.904 206.553 445.726 203.227 443.025 200.123C437.552 193.835 430.331 188.893 422.7 188.893C415.069 188.893 407.848 193.835 402.375 200.123C399.674 203.227 397.496 206.553 396.004 209.532C395.113 211.312 394.512 212.878 394.165 214.145ZM393.928 217.392C397.398 214.242 402.006 212.322 407.063 212.322C412.585 212.322 417.572 214.612 421.127 218.294C421.688 218.875 422.214 219.491 422.7 220.139C423.186 219.491 423.712 218.875 424.273 218.294C427.828 214.612 432.815 212.322 438.337 212.322C443.394 212.322 448.002 214.242 451.472 217.392C452.12 217.981 452.729 218.613 453.294 219.283C453.721 218.387 453.954 217.459 453.973 216.508C453.974 216.465 453.975 216.422 453.975 216.379C453.975 208.689 439.973 186.52 422.7 186.52C405.428 186.52 391.426 208.689 391.426 216.379C391.426 216.422 391.426 216.465 391.427 216.507C391.446 217.458 391.679 218.386 392.106 219.283C392.671 218.613 393.28 217.981 393.928 217.392Z" fill="#120802"/>
<path d="M407.063 209.95C402.241 209.95 397.783 211.508 394.165 214.145C394.512 212.878 395.113 211.312 396.004 209.532C397.496 206.553 399.674 203.227 402.375 200.123C407.848 193.835 415.069 188.893 422.7 188.893C430.331 188.893 437.552 193.835 443.025 200.123C445.726 203.227 447.904 206.553 449.396 209.532C450.287 211.312 450.889 212.878 451.235 214.145C447.617 211.508 443.159 209.95 438.337 209.95C432.213 209.95 426.675 212.463 422.7 216.509C418.725 212.463 413.187 209.95 407.063 209.95Z" fill="#120802"/>
<path d="M405.924 196.601C410.799 200.649 416.603 203.533 422.832 203.533C429.062 203.533 434.866 200.649 439.741 196.601C434.832 192.084 428.964 188.893 422.832 188.893C416.7 188.893 410.832 192.084 405.924 196.601Z" fill="#FB9197"/>
<path fill-rule="evenodd" clip-rule="evenodd" d="M529.18 335.131L525.993 340.467C504.839 375.889 466.114 399.623 421.842 399.623C377.57 399.623 338.845 375.889 317.691 340.467L314.504 335.131H529.18ZM320.719 338.658C321.43 339.848 322.161 341.024 322.911 342.186C343.87 374.624 380.349 396.095 421.842 396.095C463.335 396.095 499.814 374.624 520.773 342.186C521.523 341.024 522.254 339.848 522.965 338.658H320.719Z" fill="#120802"/>
<path d="M322.911 342.186C322.161 341.024 321.43 339.848 320.719 338.658H522.965C522.254 339.848 521.523 341.024 520.773 342.186C499.814 374.624 463.335 396.095 421.842 396.095C380.349 396.095 343.87 374.624 322.911 342.186Z" fill="#FCDC4D"/>
<path fill-rule="evenodd" clip-rule="evenodd" d="M545.368 282.025C544.803 301.605 539.681 320.052 531.025 336.333C529.053 340.041 525.188 342.185 521.14 342.185H322.54C318.492 342.185 314.627 340.041 312.655 336.333C304.667 321.309 299.689 304.441 298.524 286.539C298.097 279.988 303.45 274.868 309.706 274.868L538.366 274.868C542.235 274.868 545.484 278.024 545.368 282.025ZM527.91 334.677C526.586 337.167 523.96 338.657 521.14 338.657H322.54C319.72 338.657 317.094 337.167 315.77 334.677C308.011 320.085 303.176 303.702 302.044 286.309C301.76 281.945 305.332 278.395 309.706 278.395L538.366 278.395C540.314 278.395 541.898 279.975 541.842 281.923C541.293 300.948 536.318 318.864 527.91 334.677Z" fill="#120802"/>
<path d="M521.14 338.657C523.96 338.657 526.586 337.167 527.91 334.677C536.318 318.864 541.293 300.948 541.842 281.923C541.898 279.975 540.314 278.395 538.366 278.395L309.706 278.395C305.332 278.395 301.76 281.945 302.044 286.309C303.176 303.702 308.011 320.085 315.77 334.677C317.094 337.167 319.72 338.657 322.54 338.657H521.14Z" fill="#FCDC4D"/>
<path fill-rule="evenodd" clip-rule="evenodd" d="M381.111 347.364H331.683V319.122H381.111V347.364ZM377.584 343.836V322.65H335.21V343.836H377.584Z" fill="#120802"/>
<path d="M377.584 343.836H335.21V322.65H377.584V343.836Z" fill="#120802"/>
<path fill-rule="evenodd" clip-rule="evenodd" d="M344.666 334.265V340.149L337.011 332.489C336.605 332.083 335.948 332.083 335.542 332.489L335.469 332.562C335.063 332.968 335.063 333.626 335.469 334.032L345.015 343.585C345.37 343.94 345.918 343.985 346.321 343.718C346.379 343.68 346.434 343.636 346.484 343.585L346.558 343.512L346.559 343.51L356.031 334.032C356.189 333.875 356.285 333.679 356.32 333.475C356.34 333.395 356.35 333.312 356.35 333.226V333.122C356.35 332.548 355.885 332.083 355.312 332.083H348.505L356.031 324.552C356.437 324.147 356.437 323.489 356.031 323.083L355.958 323.009C355.552 322.603 354.894 322.603 354.489 323.009L346.847 330.656V323.743C346.847 323.169 346.382 322.704 345.809 322.704H345.705C345.131 322.704 344.666 323.169 344.666 323.743V332.083H340.875C340.302 332.083 339.837 332.548 339.837 333.122V333.226C339.837 333.8 340.302 334.265 340.875 334.265H344.666ZM352.714 334.265H346.847V340.136L352.714 334.265Z" fill="#FCDC4D"/>
<path fill-rule="evenodd" clip-rule="evenodd" d="M358.525 342.851C358.525 343.425 358.061 343.89 357.487 343.89H357.383C356.81 343.89 356.345 343.425 356.345 342.851V332.907L356.329 332.891L356.345 332.874V323.742C356.345 323.169 356.81 322.704 357.383 322.704H357.487C358.061 322.704 358.525 323.169 358.525 323.742V330.694L366.2 323.016C366.605 322.61 367.263 322.61 367.668 323.016L377.211 332.562C377.261 332.613 377.306 332.668 377.344 332.725C377.458 332.899 377.515 333.099 377.515 333.299C377.515 333.365 377.508 333.43 377.496 333.495C377.458 333.691 377.363 333.879 377.211 334.031L367.668 343.577C367.263 343.983 366.605 343.983 366.2 343.577L366.127 343.504C365.978 343.355 365.884 343.172 365.844 342.981V334.387H358.525V342.851ZM368.024 334.387H371.398C371.971 334.387 372.436 333.922 372.436 333.349V333.245C372.436 332.671 371.971 332.206 371.398 332.206H368.024V326.343L374.919 333.24L368.024 340.137V334.387ZM365.844 326.456V332.206H360.096L365.844 326.456Z" fill="#FCDC4D"/>
</svg>
