<svg width="702" height="571" viewBox="0 0 702 571" fill="none" xmlns="http://www.w3.org/2000/svg">
<path fill-rule="evenodd" clip-rule="evenodd" d="M73.5486 331.89C73.5932 351.997 57.3289 368.334 37.2212 368.379C17.1134 368.423 0.776743 352.159 0.732136 332.051C0.687529 311.944 16.9519 295.607 37.0596 295.562C57.1673 295.518 73.504 311.782 73.5486 331.89ZM37.2117 364.135C54.9759 364.096 69.3446 349.663 69.3052 331.899C69.2658 314.135 54.8332 299.766 37.069 299.806C19.3049 299.845 4.93612 314.278 4.97553 332.042C5.01494 349.806 19.4476 364.175 37.2117 364.135Z" fill="#11122C"/>
<path d="M69.3052 331.899C69.3446 349.663 54.9759 364.096 37.2117 364.135C19.4476 364.175 5.01494 349.806 4.97553 332.042C4.93612 314.278 19.3049 299.845 37.069 299.806C54.8332 299.766 69.2658 314.135 69.3052 331.899Z" fill="#ECF1FE"/>
<path d="M29.4704 354.888C47.2346 354.848 61.6033 340.416 61.5639 322.651C61.5514 316.997 60.0803 311.686 57.5076 307.074C64.6908 312.958 69.283 321.889 69.3052 331.899C69.3446 349.663 54.9759 364.096 37.2117 364.135C25.1024 364.162 14.5411 357.494 9.03184 347.619C14.5965 352.177 21.7161 354.905 29.4704 354.888Z" fill="#BFCFFA"/>
<path fill-rule="evenodd" clip-rule="evenodd" d="M509.643 493.294C460.696 537.074 396.44 564.215 325.634 565.608C168.908 568.691 39.2885 444.461 35.5694 287.897C35.5625 287.604 35.5559 287.31 35.5499 287.016C35.5477 286.915 35.5455 286.813 35.5436 286.712C33.9979 208.151 96.4309 143.212 174.992 141.667C253.552 140.121 318.491 202.554 320.037 281.115C320.111 284.913 320.285 288.686 320.555 292.432C320.658 293.859 320.774 295.282 320.905 296.701C322.275 296.385 323.676 296.147 325.102 295.995C326.336 295.862 327.589 295.793 328.857 295.79C348.501 295.747 364.461 311.636 364.505 331.28C364.537 345.896 355.749 358.473 343.156 363.971C341.862 364.536 340.528 365.026 339.16 365.436C339.311 365.768 339.464 366.1 339.617 366.431C340.063 367.397 340.517 368.358 340.978 369.316C372.018 433.86 434.518 480.199 508.222 488.863C510.093 489.083 511.971 489.279 513.856 489.45C512.465 490.745 511.06 492.027 509.643 493.294ZM344.963 367.812C376.22 432.508 439.749 478.464 514.239 485.224L523.701 486.082L516.747 492.556C466.568 539.27 399.658 568.396 325.717 569.851C166.357 572.986 34.6099 446.425 31.3074 287.106C31.3052 287.003 31.303 286.899 31.301 286.795M344.963 367.812C358.996 361.633 368.784 347.592 368.748 331.27C368.699 309.283 350.835 291.498 328.848 291.547C327.469 291.55 326.106 291.623 324.761 291.763C324.512 288.211 324.35 284.633 324.279 281.031C322.688 200.127 255.812 135.832 174.908 137.424C94.0046 139.016 29.7097 205.892 31.301 286.795" fill="#11122C"/>
<path d="M325.634 565.608C396.44 564.215 460.696 537.074 509.643 493.294C511.06 492.027 512.465 490.745 513.856 489.45C511.971 489.279 510.093 489.083 508.222 488.863C434.518 480.199 372.018 433.86 340.978 369.316C340.517 368.358 340.063 367.397 339.617 366.431C339.464 366.1 339.311 365.768 339.16 365.436C340.528 365.026 341.862 364.536 343.156 363.971C355.749 358.473 364.537 345.896 364.505 331.28C364.461 311.636 348.501 295.747 328.857 295.79C327.589 295.793 326.336 295.862 325.102 295.995C323.676 296.147 322.275 296.385 320.905 296.701C320.774 295.282 320.658 293.859 320.555 292.432C320.285 288.686 320.111 284.913 320.037 281.115C318.491 202.554 253.552 140.121 174.992 141.667C96.4309 143.212 33.9979 208.151 35.5436 286.712C35.5455 286.813 35.5477 286.915 35.5499 287.016C35.5559 287.31 35.5625 287.604 35.5694 287.897C39.2885 444.461 168.908 568.691 325.634 565.608Z" fill="#ECF1FE"/>
<path fill-rule="evenodd" clip-rule="evenodd" d="M324.354 360.02C345.497 359.973 362.601 343.964 362.557 324.262C362.553 322.198 362.36 320.175 361.995 318.207C363.605 322.252 364.495 326.662 364.505 331.28C364.549 350.923 348.659 366.883 329.015 366.927C316.957 366.954 306.286 360.976 299.834 351.812C306.484 356.956 315.033 360.041 324.354 360.02Z" fill="#BFCFFA"/>
<path d="M511.819 489.255C462.651 510.859 404.48 523.415 342.117 523.554C229.155 523.804 129.766 483.251 72.6338 421.793C122.578 509.445 217.675 567.732 325.634 565.608C398.49 564.175 464.412 535.48 513.856 489.45C513.176 489.388 512.497 489.323 511.819 489.255Z" fill="#BFCFFA"/>
<path fill-rule="evenodd" clip-rule="evenodd" d="M244.255 262.893C244.287 277.264 232.663 288.94 218.292 288.972C203.921 289.004 192.245 277.379 192.213 263.008C192.181 248.637 203.805 236.961 218.176 236.929C232.547 236.897 244.223 248.522 244.255 262.893ZM218.286 286.426C231.251 286.397 241.738 275.863 241.709 262.898C241.68 249.933 231.147 239.446 218.182 239.475C205.217 239.504 194.73 250.038 194.759 263.002C194.788 275.967 205.321 286.454 218.286 286.426Z" fill="#11122C"/>
<path d="M241.709 262.898C241.738 275.863 231.251 286.397 218.286 286.426C205.321 286.454 194.788 275.967 194.759 263.002C194.73 250.038 205.217 239.504 218.182 239.475C231.147 239.446 241.68 249.933 241.709 262.898Z" fill="#11122C"/>
<path d="M218.22 256.548C218.233 262.441 213.466 267.229 207.573 267.242C201.68 267.255 196.892 262.489 196.879 256.595C196.866 250.702 201.633 245.914 207.526 245.901C213.419 245.888 218.207 250.655 218.22 256.548Z" fill="#ECF1FE"/>
<path fill-rule="evenodd" clip-rule="evenodd" d="M130.436 263.145C130.468 277.516 118.844 289.192 104.473 289.224C90.1017 289.256 78.4258 277.632 78.3939 263.261C78.362 248.89 89.9863 237.214 104.357 237.182C118.728 237.15 130.404 248.774 130.436 263.145ZM104.467 286.678C117.432 286.649 127.919 276.116 127.89 263.151C127.862 250.186 117.328 239.699 104.363 239.728C91.3981 239.757 80.9112 250.29 80.9399 263.255C80.9687 276.22 91.5022 286.707 104.467 286.678Z" fill="#11122C"/>
<path d="M127.89 263.151C127.919 276.116 117.432 286.649 104.467 286.678C91.5022 286.707 80.9687 276.22 80.9399 263.255C80.9112 250.29 91.3981 239.757 104.363 239.728C117.328 239.699 127.862 250.186 127.89 263.151Z" fill="#11122C"/>
<path d="M104.401 256.801C104.414 262.694 99.6469 267.482 93.7538 267.495C87.8606 267.508 83.0726 262.741 83.0596 256.848C83.0465 250.955 87.8132 246.167 93.7064 246.154C99.5996 246.141 104.388 250.907 104.401 256.801Z" fill="#ECF1FE"/>
<path fill-rule="evenodd" clip-rule="evenodd" d="M183.149 357.268C178.079 364.195 170.855 368.751 162.63 368.769C154.405 368.787 147.161 364.264 142.06 357.359C136.958 350.453 133.869 341.026 133.846 330.718C133.823 320.41 136.871 310.97 141.942 304.041C147.012 297.114 154.236 292.558 162.461 292.54C170.686 292.522 177.93 297.045 183.03 303.95C188.132 310.856 191.222 320.283 191.244 330.591C191.267 340.899 188.22 350.339 183.149 357.268ZM162.624 366.223C177.068 366.191 188.742 350.24 188.698 330.596C188.655 310.952 176.91 295.054 162.466 295.086C148.022 295.118 136.348 311.068 136.392 330.712C136.435 350.356 148.18 366.255 162.624 366.223Z" fill="#11122C"/>
<path d="M188.698 330.596C188.742 350.24 177.068 366.191 162.624 366.223C148.18 366.255 136.435 350.356 136.392 330.712C136.348 311.068 148.022 295.118 162.466 295.086C176.91 295.054 188.655 310.952 188.698 330.596Z" fill="#11122C"/>
<path d="M141.529 351.789C147.691 341.284 159.092 334.219 172.153 334.19C177.905 334.177 183.342 335.531 188.156 337.945C185.703 354.069 175.216 366.195 162.624 366.223C153.985 366.242 146.311 360.562 141.529 351.789Z" fill="#FECACC"/>
<path d="M172.153 334.19C159.092 334.219 147.691 341.284 141.529 351.789C141.539 351.808 141.55 351.827 141.56 351.846C146.795 348.793 152.88 347.038 159.376 347.023C167.838 347.004 175.615 349.942 181.732 354.861C184.906 350.209 187.174 344.397 188.156 337.945C183.342 335.531 177.905 334.177 172.153 334.19Z" fill="#FB9197"/>
<path fill-rule="evenodd" clip-rule="evenodd" d="M48.7974 184.711L52.6167 178.283C77.9701 135.616 124.492 106.961 177.75 106.842C231.007 106.724 277.656 135.173 303.198 177.727L307.046 184.138L48.7974 184.711ZM299.56 179.911C298.702 178.482 297.82 177.069 296.914 175.674C271.614 136.707 227.674 110.975 177.759 111.086C127.844 111.197 84.0185 137.123 58.8921 176.202C57.9921 177.601 57.1161 179.018 56.2647 180.451L299.56 179.911Z" fill="#11122C"/>
<path d="M296.914 175.674C297.82 177.069 298.702 178.482 299.56 179.911L56.2647 180.451C57.1161 179.018 57.9921 177.601 58.8921 176.202C84.0185 137.123 127.844 111.197 177.759 111.086C227.674 110.975 271.614 136.707 296.914 175.674Z" fill="#CB525C"/>
<path fill-rule="evenodd" clip-rule="evenodd" d="M29.4649 248.64C30.0923 225.083 36.2045 202.879 46.5748 183.27C48.9367 178.804 53.5805 176.215 58.4505 176.204L297.36 175.674C302.23 175.663 306.885 178.232 309.267 182.687C318.916 200.739 324.95 221.017 326.4 242.551C326.93 250.43 320.505 256.603 312.979 256.62L37.9079 257.23C33.2535 257.24 29.3367 253.453 29.4649 248.64ZM50.326 185.254C51.9122 182.255 55.067 180.455 58.4599 180.447L297.369 179.917C300.762 179.91 303.925 181.696 305.525 184.688C314.897 202.221 320.758 221.916 322.166 242.836C322.519 248.085 318.231 252.365 312.969 252.376L37.8985 252.987C35.5549 252.992 33.6444 251.095 33.7068 248.752C34.3164 225.864 40.2538 204.299 50.326 185.254Z" fill="#11122C"/>
<path d="M58.4599 180.447C55.067 180.455 51.9122 182.255 50.326 185.254C40.2538 204.299 34.3164 225.864 33.7068 248.752C33.6444 251.095 35.5549 252.992 37.8985 252.987L312.969 252.376C318.231 252.365 322.519 248.085 322.166 242.836C320.758 221.916 314.897 202.221 305.525 184.688C303.925 181.696 300.762 179.91 297.369 179.917L58.4599 180.447Z" fill="#CB525C"/>
<path fill-rule="evenodd" clip-rule="evenodd" d="M226.887 169.6L286.348 169.468L286.423 203.442L226.962 203.574L226.887 169.6ZM231.14 173.834L231.196 199.321L282.17 199.208L282.114 173.721L231.14 173.834Z" fill="#11122C"/>
<path d="M231.14 173.834L282.114 173.721L282.17 199.208L231.196 199.321L231.14 173.834Z" fill="#11122C"/>
<path fill-rule="evenodd" clip-rule="evenodd" d="M270.764 185.26L270.748 178.182L279.978 187.376C280.467 187.863 281.258 187.862 281.745 187.372L281.833 187.284C282.32 186.795 282.318 186.003 281.829 185.516L270.319 174.049C269.891 173.623 269.232 173.571 268.748 173.892C268.679 173.938 268.613 173.992 268.552 174.053L268.464 174.142L268.462 174.144L257.093 185.571C256.904 185.761 256.789 185.996 256.747 186.241C256.723 186.337 256.711 186.438 256.711 186.541L256.712 186.666C256.713 187.357 257.274 187.915 257.964 187.913L266.151 187.895L257.118 196.974C256.631 197.464 256.633 198.255 257.122 198.742L257.211 198.831C257.7 199.318 258.491 199.316 258.978 198.827L268.15 189.608L268.168 197.924C268.17 198.614 268.73 199.172 269.42 199.171L269.545 199.171C270.235 199.169 270.794 198.608 270.792 197.918L270.77 187.885L275.33 187.875C276.02 187.873 276.578 187.312 276.577 186.622L276.576 186.497C276.575 185.807 276.014 185.248 275.324 185.25L270.764 185.26ZM261.083 185.281L268.14 185.266L268.125 178.204L261.083 185.281Z" fill="#CB525C"/>
<path fill-rule="evenodd" clip-rule="evenodd" d="M254.069 174.968C254.067 174.278 254.625 173.718 255.315 173.716L255.44 173.716C256.129 173.715 256.69 174.273 256.691 174.963L256.718 186.925L256.738 186.944L256.718 186.964L256.742 197.95C256.744 198.64 256.186 199.2 255.496 199.202L255.371 199.202C254.682 199.204 254.121 198.646 254.12 197.956L254.101 189.594L244.889 198.85C244.403 199.339 243.612 199.341 243.123 198.854L231.618 187.395C231.557 187.334 231.504 187.269 231.458 187.2C231.32 186.991 231.251 186.75 231.251 186.51C231.251 186.431 231.258 186.352 231.273 186.274C231.318 186.038 231.432 185.812 231.614 185.628L243.069 174.119C243.555 173.63 244.346 173.628 244.835 174.115L244.923 174.203C245.102 174.382 245.216 174.601 245.264 174.832L245.287 185.17L254.091 185.15L254.069 174.968ZM242.665 185.176L238.606 185.185C237.917 185.186 237.359 185.747 237.36 186.437L237.36 186.562C237.362 187.252 237.922 187.81 238.612 187.808L242.671 187.799L242.686 194.853L234.374 186.574L242.649 178.258L242.665 185.176ZM245.308 194.71L245.293 187.793L252.207 187.778L245.308 194.71Z" fill="#CB525C"/>
<path fill-rule="evenodd" clip-rule="evenodd" d="M627.711 239.173C627.666 219.065 643.931 202.728 664.038 202.684C684.146 202.639 700.483 218.903 700.528 239.011C700.572 259.119 684.308 275.455 664.2 275.5C644.092 275.545 627.756 259.28 627.711 239.173ZM664.048 206.927C646.284 206.966 631.915 221.399 631.954 239.163C631.994 256.927 646.426 271.296 664.191 271.257C681.955 271.217 696.324 256.785 696.284 239.02C696.245 221.256 681.812 206.888 664.048 206.927Z" fill="#11122C"/>
<path d="M631.954 239.163C631.915 221.399 646.284 206.966 664.048 206.927C681.812 206.888 696.245 221.256 696.284 239.02C696.324 256.785 681.955 271.217 664.191 271.257C646.426 271.296 631.994 256.927 631.954 239.163Z" fill="#ECF1FE"/>
<path d="M671.789 216.175C654.025 216.214 639.656 230.647 639.696 248.411C639.708 254.066 641.179 259.376 643.752 263.988C636.569 258.105 631.977 249.173 631.954 239.163C631.915 221.399 646.284 206.966 664.048 206.927C676.157 206.9 686.719 213.568 692.228 223.443C686.663 218.886 679.544 216.157 671.789 216.175Z" fill="#BFCFFA"/>
<path fill-rule="evenodd" clip-rule="evenodd" d="M191.617 77.7683C240.563 33.9887 304.819 6.84748 375.625 5.4544C532.352 2.37093 661.971 126.602 665.69 283.165C665.697 283.459 665.704 283.752 665.71 284.046C665.712 284.147 665.714 284.249 665.716 284.351C667.262 362.911 604.829 427.85 526.268 429.396C447.707 430.941 382.768 368.508 381.223 289.948C381.148 286.149 380.975 282.376 380.705 278.631C380.602 277.204 380.485 275.781 380.355 274.362C378.984 274.678 377.584 274.915 376.158 275.068C374.924 275.2 373.671 275.269 372.402 275.272C352.758 275.316 336.798 259.426 336.755 239.783C336.722 225.166 345.511 212.589 358.104 207.091C359.397 206.526 360.731 206.036 362.1 205.626C361.948 205.294 361.796 204.963 361.643 204.632C361.196 203.666 360.742 202.704 360.282 201.746C329.241 137.203 266.742 90.8632 193.037 82.1993C191.166 81.9794 189.288 81.7837 187.404 81.6127C188.795 80.3174 190.199 79.0359 191.617 77.7683ZM356.296 203.251C325.04 138.555 261.51 92.5984 187.02 85.8387L177.559 84.9801L184.512 78.5068C234.691 31.7923 301.602 2.66652 375.542 1.21181C534.903 -1.92349 666.65 124.638 669.952 283.956C669.954 284.059 669.957 284.163 669.959 284.267M356.296 203.251C342.263 209.429 332.475 223.47 332.511 239.792C332.56 261.779 350.424 279.564 372.412 279.516C373.79 279.512 375.154 279.439 376.498 279.299C376.748 282.852 376.909 286.43 376.98 290.031C378.572 370.935 445.448 435.23 526.351 433.638C607.255 432.047 671.55 365.17 669.959 284.267" fill="#11122C"/>
<path d="M375.625 5.4544C304.819 6.84748 240.563 33.9887 191.617 77.7683C190.199 79.0359 188.795 80.3174 187.404 81.6127C189.288 81.7837 191.166 81.9794 193.037 82.1993C266.742 90.8632 329.241 137.203 360.282 201.746C360.742 202.704 361.196 203.666 361.643 204.632C361.796 204.963 361.948 205.294 362.1 205.626C360.731 206.036 359.397 206.526 358.104 207.091C345.511 212.589 336.722 225.166 336.755 239.783C336.798 259.426 352.758 275.316 372.402 275.272C373.671 275.269 374.924 275.2 376.158 275.068C377.584 274.915 378.984 274.678 380.355 274.362C380.485 275.781 380.602 277.204 380.705 278.631C380.975 282.376 381.148 286.149 381.223 289.948C382.768 368.508 447.707 430.941 526.268 429.396C604.829 427.85 667.262 362.911 665.716 284.351C665.714 284.249 665.712 284.147 665.71 284.046C665.704 283.752 665.697 283.459 665.69 283.165C661.971 126.602 532.352 2.37093 375.625 5.4544Z" fill="#ECF1FE"/>
<path fill-rule="evenodd" clip-rule="evenodd" d="M376.906 211.042C355.763 211.089 338.659 227.098 338.702 246.8C338.707 248.864 338.9 250.888 339.265 252.855C337.655 248.811 336.765 244.4 336.755 239.783C336.711 220.139 352.6 204.179 372.244 204.135C384.303 204.109 394.974 210.086 401.426 219.25C394.776 214.106 386.226 211.022 376.906 211.042Z" fill="#BFCFFA"/>
<path d="M189.441 81.8074C238.608 60.2031 296.78 47.6469 359.143 47.5086C472.105 47.258 571.494 87.8114 628.626 149.269C578.682 61.6171 483.585 3.33039 375.626 5.45441C302.769 6.8878 236.848 35.5821 187.404 81.6128C188.084 81.6745 188.763 81.7394 189.441 81.8074Z" fill="#BFCFFA"/>
<path fill-rule="evenodd" clip-rule="evenodd" d="M457.004 308.17C456.973 293.799 468.597 282.123 482.968 282.091C497.339 282.059 509.015 293.683 509.047 308.054C509.079 322.425 497.455 334.101 483.083 334.133C468.712 334.165 457.036 322.541 457.004 308.17ZM482.974 284.637C470.009 284.665 459.522 295.199 459.551 308.164C459.579 321.129 470.113 331.616 483.078 331.587C496.043 331.558 506.53 321.025 506.501 308.06C506.472 295.095 495.939 284.608 482.974 284.637Z" fill="#11122C"/>
<path d="M459.551 308.164C459.522 295.199 470.009 284.665 482.974 284.637C495.939 284.608 506.472 295.095 506.501 308.06C506.53 321.025 496.043 331.558 483.078 331.587C470.113 331.616 459.579 321.129 459.551 308.164Z" fill="#11122C"/>
<path d="M483.04 314.514C483.027 308.621 487.793 303.833 493.687 303.82C499.58 303.807 504.368 308.574 504.381 314.467C504.394 320.36 499.627 325.148 493.734 325.161C487.841 325.174 483.053 320.407 483.04 314.514Z" fill="#ECF1FE"/>
<path fill-rule="evenodd" clip-rule="evenodd" d="M570.823 307.917C570.792 293.546 582.416 281.87 596.787 281.838C611.158 281.806 622.834 293.431 622.866 307.802C622.898 322.173 611.273 333.849 596.902 333.881C582.531 333.912 570.855 322.288 570.823 307.917ZM596.793 284.384C583.828 284.413 573.341 294.947 573.369 307.911C573.398 320.876 583.932 331.363 596.897 331.335C609.862 331.306 620.349 320.772 620.32 307.807C620.291 294.842 609.758 284.355 596.793 284.384Z" fill="#11122C"/>
<path d="M573.369 307.911C573.341 294.947 583.828 284.413 596.793 284.384C609.758 284.355 620.291 294.842 620.32 307.807C620.349 320.772 609.862 331.306 596.897 331.335C583.932 331.363 573.398 320.876 573.369 307.911Z" fill="#11122C"/>
<path d="M596.859 314.262C596.846 308.369 601.613 303.581 607.506 303.568C613.399 303.554 618.187 308.321 618.2 314.214C618.213 320.108 613.446 324.896 607.553 324.909C601.66 324.922 596.872 320.155 596.859 314.262Z" fill="#ECF1FE"/>
<path fill-rule="evenodd" clip-rule="evenodd" d="M518.111 213.795C523.181 206.867 530.405 202.312 538.63 202.294C546.855 202.275 554.099 206.799 559.2 213.703C564.301 220.61 567.391 230.036 567.414 240.344C567.436 250.652 564.389 260.093 559.318 267.021C554.248 273.949 547.024 278.504 538.799 278.522C530.574 278.541 523.33 274.017 518.229 267.113C513.127 260.206 510.038 250.78 510.015 240.472C509.992 230.164 513.04 220.723 518.111 213.795ZM538.635 204.84C524.191 204.872 512.517 220.822 512.561 240.466C512.605 260.11 524.349 276.008 538.793 275.976C553.237 275.944 564.911 259.994 564.868 240.35C564.824 220.706 553.079 204.808 538.635 204.84Z" fill="#11122C"/>
<path d="M512.561 240.466C512.517 220.822 524.191 204.872 538.635 204.84C553.079 204.808 564.824 220.706 564.868 240.35C564.911 259.994 553.237 275.944 538.793 275.976C524.349 276.008 512.605 260.11 512.561 240.466Z" fill="#11122C"/>
<path d="M559.73 219.273C553.568 229.779 542.167 236.843 529.107 236.872C523.354 236.885 517.917 235.531 513.103 233.117C515.557 216.993 526.043 204.868 538.635 204.84C547.275 204.82 554.948 210.501 559.73 219.273Z" fill="#FECACC"/>
<path d="M529.107 236.872C542.167 236.843 553.568 229.779 559.73 219.273C559.72 219.254 559.709 219.235 559.699 219.216C554.465 222.27 548.379 224.025 541.883 224.039C533.422 224.058 525.644 221.121 519.527 216.201C516.353 220.854 514.085 226.665 513.103 233.117C517.917 235.531 523.354 236.885 529.107 236.872Z" fill="#FB9197"/>
<path fill-rule="evenodd" clip-rule="evenodd" d="M652.462 386.351L648.643 392.779C623.289 435.447 576.768 464.102 523.51 464.22C470.252 464.338 423.604 435.89 398.061 393.335L394.213 386.924L652.462 386.351ZM401.7 391.151C402.557 392.58 403.44 393.993 404.346 395.389C429.645 434.355 473.585 460.087 523.5 459.977C573.416 459.866 617.241 433.939 642.367 394.861C643.267 393.461 644.143 392.044 644.995 390.611L401.7 391.151Z" fill="#11122C"/>
<path d="M404.346 395.389C403.44 393.993 402.557 392.58 401.7 391.151L644.995 390.611C644.143 392.044 643.267 393.461 642.367 394.861C617.241 433.939 573.416 459.866 523.5 459.977C473.585 460.087 429.645 434.355 404.346 395.389Z" fill="#4B63AA"/>
<path fill-rule="evenodd" clip-rule="evenodd" d="M671.794 322.423C671.167 345.98 665.055 368.184 654.685 387.792C652.323 392.258 647.679 394.848 642.809 394.859L403.899 395.389C399.029 395.399 394.374 392.83 391.993 388.375C382.343 370.324 376.309 350.045 374.86 328.512C374.329 320.633 380.755 314.459 388.281 314.443L663.351 313.832C668.006 313.822 671.923 317.61 671.794 322.423ZM650.933 385.809C649.347 388.808 646.192 390.608 642.8 390.615L403.89 391.145C400.497 391.153 397.334 389.367 395.735 386.375C386.363 368.842 380.502 349.147 379.094 328.227C378.74 322.977 383.029 318.698 388.29 318.686L663.361 318.076C665.704 318.071 667.615 319.967 667.553 322.31C666.943 345.198 661.006 366.764 650.933 385.809Z" fill="#11122C"/>
<path d="M642.8 390.615C646.192 390.608 649.347 388.808 650.933 385.809C661.006 366.764 666.943 345.198 667.553 322.31C667.615 319.967 665.704 318.071 663.361 318.076L388.29 318.686C383.029 318.698 378.74 322.977 379.094 328.227C380.502 349.147 386.363 368.842 395.735 386.375C397.334 389.367 400.497 391.153 403.89 391.145L642.8 390.615Z" fill="#4B63AA"/>
<path fill-rule="evenodd" clip-rule="evenodd" d="M474.373 401.463L414.912 401.594L414.836 367.621L474.297 367.489L474.373 401.463ZM470.12 397.229L470.063 371.742L419.089 371.855L419.146 397.342L470.12 397.229Z" fill="#11122C"/>
<path d="M470.12 397.229L419.146 397.342L419.089 371.855L470.063 371.742L470.12 397.229Z" fill="#11122C"/>
<path fill-rule="evenodd" clip-rule="evenodd" d="M430.495 385.803L430.511 392.881L421.281 383.686C420.792 383.199 420.001 383.201 419.514 383.69L419.426 383.778C418.939 384.268 418.941 385.059 419.43 385.546L430.94 397.013C431.368 397.439 432.027 397.491 432.512 397.17C432.581 397.124 432.646 397.07 432.707 397.009L432.795 396.921L432.797 396.919L444.166 385.492C444.355 385.302 444.471 385.066 444.513 384.821C444.536 384.725 444.548 384.624 444.548 384.521L444.548 384.396C444.546 383.706 443.986 383.147 443.296 383.149L435.108 383.167L444.141 374.088C444.628 373.599 444.626 372.807 444.137 372.32L444.049 372.232C443.56 371.744 442.769 371.746 442.282 372.236L433.109 381.455L433.091 373.139C433.089 372.448 432.529 371.89 431.839 371.891L431.714 371.892C431.024 371.893 430.466 372.454 430.467 373.145L430.49 383.177L425.929 383.187C425.239 383.189 424.681 383.75 424.683 384.44L424.683 384.565C424.685 385.256 425.245 385.814 425.935 385.813L430.495 385.803ZM440.176 385.781L433.119 385.797L433.135 392.858L440.176 385.781Z" fill="#4B63AA"/>
<path fill-rule="evenodd" clip-rule="evenodd" d="M447.19 396.094C447.192 396.784 446.634 397.344 445.944 397.346L445.819 397.346C445.13 397.348 444.569 396.79 444.568 396.1L444.541 384.138L444.522 384.118L444.541 384.098L444.517 373.112C444.515 372.423 445.073 371.862 445.763 371.86L445.888 371.86C446.577 371.859 447.138 372.417 447.139 373.107L447.158 381.469L456.37 372.212C456.856 371.723 457.647 371.722 458.136 372.208L469.641 383.667C469.702 383.728 469.755 383.793 469.801 383.863C469.939 384.071 470.009 384.312 470.008 384.553C470.008 384.632 470.001 384.71 469.986 384.788C469.941 385.025 469.827 385.25 469.645 385.434L458.191 396.943C457.704 397.432 456.913 397.434 456.425 396.947L456.336 396.859C456.157 396.68 456.043 396.461 455.995 396.23L455.972 385.893L447.168 385.912L447.19 396.094ZM458.594 385.887L462.653 385.878C463.343 385.876 463.901 385.316 463.899 384.626L463.899 384.501C463.897 383.811 463.337 383.253 462.647 383.254L458.589 383.263L458.573 376.209L466.885 384.488L458.61 392.804L458.594 385.887ZM455.951 376.352L455.966 383.269L449.052 383.284L455.951 376.352Z" fill="#4B63AA"/>
</svg>
