<svg width="550" height="516" viewBox="0 0 550 516" fill="none" xmlns="http://www.w3.org/2000/svg">
<path fill-rule="evenodd" clip-rule="evenodd" d="M99.3889 396.264C93.6138 399.748 85.9795 401.303 77.9746 401.303C69.9697 401.303 62.3355 399.748 56.5603 396.264C50.6248 392.683 46.6417 387.009 46.6417 379.383C46.6417 372.165 50.2254 364.141 55.6514 357.985C61.1071 351.796 68.9515 346.912 77.9746 346.912C86.9977 346.912 94.8421 351.796 100.298 357.985C105.724 364.141 109.308 372.165 109.308 379.383C109.308 387.009 105.324 392.683 99.3889 396.264ZM77.9746 397.413C93.1304 397.413 105.417 391.476 105.417 379.383C105.417 367.291 93.1304 350.802 77.9746 350.802C62.8188 350.802 50.5326 367.291 50.5326 379.383C50.5326 391.476 62.8188 397.413 77.9746 397.413Z" fill="#08090C"/>
<path d="M105.417 379.383C105.417 391.476 93.1304 397.413 77.9746 397.413C62.8188 397.413 50.5326 391.476 50.5326 379.383C50.5326 367.291 62.8188 350.802 77.9746 350.802C93.1304 350.802 105.417 367.291 105.417 379.383Z" fill="#919AB6"/>
<path fill-rule="evenodd" clip-rule="evenodd" d="M219.735 396.264C213.96 399.748 206.325 401.304 198.32 401.304C190.316 401.304 182.681 399.748 176.906 396.264C170.971 392.683 166.988 387.009 166.988 379.383C166.988 372.165 170.571 364.141 175.997 357.985C181.453 351.796 189.297 346.912 198.32 346.912C207.344 346.912 215.188 351.796 220.644 357.985C226.07 364.141 229.653 372.165 229.653 379.383C229.653 387.009 225.67 392.683 219.735 396.264ZM198.32 397.413C213.476 397.413 225.763 391.476 225.763 379.383C225.763 367.291 213.476 350.803 198.32 350.803C183.165 350.803 170.878 367.291 170.878 379.383C170.878 391.476 183.165 397.413 198.32 397.413Z" fill="#08090C"/>
<path d="M225.763 379.383C225.763 391.476 213.476 397.413 198.32 397.413C183.165 397.413 170.878 391.476 170.878 379.383C170.878 367.291 183.165 350.803 198.32 350.803C213.476 350.803 225.763 367.291 225.763 379.383Z" fill="#919AB6"/>
<path fill-rule="evenodd" clip-rule="evenodd" d="M182.29 361.619C195.368 364.938 206.329 366.737 215.447 366.965C226.842 367.25 237.943 365.131 246.007 357.495C254.225 349.712 255.914 339.417 255.94 331.417C255.967 323.443 254.332 314.733 252.84 307.19C252.618 306.069 252.395 304.957 252.175 303.858C250.81 297.034 249.544 290.694 248.85 284.443C248.047 277.219 248.173 271.305 249.411 266.513C250.559 262.072 252.702 258.371 256.718 255.173C259.555 252.913 263.715 250.601 269.848 248.663C277.464 246.257 283.245 238.741 281.745 230.208C280.29 221.932 272.212 215.869 263.59 218.294C253.201 221.216 244.492 225.412 237.468 231.007C227.713 238.778 222.157 248.495 219.499 258.783C216.931 268.721 217.143 278.851 218.143 287.854C218.999 295.558 220.553 303.303 221.894 309.99L221.908 310.064L221.909 310.066L221.911 310.078C222.125 311.142 222.332 312.178 222.532 313.188C224.099 321.104 225.06 326.884 225.045 331.315C225.038 333.533 224.783 334.637 224.627 335.098C223.93 335.426 221.663 336.216 216.219 336.079C210.316 335.932 202.045 334.717 190.666 331.868C182.544 329.834 173.995 334.383 171.597 342.616C169.222 350.767 173.88 359.484 182.29 361.619ZM224.507 335.375C224.506 335.374 224.517 335.351 224.543 335.313C224.522 335.358 224.509 335.377 224.507 335.375ZM200.132 361.501C194.989 360.639 189.371 359.432 183.24 357.876C177.038 356.302 173.515 349.839 175.305 343.696C177.094 337.553 183.521 334.06 189.728 335.614C196.838 337.395 202.826 338.565 207.85 339.237C206.961 340.973 206.137 342.711 205.378 344.448C207.188 342.747 209.121 341.135 211.175 339.625C212.962 339.799 214.608 339.902 216.123 339.94C224.461 340.149 226.907 338.35 227.419 337.866C227.816 337.49 228.891 336.179 228.907 331.328C228.908 331.072 228.906 330.814 228.901 330.551C236.48 328.123 244.334 327.252 251.984 327.872C252.049 329.065 252.082 330.244 252.078 331.405C252.053 338.961 250.449 347.969 243.352 354.69C242.811 355.202 242.254 355.687 241.68 356.145C226.873 352.056 212.508 352.477 200.876 357.862C200.591 359.081 200.343 360.295 200.132 361.501ZM251.892 326.455C244.129 322.22 235.798 319.927 227.691 319.775C227.734 320.027 227.776 320.276 227.817 320.524C227.408 318.051 226.899 315.363 226.321 312.438C226.119 311.419 225.91 310.375 225.696 309.308L225.695 309.306L225.694 309.301C225.441 308.039 225.182 306.747 224.922 305.43L224.995 305.801C232.032 302.474 239.53 300.213 247.277 298.999C247.636 300.852 248.01 302.723 248.389 304.615L248.4 304.673C248.616 305.754 248.834 306.843 249.051 307.939C250.23 313.896 251.44 320.322 251.892 326.455ZM245.607 289.428C245.38 287.903 245.18 286.384 245.011 284.869C244.184 277.424 244.268 270.983 245.672 265.547C247.009 260.374 249.579 255.921 254.312 252.152C257.587 249.543 262.192 247.032 268.685 244.981C268.712 244.972 268.739 244.963 268.766 244.955C264.088 237.992 258.588 231.756 252.393 226.444C247.686 228.598 243.519 231.124 239.874 234.028C234.945 237.954 231.179 242.406 228.372 247.192C236.885 246.908 245.686 248.676 254.096 252.325C252.448 253.664 251.068 255.088 249.915 256.598C240.546 257.164 231.139 259.618 222.308 264.045C220.946 271.752 221.143 279.551 221.914 286.809L221.914 286.803C229.491 286.476 237.481 287.37 245.607 289.428ZM262.363 222.681C265.272 229.507 267.546 236.948 269.101 244.842C274.979 242.784 279.024 237.034 277.941 230.877C276.833 224.575 270.796 220.28 264.636 222.012C263.868 222.228 263.11 222.451 262.363 222.681Z" fill="#08090C"/>
<path d="M269.101 244.842C267.546 236.948 265.272 229.507 262.363 222.681C263.11 222.451 263.868 222.228 264.636 222.012C270.796 220.28 276.833 224.575 277.941 230.877C279.024 237.034 274.979 242.784 269.101 244.842Z" fill="#313749"/>
<path d="M245.011 284.869C245.18 286.384 245.38 287.903 245.607 289.428C237.481 287.37 229.491 286.476 221.914 286.803L221.914 286.809C221.143 279.551 220.946 271.752 222.308 264.045C231.139 259.618 240.546 257.164 249.915 256.598C251.068 255.088 252.448 253.664 254.096 252.325C245.686 248.676 236.885 246.908 228.372 247.192C231.179 242.406 234.945 237.954 239.874 234.028C243.519 231.124 247.686 228.598 252.393 226.444C258.588 231.756 264.088 237.992 268.766 244.955C268.739 244.963 268.712 244.972 268.685 244.981C262.192 247.032 257.587 249.543 254.312 252.152C249.579 255.921 247.009 260.374 245.672 265.547C244.268 270.983 244.184 277.424 245.011 284.869Z" fill="#313749"/>
<path d="M227.691 319.775C235.798 319.927 244.129 322.22 251.892 326.455C251.44 320.322 250.23 313.896 249.051 307.939C248.834 306.843 248.616 305.754 248.4 304.673L248.389 304.615C248.01 302.723 247.636 300.852 247.277 298.999C239.53 300.213 232.032 302.474 224.995 305.801L224.922 305.43C225.182 306.747 225.441 308.039 225.694 309.301L225.695 309.306L225.696 309.308C225.91 310.375 226.119 311.419 226.321 312.438C226.899 315.363 227.408 318.051 227.817 320.524C227.776 320.276 227.734 320.027 227.691 319.775Z" fill="#313749"/>
<path d="M183.24 357.876C189.371 359.432 194.989 360.639 200.132 361.501C200.343 360.295 200.591 359.081 200.876 357.862C212.508 352.477 226.873 352.056 241.68 356.145C242.254 355.687 242.811 355.202 243.352 354.69C250.449 347.969 252.053 338.961 252.078 331.405C252.082 330.244 252.049 329.065 251.984 327.872C244.334 327.252 236.48 328.123 228.901 330.551C228.906 330.814 228.908 331.072 228.907 331.328C228.891 336.179 227.816 337.49 227.419 337.866C226.907 338.35 224.461 340.149 216.123 339.94C214.608 339.902 212.962 339.799 211.175 339.625C209.121 341.135 207.188 342.747 205.378 344.448C206.137 342.711 206.961 340.973 207.85 339.237C202.826 338.565 196.838 337.395 189.728 335.614C183.521 334.06 177.094 337.553 175.305 343.696C173.515 349.839 177.038 356.302 183.24 357.876Z" fill="#313749"/>
<path fill-rule="evenodd" clip-rule="evenodd" d="M181.768 62.2433C167.892 57.5157 152.999 54.771 137.484 54.7113C121.969 54.771 107.077 57.5157 93.2003 62.2434C91.1654 58.9342 88.32 55.2904 85.0116 51.6754C80.473 46.7163 74.8751 41.6068 68.8535 37.2406C62.8538 32.8902 56.2868 29.1709 49.8121 27.1414C43.362 25.1197 36.5797 24.6518 30.5639 27.457C24.5481 30.2622 20.5469 35.7585 17.9496 41.9991C15.3424 48.2636 13.9704 55.6849 13.4464 63.0773C12.9205 70.4967 13.2364 78.0693 14.1179 84.7337C14.9908 91.3324 16.4536 97.3107 18.3682 101.417C19.8753 104.649 21.9742 107.416 24.5099 109.714C9.18434 128.345 0 149.258 0 168.017C0 193.16 16.4199 211.49 41.4604 223.33C46.822 225.866 52.6067 228.121 58.7554 230.099C43.0305 256.263 33.4615 287.644 33.4615 314.776L33.4616 314.968L33.4615 315.16C33.4615 345.216 45.2149 367.922 64.3921 383.023C83.3565 397.956 109.26 405.212 137.484 405.285C165.709 405.212 191.612 397.956 210.576 383.023C229.753 367.922 241.507 345.216 241.507 315.16L241.507 314.968L241.507 314.776C241.507 287.644 231.938 256.263 216.213 230.099C222.362 228.121 228.146 225.866 233.508 223.33C258.548 211.49 274.968 193.16 274.968 168.017C274.968 149.258 265.784 128.345 250.458 109.714C252.994 107.416 255.093 104.649 256.6 101.417C258.515 97.3107 259.978 91.3324 260.85 84.7336C261.732 78.0692 262.048 70.4967 261.522 63.0773C260.998 55.6848 259.626 48.2635 257.019 41.9991C254.421 35.7585 250.42 30.2622 244.404 27.457C238.389 24.6518 231.606 25.1196 225.156 27.1414C218.682 29.1708 212.115 32.8901 206.115 37.2405C200.093 41.6068 194.495 46.7163 189.957 51.6754C186.648 55.2904 183.803 58.9341 181.768 62.2433ZM137.484 401.099C171.726 401.008 201.931 390.107 220.002 368.149C207.348 361.431 192.824 358.741 178.089 359.937C196.138 350.634 214.858 347.452 230.495 351.134C233.281 344.858 235.315 337.985 236.497 330.512C225.296 325.277 213.15 323.517 201.586 325.028C212.99 317.938 225.825 314.94 237.677 316.643C237.687 316.024 237.692 315.402 237.692 314.776C237.692 312.361 237.614 309.909 237.46 307.428C236.839 306.78 236.203 306.142 235.553 305.514C220.156 290.645 199.342 284.286 178.089 286.01C196.858 276.337 216.353 273.281 232.352 277.681C230.951 272.56 229.293 267.434 227.398 262.361C213.966 253.315 198.346 249.961 183.664 251.879C194.85 244.925 207.412 241.908 219.073 243.402C216.983 239.289 214.739 235.265 212.355 231.361L212.493 231.319L212.457 231.26C190.824 237.678 165.03 240.833 137.484 240.872C109.938 240.833 84.1445 237.678 62.5112 231.26L62.4752 231.319L62.6138 231.361C60.2291 235.265 57.9856 239.289 55.8951 243.402C67.5562 241.908 80.1186 244.926 91.3046 251.879C76.6224 249.962 61.0022 253.315 47.57 262.361C45.6753 267.435 44.0178 272.56 42.6165 277.681C58.6153 273.282 78.1104 276.337 96.8789 286.01C75.6265 284.286 54.8122 290.645 39.4153 305.514C38.765 306.142 38.1294 306.78 37.5087 307.428C37.3545 309.909 37.2761 312.361 37.2761 314.776C37.2761 315.402 37.2813 316.024 37.2918 316.643C49.1437 314.94 61.9785 317.938 73.3827 325.028C61.8184 323.517 49.6722 325.277 38.4716 330.513C39.6529 337.985 41.687 344.858 44.4733 351.134C60.1102 347.452 78.8306 350.634 96.8791 359.937C82.1443 358.741 67.6201 361.431 54.9659 368.149C73.0373 390.107 103.243 401.008 137.484 401.099ZM137.484 237.138C203.095 237.044 257.606 219.085 268.996 182.678C267.97 181.549 266.902 180.446 265.79 179.373C250.106 164.227 228.902 157.749 207.252 159.505C229.14 148.224 251.998 145.778 269.371 153.447C268.139 148.308 266.297 143.073 263.897 137.835C262.376 136.502 260.78 135.226 259.109 134.013C244.997 123.76 228.265 119.905 212.583 121.953C223.937 114.895 236.683 111.818 248.525 113.302C233.056 94.0435 210.619 76.8939 184.226 67.0888C173.181 77.9908 164.925 93.1284 160.126 110.107C159.735 92.454 162.625 75.7152 168.348 62.2271L168.521 62.2692C160.865 60.4041 152.954 59.1723 144.849 58.683L137.484 122.467L130.119 58.683C122.015 59.1723 114.103 60.4041 106.447 62.2693L106.62 62.2272C112.343 75.7152 115.234 92.4541 114.842 110.107C110.043 93.1285 101.787 77.9908 90.7423 67.0888C64.3495 76.894 41.9125 94.0435 26.443 113.302C38.2856 111.818 51.0313 114.896 62.3849 121.954C46.7032 119.905 29.9711 123.76 15.8589 134.013C14.1887 135.226 12.5924 136.502 11.0711 137.835C8.67142 143.073 6.829 148.308 5.5971 153.447C22.9708 145.778 45.8286 148.224 67.7163 159.505C46.0664 157.749 24.8628 164.227 9.17792 179.373C8.06675 180.446 6.9981 181.549 5.97187 182.678C17.3621 219.085 71.8736 237.044 137.484 237.138ZM242.76 30.9833C225.061 22.7303 195.365 48.2597 185.523 63.5799C190.017 65.2481 194.397 67.1232 198.65 69.1802C198.049 68.8897 197.446 68.6029 196.841 68.3198C197.982 66.6548 199.389 64.9206 200.941 63.225C203.638 60.2779 206.961 57.2445 210.542 54.6475C214.102 52.0661 218.062 49.8112 222.03 48.5676C225.973 47.3315 230.341 46.9733 234.313 48.8252C238.284 50.6772 240.818 54.2536 242.406 58.0692C244.004 61.9081 244.821 66.3906 245.132 70.7771C245.445 75.19 245.257 79.6854 244.733 83.6459C244.218 87.5421 243.343 91.1854 242.137 93.7714C241.435 95.2761 240.537 96.6173 239.484 97.7967C242.46 100.694 245.284 103.682 247.943 106.74C250.081 104.779 251.826 102.449 253.074 99.7723C259.774 85.404 261.99 39.9505 242.76 30.9833ZM32.2083 30.9834C49.9069 22.7304 79.6037 48.2597 89.445 63.5799C84.9516 65.2482 80.5714 67.1232 76.3185 69.1802C76.919 68.8898 77.522 68.6029 78.1275 68.3198C76.9859 66.6548 75.5795 64.9206 74.0278 63.225C71.3306 60.2779 68.0076 57.2445 64.426 54.6476C60.8659 52.0662 56.9066 49.8113 52.9388 48.5676C48.9952 47.3315 44.6269 46.9733 40.6555 48.8253C36.684 50.6772 34.1505 54.2537 32.5625 58.0692C30.9647 61.9082 30.1471 66.3906 29.8362 70.7771C29.5234 75.19 29.7111 79.6854 30.235 83.6459C30.7504 87.5421 31.6256 91.1854 32.8315 93.7715C33.5331 95.2761 34.431 96.6173 35.4841 97.7968C32.5083 100.694 29.6841 103.682 27.0254 106.74C24.8876 104.779 23.1426 102.449 21.8945 99.7723C15.1945 85.404 12.9781 39.9506 32.2083 30.9834Z" fill="#08090C"/>
<path d="M89.445 63.5799C79.6037 48.2597 49.9069 22.7304 32.2083 30.9834C12.9781 39.9506 15.1945 85.404 21.8945 99.7723C23.1426 102.449 24.8876 104.779 27.0254 106.74C29.6841 103.682 32.5083 100.694 35.4841 97.7968C34.431 96.6173 33.5331 95.2761 32.8315 93.7715C31.6256 91.1854 30.7504 87.5421 30.235 83.6459C29.7111 79.6854 29.5234 75.19 29.8362 70.7771C30.1471 66.3906 30.9647 61.9082 32.5625 58.0692C34.1505 54.2537 36.684 50.6772 40.6555 48.8253C44.6269 46.9733 48.9952 47.3315 52.9388 48.5676C56.9066 49.8113 60.8659 52.0662 64.426 54.6476C68.0076 57.2445 71.3306 60.2779 74.0278 63.225C75.5795 64.9206 76.9859 66.6548 78.1275 68.3198C77.522 68.6029 76.919 68.8898 76.3185 69.1802C80.5714 67.1232 84.9516 65.2482 89.445 63.5799Z" fill="#313749"/>
<path d="M185.523 63.5799C195.365 48.2597 225.061 22.7303 242.76 30.9833C261.99 39.9505 259.774 85.404 253.074 99.7723C251.826 102.449 250.081 104.779 247.943 106.74C245.284 103.682 242.46 100.694 239.484 97.7967C240.537 96.6173 241.435 95.2761 242.137 93.7714C243.343 91.1854 244.218 87.5421 244.733 83.6459C245.257 79.6854 245.445 75.19 245.132 70.7771C244.821 66.3906 244.004 61.9081 242.406 58.0692C240.818 54.2536 238.284 50.6772 234.313 48.8252C230.341 46.9733 225.973 47.3315 222.03 48.5676C218.062 49.8112 214.102 52.0661 210.542 54.6475C206.961 57.2445 203.638 60.2779 200.941 63.225C199.389 64.9206 197.982 66.6548 196.841 68.3198C197.446 68.6029 198.049 68.8897 198.65 69.1802C194.397 67.1232 190.017 65.2481 185.523 63.5799Z" fill="#313749"/>
<path d="M137.484 237.138C203.095 237.044 257.606 219.085 268.996 182.678C267.97 181.549 266.902 180.446 265.79 179.373C250.106 164.227 228.902 157.749 207.252 159.505C229.14 148.224 251.998 145.778 269.371 153.447C268.139 148.308 266.297 143.073 263.897 137.835C262.376 136.502 260.78 135.226 259.109 134.013C244.997 123.76 228.265 119.905 212.583 121.953C223.937 114.895 236.683 111.818 248.525 113.302C233.056 94.0435 210.619 76.8939 184.226 67.0888C173.181 77.9908 164.925 93.1284 160.126 110.107C159.735 92.454 162.625 75.7152 168.348 62.2271L168.521 62.2692C160.865 60.4041 152.954 59.1723 144.849 58.683L137.484 122.467L130.119 58.683C122.015 59.1723 114.103 60.4041 106.447 62.2693L106.62 62.2272C112.343 75.7152 115.234 92.4541 114.842 110.107C110.043 93.1285 101.787 77.9908 90.7423 67.0888C64.3495 76.894 41.9125 94.0435 26.443 113.302C38.2856 111.818 51.0313 114.896 62.3849 121.954C46.7032 119.905 29.9711 123.76 15.8589 134.013C14.1887 135.226 12.5924 136.502 11.0711 137.835C8.67142 143.073 6.829 148.308 5.5971 153.447C22.9708 145.778 45.8286 148.224 67.7163 159.505C46.0664 157.749 24.8628 164.227 9.17792 179.373C8.06675 180.446 6.9981 181.549 5.97187 182.678C17.3621 219.085 71.8736 237.044 137.484 237.138Z" fill="#313749"/>
<path d="M137.484 401.099C171.726 401.008 201.931 390.107 220.002 368.149C207.348 361.431 192.824 358.741 178.089 359.937C196.138 350.634 214.858 347.452 230.495 351.134C233.281 344.858 235.315 337.985 236.497 330.512C225.296 325.277 213.15 323.517 201.586 325.028C212.99 317.938 225.825 314.94 237.677 316.643C237.687 316.024 237.692 315.402 237.692 314.776C237.692 312.361 237.614 309.909 237.46 307.428C236.839 306.78 236.203 306.142 235.553 305.514C220.156 290.645 199.342 284.286 178.089 286.01C196.858 276.337 216.353 273.281 232.352 277.681C230.951 272.56 229.293 267.434 227.398 262.361C213.966 253.315 198.346 249.961 183.664 251.879C194.85 244.925 207.412 241.908 219.073 243.402C216.983 239.289 214.739 235.265 212.355 231.361L212.493 231.319L212.457 231.26C190.824 237.678 165.03 240.833 137.484 240.872C109.938 240.833 84.1445 237.678 62.5112 231.26L62.4752 231.319L62.6138 231.361C60.2291 235.265 57.9856 239.289 55.8951 243.402C67.5562 241.908 80.1186 244.926 91.3046 251.879C76.6224 249.962 61.0022 253.315 47.57 262.361C45.6753 267.435 44.0178 272.56 42.6165 277.681C58.6153 273.282 78.1104 276.337 96.8789 286.01C75.6265 284.286 54.8122 290.645 39.4153 305.514C38.765 306.142 38.1294 306.78 37.5087 307.428C37.3545 309.909 37.2761 312.361 37.2761 314.776C37.2761 315.402 37.2813 316.024 37.2918 316.643C49.1437 314.94 61.9785 317.938 73.3827 325.028C61.8184 323.517 49.6722 325.277 38.4716 330.513C39.6529 337.985 41.687 344.858 44.4733 351.134C60.1102 347.452 78.8306 350.634 96.8791 359.937C82.1443 358.741 67.6201 361.431 54.9659 368.149C73.0373 390.107 103.243 401.008 137.484 401.099Z" fill="#313749"/>
<path d="M186.597 282.714C184.688 267.666 181.625 252.467 177.657 238.529C165.07 240.098 151.752 240.873 138.001 240.873C123.864 240.873 110.183 240.053 97.2838 238.395C93.3514 252.18 90.3043 267.205 88.384 282.101C88.384 282.101 88.384 282.101 88.384 282.101C88.2265 283.323 88.0765 284.544 87.9343 285.764C90.8978 285.685 93.884 285.767 96.8789 286.01C96.8789 286.01 96.8788 286.01 96.8789 286.01C93.884 285.767 90.8978 285.685 87.9343 285.764C86.7137 296.229 86.0612 306.576 86.0612 316.325C86.0612 332.074 87.7636 345.642 90.8135 357.051C91.0508 357.938 91.2962 358.812 91.5495 359.674C98.1274 382.034 110.088 395.595 124.508 400.528C128.894 400.909 133.369 401.099 137.915 401.099C142.038 401.099 146.102 400.943 150.095 400.63C164.64 395.785 176.715 382.206 183.341 359.716C183.523 359.099 183.7 358.475 183.874 357.844C183.899 357.754 183.924 357.663 183.948 357.573C184.245 356.484 184.529 355.376 184.801 354.249C184.801 354.245 184.802 354.242 184.803 354.238C187.404 343.432 188.842 330.799 188.842 316.325C188.842 306.567 188.188 296.212 186.965 285.737C186.833 284.598 186.693 283.458 186.547 282.317C186.564 282.449 186.58 282.582 186.597 282.714C186.597 282.714 186.597 282.714 186.597 282.714Z" fill="#919AB6"/>
<path fill-rule="evenodd" clip-rule="evenodd" d="M128.929 414.365C123.153 417.849 115.519 419.404 107.514 419.404C99.5093 419.404 91.8751 417.849 86.1 414.365C80.1644 410.784 76.1813 405.109 76.1813 397.484C76.1813 390.265 79.765 382.241 85.191 376.086C90.6467 369.897 98.4912 365.012 107.514 365.012C116.537 365.012 124.382 369.897 129.837 376.086C135.264 382.241 138.847 390.265 138.847 397.484C138.847 405.109 134.864 410.784 128.929 414.365ZM107.514 415.513C122.67 415.513 134.956 409.576 134.956 397.484C134.956 385.391 122.67 368.903 107.514 368.903C92.3584 368.903 80.0722 385.391 80.0722 397.484C80.0722 409.576 92.3584 415.513 107.514 415.513Z" fill="#08090C"/>
<path d="M134.956 397.484C134.956 409.576 122.67 415.513 107.514 415.513C92.3584 415.513 80.0722 409.576 80.0722 397.484C80.0722 385.391 92.3584 368.903 107.514 368.903C122.67 368.903 134.956 385.391 134.956 397.484Z" fill="#919AB6"/>
<path fill-rule="evenodd" clip-rule="evenodd" d="M188.785 414.365C183.01 417.849 175.376 419.404 167.371 419.404C159.366 419.404 151.732 417.849 145.957 414.365C140.021 410.784 136.038 405.11 136.038 397.484C136.038 390.265 139.622 382.241 145.048 376.086C150.504 369.897 158.348 365.012 167.371 365.012C176.394 365.012 184.239 369.897 189.694 376.086C195.12 382.241 198.704 390.265 198.704 397.484C198.704 405.11 194.721 410.784 188.785 414.365ZM167.371 415.513C182.527 415.513 194.813 409.576 194.813 397.484C194.813 385.391 182.527 368.903 167.371 368.903C152.215 368.903 139.929 385.391 139.929 397.484C139.929 409.576 152.215 415.513 167.371 415.513Z" fill="#08090C"/>
<path d="M194.813 397.484C194.813 409.576 182.527 415.513 167.371 415.513C152.215 415.513 139.929 409.576 139.929 397.484C139.929 385.391 152.215 368.903 167.371 368.903C182.527 368.903 194.813 385.391 194.813 397.484Z" fill="#919AB6"/>
<path d="M204.63 203.581C204.63 226.74 174.591 238.111 137.537 238.111C100.483 238.111 70.4441 226.74 70.4441 203.581C70.4441 180.422 100.483 148.845 137.537 148.845C174.591 148.845 204.63 180.422 204.63 203.581Z" fill="#919AB6"/>
<path d="M138.102 165.209C130.691 165.209 124.683 168.964 124.683 173.595C124.683 177.916 129.91 183.701 136.627 184.459L136.634 185.632C136.634 185.665 136.634 185.699 136.634 185.732C136.634 193.842 130.837 200.17 123.974 200.17C117.251 200.17 111.554 194.103 111.321 186.228L108.987 186.228C108.982 186.411 108.979 186.597 108.979 186.782V186.805C108.985 195.926 115.567 203.566 123.974 203.566C130.571 203.566 136.051 198.852 138.102 192.421C140.152 198.852 145.633 203.566 152.23 203.566C160.64 203.566 167.224 195.92 167.224 186.793C167.224 186.604 167.221 186.416 167.216 186.228L164.882 186.228C164.649 194.103 158.953 200.17 152.23 200.17C145.366 200.17 139.57 193.842 139.57 185.732C139.57 185.713 139.57 185.694 139.57 185.676C139.57 185.661 139.57 185.647 139.57 185.632L139.577 184.459C146.294 183.701 151.52 177.916 151.52 173.595C151.52 168.964 145.513 165.209 138.102 165.209Z" fill="#08090C"/>
<circle cx="96.9726" cy="136.083" r="19.8167" fill="#08090C"/>
<ellipse cx="4.12559" cy="6.10158" rx="4.12559" ry="6.10158" transform="matrix(0.909809 -0.415028 0.430286 0.902692 100.55 128.355)" fill="#ECF1FE"/>
<circle cx="181.656" cy="136.363" r="19.8167" fill="#08090C"/>
<ellipse cx="4.12559" cy="6.10158" rx="4.12559" ry="6.10158" transform="matrix(0.909809 -0.415028 0.430286 0.902692 185.23 128.355)" fill="#ECF1FE"/>
<path d="M173.895 177.862C182.685 178.33 194.425 180.31 207.062 183.696C219.698 187.082 230.855 191.237 238.702 195.227C233.711 190.443 221.994 184.929 207.754 181.113C193.513 177.298 180.609 176.214 173.895 177.862Z" fill="#08090C"/>
<path d="M173.48 171.344C181.317 169.521 192.102 168.395 204.007 168.395C215.912 168.395 226.697 169.521 234.534 171.344C229.021 168.015 217.423 165.721 204.007 165.721C190.591 165.721 178.993 168.015 173.48 171.344Z" fill="#08090C"/>
<path d="M173.214 184.386C180.606 186.549 190.088 190.724 199.933 196.408C209.779 202.092 218.135 208.217 223.704 213.537C220.81 208.021 212.365 200.498 201.27 194.092C190.176 187.687 179.438 184.135 173.214 184.386Z" fill="#08090C"/>
<path d="M102.159 177.862C93.3686 178.33 81.6295 180.31 68.9926 183.696C56.3556 187.082 45.1993 191.237 37.3524 195.227C42.3429 190.443 54.0603 184.929 68.3005 181.113C82.5406 177.297 95.4452 176.214 102.159 177.862Z" fill="#08090C"/>
<path d="M102.574 171.344C94.7373 169.521 83.9524 168.395 72.0471 168.395C60.1418 168.395 49.3569 169.521 41.5199 171.344C47.0332 168.015 58.6314 165.721 72.0471 165.721C85.4627 165.721 97.0609 168.015 102.574 171.344Z" fill="#08090C"/>
<path d="M102.84 184.386C95.448 186.549 85.9661 190.724 76.1207 196.408C66.2752 202.092 57.9193 208.216 52.3496 213.537C55.2445 208.021 63.6892 200.497 74.7837 194.092C85.8781 187.687 96.6163 184.135 102.84 184.386Z" fill="#08090C"/>
<path fill-rule="evenodd" clip-rule="evenodd" d="M23.4027 68.6036L26.7926 62.9274C49.2955 25.2474 90.4893 0 137.584 0C184.678 0 225.872 25.2474 248.375 62.9274L251.765 68.6036H23.4027ZM245.153 64.8513C244.398 63.5859 243.62 62.335 242.822 61.099C220.527 26.5927 181.722 3.75232 137.584 3.75232C93.445 3.75232 54.641 26.5927 32.3459 61.099C31.5473 62.335 30.7699 63.5859 30.0142 64.8513H245.153Z" fill="#08090C"/>
<path d="M242.822 61.099C243.62 62.335 244.398 63.5859 245.153 64.8513H30.0142C30.7699 63.5859 31.5473 62.335 32.3459 61.099C54.641 26.5927 93.445 3.75232 137.584 3.75232C181.722 3.75232 220.527 26.5927 242.822 61.099Z" fill="#4B63AA"/>
<path fill-rule="evenodd" clip-rule="evenodd" d="M6.18222 125.096C6.78323 104.267 12.2316 84.644 21.4402 67.3252C23.5374 63.3808 27.6489 61.1 31.9553 61.1H243.216C247.523 61.1 251.634 63.3809 253.731 67.3252C262.229 83.3063 267.525 101.25 268.764 120.294C269.217 127.262 263.523 132.709 256.869 132.709L13.6312 132.709C9.51543 132.709 6.05942 129.352 6.18222 125.096ZM24.7533 69.0868C26.1618 66.4377 28.9551 64.8523 31.9553 64.8523H243.216C246.216 64.8523 249.01 66.4377 250.418 69.0868C258.671 84.6089 263.815 102.036 265.02 120.538C265.322 125.18 261.521 128.956 256.869 128.956L13.6312 128.956C11.5589 128.956 9.87321 127.275 9.93298 125.204C10.5169 104.966 15.8094 85.9077 24.7533 69.0868Z" fill="#08090C"/>
<path d="M31.9553 64.8523C28.9551 64.8523 26.1618 66.4377 24.7533 69.0868C15.8094 85.9077 10.5169 104.966 9.93298 125.204C9.87321 127.275 11.5589 128.956 13.6312 128.956L256.869 128.956C261.521 128.956 265.322 125.18 265.02 120.538C263.815 102.036 258.671 84.6089 250.418 69.0868C249.01 66.4377 246.216 64.8523 243.216 64.8523H31.9553Z" fill="#4B63AA"/>
<path fill-rule="evenodd" clip-rule="evenodd" d="M180.911 55.5909H233.491V85.6329H180.911V55.5909ZM184.663 59.3432V81.8806H229.738V59.3432H184.663Z" fill="#08090C"/>
<path d="M184.663 59.3432H229.738V81.8806H184.663V59.3432Z" fill="#08090C"/>
<path fill-rule="evenodd" clip-rule="evenodd" d="M219.679 69.5243V63.2653L227.823 71.4141C228.254 71.8458 228.954 71.8458 229.385 71.4141L229.463 71.3359C229.895 70.9042 229.895 70.2042 229.463 69.7725L219.308 59.6104C218.93 59.2326 218.348 59.1854 217.919 59.4687C217.858 59.5092 217.799 59.5564 217.746 59.6104L217.667 59.6885L217.666 59.6902L207.59 69.7725C207.423 69.94 207.32 70.1479 207.283 70.3648C207.262 70.4497 207.251 70.5385 207.251 70.6298V70.7404C207.251 71.3509 207.745 71.8459 208.355 71.8459H215.595L207.59 79.8565C207.159 80.2882 207.159 80.9882 207.59 81.4199L207.668 81.4981C208.1 81.9298 208.799 81.9298 209.231 81.4981L217.359 73.3639V80.7175C217.359 81.328 217.854 81.823 218.464 81.823H218.575C219.185 81.823 219.679 81.328 219.679 80.7175V71.8459H223.712C224.322 71.8459 224.817 71.3509 224.817 70.7404V70.6298C224.817 70.0193 224.322 69.5243 223.712 69.5243H219.679ZM211.119 69.5243H217.359V63.2799L211.119 69.5243Z" fill="#4B63AA"/>
<path fill-rule="evenodd" clip-rule="evenodd" d="M204.937 60.3913C204.937 59.7812 205.431 59.2866 206.041 59.2866H206.151C206.761 59.2866 207.256 59.7812 207.256 60.3913V70.969L207.273 70.9865L207.256 71.0039V80.7182C207.256 81.3284 206.761 81.823 206.151 81.823H206.041C205.431 81.823 204.937 81.3284 204.937 80.7182V73.3239L196.773 81.491C196.342 81.9224 195.642 81.9224 195.211 81.491L185.06 71.3359C185.006 71.282 184.959 71.2239 184.919 71.1626C184.797 70.9781 184.736 70.765 184.737 70.5521C184.737 70.4823 184.744 70.4125 184.757 70.3438C184.797 70.1349 184.899 69.9354 185.06 69.7736L195.211 59.6185C195.642 59.1871 196.342 59.1871 196.773 59.6185L196.851 59.6967C197.009 59.855 197.109 60.0495 197.152 60.2535V69.3948H204.937V60.3913ZM194.833 69.3948H191.244C190.634 69.3948 190.139 69.8894 190.139 70.4995V70.61C190.139 71.2201 190.634 71.7147 191.244 71.7147H194.833V77.9522L187.499 70.6152L194.833 63.2782V69.3948ZM197.152 77.8313V71.7147H203.266L197.152 77.8313Z" fill="#4B63AA"/>
<path fill-rule="evenodd" clip-rule="evenodd" d="M450.611 119.688C456.386 116.204 464.02 114.648 472.025 114.648C480.03 114.648 487.665 116.204 493.44 119.688C499.375 123.269 503.358 128.943 503.358 136.569C503.358 143.787 499.775 151.811 494.349 157.967C488.893 164.156 481.048 169.04 472.025 169.04C463.002 169.04 455.158 164.156 449.702 157.967C444.276 151.811 440.692 143.787 440.692 136.569C440.692 128.943 444.676 123.269 450.611 119.688ZM472.025 118.539C456.87 118.539 444.583 124.476 444.583 136.569C444.583 148.661 456.87 165.149 472.025 165.149C487.181 165.149 499.467 148.661 499.467 136.569C499.467 124.476 487.181 118.539 472.025 118.539Z" fill="#08090C"/>
<path d="M444.583 136.569C444.583 124.476 456.87 118.539 472.025 118.539C487.181 118.539 499.467 124.476 499.467 136.569C499.467 148.661 487.181 165.149 472.025 165.149C456.87 165.149 444.583 148.661 444.583 136.569Z" fill="#919AB6"/>
<path fill-rule="evenodd" clip-rule="evenodd" d="M330.265 119.688C336.04 116.204 343.675 114.648 351.68 114.648C359.684 114.648 367.319 116.204 373.094 119.688C379.029 123.268 383.012 128.943 383.012 136.569C383.012 143.787 379.429 151.811 374.003 157.967C368.547 164.156 360.703 169.04 351.68 169.04C342.656 169.04 334.812 164.156 329.356 157.967C323.93 151.811 320.347 143.787 320.347 136.569C320.347 128.943 324.33 123.268 330.265 119.688ZM351.68 118.539C336.524 118.539 324.237 124.476 324.237 136.569C324.237 148.661 336.524 165.149 351.68 165.149C366.835 165.149 379.122 148.661 379.122 136.569C379.122 124.476 366.835 118.539 351.68 118.539Z" fill="#08090C"/>
<path d="M324.237 136.569C324.237 124.476 336.524 118.539 351.68 118.539C366.835 118.539 379.122 124.476 379.122 136.569C379.122 148.661 366.835 165.149 351.68 165.149C336.524 165.149 324.237 148.661 324.237 136.569Z" fill="#919AB6"/>
<path fill-rule="evenodd" clip-rule="evenodd" d="M367.71 154.333C354.632 151.013 343.671 149.215 334.553 148.987C323.158 148.702 312.057 150.821 303.993 158.457C295.775 166.24 294.086 176.535 294.06 184.535C294.033 192.509 295.668 201.219 297.16 208.762C297.382 209.883 297.605 210.995 297.825 212.094C299.19 218.918 300.456 225.258 301.15 231.509C301.953 238.733 301.827 244.647 300.589 249.439C299.441 253.88 297.298 257.58 293.282 260.779C290.445 263.039 286.285 265.351 280.152 267.289C272.536 269.695 266.755 277.21 268.255 285.744C269.71 294.02 277.788 300.083 286.41 297.658C296.799 294.736 305.508 290.54 312.532 284.945C322.287 277.174 327.843 267.457 330.501 257.169C333.069 247.231 332.857 237.1 331.857 228.098C331.001 220.394 329.447 212.648 328.106 205.962L328.092 205.888L328.091 205.886L328.089 205.874C327.875 204.81 327.668 203.774 327.468 202.764C325.901 194.848 324.94 189.068 324.955 184.637C324.962 182.419 325.217 181.315 325.373 180.854C326.07 180.526 328.337 179.736 333.781 179.872C339.684 180.02 347.955 181.235 359.334 184.084C367.456 186.117 376.005 181.569 378.403 173.336C380.778 165.185 376.12 156.468 367.71 154.333ZM325.493 180.577C325.494 180.578 325.483 180.601 325.457 180.639C325.478 180.594 325.491 180.575 325.493 180.577ZM349.868 154.451C355.011 155.313 360.629 156.52 366.76 158.076C372.962 159.65 376.485 166.113 374.695 172.256C372.906 178.399 366.479 181.892 360.272 180.338C353.162 178.557 347.174 177.387 342.15 176.715C343.039 174.979 343.863 173.241 344.622 171.504C342.812 173.205 340.879 174.817 338.825 176.327C337.038 176.153 335.392 176.05 333.877 176.012C325.539 175.803 323.093 177.602 322.581 178.086C322.184 178.462 321.109 179.773 321.093 184.624C321.092 184.88 321.094 185.138 321.099 185.401C313.52 187.829 305.666 188.7 298.016 188.08C297.951 186.887 297.918 185.708 297.922 184.547C297.947 176.99 299.551 167.983 306.648 161.261C307.189 160.75 307.746 160.265 308.32 159.807C323.127 163.896 337.492 163.475 349.124 158.09C349.409 156.871 349.657 155.657 349.868 154.451ZM298.108 189.497C305.871 193.732 314.202 196.025 322.309 196.177C322.266 195.925 322.224 195.675 322.183 195.428C322.592 197.901 323.101 200.589 323.679 203.514C323.881 204.533 324.09 205.577 324.304 206.644L324.305 206.646L324.306 206.651C324.559 207.913 324.818 209.205 325.078 210.522L325.005 210.151C317.968 213.477 310.47 215.739 302.723 216.953C302.364 215.1 301.99 213.229 301.611 211.337L301.6 211.279C301.384 210.198 301.166 209.109 300.949 208.013C299.77 202.056 298.56 195.629 298.108 189.497ZM304.393 226.524C304.62 228.049 304.82 229.567 304.989 231.083C305.816 238.528 305.732 244.969 304.328 250.405C302.991 255.578 300.421 260.03 295.688 263.8C292.413 266.409 287.808 268.92 281.315 270.971C281.288 270.98 281.261 270.989 281.234 270.997C285.912 277.96 291.412 284.196 297.607 289.508C302.314 287.354 306.481 284.828 310.126 281.924C315.055 277.998 318.821 273.546 321.628 268.76C313.115 269.044 304.314 267.276 295.904 263.627C297.552 262.288 298.932 260.864 300.085 259.354C309.454 258.788 318.861 256.334 327.692 251.907C329.054 244.2 328.857 236.401 328.086 229.143L328.086 229.149C320.509 229.475 312.519 228.582 304.393 226.524ZM287.637 293.271C284.728 286.445 282.454 279.004 280.899 271.11C275.021 273.168 270.976 278.918 272.059 285.075C273.167 291.377 279.204 295.672 285.364 293.94C286.132 293.724 286.89 293.501 287.637 293.271Z" fill="#08090C"/>
<path d="M280.899 271.11C282.454 279.004 284.728 286.445 287.637 293.271C286.89 293.501 286.132 293.724 285.364 293.94C279.204 295.672 273.167 291.377 272.059 285.075C270.976 278.918 275.021 273.168 280.899 271.11Z" fill="#313749"/>
<path d="M304.989 231.083C304.82 229.567 304.62 228.049 304.393 226.524C312.519 228.582 320.509 229.475 328.086 229.149L328.086 229.143C328.857 236.401 329.054 244.2 327.692 251.907C318.861 256.334 309.454 258.788 300.085 259.354C298.932 260.864 297.552 262.288 295.904 263.627C304.314 267.276 313.115 269.044 321.628 268.76C318.821 273.546 315.055 277.998 310.126 281.924C306.481 284.828 302.314 287.354 297.607 289.508C291.412 284.196 285.912 277.96 281.234 270.997C281.261 270.989 281.288 270.98 281.315 270.971C287.808 268.92 292.413 266.409 295.688 263.8C300.421 260.03 302.991 255.578 304.328 250.405C305.732 244.969 305.816 238.528 304.989 231.083Z" fill="#313749"/>
<path d="M322.309 196.177C314.202 196.025 305.871 193.732 298.108 189.497C298.56 195.629 299.77 202.056 300.949 208.013C301.166 209.109 301.384 210.198 301.6 211.279L301.611 211.337C301.99 213.229 302.364 215.1 302.723 216.953C310.47 215.739 317.968 213.477 325.005 210.151L325.078 210.522C324.818 209.205 324.559 207.913 324.306 206.651L324.305 206.646L324.304 206.644C324.09 205.577 323.881 204.533 323.679 203.514C323.101 200.589 322.592 197.901 322.183 195.428C322.224 195.675 322.266 195.925 322.309 196.177Z" fill="#313749"/>
<path d="M366.76 158.076C360.629 156.52 355.011 155.313 349.868 154.451C349.657 155.657 349.409 156.871 349.124 158.09C337.492 163.475 323.127 163.896 308.32 159.807C307.746 160.265 307.189 160.75 306.648 161.261C299.551 167.983 297.947 176.99 297.922 184.547C297.918 185.708 297.951 186.887 298.016 188.08C305.666 188.7 313.52 187.829 321.099 185.401C321.094 185.138 321.092 184.88 321.093 184.624C321.109 179.773 322.184 178.462 322.581 178.086C323.093 177.602 325.539 175.803 333.877 176.012C335.392 176.05 337.038 176.153 338.825 176.327C340.879 174.817 342.812 173.205 344.622 171.504C343.863 173.241 343.039 174.979 342.15 176.715C347.174 177.387 353.162 178.557 360.272 180.338C366.479 181.892 372.906 178.399 374.695 172.256C376.485 166.113 372.962 159.65 366.76 158.076Z" fill="#313749"/>
<path fill-rule="evenodd" clip-rule="evenodd" d="M368.232 453.709C382.108 458.436 397.001 461.181 412.516 461.241C428.031 461.181 442.923 458.436 456.8 453.708C458.835 457.018 461.68 460.661 464.988 464.276C469.527 469.236 475.125 474.345 481.146 478.711C487.146 483.062 493.713 486.781 500.188 488.81C506.638 490.832 513.42 491.3 519.436 488.495C525.452 485.69 529.453 480.193 532.05 473.953C534.658 467.688 536.03 460.267 536.554 452.875C537.079 445.455 536.764 437.883 535.882 431.218C535.009 424.619 533.546 418.641 531.632 414.535C530.125 411.303 528.026 408.536 525.49 406.238C540.816 387.607 550 366.693 550 347.935C550 322.791 533.58 304.462 508.54 292.621C503.178 290.086 497.393 287.831 491.245 285.853C506.97 259.689 516.539 228.307 516.539 201.176L516.538 200.984L516.539 200.792C516.539 170.736 504.785 148.03 485.608 132.929C466.644 117.996 440.74 110.74 412.516 110.667C384.291 110.74 358.388 117.996 339.424 132.929C320.247 148.03 308.493 170.736 308.493 200.792L308.493 200.984L308.493 201.176C308.493 228.307 318.062 259.689 333.787 285.853C327.638 287.831 321.854 290.086 316.492 292.621C291.452 304.462 275.032 322.791 275.032 347.935C275.032 366.693 284.216 387.607 299.542 406.238C297.006 408.536 294.907 411.303 293.4 414.535C291.485 418.641 290.022 424.619 289.15 431.218C288.268 437.883 287.952 445.455 288.478 452.875C289.002 460.267 290.374 467.688 292.981 473.953C295.579 480.193 299.58 485.69 305.596 488.495C311.611 491.3 318.394 490.832 324.844 488.81C331.318 486.781 337.885 483.062 343.885 478.711C349.907 474.345 355.505 469.236 360.043 464.276C363.352 460.661 366.197 457.018 368.232 453.709ZM412.516 114.853C378.274 114.944 348.069 125.845 329.998 147.803C342.652 154.52 357.176 157.211 371.911 156.015C353.862 165.317 335.142 168.5 319.505 164.818C316.719 171.094 314.685 177.967 313.503 185.439C324.704 190.675 336.85 192.435 348.414 190.924C337.01 198.014 324.175 201.012 312.323 199.309C312.313 199.928 312.308 200.55 312.308 201.176C312.308 203.591 312.386 206.043 312.54 208.524C313.161 209.172 313.797 209.81 314.447 210.438C329.844 225.307 350.658 231.666 371.911 229.942C353.142 239.615 333.647 242.67 317.648 238.271C319.049 243.392 320.707 248.517 322.602 253.59C336.034 262.637 351.654 265.99 366.336 264.073C355.15 271.026 342.588 274.044 330.927 272.55C333.017 276.662 335.261 280.687 337.645 284.59L337.507 284.633L337.543 284.692C359.176 278.274 384.97 275.118 412.516 275.079C440.062 275.118 465.855 278.274 487.489 284.692L487.525 284.633L487.386 284.59C489.771 280.687 492.014 276.662 494.105 272.55C482.444 274.044 469.881 271.026 458.695 264.073C473.378 265.99 488.998 262.637 502.43 253.59C504.325 248.517 505.982 243.392 507.383 238.271C491.385 242.67 471.89 239.615 453.121 229.942C474.373 231.666 495.188 225.307 510.585 210.438C511.235 209.81 511.871 209.172 512.491 208.524C512.646 206.043 512.724 203.591 512.724 201.176C512.724 200.55 512.719 199.928 512.708 199.309C500.856 201.012 488.021 198.014 476.617 190.924C488.182 192.435 500.328 190.675 511.528 185.439C510.347 177.967 508.313 171.094 505.527 164.818C489.89 168.5 471.169 165.317 453.121 156.015C467.856 157.211 482.38 154.52 495.034 147.803C476.963 125.845 446.757 114.944 412.516 114.853ZM412.516 278.814C346.905 278.908 292.394 296.867 281.004 333.274C282.03 334.403 283.098 335.505 284.21 336.578C299.894 351.725 321.098 358.203 342.748 356.447C320.86 367.728 298.002 370.173 280.629 362.505C281.861 367.644 283.703 372.879 286.103 378.117C287.624 379.45 289.22 380.726 290.891 381.939C305.003 392.192 321.735 396.047 337.417 393.998C326.063 401.056 313.317 404.134 301.475 402.65C316.944 421.908 339.381 439.058 365.774 448.863C376.819 437.961 385.075 422.823 389.874 405.845C390.265 423.498 387.375 440.237 381.652 453.725L381.479 453.683C389.135 455.548 397.046 456.78 405.151 457.269L412.516 393.485L419.881 457.269C427.985 456.78 435.897 455.548 443.553 453.683L443.38 453.725C437.657 440.237 434.766 423.498 435.158 405.845C439.957 422.823 448.213 437.961 459.258 448.863C485.65 439.058 508.088 421.908 523.557 402.65C511.714 404.134 498.969 401.056 487.615 393.998C503.297 396.047 520.029 392.192 534.141 381.939C535.811 380.726 537.408 379.45 538.929 378.117C541.329 372.879 543.171 367.644 544.403 362.505C527.029 370.173 504.171 367.728 482.284 356.447C503.934 358.203 525.137 351.725 540.822 336.578C541.933 335.505 543.002 334.403 544.028 333.274C532.638 296.867 478.126 278.908 412.516 278.814ZM307.24 484.968C324.939 493.222 354.635 467.692 364.477 452.372C359.983 450.704 355.603 448.829 351.35 446.772C351.951 447.062 352.554 447.349 353.159 447.632C352.018 449.297 350.611 451.031 349.059 452.727C346.362 455.674 343.039 458.707 339.458 461.304C335.898 463.886 331.938 466.141 327.97 467.384C324.027 468.62 319.659 468.979 315.687 467.127C311.716 465.275 309.182 461.698 307.594 457.883C305.996 454.044 305.179 449.561 304.868 445.175C304.555 440.762 304.743 436.266 305.267 432.306C305.782 428.41 306.657 424.766 307.863 422.18C308.565 420.676 309.463 419.335 310.516 418.155C307.54 415.257 304.716 412.269 302.057 409.212C299.919 411.173 298.174 413.503 296.926 416.18C290.226 430.548 288.01 476.001 307.24 484.968ZM517.792 484.968C500.093 493.221 470.396 467.692 460.555 452.372C465.048 450.704 469.429 448.829 473.681 446.772C473.081 447.062 472.478 447.349 471.873 447.632C473.014 449.297 474.42 451.031 475.972 452.727C478.669 455.674 481.992 458.707 485.574 461.304C489.134 463.886 493.093 466.141 497.061 467.384C501.005 468.62 505.373 468.979 509.345 467.127C513.316 465.275 515.85 461.698 517.438 457.883C519.035 454.044 519.853 449.561 520.164 445.175C520.477 440.762 520.289 436.266 519.765 432.306C519.25 428.41 518.374 424.766 517.169 422.18C516.467 420.676 515.569 419.335 514.516 418.155C517.492 415.257 520.316 412.269 522.975 409.212C525.112 411.173 526.857 413.503 528.105 416.18C534.806 430.548 537.022 476.001 517.792 484.968Z" fill="#08090C"/>
<path d="M460.555 452.372C470.396 467.692 500.093 493.221 517.792 484.968C537.022 476.001 534.806 430.548 528.105 416.18C526.857 413.503 525.112 411.173 522.975 409.212C520.316 412.269 517.492 415.257 514.516 418.155C515.569 419.335 516.467 420.676 517.169 422.18C518.374 424.766 519.25 428.41 519.765 432.306C520.289 436.266 520.477 440.762 520.164 445.175C519.853 449.561 519.035 454.044 517.438 457.883C515.85 461.698 513.316 465.275 509.345 467.127C505.373 468.979 501.005 468.62 497.061 467.384C493.093 466.141 489.134 463.886 485.574 461.304C481.992 458.707 478.669 455.674 475.972 452.727C474.42 451.031 473.014 449.297 471.873 447.632C472.478 447.349 473.081 447.062 473.681 446.772C469.429 448.829 465.048 450.704 460.555 452.372Z" fill="#313749"/>
<path d="M364.477 452.372C354.635 467.692 324.939 493.222 307.24 484.968C288.01 476.001 290.226 430.548 296.926 416.18C298.174 413.503 299.919 411.173 302.057 409.212C304.716 412.269 307.54 415.257 310.516 418.155C309.463 419.335 308.565 420.676 307.863 422.18C306.657 424.766 305.782 428.41 305.267 432.306C304.743 436.266 304.555 440.762 304.868 445.175C305.179 449.561 305.996 454.044 307.594 457.883C309.182 461.698 311.716 465.275 315.687 467.127C319.659 468.979 324.027 468.62 327.97 467.384C331.938 466.141 335.898 463.886 339.458 461.304C343.039 458.707 346.362 455.674 349.059 452.727C350.611 451.031 352.018 449.297 353.159 447.632C352.554 447.349 351.951 447.062 351.35 446.772C355.603 448.829 359.983 450.704 364.477 452.372Z" fill="#313749"/>
<path d="M412.516 278.814C346.905 278.908 292.394 296.867 281.004 333.274C282.03 334.403 283.098 335.505 284.21 336.578C299.894 351.725 321.098 358.203 342.748 356.447C320.86 367.728 298.002 370.173 280.629 362.505C281.861 367.644 283.703 372.879 286.103 378.117C287.624 379.45 289.22 380.726 290.891 381.939C305.003 392.192 321.735 396.047 337.417 393.998C326.063 401.056 313.317 404.134 301.475 402.65C316.944 421.908 339.381 439.058 365.774 448.863C376.819 437.961 385.075 422.823 389.874 405.845C390.265 423.498 387.375 440.237 381.652 453.725L381.479 453.683C389.135 455.548 397.046 456.78 405.151 457.269L412.516 393.485L419.881 457.269C427.985 456.78 435.897 455.548 443.553 453.683L443.38 453.725C437.657 440.237 434.766 423.498 435.158 405.845C439.957 422.823 448.213 437.961 459.258 448.863C485.65 439.058 508.088 421.908 523.557 402.65C511.714 404.134 498.969 401.056 487.615 393.998C503.297 396.047 520.029 392.192 534.141 381.939C535.811 380.726 537.408 379.45 538.929 378.117C541.329 372.879 543.171 367.644 544.403 362.505C527.029 370.173 504.171 367.728 482.284 356.447C503.934 358.203 525.137 351.725 540.822 336.578C541.933 335.505 543.002 334.403 544.028 333.274C532.638 296.867 478.126 278.908 412.516 278.814Z" fill="#313749"/>
<path d="M412.516 114.853C378.274 114.944 348.069 125.845 329.998 147.803C342.652 154.52 357.176 157.211 371.911 156.015C353.862 165.317 335.142 168.5 319.505 164.818C316.719 171.094 314.685 177.967 313.503 185.439C324.704 190.675 336.85 192.435 348.414 190.924C337.01 198.014 324.175 201.012 312.323 199.309C312.313 199.928 312.308 200.55 312.308 201.176C312.308 203.591 312.386 206.043 312.54 208.524C313.161 209.172 313.797 209.81 314.447 210.438C329.844 225.307 350.658 231.666 371.911 229.942C353.142 239.615 333.647 242.67 317.648 238.271C319.049 243.392 320.707 248.517 322.602 253.59C336.034 262.637 351.654 265.99 366.336 264.073C355.15 271.026 342.588 274.044 330.927 272.55C333.017 276.662 335.261 280.687 337.645 284.59L337.507 284.633L337.543 284.692C359.176 278.274 384.97 275.118 412.516 275.079C440.062 275.118 465.855 278.274 487.489 284.692L487.525 284.633L487.386 284.59C489.771 280.687 492.014 276.662 494.105 272.55C482.444 274.044 469.881 271.026 458.695 264.073C473.378 265.99 488.998 262.637 502.43 253.59C504.325 248.517 505.982 243.392 507.383 238.271C491.385 242.67 471.89 239.615 453.121 229.942C474.373 231.666 495.188 225.307 510.585 210.438C511.235 209.81 511.871 209.172 512.491 208.524C512.646 206.043 512.724 203.591 512.724 201.176C512.724 200.55 512.719 199.928 512.708 199.309C500.856 201.012 488.021 198.014 476.617 190.924C488.182 192.435 500.328 190.675 511.528 185.439C510.347 177.967 508.313 171.094 505.527 164.818C489.89 168.5 471.169 165.317 453.121 156.015C467.856 157.211 482.38 154.52 495.034 147.803C476.963 125.845 446.757 114.944 412.516 114.853Z" fill="#313749"/>
<path d="M363.403 233.238C365.312 248.286 368.375 263.485 372.343 277.423C384.93 275.854 398.248 275.079 411.999 275.079C426.136 275.079 439.817 275.899 452.716 277.557C456.649 263.772 459.696 248.747 461.616 233.851C461.616 233.851 461.616 233.851 461.616 233.851C461.774 232.629 461.924 231.408 462.066 230.188C459.102 230.267 456.116 230.185 453.121 229.942C453.121 229.942 453.121 229.942 453.121 229.942C456.116 230.185 459.102 230.267 462.066 230.188C463.286 219.722 463.939 209.376 463.939 199.627C463.939 183.878 462.236 170.31 459.187 158.901C458.949 158.014 458.704 157.139 458.451 156.278C451.873 133.918 439.912 120.357 425.492 115.424C421.106 115.043 416.631 114.853 412.085 114.853C407.962 114.853 403.898 115.009 399.906 115.322C385.36 120.166 373.285 133.746 366.659 156.236C366.477 156.853 366.3 157.477 366.126 158.108C366.101 158.198 366.076 158.289 366.052 158.379C365.755 159.467 365.471 160.575 365.199 161.703C365.199 161.707 365.198 161.71 365.197 161.714C362.596 172.52 361.158 185.153 361.158 199.627C361.158 209.385 361.812 219.74 363.035 230.215C363.167 231.354 363.307 232.494 363.453 233.635C363.436 233.502 363.42 233.37 363.403 233.238C363.403 233.238 363.403 233.238 363.403 233.238Z" fill="#919AB6"/>
<path fill-rule="evenodd" clip-rule="evenodd" d="M421.071 101.587C426.847 98.1033 434.481 96.5479 442.486 96.5479C450.491 96.5479 458.125 98.1033 463.9 101.587C469.836 105.168 473.819 110.842 473.819 118.468C473.819 125.686 470.235 133.711 464.809 139.866C459.353 146.055 451.509 150.94 442.486 150.94C433.463 150.94 425.618 146.055 420.163 139.866C414.737 133.711 411.153 125.686 411.153 118.468C411.153 110.842 415.136 105.168 421.071 101.587ZM442.486 100.439C427.33 100.439 415.044 106.376 415.044 118.468C415.044 130.561 427.33 147.049 442.486 147.049C457.642 147.049 469.928 130.561 469.928 118.468C469.928 106.376 457.642 100.439 442.486 100.439Z" fill="#08090C"/>
<path d="M415.044 118.468C415.044 106.376 427.33 100.439 442.486 100.439C457.642 100.439 469.928 106.376 469.928 118.468C469.928 130.561 457.642 147.049 442.486 147.049C427.33 147.049 415.044 130.561 415.044 118.468Z" fill="#919AB6"/>
<path fill-rule="evenodd" clip-rule="evenodd" d="M361.215 101.587C366.99 98.1033 374.624 96.5479 382.629 96.5479C390.634 96.5479 398.268 98.1033 404.043 101.587C409.979 105.168 413.962 110.842 413.962 118.468C413.962 125.686 410.378 133.711 404.952 139.866C399.497 146.055 391.652 150.94 382.629 150.94C373.606 150.94 365.761 146.055 360.306 139.866C354.88 133.711 351.296 125.686 351.296 118.468C351.296 110.842 355.279 105.168 361.215 101.587ZM382.629 100.439C367.473 100.439 355.187 106.376 355.187 118.468C355.187 130.561 367.473 147.049 382.629 147.049C397.785 147.049 410.071 130.561 410.071 118.468C410.071 106.376 397.785 100.439 382.629 100.439Z" fill="#08090C"/>
<path d="M355.187 118.468C355.187 106.376 367.473 100.439 382.629 100.439C397.785 100.439 410.071 106.376 410.071 118.468C410.071 130.561 397.785 147.049 382.629 147.049C367.473 147.049 355.187 130.561 355.187 118.468Z" fill="#919AB6"/>
<path d="M345.37 312.371C345.37 289.212 375.409 277.841 412.463 277.841C449.517 277.841 479.556 289.212 479.556 312.371C479.556 335.53 449.517 367.107 412.463 367.107C375.409 367.107 345.37 335.53 345.37 312.371Z" fill="#919AB6"/>
<path d="M411.898 350.743C419.309 350.743 425.317 346.988 425.317 342.356C425.317 338.036 420.09 332.251 413.373 331.492L413.366 330.319C413.366 330.286 413.366 330.253 413.366 330.22C413.366 322.109 419.163 315.782 426.026 315.782C432.749 315.782 438.446 321.849 438.679 329.724L441.013 329.724C441.018 329.54 441.021 329.355 441.021 329.17V329.147C441.015 320.025 434.433 312.386 426.026 312.386C419.429 312.386 413.949 317.1 411.898 323.53C409.848 317.1 404.367 312.386 397.77 312.386C389.36 312.386 382.776 320.032 382.776 329.159C382.776 329.348 382.779 329.536 382.784 329.724L385.118 329.724C385.351 321.849 391.047 315.782 397.77 315.782C404.634 315.782 410.43 322.109 410.43 330.22C410.43 330.239 410.43 330.257 410.43 330.276C410.43 330.291 410.43 330.305 410.43 330.319L410.423 331.492C403.706 332.251 398.48 338.036 398.48 342.356C398.48 346.988 404.487 350.743 411.898 350.743Z" fill="#08090C"/>
<circle cx="453.027" cy="379.868" r="19.8167" transform="rotate(-180 453.027 379.868)" fill="#08090C"/>
<ellipse cx="4.12559" cy="6.10158" rx="4.12559" ry="6.10158" transform="matrix(-0.909809 0.415028 -0.430286 -0.902692 449.45 387.597)" fill="#ECF1FE"/>
<circle cx="368.344" cy="379.589" r="19.8167" transform="rotate(-180 368.344 379.589)" fill="#08090C"/>
<ellipse cx="4.12559" cy="6.10158" rx="4.12559" ry="6.10158" transform="matrix(-0.909809 0.415028 -0.430286 -0.902692 364.77 387.597)" fill="#ECF1FE"/>
<path d="M376.105 338.09C367.315 337.622 355.575 335.642 342.939 332.256C330.302 328.87 319.145 324.715 311.298 320.725C316.289 325.509 328.006 331.023 342.246 334.839C356.487 338.654 369.391 339.738 376.105 338.09Z" fill="#08090C"/>
<path d="M376.52 344.608C368.683 346.431 357.898 347.556 345.993 347.556C334.088 347.556 323.303 346.431 315.466 344.608C320.979 347.937 332.578 350.231 345.993 350.231C359.409 350.231 371.007 347.937 376.52 344.608Z" fill="#08090C"/>
<path d="M376.786 331.566C369.394 329.402 359.912 325.228 350.067 319.544C340.221 313.86 331.865 307.735 326.296 302.415C329.19 307.93 337.635 315.454 348.73 321.86C359.824 328.265 370.562 331.816 376.786 331.566Z" fill="#08090C"/>
<path d="M447.841 338.09C456.631 337.622 468.37 335.642 481.007 332.256C493.644 328.87 504.801 324.715 512.648 320.725C507.657 325.509 495.94 331.023 481.7 334.839C467.459 338.654 454.555 339.738 447.841 338.09Z" fill="#08090C"/>
<path d="M447.426 344.608C455.263 346.431 466.048 347.557 477.953 347.557C489.858 347.557 500.643 346.431 508.48 344.608C502.967 347.937 491.369 350.231 477.953 350.231C464.537 350.231 452.939 347.937 447.426 344.608Z" fill="#08090C"/>
<path d="M447.16 331.566C454.552 329.403 464.034 325.228 473.879 319.544C483.725 313.86 492.081 307.735 497.65 302.415C494.756 307.93 486.311 315.454 475.216 321.86C464.122 328.265 453.384 331.817 447.16 331.566Z" fill="#08090C"/>
<path fill-rule="evenodd" clip-rule="evenodd" d="M526.597 447.348L523.207 453.024C500.704 490.704 459.511 515.952 412.416 515.952C365.322 515.952 324.128 490.704 301.625 453.024L298.235 447.348H526.597ZM304.847 451.101C305.602 452.366 306.38 453.617 307.178 454.853C329.473 489.359 368.278 512.2 412.416 512.2C456.555 512.2 495.359 489.359 517.654 454.853C518.453 453.617 519.23 452.366 519.986 451.101H304.847Z" fill="#08090C"/>
<path d="M307.178 454.853C306.38 453.617 305.602 452.366 304.847 451.101H519.986C519.23 452.366 518.453 453.617 517.654 454.853C495.359 489.359 456.555 512.2 412.416 512.2C368.278 512.2 329.473 489.359 307.178 454.853Z" fill="#3BA99C"/>
<path fill-rule="evenodd" clip-rule="evenodd" d="M543.818 390.856C543.217 411.685 537.768 431.308 528.56 448.627C526.463 452.571 522.351 454.852 518.045 454.852L306.784 454.852C302.477 454.852 298.366 452.571 296.269 448.627C287.771 432.646 282.475 414.702 281.236 395.658C280.783 388.69 286.477 383.243 293.131 383.243L536.369 383.243C540.485 383.243 543.941 386.6 543.818 390.856ZM525.247 446.865C523.838 449.514 521.045 451.1 518.045 451.1L306.784 451.1C303.784 451.1 300.99 449.514 299.582 446.865C291.328 431.343 286.184 413.916 284.98 395.414C284.678 390.772 288.479 386.996 293.131 386.996L536.369 386.996C538.441 386.996 540.127 388.676 540.067 390.748C539.483 410.986 534.191 430.044 525.247 446.865Z" fill="#08090C"/>
<path d="M518.045 451.1C521.045 451.1 523.838 449.514 525.247 446.865C534.191 430.044 539.483 410.986 540.067 390.748C540.127 388.676 538.441 386.996 536.369 386.996L293.131 386.996C288.479 386.996 284.678 390.772 284.98 395.414C286.184 413.916 291.328 431.343 299.582 446.865C300.99 449.514 303.784 451.1 306.784 451.1L518.045 451.1Z" fill="#3BA99C"/>
<path fill-rule="evenodd" clip-rule="evenodd" d="M369.089 460.361H316.509V430.319H369.089V460.361ZM365.337 456.609V434.071H320.262V456.609H365.337Z" fill="#08090C"/>
<path d="M365.337 456.609H320.262V434.071H365.337V456.609Z" fill="#08090C"/>
<path fill-rule="evenodd" clip-rule="evenodd" d="M330.321 446.428V452.687L322.177 444.538C321.746 444.106 321.046 444.106 320.615 444.538L320.537 444.616C320.105 445.048 320.105 445.748 320.537 446.179L330.692 456.342C331.07 456.719 331.652 456.767 332.081 456.483C332.142 456.443 332.201 456.396 332.254 456.342L332.333 456.263L332.334 456.262L342.41 446.179C342.577 446.012 342.68 445.804 342.717 445.587C342.738 445.502 342.749 445.413 342.749 445.322V445.212C342.749 444.601 342.255 444.106 341.645 444.106H334.405L342.41 436.095C342.841 435.664 342.841 434.964 342.41 434.532L342.332 434.454C341.9 434.022 341.201 434.022 340.769 434.454L332.641 442.588V435.234C332.641 434.624 332.146 434.129 331.536 434.129H331.425C330.815 434.129 330.321 434.624 330.321 435.234V444.106H326.288C325.678 444.106 325.183 444.601 325.183 445.212V445.322C325.183 445.933 325.678 446.428 326.288 446.428H330.321ZM338.881 446.428H332.641V452.672L338.881 446.428Z" fill="#3BA99C"/>
<path fill-rule="evenodd" clip-rule="evenodd" d="M345.063 455.561C345.063 456.171 344.569 456.665 343.959 456.665H343.849C343.239 456.665 342.744 456.171 342.744 455.561V444.983L342.727 444.965L342.744 444.948V435.234C342.744 434.624 343.239 434.129 343.849 434.129H343.959C344.569 434.129 345.063 434.624 345.063 435.234V442.628L353.227 434.461C353.658 434.029 354.358 434.029 354.789 434.461L364.94 444.616C364.994 444.67 365.041 444.728 365.081 444.789C365.203 444.974 365.264 445.187 365.263 445.4C365.263 445.47 365.256 445.539 365.243 445.608C365.203 445.817 365.101 446.017 364.94 446.178L354.789 456.333C354.358 456.765 353.658 456.765 353.227 456.333L353.149 456.255C352.991 456.097 352.891 455.902 352.848 455.698V446.557H345.063V455.561ZM355.167 446.557H358.756C359.366 446.557 359.861 446.062 359.861 445.452V445.342C359.861 444.732 359.366 444.237 358.756 444.237H355.167V438L362.501 445.337L355.167 452.674V446.557ZM352.848 438.121V444.237H346.734L352.848 438.121Z" fill="#3BA99C"/>
</svg>
