<svg width="550" height="518" viewBox="0 0 550 518" fill="none" xmlns="http://www.w3.org/2000/svg">
<path fill-rule="evenodd" clip-rule="evenodd" d="M99.6688 397.38C93.8774 400.874 86.2217 402.434 78.1942 402.434C70.1668 402.434 62.511 400.874 56.7196 397.38C50.7673 393.789 46.773 388.099 46.773 380.452C46.773 373.213 50.3668 365.166 55.8081 358.994C61.2792 352.787 69.1457 347.889 78.1942 347.889C87.2427 347.889 95.1093 352.787 100.58 358.994C106.022 365.166 109.615 373.213 109.615 380.452C109.615 388.099 105.621 393.789 99.6688 397.38ZM78.1942 398.532C93.3927 398.532 105.714 392.578 105.714 380.452C105.714 368.325 93.3927 351.791 78.1942 351.791C62.9957 351.791 50.6749 368.325 50.6749 380.452C50.6749 392.578 62.9957 398.532 78.1942 398.532Z" fill="#090C09"/>
<path d="M105.714 380.452C105.714 392.578 93.3927 398.532 78.1942 398.532C62.9957 398.532 50.6749 392.578 50.6749 380.452C50.6749 368.325 62.9957 351.791 78.1942 351.791C93.3927 351.791 105.714 368.325 105.714 380.452Z" fill="#ECF1FE"/>
<path fill-rule="evenodd" clip-rule="evenodd" d="M220.354 397.38C214.562 400.874 206.906 402.434 198.879 402.434C190.852 402.434 183.196 400.874 177.404 397.38C171.452 393.789 167.458 388.099 167.458 380.452C167.458 373.213 171.052 365.166 176.493 358.994C181.964 352.787 189.831 347.889 198.879 347.889C207.928 347.889 215.794 352.787 221.265 358.994C226.706 365.166 230.3 373.213 230.3 380.452C230.3 388.099 226.306 393.789 220.354 397.38ZM198.879 398.532C214.078 398.532 226.398 392.578 226.398 380.452C226.398 368.325 214.078 351.791 198.879 351.791C183.681 351.791 171.36 368.325 171.36 380.452C171.36 392.578 183.681 398.532 198.879 398.532Z" fill="#090C09"/>
<path d="M226.398 380.452C226.398 392.578 214.078 398.532 198.879 398.532C183.681 398.532 171.36 392.578 171.36 380.452C171.36 368.325 183.681 351.791 198.879 351.791C214.078 351.791 226.398 368.325 226.398 380.452Z" fill="#ECF1FE"/>
<path fill-rule="evenodd" clip-rule="evenodd" d="M137.871 54.8653C153.43 54.9252 168.364 57.6777 182.28 62.4186C184.321 59.1001 187.174 55.4461 190.492 51.8209C195.043 46.8478 200.657 41.724 206.695 37.3454C212.712 32.9828 219.298 29.253 225.79 27.2178C232.259 25.1904 239.06 24.7212 245.093 27.5343C251.126 30.3474 255.138 35.8592 257.743 42.1173C260.357 48.3995 261.733 55.8417 262.259 63.255C262.786 70.6952 262.469 78.2891 261.585 84.9723C260.71 91.5896 259.243 97.5848 257.323 101.702C255.812 104.943 253.707 107.719 251.164 110.023C266.533 128.706 275.743 149.679 275.743 168.49C275.743 193.704 259.277 212.085 234.166 223.959C228.789 226.502 222.988 228.763 216.822 230.747C219.889 235.851 222.723 241.153 225.298 246.583C228.377 241.146 232.577 236.087 238.137 231.658C245.181 226.047 253.914 221.839 264.333 218.909C272.979 216.477 281.08 222.557 282.538 230.856C284.043 239.414 278.246 246.951 270.608 249.364C264.458 251.306 260.286 253.625 257.441 255.891C253.414 259.099 251.265 262.811 250.114 267.263C248.872 272.069 248.746 278 249.55 285.244C250.247 291.513 251.516 297.871 252.886 304.713C253.106 305.816 253.329 306.931 253.552 308.055C255.049 315.619 256.688 324.354 256.661 332.351C256.634 340.373 254.941 350.697 246.7 358.502C241.261 363.652 234.444 366.3 227.086 367.395C222.622 373.726 217.27 379.298 211.169 384.102C192.152 399.077 166.175 406.353 137.871 406.426C109.567 406.353 83.5913 399.077 64.5735 384.102C45.3423 368.958 33.5557 346.188 33.5557 316.048L33.5559 315.855L33.5557 315.662C33.5557 288.455 43.1517 256.985 58.9209 230.747C52.7549 228.763 46.9538 226.502 41.5771 223.959C16.4662 212.085 0 193.705 0 168.49C0 149.679 9.21021 128.706 24.5789 110.023C22.0361 107.719 19.9313 104.943 18.4199 101.702C16.4999 97.5848 15.0331 91.5897 14.1577 84.9723C13.2736 78.2891 12.9569 70.6953 13.4843 63.255C14.0097 55.8417 15.3856 48.3995 18.0002 42.1174C20.6048 35.8592 24.6173 30.3475 30.65 27.5344C36.6827 24.7213 43.4841 25.1904 49.9524 27.2178C56.4454 29.253 63.0308 32.9828 69.0475 37.3454C75.086 41.724 80.6997 46.8478 85.251 51.8209C88.5688 55.4461 91.4221 59.1001 93.4628 62.4187C107.378 57.6777 122.313 54.9253 137.871 54.8653Z" fill="#506A4D"/>
<path fill-rule="evenodd" clip-rule="evenodd" d="M137.871 54.8653C153.43 54.9252 168.364 57.6777 182.28 62.4186C184.321 59.1001 187.174 55.4461 190.492 51.8209C195.043 46.8478 200.657 41.724 206.695 37.3454C212.712 32.9828 219.298 29.253 225.79 27.2178C232.259 25.1904 239.06 24.7212 245.093 27.5343C251.126 30.3474 255.138 35.8592 257.743 42.1173C260.357 48.3995 261.733 55.8417 262.259 63.255C262.786 70.6952 262.469 78.2891 261.585 84.9723C260.71 91.5896 259.243 97.5848 257.323 101.702C255.812 104.943 253.707 107.719 251.164 110.023C266.533 128.706 275.743 149.679 275.743 168.49C275.743 193.704 259.277 212.085 234.166 223.959C228.789 226.502 222.988 228.763 216.822 230.747C219.889 235.851 222.723 241.153 225.298 246.583C228.377 241.146 232.577 236.087 238.137 231.658C245.181 226.047 253.914 221.839 264.333 218.909C272.979 216.477 281.08 222.557 282.538 230.856C284.043 239.414 278.246 246.951 270.608 249.364C264.458 251.306 260.286 253.625 257.441 255.891C253.414 259.099 251.265 262.811 250.114 267.263C248.872 272.069 248.746 278 249.55 285.244C250.247 291.513 251.516 297.871 252.886 304.713C253.106 305.816 253.329 306.931 253.552 308.055C255.049 315.619 256.688 324.354 256.661 332.351C256.634 340.373 254.941 350.697 246.7 358.502C241.261 363.652 234.444 366.3 227.086 367.395C222.622 373.726 217.27 379.298 211.169 384.102C192.152 399.077 166.175 406.353 137.871 406.426C109.567 406.353 83.5913 399.077 64.5735 384.102C45.3423 368.958 33.5557 346.188 33.5557 316.048L33.5559 315.855L33.5557 315.662C33.5557 288.455 43.1517 256.985 58.9209 230.747C52.7549 228.763 46.9538 226.502 41.5771 223.959C16.4662 212.085 0 193.705 0 168.49C0 149.679 9.21021 128.706 24.5789 110.023C22.0361 107.719 19.9313 104.943 18.4199 101.702C16.4999 97.5848 15.0331 91.5897 14.1577 84.9723C13.2736 78.2891 12.9569 70.6953 13.4843 63.255C14.0097 55.8417 15.3856 48.3995 18.0002 42.1174C20.6048 35.8592 24.6173 30.3475 30.65 27.5344C36.6827 24.7213 43.4841 25.1904 49.9524 27.2178C56.4454 29.253 63.0308 32.9828 69.0475 37.3454C75.086 41.724 80.6997 46.8478 85.251 51.8209C88.5688 55.4461 91.4221 59.1001 93.4628 62.4187C107.378 57.6777 122.313 54.9253 137.871 54.8653ZM233.89 355.698C233.949 355.573 234.008 355.447 234.067 355.321C236.806 355.769 239.575 356.379 242.361 357.148C242.936 356.688 243.495 356.203 244.037 355.69C251.155 348.949 252.763 339.916 252.788 332.338C252.792 331.174 252.758 329.992 252.693 328.795C248.967 328.493 245.193 328.544 241.425 328.955C240.23 338.791 237.655 347.709 233.89 355.698ZM241.973 322.977C241.975 322.948 241.977 322.92 241.979 322.891C245.586 323.991 249.15 325.492 252.602 327.375C252.148 321.225 250.935 314.78 249.753 308.807C249.535 307.707 249.317 306.616 249.1 305.531L249.088 305.473C248.708 303.575 248.333 301.699 247.974 299.841C245.739 300.191 243.525 300.628 241.337 301.153C241.898 306.085 242.187 310.938 242.187 315.662L242.187 315.855L242.187 316.048C242.187 318.402 242.115 320.712 241.973 322.977ZM239.396 288.769C241.682 289.165 243.984 289.657 246.298 290.243C246.071 288.714 245.87 287.191 245.701 285.672C244.872 278.205 244.956 271.746 246.364 266.295C247.211 263.018 248.551 260.03 250.619 257.321C244.191 257.709 237.746 258.983 231.48 261.171C234.9 270.294 237.575 279.594 239.396 288.769ZM220.622 369.186C202.5 391.205 172.209 402.138 137.871 402.228C103.534 402.138 73.243 391.205 55.1208 369.186C67.8105 362.449 82.3756 359.752 97.1519 360.951C79.0527 351.622 60.2796 348.431 44.5986 352.123C41.8044 345.829 39.7646 338.937 38.58 331.443C49.8121 326.193 61.9925 324.428 73.5894 325.943C62.1531 318.834 49.2821 315.827 37.3968 317.535C37.3863 316.914 37.3811 316.29 37.3811 315.662C37.3811 313.24 37.4597 310.782 37.6144 308.294C38.2368 307.644 38.8741 307.004 39.5263 306.374C54.9666 291.464 75.8396 285.087 97.1518 286.816C78.3304 277.115 58.7804 274.051 42.7366 278.463C44.1417 273.327 45.8039 268.188 47.704 263.1C61.174 254.028 76.8382 250.666 91.5617 252.589C80.3443 245.615 67.7465 242.589 56.0525 244.088C58.1489 239.963 60.3987 235.927 62.7902 232.013L62.6512 231.97L62.6873 231.911C84.3815 238.347 110.248 241.512 137.871 241.551C165.495 241.512 191.361 238.347 213.056 231.911L213.092 231.97L212.953 232.013C215.344 235.927 217.594 239.963 219.69 244.088C207.996 242.589 195.399 245.615 184.181 252.589C198.905 250.665 214.569 254.028 228.039 263.1C229.939 268.188 231.601 273.327 233.006 278.463C216.962 274.051 197.412 277.115 178.591 286.816C199.903 285.087 220.776 291.464 236.217 306.374C236.869 307.004 237.506 307.644 238.128 308.294C238.283 310.782 238.362 313.24 238.362 315.662C238.362 316.29 238.357 316.914 238.346 317.535C226.461 315.827 213.59 318.834 202.153 325.943C213.75 324.428 225.931 326.193 237.163 331.443C235.978 338.937 233.938 345.829 231.144 352.123C215.463 348.431 196.69 351.622 178.591 360.951C193.367 359.752 207.932 362.449 220.622 369.186ZM269.754 183.193C258.332 219.702 203.667 237.711 137.871 237.806C72.076 237.711 17.4111 219.702 5.98869 183.193C7.01781 182.06 8.08947 180.955 9.20377 179.879C24.9329 164.689 46.1962 158.193 67.9071 159.954C45.9577 148.642 23.0355 146.189 5.61287 153.879C6.84824 148.726 8.69584 143.476 11.1023 138.223C12.6278 136.887 14.2286 135.607 15.9035 134.39C30.0555 124.108 46.8347 120.243 62.5606 122.297C51.175 115.219 38.3935 112.133 26.5175 113.621C42.0305 94.3084 64.5308 77.1105 90.9979 67.2778C102.074 78.2105 110.353 93.3908 115.165 110.417C115.558 92.7145 112.659 75.9285 106.921 62.4024L106.747 62.4446C114.424 60.5742 122.358 59.3389 130.486 58.8483L137.871 122.811L145.257 58.8483C153.385 59.3389 161.319 60.5742 168.996 62.4446L168.822 62.4024C163.083 75.9284 160.185 92.7144 160.577 110.417C165.39 93.3907 173.669 78.2104 184.745 67.2777C211.212 77.1105 233.712 94.3084 249.225 113.621C237.349 112.133 224.568 115.219 213.182 122.297C228.908 120.243 245.687 124.108 259.839 134.39C261.514 135.607 263.115 136.887 264.641 138.223C267.047 143.476 268.895 148.726 270.13 153.879C252.707 146.189 229.785 148.642 207.836 159.954C229.547 158.193 250.81 164.689 266.539 179.879C267.653 180.955 268.725 182.06 269.754 183.193ZM186.046 63.759C195.915 48.3956 225.695 22.7943 243.444 31.0706C262.728 40.063 260.506 85.6445 253.787 100.053C252.535 102.737 250.785 105.074 248.641 107.041C245.975 103.974 243.143 100.978 240.159 98.0722C241.215 96.8894 242.115 95.5444 242.819 94.0355C244.028 91.4422 244.906 87.7886 245.423 83.8815C245.948 79.9098 246.136 75.4017 245.823 70.9764C245.511 66.5775 244.691 62.0825 243.089 58.2327C241.496 54.4064 238.956 50.8199 234.973 48.9627C230.99 47.1056 226.61 47.4648 222.655 48.7043C218.676 49.9515 214.705 52.2128 211.135 54.8015C207.544 57.4057 204.211 60.4477 201.507 63.4031C199.95 65.1034 198.54 66.8425 197.395 68.5122C198.003 68.7961 198.607 69.0838 199.209 69.375C194.944 67.3122 190.552 65.4319 186.046 63.759ZM89.697 63.759C79.828 48.3956 50.0475 22.7944 32.299 31.0706C13.0146 40.0631 15.2373 85.6446 21.9562 100.053C23.2078 102.737 24.9577 105.074 27.1016 107.041C29.7677 103.974 32.5998 100.978 35.584 98.0722C34.5279 96.8894 33.6275 95.5444 32.924 94.0356C31.7146 91.4422 30.837 87.7887 30.3202 83.8815C29.7948 79.9098 29.6065 75.4017 29.9202 70.9764C30.232 66.5776 31.0519 62.0825 32.6542 58.2327C34.2467 54.4065 36.7873 50.8199 40.77 48.9628C44.7526 47.1056 49.1332 47.4648 53.0879 48.7044C57.0669 49.9515 61.0373 52.2128 64.6075 54.8015C68.1991 57.4057 71.5315 60.4477 74.2363 63.4031C75.7924 65.1034 77.2028 66.8425 78.3475 68.5122C77.7403 68.7961 77.1356 69.0838 76.5335 69.375C80.7984 67.3122 85.1908 65.4319 89.697 63.759ZM229.016 247.888C237.553 247.604 246.378 249.377 254.812 253.036C254.883 252.978 254.955 252.92 255.028 252.862C258.313 250.245 262.931 247.727 269.442 245.671C269.469 245.662 269.496 245.653 269.523 245.645C264.831 238.662 259.316 232.409 253.104 227.082C248.383 229.242 244.205 231.775 240.55 234.687C235.607 238.624 231.83 243.088 229.016 247.888ZM263.102 223.308C266.019 230.153 268.299 237.616 269.859 245.532C275.753 243.468 279.81 237.702 278.724 231.527C277.613 225.207 271.558 220.9 265.381 222.637C264.611 222.854 263.851 223.078 263.102 223.308Z" fill="#090C09"/>
<path d="M187.123 283.511C185.208 268.42 182.137 253.178 178.158 239.201C165.535 240.774 152.179 241.551 138.39 241.551C124.212 241.551 110.493 240.729 97.5578 239.066C93.6143 252.89 90.5587 267.957 88.6329 282.895C88.6329 282.895 88.6329 282.895 88.6329 282.895C88.4749 284.121 88.3246 285.346 88.1819 286.569C91.1538 286.489 94.1484 286.572 97.1517 286.816C97.1517 286.816 97.1517 286.816 97.1517 286.816C94.1484 286.572 91.1538 286.489 88.1819 286.569C86.9579 297.064 86.3036 307.439 86.3036 317.216C86.3036 333.009 88.0108 346.616 91.0693 358.056C91.3072 358.946 91.5533 359.823 91.8073 360.687C98.4038 383.11 110.398 396.709 124.858 401.656C129.257 402.038 133.745 402.229 138.304 402.229C142.438 402.229 146.514 402.072 150.517 401.758C165.103 396.9 177.212 383.283 183.857 360.729C184.04 360.11 184.218 359.484 184.392 358.852C184.417 358.761 184.442 358.671 184.467 358.58C184.764 357.489 185.049 356.377 185.321 355.246C185.322 355.243 185.323 355.24 185.324 355.236C187.931 344.399 189.373 331.731 189.373 317.216C189.373 307.431 188.718 297.046 187.492 286.542C187.359 285.4 187.219 284.256 187.072 283.112C187.089 283.245 187.106 283.378 187.123 283.511C187.123 283.511 187.123 283.511 187.123 283.511Z" fill="#ECF1FE"/>
<path fill-rule="evenodd" clip-rule="evenodd" d="M129.292 415.532C123.5 419.026 115.845 420.585 107.817 420.585C99.7896 420.585 92.1339 419.026 86.3424 415.532C80.3902 411.941 76.3959 406.251 76.3959 398.603C76.3959 391.365 79.9896 383.318 85.431 377.145C90.902 370.939 98.7685 366.04 107.817 366.04C116.866 366.04 124.732 370.939 130.203 377.145C135.644 383.318 139.238 391.365 139.238 398.603C139.238 406.251 135.244 411.941 129.292 415.532ZM107.817 416.684C123.016 416.684 135.336 410.73 135.336 398.603C135.336 386.477 123.016 369.942 107.817 369.942C92.6185 369.942 80.2977 386.477 80.2977 398.603C80.2977 410.73 92.6185 416.684 107.817 416.684Z" fill="#090C09"/>
<path d="M135.336 398.603C135.336 410.73 123.016 416.684 107.817 416.684C92.6185 416.684 80.2977 410.73 80.2977 398.603C80.2977 386.477 92.6185 369.942 107.817 369.942C123.016 369.942 135.336 386.477 135.336 398.603Z" fill="#ECF1FE"/>
<path fill-rule="evenodd" clip-rule="evenodd" d="M189.317 415.532C183.526 419.026 175.87 420.585 167.842 420.585C159.815 420.585 152.159 419.026 146.368 415.532C140.416 411.941 136.421 406.251 136.421 398.603C136.421 391.365 140.015 383.318 145.456 377.145C150.927 370.939 158.794 366.04 167.842 366.04C176.891 366.04 184.757 370.939 190.229 377.145C195.67 383.318 199.264 391.365 199.264 398.603C199.264 406.251 195.269 411.941 189.317 415.532ZM167.842 416.684C183.041 416.684 195.362 410.73 195.362 398.603C195.362 386.477 183.041 369.942 167.842 369.942C152.644 369.942 140.323 386.477 140.323 398.603C140.323 410.73 152.644 416.684 167.842 416.684Z" fill="#090C09"/>
<path d="M195.362 398.603C195.362 410.73 183.041 416.684 167.842 416.684C152.644 416.684 140.323 410.73 140.323 398.603C140.323 386.477 152.644 369.942 167.842 369.942C183.041 369.942 195.362 386.477 195.362 398.603Z" fill="#ECF1FE"/>
<path d="M205.206 204.155C205.206 227.379 175.083 238.781 137.924 238.781C100.766 238.781 70.6425 227.379 70.6425 204.155C70.6425 180.93 100.766 149.264 137.924 149.264C175.083 149.264 205.206 180.93 205.206 204.155Z" fill="#ECF1FE"/>
<path d="M138.491 165.674C131.059 165.674 125.034 169.44 125.034 174.084C125.034 178.417 130.276 184.218 137.011 184.979L137.018 186.155C137.019 186.188 137.019 186.222 137.019 186.255C137.019 194.388 131.206 200.734 124.323 200.734C117.581 200.734 111.868 194.649 111.635 186.752L109.294 186.752C109.289 186.936 109.286 187.122 109.286 187.308V187.331C109.292 196.478 115.893 204.139 124.323 204.139C130.938 204.139 136.434 199.412 138.491 192.963C140.547 199.412 146.043 204.139 152.658 204.139C161.092 204.139 167.695 196.472 167.695 187.319C167.695 187.13 167.692 186.941 167.687 186.753L165.347 186.753C165.113 194.65 159.4 200.734 152.658 200.734C145.776 200.734 139.963 194.388 139.963 186.255C139.963 186.236 139.963 186.217 139.963 186.199C139.963 186.184 139.963 186.17 139.963 186.155L139.97 184.979C146.706 184.218 151.947 178.417 151.947 174.084C151.947 169.44 145.922 165.674 138.491 165.674Z" fill="#090C09"/>
<circle cx="97.2457" cy="136.467" r="19.8725" fill="#090C09"/>
<ellipse cx="4.13721" cy="6.11877" rx="4.13721" ry="6.11877" transform="matrix(0.909809 -0.415028 0.430286 0.902692 100.833 128.716)" fill="#ECF1FE"/>
<circle cx="182.168" cy="136.747" r="19.8725" fill="#090C09"/>
<ellipse cx="4.13721" cy="6.11877" rx="4.13721" ry="6.11877" transform="matrix(0.909809 -0.415028 0.430286 0.902692 185.752 128.716)" fill="#ECF1FE"/>
<path d="M174.385 178.363C183.2 178.832 194.972 180.818 207.645 184.214C220.317 187.609 231.505 191.776 239.374 195.777C234.369 190.979 222.619 185.45 208.339 181.623C194.059 177.797 181.118 176.711 174.385 178.363Z" fill="#090C09"/>
<path d="M173.968 171.827C181.827 169.999 192.643 168.87 204.581 168.87C216.52 168.87 227.336 169.999 235.195 171.827C229.666 168.488 218.035 166.188 204.581 166.188C191.128 166.188 179.497 168.488 173.968 171.827Z" fill="#090C09"/>
<path d="M173.702 184.906C181.115 187.075 190.623 191.261 200.497 196.961C210.37 202.662 218.749 208.803 224.335 214.139C221.432 208.607 212.963 201.062 201.837 194.639C190.712 188.216 179.943 184.654 173.702 184.906Z" fill="#090C09"/>
<path d="M102.447 178.363C93.6316 178.832 81.8595 180.818 69.1869 184.213C56.5143 187.609 45.3266 191.776 37.4576 195.777C42.4622 190.979 54.2126 185.45 68.4929 181.623C82.7731 177.797 95.714 176.71 102.447 178.363Z" fill="#090C09"/>
<path d="M102.863 171.827C95.0041 169.999 84.1889 168.87 72.25 168.87C60.3112 168.87 49.4959 169.999 41.6368 171.827C47.1657 168.488 58.7966 166.188 72.25 166.188C85.7034 166.188 97.3343 168.488 102.863 171.827Z" fill="#090C09"/>
<path d="M103.13 184.905C95.7168 187.075 86.2083 191.261 76.3351 196.961C66.4619 202.661 58.0824 208.803 52.4971 214.138C55.4001 208.607 63.8686 201.062 74.9943 194.639C86.12 188.215 96.8885 184.654 103.13 184.905Z" fill="#090C09"/>
<path fill-rule="evenodd" clip-rule="evenodd" d="M23.4686 68.7969L26.8681 63.1046C49.4344 25.3185 90.7442 0 137.971 0C185.198 0 226.508 25.3185 249.074 63.1046L252.474 68.7969H23.4686ZM245.844 65.034C245.086 63.765 244.306 62.5106 243.506 61.2711C221.148 26.6676 182.234 3.76289 137.971 3.76289C93.7082 3.76289 54.7949 26.6676 32.437 61.2711C31.6361 62.5106 30.8566 63.765 30.0987 65.034H245.844Z" fill="#090C09"/>
<path d="M243.506 61.2711C244.306 62.5106 245.086 63.765 245.844 65.034H30.0987C30.8566 63.765 31.6361 62.5106 32.437 61.2711C54.7949 26.6676 93.7082 3.76289 137.971 3.76289C182.234 3.76289 221.148 26.6676 243.506 61.2711Z" fill="#4B63AA"/>
<path fill-rule="evenodd" clip-rule="evenodd" d="M6.19966 125.448C6.80236 104.56 12.266 84.8824 21.5006 67.5148C23.6038 63.5594 27.7268 61.2721 32.0453 61.2721H243.901C248.22 61.2721 252.343 63.5594 254.446 67.5148C262.967 83.541 268.278 101.535 269.521 120.633C269.976 127.621 264.266 133.082 257.592 133.082L13.6696 133.082C9.54225 133.082 6.07651 129.716 6.19966 125.448ZM24.823 69.2814C26.2355 66.6248 29.0366 65.035 32.0453 65.035H243.901C246.91 65.035 249.711 66.6248 251.124 69.2814C259.4 84.8472 264.559 102.323 265.766 120.877C266.069 125.533 262.258 129.319 257.592 129.319L13.6696 129.319C11.5915 129.319 9.90104 127.634 9.96098 125.557C10.5466 105.261 15.854 86.1496 24.823 69.2814Z" fill="#090C09"/>
<path d="M32.0453 65.035C29.0366 65.035 26.2355 66.6248 24.823 69.2814C15.854 86.1496 10.5466 105.261 9.96098 125.557C9.90104 127.634 11.5915 129.319 13.6696 129.319L257.592 129.319C262.258 129.319 266.069 125.533 265.766 120.877C264.559 102.323 259.4 84.8472 251.124 69.2814C249.711 66.6248 246.91 65.035 243.901 65.035H32.0453Z" fill="#4B63AA"/>
<path fill-rule="evenodd" clip-rule="evenodd" d="M181.421 55.7474H234.148V85.8741H181.421V55.7474ZM185.183 59.5103V82.1112H230.385V59.5103H185.183Z" fill="#090C09"/>
<path d="M185.183 59.5103H230.385V82.1112H185.183V59.5103Z" fill="#090C09"/>
<path fill-rule="evenodd" clip-rule="evenodd" d="M220.298 69.7201V63.4434L228.465 71.6152C228.897 72.0481 229.599 72.0481 230.031 71.6152L230.11 71.5368C230.542 71.1038 230.542 70.4019 230.11 69.969L219.926 59.7782C219.547 59.3994 218.963 59.352 218.533 59.6361C218.471 59.6767 218.413 59.7241 218.359 59.7782L218.28 59.8566L218.279 59.8582L208.175 69.969C208.007 70.137 207.904 70.3454 207.866 70.563C207.846 70.6481 207.834 70.7371 207.834 70.8287V70.9396C207.834 71.5518 208.33 72.0482 208.942 72.0482H216.203L208.175 80.0814C207.742 80.5143 207.742 81.2162 208.175 81.6492L208.253 81.7276C208.686 82.1605 209.387 82.1605 209.82 81.7276L217.972 73.5705V80.9448C217.972 81.557 218.468 82.0534 219.08 82.0534H219.19C219.802 82.0534 220.298 81.557 220.298 80.9448V72.0482H224.342C224.954 72.0482 225.45 71.5518 225.45 70.9396V70.8287C225.45 70.2164 224.954 69.7201 224.342 69.7201H220.298ZM211.714 69.7201H217.972V63.4581L211.714 69.7201Z" fill="#4B63AA"/>
<path fill-rule="evenodd" clip-rule="evenodd" d="M205.514 60.5613C205.514 59.9495 206.01 59.4535 206.621 59.4535H206.732C207.344 59.4535 207.84 59.9495 207.84 60.5613V71.1689L207.857 71.1864L207.84 71.2039V80.9455C207.84 81.5574 207.344 82.0534 206.732 82.0534H206.621C206.01 82.0534 205.514 81.5574 205.514 80.9455V73.5303L197.327 81.7205C196.895 82.1531 196.194 82.1531 195.761 81.7205L185.581 71.5368C185.527 71.4827 185.48 71.4244 185.44 71.363C185.317 71.178 185.257 70.9643 185.257 70.7508C185.257 70.6808 185.264 70.6108 185.277 70.5418C185.318 70.3324 185.419 70.1323 185.581 69.9701L195.761 59.7864C196.194 59.3538 196.895 59.3538 197.327 59.7864L197.405 59.8647C197.564 60.0235 197.665 60.2185 197.707 60.4232V69.5902H205.514V60.5613ZM195.381 69.5902H191.782C191.171 69.5902 190.675 70.0862 190.675 70.698V70.8088C190.675 71.4207 191.171 71.9167 191.782 71.9167H195.381V78.1717L188.027 70.814L195.381 63.4564V69.5902ZM197.707 78.0505V71.9167H203.838L197.707 78.0505Z" fill="#4B63AA"/>
<path fill-rule="evenodd" clip-rule="evenodd" d="M450.331 120.025C456.123 116.531 463.778 114.971 471.806 114.971C479.833 114.971 487.489 116.531 493.28 120.025C499.233 123.616 503.227 129.306 503.227 136.953C503.227 144.192 499.633 152.239 494.192 158.412C488.721 164.618 480.854 169.516 471.806 169.516C462.757 169.516 454.891 164.618 449.42 158.412C443.978 152.239 440.385 144.192 440.385 136.953C440.385 129.306 444.379 123.616 450.331 120.025ZM471.806 118.873C456.607 118.873 444.286 124.827 444.286 136.953C444.286 149.08 456.607 165.615 471.806 165.615C487.004 165.615 499.325 149.08 499.325 136.953C499.325 124.827 487.004 118.873 471.806 118.873Z" fill="#090C09"/>
<path d="M444.286 136.953C444.286 124.827 456.607 118.873 471.806 118.873C487.004 118.873 499.325 124.827 499.325 136.953C499.325 149.08 487.004 165.615 471.806 165.615C456.607 165.615 444.286 149.08 444.286 136.953Z" fill="#ECF1FE"/>
<path fill-rule="evenodd" clip-rule="evenodd" d="M329.646 120.025C335.438 116.531 343.093 114.971 351.121 114.971C359.148 114.971 366.804 116.531 372.596 120.025C378.548 123.616 382.542 129.306 382.542 136.953C382.542 144.192 378.948 152.239 373.507 158.412C368.036 164.618 360.169 169.516 351.121 169.516C342.072 169.516 334.206 164.618 328.735 158.412C323.294 152.239 319.7 144.192 319.7 136.953C319.7 129.306 323.694 123.616 329.646 120.025ZM351.121 118.873C335.922 118.873 323.602 124.827 323.602 136.953C323.602 149.08 335.922 165.615 351.121 165.615C366.319 165.615 378.64 149.08 378.64 136.953C378.64 124.827 366.319 118.873 351.121 118.873Z" fill="#090C09"/>
<path d="M323.602 136.953C323.602 124.827 335.922 118.873 351.121 118.873C366.319 118.873 378.64 124.827 378.64 136.953C378.64 149.08 366.319 165.615 351.121 165.615C335.922 165.615 323.602 149.08 323.602 136.953Z" fill="#ECF1FE"/>
<path fill-rule="evenodd" clip-rule="evenodd" d="M412.129 462.54C396.57 462.48 381.636 459.727 367.72 454.987C365.679 458.305 362.826 461.959 359.508 465.584C354.957 470.557 349.343 475.681 343.305 480.06C337.288 484.422 330.702 488.152 324.21 490.187C317.741 492.215 310.94 492.684 304.907 489.871C298.874 487.058 294.862 481.546 292.257 475.288C289.643 469.006 288.267 461.563 287.741 454.15C287.214 446.71 287.531 439.116 288.415 432.433C289.29 425.816 290.757 419.82 292.677 415.703C294.188 412.462 296.293 409.686 298.836 407.382C283.467 388.699 274.257 367.726 274.257 348.915C274.257 323.701 290.723 305.32 315.834 293.446C321.211 290.903 327.012 288.642 333.178 286.658C330.111 281.554 327.277 276.252 324.702 270.823C321.623 276.259 317.423 281.318 311.863 285.747C304.819 291.358 296.086 295.566 285.667 298.496C277.021 300.928 268.92 294.848 267.462 286.549C265.957 277.991 271.754 270.454 279.392 268.042C285.542 266.099 289.714 263.78 292.559 261.514C296.586 258.306 298.735 254.595 299.886 250.142C301.128 245.336 301.254 239.405 300.45 232.161C299.753 225.892 298.484 219.535 297.114 212.692C296.894 211.589 296.671 210.474 296.448 209.35C294.951 201.786 293.312 193.051 293.339 185.054C293.366 177.032 295.059 166.708 303.3 158.904C308.739 153.753 315.556 151.105 322.914 150.011C327.378 143.679 332.73 138.108 338.831 133.303C357.848 118.328 383.825 111.052 412.129 110.979C440.433 111.052 466.409 118.328 485.427 133.303C504.658 148.447 516.444 171.217 516.444 201.357L516.444 201.55L516.444 201.743C516.444 228.951 506.848 260.42 491.079 286.658C497.245 288.642 503.046 290.903 508.423 293.446C533.534 305.32 550 323.701 550 348.915C550 367.726 540.79 388.699 525.421 407.382C527.964 409.686 530.069 412.462 531.58 415.703C533.5 419.82 534.967 425.815 535.842 432.433C536.726 439.116 537.043 446.71 536.516 454.15C535.99 461.563 534.614 469.006 532 475.288C529.395 481.546 525.383 487.058 519.35 489.871C513.317 492.684 506.516 492.215 500.048 490.187C493.555 488.152 486.969 484.422 480.953 480.06C474.914 475.681 469.3 470.557 464.749 465.584C461.431 461.959 458.578 458.305 456.537 454.986C442.622 459.727 427.687 462.48 412.129 462.54Z" fill="#506A4D"/>
<path fill-rule="evenodd" clip-rule="evenodd" d="M412.129 462.54C396.57 462.48 381.636 459.727 367.72 454.987C365.679 458.305 362.826 461.959 359.508 465.584C354.957 470.557 349.343 475.681 343.305 480.06C337.288 484.422 330.702 488.152 324.21 490.187C317.741 492.215 310.94 492.684 304.907 489.871C298.874 487.058 294.862 481.546 292.257 475.288C289.643 469.006 288.267 461.563 287.741 454.15C287.214 446.71 287.531 439.116 288.415 432.433C289.29 425.816 290.757 419.82 292.677 415.703C294.188 412.462 296.293 409.686 298.836 407.382C283.467 388.699 274.257 367.726 274.257 348.915C274.257 323.701 290.723 305.32 315.834 293.446C321.211 290.903 327.012 288.642 333.178 286.658C330.111 281.554 327.277 276.252 324.702 270.823C321.623 276.259 317.423 281.318 311.863 285.747C304.819 291.358 296.086 295.566 285.667 298.496C277.021 300.928 268.92 294.848 267.462 286.549C265.957 277.991 271.754 270.454 279.392 268.042C285.542 266.099 289.714 263.78 292.559 261.514C296.586 258.306 298.735 254.595 299.886 250.142C301.128 245.336 301.254 239.405 300.45 232.161C299.753 225.892 298.484 219.535 297.114 212.692C296.894 211.589 296.671 210.474 296.448 209.35C294.951 201.786 293.312 193.051 293.339 185.054C293.366 177.032 295.059 166.708 303.3 158.904C308.739 153.753 315.556 151.105 322.914 150.011C327.378 143.679 332.73 138.108 338.831 133.303C357.848 118.328 383.825 111.052 412.129 110.979C440.433 111.052 466.409 118.328 485.427 133.303C504.658 148.447 516.444 171.217 516.444 201.357L516.444 201.55L516.444 201.743C516.444 228.951 506.848 260.42 491.079 286.658C497.245 288.642 503.046 290.903 508.423 293.446C533.534 305.32 550 323.701 550 348.915C550 367.726 540.79 388.699 525.421 407.382C527.964 409.686 530.069 412.462 531.58 415.703C533.5 419.82 534.967 425.815 535.842 432.433C536.726 439.116 537.043 446.71 536.516 454.15C535.99 461.563 534.614 469.006 532 475.288C529.395 481.546 525.383 487.058 519.35 489.871C513.317 492.684 506.516 492.215 500.048 490.187C493.555 488.152 486.969 484.422 480.953 480.06C474.914 475.681 469.3 470.557 464.749 465.584C461.431 461.959 458.578 458.305 456.537 454.986C442.622 459.727 427.687 462.48 412.129 462.54ZM316.11 161.707C316.051 161.832 315.992 161.958 315.933 162.084C313.194 161.636 310.425 161.026 307.639 160.257C307.064 160.717 306.505 161.203 305.963 161.716C298.845 168.456 297.237 177.489 297.212 185.067C297.208 186.231 297.242 187.414 297.307 188.61C301.033 188.912 304.807 188.861 308.575 188.45C309.77 178.615 312.345 169.696 316.11 161.707ZM308.027 194.428C308.025 194.457 308.023 194.485 308.021 194.514C304.414 193.414 300.85 191.914 297.398 190.031C297.852 196.18 299.065 202.625 300.247 208.598C300.465 209.698 300.683 210.789 300.9 211.874L300.912 211.932C301.292 213.83 301.667 215.706 302.026 217.564C304.261 217.214 306.475 216.777 308.663 216.252C308.102 211.32 307.813 206.467 307.813 201.743L307.813 201.55L307.813 201.357C307.813 199.003 307.885 196.693 308.027 194.428ZM310.604 228.636C308.318 228.24 306.016 227.748 303.702 227.162C303.929 228.691 304.13 230.214 304.299 231.734C305.128 239.2 305.044 245.659 303.636 251.111C302.789 254.387 301.449 257.375 299.381 260.084C305.809 259.696 312.254 258.422 318.52 256.234C315.1 247.111 312.425 237.811 310.604 228.636ZM329.378 148.219C347.5 126.2 377.791 115.268 412.129 115.177C446.466 115.268 476.757 126.2 494.879 148.219C482.189 154.956 467.624 157.653 452.848 156.455C470.947 165.783 489.72 168.974 505.401 165.282C508.196 171.576 510.235 178.468 511.42 185.962C500.188 191.212 488.007 192.977 476.411 191.462C487.847 198.571 500.718 201.578 512.603 199.87C512.614 200.491 512.619 201.115 512.619 201.743C512.619 204.165 512.54 206.623 512.386 209.111C511.763 209.761 511.126 210.401 510.474 211.031C495.033 225.942 474.16 232.318 452.848 230.589C471.67 240.29 491.22 243.354 507.263 238.942C505.858 244.078 504.196 249.217 502.296 254.305C488.826 263.377 473.162 266.74 458.438 264.817C469.656 271.79 482.253 274.816 493.948 273.317C491.851 277.442 489.601 281.478 487.21 285.392L487.349 285.435L487.313 285.494C465.618 279.058 439.752 275.893 412.129 275.854C384.505 275.893 358.639 279.058 336.944 285.494L336.908 285.435L337.047 285.392C334.656 281.478 332.406 277.442 330.31 273.317C342.004 274.816 354.601 271.79 365.819 264.817C351.095 266.74 335.431 263.377 321.961 254.305C320.061 249.217 318.399 244.078 316.994 238.942C333.038 243.354 352.588 240.29 371.409 230.589C350.097 232.318 329.224 225.942 313.783 211.031C313.131 210.401 312.494 209.761 311.872 209.111C311.717 206.623 311.638 204.165 311.638 201.743C311.638 201.115 311.643 200.491 311.654 199.87C323.539 201.578 336.41 198.571 347.847 191.462C336.25 192.977 324.069 191.212 312.837 185.962C314.022 178.468 316.062 171.576 318.856 165.282C334.537 168.974 353.31 165.783 371.409 156.455C356.633 157.653 342.068 154.956 329.378 148.219ZM280.246 334.212C291.668 297.703 346.333 279.694 412.129 279.6C477.924 279.694 532.589 297.703 544.011 334.212C542.982 335.345 541.911 336.45 540.796 337.527C525.067 352.716 503.804 359.212 482.093 357.451C504.042 368.764 526.964 371.216 544.387 363.526C543.152 368.679 541.304 373.929 538.898 379.182C537.372 380.518 535.771 381.798 534.096 383.015C519.944 393.297 503.165 397.162 487.439 395.108C498.825 402.186 511.607 405.272 523.483 403.784C507.969 423.097 485.469 440.295 459.002 450.127C447.926 439.195 439.647 424.014 434.835 406.988C434.442 424.691 437.341 441.477 443.079 455.003L443.253 454.961C435.576 456.831 427.642 458.066 419.514 458.557L412.129 394.594L404.743 458.557C396.615 458.066 388.681 456.831 381.004 454.961L381.178 455.003C386.917 441.477 389.815 424.691 389.423 406.989C384.61 424.014 376.331 439.195 365.255 450.127C338.788 440.295 316.288 423.097 300.775 403.785C312.651 405.272 325.432 402.186 336.818 395.108C321.092 397.162 304.313 393.297 290.161 383.015C288.486 381.798 286.885 380.519 285.359 379.182C282.953 373.929 281.105 368.679 279.87 363.526C297.293 371.216 320.215 368.764 342.164 357.451C320.453 359.212 299.19 352.716 283.461 337.527C282.347 336.451 281.275 335.345 280.246 334.212ZM363.954 453.646C354.085 469.01 324.305 494.611 306.556 486.335C287.272 477.342 289.494 431.761 296.213 417.352C297.465 414.668 299.215 412.331 301.359 410.364C304.025 413.431 306.857 416.427 309.841 419.333C308.785 420.516 307.885 421.861 307.181 423.37C305.972 425.963 305.094 429.617 304.577 433.524C304.052 437.495 303.864 442.003 304.177 446.429C304.489 450.828 305.309 455.323 306.911 459.172C308.504 462.999 311.044 466.585 315.027 468.442C319.01 470.3 323.39 469.94 327.345 468.701C331.324 467.454 335.295 465.192 338.865 462.604C342.456 459.999 345.789 456.957 348.493 454.002C350.05 452.302 351.46 450.563 352.605 448.893C351.997 448.609 351.393 448.321 350.791 448.03C355.056 450.093 359.448 451.973 363.954 453.646ZM460.303 453.646C470.172 469.01 499.953 494.611 517.701 486.335C536.985 477.342 534.763 431.761 528.044 417.352C526.792 414.668 525.042 412.331 522.898 410.364C520.232 413.431 517.4 416.427 514.416 419.333C515.472 420.516 516.372 421.861 517.076 423.37C518.285 425.963 519.163 429.616 519.68 433.524C520.205 437.495 520.393 442.003 520.08 446.429C519.768 450.828 518.948 455.323 517.346 459.172C515.753 462.999 513.213 466.585 509.23 468.442C505.247 470.3 500.867 469.94 496.912 468.701C492.933 467.454 488.963 465.192 485.393 462.604C481.801 459.999 478.469 456.957 475.764 454.002C474.208 452.302 472.797 450.563 471.652 448.893C472.26 448.609 472.864 448.321 473.467 448.03C469.202 450.093 464.809 451.973 460.303 453.646ZM320.984 269.517C312.447 269.801 303.622 268.028 295.188 264.369C295.117 264.427 295.045 264.485 294.972 264.543C291.687 267.16 287.069 269.678 280.558 271.735C280.531 271.743 280.504 271.752 280.477 271.76C285.169 278.743 290.684 284.996 296.896 290.324C301.617 288.163 305.795 285.63 309.45 282.718C314.393 278.781 318.17 274.317 320.984 269.517ZM286.898 294.097C283.981 287.252 281.701 279.789 280.141 271.873C274.247 273.937 270.19 279.703 271.276 285.878C272.387 292.198 278.442 296.505 284.619 294.768C285.389 294.551 286.149 294.328 286.898 294.097Z" fill="#090C09"/>
<path d="M362.877 233.895C364.792 248.986 367.863 264.227 371.842 278.204C384.465 276.631 397.821 275.854 411.61 275.854C425.788 275.854 439.507 276.676 452.442 278.339C456.386 264.515 459.441 249.448 461.367 234.51C461.367 234.51 461.367 234.51 461.367 234.51C461.525 233.284 461.675 232.059 461.818 230.836C458.846 230.916 455.852 230.833 452.848 230.589C452.848 230.589 452.848 230.589 452.848 230.589C455.852 230.833 458.846 230.916 461.818 230.836C463.042 220.341 463.696 209.966 463.696 200.189C463.696 184.396 461.989 170.79 458.931 159.349C458.693 158.459 458.447 157.582 458.193 156.718C451.596 134.295 439.602 120.696 425.142 115.749C420.743 115.367 416.255 115.176 411.696 115.176C407.562 115.176 403.486 115.333 399.483 115.647C384.897 120.505 372.788 134.122 366.143 156.676C365.96 157.295 365.782 157.921 365.608 158.553C365.583 158.644 365.558 158.734 365.533 158.825C365.236 159.917 364.951 161.028 364.679 162.159C364.678 162.162 364.677 162.166 364.676 162.169C362.069 173.006 360.627 185.674 360.627 200.189C360.627 209.974 361.282 220.359 362.508 230.863C362.641 232.005 362.781 233.149 362.928 234.293C362.911 234.16 362.894 234.027 362.877 233.895C362.877 233.895 362.877 233.895 362.877 233.895Z" fill="#ECF1FE"/>
<path fill-rule="evenodd" clip-rule="evenodd" d="M420.708 101.873C426.5 98.3796 434.155 96.8198 442.183 96.8198C450.21 96.8198 457.866 98.3796 463.658 101.873C469.61 105.464 473.604 111.155 473.604 118.802C473.604 126.04 470.01 134.087 464.569 140.26C459.098 146.467 451.231 151.365 442.183 151.365C433.134 151.365 425.268 146.467 419.797 140.26C414.356 134.087 410.762 126.04 410.762 118.802C410.762 111.155 414.756 105.464 420.708 101.873ZM442.183 100.722C426.984 100.722 414.664 106.675 414.664 118.802C414.664 130.928 426.984 147.463 442.183 147.463C457.381 147.463 469.702 130.928 469.702 118.802C469.702 106.675 457.381 100.722 442.183 100.722Z" fill="#090C09"/>
<path d="M414.664 118.802C414.664 106.675 426.984 100.722 442.183 100.722C457.381 100.722 469.702 106.675 469.702 118.802C469.702 130.928 457.381 147.463 442.183 147.463C426.984 147.463 414.664 130.928 414.664 118.802Z" fill="#ECF1FE"/>
<path fill-rule="evenodd" clip-rule="evenodd" d="M360.683 101.873C366.474 98.3796 374.13 96.8198 382.158 96.8198C390.185 96.8198 397.841 98.3796 403.632 101.873C409.584 105.464 413.579 111.155 413.579 118.802C413.579 126.04 409.985 134.087 404.544 140.26C399.073 146.466 391.206 151.365 382.158 151.365C373.109 151.365 365.243 146.466 359.771 140.26C354.33 134.087 350.736 126.04 350.736 118.802C350.736 111.155 354.731 105.464 360.683 101.873ZM382.158 100.722C366.959 100.722 354.638 106.675 354.638 118.802C354.638 130.928 366.959 147.463 382.158 147.463C397.356 147.463 409.677 130.928 409.677 118.802C409.677 106.675 397.356 100.722 382.158 100.722Z" fill="#090C09"/>
<path d="M354.638 118.802C354.638 106.675 366.959 100.722 382.158 100.722C397.356 100.722 409.677 106.675 409.677 118.802C409.677 130.928 397.356 147.463 382.158 147.463C366.959 147.463 354.638 130.928 354.638 118.802Z" fill="#ECF1FE"/>
<path d="M344.794 313.251C344.794 290.026 374.917 278.624 412.076 278.624C449.234 278.624 479.357 290.026 479.357 313.251C479.357 336.475 449.234 368.141 412.076 368.141C374.917 368.141 344.794 336.475 344.794 313.251Z" fill="#ECF1FE"/>
<path d="M411.509 351.731C418.941 351.731 424.966 347.966 424.966 343.321C424.966 338.988 419.724 333.187 412.989 332.426L412.982 331.25C412.981 331.217 412.981 331.184 412.981 331.15C412.981 323.017 418.794 316.672 425.677 316.672C432.419 316.672 438.132 322.756 438.365 330.653L440.706 330.653C440.711 330.469 440.714 330.283 440.714 330.097V330.074C440.708 320.927 434.107 313.266 425.677 313.266C419.062 313.266 413.566 317.993 411.509 324.442C409.453 317.993 403.957 313.266 397.342 313.266C388.908 313.266 382.305 320.934 382.305 330.086C382.305 330.275 382.308 330.464 382.313 330.652L384.653 330.652C384.887 322.756 390.6 316.672 397.342 316.672C404.224 316.672 410.037 323.017 410.037 331.15C410.037 331.169 410.037 331.188 410.037 331.206C410.037 331.221 410.037 331.235 410.037 331.25L410.03 332.426C403.294 333.187 398.053 338.988 398.053 343.321C398.053 347.966 404.078 351.731 411.509 351.731Z" fill="#090C09"/>
<circle cx="452.754" cy="380.938" r="19.8725" transform="rotate(-180 452.754 380.938)" fill="#090C09"/>
<ellipse cx="4.13721" cy="6.11877" rx="4.13721" ry="6.11877" transform="matrix(-0.909809 0.415028 -0.430286 -0.902692 449.167 388.689)" fill="#ECF1FE"/>
<circle cx="367.832" cy="380.659" r="19.8725" transform="rotate(-180 367.832 380.659)" fill="#090C09"/>
<ellipse cx="4.13721" cy="6.11877" rx="4.13721" ry="6.11877" transform="matrix(-0.909809 0.415028 -0.430286 -0.902692 364.248 388.689)" fill="#ECF1FE"/>
<path d="M375.615 339.042C366.8 338.573 355.028 336.587 342.355 333.192C329.683 329.796 318.495 325.629 310.626 321.629C315.631 326.426 327.381 331.955 341.661 335.782C355.942 339.608 368.882 340.695 375.615 339.042Z" fill="#090C09"/>
<path d="M376.032 345.578C368.173 347.406 357.357 348.535 345.419 348.535C333.48 348.535 322.664 347.406 314.805 345.578C320.334 348.917 331.965 351.217 345.419 351.217C358.872 351.217 370.503 348.917 376.032 345.578Z" fill="#090C09"/>
<path d="M376.298 332.5C368.885 330.33 359.377 326.144 349.503 320.444C339.63 314.744 331.251 308.602 325.665 303.267C328.568 308.798 337.037 316.343 348.163 322.766C359.288 329.19 370.057 332.751 376.298 332.5Z" fill="#090C09"/>
<path d="M447.553 339.042C456.368 338.573 468.141 336.587 480.813 333.192C493.486 329.796 504.673 325.63 512.542 321.629C507.538 326.426 495.787 331.956 481.507 335.782C467.227 339.608 454.286 340.695 447.553 339.042Z" fill="#090C09"/>
<path d="M447.137 345.579C454.996 347.407 465.811 348.536 477.75 348.536C489.689 348.536 500.504 347.407 508.363 345.579C502.834 348.917 491.203 351.217 477.75 351.217C464.297 351.217 452.666 348.917 447.137 345.579Z" fill="#090C09"/>
<path d="M446.87 332.5C454.283 330.33 463.792 326.144 473.665 320.444C483.538 314.744 491.918 308.602 497.503 303.267C494.6 308.798 486.131 316.343 475.006 322.766C463.88 329.19 453.112 332.751 446.87 332.5Z" fill="#090C09"/>
<path fill-rule="evenodd" clip-rule="evenodd" d="M526.531 448.608L523.132 454.3C500.566 492.087 459.256 517.405 412.029 517.405C364.802 517.405 323.492 492.087 300.926 454.3L297.526 448.608H526.531ZM304.156 452.371C304.914 453.64 305.694 454.895 306.494 456.134C328.852 490.738 367.766 513.642 412.029 513.642C456.292 513.642 495.205 490.738 517.563 456.134C518.364 454.895 519.143 453.64 519.901 452.371H304.156Z" fill="#090C09"/>
<path d="M306.494 456.134C305.694 454.895 304.914 453.64 304.156 452.371H519.901C519.143 453.64 518.364 454.895 517.563 456.134C495.205 490.738 456.292 513.642 412.029 513.642C367.766 513.642 328.852 490.738 306.494 456.134Z" fill="#3BA99C"/>
<path fill-rule="evenodd" clip-rule="evenodd" d="M543.8 391.957C543.198 412.845 537.734 432.523 528.499 449.89C526.396 453.846 522.273 456.133 517.955 456.133L306.099 456.133C301.78 456.133 297.657 453.846 295.554 449.89C287.033 433.864 281.722 415.87 280.479 396.772C280.024 389.784 285.734 384.323 292.408 384.323L536.33 384.323C540.458 384.323 543.923 387.689 543.8 391.957ZM525.177 448.124C523.764 450.78 520.963 452.37 517.955 452.37L306.099 452.37C303.09 452.37 300.289 450.78 298.876 448.124C290.6 432.558 285.441 415.082 284.234 396.528C283.931 391.872 287.742 388.086 292.408 388.086L536.33 388.086C538.409 388.086 540.099 389.771 540.039 391.849C539.453 412.144 534.146 431.255 525.177 448.124Z" fill="#090C09"/>
<path d="M517.955 452.37C520.963 452.37 523.764 450.78 525.177 448.124C534.146 431.255 539.453 412.144 540.039 391.849C540.099 389.771 538.409 388.086 536.33 388.086L292.408 388.086C287.742 388.086 283.931 391.872 284.234 396.528C285.441 415.082 290.6 432.558 298.876 448.124C300.289 450.78 303.09 452.37 306.099 452.37L517.955 452.37Z" fill="#3BA99C"/>
<path fill-rule="evenodd" clip-rule="evenodd" d="M368.579 461.658H315.852V431.531H368.579V461.658ZM364.817 457.895V435.294H319.615V457.895H364.817Z" fill="#090C09"/>
<path d="M364.817 457.895H319.615V435.294H364.817V457.895Z" fill="#090C09"/>
<path fill-rule="evenodd" clip-rule="evenodd" d="M329.702 447.685V453.962L321.535 445.79C321.103 445.357 320.401 445.357 319.969 445.79L319.89 445.868C319.458 446.301 319.458 447.003 319.89 447.436L330.074 457.627C330.453 458.006 331.037 458.053 331.467 457.769C331.529 457.728 331.587 457.681 331.641 457.627L331.72 457.549L331.721 457.547L341.825 447.436C341.993 447.268 342.096 447.06 342.134 446.842C342.155 446.757 342.166 446.668 342.166 446.576V446.466C342.166 445.853 341.67 445.357 341.058 445.357H333.797L341.825 437.324C342.258 436.891 342.258 436.189 341.825 435.756L341.747 435.678C341.314 435.245 340.613 435.245 340.18 435.678L332.028 443.835V436.46C332.028 435.848 331.532 435.352 330.92 435.352H330.81C330.198 435.352 329.702 435.848 329.702 436.46V445.357H325.658C325.046 445.357 324.55 445.853 324.55 446.466V446.576C324.55 447.189 325.046 447.685 325.658 447.685H329.702ZM338.286 447.685H332.028V453.947L338.286 447.685Z" fill="#3BA99C"/>
<path fill-rule="evenodd" clip-rule="evenodd" d="M344.486 456.844C344.486 457.456 343.99 457.952 343.379 457.952H343.268C342.656 457.952 342.16 457.456 342.16 456.844V446.236L342.143 446.219L342.16 446.201V436.46C342.16 435.848 342.656 435.352 343.268 435.352H343.379C343.99 435.352 344.486 435.848 344.486 436.46V443.875L352.673 435.685C353.105 435.252 353.806 435.252 354.239 435.685L364.419 445.868C364.473 445.922 364.52 445.981 364.56 446.042C364.683 446.227 364.743 446.441 364.743 446.654C364.743 446.724 364.736 446.794 364.723 446.863C364.682 447.073 364.581 447.273 364.419 447.435L354.239 457.619C353.806 458.051 353.105 458.051 352.673 457.619L352.595 457.54C352.436 457.382 352.335 457.187 352.293 456.982V447.815H344.486V456.844ZM354.619 447.815H358.218C358.829 447.815 359.325 447.319 359.325 446.707V446.596C359.325 445.984 358.829 445.488 358.218 445.488H354.619V439.233L361.973 446.591L354.619 453.949V447.815ZM352.293 439.355V445.488H346.162L352.293 439.355Z" fill="#3BA99C"/>
</svg>
