<svg width="600" height="449" viewBox="0 0 600 449" fill="none" xmlns="http://www.w3.org/2000/svg">
<path fill-rule="evenodd" clip-rule="evenodd" d="M494.653 28.6286C500.774 24.9358 508.866 23.2871 517.351 23.2871C525.836 23.2871 533.928 24.9358 540.049 28.6286C546.34 32.4239 550.562 38.4385 550.562 46.5215C550.562 54.1725 546.764 62.6777 541.012 69.2021C535.23 75.7622 526.915 80.9396 517.351 80.9396C507.787 80.9396 499.472 75.7622 493.69 69.2021C487.938 62.6777 484.14 54.1725 484.14 46.5215C484.14 38.4385 488.362 32.4239 494.653 28.6286ZM517.351 27.4112C501.287 27.4112 488.264 33.7042 488.264 46.5215C488.264 59.3389 501.287 76.8155 517.351 76.8155C533.415 76.8155 546.438 59.3389 546.438 46.5215C546.438 33.7042 533.415 27.4112 517.351 27.4112Z" fill="#08090C"/>
<path d="M488.264 46.5215C488.264 33.7042 501.287 27.4112 517.351 27.4112C533.415 27.4112 546.438 33.7042 546.438 46.5215C546.438 59.3389 533.415 76.8155 517.351 76.8155C501.287 76.8155 488.264 59.3389 488.264 46.5215Z" fill="#919AB6"/>
<path fill-rule="evenodd" clip-rule="evenodd" d="M367.093 28.6285C373.214 24.9358 381.306 23.2871 389.791 23.2871C398.276 23.2871 406.367 24.9358 412.489 28.6285C418.78 32.4239 423.002 38.4385 423.002 46.5215C423.002 54.1725 419.204 62.6777 413.452 69.2021C407.669 75.7622 399.355 80.9396 389.791 80.9396C380.227 80.9396 371.912 75.7622 366.129 69.2021C360.378 62.6777 356.58 54.1725 356.58 46.5215C356.58 38.4385 360.801 32.4239 367.093 28.6285ZM389.791 27.4112C373.726 27.4112 360.704 33.7042 360.704 46.5215C360.704 59.3388 373.726 76.8155 389.791 76.8155C405.855 76.8155 418.878 59.3388 418.878 46.5215C418.878 33.7042 405.855 27.4112 389.791 27.4112Z" fill="#08090C"/>
<path d="M360.704 46.5215C360.704 33.7042 373.726 27.4112 389.791 27.4112C405.855 27.4112 418.878 33.7042 418.878 46.5215C418.878 59.3388 405.855 76.8155 389.791 76.8155C373.726 76.8155 360.704 59.3388 360.704 46.5215Z" fill="#919AB6"/>
<path fill-rule="evenodd" clip-rule="evenodd" d="M574.021 332.356C576.708 334.792 578.933 337.726 580.531 341.151C582.56 345.503 584.11 351.84 585.036 358.835C585.97 365.898 586.305 373.925 585.748 381.789C585.192 389.625 583.738 397.491 580.974 404.131C578.221 410.746 573.98 416.571 567.604 419.545C561.227 422.518 554.039 422.022 547.202 419.879C540.339 417.728 533.378 413.786 527.019 409.175C520.636 404.547 514.703 399.131 509.892 393.875C506.385 390.043 503.37 386.181 501.213 382.673C486.341 387.74 470.368 390.658 453.726 390.658C436.991 390.658 420.933 387.707 405.991 382.588C403.831 386.118 400.795 390.012 397.26 393.874C392.449 399.131 386.516 404.547 380.133 409.175C373.774 413.786 366.813 417.728 359.95 419.879C353.114 422.022 345.925 422.518 339.548 419.545C333.172 416.571 328.931 410.745 326.178 404.131C323.414 397.491 321.96 389.625 321.405 381.789C320.847 373.925 321.182 365.898 322.117 358.834C323.042 351.84 324.592 345.503 326.622 341.151C328.253 337.653 330.539 334.667 333.304 332.201C317.136 312.493 307.452 290.39 307.452 270.559C307.452 243.908 324.856 224.48 351.397 211.929C357.125 209.221 363.308 206.814 369.882 204.706C353.265 177.037 343.141 143.872 343.102 115.17C343.102 115.117 343.101 115.064 343.101 115.011C343.101 114.872 343.1 114.733 343.1 114.595C343.1 109.238 343.453 104.101 344.136 99.1854C338.935 101.025 336.243 102.917 334.896 104.221C333.652 105.425 332.731 106.967 332.457 109.901C332.163 113.053 332.634 117.723 334.423 124.951C335.477 129.206 336.634 133.103 337.923 137.445L337.93 137.47C338.838 140.526 339.808 143.793 340.83 147.494C343.064 155.585 345.299 165.031 345.638 174.655C345.986 184.527 344.374 195.416 338.169 205.683C334.422 211.882 329.395 217.199 323.218 221.697C313.982 228.424 302.263 223.171 298.075 213.938C293.614 204.103 299.258 194.128 304.585 187.684C305.055 187.116 305.429 186.578 305.731 186.078C307.098 183.817 307.928 180.779 307.76 175.989C307.582 170.948 306.34 164.988 304.295 157.583C303.625 155.156 302.803 152.368 301.926 149.396L301.911 149.344C300.444 144.37 298.829 138.895 297.632 134.062C293.847 118.775 289.98 94.9506 308.532 76.9894C317.061 68.7321 328.712 63.4916 342.584 60.2394C348.274 58.9055 354.554 57.8556 361.466 57.0852C361.392 57.1255 361.355 57.1744 361.352 57.2313C361.39 57.1826 361.428 57.1339 361.466 57.0852C365.663 51.715 370.498 46.9061 375.885 42.6635C396.089 26.7544 423.723 19.0664 453.817 19.0664C483.91 19.0664 511.544 26.7544 531.748 42.6635C552.075 58.6697 564.533 82.7374 564.533 114.595L564.532 114.798L564.533 115.002C564.533 143.76 554.39 177.022 537.722 204.755C544.24 206.852 550.371 209.242 556.054 211.929C582.596 224.48 600 243.908 600 270.559C600 290.442 590.265 312.609 574.021 332.356ZM358.155 61.6362C352.862 62.3309 347.994 63.2027 343.525 64.2505C335.011 66.2465 327.534 68.9764 321.214 72.6258C330.8 75.1471 340.603 76.33 350.37 76.0569C352.529 70.9059 355.138 66.0982 358.155 61.6362ZM348.746 124.819C348.304 124.392 347.869 123.961 347.439 123.525C347.244 120.645 347.145 117.8 347.145 115.002C347.145 114.14 347.154 113.284 347.173 112.435C359.19 113.668 372.028 110.442 383.5 103.311C371.897 104.826 359.742 103.236 348.407 98.3547C349.65 90.4766 351.786 83.227 354.712 76.6029C371.163 80.2839 390.757 76.874 409.655 67.1337C394.217 68.3862 378.997 65.6147 365.695 58.6738C384.906 35.1383 417.208 23.5035 453.817 23.5035C490.299 23.5035 522.504 35.0577 541.739 58.4288C528.326 65.5494 512.931 68.4008 497.313 67.1337C516.444 76.9936 536.286 80.3667 552.861 76.464C555.814 83.1165 557.97 90.4013 559.222 98.3218C547.35 103.872 534.476 105.737 522.218 104.136C534.306 111.65 547.91 114.828 560.473 113.023C560.484 113.679 560.489 114.339 560.489 115.002C560.489 117.562 560.406 120.16 560.243 122.79C559.585 123.477 558.911 124.154 558.222 124.819C541.902 140.579 519.84 147.32 497.313 145.492C517.207 155.745 537.871 158.984 554.829 154.32C553.343 159.749 551.587 165.181 549.578 170.558C535.341 180.147 518.784 183.702 503.222 181.669C515.078 189.04 528.394 192.238 540.754 190.654C538.538 195.013 536.16 199.28 533.633 203.417L533.78 203.462L533.741 203.525C510.668 196.679 483.129 193.335 453.726 193.335C424.45 193.335 397.024 196.65 374.012 203.435C371.522 199.362 369.178 195.163 366.991 190.874C378.758 191.87 391.257 188.63 402.455 181.669C387.825 183.58 372.317 180.554 358.683 172.218C356.436 166.363 354.485 160.436 352.857 154.512C369.678 158.891 390.041 155.601 409.655 145.492C387.128 147.32 365.066 140.579 348.746 124.819ZM335.965 335.356C333.623 337.467 331.715 339.988 330.359 342.894C323.258 358.124 320.908 406.302 341.291 415.807C360.086 424.571 391.644 397.395 402.017 381.166C397.54 379.496 393.17 377.632 388.919 375.596C387.634 377.577 385.963 379.673 384.093 381.716C381.235 384.84 377.712 388.055 373.916 390.807C370.143 393.544 365.946 395.934 361.74 397.252C357.56 398.562 352.93 398.942 348.721 396.979C344.511 395.016 341.826 391.225 340.143 387.181C338.449 383.112 337.583 378.361 337.253 373.711C336.922 369.034 337.121 364.269 337.676 360.071C338.222 355.941 339.15 352.08 340.428 349.339C341.37 347.319 342.646 345.576 344.167 344.109C341.292 341.265 338.554 338.342 335.965 335.356ZM565.861 415.807C547.101 424.555 515.624 397.495 505.193 381.256C509.956 379.488 514.599 377.501 519.106 375.32C518.47 375.628 517.831 375.932 517.189 376.232C518.399 377.997 519.89 379.835 521.534 381.633C524.393 384.756 527.916 387.972 531.712 390.724C535.485 393.46 539.682 395.85 543.888 397.169C548.068 398.479 552.698 398.858 556.907 396.896C561.117 394.933 563.802 391.142 565.485 387.097C567.179 383.028 568.046 378.277 568.375 373.628C568.707 368.95 568.508 364.185 567.952 359.987C567.406 355.858 566.479 351.996 565.2 349.255C564.457 347.66 563.505 346.238 562.389 344.988C565.543 341.917 568.536 338.75 571.354 335.509C573.62 337.588 575.47 340.057 576.793 342.894C583.895 358.124 586.244 406.302 565.861 415.807ZM390.814 372.104C374.241 364.19 359.492 353.588 347.34 341.642C343.025 337.401 339.037 332.99 335.412 328.47C348.144 330.236 361.909 326.992 374.147 319.383C357.525 321.555 339.79 317.469 324.832 306.601C322.708 305.058 320.696 303.419 318.8 301.696C316.436 296.411 314.611 291.134 313.372 285.95C331.801 294.141 356.083 291.563 379.332 279.581C356.384 281.442 333.909 274.576 317.284 258.521C316.078 257.357 314.92 256.16 313.808 254.933C325.972 216.3 383.989 197.294 453.726 197.294C523.514 197.294 581.565 216.328 593.67 255.018C592.582 256.216 591.45 257.384 590.272 258.521C573.647 274.576 551.172 281.442 528.224 279.581C551.424 291.538 575.652 294.13 594.067 286.002C592.762 291.449 590.809 296.998 588.265 302.55C586.653 303.963 584.961 305.315 583.19 306.601C568.232 317.469 550.497 321.555 533.875 319.383C545.91 326.865 559.419 330.127 571.972 328.554C555.575 348.967 531.793 367.144 503.818 377.537C492.111 365.982 483.36 349.936 478.274 331.941C477.859 350.651 480.922 368.394 486.988 382.69L487.172 382.646C479.057 384.623 470.671 385.928 462.081 386.447L454.184 318.064L446.282 386.499C437.403 386.021 428.739 384.701 420.364 382.666C426.422 368.374 429.483 350.641 429.068 331.941C423.986 349.921 415.246 365.954 403.554 377.507C399.202 375.888 394.951 374.08 390.814 372.104ZM314.436 77.2604C313.377 78.1183 312.364 79.0141 311.398 79.9493C298.632 92.3079 297.455 107.799 299.285 121.212C309.047 122.3 319.125 121.442 328.878 118.55C327.334 109.001 328.774 104.413 332.03 101.261C333.877 99.4733 337.063 97.3428 342.551 95.3767C332.879 91.0724 323.379 84.956 314.436 77.2604ZM299.388 121.943C309.733 128.051 320.99 131.37 331.922 131.585C332.573 133.901 333.255 136.199 333.969 138.603C333.97 138.607 333.971 138.61 333.972 138.613L333.974 138.617L333.974 138.62L333.976 138.624L333.976 138.626C334.886 141.69 335.847 144.927 336.859 148.591C337.265 150.063 337.669 151.571 338.059 153.108C329.264 157.805 319.706 160.864 309.779 162.321C309.333 160.455 308.826 158.512 308.266 156.486C307.586 154.022 306.755 151.203 305.883 148.247C305.882 148.245 305.882 148.244 305.881 148.242L305.88 148.238L305.88 148.236L305.879 148.236L305.879 148.233L305.878 148.231C304.4 143.221 302.806 137.816 301.631 133.071C300.782 129.642 299.96 125.887 299.388 121.943ZM311.524 171.561C311.709 173.042 311.828 174.468 311.877 175.844C312.065 181.19 311.148 185.08 309.257 188.209C308.851 188.88 308.36 189.583 307.76 190.309C305.319 193.261 303.124 196.617 301.824 200.116L301.851 200.044C301.86 200.02 301.869 199.995 301.878 199.971L301.895 199.928C314.797 200.182 327.989 197.078 340.041 190.423C341.318 185.195 341.693 179.962 341.526 174.934C332.074 175.84 321.932 174.888 311.598 172.177C311.574 171.973 311.55 171.767 311.524 171.561ZM300.925 203.24C310.386 207.774 320.393 210.055 330.076 209.862C327.416 212.969 324.317 215.801 320.793 218.367C314.172 223.189 305.211 219.696 301.827 212.236C300.493 209.294 300.322 206.243 300.925 203.24Z" fill="#08090C"/>
<path d="M347.34 341.642C359.492 353.588 374.241 364.19 390.814 372.104C394.951 374.08 399.202 375.888 403.554 377.507C415.246 365.954 423.986 349.921 429.068 331.941C429.483 350.641 426.422 368.374 420.364 382.666C428.739 384.701 437.403 386.021 446.282 386.499L454.184 318.064L462.081 386.447C470.671 385.928 479.057 384.623 487.172 382.646L486.988 382.69C480.922 368.394 477.859 350.651 478.274 331.941C483.36 349.936 492.111 365.982 503.818 377.537C531.793 367.144 555.575 348.967 571.972 328.554C559.419 330.127 545.91 326.865 533.875 319.383C550.497 321.555 568.232 317.469 583.19 306.601C584.961 305.315 586.653 303.963 588.265 302.55C590.809 296.998 592.762 291.449 594.067 286.002C575.652 294.13 551.424 291.538 528.224 279.581C551.172 281.442 573.647 274.576 590.272 258.521C591.45 257.384 592.582 256.216 593.67 255.018C581.565 216.328 523.514 197.294 453.726 197.294C383.989 197.294 325.972 216.3 313.808 254.933C314.92 256.16 316.078 257.357 317.284 258.521C333.909 274.576 356.384 281.442 379.332 279.581C356.083 291.563 331.801 294.141 313.372 285.95C314.611 291.134 316.436 296.411 318.8 301.696C320.696 303.419 322.708 305.058 324.832 306.601C339.79 317.469 357.525 321.555 374.147 319.383C361.909 326.992 348.144 330.236 335.412 328.47C339.037 332.99 343.025 337.401 347.34 341.642Z" fill="#313749"/>
<path d="M505.193 381.256C515.624 397.495 547.101 424.555 565.861 415.807C586.244 406.302 583.895 358.124 576.793 342.894C575.47 340.057 573.62 337.588 571.354 335.509C568.536 338.75 565.543 341.917 562.389 344.988C563.505 346.238 564.457 347.66 565.2 349.255C566.479 351.996 567.406 355.858 567.952 359.987C568.508 364.185 568.707 368.95 568.375 373.628C568.046 378.277 567.179 383.028 565.485 387.097C563.802 391.142 561.117 394.933 556.907 396.896C552.698 398.858 548.068 398.479 543.888 397.169C539.682 395.85 535.485 393.46 531.712 390.724C527.916 387.972 524.393 384.756 521.534 381.633C519.89 379.835 518.399 377.997 517.189 376.232C517.831 375.932 518.47 375.628 519.106 375.32C514.599 377.501 509.956 379.488 505.193 381.256Z" fill="#313749"/>
<path d="M330.359 342.894C331.715 339.988 333.623 337.467 335.965 335.356C338.554 338.342 341.292 341.265 344.167 344.109C342.646 345.576 341.37 347.319 340.428 349.339C339.15 352.08 338.222 355.941 337.676 360.071C337.121 364.269 336.922 369.034 337.253 373.711C337.583 378.361 338.449 383.112 340.143 387.181C341.826 391.225 344.511 395.016 348.721 396.979C352.93 398.942 357.56 398.562 361.74 397.252C365.946 395.934 370.143 393.544 373.916 390.807C377.712 388.055 381.235 384.84 384.093 381.716C385.963 379.673 387.634 377.577 388.919 375.596C393.17 377.632 397.54 379.496 402.017 381.166C391.644 397.395 360.086 424.571 341.291 415.807C320.908 406.302 323.258 358.124 330.359 342.894Z" fill="#313749"/>
<path d="M347.439 123.525C347.869 123.961 348.304 124.392 348.746 124.819C365.066 140.579 387.128 147.32 409.655 145.492C390.041 155.601 369.678 158.891 352.857 154.512C354.485 160.436 356.436 166.363 358.683 172.218C372.317 180.554 387.825 183.58 402.455 181.669C391.257 188.63 378.758 191.87 366.991 190.874C369.178 195.163 371.522 199.362 374.012 203.435C397.024 196.65 424.45 193.335 453.726 193.335C483.129 193.335 510.668 196.679 533.741 203.525L533.78 203.462L533.633 203.417C536.16 199.28 538.538 195.013 540.754 190.654C528.394 192.238 515.078 189.04 503.222 181.669C518.784 183.702 535.341 180.147 549.578 170.558C551.587 165.181 553.343 159.749 554.829 154.32C537.871 158.984 517.207 155.745 497.313 145.492C519.84 147.32 541.902 140.579 558.222 124.819C558.911 124.154 559.585 123.477 560.243 122.79C560.406 120.16 560.489 117.562 560.489 115.002C560.489 114.339 560.484 113.679 560.473 113.023C547.91 114.828 534.306 111.65 522.218 104.136C534.476 105.737 547.35 103.872 559.222 98.3218C557.97 90.4013 555.814 83.1165 552.861 76.464C536.286 80.3667 516.444 76.9936 497.313 67.1337C512.931 68.4008 528.326 65.5494 541.739 58.4288C522.504 35.0577 490.299 23.5035 453.817 23.5035C417.208 23.5035 384.906 35.1383 365.695 58.6738C378.997 65.6147 394.217 68.3862 409.655 67.1337C390.757 76.874 371.163 80.2839 354.712 76.6029C351.786 83.227 349.65 90.4766 348.407 98.3547C359.742 103.236 371.897 104.826 383.5 103.311C372.028 110.442 359.19 113.668 347.173 112.435C347.154 113.284 347.145 114.14 347.145 115.002C347.145 117.8 347.244 120.645 347.439 123.525Z" fill="#313749"/>
<path d="M311.398 79.9493C312.364 79.0141 313.377 78.1183 314.436 77.2604C323.379 84.956 332.879 91.0724 342.551 95.3767C337.063 97.3428 333.877 99.4733 332.03 101.261C328.774 104.413 327.334 109.001 328.878 118.55C319.125 121.442 309.047 122.3 299.285 121.212C297.455 107.799 298.632 92.3079 311.398 79.9493Z" fill="#313749"/>
<path d="M343.525 64.2505C347.994 63.2027 352.862 62.3309 358.155 61.6362C355.138 66.0982 352.529 70.9059 350.37 76.0569C340.603 76.33 330.8 75.1471 321.214 72.6258C327.534 68.9764 335.011 66.2465 343.525 64.2505Z" fill="#313749"/>
<path d="M331.922 131.585C320.99 131.37 309.733 128.051 299.388 121.943C299.96 125.887 300.782 129.642 301.631 133.071C302.806 137.816 304.4 143.221 305.878 148.231L305.879 148.233L305.879 148.236L305.88 148.236L305.88 148.238L305.881 148.242L305.883 148.247C306.755 151.203 307.586 154.022 308.266 156.486C308.826 158.512 309.333 160.455 309.779 162.321C319.706 160.864 329.264 157.805 338.059 153.108C337.669 151.571 337.265 150.063 336.859 148.591C335.847 144.927 334.886 141.69 333.976 138.626L333.976 138.624L333.974 138.62L333.974 138.617L333.972 138.613L333.969 138.603C333.255 136.199 332.573 133.901 331.922 131.585Z" fill="#313749"/>
<path d="M311.877 175.844C311.828 174.468 311.709 173.042 311.524 171.561C311.55 171.767 311.574 171.973 311.598 172.177C321.932 174.888 332.074 175.84 341.526 174.934C341.693 179.962 341.318 185.195 340.041 190.423C327.989 197.078 314.797 200.182 301.895 199.928L301.878 199.971L301.851 200.044L301.824 200.116C303.124 196.617 305.319 193.261 307.76 190.309C308.36 189.583 308.851 188.88 309.257 188.209C311.148 185.08 312.065 181.19 311.877 175.844Z" fill="#313749"/>
<path d="M330.076 209.862C320.393 210.055 310.386 207.774 300.925 203.24C300.322 206.243 300.493 209.294 301.827 212.236C305.211 219.696 314.172 223.189 320.793 218.367C324.317 215.801 327.416 212.969 330.076 209.862Z" fill="#313749"/>
<path d="M402.217 148.986C404.24 164.936 407.487 181.046 411.693 195.819C425.034 194.157 439.151 193.335 453.726 193.335C468.711 193.335 483.212 194.204 496.884 195.962C501.052 181.35 504.282 165.425 506.318 149.636C506.318 149.636 506.318 149.636 506.318 149.636C506.485 148.34 506.644 147.046 506.794 145.753C503.653 145.837 500.488 145.75 497.314 145.492C497.313 145.492 497.314 145.492 497.314 145.492C500.488 145.75 503.653 145.837 506.794 145.753C508.088 134.66 508.78 123.694 508.78 113.36C508.78 96.667 506.975 82.2854 503.743 70.1929C503.491 69.2523 503.231 68.3255 502.962 67.4125C495.99 43.7116 483.313 29.3383 468.028 24.1089C463.379 23.7052 458.636 23.5036 453.817 23.5036C449.448 23.5036 445.14 23.6693 440.908 24.0013C425.491 29.136 412.692 43.5292 405.668 67.3679C405.476 68.0221 405.287 68.6833 405.103 69.3517C405.077 69.4475 405.051 69.5435 405.024 69.6396C404.71 70.793 404.409 71.9674 404.121 73.1629C404.12 73.1665 404.119 73.1701 404.118 73.1737C401.362 84.6283 399.838 98.018 399.838 113.36C399.838 123.703 400.531 134.679 401.826 145.781C401.967 146.988 402.115 148.197 402.27 149.407C402.252 149.266 402.235 149.126 402.217 148.986C402.217 148.986 402.217 148.986 402.217 148.986Z" fill="#919AB6"/>
<path fill-rule="evenodd" clip-rule="evenodd" d="M463.343 8.62269C469.464 4.9299 477.556 3.28121 486.041 3.28121C494.525 3.28121 502.617 4.9299 508.739 8.62269C515.03 12.418 519.252 18.4327 519.252 26.5157C519.252 34.1666 515.453 42.6718 509.702 49.1963C503.919 55.7563 495.605 60.9337 486.041 60.9337C476.477 60.9337 468.162 55.7563 462.379 49.1963C456.628 42.6718 452.829 34.1666 452.829 26.5157C452.829 18.4327 457.051 12.418 463.343 8.62269ZM486.041 7.40533C469.976 7.40533 456.953 13.6983 456.953 26.5157C456.953 39.333 469.976 56.8096 486.041 56.8096C502.105 56.8096 515.128 39.333 515.128 26.5157C515.128 13.6983 502.105 7.40533 486.041 7.40533Z" fill="#08090C"/>
<path d="M456.953 26.5157C456.953 13.6983 469.976 7.40533 486.041 7.40533C502.105 7.40533 515.128 13.6983 515.128 26.5157C515.128 39.333 502.105 56.8096 486.041 56.8096C469.976 56.8096 456.953 39.333 456.953 26.5157Z" fill="#919AB6"/>
<path fill-rule="evenodd" clip-rule="evenodd" d="M399.898 8.62275C406.019 4.92997 414.111 3.28127 422.596 3.28127C431.08 3.28127 439.172 4.92997 445.294 8.62275C451.585 12.4181 455.807 18.4327 455.807 26.5157C455.807 34.1667 452.008 42.6719 446.257 49.1963C440.474 55.7564 432.16 60.9338 422.596 60.9338C413.032 60.9338 404.717 55.7564 398.934 49.1963C393.183 42.6719 389.384 34.1667 389.384 26.5157C389.384 18.4327 393.606 12.4181 399.898 8.62275ZM422.596 7.40539C406.531 7.40539 393.508 13.6984 393.508 26.5157C393.508 39.333 406.531 56.8097 422.596 56.8097C438.66 56.8097 451.683 39.333 451.683 26.5157C451.683 13.6984 438.66 7.40539 422.596 7.40539Z" fill="#08090C"/>
<path d="M393.508 26.5157C393.508 13.6984 406.531 7.40539 422.596 7.40539C438.66 7.40539 451.683 13.6984 451.683 26.5157C451.683 39.333 438.66 56.8097 422.596 56.8097C406.531 56.8097 393.508 39.333 393.508 26.5157Z" fill="#919AB6"/>
<path d="M383.103 232.862C383.103 208.315 414.943 196.263 454.218 196.263C493.494 196.263 525.333 208.315 525.333 232.862C525.333 257.41 493.494 290.88 454.218 290.88C414.943 290.88 383.103 257.41 383.103 232.862Z" fill="#919AB6"/>
<path d="M453.62 273.535C461.475 273.535 467.842 269.555 467.842 264.646C467.842 260.067 462.303 253.935 455.183 253.131L455.176 251.887C455.175 251.852 455.175 251.817 455.175 251.782C455.175 243.185 461.32 236.478 468.594 236.478C475.72 236.478 481.759 242.909 482.006 251.256L484.479 251.256C484.485 251.061 484.488 250.865 484.488 250.669V250.644C484.482 240.976 477.505 232.879 468.594 232.879C461.602 232.879 455.793 237.875 453.619 244.691C451.446 237.875 445.637 232.879 438.645 232.879C429.73 232.879 422.751 240.983 422.751 250.657C422.751 250.857 422.754 251.057 422.76 251.256L425.233 251.256C425.481 242.909 431.519 236.478 438.645 236.478C445.919 236.478 452.064 243.185 452.064 251.782C452.064 251.802 452.064 251.822 452.064 251.841C452.063 251.857 452.063 251.872 452.063 251.887L452.056 253.131C444.936 253.935 439.397 260.067 439.397 264.646C439.397 269.555 445.764 273.535 453.62 273.535Z" fill="#08090C"/>
<circle cx="497.214" cy="304.406" r="21.0047" transform="rotate(-180 497.214 304.406)" fill="#08090C"/>
<ellipse cx="4.37291" cy="6.46736" rx="4.37291" ry="6.46736" transform="matrix(-0.909809 0.415028 -0.430286 -0.902692 493.423 312.599)" fill="#ECF1FE"/>
<circle cx="407.454" cy="304.11" r="21.0047" transform="rotate(-180 407.454 304.11)" fill="#08090C"/>
<ellipse cx="4.37291" cy="6.46736" rx="4.37291" ry="6.46736" transform="matrix(-0.909809 0.415028 -0.430286 -0.902692 403.666 312.599)" fill="#ECF1FE"/>
<path d="M415.68 260.124C406.363 259.627 393.92 257.529 380.526 253.94C367.131 250.35 355.306 245.947 346.989 241.718C352.278 246.788 364.698 252.633 379.792 256.677C394.886 260.722 408.564 261.87 415.68 260.124Z" fill="#08090C"/>
<path d="M416.121 267.032C407.814 268.964 396.383 270.158 383.764 270.158C371.145 270.158 359.713 268.964 351.406 267.032C357.25 270.561 369.544 272.992 383.764 272.992C397.983 272.992 410.277 270.561 416.121 267.032Z" fill="#08090C"/>
<path d="M416.403 253.208C408.567 250.915 398.517 246.491 388.081 240.466C377.645 234.441 368.789 227.949 362.885 222.31C365.953 228.156 374.904 236.131 386.664 242.92C398.423 249.71 409.805 253.474 416.403 253.208Z" fill="#08090C"/>
<path d="M491.717 260.124C501.034 259.627 513.477 257.529 526.872 253.94C540.266 250.351 552.091 245.947 560.408 241.718C555.119 246.788 542.699 252.633 527.605 256.677C512.511 260.722 498.833 261.87 491.717 260.124Z" fill="#08090C"/>
<path d="M491.277 267.032C499.583 268.964 511.015 270.158 523.634 270.158C536.253 270.158 547.684 268.964 555.991 267.032C550.147 270.561 537.854 272.992 523.634 272.992C509.414 272.992 497.121 270.561 491.277 267.032Z" fill="#08090C"/>
<path d="M490.995 253.208C498.83 250.915 508.88 246.491 519.316 240.466C529.752 234.441 538.609 227.949 544.512 222.31C541.444 228.156 532.493 236.131 520.733 242.92C508.974 249.71 497.592 253.474 490.995 253.208Z" fill="#08090C"/>
<path fill-rule="evenodd" clip-rule="evenodd" d="M574.325 375.842L570.725 381.87C546.826 421.887 503.077 448.701 453.062 448.701C403.046 448.701 359.297 421.887 335.398 381.87L331.798 375.842H574.325ZM338.82 379.827C339.622 381.171 340.448 382.499 341.296 383.812C364.974 420.459 406.185 444.716 453.062 444.716C499.938 444.716 541.149 420.459 564.827 383.812C565.676 382.499 566.501 381.171 567.304 379.827H338.82Z" fill="#08090C"/>
<path d="M341.296 383.812C340.448 382.499 339.622 381.171 338.82 379.827H567.304C566.501 381.171 565.676 382.499 564.827 383.812C541.149 420.459 499.938 444.716 453.062 444.716C406.185 444.716 364.974 420.459 341.296 383.812Z" fill="#3BA99C"/>
<path fill-rule="evenodd" clip-rule="evenodd" d="M592.614 315.845C591.976 337.967 586.189 358.806 576.41 377.2C574.182 381.389 569.816 383.811 565.242 383.811L340.877 383.811C336.303 383.811 331.937 381.389 329.709 377.2C320.685 360.227 315.061 341.171 313.744 320.945C313.263 313.545 319.31 307.76 326.378 307.76L584.703 307.76C589.074 307.76 592.744 311.326 592.614 315.845ZM572.891 375.329C571.395 378.142 568.429 379.826 565.242 379.826L340.877 379.826C337.69 379.826 334.724 378.142 333.228 375.329C324.463 358.844 319 340.336 317.721 320.686C317.4 315.756 321.437 311.746 326.378 311.746L584.703 311.746C586.904 311.746 588.694 313.531 588.631 315.731C588.01 337.224 582.39 357.464 572.891 375.329Z" fill="#08090C"/>
<path d="M565.242 379.826C568.429 379.826 571.395 378.142 572.891 375.329C582.39 357.464 588.01 337.224 588.631 315.731C588.694 313.531 586.904 311.746 584.703 311.746L326.378 311.746C321.437 311.746 317.4 315.756 317.721 320.686C319 340.336 324.463 358.844 333.228 375.329C334.724 378.142 337.69 379.826 340.877 379.826L565.242 379.826Z" fill="#3BA99C"/>
<path fill-rule="evenodd" clip-rule="evenodd" d="M407.047 389.662H351.206V357.756H407.047V389.662ZM403.062 385.677V361.741H355.191V385.677H403.062Z" fill="#08090C"/>
<path d="M403.062 385.677H355.191V361.741H403.062V385.677Z" fill="#08090C"/>
<path fill-rule="evenodd" clip-rule="evenodd" d="M365.874 374.864V381.511L357.225 372.857C356.767 372.399 356.024 372.399 355.566 372.857L355.483 372.94C355.024 373.399 355.024 374.142 355.483 374.6L366.268 385.393C366.669 385.794 367.288 385.844 367.743 385.543C367.808 385.5 367.87 385.45 367.927 385.393L368.01 385.31L368.012 385.308L378.713 374.6C378.891 374.423 379 374.202 379.039 373.971C379.062 373.881 379.073 373.787 379.073 373.69V373.573C379.073 372.924 378.548 372.398 377.9 372.398H370.211L378.713 363.891C379.171 363.432 379.171 362.689 378.713 362.231L378.63 362.148C378.172 361.689 377.429 361.689 376.971 362.148L368.337 370.786V362.977C368.337 362.328 367.812 361.802 367.164 361.802H367.047C366.399 361.802 365.874 362.328 365.874 362.977V372.398H361.591C360.943 372.398 360.418 372.924 360.418 373.573V373.69C360.418 374.338 360.943 374.864 361.591 374.864H365.874ZM374.965 374.864H368.337V381.496L374.965 374.864Z" fill="#3BA99C"/>
<path fill-rule="evenodd" clip-rule="evenodd" d="M381.531 384.564C381.531 385.212 381.006 385.737 380.358 385.737H380.241C379.593 385.737 379.068 385.212 379.068 384.564V373.33L379.049 373.311L379.068 373.293V362.976C379.068 362.328 379.593 361.802 380.241 361.802H380.358C381.006 361.802 381.531 362.328 381.531 362.976V370.829L390.201 362.155C390.659 361.697 391.402 361.697 391.86 362.155L402.64 372.94C402.697 372.997 402.748 373.059 402.79 373.124C402.92 373.32 402.984 373.546 402.984 373.772C402.984 373.847 402.976 373.921 402.962 373.994C402.919 374.216 402.812 374.427 402.64 374.599L391.86 385.384C391.402 385.842 390.659 385.842 390.201 385.384L390.118 385.301C389.95 385.133 389.844 384.927 389.799 384.71V375.002H381.531V384.564ZM392.262 375.002H396.073C396.721 375.002 397.246 374.476 397.246 373.828V373.711C397.246 373.063 396.721 372.538 396.073 372.538H392.262V365.913L400.051 373.705L392.262 381.498V375.002ZM389.799 366.042V372.538H383.305L389.799 366.042Z" fill="#3BA99C"/>
<path fill-rule="evenodd" clip-rule="evenodd" d="M105.347 420.072C99.2256 423.765 91.1337 425.414 82.6489 425.414C74.1641 425.414 66.0723 423.765 59.9509 420.072C53.6595 416.277 49.4377 410.262 49.4377 402.179C49.4377 394.528 53.2362 386.023 58.9875 379.499C64.7702 372.939 73.0849 367.761 82.6489 367.761C92.2129 367.761 100.528 372.939 106.31 379.499C112.062 386.023 115.86 394.528 115.86 402.179C115.86 410.262 111.638 416.277 105.347 420.072ZM82.6489 421.29C98.7133 421.29 111.736 414.997 111.736 402.179C111.736 389.362 98.7133 371.885 82.6489 371.885C66.5846 371.885 53.5618 389.362 53.5618 402.179C53.5618 414.997 66.5846 421.29 82.6489 421.29Z" fill="#08090C"/>
<path d="M111.736 402.179C111.736 414.997 98.7133 421.29 82.6489 421.29C66.5846 421.29 53.5618 414.997 53.5618 402.179C53.5618 389.362 66.5846 371.885 82.6489 371.885C98.7133 371.885 111.736 389.362 111.736 402.179Z" fill="#919AB6"/>
<path fill-rule="evenodd" clip-rule="evenodd" d="M232.907 420.072C226.786 423.765 218.694 425.414 210.209 425.414C201.724 425.414 193.633 423.765 187.511 420.072C181.22 416.277 176.998 410.262 176.998 402.179C176.998 394.528 180.796 386.023 186.548 379.499C192.331 372.939 200.645 367.761 210.209 367.761C219.773 367.761 228.088 372.939 233.871 379.499C239.622 386.023 243.42 394.528 243.42 402.179C243.42 410.262 239.199 416.277 232.907 420.072ZM210.209 421.29C226.274 421.29 239.296 414.997 239.296 402.179C239.296 389.362 226.274 371.885 210.209 371.885C194.145 371.885 181.122 389.362 181.122 402.179C181.122 414.997 194.145 421.29 210.209 421.29Z" fill="#08090C"/>
<path d="M239.296 402.179C239.296 414.997 226.274 421.29 210.209 421.29C194.145 421.29 181.122 414.997 181.122 402.179C181.122 389.362 194.145 371.885 210.209 371.885C226.274 371.885 239.296 389.362 239.296 402.179Z" fill="#919AB6"/>
<path fill-rule="evenodd" clip-rule="evenodd" d="M25.9792 116.344C23.2915 113.909 21.0668 110.975 19.4693 107.549C17.4399 103.197 15.8895 96.8606 14.9643 89.8663C14.0298 82.8024 13.6951 74.7759 14.2525 66.9117C14.8079 59.0761 16.2621 51.2099 19.0257 44.5699C21.7787 37.9552 26.0197 32.1294 32.3961 29.1561C38.7725 26.1827 45.9614 26.6786 52.7982 28.8215C59.6611 30.9726 66.6217 34.9149 72.9811 39.5261C79.3637 44.1541 85.2972 49.5698 90.1078 54.8263C93.6146 58.658 96.6305 62.5202 98.7874 66.0277C113.659 60.961 129.632 58.0431 146.274 58.0431C163.009 58.0431 179.067 60.9936 194.009 66.1124C196.169 62.5824 199.205 58.689 202.74 54.8265C207.551 49.57 213.484 44.1543 219.867 39.5263C226.226 34.9151 233.187 30.9728 240.05 28.8217C246.886 26.6788 254.075 26.1829 260.452 29.1563C266.828 32.1296 271.069 37.9554 273.822 44.5701C276.586 51.2101 278.04 59.0763 278.595 66.9119C279.153 74.7761 278.818 82.8026 277.883 89.8665C276.958 96.8608 275.408 103.198 273.378 107.55C271.747 111.048 269.461 114.033 266.696 116.499C282.864 136.208 292.548 158.311 292.548 178.142C292.548 204.793 275.144 224.221 248.603 236.772C242.875 239.48 236.692 241.887 230.118 243.995C246.735 271.664 256.859 304.829 256.898 333.531C256.898 333.584 256.899 333.637 256.899 333.69C256.899 333.829 256.9 333.968 256.9 334.106C256.9 339.463 256.547 344.6 255.864 349.515C261.065 347.676 263.757 345.784 265.104 344.48C266.348 343.276 267.269 341.734 267.543 338.8C267.837 335.647 267.366 330.978 265.577 323.75C264.523 319.495 263.366 315.598 262.077 311.256L262.07 311.231C261.162 308.174 260.192 304.908 259.17 301.207C256.936 293.116 254.701 283.67 254.362 274.046C254.014 264.174 255.626 253.285 261.831 243.018C265.578 236.819 270.605 231.502 276.782 227.003C286.018 220.277 297.737 225.53 301.925 234.763C306.386 244.598 300.742 254.573 295.415 261.017C294.945 261.585 294.571 262.123 294.269 262.623C292.902 264.884 292.072 267.922 292.24 272.712C292.418 277.752 293.66 283.713 295.705 291.118C296.375 293.545 297.197 296.333 298.074 299.305L298.089 299.357C299.556 304.331 301.171 309.806 302.368 314.639C306.153 329.926 310.02 353.75 291.468 371.711C282.939 379.969 271.288 385.209 257.416 388.461C251.726 389.795 245.446 390.845 238.534 391.616C238.608 391.575 238.645 391.526 238.648 391.469C238.61 391.518 238.572 391.567 238.534 391.616C234.337 396.986 229.502 401.795 224.115 406.037C203.911 421.946 176.277 429.634 146.183 429.634C116.09 429.634 88.4559 421.946 68.2522 406.037C47.9255 390.031 35.4674 365.963 35.4674 334.106L35.4676 333.902L35.4674 333.699C35.4674 304.941 45.61 271.678 62.2776 243.946C55.7603 241.849 49.6288 239.459 43.9458 236.772C17.4043 224.221 0 204.793 0 178.142C0 158.259 9.73492 136.092 25.9792 116.344ZM241.845 387.065C247.138 386.37 252.006 385.498 256.475 384.45C264.989 382.454 272.466 379.724 278.786 376.075C269.2 373.554 259.397 372.371 249.63 372.644C247.471 377.795 244.862 382.603 241.845 387.065ZM251.254 323.881C251.696 324.308 252.131 324.74 252.561 325.175C252.756 328.056 252.855 330.901 252.855 333.699C252.855 334.561 252.846 335.416 252.827 336.266C240.81 335.033 227.972 338.258 216.5 345.39C228.103 343.875 240.258 345.465 251.593 350.346C250.35 358.224 248.214 365.474 245.288 372.098C228.837 368.417 209.243 371.827 190.345 381.567C205.783 380.315 221.003 383.086 234.305 390.027C215.094 413.562 182.792 425.197 146.183 425.197C109.701 425.197 77.496 413.643 58.261 390.272C71.6737 383.151 87.0686 380.3 102.687 381.567C83.5563 371.707 63.7137 368.334 47.1393 372.237C44.1861 365.584 42.03 358.299 40.7779 350.379C52.65 344.829 65.5243 342.964 77.7818 344.565C65.694 337.051 52.0898 333.873 39.5274 335.678C39.5162 335.022 39.5107 334.362 39.5107 333.699C39.5107 331.139 39.5938 328.54 39.7573 325.911C40.4152 325.224 41.0888 324.547 41.7781 323.881C58.0981 308.121 80.1602 301.381 102.687 303.209C82.793 292.956 62.1291 289.717 45.1713 294.38C46.6565 288.952 48.4134 283.52 50.4217 278.142C64.6591 268.553 81.2157 264.999 96.7781 267.032C84.9216 259.661 71.6061 256.463 59.2458 258.047C61.4617 253.687 63.8396 249.421 66.3673 245.284L66.2204 245.239L66.2586 245.176C89.3322 252.022 116.871 255.366 146.274 255.366C175.55 255.366 202.976 252.051 225.988 245.265C228.478 249.339 230.822 253.537 233.009 257.827C221.242 256.831 208.743 260.071 197.545 267.032C212.175 265.121 227.683 268.147 241.317 276.483C243.564 282.337 245.515 288.265 247.143 294.188C230.322 289.81 209.959 293.1 190.345 303.209C212.872 301.381 234.934 308.122 251.254 323.881ZM264.035 113.344C266.377 111.234 268.285 108.713 269.641 105.807C276.742 90.577 279.092 42.3987 258.709 32.894C239.914 24.1301 208.356 51.3061 197.983 67.5345C202.46 69.2048 206.83 71.0687 211.081 73.1043C212.366 71.1235 214.037 69.0278 215.907 66.9849C218.765 63.8612 222.288 60.646 226.084 57.8934C229.857 55.1572 234.054 52.7672 238.26 51.449C242.44 50.1388 247.07 49.7592 251.279 51.7221C255.489 53.685 258.174 57.4759 259.857 61.5201C261.551 65.5892 262.417 70.3402 262.747 74.9897C263.078 79.6671 262.879 84.4319 262.324 88.6298C261.778 92.7596 260.85 96.6212 259.572 99.3623C258.63 101.382 257.354 103.124 255.833 104.592C258.708 107.436 261.446 110.359 264.035 113.344ZM34.1391 32.8938C52.8987 24.146 84.3758 51.2058 94.807 67.4444C90.0442 69.2127 85.4015 71.2001 80.8936 73.3804C81.5301 73.0726 82.1692 72.7685 82.811 72.4685C81.601 70.7036 80.1103 68.8655 78.4655 67.0683C75.6067 63.9445 72.0844 60.7292 68.2882 57.9766C64.5147 55.2404 60.318 52.8504 56.1123 51.5321C51.9323 50.2219 47.3022 49.8423 43.0926 51.8053C38.8831 53.7682 36.1977 57.5591 34.5145 61.6034C32.821 65.6724 31.9543 70.4236 31.6248 75.073C31.2932 79.7505 31.4922 84.5154 32.0475 88.7133C32.5938 92.8431 33.5214 96.7048 34.7996 99.4459C35.5433 101.041 36.495 102.462 37.6112 103.712C34.4571 106.784 31.4636 109.951 28.6455 113.192C26.3796 111.113 24.5299 108.643 23.207 105.806C16.1053 90.5768 13.7561 42.3985 34.1391 32.8938ZM209.186 76.5965C225.759 84.5107 240.508 95.1129 252.66 107.058C256.975 111.3 260.963 115.711 264.588 120.231C251.856 118.465 238.091 121.709 225.853 129.317C242.475 127.146 260.21 131.232 275.168 142.099C277.292 143.643 279.304 145.282 281.2 147.005C283.564 152.29 285.389 157.566 286.628 162.751C268.199 154.56 243.917 157.138 220.668 169.12C243.616 167.258 266.091 174.125 282.716 190.179C283.922 191.344 285.08 192.541 286.192 193.768C274.028 232.401 216.011 251.407 146.274 251.407C76.486 251.407 18.4347 232.373 6.32987 193.682C7.41762 192.485 8.55033 191.317 9.72811 190.179C26.3533 174.125 48.828 167.258 71.7757 169.12C48.5759 157.163 24.3479 154.571 5.93264 162.699C7.23839 157.252 9.19125 151.703 11.7348 146.151C13.3473 144.738 15.0393 143.386 16.8096 142.099C31.7678 131.232 49.5029 127.146 66.1247 129.317C54.0905 121.836 40.5808 118.574 28.0282 120.147C44.425 99.7343 68.2071 81.5566 96.1821 71.1637C107.889 82.7192 116.64 98.7643 121.726 116.76C122.141 98.0495 119.078 80.3072 113.012 66.0106L112.828 66.0552C120.943 64.0783 129.329 62.7726 137.919 62.254L145.816 130.637L153.718 62.202C162.597 62.6795 171.261 63.9996 179.636 66.0348C173.578 80.3272 170.517 98.06 170.932 116.76C176.014 98.7797 184.754 82.7467 196.446 71.1934C200.798 72.813 205.049 74.621 209.186 76.5965ZM285.564 371.44C286.623 370.583 287.636 369.687 288.602 368.752C301.368 356.393 302.545 340.902 300.715 327.488C290.953 326.401 280.875 327.259 271.122 330.151C272.666 339.7 271.226 344.287 267.97 347.44C266.123 349.228 262.937 351.358 257.449 353.324C267.121 357.628 276.621 363.745 285.564 371.44ZM300.612 326.758C290.267 320.65 279.01 317.331 268.078 317.115C267.427 314.8 266.745 312.502 266.031 310.097C266.03 310.094 266.029 310.091 266.028 310.088L266.026 310.083L266.026 310.081L266.024 310.076L266.024 310.074C265.114 307.011 264.153 303.774 263.141 300.11C262.735 298.638 262.331 297.13 261.941 295.592C270.736 290.896 280.294 287.837 290.221 286.379C290.667 288.246 291.174 290.188 291.734 292.215C292.414 294.679 293.245 297.497 294.117 300.454C294.118 300.455 294.118 300.457 294.119 300.459L294.12 300.463L294.12 300.464L294.121 300.465L294.121 300.468L294.122 300.47C295.6 305.48 297.194 310.885 298.369 315.629C299.218 319.059 300.04 322.813 300.612 326.758ZM288.476 277.139C288.291 275.659 288.172 274.233 288.123 272.857C287.935 267.51 288.852 263.621 290.743 260.492C291.149 259.821 291.64 259.118 292.24 258.392C294.681 255.439 296.876 252.084 298.176 248.585L298.149 248.657C298.14 248.681 298.131 248.706 298.122 248.73L298.105 248.772C285.203 248.518 272.011 251.623 259.959 258.278C258.682 263.506 258.307 268.739 258.474 273.767C267.926 272.861 278.068 273.813 288.402 276.524C288.426 276.728 288.45 276.933 288.476 277.139ZM299.075 245.461C289.614 240.927 279.607 238.646 269.924 238.839C272.584 235.732 275.683 232.9 279.207 230.334C285.828 225.512 294.789 229.005 298.173 236.465C299.507 239.407 299.678 242.458 299.075 245.461Z" fill="#08090C"/>
<path d="M252.66 107.058C240.508 95.1129 225.759 84.5107 209.186 76.5965C205.049 74.621 200.798 72.813 196.446 71.1934C184.754 82.7467 176.014 98.7797 170.932 116.76C170.517 98.06 173.578 80.3272 179.636 66.0348C171.261 63.9996 162.597 62.6795 153.718 62.202L145.816 130.637L137.919 62.254C129.329 62.7726 120.943 64.0783 112.828 66.0552L113.012 66.0106C119.078 80.3072 122.141 98.0495 121.726 116.76C116.64 98.7643 107.889 82.7192 96.1821 71.1637C68.2071 81.5566 44.425 99.7343 28.0282 120.147C40.5808 118.574 54.0905 121.836 66.1247 129.317C49.5029 127.146 31.7678 131.232 16.8096 142.099C15.0393 143.386 13.3473 144.738 11.7348 146.151C9.19125 151.703 7.23839 157.252 5.93264 162.699C24.3479 154.571 48.5759 157.163 71.7757 169.12C48.828 167.258 26.3533 174.125 9.72811 190.179C8.55033 191.317 7.41762 192.485 6.32987 193.682C18.4347 232.373 76.486 251.407 146.274 251.407C216.011 251.407 274.028 232.401 286.192 193.768C285.08 192.541 283.922 191.344 282.716 190.179C266.091 174.125 243.616 167.258 220.668 169.12C243.917 157.138 268.199 154.56 286.628 162.751C285.389 157.566 283.564 152.29 281.2 147.005C279.304 145.282 277.292 143.643 275.168 142.099C260.21 131.232 242.475 127.146 225.853 129.317C238.091 121.709 251.856 118.465 264.588 120.231C260.963 115.711 256.975 111.3 252.66 107.058Z" fill="#313749"/>
<path d="M94.807 67.4444C84.3758 51.2058 52.8987 24.146 34.1391 32.8938C13.7561 42.3985 16.1053 90.5768 23.207 105.806C24.5299 108.643 26.3796 111.113 28.6455 113.192C31.4636 109.951 34.4571 106.784 37.6112 103.712C36.495 102.462 35.5433 101.041 34.7996 99.4459C33.5214 96.7048 32.5938 92.8431 32.0475 88.7133C31.4922 84.5154 31.2932 79.7505 31.6248 75.073C31.9543 70.4236 32.821 65.6724 34.5145 61.6034C36.1977 57.5591 38.8831 53.7682 43.0926 51.8053C47.3022 49.8423 51.9323 50.2219 56.1123 51.5321C60.318 52.8504 64.5147 55.2404 68.2882 57.9766C72.0844 60.7292 75.6067 63.9445 78.4655 67.0683C80.1103 68.8655 81.601 70.7036 82.811 72.4685C82.1692 72.7685 81.5301 73.0726 80.8936 73.3804C85.4015 71.2001 90.0442 69.2127 94.807 67.4444Z" fill="#313749"/>
<path d="M269.641 105.807C268.285 108.713 266.377 111.234 264.035 113.344C261.446 110.359 258.708 107.436 255.833 104.592C257.354 103.124 258.63 101.382 259.572 99.3623C260.85 96.6212 261.778 92.7596 262.324 88.6298C262.879 84.4319 263.078 79.6671 262.747 74.9897C262.417 70.3402 261.551 65.5892 259.857 61.5201C258.174 57.4759 255.489 53.685 251.279 51.7221C247.07 49.7592 242.44 50.1388 238.26 51.449C234.054 52.7672 229.857 55.1572 226.084 57.8934C222.288 60.646 218.765 63.8612 215.907 66.9849C214.037 69.0278 212.366 71.1235 211.081 73.1043C206.83 71.0687 202.46 69.2048 197.983 67.5345C208.356 51.3061 239.914 24.1301 258.709 32.894C279.092 42.3987 276.742 90.577 269.641 105.807Z" fill="#313749"/>
<path d="M252.561 325.175C252.131 324.74 251.696 324.308 251.254 323.881C234.934 308.122 212.872 301.381 190.345 303.209C209.959 293.1 230.322 289.81 247.143 294.188C245.515 288.265 243.564 282.337 241.317 276.483C227.683 268.147 212.175 265.121 197.545 267.032C208.743 260.071 221.242 256.831 233.009 257.827C230.822 253.537 228.478 249.339 225.988 245.265C202.976 252.051 175.55 255.366 146.274 255.366C116.871 255.366 89.3322 252.022 66.2586 245.176L66.2204 245.239L66.3673 245.284C63.8396 249.421 61.4617 253.687 59.2458 258.047C71.6061 256.463 84.9216 259.661 96.7781 267.032C81.2157 264.999 64.6591 268.553 50.4217 278.142C48.4134 283.52 46.6565 288.952 45.1713 294.38C62.1291 289.717 82.793 292.956 102.687 303.209C80.1602 301.381 58.0981 308.121 41.7781 323.881C41.0888 324.547 40.4152 325.224 39.7573 325.911C39.5938 328.54 39.5107 331.139 39.5107 333.699C39.5107 334.362 39.5162 335.022 39.5274 335.678C52.0898 333.873 65.694 337.051 77.7818 344.565C65.5243 342.964 52.65 344.829 40.7779 350.379C42.03 358.299 44.1861 365.584 47.1393 372.237C63.7137 368.334 83.5563 371.707 102.687 381.567C87.0686 380.3 71.6737 383.151 58.261 390.272C77.496 413.643 109.701 425.197 146.183 425.197C182.792 425.197 215.094 413.562 234.305 390.027C221.003 383.086 205.783 380.315 190.345 381.567C209.243 371.827 228.837 368.417 245.288 372.098C248.214 365.474 250.35 358.224 251.593 350.346C240.258 345.465 228.103 343.875 216.5 345.39C227.972 338.258 240.81 335.033 252.827 336.266C252.846 335.416 252.855 334.561 252.855 333.699C252.855 330.901 252.756 328.056 252.561 325.175Z" fill="#313749"/>
<path d="M288.602 368.752C287.636 369.687 286.623 370.583 285.564 371.44C276.621 363.745 267.121 357.628 257.449 353.324C262.937 351.358 266.123 349.228 267.97 347.44C271.226 344.287 272.666 339.7 271.122 330.151C280.875 327.259 290.953 326.401 300.715 327.488C302.545 340.902 301.368 356.393 288.602 368.752Z" fill="#313749"/>
<path d="M256.475 384.45C252.006 385.498 247.138 386.37 241.845 387.065C244.862 382.603 247.471 377.795 249.63 372.644C259.397 372.371 269.2 373.554 278.786 376.075C272.466 379.724 264.989 382.454 256.475 384.45Z" fill="#313749"/>
<path d="M268.078 317.115C279.01 317.331 290.267 320.65 300.612 326.758C300.04 322.813 299.218 319.059 298.369 315.629C297.194 310.885 295.6 305.48 294.122 300.47L294.121 300.468L294.121 300.465L294.12 300.464L294.12 300.463L294.119 300.459L294.117 300.454C293.245 297.497 292.414 294.679 291.734 292.215C291.174 290.188 290.667 288.246 290.221 286.379C280.294 287.837 270.736 290.896 261.941 295.592C262.331 297.13 262.735 298.638 263.141 300.11C264.153 303.774 265.114 307.011 266.024 310.074L266.024 310.076L266.026 310.081L266.026 310.083L266.028 310.088L266.031 310.097C266.745 312.502 267.427 314.8 268.078 317.115Z" fill="#313749"/>
<path d="M288.123 272.857C288.172 274.233 288.291 275.659 288.476 277.139C288.45 276.933 288.426 276.728 288.402 276.524C278.068 273.813 267.926 272.861 258.474 273.767C258.307 268.739 258.682 263.506 259.959 258.278C272.011 251.623 285.203 248.518 298.105 248.772L298.122 248.73L298.149 248.657L298.176 248.585C296.876 252.084 294.681 255.439 292.24 258.392C291.64 259.118 291.149 259.821 290.743 260.492C288.852 263.621 287.935 267.51 288.123 272.857Z" fill="#313749"/>
<path d="M269.924 238.839C279.607 238.646 289.614 240.927 299.075 245.461C299.678 242.458 299.507 239.407 298.173 236.465C294.789 229.005 285.828 225.512 279.207 230.334C275.683 232.9 272.584 235.732 269.924 238.839Z" fill="#313749"/>
<path d="M197.783 299.715C195.76 283.765 192.513 267.655 188.307 252.881C174.966 254.544 160.849 255.366 146.274 255.366C131.289 255.366 116.788 254.497 103.116 252.739C98.9475 267.35 95.7178 283.276 93.6824 299.065C93.6824 299.065 93.6824 299.065 93.6824 299.065C93.5154 300.361 93.3565 301.655 93.2057 302.948C96.3469 302.864 99.5121 302.951 102.686 303.209C102.687 303.209 102.686 303.209 102.686 303.209C99.5121 302.951 96.3469 302.864 93.2057 302.948C91.9119 314.041 91.2203 325.007 91.2203 335.341C91.2203 352.034 93.0248 366.415 96.2575 378.508C96.509 379.449 96.7691 380.375 97.0376 381.288C104.01 404.989 116.687 419.363 131.972 424.592C136.621 424.996 141.364 425.197 146.183 425.197C150.552 425.197 154.86 425.031 159.092 424.7C174.509 419.565 187.308 405.172 194.332 381.333C194.524 380.679 194.713 380.017 194.897 379.349C194.923 379.253 194.949 379.157 194.976 379.061C195.29 377.908 195.591 376.733 195.879 375.538C195.88 375.534 195.881 375.531 195.882 375.527C198.638 364.073 200.162 350.683 200.162 335.341C200.162 324.998 199.469 314.022 198.174 302.919C198.033 301.712 197.885 300.504 197.73 299.294C197.748 299.435 197.765 299.575 197.783 299.715C197.783 299.715 197.783 299.715 197.783 299.715Z" fill="#919AB6"/>
<path fill-rule="evenodd" clip-rule="evenodd" d="M136.657 440.078C130.536 443.771 122.444 445.42 113.959 445.42C105.475 445.42 97.3828 443.771 91.2615 440.078C84.9701 436.283 80.7482 430.268 80.7482 422.185C80.7482 414.534 84.5467 406.029 90.298 399.505C96.0808 392.944 104.395 387.767 113.959 387.767C123.523 387.767 131.838 392.944 137.621 399.505C143.372 406.029 147.171 414.534 147.171 422.185C147.171 430.268 142.949 436.283 136.657 440.078ZM113.959 441.295C130.024 441.295 143.047 435.002 143.047 422.185C143.047 409.368 130.024 391.891 113.959 391.891C97.8951 391.891 84.8723 409.368 84.8723 422.185C84.8723 435.002 97.8951 441.295 113.959 441.295Z" fill="#08090C"/>
<path d="M143.047 422.185C143.047 435.002 130.024 441.295 113.959 441.295C97.8951 441.295 84.8723 435.002 84.8723 422.185C84.8723 409.368 97.8951 391.891 113.959 391.891C130.024 391.891 143.047 409.368 143.047 422.185Z" fill="#919AB6"/>
<path fill-rule="evenodd" clip-rule="evenodd" d="M200.102 440.078C193.981 443.771 185.889 445.42 177.404 445.42C168.92 445.42 160.828 443.771 154.706 440.078C148.415 436.283 144.193 430.268 144.193 422.185C144.193 414.534 147.992 406.029 153.743 399.505C159.526 392.944 167.84 387.767 177.404 387.767C186.968 387.767 195.283 392.944 201.066 399.505C206.817 406.029 210.616 414.534 210.616 422.185C210.616 430.268 206.394 436.283 200.102 440.078ZM177.404 441.295C193.469 441.295 206.492 435.002 206.492 422.185C206.492 409.368 193.469 391.891 177.404 391.891C161.34 391.891 148.317 409.368 148.317 422.185C148.317 435.002 161.34 441.295 177.404 441.295Z" fill="#08090C"/>
<path d="M206.492 422.185C206.492 435.002 193.469 441.295 177.404 441.295C161.34 441.295 148.317 435.002 148.317 422.185C148.317 409.368 161.34 391.891 177.404 391.891C193.469 391.891 206.492 409.368 206.492 422.185Z" fill="#919AB6"/>
<path d="M216.897 215.839C216.897 240.386 185.057 252.438 145.782 252.438C106.506 252.438 74.6671 240.386 74.6671 215.839C74.6671 191.291 106.506 157.821 145.782 157.821C185.057 157.821 216.897 191.291 216.897 215.839Z" fill="#919AB6"/>
<path d="M146.381 175.166C138.525 175.166 132.158 179.146 132.158 184.055C132.158 188.634 137.698 194.766 144.817 195.57L144.824 196.814C144.825 196.849 144.825 196.884 144.825 196.919C144.825 205.516 138.68 212.223 131.406 212.223C124.28 212.223 118.241 205.792 117.994 197.444L115.521 197.444C115.515 197.639 115.512 197.836 115.512 198.032V198.057C115.518 207.725 122.495 215.822 131.406 215.822C138.398 215.822 144.207 210.826 146.381 204.01C148.554 210.826 154.363 215.822 161.355 215.822C170.27 215.822 177.249 207.718 177.249 198.044C177.249 197.844 177.246 197.644 177.24 197.445L174.767 197.445C174.519 205.792 168.481 212.223 161.355 212.223C154.081 212.223 147.936 205.516 147.936 196.919C147.936 196.899 147.936 196.879 147.937 196.86C147.937 196.844 147.937 196.829 147.937 196.814L147.944 195.57C155.064 194.766 160.603 188.634 160.603 184.055C160.603 179.146 154.236 175.166 146.381 175.166Z" fill="#08090C"/>
<circle cx="102.786" cy="144.294" r="21.0047" fill="#08090C"/>
<ellipse cx="4.37291" cy="6.46736" rx="4.37291" ry="6.46736" transform="matrix(0.909809 -0.415028 0.430286 0.902692 106.577 136.102)" fill="#ECF1FE"/>
<circle cx="192.546" cy="144.59" r="21.0047" fill="#08090C"/>
<ellipse cx="4.37291" cy="6.46736" rx="4.37291" ry="6.46736" transform="matrix(0.909809 -0.415028 0.430286 0.902692 196.334 136.102)" fill="#ECF1FE"/>
<path d="M184.32 188.577C193.637 189.074 206.08 191.172 219.474 194.761C232.869 198.35 244.694 202.754 253.011 206.983C247.722 201.913 235.302 196.068 220.208 192.024C205.114 187.979 191.436 186.831 184.32 188.577Z" fill="#08090C"/>
<path d="M183.879 181.669C192.186 179.737 203.618 178.543 216.237 178.543C228.856 178.543 240.287 179.737 248.594 181.669C242.75 178.14 230.456 175.709 216.237 175.709C202.017 175.709 189.723 178.14 183.879 181.669Z" fill="#08090C"/>
<path d="M183.597 195.493C191.433 197.786 201.483 202.21 211.919 208.235C222.355 214.26 231.211 220.752 237.115 226.391C234.047 220.545 225.096 212.57 213.336 205.781C201.576 198.991 190.195 195.227 183.597 195.493Z" fill="#08090C"/>
<path d="M108.283 188.577C98.9658 189.074 86.523 191.172 73.1285 194.761C59.7339 198.35 47.9088 202.754 39.5916 206.983C44.8813 201.912 57.3011 196.068 72.3949 192.023C87.4887 187.979 101.167 186.831 108.283 188.577Z" fill="#08090C"/>
<path d="M108.723 181.669C100.417 179.737 88.9852 178.543 76.3662 178.543C63.7472 178.543 52.3157 179.737 44.0089 181.669C49.8528 178.14 62.1463 175.709 76.3662 175.709C90.586 175.709 102.879 178.14 108.723 181.669Z" fill="#08090C"/>
<path d="M109.005 195.493C101.17 197.786 91.1195 202.21 80.6839 208.235C70.2482 214.26 61.3913 220.752 55.4878 226.391C58.5562 220.545 67.5071 212.57 79.2667 205.781C91.0263 198.991 102.408 195.227 109.005 195.493Z" fill="#08090C"/>
<path fill-rule="evenodd" clip-rule="evenodd" d="M25.6747 72.8591L29.2749 66.8308C53.1736 26.8135 96.9227 0 146.938 0C196.954 0 240.703 26.8135 264.602 66.8308L268.202 72.8591H25.6747ZM261.18 68.874C260.378 67.5302 259.552 66.2016 258.704 64.889C235.026 28.2422 193.815 3.98507 146.938 3.98507C100.062 3.98507 58.8506 28.2422 35.1726 64.889C34.3245 66.2016 33.4988 67.5302 32.6963 68.874H261.18Z" fill="#08090C"/>
<path d="M258.704 64.889C259.552 66.2016 260.378 67.5302 261.18 68.874H32.6963C33.4988 67.5302 34.3245 66.2016 35.1726 64.889C58.8506 28.2422 100.062 3.98507 146.938 3.98507C193.815 3.98507 235.026 28.2422 258.704 64.889Z" fill="#4B63AA"/>
<path fill-rule="evenodd" clip-rule="evenodd" d="M7.38603 132.855C8.02432 110.734 13.8106 89.8945 23.5905 71.5013C25.8178 67.3123 30.1843 64.89 34.7578 64.89H259.123C263.697 64.89 268.063 67.3123 270.291 71.5013C279.315 88.4738 284.939 107.53 286.256 127.756C286.737 135.156 280.69 140.94 273.622 140.94L15.2971 140.94C10.926 140.94 7.25561 137.375 7.38603 132.855ZM27.1091 73.3722C28.605 70.5588 31.5715 68.8751 34.7578 68.8751H259.123C262.31 68.8751 265.276 70.5588 266.772 73.3722C275.537 89.8572 281 108.365 282.279 128.015C282.6 132.945 278.563 136.955 273.622 136.955L15.2971 136.955C13.0962 136.955 11.306 135.17 11.3694 132.97C11.9896 111.477 17.6104 91.2365 27.1091 73.3722Z" fill="#08090C"/>
<path d="M34.7578 68.8751C31.5715 68.8751 28.605 70.5588 27.1091 73.3722C17.6104 91.2365 11.9896 111.477 11.3694 132.97C11.306 135.17 13.0962 136.955 15.2971 136.955L273.622 136.955C278.563 136.955 282.6 132.945 282.279 128.015C281 108.365 275.537 89.8572 266.772 73.3722C265.276 70.5588 262.31 68.8751 259.123 68.8751H34.7578Z" fill="#4B63AA"/>
<path fill-rule="evenodd" clip-rule="evenodd" d="M192.953 59.0391H248.794V90.9447H192.953V59.0391ZM196.938 63.0242V86.9596H244.809V63.0242H196.938Z" fill="#08090C"/>
<path d="M196.938 63.0242H244.809V86.9596H196.938V63.0242Z" fill="#08090C"/>
<path fill-rule="evenodd" clip-rule="evenodd" d="M234.126 73.8368V67.1895L242.775 75.8438C243.233 76.3023 243.976 76.3023 244.434 75.8438L244.517 75.7608C244.976 75.3023 244.976 74.5589 244.517 74.1004L233.732 63.3079C233.331 62.9067 232.712 62.8565 232.257 63.1574C232.192 63.2004 232.13 63.2506 232.073 63.3079L231.99 63.3909L231.988 63.3926L221.287 74.1004C221.109 74.2783 221 74.4991 220.961 74.7295C220.938 74.8196 220.927 74.9139 220.927 75.0109V75.1283C220.927 75.7767 221.452 76.3024 222.1 76.3024H229.789L221.287 84.8099C220.829 85.2684 220.829 86.0118 221.287 86.4703L221.37 86.5533C221.828 87.0118 222.571 87.0118 223.029 86.5533L231.662 77.9146V85.7243C231.662 86.3727 232.188 86.8983 232.836 86.8983H232.953C233.601 86.8983 234.126 86.3727 234.126 85.7243V76.3024H238.409C239.057 76.3024 239.582 75.7767 239.582 75.1283V75.0109C239.582 74.3625 239.057 73.8368 238.409 73.8368H234.126ZM225.035 73.8368H231.662V67.205L225.035 73.8368Z" fill="#4B63AA"/>
<path fill-rule="evenodd" clip-rule="evenodd" d="M218.469 64.1372C218.469 63.4893 218.994 62.964 219.642 62.964H219.759C220.407 62.964 220.932 63.4893 220.932 64.1372V75.3711L220.951 75.3897L220.932 75.4082V85.7251C220.932 86.3731 220.407 86.8983 219.759 86.8983H219.642C218.994 86.8983 218.469 86.3731 218.469 85.7251V77.872L209.799 86.5458C209.341 87.004 208.598 87.0039 208.14 86.5458L197.36 75.7608C197.303 75.7035 197.252 75.6418 197.209 75.5767C197.08 75.3807 197.016 75.1545 197.016 74.9284C197.016 74.8542 197.024 74.7801 197.038 74.7071C197.081 74.4852 197.188 74.2734 197.36 74.1015L208.14 63.3166C208.598 62.8584 209.341 62.8584 209.799 63.3166L209.882 63.3995C210.05 63.5677 210.156 63.7742 210.201 63.9909V73.6992H218.469V64.1372ZM207.738 73.6992H203.927C203.279 73.6992 202.754 74.2245 202.754 74.8725V74.9898C202.754 75.6378 203.279 76.1631 203.927 76.1631H207.738V82.7875L199.949 74.9954L207.738 67.2032V73.6992ZM210.201 82.6591V76.1631H216.695L210.201 82.6591Z" fill="#4B63AA"/>
</svg>
