<svg width="600" height="482" viewBox="0 0 600 482" fill="none" xmlns="http://www.w3.org/2000/svg">
<path fill-rule="evenodd" clip-rule="evenodd" d="M255.228 328.66C252.683 321.07 250.296 312.528 250.88 305.061C251.192 301.062 252.397 296.687 255.476 292.925C258.605 289.101 262.862 286.896 267.456 285.836C275.978 283.87 287.328 285.465 301.345 289.416C306.713 290.929 309.838 296.507 308.325 301.874C306.812 307.242 301.234 310.367 295.866 308.854C282.272 305.022 275.197 304.776 271.996 305.515C271.767 308.44 271.798 314.552 274.376 322.24C275.801 326.491 277.299 330.487 278.902 334.764C280.299 338.492 281.777 342.433 283.356 346.944C286.458 355.801 289.409 365.476 290.575 374.9C291.739 384.307 291.254 394.443 286.448 403.541C276.751 421.901 253.494 429.747 215.651 428.148C214.358 428.093 213.047 428.028 211.72 427.951L212.885 407.789C252.437 410.074 264.747 401.387 268.591 394.11C270.721 390.076 271.429 384.622 270.533 377.381C269.638 370.156 267.275 362.125 264.296 353.619C263.107 350.224 261.677 346.384 260.239 342.522L260.239 342.521L260.238 342.521C258.424 337.649 256.597 332.744 255.228 328.66ZM256.551 343.898C256.55 343.897 256.55 343.896 256.55 343.895L256.533 343.85C254.731 339.011 252.886 334.058 251.496 329.912C248.955 322.333 246.303 313.103 246.955 304.755C247.31 300.213 248.699 294.991 252.43 290.432C256.231 285.788 261.333 283.209 266.571 282.001C276.129 279.796 288.309 281.651 302.413 285.627C309.874 287.73 314.216 295.482 312.113 302.942C310.011 310.403 302.258 314.745 294.798 312.642C285.198 309.936 279.269 309.162 275.865 309.119C275.971 312.046 276.49 316.164 278.108 320.989C279.505 325.157 280.976 329.083 282.58 333.362L282.588 333.382L282.593 333.395C283.988 337.117 285.478 341.092 287.072 345.643C290.197 354.569 293.262 364.565 294.482 374.416C295.698 384.245 295.256 395.294 289.929 405.38C278.692 426.656 251.767 434.207 211.493 431.881L207.563 431.654L209.182 403.632L213.112 403.859C252.523 406.136 262.467 397.276 265.11 392.271C266.72 389.223 267.47 384.681 266.626 377.864C265.785 371.069 263.536 363.359 260.581 354.92C259.408 351.57 257.992 347.768 256.551 343.898Z" fill="#08090C"/>
<path d="M255.228 328.66C252.683 321.07 250.296 312.528 250.88 305.061C251.192 301.062 252.397 296.687 255.476 292.925C258.605 289.101 262.862 286.896 267.456 285.836C275.978 283.87 287.328 285.465 301.345 289.416C306.713 290.929 309.838 296.507 308.325 301.874C306.812 307.242 301.234 310.367 295.866 308.854C282.272 305.022 275.197 304.776 271.996 305.515C271.767 308.44 271.798 314.552 274.376 322.24C275.801 326.491 277.299 330.487 278.902 334.764C280.299 338.492 281.777 342.433 283.356 346.944C286.458 355.801 289.409 365.476 290.575 374.9C291.739 384.307 291.254 394.443 286.448 403.541C276.751 421.901 253.494 429.747 215.651 428.148C214.358 428.093 213.047 428.028 211.72 427.951L212.885 407.789C252.437 410.074 264.747 401.387 268.591 394.11C270.721 390.076 271.429 384.622 270.533 377.381C269.638 370.156 267.275 362.125 264.296 353.619C263.107 350.224 261.677 346.384 260.239 342.522L260.239 342.521L260.238 342.521C258.424 337.649 256.597 332.744 255.228 328.66Z" fill="#313749"/>
<path d="M250.691 301.173C251.358 298.348 252.587 295.494 254.689 292.925C256.364 290.879 258.362 289.295 260.563 288.104C265.816 289.158 271.08 291.732 275.971 295.701C267.587 294.272 258.77 296.027 250.691 301.173Z" fill="#08090C"/>
<path d="M254.753 329.082C254.697 328.938 254.642 328.794 254.587 328.651C252.909 324.266 251.29 319.563 250.354 314.934C258.409 314.679 267.086 316.591 275.752 320.527C275.956 321.085 276.171 321.658 276.397 322.247C276.637 322.873 276.878 323.495 277.122 324.112C269.365 324.187 261.78 325.832 254.753 329.082Z" fill="#08090C"/>
<path d="M266.209 361.817C265.494 359.469 264.705 357.073 263.863 354.637C271.714 355.888 279.495 357.942 286.915 360.751C286.996 361.052 287.077 361.353 287.156 361.655C280.246 361.19 273.215 361.24 266.209 361.817Z" fill="#08090C"/>
<path d="M250.576 404.775C254.114 403.879 257.018 402.797 259.402 401.605C258.789 407.754 256.051 414.009 251.392 419.749C252.231 414.828 251.973 409.758 250.576 404.775Z" fill="#08090C"/>
<path d="M295.414 287.061C293.729 292.278 291.178 297.573 287.799 302.796C288.407 296.828 287.985 290.905 286.513 285.208C289.329 285.675 292.297 286.298 295.414 287.061Z" fill="#08090C"/>
<path d="M264.467 393.618C266.471 391.151 268.284 388.798 269.921 386.554C273.119 391.033 275.77 396.39 277.752 402.47C273.848 398.693 269.381 395.704 264.467 393.618Z" fill="#08090C"/>
<path fill-rule="evenodd" clip-rule="evenodd" d="M93.6888 451.289C87.6498 454.932 79.655 456.564 71.2568 456.564C62.8587 456.564 54.8639 454.932 48.8249 451.289C42.6235 447.548 38.4724 441.629 38.4724 433.674C38.4724 426.133 42.2194 417.732 47.9053 411.282C53.6211 404.798 61.8286 399.693 71.2568 399.693C80.6851 399.693 88.8925 404.798 94.6084 411.282C100.294 417.732 104.041 426.133 104.041 433.674C104.041 441.629 99.8901 447.548 93.6888 451.289ZM71.2568 452.628C87.1892 452.628 100.105 446.386 100.105 433.674C100.105 420.962 87.1892 403.63 71.2568 403.63C55.3245 403.63 42.4088 420.962 42.4088 433.674C42.4088 446.386 55.3245 452.628 71.2568 452.628Z" fill="#08090C"/>
<path d="M100.105 433.674C100.105 446.386 87.1892 452.628 71.2568 452.628C55.3245 452.628 42.4088 446.386 42.4088 433.674C42.4088 420.962 55.3245 403.63 71.2568 403.63C87.1892 403.63 100.105 420.962 100.105 433.674Z" fill="#919AB6"/>
<path fill-rule="evenodd" clip-rule="evenodd" d="M236.544 451.289C230.505 454.932 222.51 456.564 214.112 456.564C205.714 456.564 197.719 454.932 191.68 451.289C185.479 447.548 181.328 441.628 181.328 433.674C181.328 426.133 185.075 417.732 190.761 411.282C196.477 404.798 204.684 399.693 214.112 399.693C223.541 399.693 231.748 404.798 237.464 411.282C243.15 417.732 246.897 426.133 246.897 433.674C246.897 441.628 242.746 447.548 236.544 451.289ZM214.112 452.628C230.045 452.628 242.96 446.386 242.96 433.674C242.96 420.962 230.045 403.629 214.112 403.629C198.18 403.629 185.264 420.962 185.264 433.674C185.264 446.386 198.18 452.628 214.112 452.628Z" fill="#08090C"/>
<path d="M242.96 433.674C242.96 446.386 230.045 452.628 214.112 452.628C198.18 452.628 185.264 446.386 185.264 433.674C185.264 420.962 198.18 403.629 214.112 403.629C230.045 403.629 242.96 420.962 242.96 433.674Z" fill="#919AB6"/>
<path fill-rule="evenodd" clip-rule="evenodd" d="M218.44 448.021C198.767 463.515 171.863 471 142.569 471C113.276 471 86.3711 463.515 66.6984 448.021C46.9052 432.432 34.7798 408.995 34.7798 377.984C34.7798 347.221 46.7011 311.163 65.8716 282.77C84.9726 254.481 111.973 232.836 142.569 232.836C173.165 232.836 200.166 254.481 219.267 282.77C238.437 311.163 250.358 347.221 250.358 377.984C250.358 408.995 238.233 432.432 218.44 448.021ZM142.569 467.064C199.926 467.064 246.422 437.73 246.422 377.984C246.422 318.237 199.926 236.772 142.569 236.772C85.2127 236.772 38.7162 318.237 38.7162 377.984C38.7162 437.73 85.2127 467.064 142.569 467.064Z" fill="#08090C"/>
<path d="M246.422 377.984C246.422 437.73 199.926 467.064 142.569 467.064C85.2127 467.064 38.7162 437.73 38.7162 377.984C38.7162 318.237 85.2127 236.772 142.569 236.772C199.926 236.772 246.422 318.237 246.422 377.984Z" fill="#313749"/>
<path d="M232.398 313.368C229.982 307.887 227.303 302.509 224.384 297.304C217.03 297.791 209.506 300.96 202.629 306.542C212.514 304.856 222.928 307.045 232.398 313.368Z" fill="#08090C"/>
<path d="M236.49 422.063C239.805 416.175 242.419 409.705 244.235 402.648C230.667 399.222 214.666 402.877 199.22 412.87C212.325 411.536 225.242 414.547 236.49 422.063Z" fill="#08090C"/>
<path d="M246.889 362.158C245.542 351.701 242.995 340.9 239.414 330.231C227.286 327.361 213.106 330.862 199.407 340.08C216.52 338.267 233.28 344.952 245.677 360.583C246.088 361.101 246.492 361.626 246.889 362.158Z" fill="#08090C"/>
<path d="M246.713 388.428C247.041 385.056 247.209 381.575 247.209 377.984C247.209 376.229 247.169 374.455 247.09 372.666C227.281 370.984 205.935 374.355 186.93 382.135C206.74 380.431 227.556 382.449 246.713 388.428Z" fill="#08090C"/>
<path d="M52.7404 313.368C55.156 307.886 57.8352 302.509 60.7541 297.304C68.1078 297.791 75.6317 300.96 82.5095 306.542C72.624 304.856 62.2104 307.045 52.7404 313.368Z" fill="#08090C"/>
<path d="M48.6477 422.063C45.3326 416.175 42.7189 409.705 40.9026 402.648C54.4707 399.222 70.4715 402.877 85.9179 412.87C72.813 411.536 59.8958 414.547 48.6477 422.063Z" fill="#08090C"/>
<path d="M39.0363 361.371C40.3836 350.914 42.9299 340.113 46.5111 329.444C58.6389 326.573 72.8187 330.075 86.5178 339.293C69.4053 337.48 52.6456 344.165 40.248 359.795C39.8367 360.314 39.4329 360.839 39.0363 361.371Z" fill="#08090C"/>
<path d="M38.425 388.428C38.0968 385.056 37.9288 381.575 37.9288 377.984C37.9288 376.229 37.9689 374.455 38.0482 372.666C57.8573 370.984 79.203 374.355 98.2077 382.135C78.3978 380.431 57.5818 382.449 38.425 388.428Z" fill="#08090C"/>
<path d="M195.512 377.984C195.512 437.73 171.769 467.064 142.481 467.064C113.192 467.064 89.4494 437.73 89.4494 377.984C89.4494 318.237 113.192 236.772 142.481 236.772C171.769 236.772 195.512 318.237 195.512 377.984Z" fill="#919AB6"/>
<path fill-rule="evenodd" clip-rule="evenodd" d="M105.69 475.752C99.6506 479.395 91.6558 481.027 83.2576 481.027C74.8595 481.027 66.8647 479.395 60.8257 475.752C54.6243 472.011 50.4732 466.092 50.4732 458.137C50.4732 450.596 54.2202 442.195 59.9061 435.745C65.6219 429.261 73.8294 424.156 83.2576 424.156C92.6859 424.156 100.893 429.261 106.609 435.745C112.295 442.195 116.042 450.596 116.042 458.137C116.042 466.092 111.891 472.011 105.69 475.752ZM83.2576 477.091C99.19 477.091 112.106 470.849 112.106 458.137C112.106 445.425 99.19 428.093 83.2576 428.093C67.3253 428.093 54.4096 445.425 54.4096 458.137C54.4096 470.849 67.3253 477.091 83.2576 477.091Z" fill="#08090C"/>
<path d="M112.106 458.137C112.106 470.849 99.19 477.091 83.2576 477.091C67.3253 477.091 54.4096 470.849 54.4096 458.137C54.4096 445.425 67.3253 428.093 83.2576 428.093C99.19 428.093 112.106 445.425 112.106 458.137Z" fill="#919AB6"/>
<path fill-rule="evenodd" clip-rule="evenodd" d="M224.082 475.752C218.043 479.395 210.048 481.027 201.65 481.027C193.252 481.027 185.257 479.395 179.218 475.752C173.017 472.011 168.866 466.091 168.866 458.137C168.866 450.596 172.613 442.195 178.298 435.745C184.014 429.261 192.222 424.156 201.65 424.156C211.078 424.156 219.286 429.261 225.002 435.745C230.687 442.195 234.434 450.596 234.434 458.137C234.434 466.091 230.283 472.011 224.082 475.752ZM201.65 477.091C217.582 477.091 230.498 470.849 230.498 458.137C230.498 445.425 217.582 428.092 201.65 428.092C185.718 428.092 172.802 445.425 172.802 458.137C172.802 470.849 185.718 477.091 201.65 477.091Z" fill="#08090C"/>
<path d="M230.498 458.137C230.498 470.849 217.582 477.091 201.65 477.091C185.718 477.091 172.802 470.849 172.802 458.137C172.802 445.425 185.718 428.092 201.65 428.092C217.582 428.092 230.498 445.425 230.498 458.137Z" fill="#919AB6"/>
<path fill-rule="evenodd" clip-rule="evenodd" d="M96.9845 149.514C92.229 158.371 83.8348 166.262 73.0329 171.299C62.2311 176.336 50.7902 177.694 40.9489 175.644C31.1068 173.594 22.6108 168.047 18.4454 159.114C16.4422 154.818 14.9072 148.551 13.9905 141.622C13.065 134.625 12.7335 126.675 13.2855 118.887C13.8356 111.125 15.2757 103.342 18.008 96.7768C20.7303 90.236 24.9154 84.4966 31.1916 81.57C37.4678 78.6433 44.5545 79.1265 51.3149 81.2455C58.1002 83.3723 64.9886 87.2725 71.2877 91.8399C77.6088 96.4233 83.4858 101.788 88.2504 106.994C92.9697 112.15 96.7839 117.355 98.7871 121.65C102.953 130.583 101.74 140.657 96.9845 149.514ZM71.3693 167.731C91.5847 158.305 102.263 138.418 95.2196 123.314C88.1763 108.21 53.0706 75.7109 32.8552 85.1376C12.6398 94.5642 14.9697 142.346 22.013 157.451C29.0563 172.555 51.1539 177.158 71.3693 167.731Z" fill="#08090C"/>
<path d="M95.2196 123.314C102.263 138.418 91.5847 158.305 71.3693 167.731C51.1539 177.158 29.0563 172.555 22.013 157.451C14.9697 142.346 12.6398 94.5642 32.8552 85.1376C53.0706 75.7109 88.1763 108.21 95.2196 123.314Z" fill="#313749"/>
<path fill-rule="evenodd" clip-rule="evenodd" d="M80.8021 144.158C77.9065 149.551 72.8406 154.284 66.3946 157.29C59.9486 160.296 53.0664 161.134 47.0742 159.886C41.0812 158.637 35.7247 155.214 33.0769 149.536C31.8325 146.867 30.9294 143.107 30.3975 139.087C29.8569 135 29.6632 130.361 29.986 125.807C30.3068 121.28 31.1506 116.655 32.7993 112.693C34.4381 108.756 37.0525 105.065 41.1508 103.154C45.249 101.243 49.7568 101.613 53.8263 102.888C57.9209 104.172 62.0066 106.498 65.6804 109.162C69.3763 111.842 72.8055 114.972 75.5888 118.014C78.3268 121.006 80.6264 124.114 81.8708 126.783C84.5186 132.461 83.6981 138.765 80.8021 144.158ZM64.731 153.722C76.2348 148.358 82.3113 137.041 78.3032 128.446C74.2952 119.851 54.3181 101.357 42.8143 106.722C31.3106 112.086 32.6365 139.277 36.6445 147.872C40.6525 156.467 53.2273 159.086 64.731 153.722Z" fill="#08090C"/>
<path d="M78.3032 128.446C82.3113 137.041 76.2348 148.358 64.731 153.722C53.2273 159.086 40.6525 156.467 36.6445 147.872C32.6365 139.277 31.3106 112.086 42.8143 106.722C54.3181 101.357 74.2952 119.851 78.3032 128.446Z" fill="#08090C"/>
<path fill-rule="evenodd" clip-rule="evenodd" d="M244.21 175.644C234.369 177.694 222.928 176.336 212.126 171.299C201.325 166.262 192.93 158.371 188.175 149.514C183.419 140.657 182.207 130.583 186.372 121.65C188.375 117.354 192.19 112.15 196.909 106.994C201.674 101.787 207.551 96.4233 213.872 91.8398C220.171 87.2724 227.059 83.3723 233.844 81.2455C240.605 79.1265 247.692 78.6433 253.968 81.5699C260.244 84.4966 264.429 90.2359 267.151 96.7767C269.884 103.342 271.324 111.125 271.874 118.887C272.426 126.675 272.094 134.625 271.169 141.622C270.252 148.551 268.717 154.818 266.714 159.114C262.549 168.047 254.053 173.594 244.21 175.644ZM213.79 167.731C234.005 177.158 256.103 172.555 263.146 157.451C270.19 142.346 272.52 94.5641 252.304 85.1375C232.089 75.7109 196.983 108.21 189.94 123.314C182.897 138.418 193.575 158.305 213.79 167.731Z" fill="#08090C"/>
<path d="M263.146 157.451C256.103 172.555 234.005 177.158 213.79 167.731C193.575 158.305 182.897 138.418 189.94 123.314C196.983 108.21 232.089 75.7109 252.304 85.1375C272.52 94.5641 270.19 142.346 263.146 157.451Z" fill="#313749"/>
<path fill-rule="evenodd" clip-rule="evenodd" d="M237.911 159.804C231.919 161.052 225.037 160.214 218.591 157.208C212.145 154.202 207.079 149.469 204.184 144.077C201.288 138.683 200.467 132.379 203.115 126.701C204.359 124.033 206.659 120.924 209.397 117.932C212.18 114.891 215.609 111.761 219.305 109.081C222.979 106.417 227.065 104.09 231.159 102.807C235.229 101.531 239.736 101.162 243.835 103.073C247.933 104.984 250.547 108.675 252.186 112.612C253.835 116.574 254.679 121.199 254.999 125.726C255.322 130.279 255.128 134.918 254.588 139.005C254.056 143.026 253.153 146.785 251.908 149.454C249.261 155.132 243.904 158.556 237.911 159.804ZM220.255 153.641C231.758 159.005 244.333 156.386 248.341 147.79C252.349 139.195 253.675 112.005 242.171 106.641C230.668 101.276 210.691 119.77 206.683 128.365C202.675 136.96 208.751 148.276 220.255 153.641Z" fill="#08090C"/>
<path d="M248.341 147.79C244.333 156.386 231.758 159.005 220.255 153.641C208.751 148.276 202.675 136.96 206.683 128.365C210.691 119.77 230.668 101.276 242.171 106.641C253.675 112.005 252.349 139.195 248.341 147.79Z" fill="#08090C"/>
<path fill-rule="evenodd" clip-rule="evenodd" d="M242.002 283.196C216.223 295.378 180.962 301.281 142.407 301.281C103.852 301.281 68.5913 295.378 42.8116 283.196C16.9891 270.993 0 252.079 0 226.081C0 200.65 16.3425 171.422 41.8787 148.73C67.5303 125.935 103.048 109.175 142.407 109.175C181.766 109.175 217.284 125.935 242.935 148.73C268.471 171.422 284.814 200.65 284.814 226.081C284.814 252.079 267.825 270.993 242.002 283.196ZM142.407 297.345C218.882 297.345 280.878 273.878 280.878 226.081C280.878 178.284 218.882 113.112 142.407 113.112C65.9318 113.112 3.93639 178.284 3.93639 226.081C3.93639 273.878 65.9318 297.345 142.407 297.345Z" fill="#08090C"/>
<path d="M280.878 226.081C280.878 273.878 218.882 297.345 142.407 297.345C65.9318 297.345 3.93639 273.878 3.93639 226.081C3.93639 178.284 65.9318 113.112 142.407 113.112C218.882 113.112 280.878 178.284 280.878 226.081Z" fill="#313749"/>
<path d="M211.804 261.639C211.804 285.538 180.807 297.271 142.569 297.271C104.331 297.271 73.3338 285.538 73.3338 261.639C73.3338 237.741 104.331 205.155 142.569 205.155C180.807 205.155 211.804 237.741 211.804 261.639Z" fill="#919AB6"/>
<path d="M113.509 243.767C113.504 243.945 113.501 244.124 113.501 244.304V244.327C113.506 253.216 119.893 260.419 127.77 260.419C135.092 260.419 141.127 254.194 141.944 246.177C141.976 246.178 142.007 246.178 142.039 246.178C142.278 246.178 142.515 246.171 142.751 246.158C143.562 254.184 149.6 260.419 156.928 260.419C164.809 260.419 171.197 253.209 171.197 244.315C171.197 244.132 171.194 243.95 171.189 243.768C170.933 252.408 164.646 259.324 156.928 259.324C149.048 259.324 142.659 252.114 142.659 243.22C142.659 243.183 142.659 243.147 142.659 243.11H142.038C142.039 243.147 142.039 243.183 142.039 243.22C142.039 252.114 135.65 259.324 127.77 259.324C120.052 259.324 113.765 252.408 113.509 243.767Z" fill="#08090C" stroke="#08090C" stroke-width="3"/>
<path d="M179.285 235.099C188.356 235.582 200.47 237.625 213.511 241.119C226.551 244.614 238.064 248.901 246.161 253.018C241.011 248.082 228.92 242.392 214.225 238.454C199.53 234.517 186.213 233.399 179.285 235.099Z" fill="#08090C"/>
<path d="M178.857 228.373C186.944 226.492 198.073 225.33 210.359 225.33C222.644 225.33 233.773 226.492 241.861 228.373C236.171 224.937 224.203 222.571 210.359 222.571C196.514 222.571 184.546 224.937 178.857 228.373Z" fill="#08090C"/>
<path d="M178.582 241.832C186.211 244.064 195.995 248.371 206.155 254.237C216.315 260.103 224.938 266.423 230.685 271.913C227.698 266.222 218.984 258.457 207.535 251.848C196.086 245.238 185.005 241.573 178.582 241.832Z" fill="#08090C"/>
<path d="M105.258 235.099C96.1872 235.582 84.0733 237.625 71.0328 241.119C57.9922 244.614 46.4797 248.901 38.3822 253.018C43.5321 248.082 55.6237 242.391 70.3186 238.454C85.0134 234.517 98.3301 233.399 105.258 235.099Z" fill="#08090C"/>
<path d="M105.687 228.373C97.5998 226.492 86.4705 225.33 74.1851 225.33C61.8996 225.33 50.7703 226.492 42.683 228.373C48.3724 224.937 60.341 222.571 74.185 222.571C88.0291 222.571 99.9976 224.937 105.687 228.373Z" fill="#08090C"/>
<path d="M105.961 241.832C98.333 244.064 88.5484 248.371 78.3885 254.237C68.2287 260.103 59.6059 266.423 53.8584 271.913C56.8456 266.222 65.56 258.457 77.0088 251.847C88.4576 245.238 99.5387 241.573 105.961 241.832Z" fill="#08090C"/>
<path d="M128.502 230.696C128.502 225.916 134.701 222.042 142.349 222.042C149.996 222.042 156.196 225.916 156.196 230.696C156.196 235.476 149.996 241.993 142.349 241.993C134.701 241.993 128.502 235.476 128.502 230.696Z" fill="#08090C"/>
<circle cx="99.9066" cy="191.986" r="20.4496" fill="#08090C"/>
<ellipse cx="4.25734" cy="6.29643" rx="4.25734" ry="6.29643" transform="matrix(0.909809 -0.415028 0.430286 0.902692 103.598 184.011)" fill="#ECF1FE"/>
<circle cx="187.295" cy="192.274" r="20.4496" fill="#08090C"/>
<ellipse cx="4.25734" cy="6.29643" rx="4.25734" ry="6.29643" transform="matrix(0.909809 -0.415028 0.430286 0.902692 190.983 184.011)" fill="#ECF1FE"/>
<path d="M167.661 127.399C160.407 136.044 157.005 146.536 157.362 156.534C151.348 144.664 151.957 130.823 160.132 121.081C162.333 118.458 164.922 116.324 167.779 114.68C171.758 115.426 175.677 116.34 179.53 117.408C175.173 119.92 171.132 123.262 167.661 127.399Z" fill="#08090C"/>
<path d="M116.586 127.399C123.841 136.044 127.242 146.536 126.885 156.534C132.899 144.664 132.29 130.823 124.116 121.081C121.914 118.458 119.326 116.324 116.469 114.68C112.489 115.426 108.57 116.34 104.717 117.408C109.074 119.92 113.115 123.262 116.586 127.399Z" fill="#08090C"/>
<path d="M5.42096 241.974C3.89095 236.822 3.09113 231.509 3.09113 226.08C3.09113 221.355 3.69705 216.46 4.86299 211.475C22.8854 203.131 46.837 205.555 69.7578 217.368C47.4165 215.556 25.5358 222.241 9.35003 237.871C7.97754 239.196 6.6679 240.565 5.42096 241.974Z" fill="#08090C"/>
<path d="M9.84625 196.629C11.9405 194.66 14.1845 192.799 16.5753 191.062C31.1382 180.481 48.4046 176.504 64.587 178.617C52.4878 171.096 38.8567 167.955 26.3019 169.855C19.3621 178.518 13.791 187.592 9.84625 196.629Z" fill="#08090C"/>
<path d="M274.835 196.629C272.74 194.66 270.496 192.799 268.106 191.062C253.543 180.481 236.276 176.504 220.094 178.617C232.193 171.096 245.824 167.955 258.379 169.855C265.319 178.518 270.89 187.592 274.835 196.629Z" fill="#08090C"/>
<path d="M279.22 242.164C280.787 236.953 281.607 231.576 281.607 226.08C281.607 221.392 281.01 216.537 279.862 211.593C261.812 203.108 237.743 205.5 214.715 217.368C237.056 215.556 258.937 222.241 275.123 237.871C276.557 239.256 277.923 240.688 279.22 242.164Z" fill="#08090C"/>
<path d="M133.954 112.544L141.657 179.252L149.359 112.544C146.809 112.399 144.241 112.324 141.657 112.324C139.072 112.324 136.504 112.399 133.954 112.544Z" fill="#08090C"/>
<path fill-rule="evenodd" clip-rule="evenodd" d="M26.2159 122.674L29.6711 116.889C52.608 78.482 94.5962 52.7478 142.599 52.7478C190.601 52.7478 232.59 78.482 255.527 116.889L258.982 122.674H26.2159ZM252.243 118.85C251.473 117.56 250.68 116.285 249.866 115.025C227.141 79.8533 187.589 56.5725 142.599 56.5725C97.6089 56.5725 58.0565 79.8533 35.3315 115.025C34.5175 116.285 33.7251 117.56 32.9548 118.85H252.243Z" fill="#08090C"/>
<path d="M249.866 115.025C250.68 116.285 251.473 117.56 252.243 118.85H32.9548C33.7251 117.56 34.5175 116.285 35.3315 115.025C58.0565 79.8533 97.6089 56.5725 142.599 56.5725C187.589 56.5725 227.141 79.8533 249.866 115.025Z" fill="#8E7DBE"/>
<path fill-rule="evenodd" clip-rule="evenodd" d="M8.66327 180.256C9.27587 159.025 14.8293 139.024 24.2155 121.371C26.3532 117.351 30.5439 115.026 34.9334 115.026H250.268C254.658 115.026 258.849 117.351 260.986 121.371C269.648 137.661 275.046 155.95 276.309 175.362C276.771 182.464 270.967 188.015 264.184 188.016L16.2559 188.015C12.0608 188.015 8.5381 184.594 8.66327 180.256ZM27.5925 123.167C29.0282 120.467 31.8753 118.851 34.9334 118.851H250.268C253.327 118.851 256.174 120.467 257.609 123.167C266.022 138.988 271.265 156.752 272.492 175.61C272.8 180.342 268.926 184.191 264.184 184.191L16.2559 184.191C14.1436 184.191 12.4254 182.478 12.4864 180.366C13.0816 159.738 18.4761 140.312 27.5925 123.167Z" fill="#08090C"/>
<path d="M34.9334 118.851C31.8753 118.851 29.0282 120.467 27.5925 123.167C18.4761 140.312 13.0816 159.738 12.4864 180.366C12.4254 182.478 14.1436 184.191 16.2559 184.191L264.184 184.191C268.926 184.191 272.8 180.342 272.492 175.61C271.265 156.752 266.022 138.988 257.609 123.167C256.174 120.467 253.327 118.851 250.268 118.851H34.9334Z" fill="#8E7DBE"/>
<path fill-rule="evenodd" clip-rule="evenodd" d="M186.762 109.411H240.355V140.032H186.762V109.411ZM190.586 113.235V136.207H236.53V113.235H190.586Z" fill="#08090C"/>
<path d="M190.586 113.235H236.53V136.207H190.586V113.235Z" fill="#08090C"/>
<path fill-rule="evenodd" clip-rule="evenodd" d="M226.278 123.613V117.233L234.578 125.539C235.018 125.979 235.731 125.979 236.171 125.539L236.25 125.459C236.69 125.019 236.69 124.306 236.25 123.866L225.899 113.508C225.514 113.123 224.92 113.074 224.483 113.363C224.421 113.405 224.361 113.453 224.306 113.508L224.227 113.587L224.225 113.589L213.955 123.866C213.784 124.037 213.68 124.248 213.642 124.47C213.621 124.556 213.609 124.647 213.609 124.74V124.852C213.609 125.475 214.113 125.979 214.735 125.979H222.115L213.955 134.144C213.515 134.584 213.515 135.298 213.955 135.738L214.035 135.817C214.475 136.258 215.188 136.258 215.627 135.817L223.913 127.526V135.022C223.913 135.644 224.417 136.149 225.039 136.149H225.152C225.774 136.149 226.278 135.644 226.278 135.022V125.979H230.388C231.01 125.979 231.514 125.475 231.514 124.852V124.74C231.514 124.117 231.01 123.613 230.388 123.613H226.278ZM217.552 123.613H223.913V117.248L217.552 123.613Z" fill="#8E7DBE"/>
<path fill-rule="evenodd" clip-rule="evenodd" d="M211.251 114.304C211.251 113.682 211.755 113.178 212.376 113.178H212.489C213.11 113.178 213.614 113.682 213.614 114.304V125.085L213.632 125.103L213.614 125.121V135.023C213.614 135.644 213.11 136.149 212.489 136.149H212.376C211.755 136.149 211.251 135.644 211.251 135.023V127.486L202.929 135.81C202.49 136.25 201.777 136.25 201.338 135.81L190.991 125.459C190.936 125.404 190.888 125.345 190.847 125.283C190.722 125.095 190.661 124.877 190.661 124.66C190.661 124.589 190.668 124.518 190.682 124.448C190.723 124.235 190.826 124.032 190.991 123.867L201.338 113.516C201.777 113.076 202.49 113.076 202.929 113.516L203.009 113.596C203.17 113.757 203.272 113.955 203.315 114.163V123.481H211.251V114.304ZM200.952 123.481H197.293C196.672 123.481 196.168 123.985 196.168 124.607V124.719C196.168 125.341 196.672 125.845 197.293 125.845H200.952V132.203L193.476 124.725L200.952 117.246V123.481ZM203.315 132.08V125.845H209.547L203.315 132.08Z" fill="#8E7DBE"/>
<path fill-rule="evenodd" clip-rule="evenodd" d="M344.772 152.367C347.317 159.957 349.704 168.5 349.12 175.966C348.808 179.965 347.603 184.34 344.524 188.102C341.395 191.926 337.138 194.131 332.544 195.191C324.022 197.157 312.672 195.563 298.655 191.611C293.287 190.098 290.162 184.52 291.675 179.153C293.188 173.785 298.766 170.66 304.134 172.173C317.728 176.006 324.803 176.251 328.004 175.512C328.233 172.587 328.202 166.475 325.624 158.787C324.199 154.536 322.701 150.541 321.098 146.263C319.701 142.536 318.223 138.594 316.644 134.083C313.542 125.226 310.591 115.551 309.425 106.127C308.261 96.72 308.746 86.5838 313.552 77.4858C323.249 59.1265 346.506 51.2798 384.349 52.8793C385.642 52.9339 386.953 52.9997 388.28 53.0764L387.115 73.238C347.563 70.9529 335.253 79.6404 331.409 86.9176C329.279 90.9515 328.571 96.4057 329.467 103.647C330.362 110.871 332.725 118.902 335.704 127.409C336.893 130.803 338.323 134.643 339.761 138.505L339.761 138.506L339.762 138.507C341.576 143.378 343.403 148.283 344.772 152.367ZM343.449 137.129C343.45 137.13 343.45 137.131 343.45 137.132L343.467 137.177C345.269 142.016 347.114 146.97 348.504 151.116C351.045 158.694 353.697 167.924 353.045 176.273C352.69 180.815 351.301 186.037 347.57 190.595C343.769 195.239 338.667 197.818 333.429 199.026C323.871 201.231 311.691 199.376 297.587 195.4C290.126 193.297 285.784 185.545 287.887 178.085C289.989 170.625 297.742 166.282 305.202 168.385C314.802 171.091 320.731 171.865 324.135 171.908C324.029 168.981 323.51 164.863 321.892 160.038C320.495 155.87 319.024 151.944 317.42 147.665L317.412 147.645L317.407 147.632C316.012 143.91 314.522 139.935 312.928 135.384C309.803 126.458 306.738 116.463 305.518 106.611C304.302 96.7824 304.744 85.7332 310.071 75.6474C321.308 54.3715 348.233 46.8197 388.507 49.1465L392.437 49.3736L390.818 77.3949L386.888 77.1678C347.477 74.8909 337.533 83.7513 334.89 88.756C333.28 91.804 332.53 96.3464 333.374 103.163C334.215 109.958 336.464 117.668 339.419 126.108C340.592 129.458 342.008 133.259 343.449 137.129Z" fill="#08090C"/>
<path d="M344.772 152.367C347.317 159.957 349.704 168.5 349.12 175.966C348.808 179.965 347.603 184.34 344.524 188.102C341.395 191.926 337.138 194.131 332.544 195.191C324.022 197.157 312.672 195.563 298.655 191.611C293.287 190.098 290.162 184.52 291.675 179.153C293.188 173.785 298.766 170.66 304.134 172.173C317.728 176.006 324.803 176.251 328.004 175.512C328.233 172.587 328.202 166.475 325.624 158.787C324.199 154.536 322.701 150.541 321.098 146.263C319.701 142.536 318.223 138.594 316.644 134.083C313.542 125.226 310.591 115.551 309.425 106.127C308.261 96.72 308.746 86.5838 313.552 77.4858C323.249 59.1265 346.506 51.2798 384.349 52.8793C385.642 52.9339 386.953 52.9997 388.28 53.0764L387.115 73.238C347.563 70.9529 335.253 79.6404 331.409 86.9176C329.279 90.9515 328.571 96.4057 329.467 103.647C330.362 110.871 332.725 118.902 335.704 127.409C336.893 130.803 338.323 134.643 339.761 138.505L339.761 138.506L339.762 138.507C341.576 143.378 343.403 148.283 344.772 152.367Z" fill="#313749"/>
<path d="M349.309 179.854C348.642 182.679 347.413 185.533 345.311 188.102C343.636 190.149 341.638 191.732 339.437 192.924C334.184 191.87 328.92 189.295 324.029 185.326C332.413 186.755 341.23 185 349.309 179.854Z" fill="#08090C"/>
<path d="M345.247 151.945C345.303 152.09 345.358 152.234 345.413 152.376C347.091 156.761 348.71 161.464 349.646 166.093C341.591 166.348 332.914 164.436 324.248 160.5C324.044 159.942 323.829 159.369 323.603 158.78C323.363 158.154 323.122 157.533 322.878 156.915C330.635 156.84 338.22 155.196 345.247 151.945Z" fill="#08090C"/>
<path d="M333.791 119.21C334.506 121.558 335.295 123.954 336.137 126.391C328.286 125.139 320.505 123.085 313.085 120.277C313.004 119.975 312.923 119.674 312.844 119.372C319.754 119.837 326.785 119.787 333.791 119.21Z" fill="#08090C"/>
<path d="M349.424 76.2517C345.886 77.148 342.982 78.23 340.598 79.4226C341.211 73.2734 343.949 67.0186 348.608 61.2783C347.769 66.1989 348.027 71.2691 349.424 76.2517Z" fill="#08090C"/>
<path d="M304.586 193.966C306.271 188.749 308.822 183.454 312.201 178.231C311.593 184.199 312.015 190.123 313.487 195.819C310.671 195.352 307.703 194.729 304.586 193.966Z" fill="#08090C"/>
<path d="M335.533 87.4094C333.529 89.8759 331.716 92.229 330.079 94.4735C326.881 89.9945 324.23 84.6368 322.248 78.5577C326.152 82.3339 330.619 85.3231 335.533 87.4094Z" fill="#08090C"/>
<path fill-rule="evenodd" clip-rule="evenodd" d="M506.311 29.7385C512.35 26.0954 520.345 24.4631 528.743 24.4631C537.141 24.4631 545.136 26.0954 551.175 29.7385C557.376 33.4796 561.528 39.3986 561.528 47.3527C561.528 54.8944 557.781 63.295 552.095 69.7451C546.379 76.2293 538.171 81.334 528.743 81.334C519.315 81.334 511.107 76.2293 505.392 69.7451C499.706 63.295 495.959 54.8944 495.959 47.3527C495.959 39.3986 500.11 33.4796 506.311 29.7385ZM528.743 28.3995C512.811 28.3995 499.895 34.6407 499.895 47.3527C499.895 60.0647 512.811 77.3976 528.743 77.3976C544.676 77.3976 557.591 60.0647 557.591 47.3527C557.591 34.6407 544.676 28.3995 528.743 28.3995Z" fill="#08090C"/>
<path d="M499.895 47.3527C499.895 34.6407 512.811 28.3995 528.743 28.3995C544.676 28.3995 557.591 34.6407 557.591 47.3527C557.591 60.0647 544.676 77.3976 528.743 77.3976C512.811 77.3976 499.895 60.0647 499.895 47.3527Z" fill="#919AB6"/>
<path fill-rule="evenodd" clip-rule="evenodd" d="M363.456 29.7386C369.495 26.0954 377.49 24.4631 385.888 24.4631C394.286 24.4631 402.281 26.0954 408.32 29.7386C414.521 33.4796 418.672 39.3986 418.672 47.3527C418.672 54.8944 414.925 63.295 409.239 69.7452C403.523 76.2294 395.316 81.334 385.888 81.334C376.459 81.334 368.252 76.2294 362.536 69.7452C356.85 63.295 353.103 54.8944 353.103 47.3527C353.103 39.3986 357.254 33.4796 363.456 29.7386ZM385.888 28.3995C369.955 28.3995 357.04 34.6408 357.04 47.3527C357.04 60.0647 369.955 77.3977 385.888 77.3977C401.82 77.3977 414.736 60.0647 414.736 47.3527C414.736 34.6408 401.82 28.3995 385.888 28.3995Z" fill="#08090C"/>
<path d="M357.04 47.3527C357.04 34.6408 369.955 28.3995 385.888 28.3995C401.82 28.3995 414.736 34.6408 414.736 47.3527C414.736 60.0647 401.82 77.3977 385.888 77.3977C369.955 77.3977 357.04 60.0647 357.04 47.3527Z" fill="#919AB6"/>
<path fill-rule="evenodd" clip-rule="evenodd" d="M381.56 33.0061C401.233 17.5121 428.137 10.0269 457.431 10.0269C486.724 10.0269 513.629 17.5121 533.302 33.0061C553.095 48.5952 565.22 72.0317 565.22 103.044C565.22 133.806 553.299 169.864 534.128 198.257C515.027 226.546 488.027 248.191 457.431 248.191C426.835 248.191 399.834 226.546 380.733 198.257C361.563 169.864 349.642 133.806 349.642 103.044C349.642 72.0317 361.767 48.5952 381.56 33.0061ZM457.431 13.9633C400.074 13.9633 353.578 43.2973 353.578 103.044C353.578 162.79 400.074 244.255 457.431 244.255C514.787 244.255 561.284 162.79 561.284 103.044C561.284 43.2973 514.787 13.9633 457.431 13.9633Z" fill="#08090C"/>
<path d="M353.578 103.044C353.578 43.2973 400.074 13.9633 457.431 13.9633C514.787 13.9633 561.284 43.2973 561.284 103.044C561.284 162.79 514.787 244.255 457.431 244.255C400.074 244.255 353.578 162.79 353.578 103.044Z" fill="#313749"/>
<path d="M367.602 167.659C370.018 173.14 372.697 178.518 375.616 183.723C382.97 183.236 390.494 180.067 397.371 174.485C387.486 176.171 377.072 173.982 367.602 167.659Z" fill="#08090C"/>
<path d="M363.51 58.9638C360.195 64.8517 357.581 71.3223 355.765 78.3786C369.333 81.8047 385.333 78.1498 400.78 68.1566C387.675 69.4912 374.758 66.48 363.51 58.9638Z" fill="#08090C"/>
<path d="M353.111 118.869C354.458 129.326 357.005 140.127 360.586 150.796C372.714 153.666 386.893 150.165 400.592 140.947C383.48 142.76 366.72 136.075 354.323 120.444C353.911 119.926 353.508 119.401 353.111 118.869Z" fill="#08090C"/>
<path d="M353.287 92.5994C352.959 95.971 352.791 99.4523 352.791 103.043C352.791 104.798 352.831 106.572 352.91 108.361C372.719 110.043 394.065 106.672 413.07 98.8925C393.26 100.596 372.444 98.5779 353.287 92.5994Z" fill="#08090C"/>
<path d="M547.26 167.659C544.844 173.141 542.165 178.518 539.246 183.723C531.892 183.236 524.368 180.067 517.49 174.485C527.376 176.171 537.79 173.982 547.26 167.659Z" fill="#08090C"/>
<path d="M551.352 58.9638C554.667 64.8517 557.281 71.3223 559.097 78.3786C545.529 81.8047 529.528 78.1498 514.082 68.1566C527.187 69.4912 540.104 66.48 551.352 58.9638Z" fill="#08090C"/>
<path d="M560.964 119.657C559.616 130.113 557.07 140.914 553.489 151.583C541.361 154.454 527.181 150.952 513.482 141.734C530.595 143.547 547.354 136.862 559.752 121.232C560.163 120.713 560.567 120.188 560.964 119.657Z" fill="#08090C"/>
<path d="M561.575 92.5994C561.903 95.971 562.071 99.4523 562.071 103.043C562.071 104.798 562.031 106.572 561.952 108.361C542.143 110.043 520.797 106.672 501.792 98.8925C521.602 100.596 542.418 98.5779 561.575 92.5994Z" fill="#08090C"/>
<path d="M404.488 103.043C404.488 43.2972 428.231 13.9633 457.519 13.9633C486.808 13.9633 510.551 43.2972 510.551 103.043C510.551 162.79 486.808 244.255 457.519 244.255C428.231 244.255 404.488 162.79 404.488 103.043Z" fill="#919AB6"/>
<path fill-rule="evenodd" clip-rule="evenodd" d="M494.31 5.27534C500.349 1.6322 508.344 -0.000116725 516.742 -0.000116725C525.141 -0.000116725 533.135 1.6322 539.174 5.27534C545.376 9.01636 549.527 14.9354 549.527 22.8895C549.527 30.4312 545.78 38.8318 540.094 45.2819C534.378 51.7661 526.171 56.8708 516.742 56.8708C507.314 56.8708 499.107 51.7661 493.391 45.2819C487.705 38.8318 483.958 30.4312 483.958 22.8895C483.958 14.9354 488.109 9.01636 494.31 5.27534ZM516.742 3.93627C500.81 3.93627 487.894 10.1775 487.894 22.8895C487.894 35.6015 500.81 52.9344 516.742 52.9344C532.675 52.9344 545.59 35.6015 545.59 22.8895C545.59 10.1775 532.675 3.93627 516.742 3.93627Z" fill="#08090C"/>
<path d="M487.894 22.8895C487.894 10.1775 500.81 3.93627 516.742 3.93627C532.675 3.93627 545.59 10.1775 545.59 22.8895C545.59 35.6015 532.675 52.9344 516.742 52.9344C500.81 52.9344 487.894 35.6015 487.894 22.8895Z" fill="#919AB6"/>
<path fill-rule="evenodd" clip-rule="evenodd" d="M375.918 5.27534C381.957 1.6322 389.952 -0.000116725 398.35 -0.000116725C406.748 -0.000116725 414.743 1.6322 420.782 5.27534C426.983 9.01636 431.134 14.9354 431.134 22.8895C431.134 30.4312 427.387 38.8318 421.702 45.2819C415.986 51.7661 407.778 56.8708 398.35 56.8708C388.922 56.8708 380.714 51.7661 374.999 45.2819C369.313 38.8318 365.566 30.4312 365.566 22.8895C365.566 14.9354 369.717 9.01636 375.918 5.27534ZM398.35 3.93627C382.418 3.93627 369.502 10.1775 369.502 22.8895C369.502 35.6015 382.418 52.9344 398.35 52.9344C414.282 52.9344 427.198 35.6015 427.198 22.8895C427.198 10.1775 414.282 3.93627 398.35 3.93627Z" fill="#08090C"/>
<path d="M369.502 22.8895C369.502 10.1775 382.418 3.93627 398.35 3.93627C414.282 3.93627 427.198 10.1775 427.198 22.8895C427.198 35.6015 414.282 52.9344 398.35 52.9344C382.418 52.9344 369.502 35.6015 369.502 22.8895Z" fill="#919AB6"/>
<path fill-rule="evenodd" clip-rule="evenodd" d="M503.015 331.513C507.771 322.656 516.165 314.765 526.967 309.728C537.769 304.691 549.21 303.333 559.051 305.383C568.893 307.433 577.389 312.98 581.555 321.913C583.558 326.208 585.093 332.476 586.009 339.405C586.935 346.402 587.267 354.352 586.714 362.14C586.164 369.901 584.724 377.685 581.992 384.25C579.27 390.791 575.085 396.53 568.808 399.457C562.532 402.384 555.445 401.9 548.685 399.781C541.9 397.655 535.011 393.754 528.712 389.187C522.391 384.604 516.514 379.239 511.75 374.033C507.03 368.877 503.216 363.672 501.213 359.376C497.047 350.444 498.26 340.37 503.015 331.513ZM528.631 313.296C508.415 322.722 497.737 342.608 504.78 357.713C511.824 372.817 546.929 405.316 567.145 395.889C587.36 386.463 585.03 338.681 577.987 323.576C570.944 308.472 548.846 303.869 528.631 313.296Z" fill="#08090C"/>
<path d="M504.78 357.713C497.737 342.608 508.415 322.722 528.631 313.296C548.846 303.869 570.944 308.472 577.987 323.576C585.03 338.681 587.36 386.463 567.145 395.889C546.929 405.316 511.824 372.817 504.78 357.713Z" fill="#313749"/>
<path fill-rule="evenodd" clip-rule="evenodd" d="M519.198 336.869C522.094 331.476 527.159 326.743 533.605 323.737C540.051 320.731 546.934 319.893 552.926 321.141C558.919 322.39 564.275 325.813 566.923 331.491C568.168 334.16 569.071 337.92 569.602 341.94C570.143 346.027 570.337 350.666 570.014 355.22C569.693 359.747 568.849 364.372 567.201 368.334C565.562 372.271 562.948 375.962 558.849 377.873C554.751 379.784 550.243 379.414 546.174 378.139C542.079 376.855 537.993 374.528 534.32 371.865C530.624 369.185 527.195 366.054 524.411 363.013C521.673 360.021 519.374 356.913 518.129 354.244C515.481 348.566 516.302 342.262 519.198 336.869ZM535.269 327.305C523.765 332.669 517.689 343.985 521.697 352.581C525.705 361.176 545.682 379.67 557.186 374.305C568.689 368.941 567.364 341.75 563.356 333.155C559.347 324.56 546.773 321.94 535.269 327.305Z" fill="#08090C"/>
<path d="M521.697 352.581C517.689 343.985 523.765 332.669 535.269 327.305C546.773 321.94 559.347 324.56 563.356 333.155C567.364 341.75 568.689 368.941 557.186 374.305C545.682 379.67 525.705 361.176 521.697 352.581Z" fill="#08090C"/>
<path fill-rule="evenodd" clip-rule="evenodd" d="M355.79 305.383C365.631 303.333 377.072 304.691 387.874 309.728C398.675 314.765 407.07 322.656 411.825 331.513C416.581 340.37 417.793 350.444 413.628 359.376C411.625 363.672 407.81 368.877 403.091 374.033C398.326 379.239 392.449 384.604 386.128 389.187C379.829 393.754 372.941 397.655 366.156 399.781C359.395 401.9 352.308 402.384 346.032 399.457C339.756 396.53 335.571 390.791 332.849 384.25C330.116 377.685 328.676 369.901 328.126 362.14C327.574 354.352 327.906 346.402 328.831 339.405C329.748 332.475 331.283 326.208 333.286 321.912C337.451 312.98 345.947 307.433 355.79 305.383ZM386.21 313.296C365.995 303.869 343.897 308.472 336.854 323.576C329.81 338.68 327.48 386.463 347.696 395.889C367.911 405.316 403.017 372.817 410.06 357.713C417.104 342.608 406.425 322.722 386.21 313.296Z" fill="#08090C"/>
<path d="M336.854 323.576C343.897 308.472 365.995 303.869 386.21 313.296C406.425 322.722 417.104 342.608 410.06 357.713C403.017 372.817 367.911 405.316 347.696 395.889C327.48 386.463 329.81 338.68 336.854 323.576Z" fill="#313749"/>
<path fill-rule="evenodd" clip-rule="evenodd" d="M362.089 321.223C368.081 319.975 374.963 320.813 381.409 323.819C387.855 326.824 392.921 331.558 395.816 336.95C398.712 342.343 399.533 348.647 396.885 354.325C395.641 356.994 393.341 360.103 390.603 363.094C387.82 366.136 384.391 369.266 380.695 371.946C377.021 374.609 372.935 376.936 368.841 378.22C364.771 379.495 360.264 379.865 356.165 377.954C352.067 376.043 349.453 372.352 347.814 368.415C346.165 364.453 345.321 359.828 345.001 355.301C344.678 350.747 344.871 346.108 345.412 342.021C345.944 338.001 346.847 334.241 348.091 331.573C350.739 325.895 356.096 322.471 362.089 321.223ZM379.745 327.386C368.242 322.022 355.667 324.641 351.659 333.236C347.651 341.831 346.325 369.022 357.829 374.386C369.332 379.75 389.309 361.257 393.317 352.662C397.325 344.067 391.249 332.75 379.745 327.386Z" fill="#08090C"/>
<path d="M351.659 333.236C355.667 324.641 368.242 322.022 379.745 327.386C391.249 332.75 397.325 344.067 393.317 352.662C389.309 361.257 369.332 379.75 357.829 374.386C346.325 369.022 347.651 341.831 351.659 333.236Z" fill="#08090C"/>
<path fill-rule="evenodd" clip-rule="evenodd" d="M357.998 197.831C383.777 185.649 419.038 179.746 457.593 179.746C496.148 179.746 531.409 185.649 557.188 197.831C583.011 210.034 600 228.948 600 254.946C600 280.377 583.658 309.605 558.121 332.297C532.47 355.092 496.952 371.852 457.593 371.852C418.234 371.852 382.716 355.092 357.065 332.297C331.529 309.605 315.186 280.377 315.186 254.946C315.186 228.948 332.175 210.034 357.998 197.831ZM457.593 183.682C381.118 183.682 319.123 207.149 319.123 254.946C319.123 302.743 381.118 367.915 457.593 367.915C534.068 367.915 596.064 302.743 596.064 254.946C596.064 207.149 534.068 183.682 457.593 183.682Z" fill="#08090C"/>
<path d="M319.123 254.946C319.123 207.149 381.118 183.682 457.593 183.682C534.068 183.682 596.064 207.149 596.064 254.946C596.064 302.743 534.068 367.915 457.593 367.915C381.118 367.915 319.123 302.743 319.123 254.946Z" fill="#313749"/>
<path d="M388.196 219.387C388.196 195.489 419.193 183.755 457.431 183.755C495.668 183.755 526.666 195.489 526.666 219.387C526.666 243.286 495.668 275.872 457.431 275.872C419.193 275.872 388.196 243.286 388.196 219.387Z" fill="#919AB6"/>
<path d="M486.491 237.26C486.496 237.082 486.499 236.903 486.499 236.723V236.7C486.494 227.811 480.107 220.608 472.23 220.608C464.908 220.608 458.873 226.833 458.056 234.85C458.024 234.849 457.993 234.849 457.961 234.849C457.722 234.849 457.485 234.856 457.249 234.869C456.438 226.843 450.4 220.608 443.072 220.608C435.191 220.608 428.803 227.818 428.803 236.712C428.803 236.895 428.806 237.077 428.811 237.259C429.067 228.619 435.354 221.703 443.072 221.703C450.952 221.703 457.341 228.913 457.341 237.807C457.341 237.844 457.341 237.88 457.341 237.917H457.962C457.961 237.88 457.961 237.844 457.961 237.807C457.961 228.913 464.35 221.703 472.23 221.703C479.948 221.703 486.235 228.619 486.491 237.26Z" fill="#08090C" stroke="#08090C" stroke-width="3"/>
<path d="M420.715 245.928C411.644 245.445 399.53 243.402 386.489 239.907C373.449 236.413 361.936 232.126 353.839 228.009C358.989 232.945 371.08 238.635 385.775 242.573C400.47 246.51 413.787 247.628 420.715 245.928Z" fill="#08090C"/>
<path d="M421.144 252.654C413.056 254.535 401.927 255.697 389.642 255.697C377.356 255.697 366.227 254.535 358.139 252.654C363.829 256.09 375.797 258.456 389.642 258.456C403.486 258.456 415.454 256.09 421.144 252.654Z" fill="#08090C"/>
<path d="M421.418 239.195C413.789 236.963 404.005 232.655 393.845 226.79C383.685 220.924 375.062 214.604 369.315 209.114C372.302 214.805 381.017 222.569 392.465 229.179C403.914 235.789 414.995 239.454 421.418 239.195Z" fill="#08090C"/>
<path d="M494.742 245.928C503.813 245.445 515.927 243.402 528.967 239.908C542.008 236.413 553.52 232.126 561.618 228.009C556.468 232.945 544.376 238.635 529.681 242.573C514.987 246.51 501.67 247.628 494.742 245.928Z" fill="#08090C"/>
<path d="M494.313 252.654C502.4 254.535 513.529 255.697 525.815 255.697C538.1 255.697 549.23 254.535 557.317 252.654C551.628 256.09 539.659 258.456 525.815 258.456C511.971 258.456 500.002 256.09 494.313 252.654Z" fill="#08090C"/>
<path d="M494.039 239.195C501.667 236.963 511.452 232.656 521.611 226.79C531.771 220.924 540.394 214.604 546.142 209.114C543.154 214.805 534.44 222.57 522.991 229.18C511.542 235.789 500.461 239.454 494.039 239.195Z" fill="#08090C"/>
<path d="M471.498 250.331C471.498 255.111 465.299 258.985 457.651 258.985C450.004 258.985 443.804 255.111 443.804 250.331C443.804 245.551 450.004 239.034 457.651 239.034C465.299 239.034 471.498 245.551 471.498 250.331Z" fill="#08090C"/>
<circle cx="500.093" cy="289.041" r="20.4496" transform="rotate(-180 500.093 289.041)" fill="#08090C"/>
<ellipse cx="4.25734" cy="6.29643" rx="4.25734" ry="6.29643" transform="matrix(-0.909809 0.415028 -0.430286 -0.902692 496.402 297.016)" fill="#ECF1FE"/>
<circle cx="412.706" cy="288.752" r="20.4496" transform="rotate(-180 412.706 288.752)" fill="#08090C"/>
<ellipse cx="4.25734" cy="6.29643" rx="4.25734" ry="6.29643" transform="matrix(-0.909809 0.415028 -0.430286 -0.902692 409.017 297.016)" fill="#ECF1FE"/>
<path d="M432.339 353.628C439.593 344.983 442.995 334.491 442.638 324.493C448.652 336.363 448.043 350.204 439.868 359.946C437.667 362.569 435.078 364.703 432.221 366.347C428.242 365.601 424.323 364.687 420.47 363.618C424.827 361.107 428.868 357.765 432.339 353.628Z" fill="#08090C"/>
<path d="M483.414 353.628C476.159 344.983 472.758 334.491 473.115 324.493C467.101 336.363 467.71 350.204 475.884 359.946C478.086 362.569 480.674 364.703 483.531 366.347C487.511 365.601 491.43 364.687 495.283 363.618C490.926 361.107 486.885 357.765 483.414 353.628Z" fill="#08090C"/>
<path d="M594.579 239.053C596.109 244.205 596.909 249.518 596.909 254.947C596.909 259.672 596.303 264.567 595.137 269.552C577.115 277.896 553.163 275.472 530.242 263.659C552.584 265.471 574.464 258.786 590.65 243.156C592.023 241.831 593.332 240.462 594.579 239.053Z" fill="#08090C"/>
<path d="M590.154 284.398C588.06 286.367 585.816 288.228 583.425 289.965C568.862 300.546 551.596 304.523 535.413 302.409C547.512 309.931 561.143 313.072 573.698 311.172C580.638 302.509 586.209 293.435 590.154 284.398Z" fill="#08090C"/>
<path d="M325.166 284.398C327.26 286.367 329.504 288.228 331.895 289.965C346.457 300.546 363.724 304.523 379.906 302.409C367.807 309.931 354.176 313.072 341.621 311.172C334.681 302.509 329.11 293.435 325.166 284.398Z" fill="#08090C"/>
<path d="M320.78 238.863C319.213 244.074 318.393 249.451 318.393 254.947C318.393 259.635 318.99 264.49 320.138 269.434C338.189 277.919 362.257 275.527 385.285 263.659C362.944 265.471 341.063 258.786 324.877 243.156C323.443 241.771 322.077 240.339 320.78 238.863Z" fill="#08090C"/>
<path d="M466.046 368.483L458.343 301.775L450.641 368.483C453.191 368.628 455.759 368.703 458.343 368.703C460.928 368.703 463.496 368.628 466.046 368.483Z" fill="#08090C"/>
<path fill-rule="evenodd" clip-rule="evenodd" d="M573.784 358.353L570.329 364.138C547.392 402.545 505.404 428.279 457.401 428.279C409.399 428.279 367.41 402.545 344.473 364.138L341.018 358.353H573.784ZM347.757 362.177C348.527 363.467 349.32 364.742 350.134 366.002C372.859 401.174 412.411 424.455 457.401 424.455C502.391 424.455 541.943 401.174 564.669 366.002C565.482 364.742 566.275 363.467 567.045 362.177H347.757Z" fill="#08090C"/>
<path d="M350.134 366.002C349.32 364.742 348.527 363.467 347.757 362.177H567.045C566.275 363.467 565.482 364.742 564.669 366.002C541.943 401.174 502.391 424.455 457.401 424.455C412.411 424.455 372.859 401.174 350.134 366.002Z" fill="#FCDC4D"/>
<path fill-rule="evenodd" clip-rule="evenodd" d="M591.337 300.771C590.724 322.002 585.171 342.003 575.784 359.656C573.647 363.676 569.456 366.001 565.067 366.001L349.732 366.001C345.342 366.001 341.151 363.676 339.014 359.656C330.352 343.366 324.954 325.077 323.691 305.665C323.229 298.563 329.033 293.011 335.816 293.011L583.744 293.011C587.939 293.011 591.462 296.433 591.337 300.771ZM572.407 357.86C570.972 360.56 568.125 362.176 565.067 362.176L349.732 362.176C346.673 362.176 343.826 360.56 342.391 357.86C333.978 342.039 328.735 324.275 327.508 305.417C327.2 300.685 331.074 296.836 335.816 296.836L583.744 296.836C585.856 296.836 587.575 298.549 587.514 300.661C586.918 321.289 581.524 340.715 572.407 357.86Z" fill="#08090C"/>
<path d="M565.067 362.176C568.125 362.176 570.972 360.56 572.407 357.86C581.524 340.715 586.918 321.289 587.514 300.661C587.575 298.549 585.856 296.836 583.744 296.836L335.816 296.836C331.074 296.836 327.2 300.685 327.508 305.417C328.735 324.275 333.978 342.039 342.391 357.86C343.826 360.56 346.673 362.176 349.732 362.176L565.067 362.176Z" fill="#FCDC4D"/>
<path fill-rule="evenodd" clip-rule="evenodd" d="M413.238 371.616H359.645V340.995H413.238V371.616ZM409.414 367.792V344.82H363.47V367.792H409.414Z" fill="#08090C"/>
<path d="M409.414 367.792H363.47V344.82H409.414V367.792Z" fill="#08090C"/>
<path fill-rule="evenodd" clip-rule="evenodd" d="M373.722 357.414V363.794L365.422 355.488C364.982 355.048 364.269 355.048 363.829 355.488L363.75 355.568C363.31 356.008 363.31 356.721 363.75 357.161L374.101 367.519C374.486 367.904 375.08 367.953 375.517 367.664C375.579 367.622 375.639 367.574 375.693 367.519L375.773 367.44L375.775 367.438L386.045 357.161C386.216 356.99 386.32 356.779 386.358 356.557C386.379 356.471 386.391 356.38 386.391 356.287V356.175C386.391 355.552 385.887 355.048 385.265 355.048H377.885L386.045 346.883C386.485 346.443 386.485 345.729 386.045 345.289L385.965 345.21C385.525 344.769 384.812 344.769 384.373 345.21L376.087 353.501V346.005C376.087 345.383 375.583 344.878 374.961 344.878H374.848C374.226 344.878 373.722 345.383 373.722 346.005V355.048H369.612C368.99 355.048 368.486 355.552 368.486 356.175V356.287C368.486 356.91 368.99 357.414 369.612 357.414H373.722ZM382.448 357.414H376.087V363.779L382.448 357.414Z" fill="#FCDC4D"/>
<path fill-rule="evenodd" clip-rule="evenodd" d="M388.749 366.723C388.749 367.345 388.245 367.849 387.624 367.849H387.511C386.889 367.849 386.386 367.345 386.386 366.723V355.942L386.368 355.924L386.386 355.906V346.004C386.386 345.382 386.889 344.878 387.511 344.878H387.624C388.245 344.878 388.749 345.382 388.749 346.004V353.541L397.071 345.217C397.51 344.777 398.223 344.777 398.662 345.217L409.009 355.568C409.064 355.623 409.112 355.682 409.153 355.744C409.277 355.932 409.339 356.15 409.339 356.367C409.339 356.438 409.332 356.509 409.318 356.579C409.277 356.792 409.174 356.995 409.009 357.16L398.662 367.511C398.223 367.951 397.51 367.951 397.071 367.511L396.991 367.431C396.83 367.27 396.727 367.072 396.685 366.864V357.546H388.749V366.723ZM399.048 357.546H402.706C403.328 357.546 403.832 357.042 403.832 356.42V356.308C403.832 355.686 403.328 355.182 402.706 355.182H399.048V348.824L406.524 356.302L399.048 363.781V357.546ZM396.685 348.947V355.182H390.453L396.685 348.947Z" fill="#FCDC4D"/>
</svg>
